<svg xmlns="http://www.w3.org/2000/svg" width="200" height="200" viewBox="0 0 200 200"><g transform="translate(-164.126 -294.378)"><g transform="translate(228.388 294.378)"><line x1="0.197" y2="24.69" transform="translate(29.826 10.222)" fill="none" stroke="#5987e4" stroke-miterlimit="10" stroke-width="2.726"/><path d="M259.505,313.143l-6.568,6.568v9" transform="translate(-197.038 -294.378)" fill="none" stroke="#5987e4" stroke-miterlimit="10" stroke-width="2.726"/><path d="M202.767,301.835,213.334,312.4v17.283" transform="translate(-197.038 -294.378)" fill="none" stroke="#5987e4" stroke-miterlimit="10" stroke-width="2.726"/><path d="M206.519,299.119a4.741,4.741,0,1,1-4.74-4.741A4.74,4.74,0,0,1,206.519,299.119Z" transform="translate(-197.038 -294.378)" fill="#5987e4"/><path d="M231.7,303.267a4.74,4.74,0,1,1-4.741-4.741A4.741,4.741,0,0,1,231.7,303.267Z" transform="translate(-197.038 -294.378)" fill="#e4b26d"/><g transform="translate(42.468)"><path d="M250.073,300.3l-10.568,10.568v18.365" transform="translate(-239.506 -294.378)" fill="none" stroke="#5987e4" stroke-miterlimit="10" stroke-width="2.726"/><path d="M255.258,299.119a4.741,4.741,0,1,1-4.74-4.741A4.74,4.74,0,0,1,255.258,299.119Z" transform="translate(-239.506 -294.378)" fill="#5987e4"/></g><path d="M265.332,311.563a4.741,4.741,0,1,1-4.741-4.741A4.74,4.74,0,0,1,265.332,311.563Z" transform="translate(-197.038 -294.378)" fill="#5987e4"/></g><g transform="translate(231.57 451.762)"><line y1="24.69" x2="0.197" transform="translate(38.27 7.703)" fill="none" stroke="#5987e4" stroke-miterlimit="10" stroke-width="2.726"/><path d="M204.495,411.361l6.568-6.568V387.51" transform="translate(-198.668 -387.51)" fill="none" stroke="#5987e4" stroke-miterlimit="10" stroke-width="2.726"/><g transform="translate(51.998 7.308)"><path d="M261.233,422.669,250.666,412.1V394.819" transform="translate(-250.666 -394.819)" fill="none" stroke="#5987e4" stroke-miterlimit="10" stroke-width="2.726"/><path d="M257.48,425.385a4.741,4.741,0,1,1,4.741,4.741A4.741,4.741,0,0,1,257.48,425.385Z" transform="translate(-250.666 -394.819)" fill="#5987e4"/></g><path d="M232.3,421.237a4.74,4.74,0,1,1,4.741,4.741A4.741,4.741,0,0,1,232.3,421.237Z" transform="translate(-198.668 -387.51)" fill="#5987e4"/><g transform="translate(10.074 8.839)"><path d="M213.927,424.2l10.568-10.568V396.349" transform="translate(-208.742 -396.349)" fill="none" stroke="#5987e4" stroke-miterlimit="10" stroke-width="2.726"/><path d="M208.742,425.385a4.741,4.741,0,1,1,4.74,4.741A4.74,4.74,0,0,1,208.742,425.385Z" transform="translate(-208.742 -396.349)" fill="#5987e4"/></g><path d="M198.668,412.941a4.741,4.741,0,1,1,4.74,4.741A4.74,4.74,0,0,1,198.668,412.941Z" transform="translate(-198.668 -387.51)" fill="#e4b26d"/></g><g transform="translate(321.51 358.64)"><line x1="24.69" y1="0.198" transform="translate(7.703 29.826)" fill="none" stroke="#5987e4" stroke-miterlimit="10" stroke-width="2.726"/><path d="M281.109,389.757l-6.568-6.568H257.258" transform="translate(-257.258 -327.29)" fill="none" stroke="#5987e4" stroke-miterlimit="10" stroke-width="2.726"/><g transform="translate(7.308)"><path d="M292.417,333.018,281.85,343.586H264.567" transform="translate(-264.567 -327.29)" fill="none" stroke="#5987e4" stroke-miterlimit="10" stroke-width="2.726"/><path d="M295.133,336.772a4.741,4.741,0,1,1,4.741-4.741A4.741,4.741,0,0,1,295.133,336.772Z" transform="translate(-264.567 -327.29)" fill="#e4b26d"/></g><path d="M290.985,361.956a4.74,4.74,0,1,1,4.741-4.741A4.741,4.741,0,0,1,290.985,361.956Z" transform="translate(-257.258 -327.29)" fill="#5987e4"/><g transform="translate(8.839 42.468)"><path d="M293.948,380.325l-10.567-10.567H266.1" transform="translate(-266.097 -369.758)" fill="none" stroke="#5987e4" stroke-miterlimit="10" stroke-width="2.726"/><path d="M295.133,385.51a4.741,4.741,0,1,1,4.741-4.74A4.74,4.74,0,0,1,295.133,385.51Z" transform="translate(-266.097 -369.758)" fill="#5987e4"/></g><path d="M282.689,395.584a4.741,4.741,0,1,1,4.741-4.741A4.741,4.741,0,0,1,282.689,395.584Z" transform="translate(-257.258 -327.29)" fill="#e4b26d"/></g><g transform="translate(164.126 361.822)"><line x2="24.69" y2="0.198" transform="translate(10.222 38.27)" fill="none" stroke="#5987e4" stroke-miterlimit="10" stroke-width="2.726"/><path d="M182.891,334.747l6.568,6.568h8.425" transform="translate(-164.126 -328.92)" fill="none" stroke="#5987e4" stroke-miterlimit="10" stroke-width="2.726"/><g transform="translate(0 51.998)"><path d="M171.583,391.485l10.567-10.568h17.283" transform="translate(-164.126 -380.918)" fill="none" stroke="#5987e4" stroke-miterlimit="10" stroke-width="2.726"/><path d="M168.867,387.732a4.741,4.741,0,1,1-4.741,4.741A4.741,4.741,0,0,1,168.867,387.732Z" transform="translate(-164.126 -380.918)" fill="#5987e4"/></g><path d="M173.015,362.548a4.74,4.74,0,1,1-4.741,4.741A4.741,4.741,0,0,1,173.015,362.548Z" transform="translate(-164.126 -328.92)" fill="#e4b26d"/><g transform="translate(0 10.074)"><path d="M170.052,344.179l10.567,10.567H197.9" transform="translate(-164.126 -338.994)" fill="none" stroke="#5987e4" stroke-miterlimit="10" stroke-width="2.726"/><path d="M168.867,338.994a4.741,4.741,0,1,1-4.741,4.74A4.74,4.74,0,0,1,168.867,338.994Z" transform="translate(-164.126 -338.994)" fill="#5987e4"/></g><path d="M181.311,328.92a4.74,4.74,0,1,1-4.741,4.74A4.74,4.74,0,0,1,181.311,328.92Z" transform="translate(-164.126 -328.92)" fill="#5987e4"/></g><rect width="135.953" height="135.953" rx="10" transform="translate(196.15 326.426)" fill="#0c1634"/><path d="M-12.786-20H59.6a7.214,7.214,0,0,1,7.214,7.214V59.6A7.214,7.214,0,0,1,59.6,66.813H-12.786A7.214,7.214,0,0,1-20,59.6V-12.786A7.214,7.214,0,0,1-12.786-20Z" transform="translate(287.533 371.014) rotate(90)" fill="#e3e4f2" stroke="#8eb4ff" stroke-width="2.565"/><text transform="translate(253.45 401.363)" fill="#8eb4ff" font-size="23.425" font-family="Helvetica"><tspan x="0" y="0">AI</tspan></text></g></svg>