<svg xmlns="http://www.w3.org/2000/svg" width="347.487" height="190.465" viewBox="0 0 347.487 190.465"><g transform="translate(-131.177 -42.393)"><path d="M166.5,139.122l22.145-.144a28.253,28.253,0,0,0-7.123-18.27,26.194,26.194,0,0,0-22.936-8.8,30.943,30.943,0,0,0-3.217.517c-.026.005-.052.008-.078.014v0l6,26.684Z" fill="#14bda4"/><path d="M173.316,166.624a26.272,26.272,0,0,0,15.078-21.537q.042-.419.074-.845c.013-.18.031-.356.041-.538q.043-.792.046-1.607c0-.025,0-.049,0-.073v0c0-.023,0-.045,0-.067h-.005l-22.145.144-5.2.034-5.824,26.692-.007.032h0a26.258,26.258,0,0,0,5.742.593A28.728,28.728,0,0,0,173.316,166.624Z" fill="#455a64"/><path d="M158.53,140.552l-6-26.684a27.352,27.352,0,0,0,.18,53.41l5.824-26.692" fill="#263238"/><rect width="160.536" height="68.236" rx="3.958" transform="translate(238.499 42.393)" fill="#5987e4"/><path d="M285.686,67.74a17.393,17.393,0,0,0-14.139-10.15q-.277-.031-.559-.056c-.119-.01-.235-.023-.356-.031-.349-.023-.7-.038-1.063-.044l-.049,0h-.047v0h0l-.078,14.662-.018,3.445L287,79.63l.021.005h0a17.435,17.435,0,0,0,.438-3.8A19.022,19.022,0,0,0,285.686,67.74Z" fill="#fafafa"/><path d="M266.694,77.472l.039-3.242.078-14.662a18.71,18.71,0,0,0-12.15,4.572,17.343,17.343,0,0,0-6.009,15.115c.061.627.155,1.267.279,1.916l-.134.028c2.348,8.443,9.971,14.825,17.5,14.343,8.66-.556,16-5.916,17.861-14.043Z" fill="#e0e0e0"/><path d="M329.975,65.178c0,.144-7.074.26-15.8.26s-15.8-.116-15.8-.26,7.073-.261,15.8-.261S329.975,65.034,329.975,65.178Z" fill="#263238"/><path d="M329.975,71.248c0,.144-7.074.261-15.8.261s-15.8-.117-15.8-.261,7.073-.26,15.8-.26S329.975,71.1,329.975,71.248Z" fill="#263238"/><path d="M329.975,77.319c0,.144-7.074.26-15.8.26s-15.8-.116-15.8-.26,7.073-.261,15.8-.261S329.975,77.175,329.975,77.319Z" fill="#263238"/><path d="M329.975,83.389c0,.144-7.074.261-15.8.261s-15.8-.117-15.8-.261,7.073-.26,15.8-.26S329.975,83.246,329.975,83.389Z" fill="#263238"/><path d="M316.894,89.957a14.056,14.056,0,0,1-2.712.184c-1.676.048-3.99.077-6.547.077s-4.872-.029-6.548-.077a14.067,14.067,0,0,1-2.712-.184,14.067,14.067,0,0,1,2.712-.184c1.676-.047,3.991-.076,6.548-.076s4.871.029,6.547.076A14.056,14.056,0,0,1,316.894,89.957Z" fill="#263238"/><path d="M352.484,59.6c-.012-.027.214-.184.68-.368a5.781,5.781,0,0,1,2.1-.383,5.849,5.849,0,0,1,.719.046c.124.017.251.037.38.063l.048.01h.006c-.132-.213.184.291.151.24v0l0,.012-.005.023-.02.094-.04.191q-.17.786-.354,1.646c-.264,1.181-.549,2.459-.849,3.807l-.045.2h-.209l-1.324-.005-4.593-.048-.241,0,.006-.238a6.38,6.38,0,0,1,.648-2.684,5.58,5.58,0,0,1,1.323-1.692,4.976,4.976,0,0,1,1.158-.76c.291-.136.459-.178.468-.157.038.065-.612.327-1.432,1.127a5.77,5.77,0,0,0-1.69,4.172l-.234-.241,4.59,0,1.324.009-.253.2c.32-1.343.623-2.617.9-3.8q.21-.854.4-1.634l.047-.189.024-.094.006-.023,0-.012v0c-.032-.053.282.451.148.237h-.006l-.044-.011c-.119-.029-.236-.053-.352-.073a5.621,5.621,0,0,0-.671-.075A9.456,9.456,0,0,0,352.484,59.6Z" fill="#e0e0e0"/><path d="M355.664,65.808l-1.06-.013-4.789-.025a6.111,6.111,0,0,0,1.493,3.969,5.668,5.668,0,0,0,4.938,1.963c.2-.02.414-.051.626-.091l.009.044c2.758-.767,4.843-3.258,4.686-5.716a6.158,6.158,0,0,0-4.588-5.835Z" fill="#fafafa"/><path d="M352.484,81.129a5.678,5.678,0,0,0-3.315,4.619c-.007.06-.013.121-.019.182,0,.039-.007.077-.01.116-.007.115-.012.231-.014.348v.016h0v.014h0l4.789.026,1.126.006,1.328-5.758v-.007h0a5.7,5.7,0,0,0-1.24-.143A6.214,6.214,0,0,0,352.484,81.129Z" fill="#fafafa"/><path d="M355.664,87.333a13.664,13.664,0,0,1,.275-1.6c.222-1.073.511-2.468.858-4.147l.036-.177.188.036a6.08,6.08,0,0,1,4.374,3.983,6,6,0,0,1,.245,3.591,6.246,6.246,0,0,1-2.212,3.157,7.339,7.339,0,0,1-2.478,1.251l-.264.076-.057-.271-.009-.043.3.2a6.269,6.269,0,0,1-3.047-.148,5.881,5.881,0,0,1-2.429-1.491,6.286,6.286,0,0,1-1.817-4.456l0-.191.185.005,4.279.106a10.949,10.949,0,0,1,1.569.119,10.036,10.036,0,0,1-1.57.088l-4.28.061L350,87.3a5.962,5.962,0,0,0,1.772,4.124,5.532,5.532,0,0,0,5.049,1.463l.247-.052.054.251.009.044-.321-.195a6.88,6.88,0,0,0,2.3-1.165,5.78,5.78,0,0,0,2.041-2.886,5.565,5.565,0,0,0-.208-3.29,5.725,5.725,0,0,0-4-3.778l.224-.141c-.438,1.793-.809,3.228-1.068,4.2A10.362,10.362,0,0,1,355.664,87.333Z" fill="#e0e0e0"/><path d="M387.533,84.205a96.2,96.2,0,0,1-10.006.261,96.165,96.165,0,0,1-10.006-.261,96.346,96.346,0,0,1,10.006-.26A96.377,96.377,0,0,1,387.533,84.205Z" fill="#263238"/><path d="M377.527,86.878a48.264,48.264,0,0,1-10.006,0,48.081,48.081,0,0,1,10.006,0Z" fill="#263238"/><path d="M387.533,62.695a96.378,96.378,0,0,1-10.006.26,96.347,96.347,0,0,1-10.006-.26,96.348,96.348,0,0,1,10.006-.26A96.379,96.379,0,0,1,387.533,62.695Z" fill="#263238"/><path d="M377.527,65.368a48.264,48.264,0,0,1-10.006,0,48.082,48.082,0,0,1,10.006,0Z" fill="#263238"/><path d="M339.866,101.278c-.144,0-.261-12.039-.261-26.888s.117-26.89.261-26.89.26,12.037.26,26.89S340.01,101.278,339.866,101.278Z" fill="#263238"/><rect width="6.196" height="55.941" transform="translate(331.38 168.133)" fill="#5987e4"/><rect width="6.196" height="36.941" transform="translate(343.342 187.132)" fill="#5987e4"/><rect width="6.196" height="49.272" transform="translate(355.304 175.086)" fill="#5987e4"/><rect width="6.196" height="53.781" transform="translate(367.266 170.293)" fill="#5987e4"/><rect width="6.196" height="35.804" transform="translate(379.228 188.27)" fill="#5987e4"/><rect width="6.196" height="28.782" transform="translate(391.189 195.291)" fill="#5987e4"/><rect width="6.196" height="50.199" transform="translate(403.151 173.874)" fill="#5987e4"/><rect width="6.196" height="41.149" transform="translate(415.113 182.925)" fill="#5987e4"/><rect width="6.196" height="48.381" transform="translate(427.075 175.693)" fill="#5987e4"/><rect width="6.196" height="32.961" transform="translate(439.037 191.113)" fill="#5987e4"/><rect width="6.196" height="39.233" transform="translate(450.999 184.84)" fill="#5987e4"/><path d="M453.358,180.816a2.04,2.04,0,0,1-.374-.042L451.9,180.6c-.474-.092-1.065-.166-1.767-.23l-1.13-.119-1.293-.057a33.985,33.985,0,0,0-6.637.36,36.933,36.933,0,0,0-8.477,2.308,34.72,34.72,0,0,0-9.142,5.4,48.181,48.181,0,0,0-8.184,9.074c-2.6,3.445-5.253,7.234-8.935,10.285a22.46,22.46,0,0,1-6.2,3.748,14.886,14.886,0,0,1-7.4.911,17.4,17.4,0,0,1-6.976-2.648,29.487,29.487,0,0,1-5.534-4.671c-3.272-3.464-5.651-7.395-8.157-10.913a40.086,40.086,0,0,0-8.147-9.069,21.111,21.111,0,0,0-4.785-2.721,22.654,22.654,0,0,0-4.914-1.323,23.617,23.617,0,0,0-14.9,2.769,23.241,23.241,0,0,0-3.411,2.448c-.342.309-.61.553-.812.736a2.137,2.137,0,0,1-.29.239,2,2,0,0,1,.252-.276l.779-.777a21.535,21.535,0,0,1,3.379-2.545,23.593,23.593,0,0,1,15.051-2.958,22.807,22.807,0,0,1,5.01,1.313,21.493,21.493,0,0,1,4.9,2.751,40.267,40.267,0,0,1,8.279,9.136c2.527,3.527,4.906,7.433,8.136,10.84a29.072,29.072,0,0,0,5.44,4.583,16.907,16.907,0,0,0,6.769,2.57,14.381,14.381,0,0,0,7.144-.879,21.986,21.986,0,0,0,6.061-3.657c3.62-2.987,6.263-6.736,8.878-10.18,1.3-1.732,2.6-3.411,3.968-4.958.689-.767,1.37-1.525,2.11-2.2l1.088-1.021c.37-.326.756-.628,1.128-.938a34.86,34.86,0,0,1,9.278-5.411,36.767,36.767,0,0,1,8.573-2.254,33.125,33.125,0,0,1,6.688-.274l1.3.081,1.133.144a16.128,16.128,0,0,1,1.767.28l1.076.224A2.018,2.018,0,0,1,453.358,180.816Z" fill="#fff"/><path d="M324.56,227.97c-.144,0-.261-15.952-.261-35.625s.117-35.628.261-35.628.26,15.948.26,35.628S324.7,227.97,324.56,227.97Z" fill="#fff"/><path d="M459.724,227.97c0,.143-29.39.26-65.636.26s-65.642-.117-65.642-.26,29.384-.261,65.642-.261S459.724,227.826,459.724,227.97Z" fill="#fff"/><path d="M340.218,232.373a40.788,40.788,0,0,1-9.2,0,40.788,40.788,0,0,1,9.2,0Z" fill="#fff"/><path d="M355.47,232.6a57.975,57.975,0,0,1-10.99,0,58.2,58.2,0,0,1,10.99,0Z" fill="#fff"/><path d="M368.479,232.6a57.975,57.975,0,0,1-10.99,0,58.2,58.2,0,0,1,10.99,0Z" fill="#fff"/><path d="M381.488,232.6a57.975,57.975,0,0,1-10.99,0,58.2,58.2,0,0,1,10.99,0Z" fill="#fff"/><path d="M394.5,232.6a57.986,57.986,0,0,1-10.991,0,58.209,58.209,0,0,1,10.991,0Z" fill="#fff"/><path d="M407.507,232.6a57.986,57.986,0,0,1-10.991,0,58.209,58.209,0,0,1,10.991,0Z" fill="#fff"/><path d="M420.516,232.6a57.986,57.986,0,0,1-10.991,0,58.209,58.209,0,0,1,10.991,0Z" fill="#fff"/><path d="M433.525,232.6a57.975,57.975,0,0,1-10.99,0,58.2,58.2,0,0,1,10.99,0Z" fill="#fff"/><path d="M446.534,232.6a57.975,57.975,0,0,1-10.99,0,58.2,58.2,0,0,1,10.99,0Z" fill="#fff"/><path d="M459.543,232.6a57.975,57.975,0,0,1-10.99,0,58.2,58.2,0,0,1,10.99,0Z" fill="#fff"/><path d="M373.726,194.705c-.011-.069.537.017.745.724a1.32,1.32,0,0,1-.246,1.2,1.342,1.342,0,0,1-2.28-1.026,1.318,1.318,0,0,1,.733-.978c.668-.314,1.1.039,1.037.077-.025.076-.407-.071-.853.242a1,1,0,0,0-.44.71.9.9,0,0,0,1.449.652,1,1,0,0,0,.239-.8C374.048,194.962,373.685,194.774,373.726,194.705Z" fill="#fff"/><path d="M433.611,181.2c0-.031.123-.074.351-.035a1.381,1.381,0,0,1,.814.521,1.439,1.439,0,0,1,.22,1.456,1.664,1.664,0,0,1-1.519.977,1.54,1.54,0,0,1-1.415-1.12,1.466,1.466,0,0,1,.294-1.436c.612-.62,1.2-.522,1.178-.473.03.082-.487.158-.891.7a1.118,1.118,0,0,0-.126,1.055,1.085,1.085,0,0,0,.968.75,1.229,1.229,0,0,0,1.074-.654,1.092,1.092,0,0,0-.084-1.047C434.115,181.309,433.591,181.281,433.611,181.2Z" fill="#fff"/><ellipse cx="0.26" cy="0.75" rx="0.26" ry="0.75" transform="translate(434.321 153.582)" fill="#fff"/><path d="M434.582,161.591c-.144,0-.261-.728-.261-1.627s.117-1.627.261-1.627.26.728.26,1.627S434.725,161.591,434.582,161.591Z" fill="#fff"/><path d="M434.582,168.1c-.144,0-.261-.728-.261-1.627s.117-1.627.261-1.627.26.728.26,1.627S434.725,168.1,434.582,168.1Z" fill="#fff"/><path d="M434.582,174.609c-.144,0-.261-.728-.261-1.627s.117-1.627.261-1.627.26.728.26,1.627S434.725,174.609,434.582,174.609Z" fill="#fff"/><path d="M434.582,179.364c-.144,0-.261-.336-.261-.75s.117-.75.261-.75.26.336.26.75S434.725,179.364,434.582,179.364Z" fill="#fff"/><path d="M478.664,144.759c0,.144-10.164.26-22.7.26s-22.7-.116-22.7-.26,10.162-.261,22.7-.261S478.664,144.615,478.664,144.759Z" fill="#fff"/><path d="M463.158,139.62c0,.144-6.539.261-14.6.261s-14.607-.117-14.607-.261,6.539-.26,14.607-.26S463.158,139.476,463.158,139.62Z" fill="#fff"/><path d="M165.588,109.129c.144,0,.261.336.261.75s-.117.751-.261.751-.26-.336-.26-.751S165.445,109.129,165.588,109.129Z" fill="#fff"/><path d="M165.588,103.338c.144,0,.261.648.261,1.448s-.117,1.448-.261,1.448-.26-.648-.26-1.448S165.445,103.338,165.588,103.338Z" fill="#fff"/><path d="M165.588,97.545c.144,0,.261.648.261,1.447s-.117,1.447-.261,1.447-.26-.647-.26-1.447S165.445,97.545,165.588,97.545Z" fill="#fff"/><path d="M165.588,91.76c.144,0,.261.647.261,1.446s-.117,1.447-.261,1.447-.26-.647-.26-1.447S165.445,91.76,165.588,91.76Z" fill="#fff"/><ellipse cx="0.26" cy="1.445" rx="0.26" ry="1.445" transform="translate(165.328 85.976)" fill="#fff"/><path d="M165.588,80.188c.144,0,.261.648.261,1.447s-.117,1.447-.261,1.447-.26-.647-.26-1.447S165.445,80.188,165.588,80.188Z" fill="#fff"/><path d="M165.588,75.787c.144,0,.261.336.261.75s-.117.75-.261.75-.26-.335-.26-.75S165.445,75.787,165.588,75.787Z" fill="#fff"/><path d="M167.089,74.38c0,.144-.336.26-.751.26s-.75-.116-.75-.26.336-.26.75-.26S167.089,74.236,167.089,74.38Z" fill="#fff"/><path d="M173.25,74.38c0,.144-.69.26-1.541.26s-1.54-.116-1.54-.26.69-.26,1.54-.26S173.25,74.236,173.25,74.38Z" fill="#fff"/><path d="M179.41,74.38c0,.144-.689.26-1.54.26s-1.54-.116-1.54-.26.69-.26,1.54-.26S179.41,74.236,179.41,74.38Z" fill="#fff"/><path d="M185.57,74.38c0,.144-.69.26-1.54.26s-1.54-.116-1.54-.26.689-.26,1.54-.26S185.57,74.236,185.57,74.38Z" fill="#fff"/><path d="M191.719,74.38c0,.144-.688.26-1.537.26s-1.537-.116-1.537-.26.688-.26,1.537-.26S191.719,74.236,191.719,74.38Z" fill="#fff"/><path d="M197.872,74.38c0,.144-.689.26-1.538.26s-1.539-.116-1.539-.26.689-.26,1.539-.26S197.872,74.236,197.872,74.38Z" fill="#fff"/><path d="M204.023,74.38c0,.144-.688.26-1.537.26s-1.538-.116-1.538-.26.688-.26,1.538-.26S204.023,74.236,204.023,74.38Z" fill="#fff"/><path d="M210.176,74.38c0,.144-.689.26-1.538.26s-1.539-.116-1.539-.26.689-.26,1.539-.26S210.176,74.236,210.176,74.38Z" fill="#fff"/><path d="M216.331,74.38c0,.144-.689.26-1.539.26s-1.538-.116-1.538-.26.689-.26,1.538-.26S216.331,74.236,216.331,74.38Z" fill="#fff"/><path d="M222.485,74.38c0,.144-.689.26-1.538.26s-1.538-.116-1.538-.26.688-.26,1.538-.26S222.485,74.236,222.485,74.38Z" fill="#fff"/><path d="M228.638,74.38c0,.144-.688.26-1.537.26s-1.538-.116-1.538-.26.688-.26,1.538-.26S228.638,74.236,228.638,74.38Z" fill="#fff"/><path d="M233.251,74.38c0,.144-.335.26-.75.26s-.75-.116-.75-.26.336-.26.75-.26S233.251,74.236,233.251,74.38Z" fill="#fff"/><path d="M361.331,120.931c-.144,0-.26-.673-.26-1.5s.116-1.5.26-1.5.26.672.26,1.5S361.475,120.931,361.331,120.931Z" fill="#fff"/><path d="M361.331,126.938c-.144,0-.26-.673-.26-1.5s.116-1.5.26-1.5.26.672.26,1.5S361.475,126.938,361.331,126.938Z" fill="#fff"/><path d="M361.331,132.941c-.144,0-.26-.672-.26-1.5s.116-1.5.26-1.5.26.672.26,1.5S361.475,132.941,361.331,132.941Z" fill="#fff"/><path d="M361.331,138.934c-.144,0-.26-.671-.26-1.5s.116-1.5.26-1.5.26.671.26,1.5S361.475,138.934,361.331,138.934Z" fill="#fff"/><path d="M361.331,144.926c-.144,0-.26-.671-.26-1.5s.116-1.5.26-1.5.26.67.26,1.5S361.475,144.926,361.331,144.926Z" fill="#fff"/><path d="M361.331,150.919c-.144,0-.26-.671-.26-1.5s.116-1.5.26-1.5.26.67.26,1.5S361.475,150.919,361.331,150.919Z" fill="#fff"/><path d="M361.331,156.916c-.144,0-.26-.672-.26-1.5s.116-1.5.26-1.5.26.671.26,1.5S361.475,156.916,361.331,156.916Z" fill="#fff"/><path d="M361.331,162.913c-.144,0-.26-.672-.26-1.5s.116-1.5.26-1.5.26.671.26,1.5S361.475,162.913,361.331,162.913Z" fill="#fff"/></g></svg>