<svg xmlns="http://www.w3.org/2000/svg" width="34.539" height="79.653" viewBox="0 0 34.539 79.653"><g transform="translate(-200.623 -273.912)"><path d="M233.529,335c.241.662.25.67-.5.842-.088.021-.233.1-.234.15a3.532,3.532,0,0,1-1.332,2.433,20.591,20.591,0,0,0-1.378,1.653c-.428.514-1.062.851-1.274,1.555a.829.829,0,0,1-.412.414,7.485,7.485,0,0,1-.906.325c.257.38.082.772-.259.774-.564,0-.315.52-.589.7a3.316,3.316,0,0,0-.7.741c-.207.255-.362.551-.576.8-.259.3-.556.565-.836.846-.246.246-.58.449-.716.745-.25.542-.818.783-1.084,1.177-.3.45-.7.781-1.027,1.191a7.253,7.253,0,0,1-1.64,1.694,2.871,2.871,0,0,1-1.767.784c-.126-.007-.361.073-.37.139-.159,1.09-1.434.8-1.911,1.531-.1.157-.7.034-1.059-.042-.116-.024-.516-.23-.129-.52a1.151,1.151,0,0,0-.237-.394c-.039-.039-.209.027-.3.077s-.135.144-.214.2c-.227.167-.549.509-.673.449-.328-.158-.842-.538-.805-.748.186-1.073-.733-1.54-1.165-2.211-1.222-1.9-2.7-3.63-3.915-5.528-1.459-2.276-2.926-4.545-4.456-6.773a4.678,4.678,0,0,1-.519-.826,5.954,5.954,0,0,0-1.458-2.384c-.617-.546-.456-1.417-.407-2.18,0-.055.247-.141.37-.13.17.016.41.066.482.184.163.269.2.616.376.878.071.108.349.081.532.117a1.875,1.875,0,0,0,.624.4c.15.033-.016-.043-.189-.1-.029-.009-.09.084-.137.131l.484.418c.037-.077.074-.155-.158-.453a1.865,1.865,0,0,1-.624-.4c-.088-.413.148-.844-.186-1.264-.216-.271.165-.207.292-.215.179-.011.25.463.545.1.231-.283.472-.684.946-.205.073.075.49-.163.711.162.3.437,1.169.029,1.249.762.07.647.692.569,1.006.89.3.3.154.639.2.961h-.6a.825.825,0,0,0-.09-.225c-.014-.019-.118.031-.18.049a.555.555,0,0,0,.2.176,1.221,1.221,0,0,1,.291.3l.37-.3c.184.036.426.007.542.115a17.737,17.737,0,0,1,2.75,3.164,6.42,6.42,0,0,0,1.129,1c.159.144.292.09.434-.039.316-.29.2-.64.2-.963.012-1.884-.024-3.768.021-5.652.017-.714-.264-1.468.19-2.146a4.419,4.419,0,0,1-.207-1.921c-.133-3.486.433-6.946.323-10.438-.111-3.517-.024-7.039-.024-10.559.544-2.269.241-4.577.287-6.867.047-2.33-.208-4.686.062-6.984.4-3.389-.069-6.788.31-10.138.261-2.305.091-4.588.242-6.875.04-.607,3.586-3.526,3.59-2.37.008,2.429,2.049,6.709,2.061,9.138a2.672,2.672,0,0,0,.16.636,3.9,3.9,0,0,0,.124-.69c.01-1.933.006-3.866.006-5.8,0-.248-.011-.5.008-.743,0-.054.111-.107.179-.144.013-.006.091.06.1.1a1.723,1.723,0,0,1,.012.293,73.986,73.986,0,0,0,.062,7.877c.274,2.549.2,5.08.222,7.617.047,4.808.01,9.617.016,14.427a10.823,10.823,0,0,0,.283,3.6c.051.148-.072.357-.114.538-.156-.169-.411-.32-.447-.511a6.589,6.589,0,0,1-.021-1.186V289.55c0-.4.008-.793-.007-1.189,0-.073-.1-.141-.152-.211-.047.08-.129.159-.133.24-.013.4-.006.793-.006,1.19v17.55c0,2.33-.008,4.661.007,6.991a7.171,7.171,0,0,0,.165,1.071,9.34,9.34,0,0,0,.119-.989c.017-.842-.007-1.686.021-2.527,0-.113.222-.219.34-.328.08.1.221.192.228.294.027.395.011.793.011,1.189q0,11.23.011,22.459c0,.505-.245,1.086.276,1.508-.75.52.055,1.026.02,1.544a16.132,16.132,0,0,0,0,1.635c0,.044.212.14.238.116a4.85,4.85,0,0,0,.839-.839,33.3,33.3,0,0,1,2.721-3.343,20.856,20.856,0,0,0,2.251-2.772,6.069,6.069,0,0,1,1.141-1.165c.242-.227.42-.112.538.306a5.07,5.07,0,0,0,.19.49c.165-.081.377-.121.486-.249.306-.358.555-.763.854-1.128a.791.791,0,0,1,1.239-.205c.249.18.782.372.808-.336,0-.058.144-.162.211-.154.229.027.452.121.681.136a1.232,1.232,0,0,0,.42-.128c.055.213.118.424.165.639.084.378.385.191.733.322.09.029.043-.028,0-.086l-.133.133a1.308,1.308,0,0,0,.179.132c.011.006.059-.057-.043-.178-.021-.629.412-.427.64-.314.277.137.112.4-.077.581a.21.21,0,0,0,.006.193c.584.287.284.789.362,1.217.058.326.244.622-.019.894a1.69,1.69,0,0,1-1.5.767c-.274-.231.4.141.448-.445,0-.049.022-.121,0-.144-.133-.122-.449-.013-.91.313a1.2,1.2,0,0,0-.208.208.163.163,0,0,0-.03.1C232.905,335.078,232.989,335.113,233.529,335ZM214.935,294.96V280.681c0-.4.006-.793-.006-1.19,0-.084-.073-.166-.113-.249-.06.1-.171.208-.171.312-.012,1.388.031,2.778-.019,4.164-.048,1.349-.259,2.694-.273,4.042-.039,3.817-.013,7.636-.013,11.453,0,.546.006,1.09,0,1.636a5.016,5.016,0,0,1-.073,1.459c-.144.434.129.859-.172,1.327-.178.276.156.876.245,1.332a.968.968,0,0,1-.264.9c.423.277.25.708.261,1.079.021.694.006,1.388.006,2.083a8.049,8.049,0,0,1-.039,2.072,3.061,3.061,0,0,0,.071,1.836c.124.37-.572.511-.123.843.393.292-.374.56,0,.959a1.163,1.163,0,0,1,.055,1.114c-.412.6-.219,1.223-.257,1.833-.036.593-.008,1.19-.008,1.784v1.637a5.273,5.273,0,0,1-.041,1.769c-.222.582.17,1.034.054,1.557-.08.36.1.783-.294,1.057.431.269.294.705.271,1.073-.043.658.249,1.37-.279,1.966a.275.275,0,0,0,.048.261c.385.205-.283.7.242.85-.036.415.149.883-.279,1.208.431.269.272.7.274,1.074.011,2.528.007,5.057,0,7.585a2.5,2.5,0,0,1-.25,1.24c-.145.279.145.788.256,1.191a1.622,1.622,0,0,0,.171.321c.04-.083.114-.164.116-.247.012-.446.006-.893.006-1.339,0-.4-.162-.977.035-1.15.379-.335-.1-.7.227-1.044.2-.2.036-.758.036-1.154v-1.339q0-9.668,0-19.336c0-.441.021-.883.032-1.325.741-.237-.34-.868.246-1.139a3.959,3.959,0,0,1-.213-2.979,17.259,17.259,0,0,0,.221-3.461C214.951,303.488,214.935,299.224,214.935,294.96Zm3.57,13.109v12.783c0,.347-.006.694.009,1.04,0,.042.12.088.191.111.02.006.09-.063.093-.1.011-.148,0-.3,0-.445V295a2.525,2.525,0,0,0-.009-.444c-.009-.049-.119-.089-.191-.111-.02-.006-.092.064-.092.1-.008.3,0,.594,0,.891Zm1.488,24.411v-7.873c0-.3.008-.6-.009-.891,0-.044-.118-.092-.189-.117-.02-.006-.095.064-.1.1-.007.347,0,.693,0,1.04v15.153c0,.3-.015.6.009.89.008.1.121.182.186.272a.79.79,0,0,0,.1-.255Q220,336.64,219.993,332.48Zm-1.161-8.886-.131-.894c-.386.271-.156.668-.182,1a5.45,5.45,0,0,0,.088.986C218.994,324.418,218.708,324.016,218.832,323.594Zm.863-1.24c.064.283-.162.632.2.846.034-.279.073-.557.1-.838a1.655,1.655,0,0,0-.006-.437c-.009-.048-.119-.088-.19-.11-.021-.006-.091.062-.094.1C219.689,322.06,219.7,322.207,219.7,322.354Zm-15.222,10.292c-.031-.047-.1-.17-.109-.164a1.123,1.123,0,0,0-.423.228c-.039.043.083.232.131.355Zm10.417,15.226c-.381-.157-.5-.242-.537-.216a2.421,2.421,0,0,0-.311.347c.08.05.174.155.236.139A4.357,4.357,0,0,0,214.89,347.871Zm4.684-31.21c-.077.117-.173.2-.166.266a1.51,1.51,0,0,0,.139.37c.05-.075.141-.152.139-.225A1.779,1.779,0,0,0,219.574,316.661Zm.408,3.551c-.068-.109-.112-.229-.147-.227a2.133,2.133,0,0,0-.39.092c.037.065.072.183.113.186A2.263,2.263,0,0,0,219.982,320.212Zm-.05,1.24a2.274,2.274,0,0,0,.051-.425c0-.04-.121-.075-.186-.112a2.132,2.132,0,0,0-.092.39C219.7,321.34,219.823,321.383,219.932,321.452Zm-1.105,12.173-.173-.261a1.507,1.507,0,0,0-.138.37c-.008.069.089.149.138.225Zm0,3.941-.173-.334c-.049.075-.146.156-.138.225a1.553,1.553,0,0,0,.138.37Zm-.173-9.557c-.032.033-.1.073-.092.1a.947.947,0,0,0,.092.2c.033-.033.1-.073.093-.1A.9.9,0,0,0,218.654,328.009Zm.149,3.719c-.033-.033-.073-.1-.1-.092a.9.9,0,0,0-.2.092c.033.033.073.1.1.093A.935.935,0,0,0,218.8,331.728Zm-17.066,2.784.107-.106a.953.953,0,0,0-.2-.093c-.024-.006-.065.06-.1.093Zm16.811,4.7.106.106a.935.935,0,0,0,.093-.2c.006-.024-.06-.065-.093-.1Zm-2.231,3.336.106-.106a.935.935,0,0,0-.2-.093c-.024-.006-.065.06-.1.093Zm9.67.83.107.106a.931.931,0,0,0,.092-.2c.006-.024-.06-.065-.092-.1Z" transform="translate(0)" fill="#3d466e"/></g></svg>