<svg xmlns="http://www.w3.org/2000/svg" width="95.235" height="138.733" viewBox="0 0 95.235 138.733"><g transform="translate(137.691 -139.146)"><g transform="translate(-180 -40)"><rect width="5.992" height="45.232" transform="translate(92.502 258.318)" fill="#14bda4"/><rect width="5.992" height="26.197" transform="translate(83.269 277.353)" fill="#5987e4"/><rect width="5.992" height="30.284" transform="translate(74.036 273.266)" fill="#14bda4"/><rect width="5.992" height="12.21" transform="translate(64.803 291.34)" fill="#5987e4"/><rect width="5.992" height="55.112" transform="translate(110.969 248.438)" fill="#14bda4"/><rect width="5.992" height="50.077" transform="translate(101.736 253.473)" fill="#5987e4"/><rect width="5.992" height="60.569" transform="translate(129.435 242.981)" fill="#14bda4"/><rect width="5.992" height="72.53" transform="translate(120.202 231.02)" fill="#5987e4"/><path d="M70.641,309.228a6.966,6.966,0,0,1-2.65.26,6.971,6.971,0,0,1-2.65-.26,6.96,6.96,0,0,1,2.65-.261A6.955,6.955,0,0,1,70.641,309.228Z" fill="#fff"/><path d="M79.743,309.228a6.966,6.966,0,0,1-2.65.26,6.971,6.971,0,0,1-2.65-.26,6.96,6.96,0,0,1,2.65-.261A6.955,6.955,0,0,1,79.743,309.228Z" fill="#fff"/><path d="M88.845,309.228a6.967,6.967,0,0,1-2.65.26,6.971,6.971,0,0,1-2.65-.26,6.96,6.96,0,0,1,2.65-.261A6.955,6.955,0,0,1,88.845,309.228Z" fill="#fff"/><path d="M97.947,309.228a6.966,6.966,0,0,1-2.65.26,6.971,6.971,0,0,1-2.65-.26,6.96,6.96,0,0,1,2.65-.261A6.955,6.955,0,0,1,97.947,309.228Z" fill="#fff"/><path d="M107.049,309.228a6.967,6.967,0,0,1-2.65.26,6.971,6.971,0,0,1-2.65-.26,6.96,6.96,0,0,1,2.65-.261A6.955,6.955,0,0,1,107.049,309.228Z" fill="#fff"/><path d="M116.151,309.228a6.967,6.967,0,0,1-2.65.26,6.971,6.971,0,0,1-2.65-.26,6.96,6.96,0,0,1,2.65-.261A6.955,6.955,0,0,1,116.151,309.228Z" fill="#fff"/><path d="M125.253,309.228a6.971,6.971,0,0,1-2.65.26,6.966,6.966,0,0,1-2.65-.26,6.955,6.955,0,0,1,2.65-.261A6.96,6.96,0,0,1,125.253,309.228Z" fill="#fff"/><path d="M134.355,309.228a13.634,13.634,0,0,1-5.3,0,13.584,13.584,0,0,1,5.3,0Z" fill="#fff"/><path d="M137.544,314.558c0,.144-6.508.261-14.534.261s-14.536-.117-14.536-.261,6.507-.26,14.536-.26S137.544,314.414,137.544,314.558Z" fill="#fff"/><path d="M120.2,317.618a25.148,25.148,0,0,1-5.1.261,25.16,25.16,0,0,1-5.1-.261,25.2,25.2,0,0,1,5.1-.26A25.191,25.191,0,0,1,120.2,317.618Z" fill="#fff"/></g><g transform="translate(-180 -40)"><path d="M81.916,193.921c0,.144-6.525.26-14.573.26s-14.574-.116-14.574-.26,6.524-.26,14.574-.26S81.916,193.777,81.916,193.921Z" fill="#fff"/><path d="M81.386,197.672c0,.143-6.407.26-14.308.26s-14.309-.117-14.309-.26,6.4-.261,14.309-.261S81.386,197.528,81.386,197.672Z" fill="#fff"/><path d="M81.386,201.422c0,.144-6.407.261-14.308.261s-14.309-.117-14.309-.261,6.4-.26,14.309-.26S81.386,201.279,81.386,201.422Z" fill="#fff"/><path d="M81.386,205.173c0,.144-6.407.26-14.308.26s-14.309-.116-14.309-.26,6.4-.26,14.309-.26S81.386,205.029,81.386,205.173Z" fill="#fff"/><path d="M81.386,208.924c0,.144-6.407.26-14.308.26s-14.309-.116-14.309-.26,6.4-.261,14.309-.261S81.386,208.78,81.386,208.924Z" fill="#fff"/><path d="M66.726,212.674a46.891,46.891,0,0,1-6.978.261,46.9,46.9,0,0,1-6.979-.261,46.988,46.988,0,0,1,6.979-.26A46.98,46.98,0,0,1,66.726,212.674Z" fill="#fff"/><path d="M74.883,189.82c0,.144-4.971.26-11.1.26s-11.1-.116-11.1-.26,4.969-.261,11.1-.261S74.883,189.676,74.883,189.82Z" fill="#e4b26d"/><path d="M88.7,221.547s-.017-.279-.025-.795q-.009-.807-.026-2.27c-.013-2-.032-4.9-.057-8.57-.028-7.374-.067-17.877-.114-30.5l.222.222-46.067.038c-.062.055.488-.489.256-.253v2.856q0,1.428,0,2.845,0,2.832,0,5.612c0,3.705,0,7.335-.006,10.871-.009,7.071-.017,13.768-.024,19.946l-.228-.228,33.292.115,9.407.06,2.5.027.647.013a1.925,1.925,0,0,1,.228.013.981.981,0,0,1-.2.013l-.623.013-2.452.027-9.355.06-33.439.116H42.4v-.229c-.007-6.178-.015-12.875-.024-19.946,0-3.536,0-7.166-.006-10.871q0-2.779,0-5.612,0-1.416,0-2.845v-2.856c-.233.229.316-.326.265-.267l46.067.038h.222v.222c-.047,12.684-.087,23.235-.114,30.643-.025,3.653-.044,6.529-.058,8.52q-.017,1.434-.025,2.227C88.715,221.3,88.7,221.547,88.7,221.547Z" fill="#fff"/><path d="M74.9,239.16a67.633,67.633,0,0,1-.26-8.379,67.656,67.656,0,0,1,.26-8.38,67.53,67.53,0,0,1,.261,8.38A67.506,67.506,0,0,1,74.9,239.16Z" fill="#fff"/><path d="M76.809,235.342a16.548,16.548,0,0,0-1.048,4.14l-.007.108-.045.749-.428-.611a8.009,8.009,0,0,1-1.654-3.962c.146-.048.738,1.762,2.081,3.664l-.474.137.007-.115A6.162,6.162,0,0,1,76.809,235.342Z" fill="#fff"/></g></g></svg>