<svg xmlns="http://www.w3.org/2000/svg" width="193.764" height="165.361" viewBox="0 0 193.764 165.361"><g transform="matrix(0.809, 0.588, -0.588, 0.809, 37.83, 0)"><path d="M16.141,4.3c.079-.076.162-.05.2-.08.473-.371.939-.75,1.407-1.127.475.521.939,1.052,1.429,1.558a.969.969,0,0,0,.535.306c.17.016.356-.141.536-.222-.052.213-.109.426-.155.64-.171.8-.975,1.345-.922,2.24-.564.033-.32.468-.377.754A.929.929,0,0,0,18.042,9.5c-.564.032-.32.468-.377.753a.93.93,0,0,0-.754,1.131.929.929,0,0,0-.754,1.13c-.563.032-.32.468-.376.754-1.025.581-1.165,1.667-1.508,2.638-.194.131-.49.22-.565.4-.416,1.008-1.18,1.864-1.319,3.076v-.084a1.048,1.048,0,0,0-.286.113c-.023.018.039.149.063.229a.7.7,0,0,0,.223-.258,26.3,26.3,0,0,0,4.878-2.869c.413-.3.96-.418,1.407-.684a66.5,66.5,0,0,1,6.481-3.457c2.535-1.155,5.059-2.317,7.678-3.3A48.273,48.273,0,0,1,39.4,6.728c.715-.157,1.428-.485,2.157-.7.679-.2,1.373-.623,2.093-.831C45.341,4.7,47.1,4.415,48.736,3.81c1.837-.677,3.838-.521,5.646-1.378a6.041,6.041,0,0,1,3-.408c.544.047.912-.665,1.438-.179.546.5.761-.4,1.309-.31.564.089,1.239-.41,1.772-.278.7.174,1.312-.669,1.961-.051A3.528,3.528,0,0,1,66.337.86a3.726,3.726,0,0,0,1.88-.2,5.445,5.445,0,0,1,3.765.049c.336.13.632.246.682-.186.053-.455.289-.479.62-.45C75.124.24,77-.26,78.815.365A3.573,3.573,0,0,1,80.883.078,8.7,8.7,0,0,1,83.5.131c.791.247,1.432-.211,2.156-.067a21.089,21.089,0,0,0,2.668.374,10.413,10.413,0,0,1,2.8.078,11.308,11.308,0,0,0,2.881.321c.645.082,1.274.275,1.918.36s1.364-.186,1.915.386c1.124-.27,2.134.386,3.234.4a10.481,10.481,0,0,1,2.1.359c2.066.458,4.152.8,6.2,1.391,1.627.472,3.309.8,4.954,1.241,2.251.609,4.43,1.457,6.668,2.074,1.074.3,2.078.772,3.166,1.036.995.242,1.863,1.046,2.858,1.244a29.66,29.66,0,0,1,4.759,1.725,25,25,0,0,1,4.246,2.031c1.085.671,2.353.964,3.486,1.59,3.531,1.953,7.178,3.672,10.541,5.96,2.028,1.379,4.275,2.479,6.248,3.96,1.575,1.183,3.248,2.22,4.807,3.421a23.4,23.4,0,0,0,2.456,1.81c.909.527,1.262,1.715,2.4,1.921-.034.729.7.7,1.052,1.033,1.882,1.8,3.756,3.605,5.716,5.314.713.622,1.1,1.493,1.932,2.033a12.524,12.524,0,0,1,2.017,1.967c.526.55,1.011,1.138,1.529,1.695.488.523,1,1.019,1.493,1.541a10.965,10.965,0,0,1,1.6,1.79c.9,1.546,9.765,13.267,11.068,14.47a.839.839,0,0,1,.128,1.291c-.254.323-.433.7-.676,1.035-.341.467-.686.661-1.188.115a5.734,5.734,0,0,0-1.16-.774c-.412.657-.8.264-1.21-.01-.07-.047-.237.01-.341.059-.474.22-1,.711-1.4.618-.469-.11-.783-.77-1.232-1.1-.87-.635-9.245-11.869-9.93-12.668-.654-.762-1.169-1.644-1.75-2.469a3.179,3.179,0,0,0-.264-.269c-1.466-1.59-2.926-3.184-4.4-4.769-.427-.46-.877-.9-1.332-1.331-.4-.377-.707-.837-1.065-1.242-.391-.443-1.059-.566-1.269-1.119-.227-.6-.815-.762-1.194-1.167a14.114,14.114,0,0,0-1.2-1.194c-.458-.384-.707-1-1.418-1.138-.2-.037.255-.91-.646-.771-.314.048-.721-.592-1.106-.891-.423-.329-.89-.6-1.3-.944a14.937,14.937,0,0,0-1.081-1.044,12.224,12.224,0,0,0-2.294-1.654c-.785-.316-1.311-1.2-2.117-1.694-1.369-.834-2.631-1.843-3.945-2.768a30.334,30.334,0,0,0-4.075-2.453c-1.577-.77-2.827-2.142-4.618-2.485-.1-.02-.176-.173-.269-.257a7.794,7.794,0,0,0-2.6-1.462A8.524,8.524,0,0,1,135.3,17.8c-.655-.488-1.5-.541-2.2-1.084a9.47,9.47,0,0,0-2.9-1.137c-2.766-.891-5.3-2.408-8.149-3.065-1-.8-2.317-.728-3.423-1.3a11.9,11.9,0,0,0-3-.906,25.087,25.087,0,0,0-3.744-.98c-1.505-.075-2.8-.979-4.317-.982a4.771,4.771,0,0,1-1.163-.356c-1.644-.464-3.42-.34-5-1.119-.2-.1-.5,0-.747-.016a24.052,24.052,0,0,1-4.534-.442c-1.112-.31-2.2-.085-3.247-.336-2.452-.591-4.967,0-7.373-.419-2.357-.409-4.684-.131-7.012-.327C77.6,5.257,76.83,5.709,76,5.7c-.954-.009-1.981.348-2.858-.35-.651.632-1.52.222-2.254.47a4.641,4.641,0,0,1-1.013.275c-1.516.146-3.033.289-4.553.371-.6.032-1.156.948-1.793.1-.517.213-1.027.448-1.556.628a4.3,4.3,0,0,1-.735.049c-.719.1-1.488-.26-2.165.227-.613.441-1.516-.25-2.044.523-1.632-.379-3,.764-4.584.8a7.237,7.237,0,0,0-2.869.758c-.539.257-1.153.12-1.529.378-.475.326-.923.232-1.379.346a11.321,11.321,0,0,0-2.481.82c-.837.434-1.908.213-2.612,1.015-.11.125-.6.011-.852-.111-.223-.106-.444-.364-.432.084.018.69-.807.245-.886.739a3.49,3.49,0,0,0-2.325.779c-.076.074-.406-.142-.625-.183a7.054,7.054,0,0,0-1.072-.131c-.1,0-.21.159-.315.245,1.012.968-.327,1.009-.585,1.132-1.359.652-2.811,1.1-4.118,1.886-.347.21-1,.467-1.037-.43,0-.007-.235-.006-.361-.009-.008,1.563-1.163,1.584-2.345,1.684h.084A1.043,1.043,0,0,0,26.6,17.5c-.018-.024-.149.039-.228.062a.7.7,0,0,0,.258.223,7,7,0,0,1-3.166,1.881c-.115.033-.286-.023-.356.043-1.79,1.685-4.185,2.42-6.1,3.88-.865.66-1.862,1-2.74,1.579a.545.545,0,0,0-.163.506c.074.137.393.294.5.238.541-.291.9.371,1.462.2a5.971,5.971,0,0,1,1.683-.033,6.285,6.285,0,0,1,1.687.023c1.816.528,3.69.127,5.487.416a19.091,19.091,0,0,1,3.4.381c1.59.59,3.274-.133,4.811.652.448.229,1.117-.013,1.675.05a13.81,13.81,0,0,0,1.351.337,7.27,7.27,0,0,1,1.543.378c1.3.277,2.009,1.449,3.155,1.934.085.036.143.188.171.3.166.632-.623,1.916-1.244,1.926a33.317,33.317,0,0,1-5.82-.072c-1.157-.189-2.292-.185-3.433-.3-.768-.078-1.53-.228-2.29-.372A9.58,9.58,0,0,1,26.1,31.44a7.959,7.959,0,0,0-3.164-.075,8.989,8.989,0,0,1-3.221-.415c-.053-.017-.085-.092-.135-.129-.085-.063-.2-.187-.262-.165-1.8.677-3.632.225-5.454.174-.478-.014-.959.135-1.44.14-1.882.017-3.771-.094-5.643.041-1.318.1-2.513-.454-3.8-.431-.456.008-.734-.354-.776-.86a3.542,3.542,0,0,0-.235-1.029c-.044-.106-.333-.112-.511-.163v.565c-1.749-.958-1.624-.928-1.168-2.848a26.52,26.52,0,0,1,2.064-4.607,51.83,51.83,0,0,1,4.232-7.277c1.267-1.925,2.6-3.811,3.843-5.748C11.405,7.1,12.82,5.928,13.646,4.3a2.228,2.228,0,0,1,.792-.793c.486-.307,1.026-.529,1.543-.787-.2.529.229.984.16,1.572a.437.437,0,0,1-.3-.211c-.214-.308-.379-.173-.534.045-.723,1.015-1.455,2.024-2.16,3.051-.667.971-1.243,2.012-1.974,2.93a15.116,15.116,0,0,0-1.5,2.194c-.439.8-1.245,1.426-1.535,2.379a2.131,2.131,0,0,1-.4.769,4.451,4.451,0,0,0-1.13,1.8,15.69,15.69,0,0,1-1.025,1.818c-.468,1-1.137,1.906-1.675,2.877-.591,1.066-1.138,2.157-1.68,3.249a.646.646,0,0,0,.008.546c.1.157.381.348.513.306a.874.874,0,0,0,.53-.49c.357-1.313,1.3-2.322,1.779-3.588a26.357,26.357,0,0,1,2.419-4.447c1.015-1.631,1.812-3.4,2.867-5a76.142,76.142,0,0,1,5.147-7.08A6.341,6.341,0,0,0,16.141,4.3Zm2.5,2.592-.22.178.169.168a1.8,1.8,0,0,0,.167-.226c.007-.014-.073-.076-.336.395V7.235a1.089,1.089,0,0,0-.285.114c-.024.018.039.149.062.229C18.27,7.52,18.344,7.462,18.638,6.889Zm-7.151,11.5a4.633,4.633,0,0,0-.223.557,1.562,1.562,0,0,0-.006.349c.126-.086.321-.15.359-.265.043-.132-.054-.309-.359.434v-.168a1.041,1.041,0,0,0-.285.113c-.024.018.039.149.062.229C11.11,19.579,11.184,19.521,11.487,18.388Zm2.86-4.407-.249-.339c-.067.087-.193.176-.189.259a1.8,1.8,0,0,0,.144.462,3.066,3.066,0,0,0,.439-1.067l-.219.178.168.168a1.822,1.822,0,0,0,.168-.227C14.616,13.4,14.536,13.339,14.347,13.981Zm-1.155,1.741c-.1-.084-.188-.2-.234-.186a1.228,1.228,0,0,0-.566,1.254c.011.054.061.142.091.141.089,0,.232-.018.256-.072.164-.37.3-.751.623-1.679l-.219.178.168.168a1.655,1.655,0,0,0,.167-.227C13.486,15.285,13.405,15.224,13.192,15.722ZM62.332,2.037l.495-.206A1.111,1.111,0,0,0,62.5,1.6c-.086-.023-.2.072-.308.115ZM9.4,18.211l-.218-.424c-.063.095-.185.2-.176.285a1.928,1.928,0,0,0,.176.469ZM17.719,4.463l.134.134a1.175,1.175,0,0,0,.118-.252c.007-.031-.076-.082-.118-.124Zm1.319,1.7-.243.134c.042.042.093.125.124.118a1.182,1.182,0,0,0,.253-.118ZM16.1,7.478l-.134-.243c-.042.042-.125.093-.118.124a1.16,1.16,0,0,0,.118.253Zm.942,1.964.243-.134c-.042-.042-.093-.125-.124-.118a1.182,1.182,0,0,0-.253.118ZM16.4,10.573l.134-.134a1.182,1.182,0,0,0-.253-.118c-.031-.007-.082.076-.124.118Zm-.862,1.13.243-.134c-.042-.042-.093-.125-.124-.118a1.16,1.16,0,0,0-.253.118Zm-.268.486-.243.134c.042.042.093.125.124.118a1.2,1.2,0,0,0,.253-.118Zm-4.146,2.529.134-.134a1.16,1.16,0,0,0-.253-.118c-.031-.007-.082.076-.123.118Zm.888,3.258c-.042-.042-.093-.125-.124-.118a1.2,1.2,0,0,0-.253.118c.042.041.093.124.124.117A1.178,1.178,0,0,0,12.012,17.976Zm12.624.188c-.041.042-.124.093-.117.124a1.178,1.178,0,0,0,.117.253c.042-.042.125-.093.118-.124A1.135,1.135,0,0,0,24.636,18.164ZM10.559,20.291l.134.134a1.183,1.183,0,0,0,.118-.253c.007-.031-.076-.082-.118-.124Zm-.3.833.243-.134c-.042-.041-.093-.124-.124-.117a1.178,1.178,0,0,0-.253.117Zm9.153.377.134-.134a1.182,1.182,0,0,0-.253-.118c-.031-.006-.082.076-.124.118Zm-12.356.674-.134-.243c-.042.042-.125.093-.118.124a1.161,1.161,0,0,0,.118.253Zm10.551.268-.134-.134a1.152,1.152,0,0,0-.117.253c-.007.031.075.082.117.124ZM5.74,24.248l-.134.134a1.16,1.16,0,0,0,.253.118c.031.007.082-.076.124-.118Zm-2.153,4.9-.242.134c.041.042.092.125.123.118a1.16,1.16,0,0,0,.253-.118Zm165.436,10.82.134-.134a1.182,1.182,0,0,0-.253-.118c-.031-.007-.082.076-.124.118Z" transform="translate(0 0)" fill="#3d466e"/><path d="M.377,0C.32.286.564.722,0,.754V0Z" transform="translate(16.157 12.511)" fill="#3d466e"/><path d="M0,0H.377C.32.285.564.721,0,.754Z" transform="translate(16.911 11.381)" fill="#3d466e"/><path d="M.118,0A1.16,1.16,0,0,1,.236.253C.243.284.16.335.118.377A1.205,1.205,0,0,1,0,.124C-.006.093.076.042.118,0Z" transform="translate(19.996 6.482)" fill="#3d466e"/><path d="M.219,0C.263.044.343.106.335.119A1.656,1.656,0,0,1,.168.346L0,.178Z" transform="translate(19.549 7.266)" fill="#3d466e"/><path d="M.377,0,.124.313C.083.209.041.1,0,0Z" transform="translate(19.172 7.612)" fill="#3d466e"/><path d="M.346.219C.3.263.241.343.227.335A1.72,1.72,0,0,1,0,.168L.168,0Z" transform="translate(18.795 8.366)" fill="#3d466e"/><path d="M.346.219C.3.262.24.342.226.335A1.709,1.709,0,0,1,0,.168L.168,0Z" transform="translate(18.042 9.497)" fill="#3d466e"/><path d="M.346.219C.3.263.241.343.227.336A1.75,1.75,0,0,1,0,.168L.168,0Z" transform="translate(17.665 10.25)" fill="#3d466e"/><path d="M.219,0C.263.043.343.1.335.119A1.718,1.718,0,0,1,.168.346L0,.178Z" transform="translate(17.288 11.035)" fill="#3d466e"/><path d="M.377,0,0,.376Z" transform="translate(16.534 12.135)" fill="#3d466e"/><path d="M.376,0,.124.313C.082.208.041.1,0,0Z" transform="translate(15.781 13.265)" fill="#3d466e"/><path d="M.252.243.118.377A1.205,1.205,0,0,1,0,.124C-.007.093.076.042.118,0Z" transform="translate(35.824 13.642)" fill="#3d466e"/><path d="M.242,0,.377.134A1.2,1.2,0,0,1,.124.252C.093.259.042.176,0,.134Z" transform="translate(15.404 14.073)" fill="#3d466e"/><path d="M.252.243.118.377A1.183,1.183,0,0,1,0,.124C-.006.093.076.042.118,0Z" transform="translate(15.097 14.772)" fill="#3d466e"/><path d="M.346.219C.3.263.241.343.227.335A1.718,1.718,0,0,1,0,.168L.168,0Z" transform="translate(14.273 15.903)" fill="#3d466e"/><path d="M.377.118A1.182,1.182,0,0,1,.124.236C.093.243.042.16,0,.118A1.2,1.2,0,0,1,.253,0C.284-.007.335.076.377.118Z" transform="translate(13.896 16.726)" fill="#3d466e"/><path d="M.243.252,0,.118C.042.076.093-.007.124,0A1.16,1.16,0,0,1,.377.118Z" transform="translate(13.519 17.48)" fill="#3d466e"/><path d="M.346.219C.3.262.241.343.227.335A1.72,1.72,0,0,1,0,.168L.168,0Z" transform="translate(1.46 29.093)" fill="#3d466e"/></g></svg>