<svg xmlns="http://www.w3.org/2000/svg" width="520.237" height="283.064" viewBox="0 0 520.237 283.064"><g transform="translate(-251.763 -1961.936)"><g transform="translate(50 -20)"><rect width="259" height="74" rx="5" transform="translate(282 1988)" fill="#fff"/><rect width="259" height="74" rx="5" transform="translate(279 1985)" fill="#f5f9ff"/><path d="M401.6,380.468a1.948,1.948,0,0,0,.875-.362c.583-.362,1.458-1.809,1.75-4.341a24.345,24.345,0,0,0,.146-4.7V350.807c0-22.065,0-53.535-.146-92.6V130.158c-.146-2.894-1.167-5.064-2.334-5.426H334.075c-1.313,0-2.479,2.894-2.479,6.149v243.8a10.227,10.227,0,0,0,.729,3.255,3.79,3.79,0,0,0,1.313,1.809c.438.362,1.021,0,1.6.362h15.606c15.751,0,28.586.362,37.337.362h-.292c-8.9,0-21.585,0-37.337.362H334.95a3.069,3.069,0,0,1-1.75-.362,4.459,4.459,0,0,1-1.6-2.17,15.283,15.283,0,0,1-.875-3.979,43.081,43.081,0,0,1,0-4.341V130.158c0-4.341,1.6-7.958,3.354-7.958h67.964c1.458,0,2.771,3.256,3.063,6.873.146,3.617,0,6.511,0,9.766V257.483c0,39.066-.146,70.9-.146,92.6V370.34a43.311,43.311,0,0,1-.146,4.7c-.438,2.894-1.313,3.979-1.9,4.341C402.039,380.468,401.6,380.468,401.6,380.468Z" transform="translate(153.17 2387.103) rotate(-90)" fill="#14365b"/><text transform="translate(275 1998)" fill="#3d466e" font-size="30" font-family="Lato-Regular, Lato"><tspan x="32.21" y="30">Multi accounts</tspan></text></g><g transform="translate(285 41.994)"><rect width="205" height="65" rx="5" transform="translate(282 1988.006)" fill="#fff"/><rect width="205" height="65" rx="5" transform="translate(279 1985.006)" fill="#f5f9ff"/><path d="M62.382,204.782a1.833,1.833,0,0,0,.769-.287c.513-.287,1.282-1.434,1.539-3.442a17.422,17.422,0,0,0,.128-3.729V181.264c0-17.5,0-42.448-.128-73.423V6.31c-.128-2.294-1.026-4.015-2.052-4.3H3.007C1.852,2.008.826,4.3.826,6.883v193.31a7.447,7.447,0,0,0,.641,2.581,3.045,3.045,0,0,0,1.154,1.434c.385.287.9,0,1.411.287H17.754c13.85,0,25.135.287,32.83.287h-.256c-7.823,0-18.98,0-32.83.287H3.776a2.948,2.948,0,0,1-1.539-.287,3.6,3.6,0,0,1-1.411-1.721,11.116,11.116,0,0,1-.769-3.155,30.808,30.808,0,0,1,0-3.442V6.31C.057,2.868,1.468,0,3.007,0h59.76C64.049,0,65.2,2.581,65.46,5.449c.128,2.868,0,5.163,0,7.744v94.074c0,30.976-.128,56.215-.128,73.423v16.061a30.985,30.985,0,0,1-.128,3.729c-.385,2.294-1.154,3.155-1.667,3.442C62.767,204.782,62.382,204.782,62.382,204.782Z" transform="translate(275.37 2047.453) rotate(-90)" fill="#14365b"/><text transform="translate(275 1998.006)" fill="#3d466e" font-size="24" font-family="Lato-Regular, Lato"><tspan x="20.144" y="24">Customer score</tspan></text></g><g transform="translate(67 74.994)"><rect width="220" height="70" rx="5" transform="translate(282 1988.006)" fill="#fff"/><rect width="220" height="70" rx="5" transform="translate(279 1985.006)" fill="#f5f9ff"/><path d="M66.8,219.272a1.962,1.962,0,0,0,.824-.307c.549-.307,1.373-1.536,1.648-3.685a18.655,18.655,0,0,0,.137-3.992v-17.2c0-18.733,0-45.451-.137-78.618V6.756c-.137-2.457-1.1-4.3-2.2-4.607H3.219C1.983,2.15.885,4.607.885,7.37V214.358a7.974,7.974,0,0,0,.687,2.764,3.26,3.26,0,0,0,1.236,1.536c.412.307.961,0,1.51.307H19.01c14.83,0,26.914.307,35.153.307h-.275c-8.376,0-20.323,0-35.153.307H4.043a3.156,3.156,0,0,1-1.648-.307,3.857,3.857,0,0,1-1.51-1.843,11.9,11.9,0,0,1-.824-3.378,32.988,32.988,0,0,1,0-3.685V6.756C.061,3.071,1.571,0,3.219,0H67.208c1.373,0,2.609,2.764,2.884,5.835.137,3.071,0,5.528,0,8.292v100.73c0,33.167-.137,60.192-.137,78.618v17.2a33.178,33.178,0,0,1-.137,3.992c-.412,2.457-1.236,3.378-1.785,3.685C67.208,219.272,66.8,219.272,66.8,219.272Z" transform="translate(275.396 2052.089) rotate(-90)" fill="#14365b"/><text transform="translate(275 1999.006)" fill="#3d466e" font-size="24" font-family="Lato-Regular, Lato"><tspan x="26.318" y="24">Customer social</tspan></text></g><g transform="translate(316 125.994)"><rect width="143" height="56" rx="5" transform="translate(280 1986.006)" fill="#fff"/><rect width="143" height="56" rx="5" transform="translate(278 1984.006)" fill="#f5f9ff"/><path d="M53.079,143.357a1.8,1.8,0,0,0,.655-.2,3.209,3.209,0,0,0,1.309-2.409,10.058,10.058,0,0,0,.109-2.61V126.893c0-12.248,0-29.715-.109-51.4V4.417c-.109-1.606-.873-2.811-1.746-3.012H2.558C1.576,1.405.7,3.012.7,4.819V140.144a4.488,4.488,0,0,0,.546,1.807,2.274,2.274,0,0,0,.982,1c.327.2.764,0,1.2.2H15.106c11.784,0,21.387.2,27.933.2h-.218c-6.656,0-16.149,0-27.934.2H3.213a2.984,2.984,0,0,1-1.309-.2,2.719,2.719,0,0,1-1.2-1.2,6.68,6.68,0,0,1-.655-2.209,17.751,17.751,0,0,1,0-2.409V4.417C.049,2.008,1.249,0,2.558,0H53.406C54.5,0,55.479,1.807,55.7,3.815c.109,2.008,0,3.614,0,5.421V75.092c0,21.684-.109,39.353-.109,51.4v11.244a17.872,17.872,0,0,1-.109,2.61c-.327,1.606-.982,2.209-1.418,2.409C53.406,143.357,53.079,143.357,53.079,143.357Z" transform="translate(275.259 2037.682) rotate(-90)" fill="#14365b"/><text transform="translate(275 1999.006)" fill="#3d466e" font-size="16" font-family="Lato-Regular, Lato"><tspan x="11.548" y="16">Customer history</tspan></text></g><g transform="translate(113 160.994)"><rect width="143" height="56" rx="5" transform="translate(280 1986.006)" fill="#fff"/><rect width="143" height="56" rx="5" transform="translate(278 1984.006)" fill="#f5f9ff"/><path d="M53.079,143.357a1.8,1.8,0,0,0,.655-.2,3.209,3.209,0,0,0,1.309-2.409,10.058,10.058,0,0,0,.109-2.61V126.893c0-12.248,0-29.715-.109-51.4V4.417c-.109-1.606-.873-2.811-1.746-3.012H2.558C1.576,1.405.7,3.012.7,4.819V140.144a4.488,4.488,0,0,0,.546,1.807,2.274,2.274,0,0,0,.982,1c.327.2.764,0,1.2.2H15.106c11.784,0,21.387.2,27.933.2h-.218c-6.656,0-16.149,0-27.934.2H3.213a2.984,2.984,0,0,1-1.309-.2,2.719,2.719,0,0,1-1.2-1.2,6.68,6.68,0,0,1-.655-2.209,17.751,17.751,0,0,1,0-2.409V4.417C.049,2.008,1.249,0,2.558,0H53.406C54.5,0,55.479,1.807,55.7,3.815c.109,2.008,0,3.614,0,5.421V75.092c0,21.684-.109,39.353-.109,51.4v11.244a17.872,17.872,0,0,1-.109,2.61c-.327,1.606-.982,2.209-1.418,2.409C53.406,143.357,53.079,143.357,53.079,143.357Z" transform="translate(275.259 2037.682) rotate(-90)" fill="#14365b"/><text transform="translate(275 1998.006)" fill="#3d466e" font-size="16" font-family="Lato-Regular, Lato"><tspan x="17.228" y="16">Customer email</tspan></text></g><g transform="translate(-13 202.994)"><rect width="143" height="56" rx="5" transform="translate(280 1986.006)" fill="#fff"/><rect width="143" height="56" rx="5" transform="translate(278 1984.006)" fill="#f5f9ff"/><path d="M53.079,143.357a1.8,1.8,0,0,0,.655-.2,3.209,3.209,0,0,0,1.309-2.409,10.058,10.058,0,0,0,.109-2.61V126.893c0-12.248,0-29.715-.109-51.4V4.417c-.109-1.606-.873-2.811-1.746-3.012H2.558C1.576,1.405.7,3.012.7,4.819V140.144a4.488,4.488,0,0,0,.546,1.807,2.274,2.274,0,0,0,.982,1c.327.2.764,0,1.2.2H15.106c11.784,0,21.387.2,27.933.2h-.218c-6.656,0-16.149,0-27.934.2H3.213a2.984,2.984,0,0,1-1.309-.2,2.719,2.719,0,0,1-1.2-1.2,6.68,6.68,0,0,1-.655-2.209,17.751,17.751,0,0,1,0-2.409V4.417C.049,2.008,1.249,0,2.558,0H53.406C54.5,0,55.479,1.807,55.7,3.815c.109,2.008,0,3.614,0,5.421V75.092c0,21.684-.109,39.353-.109,51.4v11.244a17.872,17.872,0,0,1-.109,2.61c-.327,1.606-.982,2.209-1.418,2.409C53.406,143.357,53.079,143.357,53.079,143.357Z" transform="translate(275.259 2037.682) rotate(-90)" fill="#14365b"/><text transform="translate(275 1998.006)" fill="#3d466e" font-size="16" font-family="Lato-Regular, Lato"><tspan x="14.256" y="16">Time on website</tspan></text></g><g transform="translate(270 195.994)"><rect width="156" height="56" rx="5" transform="translate(280 1986.006)" fill="#fff"/><rect width="156" height="56" rx="5" transform="translate(278 1984.006)" fill="#f5f9ff"/><path d="M53.079,156.522a1.683,1.683,0,0,0,.655-.219,3.573,3.573,0,0,0,1.309-2.631,11.976,11.976,0,0,0,.109-2.85V138.546c0-13.372,0-32.444-.109-56.12V4.823c-.109-1.754-.873-3.069-1.746-3.288H2.558C1.576,1.535.7,3.288.7,5.261V153.015a5.232,5.232,0,0,0,.546,1.973,2.4,2.4,0,0,0,.982,1.1c.327.219.764,0,1.2.219H15.106c11.784,0,21.387.219,27.933.219h-.218c-6.656,0-16.149,0-27.934.219H3.213a2.757,2.757,0,0,1-1.309-.219,2.851,2.851,0,0,1-1.2-1.315A7.8,7.8,0,0,1,.049,152.8a21.157,21.157,0,0,1,0-2.631V4.823C.049,2.192,1.249,0,2.558,0H53.406C54.5,0,55.479,1.973,55.7,4.165c.109,2.192,0,3.946,0,5.919v71.9c0,23.676-.109,42.967-.109,56.12v12.276a21.291,21.291,0,0,1-.109,2.85c-.327,1.754-.982,2.411-1.418,2.631C53.406,156.522,53.079,156.522,53.079,156.522Z" transform="translate(275.259 2037.682) rotate(-90)" fill="#14365b"/><text transform="translate(275 1999.006)" fill="#3d466e" font-size="16" font-family="Lato-Regular, Lato"><tspan x="11.76" y="16">Customer behavior</tspan></text></g><g transform="translate(-23.497 120.994)"><rect width="104" height="56" rx="5" transform="translate(280.497 1986.006)" fill="#fff"/><rect width="104" height="56" rx="5" transform="translate(278.497 1984.006)" fill="#f5f9ff"/><path d="M53.079,104.907A2.1,2.1,0,0,0,55.043,103a5.419,5.419,0,0,0,.109-1.91V92.859c0-8.963,0-21.745-.109-37.614V3.232a2.348,2.348,0,0,0-1.746-2.2H2.558C1.576,1.028.7,2.2.7,3.526v99.03a2.693,2.693,0,0,0,.546,1.322,2.06,2.06,0,0,0,.982.735c.327.147.764,0,1.2.147H15.106c11.784,0,21.387.147,27.933.147h-.218c-6.656,0-16.149,0-27.934.147H3.213a3.99,3.99,0,0,1-1.309-.147,2.5,2.5,0,0,1-1.2-.882,3.983,3.983,0,0,1-.655-1.616,9.515,9.515,0,0,1,0-1.763V3.232C.049,1.469,1.249,0,2.558,0H53.406C54.5,0,55.479,1.322,55.7,2.792c.109,1.469,0,2.645,0,3.967V54.951c0,15.868-.109,28.8-.109,37.614v8.228a9.607,9.607,0,0,1-.109,1.91,2.354,2.354,0,0,1-1.418,1.763A2.081,2.081,0,0,1,53.079,104.907Z" transform="translate(275.259 2037.682) rotate(-90)" fill="#14365b"/><text transform="translate(275.497 1998.006)" fill="#3d466e" font-size="16" font-family="Lato-Regular, Lato"><tspan x="21.58" y="16">Referrals</tspan></text></g></g></svg>