<svg xmlns="http://www.w3.org/2000/svg" width="129.563" height="169.799" viewBox="0 0 129.563 169.799"><g transform="translate(-42.846 -104.667)"><path d="M158.752,208.023h13.657l-10.881-29.2a60.167,60.167,0,1,0-91.367,36.4v59.234h54.262V241.245h34.329Z" transform="translate(0)" fill="#0c1634"/><path d="M59.595,166.051l20.183,20.183v14.5" transform="translate(3.469 12.713)" fill="none" stroke="#3a6cd6" stroke-miterlimit="10" stroke-width="1.884"/><path d="M67.288,161.97,79.321,174h9.57" transform="translate(5.062 11.868)" fill="none" stroke="#3a6cd6" stroke-miterlimit="10" stroke-width="1.884"/><path d="M53.472,166.866V138.819l16.961-16.961" transform="translate(2.201 3.56)" fill="none" stroke="#3a6cd6" stroke-miterlimit="10" stroke-width="1.884"/><path d="M78.748,114.557h40.365l16.392,16.392" transform="translate(7.436 2.048)" fill="none" stroke="#3a6cd6" stroke-miterlimit="10" stroke-width="1.884"/><path d="M138.479,140.3v16.108l-15.161,15.161H94.134" transform="translate(10.622 7.381)" fill="none" stroke="#3a6cd6" stroke-miterlimit="10" stroke-width="1.884"/><path d="M62.264,152.236H76.856l10.423,10.423" transform="translate(4.022 9.852)" fill="none" stroke="#3a6cd6" stroke-miterlimit="10" stroke-width="1.884"/><path d="M95.232,158.512h23.878l10.044-10.044" transform="translate(10.85 9.071)" fill="none" stroke="#3a6cd6" stroke-miterlimit="10" stroke-width="1.884"/><path d="M104.966,151.146V141.1L115.1,130.963" transform="translate(12.865 5.446)" fill="none" stroke="#3a6cd6" stroke-miterlimit="10" stroke-width="1.884"/><path d="M63.677,142.625l18.1-18.1h27.384" transform="translate(4.314 4.113)" fill="none" stroke="#3a6cd6" stroke-miterlimit="10" stroke-width="1.884"/><path d="M79.69,135.281v10.8l8.433,8.433,9.949-9.949" transform="translate(7.631 6.34)" fill="none" stroke="#3a6cd6" stroke-miterlimit="10" stroke-width="1.884"/><path d="M81.213,195.464a3.98,3.98,0,1,1-3.98-3.98A3.98,3.98,0,0,1,81.213,195.464Z" transform="translate(6.297 17.98)" fill="#efc182"/><path d="M64.258,167.048a3.98,3.98,0,1,1-3.98-3.979A3.98,3.98,0,0,1,64.258,167.048Z" transform="translate(2.786 12.095)" fill="#efc182"/><circle cx="3.98" cy="3.98" r="3.98" transform="translate(68.18 169.857)" fill="#f48911"/><path d="M89.848,172.229a3.98,3.98,0,1,1-3.98-3.98A3.98,3.98,0,0,1,89.848,172.229Z" transform="translate(8.086 13.168)" fill="#efc182"/><path d="M98.481,166.891a3.979,3.979,0,1,1-3.979-3.979A3.979,3.979,0,0,1,98.481,166.891Z" transform="translate(9.874 12.063)" fill="#f48911"/><circle cx="3.98" cy="3.98" r="3.98" transform="translate(51.693 167.015)" fill="#efc182"/><path d="M66.927,153.076a3.98,3.98,0,1,1-3.98-3.98A3.98,3.98,0,0,1,66.927,153.076Z" transform="translate(3.339 9.201)" fill="#efc182"/><path d="M68.5,140.83a3.98,3.98,0,1,1-3.98-3.979A3.98,3.98,0,0,1,68.5,140.83Z" transform="translate(3.664 6.665)" fill="#efc182"/><path d="M84.039,135.963a3.98,3.98,0,1,1-3.98-3.979A3.98,3.98,0,0,1,84.039,135.963Z" transform="translate(6.883 5.658)" fill="#efc182"/><path d="M99.737,143.5a3.979,3.979,0,1,1-3.98-3.98A3.98,3.98,0,0,1,99.737,143.5Z" transform="translate(10.134 7.218)" fill="#f48911"/><path d="M110.1,148.994a3.98,3.98,0,1,1-3.98-3.98A3.98,3.98,0,0,1,110.1,148.994Z" transform="translate(12.28 8.356)" fill="#efc182"/><path d="M99.58,157.315a3.979,3.979,0,1,1-3.98-3.98A3.98,3.98,0,0,1,99.58,157.315Z" transform="translate(10.102 10.079)" fill="#efc182"/><path d="M118.107,131.568a3.98,3.98,0,1,1-3.98-3.98A3.98,3.98,0,0,1,118.107,131.568Z" transform="translate(13.938 4.747)" fill="#efc182"/><path d="M127.368,149.465a3.979,3.979,0,1,1-3.98-3.98A3.98,3.98,0,0,1,127.368,149.465Z" transform="translate(15.857 8.454)" fill="#efc182"/><path d="M135.062,140.2a3.98,3.98,0,1,1-3.98-3.98A3.98,3.98,0,0,1,135.062,140.2Z" transform="translate(17.45 6.535)" fill="#efc182"/><path d="M130.509,129.37a3.98,3.98,0,1,1-3.98-3.98A3.98,3.98,0,0,1,130.509,129.37Z" transform="translate(16.507 4.292)" fill="#f48911"/><path d="M83.1,115.4a3.98,3.98,0,1,1-3.98-3.98A3.98,3.98,0,0,1,83.1,115.4Z" transform="translate(6.688 1.398)" fill="#efc182"/><path d="M72.263,122.3a3.979,3.979,0,1,1-3.979-3.98A3.979,3.979,0,0,1,72.263,122.3Z" transform="translate(4.444 2.829)" fill="#f48911"/><path d="M106.018,125.131a3.98,3.98,0,1,1-3.98-3.98A3.98,3.98,0,0,1,106.018,125.131Z" transform="translate(11.435 3.414)" fill="#efc182"/><circle cx="3.98" cy="3.98" r="3.98" transform="translate(87.51 169.478)" fill="#efc182"/></g></svg>