<svg xmlns="http://www.w3.org/2000/svg" width="422" height="259.069" viewBox="0 0 422 259.069"><g transform="translate(-176 -2036.931)"><g transform="translate(-21.584 189)"><rect width="276" height="76" rx="5" transform="translate(281.584 1988)" fill="#fff"/><rect width="276" height="76" rx="5" transform="translate(278.584 1985)" fill="#f5f9ff"/><path d="M73.137,274.829a1.969,1.969,0,0,0,.9-.385c.6-.385,1.5-1.925,1.8-4.619a26.735,26.735,0,0,0,.15-5V243.266c0-23.48,0-56.967-.15-98.538V8.468c-.15-3.079-1.2-5.389-2.406-5.774H3.525C2.172,2.694.969,5.774.969,9.238V268.671a11.179,11.179,0,0,0,.752,3.464,4.028,4.028,0,0,0,1.353,1.925c.451.385,1.052,0,1.654.385H20.815c16.238,0,29.468.385,38.489.385H59c-9.171,0-22.252,0-38.489.385H4.427a3.081,3.081,0,0,1-1.8-.385,4.731,4.731,0,0,1-1.654-2.31,16.71,16.71,0,0,1-.9-4.234c-.15-1.54,0-3.079,0-4.619V8.468C.067,3.849,1.721,0,3.525,0H73.588c1.5,0,2.857,3.464,3.157,7.313.15,3.849,0,6.928,0,10.393V143.958c0,41.571-.15,75.443-.15,98.538v21.555a47.574,47.574,0,0,1-.15,5c-.451,3.079-1.353,4.234-1.954,4.619C73.588,274.829,73.137,274.829,73.137,274.829Z" transform="translate(275.37 2058.748) rotate(-90)" fill="#14365b"/><text transform="translate(274.584 1999)" fill="#3d466e" font-size="30" font-family="Lato-Regular, Lato"><tspan x="24.27" y="30">Total Order Value</tspan></text></g><g transform="translate(104 54.994)"><rect width="205" height="65" rx="5" transform="translate(282 1988.006)" fill="#fff"/><rect width="205" height="65" rx="5" transform="translate(279 1985.006)" fill="#f5f9ff"/><path d="M62.382,204.782a1.833,1.833,0,0,0,.769-.287c.513-.287,1.282-1.434,1.539-3.442a17.422,17.422,0,0,0,.128-3.729V181.264c0-17.5,0-42.448-.128-73.423V6.31c-.128-2.294-1.026-4.015-2.052-4.3H3.007C1.852,2.008.826,4.3.826,6.883v193.31a7.447,7.447,0,0,0,.641,2.581,3.045,3.045,0,0,0,1.154,1.434c.385.287.9,0,1.411.287H17.754c13.85,0,25.135.287,32.83.287h-.256c-7.823,0-18.98,0-32.83.287H3.776a2.948,2.948,0,0,1-1.539-.287,3.6,3.6,0,0,1-1.411-1.721,11.116,11.116,0,0,1-.769-3.155,30.808,30.808,0,0,1,0-3.442V6.31C.057,2.868,1.468,0,3.007,0h59.76C64.049,0,65.2,2.581,65.46,5.449c.128,2.868,0,5.163,0,7.744v94.074c0,30.976-.128,56.215-.128,73.423v16.061a30.985,30.985,0,0,1-.128,3.729c-.385,2.294-1.154,3.155-1.667,3.442C62.767,204.782,62.382,204.782,62.382,204.782Z" transform="translate(275.37 2047.453) rotate(-90)" fill="#14365b"/><text transform="translate(275 1998.006)" fill="#3d466e" font-size="24" font-family="Lato-Regular, Lato"><tspan x="29.396" y="24">Items ordered</tspan></text></g><g transform="translate(-99 109.994)"><rect width="220" height="70" rx="5" transform="translate(282 1988.006)" fill="#fff"/><rect width="220" height="70" rx="5" transform="translate(279 1985.006)" fill="#f5f9ff"/><path d="M66.8,219.272a1.962,1.962,0,0,0,.824-.307c.549-.307,1.373-1.536,1.648-3.685a18.655,18.655,0,0,0,.137-3.992v-17.2c0-18.733,0-45.451-.137-78.618V6.756c-.137-2.457-1.1-4.3-2.2-4.607H3.219C1.983,2.15.885,4.607.885,7.37V214.358a7.974,7.974,0,0,0,.687,2.764,3.26,3.26,0,0,0,1.236,1.536c.412.307.961,0,1.51.307H19.01c14.83,0,26.914.307,35.153.307h-.275c-8.376,0-20.323,0-35.153.307H4.043a3.156,3.156,0,0,1-1.648-.307,3.857,3.857,0,0,1-1.51-1.843,11.9,11.9,0,0,1-.824-3.378,32.988,32.988,0,0,1,0-3.685V6.756C.061,3.071,1.571,0,3.219,0H67.208c1.373,0,2.609,2.764,2.884,5.835.137,3.071,0,5.528,0,8.292v100.73c0,33.167-.137,60.192-.137,78.618v17.2a33.178,33.178,0,0,1-.137,3.992c-.412,2.457-1.236,3.378-1.785,3.685C67.208,219.272,66.8,219.272,66.8,219.272Z" transform="translate(275.396 2052.089) rotate(-90)" fill="#14365b"/><text transform="translate(275 1999.006)" fill="#3d466e" font-size="24" font-family="Lato-Regular, Lato"><tspan x="34.556" y="24">Shipping costs</tspan></text></g><g transform="translate(175 109.994)"><rect width="143" height="56" rx="5" transform="translate(280 1986.006)" fill="#fff"/><rect width="143" height="56" rx="5" transform="translate(278 1984.006)" fill="#f5f9ff"/><path d="M53.079,143.357a1.8,1.8,0,0,0,.655-.2,3.209,3.209,0,0,0,1.309-2.409,10.058,10.058,0,0,0,.109-2.61V126.893c0-12.248,0-29.715-.109-51.4V4.417c-.109-1.606-.873-2.811-1.746-3.012H2.558C1.576,1.405.7,3.012.7,4.819V140.144a4.488,4.488,0,0,0,.546,1.807,2.274,2.274,0,0,0,.982,1c.327.2.764,0,1.2.2H15.106c11.784,0,21.387.2,27.933.2h-.218c-6.656,0-16.149,0-27.934.2H3.213a2.984,2.984,0,0,1-1.309-.2,2.719,2.719,0,0,1-1.2-1.2,6.68,6.68,0,0,1-.655-2.209,17.751,17.751,0,0,1,0-2.409V4.417C.049,2.008,1.249,0,2.558,0H53.406C54.5,0,55.479,1.807,55.7,3.815c.109,2.008,0,3.614,0,5.421V75.092c0,21.684-.109,39.353-.109,51.4v11.244a17.872,17.872,0,0,1-.109,2.61c-.327,1.606-.982,2.209-1.418,2.409C53.406,143.357,53.079,143.357,53.079,143.357Z" transform="translate(275.259 2037.682) rotate(-90)" fill="#14365b"/><text transform="translate(275 1999.006)" fill="#3d466e" font-size="16" font-family="Lato-Regular, Lato"><tspan x="12.32" y="16">Order timestamp</tspan></text></g><g transform="translate(93 253.994)"><rect width="143" height="56" rx="5" transform="translate(280 1986.006)" fill="#fff"/><rect width="143" height="56" rx="5" transform="translate(278 1984.006)" fill="#f5f9ff"/><path d="M53.079,143.357a1.8,1.8,0,0,0,.655-.2,3.209,3.209,0,0,0,1.309-2.409,10.058,10.058,0,0,0,.109-2.61V126.893c0-12.248,0-29.715-.109-51.4V4.417c-.109-1.606-.873-2.811-1.746-3.012H2.558C1.576,1.405.7,3.012.7,4.819V140.144a4.488,4.488,0,0,0,.546,1.807,2.274,2.274,0,0,0,.982,1c.327.2.764,0,1.2.2H15.106c11.784,0,21.387.2,27.933.2h-.218c-6.656,0-16.149,0-27.934.2H3.213a2.984,2.984,0,0,1-1.309-.2,2.719,2.719,0,0,1-1.2-1.2,6.68,6.68,0,0,1-.655-2.209,17.751,17.751,0,0,1,0-2.409V4.417C.049,2.008,1.249,0,2.558,0H53.406C54.5,0,55.479,1.807,55.7,3.815c.109,2.008,0,3.614,0,5.421V75.092c0,21.684-.109,39.353-.109,51.4v11.244a17.872,17.872,0,0,1-.109,2.61c-.327,1.606-.982,2.209-1.418,2.409C53.406,143.357,53.079,143.357,53.079,143.357Z" transform="translate(275.259 2037.682) rotate(-90)" fill="#14365b"/><text transform="translate(275 1998.006)" fill="#3d466e" font-size="16" font-family="Lato-Regular, Lato"><tspan x="11.688" y="16">Shipping location</tspan></text></g></g></svg>