<svg xmlns="http://www.w3.org/2000/svg" width="425" height="208.069" viewBox="0 0 425 208.069"><g transform="translate(-196 -2044.931)"><g transform="translate(-21.584 189)"><rect width="276" height="76" rx="5" transform="translate(281.584 1988)" fill="#fff"/><rect width="276" height="76" rx="5" transform="translate(278.584 1985)" fill="#f5f9ff"/><path d="M73.137,274.829a1.969,1.969,0,0,0,.9-.385c.6-.385,1.5-1.925,1.8-4.619a26.735,26.735,0,0,0,.15-5V243.266c0-23.48,0-56.967-.15-98.538V8.468c-.15-3.079-1.2-5.389-2.406-5.774H3.525C2.172,2.694.969,5.774.969,9.238V268.671a11.179,11.179,0,0,0,.752,3.464,4.028,4.028,0,0,0,1.353,1.925c.451.385,1.052,0,1.654.385H20.815c16.238,0,29.468.385,38.489.385H59c-9.171,0-22.252,0-38.489.385H4.427a3.081,3.081,0,0,1-1.8-.385,4.731,4.731,0,0,1-1.654-2.31,16.71,16.71,0,0,1-.9-4.234c-.15-1.54,0-3.079,0-4.619V8.468C.067,3.849,1.721,0,3.525,0H73.588c1.5,0,2.857,3.464,3.157,7.313.15,3.849,0,6.928,0,10.393V143.958c0,41.571-.15,75.443-.15,98.538v21.555a47.574,47.574,0,0,1-.15,5c-.451,3.079-1.353,4.234-1.954,4.619C73.588,274.829,73.137,274.829,73.137,274.829Z" transform="translate(275.37 2058.748) rotate(-90)" fill="#14365b"/><text transform="translate(274.584 1999)" fill="#3d466e" font-size="30" font-family="Lato-Regular, Lato"><tspan x="32.025" y="30">Product reviews</tspan></text></g><g transform="translate(114 62.994)"><rect width="221" height="65" rx="5" transform="translate(282 1988.006)" fill="#fff"/><rect width="221" height="65" rx="5" transform="translate(279 1985.006)" fill="#f5f9ff"/><path d="M62.382,220.437a1.745,1.745,0,0,0,.769-.309c.513-.309,1.282-1.544,1.539-3.7a20.175,20.175,0,0,0,.128-4.014V195.121c0-18.833,0-45.693-.128-79.036V6.792c-.128-2.47-1.026-4.322-2.052-4.631H3.007c-1.154,0-2.18,2.47-2.18,5.249V215.5a8.515,8.515,0,0,0,.641,2.779,3.242,3.242,0,0,0,1.154,1.544c.385.309.9,0,1.411.309H17.754c13.85,0,25.135.309,32.83.309h-.256c-7.823,0-18.98,0-32.83.309H3.776a2.767,2.767,0,0,1-1.539-.309,3.821,3.821,0,0,1-1.411-1.852,12.72,12.72,0,0,1-.769-3.4,35.7,35.7,0,0,1,0-3.7V6.792C.057,3.087,1.468,0,3.007,0h59.76C64.049,0,65.2,2.779,65.46,5.866c.128,3.087,0,5.557,0,8.336V115.467c0,33.343-.128,60.512-.128,79.036v17.289a35.889,35.889,0,0,1-.128,4.014c-.385,2.47-1.154,3.4-1.667,3.7C62.767,220.437,62.382,220.437,62.382,220.437Z" transform="translate(275.37 2047.453) rotate(-90)" fill="#14365b"/><text transform="translate(275 1998.006)" fill="#3d466e" font-size="24" font-family="Lato-Regular, Lato"><tspan x="20.242" y="24">Product category</tspan></text></g><g transform="translate(-79 116.214)"><rect width="214" height="64" rx="5" transform="translate(282 1987.786)" fill="#fff"/><rect width="214" height="64" rx="5" transform="translate(279 1984.786)" fill="#f5f9ff"/><path d="M60.874,213.047a1.713,1.713,0,0,0,.751-.3c.5-.3,1.251-1.492,1.5-3.581a19.313,19.313,0,0,0,.125-3.879v-16.71c0-18.2,0-44.161-.125-76.386V6.564c-.125-2.387-1-4.177-2-4.476H2.934C1.808,2.089.806,4.476.806,7.161V208.272a8.164,8.164,0,0,0,.626,2.685,3.137,3.137,0,0,0,1.126,1.492c.375.3.876,0,1.377.3h13.39c13.515,0,24.527.3,32.036.3h-.25c-7.634,0-18.521,0-32.036.3H3.685a2.722,2.722,0,0,1-1.5-.3,3.7,3.7,0,0,1-1.377-1.79,12.2,12.2,0,0,1-.751-3.282,34.168,34.168,0,0,1,0-3.581V6.564C.056,2.984,1.432,0,2.934,0H61.249c1.251,0,2.378,2.685,2.628,5.669.125,2.984,0,5.371,0,8.056V111.6c0,32.226-.125,58.483-.125,76.386v16.71a34.356,34.356,0,0,1-.125,3.879c-.375,2.387-1.126,3.282-1.627,3.581C61.249,213.047,60.874,213.047,60.874,213.047Z" transform="translate(275.396 2045.869) rotate(-90)" fill="#14365b"/><text transform="translate(275 1995.786)" fill="#3d466e" font-size="24" font-family="Lato-Regular, Lato"><tspan x="27.368" y="24">Product review</tspan></text></g><g transform="translate(198 147.994)"><rect width="143" height="56" rx="5" transform="translate(280 1986.006)" fill="#fff"/><rect width="143" height="56" rx="5" transform="translate(278 1984.006)" fill="#f5f9ff"/><path d="M53.079,143.357a1.8,1.8,0,0,0,.655-.2,3.209,3.209,0,0,0,1.309-2.409,10.058,10.058,0,0,0,.109-2.61V126.893c0-12.248,0-29.715-.109-51.4V4.417c-.109-1.606-.873-2.811-1.746-3.012H2.558C1.576,1.405.7,3.012.7,4.819V140.144a4.488,4.488,0,0,0,.546,1.807,2.274,2.274,0,0,0,.982,1c.327.2.764,0,1.2.2H15.106c11.784,0,21.387.2,27.933.2h-.218c-6.656,0-16.149,0-27.934.2H3.213a2.984,2.984,0,0,1-1.309-.2,2.719,2.719,0,0,1-1.2-1.2,6.68,6.68,0,0,1-.655-2.209,17.751,17.751,0,0,1,0-2.409V4.417C.049,2.008,1.249,0,2.558,0H53.406C54.5,0,55.479,1.807,55.7,3.815c.109,2.008,0,3.614,0,5.421V75.092c0,21.684-.109,39.353-.109,51.4v11.244a17.872,17.872,0,0,1-.109,2.61c-.327,1.606-.982,2.209-1.418,2.409C53.406,143.357,53.079,143.357,53.079,143.357Z" transform="translate(275.259 2037.682) rotate(-90)" fill="#14365b"/><text transform="translate(275 1998.006)" fill="#3d466e" font-size="16" font-family="Lato-Regular, Lato"><tspan x="26.612" y="16">Product type</tspan></text></g></g></svg>