<svg xmlns="http://www.w3.org/2000/svg" width="46.246" height="39.586" viewBox="0 0 46.246 39.586"><g transform="translate(-264.807 -130.317)"><path d="M307.173,130.317H268.687a3.88,3.88,0,0,0-3.88,3.88v22.574a3.879,3.879,0,0,0,3.88,3.879h6.161V169.9l8.293-9.253h24.032a3.879,3.879,0,0,0,3.88-3.879V134.2A3.88,3.88,0,0,0,307.173,130.317Z" fill="#263238"/><path d="M283.324,145.979a1.606,1.606,0,1,1-1.606-1.606A1.607,1.607,0,0,1,283.324,145.979Z" fill="#fafafa"/><path d="M289.632,145.979a1.606,1.606,0,1,1-1.606-1.606A1.607,1.607,0,0,1,289.632,145.979Z" fill="#fafafa"/><path d="M295.748,145.979a1.606,1.606,0,1,1-1.606-1.606A1.607,1.607,0,0,1,295.748,145.979Z" fill="#fafafa"/></g></svg>