<svg xmlns="http://www.w3.org/2000/svg" width="224.141" height="137.059" viewBox="0 0 224.141 137.059"><g transform="translate(-856.636 -1084.74)"><path d="M4796.435,1077.761l-11.5,18.209,24.9,16.292,19.544,2.023,3.864-11.564-13.449-20.153-19.571-6.134Z" transform="translate(-3921 27)" fill="#e4b26d"/><path d="M4777.636,1107.155l23.524,13.274,24.566-6.2-38.034-22.625Z" transform="translate(-3921 27)" fill="#0c1634"/><path d="M4825.726,1107.155l-23.524,13.274-24.566-6.2,40.078-20.282Z" transform="translate(2336.671 5824.155) rotate(-120)" fill="#0c1634"/><path d="M4848.516,1091.633h57.71l-2.907,11.893-43.969,1.639Z" transform="translate(-3921 27)" fill="#3a6cd6"/><path d="M4876.555,1176.34l80.883-47.613-27.982-32.908-89.467,7.079,13.284,34.023,1.747,18.6,9.5,17.491Z" transform="translate(-3921 27)" fill="#e5baab"/><path d="M4822.293,1132.276l26.172-40.643,55.025,32.682s-15.1,33.453-35,48.73C4868.463,1173.8,4822.293,1132.276,4822.293,1132.276Z" transform="translate(-3921 27)" fill="#0c1634"/><path d="M4897.9,1135.155l5.523-11,38.822,26.965a12.76,12.76,0,0,1-2.814,6.363c-2.621,3.364-5.021,3.825-5.021,3.825Z" transform="translate(-3921 27)" fill="#3a6cd6"/><path d="M4897.456,1135.061l6.191-9.914,44.276,29.2s.83,2.432-1.791,5.8a15.126,15.126,0,0,1-4.833,4.385Z" transform="translate(-3929 41)" fill="#3a6cd6"/><path d="M4897.438,1134.256l7.107-9.208,39.183,26.159a8.723,8.723,0,0,1-1.744,6.951c-2.621,3.364-4.575,3.608-4.575,3.608Z" transform="translate(-3938 54)" fill="#3a6cd6"/><path d="M4897.833,1134.627l7.99-8.514,30.518,21.127a8.723,8.723,0,0,1-1.744,6.951c-2.621,3.364-4.575,3.608-4.575,3.608Z" transform="translate(-3948 64)" fill="#3a6cd6"/><path d="M0,0,53.521,34.628" transform="translate(922.5 1129.5)" fill="none" stroke="#e4b26d" stroke-width="3"/><circle cx="17.5" cy="17.5" r="17.5" transform="translate(891 1119)" fill="#3a6cd6"/><path d="M4829.5,1145.824l8.324-9.282s8.541-.764,20.5,10.38,21.724,26.925,21.724,26.925l-4.986,6.2s-20.691-2.516-33.546-15.328S4829.5,1145.824,4829.5,1145.824Z" transform="translate(-3921 27)" fill="#e5baab"/><path d="M4926.87,1096.113l24.1,36.163,46.411-26.651-24.609-37.362Z" transform="translate(-3921 27)" fill="#3a6cd6"/><circle cx="5.5" cy="5.5" r="5.5" transform="translate(1029 1138)" fill="#e4b26d"/><path d="M4950.836,1132.276s6.322,6.546,16.287.553,34.653-20.441,34.653-20.441l-4.44-6.812Z" transform="translate(-3921 27)" fill="#0c1634"/></g></svg>