<svg xmlns="http://www.w3.org/2000/svg" width="780.521" height="632.782" viewBox="0 0 780.521 632.782"><g transform="translate(-960 -202.512)"><path d="M469.884,569.091c-120.3-1.5-221.747,187.371-247.818,53.559-21.487-110.271-54.2-147.247-49.53-238.551s78.55-65.549,111.9-107.82S292.362,60.306,469.884,58.192s140.569,167.391,175.134,185.99,143.5-35.456,172.329,109.205,2.571,202.745-75.223,234.4S599.338,570.706,469.884,569.091Z" transform="translate(832.876 144.34)" fill="#e3e4f2"/><g transform="translate(494.33 24.752)"><path d="M660.969,351.179a7.63,7.63,0,0,1-7.614,7.614h0a7.63,7.63,0,0,1-7.615-7.614V324.8a7.63,7.63,0,0,1,7.615-7.614h0a7.63,7.63,0,0,1,7.614,7.614Z" transform="translate(40.577 30.175)" fill="#3a6cd6"/><path d="M700.729,351.179a7.63,7.63,0,0,1-7.615,7.614h0a7.63,7.63,0,0,1-7.615-7.614V324.8a7.63,7.63,0,0,1,7.615-7.614h0a7.63,7.63,0,0,1,7.615,7.614Z" transform="translate(110.509 30.175)" fill="#3a6cd6"/><g transform="translate(622.67 300.034)"><path d="M715.069,302.55H691.508a42.24,42.24,0,0,0-42.238,42.238v34.458a42.24,42.24,0,0,0,42.238,42.238h23.561a42.24,42.24,0,0,0,42.238-42.238V344.788A42.24,42.24,0,0,0,715.069,302.55Z" transform="translate(-575.885 -295.609)" fill="#fff"/><path d="M747.681,462.807H684.5a25.987,25.987,0,0,1-25.078-19.2l-16.636-61.688a25.976,25.976,0,0,1,25.078-32.748h96.45a25.973,25.973,0,0,1,25.078,32.748l-16.636,61.688A25.987,25.987,0,0,1,747.681,462.807Z" transform="translate(-588.881 -213.611)" fill="#fff"/><path d="M703.009,308.18H685.6a31.237,31.237,0,0,0-31.23,31.23v25.464A31.237,31.237,0,0,0,685.6,396.1h17.409a31.237,31.237,0,0,0,31.23-31.23V339.41A31.219,31.219,0,0,0,703.009,308.18Z" transform="translate(-566.914 -285.707)" fill="#3a6cd6"/><circle cx="11.753" cy="11.753" r="11.753" transform="translate(115.651 153.326)" fill="#3a6cd6"/><path d="M765.83,401.285a39.971,39.971,0,0,1-34.6-19.974l-.331-.607a25.974,25.974,0,0,0-45,0l-.331.607a39.971,39.971,0,0,1-34.6,19.974H647.31l2.621,9.684A26,26,0,0,0,675.009,430.2h63.178a25.98,25.98,0,0,0,25.078-19.229l2.565-9.684Z" transform="translate(-579.332 -181.002)" fill="#8eb4ff"/><path d="M683.894,365.727a9.187,9.187,0,1,1-9.187-9.187A9.184,9.184,0,0,1,683.894,365.727Z" transform="translate(-547.303 -200.649)" fill="#8eb4ff"/><g transform="translate(29.161 265.777)"><g transform="translate(42.183 3.062)"><path d="M657.717,493.792H648.53V434.035a36.582,36.582,0,0,1,36.555-36.555h25.8v9.187h-25.8a27.4,27.4,0,0,0-27.368,27.368Z" transform="translate(-648.53 -397.48)" fill="#3a6cd6"/></g><rect width="22.236" height="26.816" transform="translate(34.486 73.827)" fill="#3a6cd6"/><rect width="22.236" height="26.816" transform="translate(34.486 158.137)" fill="#3a6cd6"/><path d="M666.074,479.436h-.5A24.278,24.278,0,0,1,641.3,455.158V409.94a10.974,10.974,0,0,1,10.98-10.98h.5a37.583,37.583,0,0,1,37.576,37.576v18.622A24.279,24.279,0,0,1,666.074,479.436Z" transform="translate(-619.063 -391.815)" fill="#fff"/><path d="M666.074,430.91h-.5A24.278,24.278,0,0,0,641.3,455.188v31.92a24.278,24.278,0,0,0,24.278,24.278h.5a24.279,24.279,0,0,0,24.278-24.278v-31.92A24.279,24.279,0,0,0,666.074,430.91Z" transform="translate(-619.063 -335.619)" fill="#fff"/><path d="M701.908,475.629H639.7a6.464,6.464,0,0,1-6.456-6.456v-.138a6.464,6.464,0,0,1,6.456-6.456h62.212a6.464,6.464,0,0,1,6.456,6.456v.138A6.464,6.464,0,0,1,701.908,475.629Z" transform="translate(-633.24 -279.916)" fill="#fff"/><path d="M676.166,406.578a10.208,10.208,0,1,1-10.208-10.208A10.2,10.2,0,0,1,676.166,406.578Z" transform="translate(-593.648 -396.37)" fill="#3a6cd6"/><path d="M650.28,457.837a24.278,24.278,0,0,0,24.278-24.278V414.937a32.885,32.885,0,0,0-.193-3.7h-.249a23.843,23.843,0,0,0-23.837,23.837v22.76Z" transform="translate(-603.269 -370.216)" fill="#8eb4ff"/></g><g transform="translate(121.583 265.777)"><g transform="translate(0 3.062)"><path d="M719.9,493.792h9.187V434.035a36.582,36.582,0,0,0-36.555-36.555h-25.8v9.187h25.8A27.4,27.4,0,0,1,719.9,434.035Z" transform="translate(-666.74 -397.48)" fill="#3a6cd6"/></g><rect width="22.236" height="26.816" transform="translate(47.783 73.827)" fill="#3a6cd6"/><rect width="22.236" height="26.816" transform="translate(47.783 158.137)" fill="#3a6cd6"/><path d="M703.058,479.436h.5a24.278,24.278,0,0,0,24.278-24.278V409.94a10.974,10.974,0,0,0-10.98-10.98h-.5a37.583,37.583,0,0,0-37.576,37.576v18.622A24.278,24.278,0,0,0,703.058,479.436Z" transform="translate(-645.564 -391.815)" fill="#fff"/><path d="M703.555,430.91h-.5a24.278,24.278,0,0,0-24.278,24.278v31.92a24.278,24.278,0,0,0,24.278,24.278h.5a24.278,24.278,0,0,0,24.278-24.278v-31.92A24.278,24.278,0,0,0,703.555,430.91Z" transform="translate(-645.564 -335.619)" fill="#fff"/><path d="M683.846,475.629h62.212a6.464,6.464,0,0,0,6.456-6.456v-.138a6.464,6.464,0,0,0-6.456-6.456H683.846a6.464,6.464,0,0,0-6.456,6.456v.138A6.464,6.464,0,0,0,683.846,475.629Z" transform="translate(-648.009 -279.916)" fill="#fff"/><path d="M674.71,406.578a10.208,10.208,0,1,0,10.208-10.208A10.2,10.2,0,0,0,674.71,406.578Z" transform="translate(-652.722 -396.37)" fill="#3a6cd6"/><path d="M703.058,457.837a24.278,24.278,0,0,1-24.278-24.278V414.937a32.842,32.842,0,0,1,.193-3.7h.248a23.843,23.843,0,0,1,23.837,23.837v22.76Z" transform="translate(-645.564 -370.216)" fill="#8eb4ff"/></g><path d="M697.6,438.49H677.706a14.818,14.818,0,0,1-14.346-11.146l-4.745-18.677a14.812,14.812,0,0,1,14.346-18.457h29.382a14.812,14.812,0,0,1,14.346,18.457l-4.745,18.677A14.764,14.764,0,0,1,697.6,438.49Z" transform="translate(-560.262 -141.428)" fill="#fff"/><g transform="translate(0 116.55)"><rect width="21.464" height="91.98" transform="translate(22.264 31.423)" fill="#3a6cd6"/><path d="M703.028,389.043H647.217A23.16,23.16,0,0,1,624.07,365.9v-.469a23.16,23.16,0,0,1,23.147-23.147H681.1a21.935,21.935,0,0,1,21.933,21.933v24.83Z" transform="translate(-620.208 -342.28)" fill="#fff"/><g transform="translate(0 94.298)"><rect width="10.373" height="29.52" transform="translate(7.642 95.953)" fill="#3a6cd6"/><rect width="10.373" height="29.52" transform="matrix(0.645, -0.764, 0.764, 0.645, 9.617, 135.378)" fill="#3a6cd6"/><circle cx="7.256" cy="7.256" r="7.256" transform="translate(5.573 122.024)" fill="#fff"/><rect width="10.373" height="29.52" transform="translate(14.746 100.531) rotate(-47.647)" fill="#3a6cd6"/><path d="M629.429,487.173H622.67V398.889A22.43,22.43,0,0,1,645.1,376.46h.441a22.43,22.43,0,0,1,22.429,22.429V448.6A38.5,38.5,0,0,1,629.429,487.173Z" transform="translate(-622.67 -376.46)" fill="#fff"/></g><path d="M646.788,379.055h.249a12.722,12.722,0,0,0,12.718-12.718V342.28H634.07v24.057A12.74,12.74,0,0,0,646.788,379.055Z" transform="translate(-602.619 -342.28)" fill="#8eb4ff"/></g><rect width="21.464" height="91.98" transform="translate(210.812 144.119) rotate(-89.479)" fill="#3a6cd6"/><g transform="translate(274.715 0)"><g transform="translate(14.451 3.67)"><rect width="8.69" height="24.719" transform="translate(2.51 27.889) rotate(-11.168)" fill="#3a6cd6"/><rect width="8.69" height="24.719" transform="matrix(0.997, -0.08, 0.08, 0.997, 0, 0.692)" fill="#3a6cd6"/><path d="M727.606,315.052a6.087,6.087,0,1,1,7.146,4.8A6.082,6.082,0,0,1,727.606,315.052Z" transform="translate(-727.479 -290.069)" fill="#fff"/></g><rect width="24.719" height="8.69" transform="translate(30.293 50.629) rotate(-85.107)" fill="#3a6cd6"/><rect width="8.69" height="24.719" transform="translate(30.963 0.174) rotate(-1.146)" fill="#3a6cd6"/><path d="M733.433,311.829a6.077,6.077,0,1,1,5.545,6.566A6.086,6.086,0,0,1,733.433,311.829Z" transform="translate(-702.606 -289.079)" fill="#fff"/><rect width="24.719" height="8.69" transform="translate(38.341 53.417) rotate(-75.251)" fill="#3a6cd6"/><rect width="24.719" height="8.69" transform="translate(44.046 28.204) rotate(-81.287)" fill="#3a6cd6"/><path d="M738.208,312.38a6.076,6.076,0,1,1,4.332,7.421A6.076,6.076,0,0,1,738.208,312.38Z" transform="translate(-694.524 -286.293)" fill="#fff"/><rect width="8.69" height="24.719" transform="matrix(0.734, -0.679, 0.679, 0.734, 0, 37.337)" fill="#3a6cd6"/><path d="M768.315,314.232l6.732.579-7.531,87.952a22.431,22.431,0,0,1-24.278,20.443l-.441-.028A22.431,22.431,0,0,1,722.352,398.9l4.249-49.521A38.53,38.53,0,0,1,768.315,314.232Z" transform="translate(-722.203 -275.315)" fill="#fff"/></g><g transform="translate(166.545 104.296)"><path d="M691.294,399.917l53.356-16.36a23.14,23.14,0,0,0,15.339-28.913l-.138-.441a23.139,23.139,0,0,0-28.913-15.339L698.55,348.8a21.918,21.918,0,0,0-14.539,27.4Z" transform="translate(-683.038 -337.838)" fill="#fff"/><path d="M713.152,377.552l-.248.083a12.723,12.723,0,0,1-15.891-8.414l-7.063-23.009L714.5,338.68l7.063,23.009A12.681,12.681,0,0,1,713.152,377.552Z" transform="translate(-670.879 -336.358)" fill="#8eb4ff"/></g><circle cx="4.994" cy="4.994" r="4.994" transform="translate(103.843 50.724)" fill="#8eb4ff"/><circle cx="4.994" cy="4.994" r="4.994" transform="translate(138.577 50.724)" fill="#8eb4ff"/><path d="M664.96,325.16a10.541,10.541,0,0,0,21.078,0Z" transform="translate(-548.288 -255.841)" fill="#8eb4ff"/></g></g><g transform="translate(1187.691 120.607)"><g transform="translate(-429.387 223.677) rotate(-19)"><g transform="translate(91.973 352.41)"><path d="M183.544,532.182c26.425-15.409,34.757-47.353,36.159-76.569.235-4.876,1.19-9.959-.772-14.417s-7.123-7.814-11.644-6.123c-3.751,1.4-5.671,5.475-7.976,8.785a28.539,28.539,0,0,1-12.3,9.956c-3.227,1.354-7.14,2.022-10.057.085-4.005-2.659-4.025-8.494-3.6-13.329q1.2-13.518,2.39-27.03c.427-4.833.847-9.773-.281-14.486s-4.1-9.251-8.6-10.916-10.4.518-11.764,5.172c-.566,1.937-.333,4.015-.632,6.012s-1.417,4.142-3.37,4.544c-1.978.408-3.8-1.121-5.13-2.655-4.591-5.294-7.462-11.864-10.115-18.38s-5.2-13.173-9.291-18.871-10.011-10.435-16.905-11.4-14.627,2.709-16.936,9.364c-2.315,6.676,1.094,13.92,4.97,19.8a108.31,108.31,0,0,0,20.72,23.273c1.436,1.207,2.992,2.513,3.43,4.352.786,3.31-2.534,6.262-5.8,7.061-3.7.905-7.585.21-11.392.343s-8.032,1.464-9.749,4.91c-2.388,4.781,1.321,10.3,5.111,14.03a92.827,92.827,0,0,0,26.075,18.049c3.451,1.592,7.1,3.042,9.767,5.779s-2.515,11.219-4.529,14.483,0,0-3.67-1-6.838-3.293-10.281-4.926c-6.439-3.054-15.062-3.3-19.792,2.1-3.108,3.545-3.786,8.783-2.74,13.4s3.6,8.731,6.351,12.557c9.628,13.373,22.439,24.555,37.421,31.168s29.148,9.231,44.932,4.885" transform="translate(-91.973 -352.41)" fill="#f0f0f0"/><g transform="translate(8.285 3.455)"><path d="M178.169,552.152a213.093,213.093,0,0,0-4.629-40.511c-3.081-15.055-7.828-31.276-13.373-48.073l-4.152-12.422c-1.373-4.073-2.734-8.113-4.31-11.981a216.656,216.656,0,0,0-10.323-21.715c-3.618-6.747-7.3-13.019-10.782-18.858s-6.859-11.211-10.131-15.981a172.246,172.246,0,0,0-17.105-21.334c-2.209-2.353-3.982-4.121-5.2-5.3l-1.394-1.334a3.793,3.793,0,0,0-.495-.433,3.321,3.321,0,0,0,.431.5c.329.347.77.811,1.331,1.4,1.175,1.223,2.906,3.029,5.074,5.415a182.2,182.2,0,0,1,16.838,21.457c3.231,4.778,6.553,10.16,10.017,16s7.1,12.126,10.693,18.867A219.617,219.617,0,0,1,150.9,439.5c1.56,3.851,2.906,7.857,4.277,11.941s2.748,8.224,4.148,12.416c5.54,16.784,10.3,32.959,13.416,47.96a216.9,216.9,0,0,1,4.8,40.349" transform="translate(-96.276 -354.205)" fill="#e0e0e0"/></g><g transform="translate(63.448 35.725)"><path d="M124.939,423.6a9.883,9.883,0,0,0,.641-2.026c.364-1.315.828-3.235,1.365-5.617,1.078-4.758,2.345-11.382,3.713-18.69s2.727-13.9,3.874-18.63c.568-2.365,1.048-4.277,1.394-5.594a9.669,9.669,0,0,0,.443-2.076,9.659,9.659,0,0,0-.774,1.976c-.451,1.29-1.024,3.181-1.671,5.536-1.311,4.706-2.771,11.3-4.14,18.619-1.333,7.215-2.536,13.743-3.456,18.731-.429,2.249-.793,4.146-1.086,5.667A9.69,9.69,0,0,0,124.939,423.6Z" transform="translate(-124.922 -370.963)" fill="#e0e0e0"/></g><g transform="translate(2.234 71.605)"><path d="M93.133,389.621a13.416,13.416,0,0,0,2.455.5c1.585.273,3.878.655,6.7,1.219,5.644,1.082,13.391,2.852,21.85,5.176,8.459,2.34,16.023,4.785,21.444,6.711,2.719.944,4.9,1.766,6.407,2.326a13.524,13.524,0,0,0,2.378.8,13.248,13.248,0,0,0-2.247-1.123c-1.473-.659-3.624-1.575-6.322-2.6-5.38-2.085-12.94-4.635-21.424-6.982a219.187,219.187,0,0,0-21.973-4.932c-2.842-.485-5.159-.774-6.763-.94A13.194,13.194,0,0,0,93.133,389.621Z" transform="translate(-93.133 -389.596)" fill="#e0e0e0"/></g><g transform="translate(84.875 82.831)"><path d="M136.054,472.278a3.211,3.211,0,0,0,.487-.722c.339-.585.749-1.3,1.248-2.162,1.076-1.883,2.561-4.648,4.352-8.088,3.586-6.878,8.238-16.533,13.229-27.257s9.551-20.415,12.986-27.357c1.681-3.374,3.066-6.148,4.094-8.213.441-.9.8-1.633,1.1-2.241a3.236,3.236,0,0,0,.331-.811,3.272,3.272,0,0,0-.489.726l-1.248,2.16c-1.074,1.881-2.561,4.647-4.35,8.088-3.585,6.876-8.24,16.533-13.231,27.261s-9.549,20.412-12.986,27.355c-1.683,3.372-3.066,6.148-4.094,8.209-.441.9-.8,1.637-1.1,2.241A3.169,3.169,0,0,0,136.054,472.278Z" transform="translate(-136.05 -395.426)" fill="#e0e0e0"/></g><g transform="translate(4.431 126.26)"><path d="M94.274,417.985a3.227,3.227,0,0,0,.791.406l2.334,1c2.159.9,5.07,2.116,8.615,3.593,7.271,3.039,17.267,7.346,28.307,12.124s21.089,9,28.426,11.885c3.668,1.446,6.647,2.584,8.723,3.329.959.337,1.752.616,2.394.843a3.2,3.2,0,0,0,.859.235,3.46,3.46,0,0,0-.793-.406l-2.334-1c-2.157-.9-5.068-2.114-8.611-3.593-7.273-3.037-17.271-7.346-28.312-12.126s-21.084-9-28.422-11.885c-3.668-1.444-6.647-2.582-8.723-3.327-.961-.337-1.75-.618-2.4-.843A3.244,3.244,0,0,0,94.274,417.985Z" transform="translate(-94.274 -417.979)" fill="#e0e0e0"/></g></g></g><g transform="translate(47.613 223.677) rotate(-19)"><g transform="matrix(-0.469, -0.883, 0.883, -0.469, 325.09, 331.322)"><g transform="translate(0 12.777)"><path d="M115.944,353.808c-17.308,10.092-22.765,31.015-23.683,50.15-.154,3.193-.779,6.523.506,9.443s4.665,5.118,7.627,4.011c2.457-.919,3.714-3.586,5.224-5.754a18.692,18.692,0,0,1,8.057-6.521c2.114-.887,4.677-1.324,6.587-.055,2.623,1.742,2.636,5.563,2.356,8.73q-.783,8.854-1.565,17.7c-.28,3.166-.555,6.4.184,9.488s2.686,6.059,5.63,7.15,6.814-.339,7.7-3.388a29.314,29.314,0,0,0,.414-3.938c.2-1.308.928-2.713,2.207-2.977,1.3-.267,2.488.734,3.36,1.739,3.007,3.467,4.887,7.77,6.625,12.039s3.405,8.628,6.085,12.36,6.557,6.835,11.072,7.464,9.58-1.774,11.093-6.133-.716-9.117-3.255-12.965A70.939,70.939,0,0,0,158.6,437.113a5.843,5.843,0,0,1-2.246-2.85c-.515-2.168,1.66-4.1,3.8-4.625,2.427-.593,4.968-.138,7.461-.224s5.261-.959,6.386-3.216c1.564-3.132-.865-6.748-3.347-9.189a60.8,60.8,0,0,0-17.078-11.822c-2.26-1.043-4.651-1.993-6.4-3.785s1.647-7.348,2.966-9.486,0,0,2.4.655,4.479,2.157,6.734,3.226c4.218,2,9.865,2.162,12.963-1.372a10.058,10.058,0,0,0,1.795-8.777,23.209,23.209,0,0,0-4.16-8.225,61.123,61.123,0,0,0-24.51-20.414c-9.811-4.33-19.091-6.046-29.43-3.2" transform="translate(-91.973 -352.41)" fill="#f0f0f0"/></g><g transform="translate(24.883 0)"><path d="M96.276,354.212a139.571,139.571,0,0,0,3.032,26.534,284.855,284.855,0,0,0,8.759,31.487l2.719,8.136c.9,2.667,1.791,5.314,2.823,7.847a141.908,141.908,0,0,0,6.761,14.223c2.37,4.419,4.78,8.527,7.062,12.351s4.493,7.343,6.635,10.467a112.816,112.816,0,0,0,11.2,13.973c1.447,1.541,2.608,2.7,3.405,3.473l.913.874a2.483,2.483,0,0,0,.324.284,2.174,2.174,0,0,0-.283-.327l-.872-.916c-.769-.8-1.9-1.984-3.323-3.547a119.339,119.339,0,0,1-11.028-14.054c-2.116-3.129-4.292-6.654-6.561-10.482s-4.653-7.942-7-12.358a143.842,143.842,0,0,1-6.7-14.181c-1.022-2.522-1.9-5.146-2.8-7.821s-1.8-5.387-2.717-8.132a292.147,292.147,0,0,1-8.787-31.412A142.066,142.066,0,0,1,96.688,354.2" transform="translate(-96.276 -354.205)" fill="#e0e0e0"/></g><g transform="translate(34.885 74.048)"><g transform="translate(0)"><path d="M132.417,370.963a6.474,6.474,0,0,0-.42,1.327c-.238.861-.542,2.119-.894,3.679-.706,3.116-1.536,7.455-2.432,12.242s-1.786,9.1-2.538,12.2c-.372,1.549-.686,2.8-.913,3.664a6.333,6.333,0,0,0-.29,1.36,6.326,6.326,0,0,0,.507-1.294c.3-.845.671-2.084,1.095-3.626.859-3.082,1.815-7.4,2.712-12.195.873-4.726,1.661-9,2.264-12.268.281-1.473.52-2.715.711-3.712A6.347,6.347,0,0,0,132.417,370.963Z" transform="translate(-124.922 -370.963)" fill="#e0e0e0"/></g></g><g transform="translate(42.38 74.044)"><path d="M133.238,400.557a8.788,8.788,0,0,0-1.608-.328c-1.038-.179-2.54-.429-4.387-.8-3.7-.709-8.771-1.868-14.311-3.39s-10.495-3.134-14.045-4.4c-1.781-.618-3.207-1.157-4.2-1.524a8.861,8.861,0,0,0-1.558-.521,8.677,8.677,0,0,0,1.472.735c.965.431,2.374,1.032,4.141,1.7,3.524,1.366,8.475,3.036,14.032,4.573a143.561,143.561,0,0,0,14.392,3.23c1.862.318,3.379.507,4.429.615A8.642,8.642,0,0,0,133.238,400.557Z" transform="translate(-93.133 -389.596)" fill="#e0e0e0"/></g><g transform="translate(3.574 27.332)"><g transform="translate(0)"><path d="M160.829,395.426a2.1,2.1,0,0,0-.319.473c-.222.383-.491.851-.817,1.416-.705,1.234-1.677,3.045-2.85,5.3-2.348,4.505-5.4,10.829-8.665,17.853s-6.256,13.372-8.506,17.918l-2.681,5.379c-.289.586-.527,1.07-.721,1.468a2.119,2.119,0,0,0-.217.531,2.142,2.142,0,0,0,.32-.475l.817-1.415c.7-1.232,1.677-3.043,2.849-5.3,2.348-4.5,5.4-10.829,8.666-17.855s6.254-13.369,8.506-17.917c1.1-2.208,2.008-4.027,2.681-5.377.289-.586.526-1.072.721-1.468A2.076,2.076,0,0,0,160.829,395.426Z" transform="translate(-136.05 -395.426)" fill="#e0e0e0"/></g></g><g transform="translate(28.354 27.328)"><g transform="translate(0 0)"><path d="M146.966,439.871a2.116,2.116,0,0,0-.518-.266l-1.529-.656c-1.414-.59-3.321-1.386-5.643-2.353-4.762-1.99-11.309-4.812-18.54-7.941s-13.813-5.894-18.618-7.784c-2.4-.947-4.354-1.693-5.713-2.181l-1.568-.552a2.1,2.1,0,0,0-.563-.154,2.265,2.265,0,0,0,.52.266l1.529.655,5.64,2.353c4.764,1.989,11.312,4.812,18.544,7.942s13.809,5.894,18.616,7.784c2.4.946,4.354,1.691,5.713,2.179.629.221,1.146.4,1.569.552A2.124,2.124,0,0,0,146.966,439.871Z" transform="translate(-94.274 -417.979)" fill="#e0e0e0"/></g></g></g></g></g><g transform="translate(1102.319 312.494)"><path d="M359.141,404.566h19.8a1,1,0,0,1,.867.5l9.9,17.15a1,1,0,0,1,0,1l-9.9,17.15a1,1,0,0,1-.867.5h-19.8a1,1,0,0,1-.866-.5l-9.9-17.15a1,1,0,0,1,0-1l9.9-17.15A1,1,0,0,1,359.141,404.566Zm19.226,2H359.719l-9.325,16.15,9.325,16.15h18.648l9.322-16.15Z" fill="#e4b26d"/><path d="M276.385,416.425h15.406a1,1,0,0,1,.865.5l7.7,13.343a1,1,0,0,1,0,1l-7.7,13.342a1,1,0,0,1-.865.5H276.385a1,1,0,0,1-.867-.5l-7.7-13.342a1.008,1.008,0,0,1,0-1l7.7-13.343A1,1,0,0,1,276.385,416.425Zm14.828,2H276.961l-7.125,12.343,7.125,12.342h14.252l7.125-12.342Z" fill="#e4b26d"/><path d="M278.834,420.669H289.34a1,1,0,0,1,.867.5l5.252,9.1a1,1,0,0,1,0,1l-5.252,9.1a1,1,0,0,1-.867.5H278.834a1,1,0,0,1-.865-.5l-5.254-9.1a1,1,0,0,1,0-1l5.254-9.1A1,1,0,0,1,278.834,420.669Zm9.93,2h-9.352l-4.676,8.1,4.676,8.1h9.352l4.673-8.1Z" fill="#e4b26d"/><path d="M318.625,440.966h9.9a1,1,0,0,1,.868.5l4.951,8.574a1.008,1.008,0,0,1,0,1l-4.951,8.575a1,1,0,0,1-.868.5h-9.9a1,1,0,0,1-.867-.5l-4.949-8.575a.993.993,0,0,1,0-1l4.949-8.574A1,1,0,0,1,318.625,440.966Zm9.324,2H319.2l-4.373,7.574,4.373,7.575h8.748l4.373-7.575Z" fill="#e4b26d"/><path d="M360.375,380.648h5.492a1,1,0,0,1,.866.5l2.746,4.757a1,1,0,0,1,0,1l-2.747,4.756a.992.992,0,0,1-.865.5h-5.492a1,1,0,0,1-.867-.5l-2.745-4.756a1,1,0,0,1,0-1l2.746-4.757A1,1,0,0,1,360.375,380.648Zm4.915,2h-4.338l-2.168,3.757,2.168,3.756h4.338l2.168-3.756Z" fill="#e4b26d"/><path d="M362.2,410.357h13.694a.5.5,0,0,1,.433.25l6.846,11.859a.5.5,0,0,1,0,.5l-6.846,11.859a.5.5,0,0,1-.433.25H362.2a.5.5,0,0,1-.433-.25l-6.846-11.859a.5.5,0,0,1,0-.5l6.846-11.859A.5.5,0,0,1,362.2,410.357Zm13.4,1H362.484l-6.558,11.359,6.558,11.359H375.6l6.558-11.359Z" fill="#e4b26d"/><path d="M334.091,388.824H342.9a.5.5,0,0,1,.354.147l16.241,16.242a.5.5,0,0,1-.707.707l-16.1-16.1h-8.6a.5.5,0,1,1,0-1Z" fill="#e4b26d"/><path d="M351.18,397.1a.5.5,0,0,1,.353.854l-27.457,27.457v16.164a.5.5,0,0,1-1,0V425.208a.5.5,0,0,1,.147-.354l27.6-27.6A.5.5,0,0,1,351.18,397.1Z" fill="#e4b26d"/><path d="M349.24,373.506h3.492a.5.5,0,0,1,.354.146l7.642,7.643a.5.5,0,1,1-.707.707l-7.5-7.5H349.24a.5.5,0,0,1,0-1Z" fill="#e4b26d"/><path d="M323.006,392.682a.492.492,0,0,1,.353.146l16.3,16.3a.5.5,0,1,1-.707.707l-16.3-16.3a.5.5,0,0,1,.354-.853Z" fill="#e4b26d"/><path d="M301.262,396.253a.5.5,0,0,1,.353.146l5.6,5.6a.5.5,0,0,1,0,.707l-15.073,15.071a.5.5,0,0,1-.707-.707l14.719-14.718-5.248-5.247a.5.5,0,0,1,.354-.853Z" fill="#e4b26d"/></g><g transform="translate(1044.666 295.649)"><path d="M371.071,222.826a12.738,12.738,0,1,1,12.738-12.738A12.752,12.752,0,0,1,371.071,222.826Zm0-22.274a9.537,9.537,0,1,0,9.537,9.536A9.548,9.548,0,0,0,371.071,200.552Z" fill="#5987e4"/><path d="M365.264,210.088a5.807,5.807,0,1,0,5.807-5.807A5.807,5.807,0,0,0,365.264,210.088Z" fill="#5987e4"/><path d="M412.832,262.055a16.5,16.5,0,1,1,16.5-16.5A16.523,16.523,0,0,1,412.832,262.055Zm0-29.808a13.3,13.3,0,1,0,13.3,13.3A13.317,13.317,0,0,0,412.832,232.247Z" fill="#5987e4"/><circle cx="7.771" cy="7.771" r="7.771" transform="translate(405.061 237.779)" fill="#5987e4"/><path d="M362.728,246.682l-2.263-2.263,9-9V221.544h3.2v15.2Z" fill="#5987e4"/><path d="M391.924,275.429h-16.7v-3.2H390.6l13.935-13.935,2.263,2.263Z" fill="#5987e4"/><path d="M371.071,364.933a12.739,12.739,0,1,1,12.738-12.743A12.754,12.754,0,0,1,371.071,364.933Zm0-22.276a9.537,9.537,0,1,0,9.537,9.533A9.546,9.546,0,0,0,371.071,342.657Z" fill="#5987e4"/><path d="M365.264,352.19A5.807,5.807,0,1,1,371.071,358,5.806,5.806,0,0,1,365.264,352.19Z" fill="#5987e4"/><path d="M412.832,333.237a16.5,16.5,0,1,1,16.5-16.506A16.525,16.525,0,0,1,412.832,333.237Zm0-29.81a13.3,13.3,0,1,0,13.3,13.3A13.318,13.318,0,0,0,412.832,303.427Z" fill="#5987e4"/><path d="M405.061,316.731a7.77,7.77,0,1,1,7.771,7.772A7.772,7.772,0,0,1,405.061,316.731Z" fill="#5987e4"/><path d="M372.672,340.737h-3.2V326.866l-9-9,2.263-2.266,9.943,9.941Z" fill="#5987e4"/><path d="M404.533,303.989,390.6,290.054H375.223v-3.2h16.7L406.8,301.726Z" fill="#5987e4"/></g></g></svg>