<svg xmlns="http://www.w3.org/2000/svg" width="46.612" height="42.63" viewBox="0 0 46.612 42.63"><g transform="translate(-148.613 -252.827)"><path d="M187.282,267.124c0,.144-6.525.261-14.572.261s-14.574-.117-14.574-.261,6.523-.26,14.574-.26S187.282,266.981,187.282,267.124Z" fill="#263238"/><path d="M186.752,270.875c0,.144-6.406.261-14.307.261s-14.309-.117-14.309-.261,6.4-.26,14.309-.26S186.752,270.731,186.752,270.875Z" fill="#263238"/><path d="M186.752,274.626c0,.144-6.406.26-14.307.26s-14.309-.116-14.309-.26,6.4-.261,14.309-.261S186.752,274.482,186.752,274.626Z" fill="#263238"/><path d="M186.752,278.376c0,.144-6.406.261-14.307.261s-14.309-.117-14.309-.261,6.4-.26,14.309-.26S186.752,278.233,186.752,278.376Z" fill="#263238"/><path d="M186.752,282.127c0,.144-6.406.26-14.307.26s-14.309-.116-14.309-.26,6.4-.26,14.309-.26S186.752,281.983,186.752,282.127Z" fill="#263238"/><path d="M172.093,285.878a47,47,0,0,1-6.979.26,46.976,46.976,0,0,1-6.978-.26,46.894,46.894,0,0,1,6.978-.261A46.914,46.914,0,0,1,172.093,285.878Z" fill="#263238"/><path d="M180.25,263.023c0,.144-4.971.261-11.1.261s-11.1-.117-11.1-.261,4.97-.26,11.1-.26S180.25,262.88,180.25,263.023Z" fill="#e8505b"/><path d="M195,295.228s-.017-.279-.025-.795q-.009-.807-.026-2.27c-.013-2-.032-4.9-.057-8.57-.028-7.374-.067-17.877-.114-30.5l.222.222-46.067.038c-.062.056.488-.489.256-.253v2.856q0,1.43,0,2.845,0,2.832,0,5.612c0,3.7-.005,7.335-.007,10.871-.008,7.071-.016,13.768-.023,19.946l-.229-.228,33.293.115,9.406.061,2.5.026.647.013a1.926,1.926,0,0,1,.228.013.981.981,0,0,1-.2.013l-.623.013-2.452.027-9.355.06-33.44.116H148.7v-.229c-.007-6.178-.015-12.875-.024-19.946,0-3.536,0-7.166-.006-10.871q0-2.778,0-5.612,0-1.416,0-2.845V253.1c-.233.229.316-.325.265-.267l46.067.038h.222v.222c-.048,12.684-.087,23.235-.114,30.643-.025,3.653-.044,6.529-.058,8.52q-.016,1.434-.025,2.227C195.019,294.982,195,295.228,195,295.228Z" fill="#263238"/></g></svg>