<svg xmlns="http://www.w3.org/2000/svg" xmlns:xlink="http://www.w3.org/1999/xlink" width="783.824" height="508.674" viewBox="0 0 783.824 508.674"><defs><clipPath id="a"><path d="M289.945,377.774a9.818,9.818,0,0,0,.725,6.818c-.318.143-.079,1.445.494,1.721.674.326,5.548.246,6.538-.527a1.05,1.05,0,0,0-.032-.874s1.22.462,4.688-.192a17.629,17.629,0,0,0,6.674-2.514c.41-.259.125-1.184-.334-1.034,0,0-.3-2.407-2.311-2.276a15.135,15.135,0,0,1-9.194-2.689,7.606,7.606,0,0,0-2.743-1.192A4.674,4.674,0,0,0,289.945,377.774Z" transform="translate(-289.646 -375.011)" fill="#ed0c37"/></clipPath><clipPath id="b"><path d="M216.186,368.185a9.818,9.818,0,0,0-5.321,4.325c-.292-.188-1.254.722-1.174,1.352.095.743,2.819,4.786,4.007,5.195a1.049,1.049,0,0,0,.715-.5s.278,1.276,2.717,3.826a17.627,17.627,0,0,0,5.746,4.226c.439.2,1.061-.54.685-.845,0,0,1.856-1.561.648-3.178a15.146,15.146,0,0,1-2.758-9.172,7.592,7.592,0,0,0-.5-2.95A4.677,4.677,0,0,0,216.186,368.185Z" transform="translate(-209.685 -368.096)" fill="#ed0c37"/></clipPath><clipPath id="c"><path d="M498.745,371.749a37.643,37.643,0,0,1,3.186,3.066c.452.668,2.21,5.635,2.21,5.635a4.237,4.237,0,0,1-2.746,1.9l-2.212-2.847s-1.133,4.978-2.275,6.594c-1.381,1.953-9.3,4.207-10.485,3.613,0,0-1.456-2.9,1.026-4.493,4.583-2.938,4.7-9.1,4.7-9.1A4.314,4.314,0,0,1,498.745,371.749Z" transform="translate(-485.998 -371.059)" fill="#fd6141"/></clipPath><clipPath id="d"><path d="M513.278,374.764a37.542,37.542,0,0,1,1.888,4c.184.785.061,6.051.061,6.051a4.223,4.223,0,0,1-3.24.8l-1.057-3.448s-1.629,3.367-3.272,4.471c-1.986,1.334-9.057,2.972-10.247,2.387,0,0-1.63-3.154.993-4.5,6.569-3.369,7.151-8.025,7.151-8.025A4.315,4.315,0,0,1,513.278,374.764Z" transform="translate(-496.912 -373)" fill="#fd6141"/></clipPath></defs><g transform="translate(-81.289 -56.66)"><g transform="translate(148.574 351.721)"><path d="M751.562,354.542c-2.465-12.7-26.076-14.817-26.076-14.817S739.28,316.72,729.5,306.3s-32.263,14.049-32.263,14.049-7.423-15.461-18.463,0c0,0-18.4-14.048-34.306-6.828-11.365,5.159-9.689,18.782-7.8,26.15H324.216a7.7,7.7,0,0,0-1.006-1.576c-10.553-12.738-41.163-6.181-41.163-6.181s12.784-31.569-8.3-41.138-45.456,9.047-45.456,9.047c-14.627-20.486-24.463,0-24.463,0s-29.787-32.421-42.75-18.615S166.4,325.5,166.4,325.5s-31.282,2.8-34.549,19.632,54.122,34.3,54.122,34.3l524.742,1S754.027,367.244,751.562,354.542Z" transform="translate(-131.714 -277.788)" fill="#14bda4"/><g transform="translate(34.242 23.345)"><path d="M204.553,368.628a234.653,234.653,0,0,0-42.075-73.344" transform="translate(-155.67 -295.284)" fill="none" stroke="#1dceb4" stroke-linecap="round" stroke-linejoin="round" stroke-width="0.997"/><path d="M194,366.739a456.493,456.493,0,0,1,6.568-62.937" transform="translate(-145.131 -292.436)" fill="none" stroke="#1dceb4" stroke-linecap="round" stroke-linejoin="round" stroke-width="0.997"/><path d="M200.582,343.49a154.121,154.121,0,0,0-43.206-13.955" transform="translate(-157.376 -283.832)" fill="none" stroke="#1dceb4" stroke-linecap="round" stroke-linejoin="round" stroke-width="0.997"/><path d="M179.345,323.545a77.239,77.239,0,0,0,5.562-20.01" transform="translate(-150.031 -292.525)" fill="none" stroke="#1dceb4" stroke-linecap="round" stroke-linejoin="round" stroke-width="0.997"/></g><g transform="translate(550.04 40.313)"><path d="M547.864,366.721A187.842,187.842,0,0,1,581.55,308" transform="translate(-542.616 -308)" fill="none" stroke="#1dceb4" stroke-linecap="round" stroke-linejoin="round" stroke-width="0.798"/><path d="M549.188,365.208a365.5,365.5,0,0,0-5.257-50.389" transform="translate(-543.931 -305.72)" fill="none" stroke="#1dceb4" stroke-linecap="round" stroke-linejoin="round" stroke-width="0.798"/><path d="M551.27,346.594a123.416,123.416,0,0,1,34.591-11.172" transform="translate(-541.477 -298.832)" fill="none" stroke="#1dceb4" stroke-linecap="round" stroke-linejoin="round" stroke-width="0.798"/><path d="M560.721,330.626a61.834,61.834,0,0,1-4.453-16.02" transform="translate(-539.806 -305.791)" fill="none" stroke="#1dceb4" stroke-linecap="round" stroke-linejoin="round" stroke-width="0.798"/></g></g><g transform="translate(141.81 56.66)"><path d="M449.987,314.25c-79.911-1.257-293.625,64.9-319.7,0-21.487-53.481,58.853-49.38,63.523-93.662s-16.246-63.141,17.1-83.642,87.687,7.962,123.572-20.5,54.616-49.2,135.4-59.042,140.569,81.183,175.134,90.2,84.074-13.94,108.364,13.94S699.2,251.127,716.015,276.859,774,316.53,758.088,352.612,527.77,315.474,449.987,314.25Z" transform="translate(-126.646 -56.66)" fill="#e3e4f2"/></g><g transform="translate(254.562 168.561)"><rect width="427.629" height="236.132" rx="3.855" transform="translate(14.957 17.825)" fill="#3a46d8"/><rect width="427.629" height="236.132" rx="3.855" transform="translate(7.478 8.912)" fill="#8eb4ff"/><rect width="427.629" height="236.132" rx="2.124" fill="#fff"/><path d="M230.622,156.293H257.97v-1.608H230.622Zm-6.436.8H227.4v-3.217h-3.217Zm6.436,8.043H257.97v-1.608H230.622Zm-6.436.8H227.4v-3.217h-3.217Zm6.436,8.045H257.97v-1.609H230.622Zm-6.436.8H227.4v-3.218h-3.217Z" transform="translate(-206.785 -136.056)" fill="#14365b" fill-rule="evenodd"/><rect width="121.451" height="117.737" rx="15.112" transform="translate(17.401 52.976)" fill="#ece7f8"/><rect width="121.451" height="117.737" rx="15.112" transform="translate(153.822 52.976)" fill="#ece7f8"/><rect width="121.451" height="117.737" rx="15.112" transform="translate(290.244 52.976)" fill="#ece7f8"/><g transform="translate(375.526 13.905)"><path d="M499.025,166.9l-2.042-13.6a.758.758,0,0,0-.75-.65l-3.657-.023.011-1.688,3.657.023a2.44,2.44,0,0,1,2.409,2.088l.227,1.512,23.068.145-2.368,10.727Zm.109-10.648,1.328,8.855,17.74-1.266,1.647-7.458Z" transform="translate(-492.576 -150.943)" fill="#14365b"/><g transform="translate(5.924 14.929)"><path d="M518.406,166.364l-19.935-.116a1.462,1.462,0,0,1-1.436-1.7l.391-2.419,1.667.27-.35,2.16,19.674.115Z" transform="translate(-497.016 -162.131)" fill="#14365b"/></g><path d="M503.06,168.377a2.276,2.276,0,1,1-2.262-2.29A2.276,2.276,0,0,1,503.06,168.377Z" transform="translate(-490.593 -145.88)" fill="none" stroke="#14365b" stroke-miterlimit="10" stroke-width="1.265"/><path d="M512.01,168.434a2.276,2.276,0,1,1-2.26-2.291A2.276,2.276,0,0,1,512.01,168.434Z" transform="translate(-487.6 -145.861)" fill="none" stroke="#14365b" stroke-miterlimit="10" stroke-width="1.265"/></g><line x2="122.035" transform="translate(153.238 178.857)" stroke-width="1.024" stroke="#14365b" stroke-linecap="round" stroke-linejoin="round" fill="#fff"/><g transform="translate(173.744 88.083)"><path d="M347.388,212.834s.89-2.252,8.684.706c4.227,1.6,9.735,5.479,20.457.8,0,0,3.266,10.84-10.4,9.893S347.388,212.834,347.388,212.834Z" transform="translate(-339.337 -204.703)" fill="#dd4026"/><path d="M425.4,225.994l3.164.834c1.8.954,1.7,5.738.22,7.216,0,0-12.779,7.471-50.2,8.1-21.524-.414-35.91-4.094-36.576-5.556s-.725-4.732-.592-7.044l4.058-4.728Z" transform="translate(-341.354 -200.422)" fill="#fff"/><path d="M348.864,214.665s-4.218,4.046-4.717,7.38c-.719,4.79-1.528,7.165-1.011,12,0,0,12.136,4.732,32.357,4.968,9.98.116,24.3-.488,34.774-2.355,8.915-1.589,17.752-3.719,17.752-3.719-2.574-9.012-10.363-5.666-21.462-9.18-7.55-2.39-25.526-17.226-25.526-17.226s-4.166,3.093-4.391,4.681c-.143,1,1.84,3.612,1.84,3.612s-.5,8.52-9,9.086C361.2,224.463,348.864,214.665,348.864,214.665Z" transform="translate(-340.813 -206.535)" fill="#f98091"/><path d="M428.546,226.325a48.732,48.732,0,0,1-16.51,6.446c-10.014,1.941-26.372,2.589-36.565,2.2-11.267-.43-34.074-5.928-34.074-5.928" transform="translate(-341.34 -199.918)" fill="none"/><path d="M380.635,213.026l-3.472,5.61c-.476.662-2.557-.834-2.08-1.5l3.217-5.919C378.994,210.324,381.329,212.13,380.635,213.026Z" transform="translate(-330.101 -205.05)" fill="#e2e2e2"/><path d="M384.526,215.261l-3.649,5.949c-.444,1-2.779-.039-2.335-1.038l3.649-6.716C382.884,212.558,385.219,214.365,384.526,215.261Z" transform="translate(-328.94 -204.302)" fill="#e2e2e2"/><path d="M388.31,217.5l-3.695,5.978c-.394.843-2.683-.223-2.29-1.067l3.649-6.716C386.669,214.794,389,216.6,388.31,217.5Z" transform="translate(-327.671 -203.555)" fill="#e2e2e2"/></g><g transform="translate(33.881 88.083)"><path d="M242.57,212.834s.89-2.252,8.684.706c4.227,1.6,9.735,5.479,20.457.8,0,0,3.266,10.84-10.4,9.893S242.57,212.834,242.57,212.834Z" transform="translate(-234.519 -204.703)" fill="#dd4026"/><path d="M320.578,225.994l3.164.834c1.8.954,1.7,5.738.22,7.216,0,0-12.779,7.471-50.2,8.1-21.524-.414-35.91-4.094-36.574-5.556s-.726-4.732-.594-7.044l4.058-4.728Z" transform="translate(-236.536 -200.422)" fill="#fff"/><path d="M244.046,214.665s-4.218,4.046-4.717,7.38c-.719,4.79-1.528,7.165-1.011,12,0,0,12.136,4.732,32.357,4.968,9.98.116,24.3-.488,34.774-2.355,8.915-1.589,17.752-3.719,17.752-3.719-2.574-9.012-10.363-5.666-21.462-9.18-7.55-2.39-25.525-17.226-25.525-17.226s-4.167,3.093-4.393,4.681c-.143,1,1.84,3.612,1.84,3.612s-.5,8.52-9,9.086C256.381,224.463,244.046,214.665,244.046,214.665Z" transform="translate(-235.995 -206.535)" fill="#ffd25a"/><path d="M323.728,226.325a48.732,48.732,0,0,1-16.51,6.446c-10.013,1.941-26.372,2.589-36.565,2.2-11.267-.43-34.074-5.928-34.074-5.928" transform="translate(-236.522 -199.918)" fill="none"/><path d="M275.817,213.026l-3.472,5.61c-.476.662-2.557-.834-2.08-1.5l3.217-5.919C274.176,210.324,276.511,212.13,275.817,213.026Z" transform="translate(-225.283 -205.05)" fill="#e2e2e2"/><path d="M279.708,215.261l-3.649,5.949c-.444,1-2.779-.039-2.335-1.038l3.649-6.716C278.066,212.558,280.4,214.365,279.708,215.261Z" transform="translate(-224.122 -204.302)" fill="#e2e2e2"/><path d="M283.492,217.5l-3.695,5.978c-.394.843-2.683-.223-2.29-1.067l3.649-6.716C281.851,214.794,284.186,216.6,283.492,217.5Z" transform="translate(-222.853 -203.555)" fill="#e2e2e2"/><path d="M266.5,215.131a1.328,1.328,0,0,1,2.647.109L268.1,225.2c0,1.438-1.509,1.438-1.51,0Z" transform="translate(-226.518 -204.054)" fill="#e2e2e2"/></g><g transform="translate(307.212 88.083)"><path d="M447.412,212.834s.891-2.252,8.684.706c4.227,1.6,9.737,5.479,20.457.8,0,0,3.266,10.84-10.4,9.893S447.412,212.834,447.412,212.834Z" transform="translate(-439.362 -204.703)" fill="#3c8460"/><path d="M525.421,225.994l3.162.834c1.8.954,1.7,5.738.22,7.216,0,0-12.779,7.471-50.2,8.1-21.526-.414-35.911-4.094-36.576-5.556s-.725-4.732-.592-7.044l4.058-4.728Z" transform="translate(-441.379 -200.422)" fill="#fff"/><path d="M448.888,214.665s-4.216,4.046-4.717,7.38c-.718,4.79-1.528,7.165-1.012,12,0,0,12.136,4.732,32.357,4.968,9.981.116,24.3-.488,34.774-2.355,8.916-1.589,17.752-3.719,17.752-3.719-2.574-9.012-10.361-5.666-21.46-9.18-7.55-2.39-25.526-17.226-25.526-17.226s-4.167,3.093-4.393,4.681c-.143,1,1.84,3.612,1.84,3.612s-.5,8.52-9,9.086C461.223,224.463,448.888,214.665,448.888,214.665Z" transform="translate(-440.839 -206.535)" fill="#71bf9d"/><path d="M528.57,226.325a48.732,48.732,0,0,1-16.509,6.446c-10.014,1.941-26.372,2.589-36.566,2.2-11.267-.43-34.073-5.928-34.073-5.928" transform="translate(-441.365 -199.918)" fill="none"/><path d="M480.659,213.026l-3.472,5.61c-.476.662-2.555-.834-2.08-1.5l3.217-5.919C479.017,210.324,481.353,212.13,480.659,213.026Z" transform="translate(-430.126 -205.05)" fill="#e2e2e2"/><path d="M484.551,215.261,480.9,221.21c-.444,1-2.778-.039-2.334-1.038l3.648-6.716C482.908,212.558,485.244,214.365,484.551,215.261Z" transform="translate(-428.965 -204.302)" fill="#e2e2e2"/><path d="M488.334,217.5l-3.695,5.978c-.394.843-2.683-.223-2.29-1.067L486,215.691C486.693,214.794,489.028,216.6,488.334,217.5Z" transform="translate(-427.696 -203.555)" fill="#e2e2e2"/></g><g transform="translate(161.968 65.975)"><path d="M337.527,196.71v.137c0,.691-.171.987-.568.987H333.1c-.4,0-.567-.3-.567-.987v-.137c0-.691.169-.987.567-.987h3.863C337.357,195.723,337.527,196.019,337.527,196.71Z" transform="translate(-332.529 -188.041)" fill="#14365b"/><path d="M344.415,193.283c0,2.745-1.516,3.317-2.841,3.317s-2.841-.572-2.841-3.317,1.516-3.317,2.841-3.317S344.415,190.538,344.415,193.283Zm-3.749,0c0,.77.171,1.7.909,1.7s.89-.929.89-1.7-.152-1.62-.89-1.62S340.665,192.513,340.665,193.283Zm9.031-2.922a.813.813,0,0,1-.093.276l-6.76,12.8a.889.889,0,0,1-.834.552h-.833c-.264,0-.4-.119-.4-.256a.754.754,0,0,1,.095-.3l6.76-12.8a.887.887,0,0,1,.834-.552h.833C349.565,190.085,349.7,190.2,349.7,190.361Zm2.046,10.427c0,2.745-1.514,3.317-2.839,3.317s-2.841-.572-2.841-3.317,1.514-3.318,2.841-3.318S351.742,198.043,351.742,200.788Zm-3.748,0c0,.77.169,1.7.909,1.7s.89-.927.89-1.7-.152-1.62-.89-1.62S347.993,200.016,347.993,200.788Z" transform="translate(-330.455 -189.966)" fill="#14365b"/></g><g transform="translate(175.974 138.661)"><g transform="translate(64.226)"><path d="M398.908,244.961v1.3c1.856.032,5.145.781,5.145,1.856,0,.488-.717,1.725-1.042,1.725-.488,0-1.661-1.173-4.1-1.237v7.586c2.9,1.042,6.219,2.214,6.219,6.706,0,3.712-2.41,6.057-6.219,6.382v1.628c0,.358-.195.52-.651.52s-.651-.163-.651-.52v-1.6c-3.679-.1-6.446-1.5-6.446-2.376,0-.52.782-1.757,1.14-1.757.391,0,2.148,1.692,5.307,1.791v-8.4c-2.865-1.106-6.023-2.247-6.023-6.446,0-3.19,2.344-5.405,6.023-5.8v-1.368c0-.359.2-.522.651-.522S398.908,244.6,398.908,244.961Zm-4.362,7.292c0,1.856,1.334,2.735,3.06,3.452v-7A3.365,3.365,0,0,0,394.546,252.253Zm4.362,14.619a3.867,3.867,0,0,0,3.256-3.972c0-2.051-1.465-3.028-3.256-3.81Z" transform="translate(-391.159 -244.439)" fill="#f98091"/></g><rect width="51.489" height="3.524" rx="0.93" transform="translate(0 8.008)" fill="#f98091"/><rect width="34.879" height="3.524" rx="0.93" transform="translate(0 13.544)" fill="#f98091"/></g></g><g transform="translate(81.289 439.151)"><path d="M865.113,443.447H81.289L202.831,346.36a14.2,14.2,0,0,1,8.845-3.049h523.05a14.2,14.2,0,0,1,8.845,3.049Z" transform="translate(-81.289 -343.311)" fill="#73a0f8"/><path d="M758.307,431.7H145.295L231.6,352.481H672Z" transform="translate(-59.889 -340.245)" fill="#b5b7d6"/><path d="M0,0H783.823a0,0,0,0,1,0,0V11.731a14.316,14.316,0,0,1-14.316,14.316H14.316A14.316,14.316,0,0,1,0,11.731V0A0,0,0,0,1,0,0Z" transform="translate(0 100.136)" fill="#8eb4ff"/><rect width="119.967" height="12.155" rx="4.24" transform="translate(149.803 105.726)" fill="#5987e4"/><g transform="translate(648.137 20.754)"><path d="M567.023,358.865l44.545,39.386h23.85L585.91,358.865Z" transform="translate(-567.023 -358.865)" fill="#8eb4ff"/></g><ellipse cx="18.741" cy="8.158" rx="18.741" ry="8.158" transform="translate(85.406 31.398)" fill="#8db4ff"/></g><g transform="translate(170.868 101.961)"><g transform="translate(0 0.965)"><rect width="467.48" height="38.358" rx="13.382" transform="translate(89.417 0)" fill="#fff" stroke="#14365b" stroke-miterlimit="10" stroke-width="0.974"/><g transform="translate(196.825 11.591)"><path d="M301.354,100.544v.711c1.7.063,3.332.691,3.332,1.341,0,.482-.566,1.572-.965,1.572a7.311,7.311,0,0,0-2.367-.628v3.812c1.8.734,3.98,1.572,3.98,4.358a4.14,4.14,0,0,1-3.98,4.442v.963c0,.378-.167.524-.5.524-.4,0-.567-.147-.567-.524v-.942c-2.7-.084-4.357-1.069-4.357-1.719,0-.544.733-1.613,1.089-1.613a8.58,8.58,0,0,0,3.268,1.047v-4.168c-1.843-.693-4.064-1.488-4.064-4.379,0-2.493,1.824-3.814,4.064-4.064v-.733c0-.378.168-.524.524-.524C301.188,100.02,301.354,100.167,301.354,100.544Zm-2.471,4.65c0,.817.586,1.3,1.4,1.7v-3.248A1.551,1.551,0,0,0,298.883,105.195Zm2.471,8.528a1.769,1.769,0,0,0,1.341-1.76,1.964,1.964,0,0,0-1.341-1.76Z" transform="translate(-295.929 -100.02)" fill="#a1abad"/><path d="M309.117,108.018v.167c0,.63-.168.881-.544.881H304.4c-.376,0-.544-.251-.544-.881v-.167c0-.628.168-.9.544-.9h4.17C308.948,107.117,309.117,107.389,309.117,108.018Z" transform="translate(-293.278 -97.647)" fill="#a1abad"/><path d="M315.231,104.392c0,2.87-1.655,3.477-3.058,3.477s-3.038-.607-3.038-3.477,1.613-3.477,3.038-3.477C313.576,100.915,315.231,101.522,315.231,104.392Zm-4.231,0c0,.881.167,1.969,1.173,1.969s1.194-1.089,1.194-1.969-.147-1.927-1.194-1.927C311.166,102.466,311,103.513,311,104.392Zm10.036-3.142a.592.592,0,0,1-.105.252l-7.606,13.785a.916.916,0,0,1-.879.524h-.628c-.294,0-.462-.105-.462-.252a.65.65,0,0,1,.105-.272l7.584-13.785a.95.95,0,0,1,.9-.5h.628C320.867,101,321.035,101.1,321.035,101.25Zm2.2,11.146c0,2.892-1.655,3.479-3.058,3.479s-3.038-.587-3.038-3.479c0-2.87,1.613-3.477,3.038-3.477C321.579,108.918,323.234,109.526,323.234,112.4Zm-4.233,0c0,.881.168,1.97,1.174,1.97s1.194-1.089,1.194-1.97c0-.858-.147-1.927-1.194-1.927C319.17,110.469,319,111.538,319,112.4Z" transform="translate(-291.514 -99.721)" fill="#a1abad"/></g><path d="M297.489,117.64H259.867a8.81,8.81,0,0,1-8.811-8.811h0a8.81,8.81,0,0,1,8.811-8.809h37.622a8.81,8.81,0,0,1,8.809,8.809h0A8.81,8.81,0,0,1,297.489,117.64Z" transform="translate(-114.107 -88.429)" fill="#b5b7d6"/><circle cx="19.179" cy="19.179" r="19.179" transform="translate(0 0)" fill="#fff" stroke="#14365b" stroke-miterlimit="10" stroke-width="0.974"/><circle cx="19.179" cy="19.179" r="19.179" transform="translate(44.708)" fill="#fff" stroke="#14365b" stroke-miterlimit="10" stroke-width="0.974"/></g><path d="M167.616,96.947l-12.137,12.022,12.137,12.253,2.312-2.312-9.826-9.941,9.826-9.71Z" transform="translate(-146.063 -88.492)" fill="#14365b"/><path d="M195.578,121.222,207.716,109.2,195.578,96.947l-2.312,2.312,9.825,9.941-9.825,9.71Z" transform="translate(-133.429 -88.492)" fill="#14365b"/><path d="M251.546,119.759l-7.734-7.643a9.851,9.851,0,0,0,1.657-5.487,10.138,10.138,0,0,0-17.234-7.108,9.879,9.879,0,0,0-2.928,7.044,10.142,10.142,0,0,0,10.113,10.006h.041A10.122,10.122,0,0,0,241,114.906l7.73,7.642Zm-9.087-13.131a6.918,6.918,0,0,1-2.048,4.922,7.1,7.1,0,0,1-4.962,2.032h-.031a7.117,7.117,0,0,1-7.1-7.016,6.906,6.906,0,0,1,2.047-4.922,7.116,7.116,0,0,1,12.094,4.984Z" transform="translate(-122.717 -88.6)" fill="#14365b"/><path d="M549.367,109.585l-4.349,4.373a1.331,1.331,0,0,0,0,1.875,1.313,1.313,0,0,0,1.864,0l4.349-4.373,4.349,4.373a1.313,1.313,0,0,0,1.864,0,1.33,1.33,0,0,0,0-1.875l-4.349-4.373,4.349-4.373a1.33,1.33,0,0,0,0-1.875,1.315,1.315,0,0,0-1.864,0l-4.349,4.374-4.349-4.374a1.315,1.315,0,0,0-1.864,0,1.331,1.331,0,0,0,0,1.875Zm1.864,14.135a14.135,14.135,0,1,1,14.059-14.135A14.1,14.1,0,0,1,551.231,123.719Z" transform="translate(-18.446 -88.992)" fill="#14365b" fill-rule="evenodd"/></g><path d="M433.057,258.44" transform="translate(117.612 67.464)" fill="#ffb072"/><g transform="translate(252.614 244.027)"><g transform="translate(103.088 105.652)"><g transform="translate(0 0)"><g transform="translate(0 0.174)"><g transform="translate(47.683 112.605)"><path d="M341.069,370.622a9.2,9.2,0,1,1-9.195-9.2A9.195,9.195,0,0,1,341.069,370.622Z" transform="translate(-322.678 -360.56)" fill="#764582"/><circle cx="5.529" cy="5.529" r="5.529" transform="translate(3.667 4.533)" fill="#3e2344"/><path d="M326.9,369.833l3.153-8.316a1.148,1.148,0,0,1,1.073-.741h10.966a1.147,1.147,0,0,1,.842,1.927l-9.874,10.657a3.1,3.1,0,0,1-3.237.839l-.987-.323A3.1,3.1,0,0,1,326.9,369.833Z" transform="translate(-321.335 -360.777)" fill="#ffdcae"/></g><g transform="translate(115.828 112.605)"><path d="M376.379,370.622a9.2,9.2,0,1,0,9.195-9.2A9.195,9.195,0,0,0,376.379,370.622Z" transform="translate(-372.868 -360.56)" fill="#764582"/><path d="M379.126,369.7a5.53,5.53,0,1,0,5.53-5.529A5.531,5.531,0,0,0,379.126,369.7Z" transform="translate(-371.95 -359.641)" fill="#3e2344"/><path d="M390.09,369.833l-3.153-8.316a1.148,1.148,0,0,0-1.073-.741H374.9a1.147,1.147,0,0,0-.842,1.927l9.874,10.657a3.1,3.1,0,0,0,3.237.839l.987-.323A3.1,3.1,0,0,0,390.09,369.833Z" transform="translate(-373.748 -360.777)" fill="#ffdcae"/></g><path d="M319.771,313.62a1.361,1.361,0,0,1-1.252-.822c-3.117-7.213-8.309-18.973-9.24-20.445-1.393-1.011-11.888-4.75-21.394-7.835a1.362,1.362,0,0,1,0-2.591l16.89-5.473a1.383,1.383,0,0,1,.779-.019c1.616.44,15.873,4.39,18.94,7.24,2.437,2.263,9.621,17.248,11.036,20.227a1.363,1.363,0,0,1-2.462,1.169c-3.19-6.718-8.843-17.926-10.429-19.4-1.9-1.764-11.514-4.869-17.412-6.5L292.7,283.231c8.724,2.9,17.747,6.13,18.713,7.42,1.132,1.508,8.2,17.814,9.607,21.067a1.364,1.364,0,0,1-1.25,1.9Z" transform="translate(-286.943 -276.388)" fill="#f98091"/><path d="M308.778,301.513l15.377-9.548,118.577,5.8,2.72,7.434Z" transform="translate(-279.643 -271.179)" fill="#fff" stroke="#f98091" stroke-linecap="round" stroke-linejoin="round" stroke-width="1.854"/><path d="M307.937,299.3l17.944,59.184a4.1,4.1,0,0,0,4.051,2.909l99.259-3.07a4.1,4.1,0,0,0,3.859-3.134l12.682-52.444Z" transform="translate(-279.924 -268.726)" fill="#f98091"/><path d="M426.859,376.369a38.6,38.6,0,0,0-5.516-12.152c-.938-1.273-2.477-2.734-6.079-2.734H333.071c-1.294,0-3.612-.215-4.594-1.652-.921-1.349-.394-3.477.211-5.026a93.6,93.6,0,0,1,4.608-10.177l-3.212.268a74.459,74.459,0,0,0-3.935,8.919c-1.225,3.142-1.2,5.683.079,7.554s3.636,2.839,6.844,2.839h4.4v1.844a2.071,2.071,0,0,0,2.071,2.071h1.575a2.071,2.071,0,0,0,2.071-2.071v-1.844h54.347v1.844a2.071,2.071,0,0,0,2.071,2.071h1.575a2.071,2.071,0,0,0,2.071-2.071v-1.844h12.01c2.481,0,3.305.838,3.884,1.624a36.161,36.161,0,0,1,5.069,11.2,2.537,2.537,0,0,1-.2,2.184c-.743.975-2.623,1.093-3.182,1.1-19.045.427-60.12.192-82.188.067-6.56-.039-11.529-.067-13.9-.067-3.345,0-5.836-.958-7.012-2.7-1.133-1.676-1.1-4.132.093-7.109,2.627-6.546,10.349-26.044,10.349-26.044l-2.533-1s-7.721,19.491-10.345,26.033c-1.954,4.869-.982,7.935.179,9.649,1.7,2.513,4.99,3.9,9.268,3.9,1.553,0,4.242.012,7.749.031v1.784a2.071,2.071,0,0,0,2.072,2.071h1.573a2.072,2.072,0,0,0,2.072-2.071v-1.337l.406-.412c12.576.072,31.32.179,48.657.179,4.706,0,9.3-.008,13.65-.027v1.6a2.071,2.071,0,0,0,2.072,2.071h1.573a2.07,2.07,0,0,0,2.071-2.071v-1.629c5.444-.039,10.317-.1,14.249-.185,1.378-.032,3.9-.355,5.288-2.176A5.07,5.07,0,0,0,426.859,376.369Z" transform="translate(-277.833 -253.961)" fill="#f98091"/><path d="M334.949,375.434l4.834-17.106H391.03l2.793,17.106Z" transform="translate(-270.892 -248.991)" fill="#f98091"/><g transform="translate(39.93 131.51)"><circle cx="10.804" cy="10.804" r="10.804" transform="translate(0 1.019)" fill="#764582"/><path d="M333.09,385.433a6.5,6.5,0,1,1-6.5-6.5A6.5,6.5,0,0,1,333.09,385.433Z" transform="translate(-315.789 -373.61)" fill="#3e2344"/><path d="M321.824,385.586l3.7-9.771a1.348,1.348,0,0,1,1.261-.87h12.883a1.347,1.347,0,0,1,.989,2.263l-11.6,12.523a3.641,3.641,0,0,1-3.8.986l-1.161-.38A3.64,3.64,0,0,1,321.824,385.586Z" transform="translate(-315.291 -374.945)" fill="#ffdcae"/></g><g transform="translate(118.347 131.51)"><circle cx="10.804" cy="10.804" r="10.804" transform="translate(4.124 1.019)" fill="#764582"/><path d="M381.955,385.433a6.5,6.5,0,1,0,6.5-6.5A6.5,6.5,0,0,0,381.955,385.433Z" transform="translate(-373.523 -373.61)" fill="#3e2344"/><path d="M394.836,385.586l-3.706-9.771a1.344,1.344,0,0,0-1.26-.87H376.986a1.347,1.347,0,0,0-.989,2.263l11.6,12.523a3.643,3.643,0,0,0,3.8.986l1.16-.38A3.64,3.64,0,0,0,394.836,385.586Z" transform="translate(-375.636 -374.945)" fill="#ffdcae"/></g></g><g transform="translate(132.3)"><circle cx="24.447" cy="24.447" r="24.447" transform="matrix(0.228, -0.974, 0.974, 0.228, 0, 47.606)" fill="#e4b26d"/><g transform="translate(21.81 15.435)"><path d="M414.542,288.744V310.31h4.1c.8,0,1.15.574,1.15,1.915v.651c0,1.34-.346,1.915-1.15,1.915H403.779c-.8,0-1.149-.575-1.149-1.915v-.651c0-1.341.344-1.915,1.149-1.915h5.095v-17.2l-5.209.767c-1,0-1.226-2.146-1.226-3.218a1.05,1.05,0,0,1,1-1.073l9.538-1.761C413.585,287.825,414.542,288.284,414.542,288.744Z" transform="translate(-402.438 -287.825)" fill="#14365b"/></g></g></g><g transform="translate(62.408 5.375)"><path d="M334.709,284.974v19.258l45.477,1.184V283Z" transform="translate(-333.381 -279.378)" fill="#ffbe57"/><path d="M368.79,283v22.414l21.674.694V286.92Z" transform="translate(-321.986 -279.378)" fill="#f99441"/><path d="M333.714,282.238l47.862-1.952v6.259l-47.862,1.992Z" transform="translate(-333.714 -280.286)" fill="#ffd25a"/><path d="M369.583,286.545l22.191,3.8v-5.935l-22.191-4.125Z" transform="translate(-321.721 -280.286)" fill="#ffbe57"/></g></g><g transform="translate(58.179 112.165)"><g transform="translate(35.236 83.121)"><path d="M279.743,353.7c1.062,10.572,9.948,26.04,13.4,34.668,1.016,2.541,5.826,1.121,5.281-1.561-1.852-9.136-3.124-27.641-3.97-37.079C293.457,338.619,278.732,343.642,279.743,353.7Z" transform="translate(-279.694 -343.431)" fill="#e5baab"/><g transform="translate(13.279 42.138)"><path d="M289.945,377.774a9.818,9.818,0,0,0,.725,6.818c-.318.143-.079,1.445.494,1.721.674.326,5.548.246,6.538-.527a1.05,1.05,0,0,0-.032-.874s1.22.462,4.688-.192a17.629,17.629,0,0,0,6.674-2.514c.41-.259.125-1.184-.334-1.034,0,0-.3-2.407-2.311-2.276a15.135,15.135,0,0,1-9.194-2.689,7.606,7.606,0,0,0-2.743-1.192A4.674,4.674,0,0,0,289.945,377.774Z" transform="translate(-289.646 -375.011)" fill="#f98091"/><g clip-path="url(#a)"><path d="M290.751,383.389a38.839,38.839,0,0,0,7.013-.109s7.9-.139,11.015-3.311,5.8.207,5.8.207l-12.934,10.3-8.448-.662-3.773-3.184S289.115,383.2,290.751,383.389Z" transform="translate(-289.727 -373.807)" fill="#ffaec1"/><path d="M289.527,378.284a3.27,3.27,0,0,0,3.46,1.482c2.326-.492,2.562-1.921,2.035-4.409S287.084,374.513,289.527,378.284Z" transform="translate(-289.85 -375.291)" fill="#ffb072"/></g></g></g><path d="M253.988,298.877s15.2,27.337,20.217,38.509,11.371,38.763,11.371,38.763,12.5,2.629,19.042-3.233c0,0-2.1-29.111-5.663-42.185s-17.116-45.166-17.116-45.166C276.4,274.042,248.546,287.355,253.988,298.877Z" transform="translate(-253.287 -281.138)" fill="#5987e4"/><path d="M263.129,315.025a51.64,51.64,0,0,1,4.293-10.372c2.679-4.688,9.147-8.368,9.857-7.8,1.221.982-8.43,8.149-10.3,13.323,0,0,10.743-7.814,11.49-6.784C279.168,304.358,267.356,310.806,263.129,315.025Z" transform="translate(-249.996 -275.902)" fill="#14365b"/></g><g transform="translate(69.366 47.129)"><path d="M262.014,247.788c2.509,11.554,6.4,26.951,14.975,34.467s27.2,11.688,28.081,11.688c2.074.478,4.3-10.467,2.651-11.732s-16.29-7.179-18.889-9.687c-4.648-4.482-2.667-31.78-7.93-37.735S259.091,234.321,262.014,247.788Z" transform="translate(-261.671 -232.399)" fill="#d6a259"/><path d="M299,271.466s6.528,5.424,6.915,6.9.231,3.911-.3,4.529-4.521,2.615-6.045,1.569a26.691,26.691,0,0,1-3.623-3.431l.719-2.67s-.49,1.829-4.445-.65S295.245,267.718,299,271.466Z" transform="translate(-251.85 -219.681)" fill="#e5baab"/></g><g transform="translate(0 112.417)"><g transform="translate(0 82.868)"><path d="M233.9,345.857c-7.873,7.136-15.037,23.472-19.93,31.372-1.44,2.327,2.559,5.352,4.394,3.321,6.25-6.917,20.379-18.933,27.47-25.219C254.184,347.928,241.4,339.066,233.9,345.857Z" transform="translate(-208.354 -343.431)" fill="#e5baab"/><g transform="translate(0 32.911)"><path d="M216.186,368.185a9.818,9.818,0,0,0-5.321,4.325c-.292-.188-1.254.722-1.174,1.352.095.743,2.819,4.786,4.007,5.195a1.049,1.049,0,0,0,.715-.5s.278,1.276,2.717,3.826a17.627,17.627,0,0,0,5.746,4.226c.439.2,1.061-.54.685-.845,0,0,1.856-1.561.648-3.178a15.146,15.146,0,0,1-2.758-9.172,7.592,7.592,0,0,0-.5-2.95A4.677,4.677,0,0,0,216.186,368.185Z" transform="translate(-209.685 -368.096)" fill="#f98091"/><g clip-path="url(#b)"><path d="M211.584,371.534a38.819,38.819,0,0,0,3.916,5.82s4.423,6.549,8.779,7.428,2.99,4.977,2.99,4.977l-15.685-5.228-4.051-7.443.611-4.9S210.85,370.06,211.584,371.534Z" transform="translate(-210.405 -367.12)" fill="#ffaec1"/><path d="M214.238,368.247a3.272,3.272,0,0,0,.643,3.709c1.68,1.68,3.008,1.1,4.8-.7S216.068,364.142,214.238,368.247Z" transform="translate(-208.269 -368.553)" fill="#ffb072"/></g></g></g><g transform="translate(24.203)"><path d="M246.407,288.558s2.106,40.084-2.394,50.582-16.19,27.586-16.19,27.586A17.992,17.992,0,0,0,242.885,378.1s17.875-12.59,24.888-31.657,12.892-40.053,10.053-55.6C276.23,282.109,248.664,275.785,246.407,288.558Z" transform="translate(-227.824 -281.327)" fill="#5987e4"/><path d="M251.2,286.469s.256,33.377-1.3,46.292c-1.512,12.535-20.774,35.6-20.774,35.6" transform="translate(-227.39 -279.608)" fill="none" stroke="#14365b" stroke-miterlimit="10" stroke-width="0.499"/></g></g><g transform="translate(38.546)"><g transform="translate(2.035)"><path d="M287.176,238.072c3.086,6.143-2.422,29.465-2.422,39.653,0,8.285,1.36,22.138,2.587,27.366a3.25,3.25,0,0,1-1.528,3.549,40.1,40.1,0,0,1-15.026,4.653c-15.087,1.45-22.376-1.193-25.8-2.491a4.188,4.188,0,0,1-2.667-4.541c.762-5.095,2.91-17.557,1.07-29.022-2.407-15-6.337-35.409.7-41.708s20.218-10.217,20.218-10.217S283.362,230.485,287.176,238.072Z" transform="translate(-240.098 -187.638)" fill="#fff"/><g transform="translate(16.245)"><path d="M263.42,228.109s-3.384-.564-8.026-6.331c-3.042-3.782-7.274-20.885,6.142-23.474s17.367,6.48,17.98,12.408-6.043,10.818-9.055,12.957S263.42,228.109,263.42,228.109Z" transform="translate(-252.272 -196.821)" fill="#14365b"/><path d="M260,215.363a39.5,39.5,0,0,1-1.937,9.223,14.8,14.8,0,0,1-5.1,7c-1.931,1.717,7.709,11.956,16.29,14.552,0,0,6.225-7.582,3.371-11.808s-5.115-4.6-4.092-10.241c.89-4.918,1.422-7.646,1.422-7.646Z" transform="translate(-252.124 -190.965)" fill="#e5baab"/><g transform="translate(2.921)"><g transform="translate(0 6.542)"><path d="M259.419,219.837s-.432,3.831,1.112,5.472,4.306,5.607,10.607,5.145c8.414-.614,5.147-13.968,5.147-13.968a29.623,29.623,0,0,0,0-9.358c-.879-4.219-9.211-6.43-15.995-4.363,0,0-1.948,1.853-1.2,10.145a2.533,2.533,0,0,0-3.22-.432c-1.494.814-1.652,2.741-1.145,4.557C255.331,219.214,257.6,221.091,259.419,219.837Z" transform="translate(-254.462 -201.981)" fill="#e5baab" fill-rule="evenodd"/><path d="M258.4,216.045l-.741-1.971,1.264-.523s-.821-3.684-2.874-2.326C254.362,212.341,256.292,216.795,258.4,216.045Z" transform="translate(-254.146 -198.991)" fill="#d78776"/></g><path d="M258.5,212.563a52.546,52.546,0,0,0-.7,7.491c.125,2.311,2.4,9.5,12.942,8.864,10.465-.638,6.717-11.98,4.945-12.758a3.126,3.126,0,0,1-1.045,2.5,2.789,2.789,0,0,0-3.375-1.453c-1.5-.847-3.217-.322-5.025.757l-1.3.913a6.652,6.652,0,0,1-5.355-6.175Z" transform="translate(-253.351 -191.902)" fill="#14365b"/><path d="M265.113,217.444s5.532,0,5.664.375-.659,1.129-2.833,1.129A2.963,2.963,0,0,1,265.113,217.444Z" transform="translate(-250.9 -190.27)" fill="#fff"/><g transform="translate(12.162 18.198)"><ellipse cx="0.967" cy="0.967" rx="0.967" ry="0.967" transform="translate(0.9 1.211)" fill="#14365b"/><path d="M298.4,218.684c.108.107.753-.538,1.828-.538.967-.107,1.827.43,1.827.215,0-.107-.107-.322-.43-.537a2.106,2.106,0,0,0-1.5-.322,2.132,2.132,0,0,0-1.4.645C298.4,218.362,298.3,218.684,298.4,218.684Z" transform="translate(-298.362 -217.473)" fill="#14365b"/></g><g transform="translate(18.834 18.198)"><ellipse cx="0.967" cy="0.967" rx="0.967" ry="0.967" transform="translate(0.9 1.211)" fill="#14365b"/><path d="M298.4,218.684c.108.107.753-.538,1.828-.538.967-.107,1.827.43,1.827.215,0-.107-.107-.322-.43-.537a2.106,2.106,0,0,0-1.5-.322,2.132,2.132,0,0,0-1.4.645C298.4,218.362,298.3,218.684,298.4,218.684Z" transform="translate(-298.362 -217.473)" fill="#14365b"/></g><g transform="translate(16.25 17.714)"><path d="M268.329,216.068s-1.729-.059-1.689-.532,3.659-.994,3.859-.652S269.107,215.851,268.329,216.068Z" transform="translate(-266.639 -208.876)" fill="#d78776" opacity="0.5"/><path d="M268.21,210.354a8.724,8.724,0,0,0-.247,2.948c.26.781,1.847,2.539,1.881,2.91s-1.8,1.28-1.933,1.334,2.611-.367,2.53-1.22-2.12-2.99-2.194-3.409S268.21,210.354,268.21,210.354Z" transform="translate(-266.222 -210.354)" fill="#14365b"/></g><path d="M260.187,218.377c.538-.363,1.42-3.491.482-6.5a3.748,3.748,0,0,1,2.785-4.853c1.716-.187,7.28,1.392,9.481,1.122,4.824-.592,8.561-2.016,8.553-2.906s-3.539.033-3.539.033,5.377-1.372,4.89-5.871a22.043,22.043,0,0,1-7.652-.941c-3.611-1.237-12.256-2.673-16.854.742-3.009,2.234-5.145,9.517-1.16,13.219C258.989,214.111,259.159,219.072,260.187,218.377Z" transform="translate(-254.285 -197.079)" fill="#14365b"/></g></g></g><path d="M265.79,227.208a116.456,116.456,0,0,1,4.234,32.928c-.25,18.633-1.006,56.855,12.784,55.968,0,0-5.812-23.48-5.457-32.011s4.973-39.88,3.276-45.252C278.17,231.059,265.79,227.208,265.79,227.208Z" transform="translate(-229.473 -187.005)" fill="#e4b26d"/><g transform="translate(0 39.53)"><path d="M259.063,226.7s9.3,14.548,12.276,39.206c1.421,11.754-.172,30.382-1.947,42.276-2.043,13.693-28.846,13.672-30.566,10.081s5.958-26.333,3.565-39.256-3.807-34.024-.949-40.964S259.063,226.7,259.063,226.7Z" transform="translate(-238.573 -226.704)" fill="#e4b26d"/><path d="M243.931,245.221s4.561,22,3.979,33.647-4.294,35.175-4.294,35.175" transform="translate(-236.887 -220.513)" fill="none" stroke="#14365b" stroke-linecap="round" stroke-linejoin="round" stroke-width="0.499"/><path d="M241.749,237.574a21.9,21.9,0,0,0-1.213,5.754c2.513,19.189,13.306,40.695,29.883,48.415.547-6.234.877-12.814.787-18.72-11.107-11.062-19.6-25.441-26.1-39.614A11.244,11.244,0,0,0,241.749,237.574Z" transform="translate(-237.917 -224.462)" fill="#d6a259"/></g></g><g transform="translate(40.616 45.389)"><path d="M291.479,274.118s8.264,1.933,9.271,3.081,2.7,5.076,2.5,5.867-4.57,2.517-6.4,2.262a14.136,14.136,0,0,1-3.823-1.286c.274-.974.2-1.849-.814-2.164-1.073-.334-2.212.246-4.082,1.086C283.87,284.879,286.443,272.445,291.479,274.118Z" transform="translate(-224.793 -216.762)" fill="#e5baab"/><path d="M240.549,248.455c2.222,12.315,17.97,30.683,24.709,36.465,5.907,5.068,35.077,13.669,36.364,13.737,2.989.637,6.792-10.122,4.47-11.513s-28.321-13.353-31.138-16.483-13.141-30.938-20.474-37.288S238.041,234.556,240.549,248.455Z" transform="translate(-240.124 -231.095)" fill="#efc182"/></g></g><g transform="translate(552.255 235.341)"><g transform="translate(51.076 84.105)"><g transform="translate(0.922 8.54)"><g transform="translate(17.058 148.192)"><path d="M498.745,371.749a37.643,37.643,0,0,1,3.186,3.066c.452.668,2.21,5.635,2.21,5.635a4.237,4.237,0,0,1-2.746,1.9l-2.212-2.847s-1.133,4.978-2.275,6.594c-1.381,1.953-9.3,4.207-10.485,3.613,0,0-1.456-2.9,1.026-4.493,4.583-2.938,4.7-9.1,4.7-9.1A4.314,4.314,0,0,1,498.745,371.749Z" transform="translate(-485.998 -371.059)" fill="#f98091"/><g clip-path="url(#c)"><path d="M485.617,388.329c.14-.073,10.134-1.418,11.315-4.367.925-2.307,1.538-6.2,2.074-6.653s3.053-3.435,3.053-3.435l4,6.964L491.01,393.5Z" transform="translate(-486.126 -370.118)" fill="#dd4026"/></g><path d="M489.3,380.41l1.365.29a4.633,4.633,0,0,0,.879-2.526l-1.332-.466a.469.469,0,0,0-.6.28l-.66,1.8A.469.469,0,0,0,489.3,380.41Z" transform="translate(-485.017 -368.845)" fill="#f7b614"/></g><path d="M485.458,271.01c-.032-.478-12.686,55.865-12.232,71.014.283,9.438,17.926,52.871,23.192,71.222,1.01,3.521,6.486-.611,6.057-4.265-2.064-17.569-1.935-26.812-9.69-64.991-1.208-5.946,20.13-59.241,18.442-71.726S492.123,252.981,485.458,271.01Z" transform="translate(-473.214 -260)" fill="#e5baab"/><path d="M511.217,272.264c-1.688-12.487-19.1-19.283-25.769-1.254-.031-.455-11.483,50.514-12.207,68.519,5.69-4.319,13.254-2.044,19.8,1.394C495.556,327.924,512.74,283.519,511.217,272.264Z" transform="translate(-473.205 -260)" fill="#e5baab" opacity="0.5"/></g><g transform="translate(25.651 8.337)"><g transform="translate(6.892 150.983)"><path d="M513.278,374.764a37.542,37.542,0,0,1,1.888,4c.184.785.061,6.051.061,6.051a4.223,4.223,0,0,1-3.24.8l-1.057-3.448s-1.629,3.367-3.272,4.471c-1.986,1.334-9.057,2.972-10.247,2.387,0,0-1.63-3.154.993-4.5,6.569-3.369,7.151-8.025,7.151-8.025A4.315,4.315,0,0,1,513.278,374.764Z" transform="translate(-496.912 -373)" fill="#f98091"/><g clip-path="url(#d)"><path d="M496.682,387.265c.157-.019,8.24-.789,10.182-2.339s3.641-5.248,4.3-5.483,4.074-2.124,4.074-2.124l1.262,7.93-18.566,6.486Z" transform="translate(-496.988 -371.555)" fill="#dd4026"/></g><path d="M500.649,380.627l1.173.758a4.638,4.638,0,0,0,1.72-2.048l-1.079-.91a.467.467,0,0,0-.655.051l-1.258,1.449A.468.468,0,0,0,500.649,380.627Z" transform="translate(-495.734 -371.222)" fill="#f7b614"/></g><path d="M491.755,274.694c-.1,4.9.655,57.214,5.185,71.533,2.823,8.921,8.749,51.749,10.756,66.381.732,5.339,6.525,5.339,6.945.239,1.564-18.949,7.69-45.305.735-68.461-1.737-5.784,6.317-65.5,1.326-76.88S492.122,256.559,491.755,274.694Z" transform="translate(-491.747 -259.848)" fill="#e5baab"/><path d="M515.131,340.511c.16-14.774,6-62.913,1.572-73-4.99-11.374-24.581-10.947-24.948,7.188-.091,4.514.543,49.179,4.179,67.422C501.592,338.92,508.743,338.653,515.131,340.511Z" transform="translate(-491.747 -259.848)" fill="#e5baab" opacity="0.5"/></g><path d="M486.251,267.018l-.562,5.141s-9.2,23.324-13.166,61.185c9.814-2.723,28.347,6.345,55.833,2.486,0,0,10.874-48.484-8.041-70.053S487.246,255.6,486.251,267.018Z" transform="translate(-472.523 -253.6)" fill="#f98091"/><path d="M506.074,264.667s14.384,23.931,5.535,66.636" transform="translate(-461.305 -249.9)" fill="none" stroke="#14365b" stroke-linecap="round" stroke-miterlimit="10" stroke-width="0.499"/></g><g transform="translate(0 44.646)"><path d="M447.919,253.438a47.744,47.744,0,0,0-6.21-.073,31.129,31.129,0,0,0-3.588,1.573c-1.44.723-.036,1.756,1.054,1.661a18.609,18.609,0,0,1,2.757-.315,5.094,5.094,0,0,1,.937.239,22.056,22.056,0,0,1-4.758,2.85c-1.023.394-1.948.666-3.429,1.14-.661.212-.552,1.084.2,1.224a9.068,9.068,0,0,0,3.964-.5c.636-.242,1.28-.507,1.868-.781a13.886,13.886,0,0,1-2.034,1.168c-.97.442-1.948.622-3.367,1.144-.65.24-.474,1,.284,1.106a7.6,7.6,0,0,0,1.077.056c-.267.346-.077.886.524.965a7.3,7.3,0,0,0,1.607-.131.63.63,0,0,0,.571.367c5.3.016,8.468-2.878,11.371-3.553C455.377,256.9,451.377,254.1,447.919,253.438Z" transform="translate(-434.245 -214.252)" fill="#e5baab"/><path d="M505.835,225.427c-3.6-2.046-9.755-2.718-14.6,4.189s-6.985,23.155-12.125,28.652c-3.066,3.277-30.9,4.225-32.876,5.219-1.289.647-.519,6.84-.1,7.989.885,2.406,31.013,3.692,39.21.462S513.572,229.818,505.835,225.427Z" transform="translate(-430.476 -224.029)" fill="#3a6cd6"/></g><path d="M482.471,205.855c.222-2.519.208-6.709,3.212-10.344s14.712-7.278,20.848-3.028c7.543,5.223,5.08,10.113,14.484,13.907s6.56,8,3.872,12.3-1.743,5.009,2.606,9.514,10.114,15.727,0,22.127-32.018,2.214-40.792-6.243,1.581-14.024-.855-19.064-5.295-3.928-5.295-9.284C480.551,211.636,482.13,209.741,482.471,205.855Z" transform="translate(-418.763 -190.569)" fill="#14365b"/><path d="M501.381,220.631s-19.95,3.327-20.617,9.415c-.279,2.551,3.2,7.7,2.3,10.31-1.312,3.82-3.4,6.038.454,15.107,3.117,7.332-2.234,22.506-2.071,24.313.607,6.753,11.315,7.989,15.708,7.883,6.262-.149,24.27-4.179,24.27-8.125,0-3.42-8.34-10.77-9.148-16.631s14.45-29.358,11.421-34.476C517.836,218.524,501.381,220.631,501.381,220.631Z" transform="translate(-418.697 -180.581)" fill="#3a6cd6"/><g transform="translate(91.112 42.308)"><path d="M513.24,267.745a47.862,47.862,0,0,0-5.935,1.829,31.6,31.6,0,0,0-2.936,2.594c-1.149,1.129.5,1.684,1.512,1.26a18.685,18.685,0,0,1,2.529-1.142,5.067,5.067,0,0,1,.965-.059,22,22,0,0,1-3.659,4.168c-.854.687-1.652,1.229-2.916,2.134-.564.4-.195,1.2.564,1.1a9.083,9.083,0,0,0,3.621-1.691c.532-.424,1.063-.874,1.54-1.314a13.811,13.811,0,0,1-1.579,1.733c-.789.718-1.665,1.189-2.855,2.119-.546.427-.145,1.1.608.966a7.863,7.863,0,0,0,1.044-.276c-.149.411.2.867.793.758a7.14,7.14,0,0,0,1.49-.615.677.677,0,0,0,.656.175c3.142-.722,8.521-5.235,9.739-6.861C521.4,268.765,516.734,267.318,513.24,267.745Z" transform="translate(-502.527 -207.097)" fill="#e5baab"/><path d="M508.265,222.911c-3.224,2.6-6.1,8.078-1.457,15.122S524.691,252.4,527.922,259.2c1.926,4.054-15.955,21.442-15.99,23.658s3.365,7.614,4.666,8.245c2.307,1.118,27.425-23.262,27.425-32.072S515.187,217.322,508.265,222.911Z" transform="translate(-501.909 -222.276)" fill="#3a6cd6"/></g><path d="M501.841,209.052a39.423,39.423,0,0,0,1.937,9.223,14.8,14.8,0,0,0,5.1,7c1.931,1.717-7.707,11.956-16.29,14.552,0,0-6.223-7.582-3.369-11.808s5.115-4.6,4.092-10.241c-.891-4.918-1.422-7.646-1.422-7.646Z" transform="translate(-416.115 -184.39)" fill="#e5baab"/><g transform="translate(67.695 6.805)"><g transform="translate(0 16.336)"><path d="M489.75,212.055c0,2.423-1,4.4-2.219,4.4s-2.219-1.972-2.219-4.4a5.947,5.947,0,0,1,1.135-3.812c.208-.268-.057-.474-.266-.206a6.261,6.261,0,0,0-1.2,4.018c0,2.651,1.122,4.728,2.553,4.728s2.551-2.076,2.551-4.728a6.425,6.425,0,0,0-.713-3.305c-.055.064-.192.173-.252.24A6.793,6.793,0,0,1,489.75,212.055Z" transform="translate(-484.978 -207.912)" fill="#fff"/></g><g transform="translate(0.513)"><path d="M502.881,213.526s-1.392,10.537-11.293,9.791c-4.972-.375-7.514-10.579-5.574-13.143a29.616,29.616,0,0,1,0-9.356c.881-4.221,9.212-6.43,16-4.365,0,0,1.948,1.855,1.2,10.146a2.533,2.533,0,0,1,3.22-.434c1.493.814,1.651,2.741,1.143,4.558C506.968,212.9,504.7,214.779,502.881,213.526Z" transform="translate(-485.362 -195.669)" fill="#e5baab" fill-rule="evenodd"/><path d="M499.148,209.734l.739-1.971-1.264-.524s.821-3.684,2.875-2.326C503.187,206.029,501.257,210.483,499.148,209.734Z" transform="translate(-480.928 -192.679)" fill="#d78776"/><g transform="translate(16.603 16.336)"><path d="M502.577,212.055c0,2.423-1,4.4-2.219,4.4s-2.219-1.972-2.219-4.4a5.955,5.955,0,0,1,1.136-3.812c.208-.268-.057-.474-.266-.206a6.26,6.26,0,0,0-1.2,4.018c0,2.651,1.122,4.728,2.553,4.728s2.551-2.076,2.551-4.728a6.425,6.425,0,0,0-.713-3.305c-.055.064-.192.173-.252.24A6.777,6.777,0,0,1,502.577,212.055Z" transform="translate(-497.805 -207.912)" fill="#fff"/></g></g><g transform="translate(0.798 10.738)"><g transform="translate(3.329 9.121)"><path d="M488.071,211.766s.674-1.644,5.871-1.106C493.351,213.41,488.487,214.764,488.071,211.766Z" transform="translate(-488.071 -210.552)" fill="#fff"/></g><g transform="translate(0 0)"><g transform="translate(6.672)"><ellipse cx="0.967" cy="0.967" rx="0.967" ry="0.967" transform="translate(0.9 1.211)" fill="#14365b"/><path d="M298.4,218.684c.108.107.753-.538,1.828-.538.967-.107,1.827.43,1.827.215,0-.107-.107-.322-.43-.537a2.106,2.106,0,0,0-1.5-.322,2.132,2.132,0,0,0-1.4.645C298.4,218.362,298.3,218.684,298.4,218.684Z" transform="translate(-298.362 -217.473)" fill="#14365b"/></g><ellipse cx="0.967" cy="0.967" rx="0.967" ry="0.967" transform="translate(0.9 1.211)" fill="#14365b"/><path d="M298.4,218.684c.108.107.753-.538,1.828-.538.967-.107,1.827.43,1.827.215,0-.107-.107-.322-.43-.537a2.106,2.106,0,0,0-1.5-.322,2.132,2.132,0,0,0-1.4.645C298.4,218.362,298.3,218.684,298.4,218.684Z" transform="translate(-298.362 -217.473)" fill="#14365b"/></g><g transform="translate(1.718 0.435)"><path d="M489.309,209.756s1.729-.057,1.691-.531-3.66-.994-3.859-.653S488.532,209.54,489.309,209.756Z" transform="translate(-486.777 -202.565)" fill="#d78776" opacity="0.5"/><path d="M489.1,204.043a8.726,8.726,0,0,1,.245,2.946c-.259.781-1.847,2.539-1.88,2.91s1.8,1.281,1.932,1.334-2.61-.367-2.53-1.218,2.122-2.992,2.2-3.409S489.1,204.043,489.1,204.043Z" transform="translate(-486.864 -204.043)" fill="#14365b"/></g></g></g><path d="M500.89,198.4c-8.25.873-11.91,8.64-17.954,8.647-3.74-6.5,7.69-23,21.173-10.189,6.183,5.871.607,10.372.607,10.372l-1.377,4.746s.12-3.563-1.147-4.929A7.765,7.765,0,0,1,500.89,198.4Z" transform="translate(-418.206 -190.051)" fill="#14365b"/></g></g></svg>