<svg xmlns="http://www.w3.org/2000/svg" width="1116.82" height="454.946" viewBox="0 0 1116.82 454.946"><g transform="translate(-325 -2989.041)"><g transform="translate(-417.67 2784.123)"><g transform="translate(742.67 476.64)"><circle cx="43.601" cy="43.601" r="43.601" transform="translate(0 61.661) rotate(-45)" fill="#ffd05d"/><g transform="translate(24.92 24.447)"><path d="M850.939,524.432a43.608,43.608,0,0,1-59.553,60.648,43.6,43.6,0,1,0,59.553-60.648Z" transform="translate(-791.386 -524.432)" fill="#fdc453"/></g><g transform="translate(20.973 21.279)"><path d="M786.683,563.221a40.48,40.48,0,0,1,72.569-24.676A40.484,40.484,0,1,0,792.062,583.4,40.3,40.3,0,0,1,786.683,563.221Z" transform="translate(-783.67 -518.239)" fill="#ffd77f"/></g><g transform="translate(42.385 48.132)"><ellipse cx="3.213" cy="5.415" rx="3.213" ry="5.415" fill="#303030"/><g transform="translate(32.126 0)"><path d="M894.759,576.149c0,2.99-1.438,5.415-3.213,5.415s-3.212-2.425-3.212-5.415,1.438-5.415,3.212-5.415S894.759,573.158,894.759,576.149Z" transform="translate(-888.334 -570.734)" fill="#303030"/></g></g><g transform="translate(41.975 36.256)"><rect width="4.135" height="13.796" transform="translate(0 2.924) rotate(-45)" fill="#303030"/><rect width="4.135" height="13.796" transform="translate(36.449 0) rotate(45)" fill="#303030"/></g></g><g transform="translate(788.268 541.17)"><path d="M863.936,619.875c-.931-9.629-7.79-17.1-16.1-17.083S832.7,610.31,831.81,619.944Z" transform="translate(-831.81 -602.792)" fill="#695342"/><path d="M831.81,630.544s13.524-13.57,32.126-.07Z" transform="translate(-831.81 -613.392)" fill="#f06669"/></g></g><g transform="translate(1168.701 3179.055)"><g transform="translate(57.397 40.676)"><g transform="translate(0 0)"><circle cx="72.25" cy="72.25" r="72.25" transform="translate(0 102.177) rotate(-45)" fill="#ffd05d"/></g><g transform="translate(41.294 40.512)"><path d="M204.8,88.469a72.261,72.261,0,0,1-98.683,100.5A72.256,72.256,0,1,0,204.8,88.469Z" transform="translate(-106.113 -88.469)" fill="#fdc453"/></g><g transform="translate(34.754 35.262)"><path d="M103.39,156.814a67.079,67.079,0,0,1,120.254-40.891A67.084,67.084,0,1,0,112.3,190.247,66.766,66.766,0,0,1,103.39,156.814Z" transform="translate(-98.397 -82.276)" fill="#ffd77f"/></g></g><g transform="translate(127.632 116.351)"><path d="M150.9,138.926c0,4.955-2.384,8.973-5.323,8.973s-5.324-4.018-5.324-8.973,2.384-8.973,5.324-8.973S150.9,133.97,150.9,138.926Z" transform="translate(-140.256 -129.953)" fill="#303030"/><g transform="translate(53.236)"><path d="M213.707,138.926c0,4.955-2.383,8.973-5.323,8.973s-5.324-4.018-5.324-8.973,2.384-8.973,5.324-8.973S213.707,133.97,213.707,138.926Z" transform="translate(-203.06 -129.953)" fill="#303030"/></g></g><path d="M120.664,169.28a48.863,48.863,0,0,0,97.1,0Z" transform="translate(-9.639 -19.593)" fill="#695342"/><path d="M138.376,203.379a48.817,48.817,0,0,0,65.926,1.055l-.449-1.05C171.25,187.487,138.819,203.163,138.376,203.379Z" transform="translate(-12.338 -23.705)" fill="#f06669"/></g><g transform="translate(68 924)"><circle cx="15" cy="15" r="15" transform="translate(350 2386)" fill="#f98091"/><text transform="translate(359 2408)" fill="#fff" font-size="20" font-family="Lato-Regular, Lato"><tspan x="0" y="0">1</tspan></text></g><g transform="translate(0 998)"><circle cx="93" cy="93" r="93" transform="translate(872 2234)" fill="#fff"/><path d="M-1901.752-253.436a84.554,84.554,0,0,1-12.118-12.85,84.048,84.048,0,0,1-9.218-15.2,83.451,83.451,0,0,1-5.859-17.086A84.393,84.393,0,0,1-1931-317.1a84.521,84.521,0,0,1,1.7-16.909,83.5,83.5,0,0,1,4.889-15.75,83.924,83.924,0,0,1,7.736-14.252,84.51,84.51,0,0,1,10.245-12.417,84.5,84.5,0,0,1,12.417-10.245,83.917,83.917,0,0,1,14.252-7.736,83.48,83.48,0,0,1,15.749-4.889A84.523,84.523,0,0,1-1847.1-401a84.4,84.4,0,0,1,18.528,2.052,83.451,83.451,0,0,1,17.086,5.859,84.039,84.039,0,0,1,15.2,9.217,84.537,84.537,0,0,1,12.859,12.128,83.6,83.6,0,0,0-25-14.847,83.584,83.584,0,0,0-29.645-5.388,84.524,84.524,0,0,0-16.91,1.7,83.481,83.481,0,0,0-15.75,4.889,83.91,83.91,0,0,0-14.252,7.736A84.5,84.5,0,0,0-1897.4-367.4a84.515,84.515,0,0,0-10.245,12.417,83.908,83.908,0,0,0-7.736,14.252,83.47,83.47,0,0,0-4.889,15.749,84.52,84.52,0,0,0-1.7,16.909,83.581,83.581,0,0,0,5.388,29.646,83.607,83.607,0,0,0,14.839,24.992Z" transform="translate(2811 2642)" fill="#e8f0ff" opacity="0.428"/><text transform="translate(897 2328)" fill="#3d466e" font-size="16" font-family="Lato-Regular, Lato"><tspan x="0" y="16" xml:space="preserve"> is here to help</tspan></text><g transform="translate(510 -73)"><circle cx="15" cy="15" r="15" transform="translate(350 2386)" fill="#f98091"/><text transform="translate(359 2408)" fill="#fff" font-size="20" font-family="Lato-Regular, Lato"><tspan x="0" y="0">2</tspan></text></g><g transform="translate(693 -73)"><circle cx="15" cy="15" r="15" transform="translate(350 2386)" fill="#f98091"/><text transform="translate(359 2408)" fill="#fff" font-size="20" font-family="Lato-Regular, Lato"><tspan x="0" y="0">3</tspan></text></g><g transform="translate(603 -160)"><circle cx="15" cy="15" r="15" transform="translate(350 2386)" fill="#f98091"/><text transform="translate(359 2408)" fill="#fff" font-size="20" font-family="Lato-Regular, Lato"><tspan x="0" y="0">0</tspan></text></g><text transform="translate(900 2323)" fill="#3c41e0" font-size="22" font-family="FuturaBT-Book, Futura"><tspan x="0" y="0">return</tspan><tspan y="0" fill="#929afa">handler</tspan></text></g><g transform="translate(615.525 2862.415)"><path d="M237.592,465a2.568,2.568,0,0,1-.669,1.6q-2.045,3.015-4.121,6.009c-1.186,1.708-2.333,3.448-3.619,5.078a4.816,4.816,0,0,1-1.919,1.681c-.409.166-.554.253-.827-.082-.391-.481-.552-.356-.542.221,0,.06-.18.136-.286.185-1.006.457-2.239.43-2.985,1.484-.119.168-.814.137-1.049-.048-.2-.161-.147-.668-.18-1.025a.437.437,0,0,1,.108-.324.857.857,0,0,0,.13-1.159c-.266.228-.537.451-.795.687a.56.56,0,0,0-.2.291.828.828,0,0,1-.807.834c-.366.017-1-.889-1.094-1.331a2.588,2.588,0,0,1,.452-1.884,12.419,12.419,0,0,1,1.578-1.982c2.113-2.27,4.251-4.515,6.381-6.769a4.415,4.415,0,0,0,.521-.54.808.808,0,0,0,.083-.5c-.007-.066-.187-.152-.293-.16a9.13,9.13,0,0,1-.938-.017c-.529-.09-1.04.93-1.567.02-.537.659-1.272.3-1.92.356-.623.051-1.253.01-1.881.01h-6.022c-.627,0-1.255-.02-1.881.006-.65.027-1.258-.149-1.954-.067-2.262.267-4.5-.49-6.8-.37-.733.039-1.442-.689-2.261-.857-.19-.039-.388-.461-.429-.73a1.879,1.879,0,0,1,1.8-2.113,32.417,32.417,0,0,1,3.794-.373c1.465-.047,2.867-.548,4.362-.421a15.158,15.158,0,0,0,4.314-.031,28.108,28.108,0,0,1,5.314-.312c1.756-.035,3.513-.007,5.269-.007a5.04,5.04,0,0,0,.937-.022c.093-.018.234-.392.185-.443-.626-.653-1.108-1.3-.372-2.189.034-.04-.1-.3-.125-.295-.21.029-.589.1-.591.161-.028.765-.4.515-.568.148-.678-1.531-1.832-2.762-2.617-4.193a13.114,13.114,0,0,1-1.65-3.447c-.092-.428-.435-1.007.459-1.074.04,0-.06-.719.2-1.059a1.153,1.153,0,0,0,.118-.325c.088.1.156.245.267.3.488.235.024,1.213.9,1.149.008,0,.091.292.039.341a2.227,2.227,0,0,1-.493.277,2.872,2.872,0,0,0,.7.1.477.477,0,0,0,.343-.3c.045-.372-.011-.754.026-1.127a4.606,4.606,0,0,1,.213-.782c.177.177.494.346.505.534.034.587.082.516.584.27.392-.192,1.015-1.024,1.518-.069.233.445,1.191.179.979,1.093-.053.225.4.557.6.855.277.415.467.164.668-.068-.032.533.785.716.512,1.406-.2.5-.084.568.305.4.161-.067.315-.316.428-.29a1.072,1.072,0,0,1,.441.367c-.345.474-.212.623.308.9.5.269.821.882,1.295,1.478-.123-.029-.189-.127-.25-.125a3.059,3.059,0,0,0-.487.088c.022.082.044.237.065.237a1.169,1.169,0,0,0,.672-.2c.176.226.411.6.684.94.225.281.566.487.732.794.228.422.793.9.028,1.385-.038.025.091.315.142.481.2-.071.568-.13.574-.214.057-.84.366-.366.589-.116a.7.7,0,0,1,.179.479c-.1.76.16,1.143.977,1.058a1.112,1.112,0,0,1,.152.473c.007.058-.139.132-.215.2-.217-.317-.453-.363-.658-.006a1.753,1.753,0,0,0-.23.65,1.356,1.356,0,0,0,.143.5,1.677,1.677,0,0,0,.213-.411c.1-.481.473-.288.743-.3.5-.03.385.364.391.647.011.562-.016,1.127.02,1.687C237.239,464.811,237.467,464.9,237.592,465Zm-5.067-2.638h.168a1.049,1.049,0,0,0-.114-.286c-.018-.023-.149.039-.228.062a.585.585,0,0,0,.342.224,3.63,3.63,0,0,0,.718.734c.283.161.648-.653.989.008.178-.177.5-.358.5-.531a6.369,6.369,0,0,1-.094-1.872,4.593,4.593,0,0,0-.223.557,1.57,1.57,0,0,0-.006.35c.126-.087.321-.15.359-.266s-.054-.309-.359.266a5.236,5.236,0,0,1-.381.457.806.806,0,0,1-.3.164C233.411,461.532,233.1,462.387,232.525,462.364Zm-2.651-2.652c-.072.112-.208.245-.182.3a1.6,1.6,0,0,0,.368.458c.021.018.206-.15.315-.232Zm-3.887-7.722-.206-.495c-.082.108-.2.206-.235.327-.023.086.073.2.116.307Zm4.291,5.045c-.1.148-.219.25-.21.337a1.921,1.921,0,0,0,.176.47c.062-.1.179-.193.176-.286A2.253,2.253,0,0,0,230.278,457.035Zm.454,3.836c-.138.086-.29.141-.287.186a2.71,2.71,0,0,0,.116.493c.082-.047.232-.09.235-.142A2.854,2.854,0,0,0,230.732,460.871Zm.883,1.339c-.148-.1-.249-.22-.337-.21a1.871,1.871,0,0,0-.469.175c.1.063.192.179.285.177A2.29,2.29,0,0,0,231.615,462.21Zm-3.067-6.441c-.042-.042-.093-.125-.124-.118a1.181,1.181,0,0,0-.253.118c.042.042.093.125.124.118A1.182,1.182,0,0,0,228.548,455.769Zm2.826.942c-.042.042-.125.093-.118.124a1.183,1.183,0,0,0,.118.253c.042-.042.125-.093.118-.124A1.182,1.182,0,0,0,231.374,456.711Zm-3.337,1.562-.243.134c.042.042.093.125.124.118a1.182,1.182,0,0,0,.253-.118Zm5.787.887c-.042-.041-.093-.124-.124-.117a1.177,1.177,0,0,0-.253.117c.042.042.093.125.124.118A1.158,1.158,0,0,0,233.824,459.16Zm-1.374,2.019.243-.134c-.042-.042-.093-.125-.124-.118a1.2,1.2,0,0,0-.253.118Z" fill="#3d466e"/><path d="M142.252,465.755c-2.636,0-5.276-.083-7.906.034a11.929,11.929,0,0,1-3.823-.819c-1.1-.307-1.331-1.307-.708-2.3.355-.566,1.088-.574,1.536-.619,1.45-.147,2.9-.371,4.348-.523,2.467-.259,4.959-.012,7.371-.376a48.866,48.866,0,0,1,5.882-.284,47.869,47.869,0,0,1,5.832.033,9.793,9.793,0,0,1,3.9,1.021c.874.474.443,1.022.472,1.5.015.258-.482.763-.775.785a4.662,4.662,0,0,0-2.991,1.006,1.227,1.227,0,0,1-.68.158c-1.831.134-3.66.3-5.493.368s-3.64.013-5.46.013Z" fill="#3d466e"/><path d="M142.252,465.755c-2.636,0-5.276-.083-7.906.034a11.929,11.929,0,0,1-3.823-.819c-1.1-.307-1.331-1.307-.708-2.3.355-.566,1.088-.574,1.536-.619,1.45-.147,2.9-.371,4.348-.523,2.467-.259,4.959-.012,7.371-.376a48.866,48.866,0,0,1,5.882-.284,47.869,47.869,0,0,1,5.832.033,9.793,9.793,0,0,1,3.9,1.021c.874.474.443,1.022.472,1.5.015.258-.482.763-.775.785a4.662,4.662,0,0,0-2.991,1.006,1.227,1.227,0,0,1-.68.158c-1.831.134-3.66.3-5.493.368s-3.64.013-5.46.013Z" transform="translate(-148)" fill="#3d466e"/><path d="M142.252,465.755c-2.636,0-5.276-.083-7.906.034a11.929,11.929,0,0,1-3.823-.819c-1.1-.307-1.331-1.307-.708-2.3.355-.566,1.088-.574,1.536-.619,1.45-.147,2.9-.371,4.348-.523,2.467-.259,4.959-.012,7.371-.376a48.866,48.866,0,0,1,5.882-.284,47.869,47.869,0,0,1,5.832.033,9.793,9.793,0,0,1,3.9,1.021c.874.474.443,1.022.472,1.5.015.258-.482.763-.775.785a4.662,4.662,0,0,0-2.991,1.006,1.227,1.227,0,0,1-.68.158c-1.831.134-3.66.3-5.493.368s-3.64.013-5.46.013Z" transform="translate(-259)" fill="#3d466e"/><path d="M142.252,465.755c-2.636,0-5.276-.083-7.906.034a11.929,11.929,0,0,1-3.823-.819c-1.1-.307-1.331-1.307-.708-2.3.355-.566,1.088-.574,1.536-.619,1.45-.147,2.9-.371,4.348-.523,2.467-.259,4.959-.012,7.371-.376a48.866,48.866,0,0,1,5.882-.284,47.869,47.869,0,0,1,5.832.033,9.793,9.793,0,0,1,3.9,1.021c.874.474.443,1.022.472,1.5.015.258-.482.763-.775.785a4.662,4.662,0,0,0-2.991,1.006,1.227,1.227,0,0,1-.68.158c-1.831.134-3.66.3-5.493.368s-3.64.013-5.46.013Z" transform="translate(-37)" fill="#3d466e"/><path d="M142.252,465.755c-2.636,0-5.276-.083-7.906.034a11.929,11.929,0,0,1-3.823-.819c-1.1-.307-1.331-1.307-.708-2.3.355-.566,1.088-.574,1.536-.619,1.45-.147,2.9-.371,4.348-.523,2.467-.259,4.959-.012,7.371-.376a48.866,48.866,0,0,1,5.882-.284,47.869,47.869,0,0,1,5.832.033,9.793,9.793,0,0,1,3.9,1.021c.874.474.443,1.022.472,1.5.015.258-.482.763-.775.785a4.662,4.662,0,0,0-2.991,1.006,1.227,1.227,0,0,1-.68.158c-1.831.134-3.66.3-5.493.368s-3.64.013-5.46.013Z" transform="translate(-185)" fill="#3d466e"/><path d="M142.252,465.755c-2.636,0-5.276-.083-7.906.034a11.929,11.929,0,0,1-3.823-.819c-1.1-.307-1.331-1.307-.708-2.3.355-.566,1.088-.574,1.536-.619,1.45-.147,2.9-.371,4.348-.523,2.467-.259,4.959-.012,7.371-.376a48.866,48.866,0,0,1,5.882-.284,47.869,47.869,0,0,1,5.832.033,9.793,9.793,0,0,1,3.9,1.021c.874.474.443,1.022.472,1.5.015.258-.482.763-.775.785a4.662,4.662,0,0,0-2.991,1.006,1.227,1.227,0,0,1-.68.158c-1.831.134-3.66.3-5.493.368s-3.64.013-5.46.013Z" transform="translate(-74)" fill="#3d466e"/><path d="M189.245,466.414c-.659.291-.594-.6-.79-.572-.358.053-.639.509-1.008.642-.3.109-.649.125-.776-.466-.105-.484-.961-.389-1-.09-.1.708-.508.616-.91.572-1.327-.144-2.717.395-3.985-.368-.924,1.039-2.186-.7-3.106.377-.543-.177-1.432.5-1.582-.645-.089.016-.225,0-.258.054-.117.185-.186.556-.295.564a4.381,4.381,0,0,1-2.043-.025,5.273,5.273,0,0,0-2.315-.315c-.423-.01-.752-.032-.682-.584a.373.373,0,0,0-.253-.087,2.016,2.016,0,0,1-1.687.027,2.318,2.318,0,0,0-.7-.113.982.982,0,0,1-1.119-.923c-.1-.542.269-.906.368-1.357.11-.494.453-.273.7-.374.559-.23,1.15-.614,1.715-.338.589.288,1.061-.779,1.584-.029a4.856,4.856,0,0,1,2.1-.4c.795-.138,1.488.375,2.346.084a8.559,8.559,0,0,1,2.615-.056h8.091c.815,0,1.774-.268,2.408.071.717.384,1.521-.69,2.017.3,1.025-1.087,2,.408,3.1.076.506-.153,1.26.468,1.88.781.1.049.124.334.106.5a2.03,2.03,0,0,1-1.522,1.642c-.741.044-1.515-.113-1.979.693a.221.221,0,0,1-.154.075Q190.672,466.275,189.245,466.414Zm-.509-1.09.243-.134c-.042-.042-.093-.125-.124-.118a1.184,1.184,0,0,0-.253.118Z" fill="#3d466e"/><path d="M189.245,466.414c-.659.291-.594-.6-.79-.572-.358.053-.639.509-1.008.642-.3.109-.649.125-.776-.466-.105-.484-.961-.389-1-.09-.1.708-.508.616-.91.572-1.327-.144-2.717.395-3.985-.368-.924,1.039-2.186-.7-3.106.377-.543-.177-1.432.5-1.582-.645-.089.016-.225,0-.258.054-.117.185-.186.556-.295.564a4.381,4.381,0,0,1-2.043-.025,5.273,5.273,0,0,0-2.315-.315c-.423-.01-.752-.032-.682-.584a.373.373,0,0,0-.253-.087,2.016,2.016,0,0,1-1.687.027,2.318,2.318,0,0,0-.7-.113.982.982,0,0,1-1.119-.923c-.1-.542.269-.906.368-1.357.11-.494.453-.273.7-.374.559-.23,1.15-.614,1.715-.338.589.288,1.061-.779,1.584-.029a4.856,4.856,0,0,1,2.1-.4c.795-.138,1.488.375,2.346.084a8.559,8.559,0,0,1,2.615-.056h8.091c.815,0,1.774-.268,2.408.071.717.384,1.521-.69,2.017.3,1.025-1.087,2,.408,3.1.076.506-.153,1.26.468,1.88.781.1.049.124.334.106.5a2.03,2.03,0,0,1-1.522,1.642c-.741.044-1.515-.113-1.979.693a.221.221,0,0,1-.154.075Q190.672,466.275,189.245,466.414Zm-.509-1.09.243-.134c-.042-.042-.093-.125-.124-.118a1.184,1.184,0,0,0-.253.118Z" transform="translate(-148)" fill="#3d466e"/><path d="M189.245,466.414c-.659.291-.594-.6-.79-.572-.358.053-.639.509-1.008.642-.3.109-.649.125-.776-.466-.105-.484-.961-.389-1-.09-.1.708-.508.616-.91.572-1.327-.144-2.717.395-3.985-.368-.924,1.039-2.186-.7-3.106.377-.543-.177-1.432.5-1.582-.645-.089.016-.225,0-.258.054-.117.185-.186.556-.295.564a4.381,4.381,0,0,1-2.043-.025,5.273,5.273,0,0,0-2.315-.315c-.423-.01-.752-.032-.682-.584a.373.373,0,0,0-.253-.087,2.016,2.016,0,0,1-1.687.027,2.318,2.318,0,0,0-.7-.113.982.982,0,0,1-1.119-.923c-.1-.542.269-.906.368-1.357.11-.494.453-.273.7-.374.559-.23,1.15-.614,1.715-.338.589.288,1.061-.779,1.584-.029a4.856,4.856,0,0,1,2.1-.4c.795-.138,1.488.375,2.346.084a8.559,8.559,0,0,1,2.615-.056h8.091c.815,0,1.774-.268,2.408.071.717.384,1.521-.69,2.017.3,1.025-1.087,2,.408,3.1.076.506-.153,1.26.468,1.88.781.1.049.124.334.106.5a2.03,2.03,0,0,1-1.522,1.642c-.741.044-1.515-.113-1.979.693a.221.221,0,0,1-.154.075Q190.672,466.275,189.245,466.414Zm-.509-1.09.243-.134c-.042-.042-.093-.125-.124-.118a1.184,1.184,0,0,0-.253.118Z" transform="translate(-259)" fill="#3d466e"/><path d="M189.245,466.414c-.659.291-.594-.6-.79-.572-.358.053-.639.509-1.008.642-.3.109-.649.125-.776-.466-.105-.484-.961-.389-1-.09-.1.708-.508.616-.91.572-1.327-.144-2.717.395-3.985-.368-.924,1.039-2.186-.7-3.106.377-.543-.177-1.432.5-1.582-.645-.089.016-.225,0-.258.054-.117.185-.186.556-.295.564a4.381,4.381,0,0,1-2.043-.025,5.273,5.273,0,0,0-2.315-.315c-.423-.01-.752-.032-.682-.584a.373.373,0,0,0-.253-.087,2.016,2.016,0,0,1-1.687.027,2.318,2.318,0,0,0-.7-.113.982.982,0,0,1-1.119-.923c-.1-.542.269-.906.368-1.357.11-.494.453-.273.7-.374.559-.23,1.15-.614,1.715-.338.589.288,1.061-.779,1.584-.029a4.856,4.856,0,0,1,2.1-.4c.795-.138,1.488.375,2.346.084a8.559,8.559,0,0,1,2.615-.056h8.091c.815,0,1.774-.268,2.408.071.717.384,1.521-.69,2.017.3,1.025-1.087,2,.408,3.1.076.506-.153,1.26.468,1.88.781.1.049.124.334.106.5a2.03,2.03,0,0,1-1.522,1.642c-.741.044-1.515-.113-1.979.693a.221.221,0,0,1-.154.075Q190.672,466.275,189.245,466.414Zm-.509-1.09.243-.134c-.042-.042-.093-.125-.124-.118a1.184,1.184,0,0,0-.253.118Z" transform="translate(-331)" fill="#3d466e"/><path d="M237.82,464.1c.077.332.174.509.131.641-.038.115-.233.179-.359.266a1.633,1.633,0,0,1,.005-.35A4.886,4.886,0,0,1,237.82,464.1Z" fill="#3d466e"/></g><g transform="translate(838.096 3545.658) rotate(-90)"><path d="M242.3,360.429c.3.839.317.848-.629,1.066-.112.026-.295.122-.3.19a4.474,4.474,0,0,1-1.687,3.081,26.072,26.072,0,0,0-1.745,2.093c-.542.651-1.345,1.078-1.614,1.97a1.05,1.05,0,0,1-.522.525,9.468,9.468,0,0,1-1.147.412c.325.481.1.978-.328.98-.714.005-.4.659-.746.881a4.2,4.2,0,0,0-.887.938c-.262.323-.459.7-.73,1.011-.328.379-.7.716-1.059,1.071-.311.311-.735.569-.907.943-.317.686-1.036.992-1.373,1.491-.386.57-.892.989-1.3,1.508a9.185,9.185,0,0,1-2.077,2.146,3.636,3.636,0,0,1-2.238.993c-.159-.009-.457.093-.469.176-.2,1.38-1.816,1.007-2.42,1.939-.129.2-.892.043-1.341-.053-.147-.031-.653-.291-.164-.658a1.458,1.458,0,0,0-.3-.5c-.049-.049-.265.034-.383.1s-.171.183-.271.257c-.287.211-.695.645-.853.569-.416-.2-1.066-.682-1.02-.947.235-1.359-.928-1.95-1.476-2.8-1.548-2.4-3.418-4.6-4.959-7-1.848-2.883-3.706-5.756-5.644-8.578a5.926,5.926,0,0,1-.657-1.046,7.542,7.542,0,0,0-1.847-3.02c-.781-.692-.578-1.795-.516-2.761,0-.069.313-.179.469-.164.215.02.519.083.61.233.207.341.259.78.476,1.112.09.137.442.1.674.148a2.375,2.375,0,0,0,.79.509c.19.042-.02-.055-.24-.122-.037-.012-.114.107-.173.166q.308.264.613.53c.047-.1.094-.2-.2-.574a2.363,2.363,0,0,1-.79-.509c-.112-.523.188-1.069-.236-1.6-.273-.343.209-.262.37-.272.227-.014.317.587.69.126.292-.359.6-.866,1.2-.26.093.1.621-.207.9.2.377.553,1.481.037,1.582.965.089.82.877.721,1.274,1.127.375.383.195.809.251,1.217H208.2a1.043,1.043,0,0,0-.114-.285c-.018-.024-.149.039-.228.062a.7.7,0,0,0,.258.223,1.546,1.546,0,0,1,.369.377l.469-.377c.233.045.54.009.686.146a22.465,22.465,0,0,1,3.483,4.007,8.129,8.129,0,0,0,1.43,1.268c.2.183.37.114.55-.05.4-.367.247-.81.25-1.22.015-2.386-.03-4.773.027-7.158.021-.9-.334-1.859.241-2.718a5.6,5.6,0,0,1-.262-2.433c-.169-4.415.549-8.8.409-13.22-.141-4.454-.031-8.915-.031-13.374.689-2.874.3-5.8.364-8.7.06-2.951-.264-5.935.078-8.846.505-4.292-.087-8.6.393-12.84.33-2.92.115-5.811.307-8.707.051-.769.291-41.525.351-42.294.063-.812-.045-1.637.032-2.446a2.691,2.691,0,0,1,1.064-1.809,2.122,2.122,0,0,1,.635-.233,2.526,2.526,0,0,1,.058.642,10.336,10.336,0,0,0-.252,1.017,8.641,8.641,0,0,0,.106,1.268,7.28,7.28,0,0,0,.909-1.187c.15-.3-.018-.764.128-1.074a1.239,1.239,0,0,1,.765-.654c.485-.073.272.413.345.674a1.594,1.594,0,0,0,.228.377,1.063,1.063,0,0,1,.147-.313c.14-.146.364-.406.46-.37a9.036,9.036,0,0,1,1.569.749c.148.091.15.415.228.629.513,1.422.368,42.9.373,44.365.01,3.077,0,6.154.012,9.231a3.384,3.384,0,0,0,.2.805,4.94,4.94,0,0,0,.157-.874c.013-2.448.008-4.9.008-7.346,0-.314-.014-.629.01-.941.006-.069.141-.135.227-.183.016-.008.115.076.124.127a2.182,2.182,0,0,1,.015.371,93.7,93.7,0,0,0,.079,9.976c.347,3.229.25,6.434.281,9.648.059,6.09.013,12.181.02,18.272a13.708,13.708,0,0,0,.358,4.559c.064.188-.091.452-.145.681-.2-.214-.521-.4-.566-.647a8.346,8.346,0,0,1-.027-1.5V302.86c0-.5.01-1-.009-1.506,0-.092-.125-.179-.192-.267-.059.1-.164.2-.168.3-.017.5-.007,1-.007,1.507v22.228c0,2.951-.01,5.9.009,8.854a9.081,9.081,0,0,0,.209,1.356,11.829,11.829,0,0,0,.151-1.253c.022-1.067-.009-2.135.027-3.2.005-.143.281-.277.431-.415.1.124.28.243.289.373.034.5.014,1,.014,1.506q0,14.223.014,28.445c0,.64-.31,1.376.349,1.91-.95.659.07,1.3.025,1.955a20.436,20.436,0,0,0,0,2.071c0,.056.268.177.3.147a6.145,6.145,0,0,0,1.063-1.063,42.167,42.167,0,0,1,3.446-4.234,26.418,26.418,0,0,0,2.851-3.511,7.687,7.687,0,0,1,1.445-1.475c.306-.287.532-.142.681.388a6.424,6.424,0,0,0,.241.621c.209-.1.477-.153.615-.315.388-.453.7-.967,1.082-1.429a1,1,0,0,1,1.569-.26c.315.228.99.471,1.024-.426,0-.073.183-.205.267-.2.29.034.572.153.862.172a1.561,1.561,0,0,0,.532-.162c.07.27.149.537.209.809.107.479.488.242.929.408.114.037.055-.036-.005-.109l-.168.168a1.656,1.656,0,0,0,.227.167c.014.008.075-.072-.054-.226-.027-.8.522-.541.81-.4.351.173.142.5-.1.736a.266.266,0,0,0,.008.245c.74.363.36,1,.458,1.541.074.413.309.788-.024,1.132a2.141,2.141,0,0,1-1.9.971c-.347-.293.507.178.567-.563,0-.062.028-.153,0-.182-.168-.155-.569-.016-1.153.4a1.523,1.523,0,0,0-.263.263.206.206,0,0,0-.038.124C241.51,360.524,241.616,360.568,242.3,360.429Zm-23.55-50.716V291.628c0-.5.008-1.005-.007-1.507,0-.106-.093-.21-.143-.315-.076.132-.216.263-.217.395-.015,1.758.039,3.518-.024,5.274-.061,1.709-.328,3.412-.346,5.119-.049,4.835-.017,9.671-.017,14.506,0,.691.008,1.381,0,2.072a6.353,6.353,0,0,1-.093,1.848c-.183.55.164,1.088-.218,1.681-.225.35.2,1.109.31,1.687a1.227,1.227,0,0,1-.335,1.146c.536.351.317.9.331,1.367.026.879.007,1.758.007,2.638a10.2,10.2,0,0,1-.049,2.624,3.877,3.877,0,0,0,.09,2.325c.157.469-.724.647-.156,1.068.5.37-.474.709,0,1.215a1.473,1.473,0,0,1,.07,1.411c-.522.765-.278,1.549-.326,2.321-.046.751-.01,1.507-.01,2.26v2.073a6.678,6.678,0,0,1-.052,2.24c-.281.737.215,1.309.068,1.972-.1.456.123.992-.373,1.339.546.341.373.893.343,1.359-.055.833.315,1.735-.353,2.49a.348.348,0,0,0,.061.331c.487.26-.358.885.306,1.077-.046.526.189,1.118-.354,1.53.546.341.345.889.347,1.36.014,3.2.009,6.4.005,9.607a3.166,3.166,0,0,1-.316,1.57c-.184.353.184,1,.324,1.508a2.053,2.053,0,0,0,.217.407c.051-.105.144-.208.147-.313.015-.565.007-1.131.007-1.7,0-.5-.205-1.237.044-1.457.48-.424-.132-.89.287-1.322.251-.259.046-.96.046-1.462v-1.7q0-12.244,0-24.49c0-.559.026-1.118.04-1.678.939-.3-.431-1.1.312-1.442a5.015,5.015,0,0,1-.27-3.773,21.86,21.86,0,0,0,.28-4.383C218.77,320.514,218.75,315.113,218.75,309.713Zm4.522,16.6v16.19c0,.439-.008.879.011,1.317,0,.053.152.112.242.14.025.008.114-.08.118-.128.014-.187.006-.376.006-.564V309.762a3.2,3.2,0,0,0-.012-.563c-.011-.062-.151-.113-.242-.141-.025-.008-.116.081-.117.128-.01.376-.006.753-.006,1.129Zm1.884,30.918v-9.972c0-.377.01-.754-.011-1.129,0-.056-.15-.116-.239-.148-.025-.008-.12.081-.121.127-.009.439-.006.878-.006,1.317v19.192c0,.376-.019.754.012,1.127.01.121.153.23.236.345a1,1,0,0,0,.124-.323Q225.16,362.5,225.156,357.234Zm-1.47-11.255-.166-1.132c-.489.343-.2.846-.231,1.27a6.905,6.905,0,0,0,.112,1.249C223.891,347.023,223.529,346.513,223.686,345.979Zm1.093-1.571c.081.358-.205.8.25,1.072.043-.354.092-.706.124-1.061a2.1,2.1,0,0,0-.008-.554c-.011-.061-.151-.111-.241-.139-.027-.008-.115.078-.119.126C224.771,344.036,224.779,344.222,224.779,344.408ZM205.5,357.443c-.039-.06-.121-.215-.138-.208a1.422,1.422,0,0,0-.536.289c-.05.054.1.294.166.45Zm13.194,19.284c-.483-.2-.638-.306-.68-.273a3.066,3.066,0,0,0-.394.439c.1.063.22.2.3.176A5.516,5.516,0,0,0,218.693,376.727Zm5.932-39.529c-.1.148-.219.25-.21.337a1.914,1.914,0,0,0,.176.469c.063-.1.179-.192.176-.285A2.253,2.253,0,0,0,224.625,337.2Zm.517,4.5c-.086-.138-.142-.29-.186-.287a2.7,2.7,0,0,0-.494.116c.047.082.091.232.143.235A2.866,2.866,0,0,0,225.142,341.7Zm-.063,1.57a2.88,2.88,0,0,0,.065-.538c0-.051-.153-.1-.236-.142a2.7,2.7,0,0,0-.116.494C224.789,343.124,224.941,343.179,225.079,343.266Zm-1.4,15.418-.219-.33a1.909,1.909,0,0,0-.175.469c-.01.088.113.189.175.285Zm0,4.992-.219-.423c-.062.1-.185.2-.175.285a1.966,1.966,0,0,0,.175.469Zm-.219-12.1c-.041.042-.124.093-.117.124a1.2,1.2,0,0,0,.117.253c.042-.042.125-.093.118-.124A1.135,1.135,0,0,0,223.46,351.571Zm.189,4.71c-.042-.042-.093-.124-.124-.117a1.132,1.132,0,0,0-.253.117c.042.042.093.125.124.118A1.182,1.182,0,0,0,223.649,356.281Zm-21.615,3.526.135-.134a1.206,1.206,0,0,0-.253-.118c-.031-.007-.082.076-.124.118Zm21.292,5.95.134.134a1.182,1.182,0,0,0,.118-.253c.007-.031-.076-.082-.118-.124Zm-2.826,4.225.134-.134a1.182,1.182,0,0,0-.253-.118c-.031-.007-.082.076-.124.118Zm12.247,1.051.135.134a1.177,1.177,0,0,0,.117-.253c.007-.031-.076-.082-.117-.124Z" fill="#3d466e"/></g><g transform="translate(-16 248)"><path d="M154.816,262c.293-1.948.238-3.8,1.326-5.518,2.169-3.424,5.261-2.575,8.252-1.067,3.038,1.528,5.9,2.446,9.2,1.017,5.2-2.253,7.512-9.957,2.666-13.677-1.569-1.208-3.188.781-2.954,2.271.329,2.1,1.351,4.412-.445,6.215-2.407,2.414-5.229.393-7.63-.69a9.937,9.937,0,0,0-8-.354c-4.6,1.853-7.938,8.084-4.287,12.3a1.125,1.125,0,0,0,1.869-.493Z" transform="translate(1176.599 2716.685)" fill="#6e3281"/><g transform="translate(1237.583 2969.238)"><path d="M158.27,217.762c.488,3.161,3.765,9.823,7.221,10.745,1.832.486,3.195-.722,4.619-1.7,2.593-1.787,5.157-3.617,7.72-5.443a2.226,2.226,0,0,0,.786-2.993q-3.406-5.242-6.81-10.479a2.211,2.211,0,0,0-2.993-.786,90.989,90.989,0,0,0-8.458,6.188c-1.769,1.59.49,4.294,2.477,3.209a86.841,86.841,0,0,0,8.191-5.618l-2.993-.786,6.808,10.479.786-2.993c-1.54,1.1-3.084,2.187-4.619,3.29-.77.552-3.919,3.424-4.755,3.238-.992-.223-2.593-3.084-3.22-3.828a17.654,17.654,0,0,0-3.517-3.477c-.677-.463-1.344.3-1.242.954Z" transform="translate(-158.259 -196.787)" fill="#edc483"/></g><g transform="translate(1257.378 3011.448)"><path d="M169.361,246.551a113.426,113.426,0,0,0,2.809-19.406c.089-2-3.168-2.5-3.542-.479a113.171,113.171,0,0,0-1.651,19.562,1.219,1.219,0,0,0,2.384.322Z" transform="translate(-166.977 -215.376)" fill="#e8947e"/><path d="M154.816,262c.293-1.948.238-3.8,1.326-5.518,2.169-3.424,5.261-2.575,8.252-1.067,3.038,1.528,5.9,2.446,9.2,1.017,5.2-2.253,7.512-9.957,2.666-13.677-1.569-1.208-3.188.781-2.954,2.271.329,2.1,1.351,4.412-.445,6.215-2.407,2.414-5.229.393-7.63-.69a9.937,9.937,0,0,0-8-.354c-4.6,1.853-7.938,8.084-4.287,12.3a1.125,1.125,0,0,0,1.869-.493Z" transform="matrix(0.035, -0.999, 0.999, 0.035, -201.205, 326.668)" fill="#6e3281"/></g><g transform="translate(1276.057 2948.235)"><path d="M175.8,199.8a109.432,109.432,0,0,0,17.909,7.961c1.926.62,3.231-2.373,1.392-3.3a109.567,109.567,0,0,0-18.368-6.883,1.219,1.219,0,0,0-.933,2.218Z" transform="translate(-175.203 -187.538)" fill="#e3707f"/><g transform="translate(151.322 117.482)"><path d="M197.765,217.427c-3.567,3.429-4.925,8.76-1.521,12.877a9.986,9.986,0,0,0,13.406,1.608c9.66-7.457-.411-21.215-10.836-18.366a1.732,1.732,0,0,0,.459,3.386c3.05.175,6.31.291,8.747,2.427a6.337,6.337,0,0,1,.527,8.813c-5.684,6.987-15.552-3.3-9.585-9.548a.847.847,0,0,0-1.2-1.2Z" transform="matrix(-0.899, -0.438, 0.438, -0.899, 94.945, 300.571)" fill="#8aa9fc"/><path d="M197.765,217.427c-3.567,3.429-4.925,8.76-1.521,12.877a9.986,9.986,0,0,0,13.406,1.608c9.66-7.457-.411-21.215-10.836-18.366a1.732,1.732,0,0,0,.459,3.386c3.05.175,6.31.291,8.747,2.427a6.337,6.337,0,0,1,.527,8.813c-5.684,6.987-15.552-3.3-9.585-9.548a.847.847,0,0,0-1.2-1.2Z" transform="matrix(0.788, -0.616, 0.616, 0.788, -468.642, -10.245)" fill="#8aa9fc"/></g><path d="M182.108,240.891c-1.231,6.39-2.282,12.791-3.259,19.226a1.96,1.96,0,0,0,2.366,2.366c6.04-.879,12.067-1.689,18.027-3.009a1.8,1.8,0,0,0,1.07-2.625c-3.381-5.949-7.682-14.233-14.042-17.478-1.608-.822-3.89.956-2.686,2.686,1.894,2.723,4.694,4.764,6.894,7.257a51.052,51.052,0,0,1,6.746,9.339l1.544-2.691c-6.247.618-12.394,1.739-18.574,2.811l2.434,1.853c.743-6.467,1.408-12.92,1.894-19.41a1.234,1.234,0,0,0-2.414-.327Z" transform="translate(-62.611 -32.641)" fill="#e3707f"/><path d="M198.816,235.826a113.054,113.054,0,0,0,19.519,1.283,1.805,1.805,0,0,0,0-3.608,111.056,111.056,0,0,0-19.2-.057c-1.263.091-1.764,2.18-.322,2.382Z" transform="translate(-38.311 -70.403)" fill="#edc483"/><g transform="translate(120.27 134.885)"><g transform="translate(0 -120)"><path d="M187.122,222.159l-.327-.288a3.645,3.645,0,0,0-5.155,5.155l.288.327a3.672,3.672,0,0,0,5.193-5.193Z" transform="translate(-180.607 -200.827)" fill="#251a51"/></g></g><path d="M182.108,240.891c-1.231,6.39-2.282,12.791-3.259,19.226a1.96,1.96,0,0,0,2.366,2.366c6.04-.879,12.067-1.689,18.027-3.009a1.8,1.8,0,0,0,1.07-2.625c-3.381-5.949-7.682-14.233-14.042-17.478-1.608-.822-3.89.956-2.686,2.686,1.894,2.723,4.694,4.764,6.894,7.257a51.052,51.052,0,0,1,6.746,9.339l1.544-2.691c-6.247.618-12.394,1.739-18.574,2.811l2.434,1.853c.743-6.467,1.408-12.92,1.894-19.41a1.234,1.234,0,0,0-2.414-.327Z" transform="matrix(0.035, -0.999, 0.999, 0.035, -88.523, 242.723)" fill="#e3707f"/></g></g><g transform="translate(873.556 3137.9) rotate(-73)"><path d="M24.4,52.616c.027-.269.251-.611-.212-.761-1.786-.581-13.091-.014-10.707,1.494a44.772,44.772,0,0,0,6.385,3.215,42.237,42.237,0,0,0,5.051,1.89c1.467.414,2.991.712,4.5,1.014,2.478.495,4.933.177,7.392.3a27.93,27.93,0,0,0,5.346-.688,31.212,31.212,0,0,0,10.307-4.236A35.438,35.438,0,0,0,56.21,51.6a19.992,19.992,0,0,0,3.825-4.26c1.267-2.07,2.773-3.971,4.031-6.042,1.011-1.664,2.145-3.254,3.193-4.9a28.673,28.673,0,0,1,1.673-2.892c1.429-1.762,2.547-3.746,4.011-5.508a58.783,58.783,0,0,1,4.73-4.977,24.906,24.906,0,0,1,7.041-4.8,28.193,28.193,0,0,1,5.84-1.846,40.934,40.934,0,0,1,6.262-.3,14.929,14.929,0,0,1,2.821.014,31.866,31.866,0,0,1,5.975,1.021c.731.248,1.507.035,2.283.41s1.791.19,2.631.465c.775.253,1.672.128,2.336.719,2.133-.116,4.077.818,6.1,1.228a21.605,21.605,0,0,1,5.611,1.411,11.111,11.111,0,0,1,4.011.788c2.381.636,4.795,1.154,7.19,1.693,2.3.518,4.512,1.366,6.857,1.676a3.316,3.316,0,0,1,.789.362c.159.069.33.111.5.166-.161.177-.3.471-.486.514-1.859.418-3.362,1.59-5.065,2.332-3.463,1.512-6.87,3.14-10.207,4.913a31.95,31.95,0,0,0-3.313,1.988,1.785,1.785,0,0,0-.744,1.278,3.807,3.807,0,0,0,.759,1.546c.059.1.356.018.516.085.461.194.78-.372,1.27-.182a4.142,4.142,0,0,0,1.246.171,8.889,8.889,0,0,0,3.267-.749c2.316-.766,4.471-1.945,6.813-2.653a8.355,8.355,0,0,0,1.388-.738c1.336-.708,2.765-1.217,4.142-1.826a17.53,17.53,0,0,1,4.043-1.62c.431-.074.8-.471,1.211-.7,1.783-.983,3.816-1.438,5.514-2.6.34-.233.7-.435,1.04-.67a.845.845,0,0,0,.221-1.148,20.321,20.321,0,0,1-.654-2.93,2.738,2.738,0,0,1,.039-.839c-.059-.062-.142.106-.225.274a1.287,1.287,0,0,1-.185-.449,2.987,2.987,0,0,1,.145-.651,1.979,1.979,0,0,1,.265.826,1.962,1.962,0,0,0,.324.764,4.307,4.307,0,0,1,.218.618c.055-.228.2-.48.15-.68-.265-1.014-.561-2.023-.886-3.02-1.278-3.923-2.748-7.779-4.061-11.692-.581-1.732-.973-3.621-2.188-5.114-.1-1.217-1.458-1.174-1.974-1.974-.1.075-.259.134-.283.229-.046.176.013.378-.019.56-.057.317-.151.627-.23.94-.047-.294,0-.657-.16-.869a6.026,6.026,0,0,0-1.186-1.2,1.2,1.2,0,0,0-.865-.113c-.1.021-.131.418-.191.644-.03.113-.054.228-.081.343a1.592,1.592,0,0,1-.292-.23c-.223-.281-.4-.6-.645-.859-.667-.721-.93-.718-1.7-.04a.594.594,0,0,0-.207.783c.365.917.645,1.869.936,2.813.019.062-.145.228-.251.264a.34.34,0,0,1-.313-.107,14.6,14.6,0,0,1-.8-2.3A1.142,1.142,0,0,0,139.5,1c-.325-.123-1.181.726-1.2,1.2a8.368,8.368,0,0,0,.439,3.58c1.024,2.525,2,5.07,3.045,7.588s2.225,4.98,3.084,7.573a6.191,6.191,0,0,1,.141.641,3.25,3.25,0,0,0-.546-.247,71.9,71.9,0,0,1-7.557-2.208,26.37,26.37,0,0,0-2.692-.761c-.86-.213-1.685-.479-2.525-.724a23.066,23.066,0,0,0-2.685-.768c-2-.317-3.781-1.238-5.714-1.709-2.1-.512-4.161-1.163-6.24-1.747-1.238-.348-2.468-.728-3.72-1.017-1.44-.334-2.915-.52-4.344-.891a21.062,21.062,0,0,1-2.919-.671c-.741-.3-1.7.146-2.455-.437-1.367.277-2.647-.342-3.986-.391a9.885,9.885,0,0,1-3.635-.3,2.161,2.161,0,0,0-1.949.2c-.448.288-1.206.105-1.825.111-1,.011-2.008,0-3.012,0-.736.866-1.975-.136-2.71.732-3.96.288-7.4,2.1-10.845,3.816a25.064,25.064,0,0,0-6.325,4.293,17.176,17.176,0,0,1-1.7,1.337c-.5.375-.582,1.163-1.306,1.311-1.3,1.873-2.851,3.555-4.183,5.413-1.416,1.974-2.571,4.1-3.92,6.111-.678,1.011-1.156,2.155-1.75,3.224-2.021,3.637-4.007,7.3-6.378,10.722a18.727,18.727,0,0,1-7.115,6.589,29.075,29.075,0,0,1-3.013.912,14.161,14.161,0,0,1-5.676.338,24.125,24.125,0,0,1-4.135-.887c-.741-.174-1.474-.381-2.21-.574a2.572,2.572,0,0,1-.84-.234,4.069,4.069,0,0,0-2.7-.519h.084a1.043,1.043,0,0,1-.114.285c-.018.024-.149-.039-.228-.062A.7.7,0,0,1,24.4,52.616ZM151.334,12.823a4.771,4.771,0,0,1-.223-.557,1.57,1.57,0,0,1-.005-.35c.125.087.32.151.358.266.043.132-.054.309-.284-.605l-.25.339c-.067-.086-.193-.176-.189-.259a1.881,1.881,0,0,1,.144-.462C150.972,11.308,151.059,11.421,151.334,12.823Zm1.656,3.992c.726.177.233.76.377,1.131.726.177.233.759.377,1.13.726.177.233.76.605,2.037a4.709,4.709,0,0,1-.223-.556,1.57,1.57,0,0,1-.006-.35c.126.087.321.15.359.266.043.131-.054.309-.359-.266-.726-.177-.233-.76-.376-1.131-.727-.176-.234-.759-.377-1.13-.726-.177-.234-.76-.3-1.47l-.25.339c-.067-.086-.193-.176-.188-.259a1.837,1.837,0,0,1,.143-.462A1.142,1.142,0,0,1,152.99,16.815Zm-9.9-6.1c.122-.266.213-.467.3-.667a2.8,2.8,0,0,0,.179.487c.091.154.3.264.338.42a17.925,17.925,0,0,0,1.443,3.713,29.5,29.5,0,0,1,1.442,3.708c.408,1.339,1.151,2.523,1.594,3.837a1.764,1.764,0,0,1,.014.505c-.18-.083-.367-.249-.539-.235-.613.051-.432-.388-.547-.715a38.814,38.814,0,0,0-1.908-5.011c-.827-1.6-1.037-3.453-2.1-4.943-.058-.082.221-.362.185-.513A2.02,2.02,0,0,0,143.092,10.715Zm8.99,8.037c-.1-.148-.219-.25-.21-.337a1.913,1.913,0,0,1,.176-.469c.063.1.179.192.176.285A2.254,2.254,0,0,1,152.082,18.752Zm.454-3.806a2.949,2.949,0,0,1,.065.537c0,.052-.153.1-.236.142a2.711,2.711,0,0,1-.116-.493C152.246,15.087,152.4,15.032,152.536,14.946Zm2.016,11.533.134-.242c.042.041.124.092.117.123a1.111,1.111,0,0,1-.117.253Zm-.754-3.015.134-.242c.042.042.125.093.118.124a1.174,1.174,0,0,1-.118.252Zm-.243-.619c-.042-.042-.125-.093-.118-.124a1.181,1.181,0,0,1,.118-.253c.042.042.125.093.118.124A1.182,1.182,0,0,1,153.555,22.845Zm-1.076-3.714.134.134a1.182,1.182,0,0,1-.253.118c-.031.007-.082-.076-.124-.118Zm-.486-4.9.243.134c-.042.042-.093.124-.124.118a1.206,1.206,0,0,1-.253-.118Zm-.268-1.131.134.134a1.16,1.16,0,0,1-.253.118c-.031.007-.082-.076-.124-.118Zm-1.7-3.957.134-.243c.042.042.125.093.118.124a1.156,1.156,0,0,1-.117.253Zm-7.645-2.369-.134.242c-.042-.042-.125-.093-.118-.124a1.2,1.2,0,0,1,.118-.253Z" transform="translate(0 0)" fill="#3d466e"/><path d="M0,.377.313.124,0,0Z" transform="translate(6.773 37.919)" fill="#3d466e"/><path d="M.243,0,0,.134C.042.175.093.258.124.252A1.257,1.257,0,0,0,.377.134Z" transform="translate(155.628 24.407)" fill="#3d466e"/></g><g transform="translate(878.719 3261.829) rotate(-73)"><path d="M30.433,71.035c3.229-.461,19.822-14.707,22.028-16.191A35.438,35.438,0,0,0,56.21,51.6a19.992,19.992,0,0,0,3.825-4.26c1.267-2.07,2.773-3.971,4.031-6.042,1.011-1.664,2.145-3.254,3.193-4.9a28.673,28.673,0,0,1,1.673-2.892c1.429-1.762,2.547-3.746,4.011-5.508a58.783,58.783,0,0,1,4.73-4.977,24.906,24.906,0,0,1,7.041-4.8,28.193,28.193,0,0,1,5.84-1.846,40.934,40.934,0,0,1,6.262-.3,14.929,14.929,0,0,1,2.821.014,31.866,31.866,0,0,1,5.975,1.021c.731.248,1.507.035,2.283.41s2.367-.443,3.207-.168c.775.253,2.173-.3,2.837.29,2.133-.116,2.37-4.265.941-4.636-.964-.249-7.855-1.763-8.811-2.156-.741-.3-1.7.146-2.455-.437-1.367.277-2.647-.342-3.986-.391a9.885,9.885,0,0,1-3.635-.3,2.161,2.161,0,0,0-1.949.2c-.448.288-1.206.105-1.825.111-1,.011-2.008,0-3.012,0-.736.866-1.975-.136-2.71.732-3.96.288-7.4,2.1-10.845,3.816a25.064,25.064,0,0,0-6.325,4.293,17.176,17.176,0,0,1-1.7,1.337c-.5.375-.582,1.163-1.306,1.311-1.3,1.873-2.851,3.555-4.183,5.413-1.416,1.974-2.571,4.1-3.92,6.111-.678,1.011-1.156,2.155-1.75,3.224-2.021,3.637-4.007,7.3-6.378,10.722a18.727,18.727,0,0,1-7.115,6.589c-.981.475-13.246,11.89-14.233,12.248C25.769,68.83,27.384,71.849,30.433,71.035Z" transform="translate(36.044 0.906)" fill="#3d466e"/><path d="M0,.377.313.124,0,0Z" transform="translate(6.773 37.919)" fill="#3d466e"/><path d="M.243,0,0,.134C.042.175.093.258.124.252A1.257,1.257,0,0,0,.377.134Z" transform="translate(155.628 24.407)" fill="#3d466e"/></g></g></svg>