<svg xmlns="http://www.w3.org/2000/svg" width="1049" height="517.218" viewBox="0 0 1049 517.218"><g transform="translate(-325 -2622.675)"><g transform="translate(-417.67 2336.123)"><g transform="translate(742.67 476.64)"><circle cx="43.601" cy="43.601" r="43.601" transform="translate(0 61.661) rotate(-45)" fill="#ffd05d"/><g transform="translate(24.92 24.447)"><path d="M850.939,524.432a43.608,43.608,0,0,1-59.553,60.648,43.6,43.6,0,1,0,59.553-60.648Z" transform="translate(-791.386 -524.432)" fill="#fdc453"/></g><g transform="translate(20.973 21.279)"><path d="M786.683,563.221a40.48,40.48,0,0,1,72.569-24.676A40.484,40.484,0,1,0,792.062,583.4,40.3,40.3,0,0,1,786.683,563.221Z" transform="translate(-783.67 -518.239)" fill="#ffd77f"/></g><g transform="translate(42.385 48.132)"><ellipse cx="3.213" cy="5.415" rx="3.213" ry="5.415" fill="#303030"/><g transform="translate(32.126 0)"><path d="M894.759,576.149c0,2.99-1.438,5.415-3.213,5.415s-3.212-2.425-3.212-5.415,1.438-5.415,3.212-5.415S894.759,573.158,894.759,576.149Z" transform="translate(-888.334 -570.734)" fill="#303030"/></g></g><g transform="translate(41.975 36.256)"><rect width="4.135" height="13.796" transform="translate(0 2.924) rotate(-45)" fill="#303030"/><rect width="4.135" height="13.796" transform="translate(36.449 0) rotate(45)" fill="#303030"/></g></g><g transform="translate(788.268 541.17)"><path d="M863.936,619.875c-.931-9.629-7.79-17.1-16.1-17.083S832.7,610.31,831.81,619.944Z" transform="translate(-831.81 -602.792)" fill="#695342"/><path d="M831.81,630.544s13.524-13.57,32.126-.07Z" transform="translate(-831.81 -613.392)" fill="#f06669"/></g></g><g transform="translate(180.152 2123.282)"><g transform="translate(993.848 499.393)"><circle cx="53.999" cy="53.999" r="53.999" transform="translate(0 106.603) rotate(-80.783)" fill="#f16d24"/><g transform="translate(16.448 15.863)"><path d="M1093.565,524.432a54.007,54.007,0,0,1-73.755,75.111,54,54,0,1,0,73.755-75.111Z" transform="translate(-1019.81 -524.432)" fill="#ef6421"/></g><g transform="translate(11.56 11.939)"><path d="M1015.826,573.948a50.134,50.134,0,0,1,89.876-30.561,50.138,50.138,0,1,0-83.214,55.549A49.9,49.9,0,0,1,1015.826,573.948Z" transform="translate(-1012.095 -518.239)" fill="#f2824e"/></g></g><g transform="translate(1031.927 544.589)"><g transform="translate(0 0)"><ellipse cx="3.979" cy="6.706" rx="3.979" ry="6.706" fill="#303030"/><g transform="translate(39.788 0)"><path d="M1124.716,577.44c0,3.7-1.781,6.706-3.979,6.706s-3.979-3-3.979-6.706,1.781-6.706,3.979-6.706S1124.716,573.736,1124.716,577.44Z" transform="translate(-1116.758 -570.734)" fill="#303030"/></g></g></g><path d="M1099.208,624.1a1.782,1.782,0,0,0,2.9-1.944,27.067,27.067,0,0,0-50.056-.5,1.78,1.78,0,0,0,2.877,1.965C1062.832,615.96,1079.608,605.058,1099.208,624.1Z" transform="translate(-21.276 -38.755)" fill="#5e4939"/><g transform="translate(1031.418 529.881)"><rect width="5.121" height="17.086" transform="translate(0 3.621) rotate(-45)" fill="#303030"/><rect width="5.121" height="17.086" transform="translate(45.142 0) rotate(45)" fill="#303030"/></g></g><g transform="translate(22.35 2320.314)"><g transform="translate(1199.519 476.64)"><g transform="translate(0)"><circle cx="53.786" cy="53.786" r="53.786" transform="translate(0 76.065) rotate(-45)" fill="#ffd05d"/><g transform="translate(30.741 30.158)"><path d="M1321.7,524.432a53.795,53.795,0,0,1-73.465,74.816,53.791,53.791,0,1,0,73.465-74.816Z" transform="translate(-1248.235 -524.432)" fill="#fdc453"/></g><g transform="translate(25.872 26.25)"><path d="M1244.236,573.728a49.936,49.936,0,0,1,89.522-30.441,49.941,49.941,0,1,0-82.887,55.33A49.714,49.714,0,0,1,1244.236,573.728Z" transform="translate(-1240.519 -518.239)" fill="#ffd77f"/></g></g></g><g transform="translate(1237.287 525.448)"><g transform="translate(0 3.292)"><circle cx="12.331" cy="12.331" r="12.331" transform="translate(0 24.344) rotate(-80.783)" fill="#fff"/><path d="M1286.4,565.627a12.29,12.29,0,0,0-14.876-1.844,3.055,3.055,0,0,0-.666,1.595c-.241,2.572,3.078,4.987,7.414,5.393s8.046-1.35,8.287-3.922A2.914,2.914,0,0,0,1286.4,565.627Z" transform="translate(-1263.604 -560.265)" fill="#303030"/></g><g transform="translate(45.009 0)"><circle cx="12.331" cy="12.331" r="12.331" transform="translate(0 17.439) rotate(-45)" fill="#fff"/><path d="M1362.942,565.627a12.29,12.29,0,0,0-14.876-1.844,3.056,3.056,0,0,0-.666,1.595c-.242,2.572,3.078,4.987,7.414,5.393s8.046-1.35,8.287-3.922A2.936,2.936,0,0,0,1362.942,565.627Z" transform="translate(-1336.855 -556.974)" fill="#303030"/></g></g><path d="M1328.155,613.127a21.659,21.659,0,0,0-10.165-5.409,27.454,27.454,0,0,0-11.6-.212,29.053,29.053,0,0,0-10.652,4.417,25.235,25.235,0,0,0-7.824,8.225,1.262,1.262,0,0,0,1.653,1.759l1.178-.582c2.77-1.37,5.386-2.665,8.041-3.7a50.416,50.416,0,0,1,9.039-2.684,44.515,44.515,0,0,1,9.315-.8,58.356,58.356,0,0,1,9.9,1.126,1.262,1.262,0,0,0,1.117-2.139Z" transform="translate(-32.554 -48.095)" fill="#5e4939"/></g><g transform="translate(-25.65 2947.087)"><g transform="translate(1199.519 40.676)"><circle cx="53.786" cy="53.786" r="53.786" transform="translate(0 76.065) rotate(-45)" fill="#ffd05d"/><g transform="translate(30.741 30.159)"><path d="M1321.7,88.469a53.795,53.795,0,0,1-73.465,74.815A53.791,53.791,0,1,0,1321.7,88.469Z" transform="translate(-1248.235 -88.469)" fill="#fdc453"/></g><g transform="translate(25.872 26.251)"><path d="M1244.236,137.765a49.936,49.936,0,0,1,89.522-30.441,49.941,49.941,0,1,0-82.887,55.33A49.709,49.709,0,0,1,1244.236,137.765Z" transform="translate(-1240.519 -82.276)" fill="#ffd77f"/></g></g><path d="M1283.354,169.7a1.775,1.775,0,0,0-2.888,1.936,26.961,26.961,0,0,0,49.859.495,1.773,1.773,0,0,0-2.865-1.957C1319.588,177.8,1302.877,188.665,1283.354,169.7Z" transform="translate(-29.816 -47.414)" fill="#5e4939"/><g transform="translate(1243.141 102.77)"><path d="M1342,141.282a9.966,9.966,0,0,0,18.429.183,1.6,1.6,0,0,0-2.59-1.773c-2.984,2.894-7.7,5.217-13.234-.156a1.6,1.6,0,0,0-2.605,1.746Z" transform="translate(-1295.668 -139.077)" fill="#303030"/><path d="M1268.766,141.282a9.965,9.965,0,0,0,18.428.183,1.6,1.6,0,0,0-2.59-1.773c-2.984,2.894-7.7,5.217-13.232-.156a1.6,1.6,0,0,0-2.606,1.746Z" transform="translate(-1268.648 -139.077)" fill="#303030"/></g></g><g transform="translate(68 476)"><circle cx="15" cy="15" r="15" transform="translate(350 2386)" fill="#f98091"/><text transform="translate(359 2408)" fill="#fff" font-size="20" font-family="Lato-Regular, Lato"><tspan x="0" y="0">1</tspan></text></g><g transform="translate(0 550)"><circle cx="93" cy="93" r="93" transform="translate(872 2234)" fill="#fff"/><path d="M-1901.752-253.436a84.554,84.554,0,0,1-12.118-12.85,84.048,84.048,0,0,1-9.218-15.2,83.451,83.451,0,0,1-5.859-17.086A84.393,84.393,0,0,1-1931-317.1a84.521,84.521,0,0,1,1.7-16.909,83.5,83.5,0,0,1,4.889-15.75,83.924,83.924,0,0,1,7.736-14.252,84.51,84.51,0,0,1,10.245-12.417,84.5,84.5,0,0,1,12.417-10.245,83.917,83.917,0,0,1,14.252-7.736,83.48,83.48,0,0,1,15.749-4.889A84.523,84.523,0,0,1-1847.1-401a84.4,84.4,0,0,1,18.528,2.052,83.451,83.451,0,0,1,17.086,5.859,84.039,84.039,0,0,1,15.2,9.217,84.537,84.537,0,0,1,12.859,12.128,83.6,83.6,0,0,0-25-14.847,83.584,83.584,0,0,0-29.645-5.388,84.524,84.524,0,0,0-16.91,1.7,83.481,83.481,0,0,0-15.75,4.889,83.91,83.91,0,0,0-14.252,7.736A84.5,84.5,0,0,0-1897.4-367.4a84.515,84.515,0,0,0-10.245,12.417,83.908,83.908,0,0,0-7.736,14.252,83.47,83.47,0,0,0-4.889,15.749,84.52,84.52,0,0,0-1.7,16.909,83.581,83.581,0,0,0,5.388,29.646,83.607,83.607,0,0,0,14.839,24.992Z" transform="translate(2811 2640)" fill="#e8f0ff" opacity="0.428"/><text transform="translate(903 2314)" fill="#3d466e" font-size="20" font-family="Lato-Regular, Lato"><tspan x="0" y="20">Return Process</tspan></text><g transform="translate(510 -73)"><circle cx="15" cy="15" r="15" transform="translate(350 2386)" fill="#f98091"/><text transform="translate(359 2408)" fill="#fff" font-size="20" font-family="Lato-Regular, Lato"><tspan x="0" y="0">2</tspan></text></g><g transform="translate(693 -73)"><circle cx="15" cy="15" r="15" transform="translate(350 2386)" fill="#f98091"/><text transform="translate(359 2408)" fill="#fff" font-size="20" font-family="Lato-Regular, Lato"><tspan x="0" y="0">3</tspan></text></g></g><g transform="translate(615.525 2414.415)"><path d="M237.592,465a2.568,2.568,0,0,1-.669,1.6q-2.045,3.015-4.121,6.009c-1.186,1.708-2.333,3.448-3.619,5.078a4.816,4.816,0,0,1-1.919,1.681c-.409.166-.554.253-.827-.082-.391-.481-.552-.356-.542.221,0,.06-.18.136-.286.185-1.006.457-2.239.43-2.985,1.484-.119.168-.814.137-1.049-.048-.2-.161-.147-.668-.18-1.025a.437.437,0,0,1,.108-.324.857.857,0,0,0,.13-1.159c-.266.228-.537.451-.795.687a.56.56,0,0,0-.2.291.828.828,0,0,1-.807.834c-.366.017-1-.889-1.094-1.331a2.588,2.588,0,0,1,.452-1.884,12.419,12.419,0,0,1,1.578-1.982c2.113-2.27,4.251-4.515,6.381-6.769a4.415,4.415,0,0,0,.521-.54.808.808,0,0,0,.083-.5c-.007-.066-.187-.152-.293-.16a9.13,9.13,0,0,1-.938-.017c-.529-.09-1.04.93-1.567.02-.537.659-1.272.3-1.92.356-.623.051-1.253.01-1.881.01h-6.022c-.627,0-1.255-.02-1.881.006-.65.027-1.258-.149-1.954-.067-2.262.267-4.5-.49-6.8-.37-.733.039-1.442-.689-2.261-.857-.19-.039-.388-.461-.429-.73a1.879,1.879,0,0,1,1.8-2.113,32.417,32.417,0,0,1,3.794-.373c1.465-.047,2.867-.548,4.362-.421a15.158,15.158,0,0,0,4.314-.031,28.108,28.108,0,0,1,5.314-.312c1.756-.035,3.513-.007,5.269-.007a5.04,5.04,0,0,0,.937-.022c.093-.018.234-.392.185-.443-.626-.653-1.108-1.3-.372-2.189.034-.04-.1-.3-.125-.295-.21.029-.589.1-.591.161-.028.765-.4.515-.568.148-.678-1.531-1.832-2.762-2.617-4.193a13.114,13.114,0,0,1-1.65-3.447c-.092-.428-.435-1.007.459-1.074.04,0-.06-.719.2-1.059a1.153,1.153,0,0,0,.118-.325c.088.1.156.245.267.3.488.235.024,1.213.9,1.149.008,0,.091.292.039.341a2.227,2.227,0,0,1-.493.277,2.872,2.872,0,0,0,.7.1.477.477,0,0,0,.343-.3c.045-.372-.011-.754.026-1.127a4.606,4.606,0,0,1,.213-.782c.177.177.494.346.505.534.034.587.082.516.584.27.392-.192,1.015-1.024,1.518-.069.233.445,1.191.179.979,1.093-.053.225.4.557.6.855.277.415.467.164.668-.068-.032.533.785.716.512,1.406-.2.5-.084.568.305.4.161-.067.315-.316.428-.29a1.072,1.072,0,0,1,.441.367c-.345.474-.212.623.308.9.5.269.821.882,1.295,1.478-.123-.029-.189-.127-.25-.125a3.059,3.059,0,0,0-.487.088c.022.082.044.237.065.237a1.169,1.169,0,0,0,.672-.2c.176.226.411.6.684.94.225.281.566.487.732.794.228.422.793.9.028,1.385-.038.025.091.315.142.481.2-.071.568-.13.574-.214.057-.84.366-.366.589-.116a.7.7,0,0,1,.179.479c-.1.76.16,1.143.977,1.058a1.112,1.112,0,0,1,.152.473c.007.058-.139.132-.215.2-.217-.317-.453-.363-.658-.006a1.753,1.753,0,0,0-.23.65,1.356,1.356,0,0,0,.143.5,1.677,1.677,0,0,0,.213-.411c.1-.481.473-.288.743-.3.5-.03.385.364.391.647.011.562-.016,1.127.02,1.687C237.239,464.811,237.467,464.9,237.592,465Zm-5.067-2.638h.168a1.049,1.049,0,0,0-.114-.286c-.018-.023-.149.039-.228.062a.585.585,0,0,0,.342.224,3.63,3.63,0,0,0,.718.734c.283.161.648-.653.989.008.178-.177.5-.358.5-.531a6.369,6.369,0,0,1-.094-1.872,4.593,4.593,0,0,0-.223.557,1.57,1.57,0,0,0-.006.35c.126-.087.321-.15.359-.266s-.054-.309-.359.266a5.236,5.236,0,0,1-.381.457.806.806,0,0,1-.3.164C233.411,461.532,233.1,462.387,232.525,462.364Zm-2.651-2.652c-.072.112-.208.245-.182.3a1.6,1.6,0,0,0,.368.458c.021.018.206-.15.315-.232Zm-3.887-7.722-.206-.495c-.082.108-.2.206-.235.327-.023.086.073.2.116.307Zm4.291,5.045c-.1.148-.219.25-.21.337a1.921,1.921,0,0,0,.176.47c.062-.1.179-.193.176-.286A2.253,2.253,0,0,0,230.278,457.035Zm.454,3.836c-.138.086-.29.141-.287.186a2.71,2.71,0,0,0,.116.493c.082-.047.232-.09.235-.142A2.854,2.854,0,0,0,230.732,460.871Zm.883,1.339c-.148-.1-.249-.22-.337-.21a1.871,1.871,0,0,0-.469.175c.1.063.192.179.285.177A2.29,2.29,0,0,0,231.615,462.21Zm-3.067-6.441c-.042-.042-.093-.125-.124-.118a1.181,1.181,0,0,0-.253.118c.042.042.093.125.124.118A1.182,1.182,0,0,0,228.548,455.769Zm2.826.942c-.042.042-.125.093-.118.124a1.183,1.183,0,0,0,.118.253c.042-.042.125-.093.118-.124A1.182,1.182,0,0,0,231.374,456.711Zm-3.337,1.562-.243.134c.042.042.093.125.124.118a1.182,1.182,0,0,0,.253-.118Zm5.787.887c-.042-.041-.093-.124-.124-.117a1.177,1.177,0,0,0-.253.117c.042.042.093.125.124.118A1.158,1.158,0,0,0,233.824,459.16Zm-1.374,2.019.243-.134c-.042-.042-.093-.125-.124-.118a1.2,1.2,0,0,0-.253.118Z" fill="#3d466e"/><path d="M142.252,465.755c-2.636,0-5.276-.083-7.906.034a11.929,11.929,0,0,1-3.823-.819c-1.1-.307-1.331-1.307-.708-2.3.355-.566,1.088-.574,1.536-.619,1.45-.147,2.9-.371,4.348-.523,2.467-.259,4.959-.012,7.371-.376a48.866,48.866,0,0,1,5.882-.284,47.869,47.869,0,0,1,5.832.033,9.793,9.793,0,0,1,3.9,1.021c.874.474.443,1.022.472,1.5.015.258-.482.763-.775.785a4.662,4.662,0,0,0-2.991,1.006,1.227,1.227,0,0,1-.68.158c-1.831.134-3.66.3-5.493.368s-3.64.013-5.46.013Z" fill="#3d466e"/><path d="M142.252,465.755c-2.636,0-5.276-.083-7.906.034a11.929,11.929,0,0,1-3.823-.819c-1.1-.307-1.331-1.307-.708-2.3.355-.566,1.088-.574,1.536-.619,1.45-.147,2.9-.371,4.348-.523,2.467-.259,4.959-.012,7.371-.376a48.866,48.866,0,0,1,5.882-.284,47.869,47.869,0,0,1,5.832.033,9.793,9.793,0,0,1,3.9,1.021c.874.474.443,1.022.472,1.5.015.258-.482.763-.775.785a4.662,4.662,0,0,0-2.991,1.006,1.227,1.227,0,0,1-.68.158c-1.831.134-3.66.3-5.493.368s-3.64.013-5.46.013Z" transform="translate(-148)" fill="#3d466e"/><path d="M142.252,465.755c-2.636,0-5.276-.083-7.906.034a11.929,11.929,0,0,1-3.823-.819c-1.1-.307-1.331-1.307-.708-2.3.355-.566,1.088-.574,1.536-.619,1.45-.147,2.9-.371,4.348-.523,2.467-.259,4.959-.012,7.371-.376a48.866,48.866,0,0,1,5.882-.284,47.869,47.869,0,0,1,5.832.033,9.793,9.793,0,0,1,3.9,1.021c.874.474.443,1.022.472,1.5.015.258-.482.763-.775.785a4.662,4.662,0,0,0-2.991,1.006,1.227,1.227,0,0,1-.68.158c-1.831.134-3.66.3-5.493.368s-3.64.013-5.46.013Z" transform="translate(-259)" fill="#3d466e"/><path d="M142.252,465.755c-2.636,0-5.276-.083-7.906.034a11.929,11.929,0,0,1-3.823-.819c-1.1-.307-1.331-1.307-.708-2.3.355-.566,1.088-.574,1.536-.619,1.45-.147,2.9-.371,4.348-.523,2.467-.259,4.959-.012,7.371-.376a48.866,48.866,0,0,1,5.882-.284,47.869,47.869,0,0,1,5.832.033,9.793,9.793,0,0,1,3.9,1.021c.874.474.443,1.022.472,1.5.015.258-.482.763-.775.785a4.662,4.662,0,0,0-2.991,1.006,1.227,1.227,0,0,1-.68.158c-1.831.134-3.66.3-5.493.368s-3.64.013-5.46.013Z" transform="translate(-37)" fill="#3d466e"/><path d="M142.252,465.755c-2.636,0-5.276-.083-7.906.034a11.929,11.929,0,0,1-3.823-.819c-1.1-.307-1.331-1.307-.708-2.3.355-.566,1.088-.574,1.536-.619,1.45-.147,2.9-.371,4.348-.523,2.467-.259,4.959-.012,7.371-.376a48.866,48.866,0,0,1,5.882-.284,47.869,47.869,0,0,1,5.832.033,9.793,9.793,0,0,1,3.9,1.021c.874.474.443,1.022.472,1.5.015.258-.482.763-.775.785a4.662,4.662,0,0,0-2.991,1.006,1.227,1.227,0,0,1-.68.158c-1.831.134-3.66.3-5.493.368s-3.64.013-5.46.013Z" transform="translate(-185)" fill="#3d466e"/><path d="M142.252,465.755c-2.636,0-5.276-.083-7.906.034a11.929,11.929,0,0,1-3.823-.819c-1.1-.307-1.331-1.307-.708-2.3.355-.566,1.088-.574,1.536-.619,1.45-.147,2.9-.371,4.348-.523,2.467-.259,4.959-.012,7.371-.376a48.866,48.866,0,0,1,5.882-.284,47.869,47.869,0,0,1,5.832.033,9.793,9.793,0,0,1,3.9,1.021c.874.474.443,1.022.472,1.5.015.258-.482.763-.775.785a4.662,4.662,0,0,0-2.991,1.006,1.227,1.227,0,0,1-.68.158c-1.831.134-3.66.3-5.493.368s-3.64.013-5.46.013Z" transform="translate(-74)" fill="#3d466e"/><path d="M189.245,466.414c-.659.291-.594-.6-.79-.572-.358.053-.639.509-1.008.642-.3.109-.649.125-.776-.466-.105-.484-.961-.389-1-.09-.1.708-.508.616-.91.572-1.327-.144-2.717.395-3.985-.368-.924,1.039-2.186-.7-3.106.377-.543-.177-1.432.5-1.582-.645-.089.016-.225,0-.258.054-.117.185-.186.556-.295.564a4.381,4.381,0,0,1-2.043-.025,5.273,5.273,0,0,0-2.315-.315c-.423-.01-.752-.032-.682-.584a.373.373,0,0,0-.253-.087,2.016,2.016,0,0,1-1.687.027,2.318,2.318,0,0,0-.7-.113.982.982,0,0,1-1.119-.923c-.1-.542.269-.906.368-1.357.11-.494.453-.273.7-.374.559-.23,1.15-.614,1.715-.338.589.288,1.061-.779,1.584-.029a4.856,4.856,0,0,1,2.1-.4c.795-.138,1.488.375,2.346.084a8.559,8.559,0,0,1,2.615-.056h8.091c.815,0,1.774-.268,2.408.071.717.384,1.521-.69,2.017.3,1.025-1.087,2,.408,3.1.076.506-.153,1.26.468,1.88.781.1.049.124.334.106.5a2.03,2.03,0,0,1-1.522,1.642c-.741.044-1.515-.113-1.979.693a.221.221,0,0,1-.154.075Q190.672,466.275,189.245,466.414Zm-.509-1.09.243-.134c-.042-.042-.093-.125-.124-.118a1.184,1.184,0,0,0-.253.118Z" fill="#3d466e"/><path d="M189.245,466.414c-.659.291-.594-.6-.79-.572-.358.053-.639.509-1.008.642-.3.109-.649.125-.776-.466-.105-.484-.961-.389-1-.09-.1.708-.508.616-.91.572-1.327-.144-2.717.395-3.985-.368-.924,1.039-2.186-.7-3.106.377-.543-.177-1.432.5-1.582-.645-.089.016-.225,0-.258.054-.117.185-.186.556-.295.564a4.381,4.381,0,0,1-2.043-.025,5.273,5.273,0,0,0-2.315-.315c-.423-.01-.752-.032-.682-.584a.373.373,0,0,0-.253-.087,2.016,2.016,0,0,1-1.687.027,2.318,2.318,0,0,0-.7-.113.982.982,0,0,1-1.119-.923c-.1-.542.269-.906.368-1.357.11-.494.453-.273.7-.374.559-.23,1.15-.614,1.715-.338.589.288,1.061-.779,1.584-.029a4.856,4.856,0,0,1,2.1-.4c.795-.138,1.488.375,2.346.084a8.559,8.559,0,0,1,2.615-.056h8.091c.815,0,1.774-.268,2.408.071.717.384,1.521-.69,2.017.3,1.025-1.087,2,.408,3.1.076.506-.153,1.26.468,1.88.781.1.049.124.334.106.5a2.03,2.03,0,0,1-1.522,1.642c-.741.044-1.515-.113-1.979.693a.221.221,0,0,1-.154.075Q190.672,466.275,189.245,466.414Zm-.509-1.09.243-.134c-.042-.042-.093-.125-.124-.118a1.184,1.184,0,0,0-.253.118Z" transform="translate(-148)" fill="#3d466e"/><path d="M189.245,466.414c-.659.291-.594-.6-.79-.572-.358.053-.639.509-1.008.642-.3.109-.649.125-.776-.466-.105-.484-.961-.389-1-.09-.1.708-.508.616-.91.572-1.327-.144-2.717.395-3.985-.368-.924,1.039-2.186-.7-3.106.377-.543-.177-1.432.5-1.582-.645-.089.016-.225,0-.258.054-.117.185-.186.556-.295.564a4.381,4.381,0,0,1-2.043-.025,5.273,5.273,0,0,0-2.315-.315c-.423-.01-.752-.032-.682-.584a.373.373,0,0,0-.253-.087,2.016,2.016,0,0,1-1.687.027,2.318,2.318,0,0,0-.7-.113.982.982,0,0,1-1.119-.923c-.1-.542.269-.906.368-1.357.11-.494.453-.273.7-.374.559-.23,1.15-.614,1.715-.338.589.288,1.061-.779,1.584-.029a4.856,4.856,0,0,1,2.1-.4c.795-.138,1.488.375,2.346.084a8.559,8.559,0,0,1,2.615-.056h8.091c.815,0,1.774-.268,2.408.071.717.384,1.521-.69,2.017.3,1.025-1.087,2,.408,3.1.076.506-.153,1.26.468,1.88.781.1.049.124.334.106.5a2.03,2.03,0,0,1-1.522,1.642c-.741.044-1.515-.113-1.979.693a.221.221,0,0,1-.154.075Q190.672,466.275,189.245,466.414Zm-.509-1.09.243-.134c-.042-.042-.093-.125-.124-.118a1.184,1.184,0,0,0-.253.118Z" transform="translate(-259)" fill="#3d466e"/><path d="M189.245,466.414c-.659.291-.594-.6-.79-.572-.358.053-.639.509-1.008.642-.3.109-.649.125-.776-.466-.105-.484-.961-.389-1-.09-.1.708-.508.616-.91.572-1.327-.144-2.717.395-3.985-.368-.924,1.039-2.186-.7-3.106.377-.543-.177-1.432.5-1.582-.645-.089.016-.225,0-.258.054-.117.185-.186.556-.295.564a4.381,4.381,0,0,1-2.043-.025,5.273,5.273,0,0,0-2.315-.315c-.423-.01-.752-.032-.682-.584a.373.373,0,0,0-.253-.087,2.016,2.016,0,0,1-1.687.027,2.318,2.318,0,0,0-.7-.113.982.982,0,0,1-1.119-.923c-.1-.542.269-.906.368-1.357.11-.494.453-.273.7-.374.559-.23,1.15-.614,1.715-.338.589.288,1.061-.779,1.584-.029a4.856,4.856,0,0,1,2.1-.4c.795-.138,1.488.375,2.346.084a8.559,8.559,0,0,1,2.615-.056h8.091c.815,0,1.774-.268,2.408.071.717.384,1.521-.69,2.017.3,1.025-1.087,2,.408,3.1.076.506-.153,1.26.468,1.88.781.1.049.124.334.106.5a2.03,2.03,0,0,1-1.522,1.642c-.741.044-1.515-.113-1.979.693a.221.221,0,0,1-.154.075Q190.672,466.275,189.245,466.414Zm-.509-1.09.243-.134c-.042-.042-.093-.125-.124-.118a1.184,1.184,0,0,0-.253.118Z" transform="translate(-331)" fill="#3d466e"/><path d="M237.82,464.1c.077.332.174.509.131.641-.038.115-.233.179-.359.266a1.633,1.633,0,0,1,.005-.35A4.886,4.886,0,0,1,237.82,464.1Z" fill="#3d466e"/></g><g transform="translate(1411.97 2638.632) rotate(135)"><path d="M229.662,39.618c.079-.076.162-.05.2-.08.473-.371.939-.75,1.407-1.127.475.521.939,1.052,1.429,1.558a.969.969,0,0,0,.535.306c.17.016.356-.141.536-.222-.052.213-.109.426-.155.64-.171.8-.975,1.345-.922,2.24-.564.033-.32.468-.377.754a.929.929,0,0,0-.753,1.131c-.564.032-.32.468-.377.753a.93.93,0,0,0-.754,1.131.929.929,0,0,0-.754,1.13c-.563.032-.32.468-.376.754-1.025.581-1.165,1.667-1.508,2.638-.194.131-.49.22-.565.4-.416,1.008-1.18,1.864-1.319,3.076v-.084a1.048,1.048,0,0,0-.286.113c-.023.018.039.149.063.229a.7.7,0,0,0,.223-.258,26.3,26.3,0,0,0,4.878-2.869c.413-.3.96-.418,1.407-.684a66.5,66.5,0,0,1,6.481-3.457c2.535-1.155,5.059-2.317,7.678-3.3a48.272,48.272,0,0,1,6.571-2.344c.715-.157,1.428-.485,2.157-.7.679-.2,1.373-.623,2.093-.831,1.687-.488,3.441-.778,5.082-1.383,1.837-.677,3.838-.521,5.646-1.378a6.041,6.041,0,0,1,3-.408c.544.047.912-.665,1.438-.179.546.5.761-.4,1.309-.31.564.089,1.239-.41,1.772-.278.7.174,1.312-.669,1.961-.051a3.528,3.528,0,0,1,2.477-.346,3.726,3.726,0,0,0,1.88-.2,5.445,5.445,0,0,1,3.765.049c.336.13.632.246.682-.186.053-.455.289-.479.62-.45,1.84.164,3.715-.336,5.531.289A3.573,3.573,0,0,1,294.4,35.4a8.7,8.7,0,0,1,2.62.053c.791.247,1.432-.211,2.156-.067a21.089,21.089,0,0,0,2.668.374,10.413,10.413,0,0,1,2.8.078,11.308,11.308,0,0,0,2.881.321c.645.082,1.274.275,1.918.36s1.364-.186,1.915.386c1.124-.27,2.134.386,3.234.4a10.481,10.481,0,0,1,2.1.359c2.066.458,4.152.8,6.2,1.391,1.627.472,3.309.8,4.954,1.241,2.251.609,4.43,1.457,6.668,2.074,1.074.3,2.078.772,3.166,1.036.995.242,1.863,1.046,2.858,1.244a29.66,29.66,0,0,1,4.759,1.725,25,25,0,0,1,4.246,2.031c1.085.671,2.353.964,3.486,1.59,3.531,1.953,7.178,3.672,10.541,5.96,2.028,1.379,4.275,2.479,6.248,3.96,1.575,1.183,3.248,2.22,4.807,3.421a23.4,23.4,0,0,0,2.456,1.81c.909.527,1.262,1.715,2.4,1.921-.034.729.7.695,1.052,1.033,1.882,1.8,3.756,3.605,5.716,5.314.713.622,1.1,1.493,1.932,2.033a12.524,12.524,0,0,1,2.017,1.967c.526.55,1.011,1.138,1.529,1.695.488.523,1,1.019,1.493,1.541a10.965,10.965,0,0,1,1.6,1.79,17.748,17.748,0,0,0,3.355,4.069.839.839,0,0,1,.128,1.291c-.254.323-.433.7-.676,1.035-.341.467-.686.661-1.188.115a5.734,5.734,0,0,0-1.16-.774c-.412.657-.8.264-1.21-.01-.07-.047-.237.01-.341.059-.474.22-1,.711-1.4.618-.469-.11-.783-.77-1.232-1.1a13.619,13.619,0,0,1-2.217-2.267c-.654-.762-1.169-1.644-1.75-2.469a3.179,3.179,0,0,0-.264-.269c-1.466-1.59-2.926-3.184-4.4-4.769-.427-.46-.877-.9-1.332-1.331-.4-.377-.707-.837-1.065-1.242-.391-.443-1.059-.566-1.269-1.119-.227-.6-.815-.762-1.194-1.167a14.114,14.114,0,0,0-1.2-1.194c-.458-.384-.707-1-1.418-1.138-.2-.037.255-.91-.646-.771-.314.048-.721-.592-1.106-.891-.423-.329-.89-.6-1.3-.944a14.937,14.937,0,0,0-1.081-1.044,12.224,12.224,0,0,0-2.294-1.654c-.785-.316-1.311-1.2-2.117-1.694-1.369-.834-2.631-1.843-3.945-2.768a30.334,30.334,0,0,0-4.075-2.453c-1.577-.77-2.827-2.142-4.618-2.485-.1-.02-.176-.173-.269-.257a7.794,7.794,0,0,0-2.6-1.462,8.524,8.524,0,0,1-2.128-1.238c-.655-.488-1.5-.541-2.2-1.084a9.47,9.47,0,0,0-2.9-1.137c-2.766-.891-5.3-2.408-8.149-3.065-1-.8-2.317-.728-3.423-1.3a11.9,11.9,0,0,0-3-.906,25.088,25.088,0,0,0-3.744-.98c-1.505-.075-2.8-.979-4.317-.982a4.771,4.771,0,0,1-1.163-.356c-1.644-.464-3.42-.34-5-1.119-.2-.1-.5,0-.747-.016a24.052,24.052,0,0,1-4.534-.442c-1.112-.31-2.2-.085-3.247-.336-2.452-.591-4.967,0-7.373-.419-2.357-.409-4.684-.131-7.012-.327-.886-.075-1.656.377-2.483.369-.954-.009-1.981.348-2.858-.35-.651.632-1.52.222-2.254.47a4.641,4.641,0,0,1-1.013.275c-1.516.146-3.033.289-4.553.371-.6.032-1.156.948-1.793.1-.517.213-1.027.448-1.556.628a4.3,4.3,0,0,1-.735.049c-.719.1-1.488-.26-2.165.227-.613.441-1.516-.25-2.044.523-1.632-.379-3,.764-4.584.8a7.237,7.237,0,0,0-2.869.758c-.539.257-1.153.12-1.529.378-.475.326-.923.232-1.379.346a11.321,11.321,0,0,0-2.481.82c-.837.434-1.908.213-2.612,1.015-.11.125-.6.011-.852-.111-.223-.106-.444-.364-.432.084.018.69-.807.245-.886.739a3.49,3.49,0,0,0-2.325.779c-.076.074-.406-.142-.625-.183a7.054,7.054,0,0,0-1.072-.131c-.1,0-.21.159-.315.245,1.012.968-.327,1.009-.585,1.132-1.359.652-2.811,1.095-4.118,1.886-.347.21-1,.467-1.037-.43,0-.007-.235-.006-.361-.009-.008,1.563-1.163,1.584-2.345,1.684h.084a1.043,1.043,0,0,0-.114-.285c-.018-.024-.149.039-.228.062a.7.7,0,0,0,.258.223,7,7,0,0,1-3.166,1.881c-.115.033-.286-.023-.356.043-1.79,1.685-4.185,2.42-6.1,3.88-.865.66-1.862,1-2.74,1.579a.545.545,0,0,0-.163.506c.074.137.393.294.5.238.541-.291.9.371,1.462.2a5.971,5.971,0,0,1,1.683-.033,6.285,6.285,0,0,1,1.687.023c1.816.528,3.69.127,5.487.416a19.091,19.091,0,0,1,3.4.381c1.59.59,3.274-.133,4.811.652.448.229,1.117-.013,1.675.05a13.81,13.81,0,0,0,1.351.337,7.27,7.27,0,0,1,1.543.378c1.3.277,2.009,1.449,3.155,1.934.085.036.143.188.171.3.166.632-.623,1.916-1.244,1.926a33.316,33.316,0,0,1-5.82-.072c-1.157-.189-2.292-.185-3.433-.3-.768-.078-1.53-.228-2.29-.372a9.58,9.58,0,0,1-2.138-.286,7.959,7.959,0,0,0-3.164-.075,8.989,8.989,0,0,1-3.221-.415c-.053-.017-.085-.092-.135-.129-.085-.063-.2-.187-.262-.165-1.8.677-3.632.225-5.454.174-.478-.014-.959.135-1.44.14-1.882.017-3.771-.094-5.643.041-1.318.1-2.513-.454-3.8-.431-.456.008-.734-.354-.776-.86a3.542,3.542,0,0,0-.235-1.029c-.044-.106-.333-.112-.511-.163v.565c-1.749-.958-1.624-.928-1.168-2.848a26.52,26.52,0,0,1,2.064-4.607,51.829,51.829,0,0,1,4.232-7.277c1.267-1.925,2.6-3.811,3.843-5.748.974-1.511,2.389-2.685,3.215-4.308a2.228,2.228,0,0,1,.792-.793c.486-.307,1.026-.529,1.543-.787-.2.529.229.984.16,1.572a.437.437,0,0,1-.3-.211c-.214-.308-.379-.173-.534.045-.723,1.015-1.455,2.024-2.16,3.051-.667.971-1.243,2.012-1.974,2.93a15.116,15.116,0,0,0-1.5,2.194c-.439.805-1.245,1.426-1.535,2.379a2.131,2.131,0,0,1-.4.769,4.451,4.451,0,0,0-1.13,1.8,15.687,15.687,0,0,1-1.025,1.818c-.468,1-1.137,1.906-1.675,2.877-.591,1.066-1.138,2.157-1.68,3.249a.646.646,0,0,0,.008.546c.1.157.381.348.513.306a.874.874,0,0,0,.53-.49c.357-1.313,1.3-2.322,1.779-3.588a26.357,26.357,0,0,1,2.419-4.447c1.015-1.631,1.812-3.4,2.867-5a76.143,76.143,0,0,1,5.147-7.08A6.341,6.341,0,0,0,229.662,39.618Zm2.5,2.592-.22.178.169.168a1.8,1.8,0,0,0,.167-.226c.007-.014-.073-.076-.336.395v-.169a1.089,1.089,0,0,0-.285.114c-.024.018.039.149.062.229C231.791,42.841,231.865,42.783,232.159,42.21Zm-7.151,11.5a4.633,4.633,0,0,0-.223.557,1.562,1.562,0,0,0-.006.349c.126-.086.321-.15.359-.265.043-.132-.054-.309-.359.434v-.168a1.041,1.041,0,0,0-.285.113c-.024.018.039.149.062.229C224.631,54.9,224.705,54.842,225.008,53.709Zm2.86-4.407-.249-.339c-.067.087-.193.176-.189.259a1.8,1.8,0,0,0,.144.462,3.066,3.066,0,0,0,.439-1.067l-.219.178.168.168a1.822,1.822,0,0,0,.168-.227C228.137,48.722,228.057,48.66,227.868,49.3Zm-1.155,1.741c-.1-.084-.188-.2-.234-.186a1.228,1.228,0,0,0-.566,1.254c.011.054.061.142.091.141.089,0,.232-.018.256-.072.164-.37.3-.751.623-1.679l-.219.178.168.168A1.655,1.655,0,0,0,227,50.62C227.007,50.606,226.926,50.545,226.713,51.043Zm49.14-13.685.495-.206a1.111,1.111,0,0,0-.327-.235c-.086-.023-.2.072-.308.115ZM222.925,53.532l-.218-.424c-.063.095-.185.2-.176.285a1.928,1.928,0,0,0,.176.469Zm8.315-13.748.134.134a1.175,1.175,0,0,0,.118-.252c.007-.031-.076-.082-.118-.124Zm1.319,1.7-.243.134c.042.042.093.125.124.118a1.182,1.182,0,0,0,.253-.118ZM229.624,42.8l-.134-.243c-.042.042-.125.093-.118.124a1.16,1.16,0,0,0,.118.253Zm.942,1.964.243-.134c-.042-.042-.093-.125-.124-.118a1.182,1.182,0,0,0-.253.118Zm-.645,1.131.134-.134a1.182,1.182,0,0,0-.253-.118c-.031-.007-.082.076-.124.118Zm-.862,1.13.243-.134c-.042-.042-.093-.125-.124-.118a1.16,1.16,0,0,0-.253.118Zm-.268.486-.243.134c.042.042.093.125.124.118a1.2,1.2,0,0,0,.253-.118Zm-4.146,2.529.134-.134a1.16,1.16,0,0,0-.253-.118c-.031-.007-.082.076-.123.118Zm.888,3.258c-.042-.042-.093-.125-.124-.118a1.2,1.2,0,0,0-.253.118c.042.041.093.124.124.117A1.178,1.178,0,0,0,225.533,53.3Zm12.624.188c-.041.042-.124.093-.117.124a1.178,1.178,0,0,0,.117.253c.042-.042.125-.093.118-.124A1.135,1.135,0,0,0,238.157,53.485ZM224.08,55.612l.134.134a1.183,1.183,0,0,0,.118-.253c.007-.031-.076-.082-.118-.124Zm-.3.833.243-.134c-.042-.041-.093-.124-.124-.117a1.178,1.178,0,0,0-.253.117Zm9.153.377.134-.134a1.182,1.182,0,0,0-.253-.118c-.031-.006-.082.076-.124.118ZM220.58,57.5l-.134-.243c-.042.042-.125.093-.118.124a1.161,1.161,0,0,0,.118.253Zm10.551.268L231,57.63a1.152,1.152,0,0,0-.117.253c-.007.031.075.082.117.124Zm-11.87,1.805-.134.134a1.16,1.16,0,0,0,.253.118c.031.007.082-.076.124-.118Zm-2.153,4.9-.242.134c.041.042.092.125.123.118a1.16,1.16,0,0,0,.253-.118Zm165.436,10.82.134-.134a1.182,1.182,0,0,0-.253-.118c-.031-.007-.082.076-.124.118Z" fill="#3d466e"/><path d="M230.055,47.832c-.057.286.187.722-.377.754v-.754Z" fill="#3d466e"/><path d="M230.432,46.7h.377c-.057.285.187.721-.377.754Z" fill="#3d466e"/><path d="M233.635,41.8a1.16,1.16,0,0,1,.118.253c.007.031-.076.082-.118.124a1.205,1.205,0,0,1-.118-.253C233.511,41.9,233.593,41.845,233.635,41.8Z" fill="#3d466e"/><path d="M233.289,42.587c.044.044.124.106.116.119a1.656,1.656,0,0,1-.167.227l-.168-.168Z" fill="#3d466e"/><path d="M233.07,42.933l-.253.313c-.041-.1-.083-.208-.124-.313Z" fill="#3d466e"/><path d="M232.662,43.906c-.043.044-.1.124-.119.116a1.72,1.72,0,0,1-.227-.167l.168-.168Z" fill="#3d466e"/><path d="M231.909,45.037c-.044.043-.106.123-.12.116a1.709,1.709,0,0,1-.226-.167l.168-.168Z" fill="#3d466e"/><path d="M231.532,45.79c-.044.044-.1.124-.119.117a1.75,1.75,0,0,1-.227-.168l.168-.168Z" fill="#3d466e"/><path d="M231.028,46.356c.044.043.124.1.116.119a1.718,1.718,0,0,1-.167.227l-.168-.168Z" fill="#3d466e"/><path d="M230.432,47.456l-.377.376Z" fill="#3d466e"/><path d="M229.678,48.586l-.252.313c-.042-.1-.083-.209-.124-.313Z" fill="#3d466e"/><path d="M249.6,49.206l-.134.134a1.205,1.205,0,0,1-.118-.253c-.007-.031.076-.082.118-.124Z" fill="#3d466e"/><path d="M229.167,49.394l.135.134a1.2,1.2,0,0,1-.253.118c-.031.007-.082-.076-.124-.118Z" fill="#3d466e"/><path d="M228.87,50.336l-.134.134a1.183,1.183,0,0,1-.118-.253c-.006-.031.076-.082.118-.124Z" fill="#3d466e"/><path d="M228.14,51.443c-.043.044-.1.124-.119.116a1.718,1.718,0,0,1-.227-.167l.168-.168Z" fill="#3d466e"/><path d="M227.794,52.166a1.182,1.182,0,0,1-.253.118c-.031.007-.082-.076-.124-.118a1.2,1.2,0,0,1,.253-.118C227.7,52.041,227.752,52.124,227.794,52.166Z" fill="#3d466e"/><path d="M227.283,53.054l-.243-.134c.042-.042.093-.125.124-.118a1.16,1.16,0,0,1,.253.118Z" fill="#3d466e"/><path d="M215.327,64.633c-.043.043-.1.124-.119.116a1.72,1.72,0,0,1-.227-.167l.168-.168Z" fill="#3d466e"/></g><g transform="translate(1197.857 3025.475) rotate(-135)"><path d="M16.141,49.662c.079.076.162.05.2.08.473.371.939.75,1.407,1.127.475-.521.939-1.052,1.429-1.558a.969.969,0,0,1,.535-.306c.17-.016.356.141.536.222-.052-.213-.109-.426-.155-.64-.171-.8-.975-1.345-.922-2.24-.564-.033-.32-.468-.377-.754a.929.929,0,0,1-.753-1.131c-.564-.032-.32-.468-.377-.753a.93.93,0,0,1-.754-1.131.929.929,0,0,1-.754-1.13c-.563-.032-.32-.468-.376-.754-1.025-.581-1.165-1.667-1.508-2.638-.194-.131-.49-.22-.565-.4-.416-1.008-1.18-1.864-1.319-3.076v.084a1.048,1.048,0,0,1-.286-.113c-.023-.018.039-.149.063-.229a.7.7,0,0,1,.223.258,26.3,26.3,0,0,1,4.878,2.869c.413.3.96.418,1.407.684a66.5,66.5,0,0,0,6.481,3.457c2.535,1.155,5.059,2.317,7.678,3.3A48.273,48.273,0,0,0,39.4,47.231c.715.157,1.428.485,2.157.7.679.2,1.373.623,2.093.831,1.687.488,3.441.778,5.082,1.383,1.837.677,3.838.521,5.646,1.378a6.041,6.041,0,0,0,3,.408c.544-.047.912.665,1.438.179.546-.5.761.4,1.309.31.564-.089,1.239.41,1.772.278.7-.174,1.312.669,1.961.051a3.528,3.528,0,0,0,2.477.346,3.726,3.726,0,0,1,1.88.2,5.445,5.445,0,0,0,3.765-.049c.336-.13.632-.246.682.186.053.455.289.479.62.45,1.84-.164,3.715.336,5.531-.289a3.573,3.573,0,0,0,2.068.287,8.7,8.7,0,0,0,2.62-.053c.791-.247,1.432.211,2.156.067a21.089,21.089,0,0,1,2.668-.374,10.413,10.413,0,0,0,2.8-.078,11.308,11.308,0,0,1,2.881-.321c.645-.082,1.274-.275,1.918-.36s1.364.186,1.915-.386c1.124.27,2.134-.386,3.234-.4a10.481,10.481,0,0,0,2.1-.359c2.066-.458,4.152-.8,6.2-1.391,1.627-.472,3.309-.8,4.954-1.241,2.251-.609,4.43-1.457,6.668-2.074,1.074-.3,2.078-.772,3.166-1.036.995-.242,1.863-1.046,2.858-1.244a29.66,29.66,0,0,0,4.759-1.725,25,25,0,0,0,4.246-2.031c1.085-.671,2.353-.964,3.486-1.59,3.531-1.953,7.178-3.672,10.541-5.96,2.028-1.379,4.275-2.479,6.248-3.96,1.575-1.183,3.248-2.22,4.807-3.421a23.4,23.4,0,0,1,2.456-1.81c.909-.527,1.262-1.715,2.4-1.921-.034-.729.7-.695,1.052-1.033,1.882-1.8,3.756-3.605,5.716-5.314.713-.622,1.1-1.493,1.932-2.033a12.524,12.524,0,0,0,2.017-1.967c.526-.55,1.011-1.138,1.529-1.695.488-.523,1-1.019,1.493-1.541a10.965,10.965,0,0,0,1.6-1.79,17.748,17.748,0,0,1,3.355-4.069.839.839,0,0,0,.128-1.291c-.254-.323-.433-.7-.676-1.035-.341-.467-.686-.661-1.188-.115a5.734,5.734,0,0,1-1.16.774c-.412-.657-.8-.264-1.21.01-.07.047-.237-.01-.341-.059-.474-.22-1-.711-1.4-.618-.469.11-.783.77-1.232,1.1A13.619,13.619,0,0,0,175.366,3.8c-.654.762-1.169,1.644-1.75,2.469a3.179,3.179,0,0,1-.264.269c-1.466,1.59-2.926,3.184-4.4,4.769-.427.46-.877.9-1.332,1.331-.4.377-.707.837-1.065,1.242-.391.443-1.059.566-1.269,1.119-.227.6-.815.762-1.194,1.167a14.114,14.114,0,0,1-1.2,1.194c-.458.384-.707,1-1.418,1.138-.2.037.255.91-.646.771-.314-.048-.721.592-1.106.891-.423.329-.89.6-1.3.944a14.937,14.937,0,0,1-1.081,1.044,12.224,12.224,0,0,1-2.294,1.654c-.785.316-1.311,1.2-2.117,1.694-1.369.834-2.631,1.843-3.945,2.768a30.334,30.334,0,0,1-4.075,2.453c-1.577.77-2.827,2.142-4.618,2.485-.1.02-.176.173-.269.257a7.794,7.794,0,0,1-2.6,1.462,8.524,8.524,0,0,0-2.128,1.238c-.655.488-1.5.541-2.2,1.084a9.47,9.47,0,0,1-2.9,1.137c-2.766.891-5.3,2.408-8.149,3.065-1,.8-2.317.728-3.423,1.3a11.9,11.9,0,0,1-3,.906,25.088,25.088,0,0,1-3.744.98c-1.505.075-2.8.979-4.317.982a4.771,4.771,0,0,0-1.163.356c-1.644.464-3.42.34-5,1.119-.2.1-.5,0-.747.016a24.052,24.052,0,0,0-4.534.442c-1.112.31-2.2.085-3.247.336-2.452.591-4.967,0-7.373.419-2.357.409-4.684.131-7.012.327C77.6,48.7,76.83,48.25,76,48.258c-.954.009-1.981-.348-2.858.35-.651-.632-1.52-.222-2.254-.47a4.641,4.641,0,0,0-1.013-.275c-1.516-.146-3.033-.289-4.553-.371-.6-.032-1.156-.948-1.793-.1-.517-.213-1.027-.448-1.556-.628a4.3,4.3,0,0,0-.735-.049c-.719-.1-1.488.26-2.165-.227-.613-.441-1.516.25-2.044-.523-1.632.379-3-.764-4.584-.8a7.237,7.237,0,0,1-2.869-.758c-.539-.257-1.153-.12-1.529-.378-.475-.326-.923-.232-1.379-.346a11.321,11.321,0,0,1-2.481-.82c-.837-.434-1.908-.213-2.612-1.015-.11-.125-.6-.011-.852.111-.223.106-.444.364-.432-.084.018-.69-.807-.245-.886-.739a3.49,3.49,0,0,1-2.325-.779c-.076-.074-.406.142-.625.183a7.054,7.054,0,0,1-1.072.131c-.1,0-.21-.159-.315-.245,1.012-.968-.327-1.009-.585-1.132-1.359-.652-2.811-1.1-4.118-1.886-.347-.21-1-.467-1.037.43,0,.007-.235.006-.361.009-.008-1.563-1.163-1.584-2.345-1.684h.084a1.043,1.043,0,0,1-.114.285c-.018.024-.149-.039-.228-.062a.7.7,0,0,1,.258-.223,7,7,0,0,0-3.166-1.881c-.115-.033-.286.023-.356-.043-1.79-1.685-4.185-2.42-6.1-3.88-.865-.66-1.862-1-2.74-1.579a.545.545,0,0,1-.163-.506c.074-.137.393-.294.5-.238.541.291.9-.371,1.462-.2a5.971,5.971,0,0,0,1.683.033,6.285,6.285,0,0,0,1.687-.023c1.816-.528,3.69-.127,5.487-.416a19.091,19.091,0,0,0,3.4-.381c1.59-.59,3.274.133,4.811-.652.448-.229,1.117.013,1.675-.05a13.81,13.81,0,0,1,1.351-.337,7.27,7.27,0,0,0,1.543-.378c1.3-.277,2.009-1.449,3.155-1.934.085-.036.143-.188.171-.3.166-.632-.623-1.916-1.244-1.926a33.317,33.317,0,0,0-5.82.072c-1.157.189-2.292.185-3.433.3-.768.078-1.53.228-2.29.372a9.58,9.58,0,0,0-2.138.286,7.959,7.959,0,0,1-3.164.075,8.989,8.989,0,0,0-3.221.415c-.053.017-.085.092-.135.129-.085.063-.2.187-.262.165-1.8-.677-3.632-.225-5.454-.174-.478.014-.959-.135-1.44-.14-1.882-.017-3.771.094-5.643-.041-1.318-.1-2.513.454-3.8.431-.456-.008-.734.354-.776.86a3.542,3.542,0,0,1-.235,1.029c-.044.106-.333.112-.511.163v-.565c-1.749.958-1.624.928-1.168,2.848a26.52,26.52,0,0,0,2.064,4.607A51.83,51.83,0,0,0,6.588,39.6c1.267,1.925,2.6,3.811,3.843,5.748.974,1.511,2.389,2.685,3.215,4.308a2.228,2.228,0,0,0,.792.793c.486.307,1.026.529,1.543.787-.2-.529.229-.984.16-1.572a.437.437,0,0,0-.3.211c-.214.308-.379.173-.534-.045-.723-1.015-1.455-2.024-2.16-3.051-.667-.971-1.243-2.012-1.974-2.93a15.116,15.116,0,0,1-1.5-2.194c-.439-.8-1.245-1.426-1.535-2.379a2.131,2.131,0,0,0-.4-.769,4.451,4.451,0,0,1-1.13-1.8,15.69,15.69,0,0,0-1.025-1.818c-.468-1-1.137-1.906-1.675-2.877-.591-1.066-1.138-2.157-1.68-3.249a.646.646,0,0,1,.008-.546c.1-.157.381-.348.513-.306a.874.874,0,0,1,.53.49c.357,1.313,1.3,2.322,1.779,3.588a26.357,26.357,0,0,0,2.419,4.447c1.015,1.631,1.812,3.4,2.867,5a76.143,76.143,0,0,0,5.147,7.08A6.341,6.341,0,0,1,16.141,49.662Zm2.5-2.592-.22-.178.169-.168a1.8,1.8,0,0,1,.167.226c.007.014-.073.076-.336-.395v.169a1.089,1.089,0,0,1-.285-.114c-.024-.018.039-.149.062-.229C18.27,46.439,18.344,46.5,18.638,47.07Zm-7.151-11.5a4.633,4.633,0,0,1-.223-.557,1.562,1.562,0,0,1-.006-.349c.126.086.321.15.359.265.043.132-.054.309-.359-.434v.168a1.041,1.041,0,0,1-.285-.113c-.024-.018.039-.149.062-.229C11.11,34.38,11.184,34.438,11.487,35.571Zm2.86,4.407-.249.339c-.067-.087-.193-.176-.189-.259a1.8,1.8,0,0,1,.144-.462,3.066,3.066,0,0,1,.439,1.067l-.219-.178.168-.168a1.822,1.822,0,0,1,.168.227C14.616,40.558,14.536,40.62,14.347,39.978Zm-1.155-1.741c-.1.084-.188.2-.234.186a1.228,1.228,0,0,1-.566-1.254c.011-.054.061-.142.091-.141.089,0,.232.018.256.072.164.37.3.751.623,1.679l-.219-.178.168-.168a1.655,1.655,0,0,1,.167.227C13.486,38.674,13.405,38.735,13.192,38.237Zm49.14,13.685.495.206a1.111,1.111,0,0,1-.327.235c-.086.023-.2-.072-.308-.115ZM9.4,35.748l-.218.424c-.063-.095-.185-.2-.176-.285a1.928,1.928,0,0,1,.176-.469ZM17.719,49.5l.134-.134a1.175,1.175,0,0,1,.118.252c.007.031-.076.082-.118.124Zm1.319-1.7-.243-.134c.042-.042.093-.125.124-.118a1.182,1.182,0,0,1,.253.118ZM16.1,46.481l-.134.243c-.042-.042-.125-.093-.118-.124a1.16,1.16,0,0,1,.118-.253Zm.942-1.964.243.134c-.042.042-.093.125-.124.118a1.182,1.182,0,0,1-.253-.118ZM16.4,43.386l.134.134a1.182,1.182,0,0,1-.253.118c-.031.007-.082-.076-.124-.118Zm-.862-1.13.243.134c-.042.042-.093.125-.124.118a1.16,1.16,0,0,1-.253-.118Zm-.268-.486-.243-.134c.042-.042.093-.125.124-.118a1.2,1.2,0,0,1,.253.118Zm-4.146-2.529.134.134a1.16,1.16,0,0,1-.253.118c-.031.007-.082-.076-.123-.118Zm.888-3.258c-.042.042-.093.125-.124.118a1.2,1.2,0,0,1-.253-.118c.042-.041.093-.124.124-.117A1.178,1.178,0,0,1,12.012,35.983ZM24.636,35.8c-.041-.042-.124-.093-.117-.124a1.178,1.178,0,0,1,.117-.253c.042.042.125.093.118.124A1.135,1.135,0,0,1,24.636,35.8ZM10.559,33.668l.134-.134a1.183,1.183,0,0,1,.118.253c.007.031-.076.082-.118.124Zm-.3-.833.243.134c-.042.041-.093.124-.124.117a1.178,1.178,0,0,1-.253-.117Zm9.153-.377.134.134a1.182,1.182,0,0,1-.253.118c-.031.006-.082-.076-.124-.118ZM7.059,31.784l-.134.243c-.042-.042-.125-.093-.118-.124a1.161,1.161,0,0,1,.118-.253Zm10.551-.268-.134.134a1.152,1.152,0,0,1-.117-.253c-.007-.031.075-.082.117-.124ZM5.74,29.711l-.134-.134a1.16,1.16,0,0,1,.253-.118c.031-.007.082.076.124.118Zm-2.153-4.9-.242-.134c.041-.042.092-.125.123-.118a1.16,1.16,0,0,1,.253.118Zm165.436-10.82.134.134a1.182,1.182,0,0,1-.253.118c-.031.007-.082-.076-.124-.118Z" transform="translate(0 0)" fill="#3d466e"/><path d="M.377.754C.32.468.564.032,0,0V.754Z" transform="translate(16.157 40.694)" fill="#3d466e"/><path d="M0,.754H.377C.32.469.564.033,0,0Z" transform="translate(16.911 41.824)" fill="#3d466e"/><path d="M.118.377A1.16,1.16,0,0,0,.236.124C.243.093.16.042.118,0A1.205,1.205,0,0,0,0,.253C-.006.284.076.335.118.377Z" transform="translate(19.996 47.1)" fill="#3d466e"/><path d="M.219.346C.263.3.343.24.335.227A1.656,1.656,0,0,0,.168,0L0,.168Z" transform="translate(19.549 46.347)" fill="#3d466e"/><path d="M.377.313.124,0C.083.1.041.208,0,.313Z" transform="translate(19.172 46.034)" fill="#3d466e"/><path d="M.346.117C.3.073.241-.007.227,0A1.72,1.72,0,0,0,0,.168L.168.336Z" transform="translate(18.795 45.258)" fill="#3d466e"/><path d="M.346.116C.3.073.24-.007.226,0A1.709,1.709,0,0,0,0,.167L.168.335Z" transform="translate(18.042 44.127)" fill="#3d466e"/><path d="M.346.117C.3.073.241-.007.227,0A1.75,1.75,0,0,0,0,.168L.168.336Z" transform="translate(17.665 43.373)" fill="#3d466e"/><path d="M.219.346C.263.3.343.241.335.227A1.718,1.718,0,0,0,.168,0L0,.168Z" transform="translate(17.288 42.578)" fill="#3d466e"/><path d="M.377.376,0,0Z" transform="translate(16.534 41.448)" fill="#3d466e"/><path d="M.376.313.124,0C.082.1.041.209,0,.313Z" transform="translate(15.781 40.381)" fill="#3d466e"/><path d="M.252.134.118,0A1.205,1.205,0,0,0,0,.253C-.007.284.076.335.118.377Z" transform="translate(35.824 39.94)" fill="#3d466e"/><path d="M.242.252.377.118A1.2,1.2,0,0,0,.124,0C.093-.007.042.076,0,.118Z" transform="translate(15.404 39.634)" fill="#3d466e"/><path d="M.252.134.118,0A1.183,1.183,0,0,0,0,.253C-.006.284.076.335.118.377Z" transform="translate(15.097 38.81)" fill="#3d466e"/><path d="M.346.117C.3.073.241-.007.227,0A1.718,1.718,0,0,0,0,.168L.168.336Z" transform="translate(14.273 37.721)" fill="#3d466e"/><path d="M.377.118A1.182,1.182,0,0,0,.124,0C.093-.007.042.076,0,.118A1.2,1.2,0,0,0,.253.236C.284.243.335.16.377.118Z" transform="translate(13.896 36.996)" fill="#3d466e"/><path d="M.243,0,0,.134C.042.176.093.259.124.252A1.16,1.16,0,0,0,.377.134Z" transform="translate(13.519 36.226)" fill="#3d466e"/><path d="M.346.117C.3.074.241-.007.227,0A1.72,1.72,0,0,0,0,.168L.168.336Z" transform="translate(1.46 24.531)" fill="#3d466e"/></g><g transform="translate(838.096 3096.658) rotate(-90)"><path d="M242.3,360.429c.3.839.317.848-.629,1.066-.112.026-.295.122-.3.19a4.474,4.474,0,0,1-1.687,3.081,26.072,26.072,0,0,0-1.745,2.093c-.542.651-1.345,1.078-1.614,1.97a1.05,1.05,0,0,1-.522.525,9.468,9.468,0,0,1-1.147.412c.325.481.1.978-.328.98-.714.005-.4.659-.746.881a4.2,4.2,0,0,0-.887.938c-.262.323-.459.7-.73,1.011-.328.379-.7.716-1.059,1.071-.311.311-.735.569-.907.943-.317.686-1.036.992-1.373,1.491-.386.57-.892.989-1.3,1.508a9.185,9.185,0,0,1-2.077,2.146,3.636,3.636,0,0,1-2.238.993c-.159-.009-.457.093-.469.176-.2,1.38-1.816,1.007-2.42,1.939-.129.2-.892.043-1.341-.053-.147-.031-.653-.291-.164-.658a1.458,1.458,0,0,0-.3-.5c-.049-.049-.265.034-.383.1s-.171.183-.271.257c-.287.211-.695.645-.853.569-.416-.2-1.066-.682-1.02-.947.235-1.359-.928-1.95-1.476-2.8-1.548-2.4-3.418-4.6-4.959-7-1.848-2.883-3.706-5.756-5.644-8.578a5.926,5.926,0,0,1-.657-1.046,7.542,7.542,0,0,0-1.847-3.02c-.781-.692-.578-1.795-.516-2.761,0-.069.313-.179.469-.164.215.02.519.083.61.233.207.341.259.78.476,1.112.09.137.442.1.674.148a2.375,2.375,0,0,0,.79.509c.19.042-.02-.055-.24-.122-.037-.012-.114.107-.173.166q.308.264.613.53c.047-.1.094-.2-.2-.574a2.363,2.363,0,0,1-.79-.509c-.112-.523.188-1.069-.236-1.6-.273-.343.209-.262.37-.272.227-.014.317.587.69.126.292-.359.6-.866,1.2-.26.093.1.621-.207.9.2.377.553,1.481.037,1.582.965.089.82.877.721,1.274,1.127.375.383.195.809.251,1.217H208.2a1.043,1.043,0,0,0-.114-.285c-.018-.024-.149.039-.228.062a.7.7,0,0,0,.258.223,1.546,1.546,0,0,1,.369.377l.469-.377c.233.045.54.009.686.146a22.465,22.465,0,0,1,3.483,4.007,8.129,8.129,0,0,0,1.43,1.268c.2.183.37.114.55-.05.4-.367.247-.81.25-1.22.015-2.386-.03-4.773.027-7.158.021-.9-.334-1.859.241-2.718a5.6,5.6,0,0,1-.262-2.433c-.169-4.415.549-8.8.409-13.22-.141-4.454-.031-8.915-.031-13.374.689-2.874.3-5.8.364-8.7.06-2.951-.264-5.935.078-8.846.505-4.292-.087-8.6.393-12.84.33-2.92.115-5.811.307-8.707.051-.769.291-41.525.351-42.294.063-.812-.045-1.637.032-2.446a2.691,2.691,0,0,1,1.064-1.809,2.122,2.122,0,0,1,.635-.233,2.526,2.526,0,0,1,.058.642,10.336,10.336,0,0,0-.252,1.017,8.641,8.641,0,0,0,.106,1.268,7.28,7.28,0,0,0,.909-1.187c.15-.3-.018-.764.128-1.074a1.239,1.239,0,0,1,.765-.654c.485-.073.272.413.345.674a1.594,1.594,0,0,0,.228.377,1.063,1.063,0,0,1,.147-.313c.14-.146.364-.406.46-.37a9.036,9.036,0,0,1,1.569.749c.148.091.15.415.228.629.513,1.422.368,42.9.373,44.365.01,3.077,0,6.154.012,9.231a3.384,3.384,0,0,0,.2.805,4.94,4.94,0,0,0,.157-.874c.013-2.448.008-4.9.008-7.346,0-.314-.014-.629.01-.941.006-.069.141-.135.227-.183.016-.008.115.076.124.127a2.182,2.182,0,0,1,.015.371,93.7,93.7,0,0,0,.079,9.976c.347,3.229.25,6.434.281,9.648.059,6.09.013,12.181.02,18.272a13.708,13.708,0,0,0,.358,4.559c.064.188-.091.452-.145.681-.2-.214-.521-.4-.566-.647a8.346,8.346,0,0,1-.027-1.5V302.86c0-.5.01-1-.009-1.506,0-.092-.125-.179-.192-.267-.059.1-.164.2-.168.3-.017.5-.007,1-.007,1.507v22.228c0,2.951-.01,5.9.009,8.854a9.081,9.081,0,0,0,.209,1.356,11.829,11.829,0,0,0,.151-1.253c.022-1.067-.009-2.135.027-3.2.005-.143.281-.277.431-.415.1.124.28.243.289.373.034.5.014,1,.014,1.506q0,14.223.014,28.445c0,.64-.31,1.376.349,1.91-.95.659.07,1.3.025,1.955a20.436,20.436,0,0,0,0,2.071c0,.056.268.177.3.147a6.145,6.145,0,0,0,1.063-1.063,42.167,42.167,0,0,1,3.446-4.234,26.418,26.418,0,0,0,2.851-3.511,7.687,7.687,0,0,1,1.445-1.475c.306-.287.532-.142.681.388a6.424,6.424,0,0,0,.241.621c.209-.1.477-.153.615-.315.388-.453.7-.967,1.082-1.429a1,1,0,0,1,1.569-.26c.315.228.99.471,1.024-.426,0-.073.183-.205.267-.2.29.034.572.153.862.172a1.561,1.561,0,0,0,.532-.162c.07.27.149.537.209.809.107.479.488.242.929.408.114.037.055-.036-.005-.109l-.168.168a1.656,1.656,0,0,0,.227.167c.014.008.075-.072-.054-.226-.027-.8.522-.541.81-.4.351.173.142.5-.1.736a.266.266,0,0,0,.008.245c.74.363.36,1,.458,1.541.074.413.309.788-.024,1.132a2.141,2.141,0,0,1-1.9.971c-.347-.293.507.178.567-.563,0-.062.028-.153,0-.182-.168-.155-.569-.016-1.153.4a1.523,1.523,0,0,0-.263.263.206.206,0,0,0-.038.124C241.51,360.524,241.616,360.568,242.3,360.429Zm-23.55-50.716V291.628c0-.5.008-1.005-.007-1.507,0-.106-.093-.21-.143-.315-.076.132-.216.263-.217.395-.015,1.758.039,3.518-.024,5.274-.061,1.709-.328,3.412-.346,5.119-.049,4.835-.017,9.671-.017,14.506,0,.691.008,1.381,0,2.072a6.353,6.353,0,0,1-.093,1.848c-.183.55.164,1.088-.218,1.681-.225.35.2,1.109.31,1.687a1.227,1.227,0,0,1-.335,1.146c.536.351.317.9.331,1.367.026.879.007,1.758.007,2.638a10.2,10.2,0,0,1-.049,2.624,3.877,3.877,0,0,0,.09,2.325c.157.469-.724.647-.156,1.068.5.37-.474.709,0,1.215a1.473,1.473,0,0,1,.07,1.411c-.522.765-.278,1.549-.326,2.321-.046.751-.01,1.507-.01,2.26v2.073a6.678,6.678,0,0,1-.052,2.24c-.281.737.215,1.309.068,1.972-.1.456.123.992-.373,1.339.546.341.373.893.343,1.359-.055.833.315,1.735-.353,2.49a.348.348,0,0,0,.061.331c.487.26-.358.885.306,1.077-.046.526.189,1.118-.354,1.53.546.341.345.889.347,1.36.014,3.2.009,6.4.005,9.607a3.166,3.166,0,0,1-.316,1.57c-.184.353.184,1,.324,1.508a2.053,2.053,0,0,0,.217.407c.051-.105.144-.208.147-.313.015-.565.007-1.131.007-1.7,0-.5-.205-1.237.044-1.457.48-.424-.132-.89.287-1.322.251-.259.046-.96.046-1.462v-1.7q0-12.244,0-24.49c0-.559.026-1.118.04-1.678.939-.3-.431-1.1.312-1.442a5.015,5.015,0,0,1-.27-3.773,21.86,21.86,0,0,0,.28-4.383C218.77,320.514,218.75,315.113,218.75,309.713Zm4.522,16.6v16.19c0,.439-.008.879.011,1.317,0,.053.152.112.242.14.025.008.114-.08.118-.128.014-.187.006-.376.006-.564V309.762a3.2,3.2,0,0,0-.012-.563c-.011-.062-.151-.113-.242-.141-.025-.008-.116.081-.117.128-.01.376-.006.753-.006,1.129Zm1.884,30.918v-9.972c0-.377.01-.754-.011-1.129,0-.056-.15-.116-.239-.148-.025-.008-.12.081-.121.127-.009.439-.006.878-.006,1.317v19.192c0,.376-.019.754.012,1.127.01.121.153.23.236.345a1,1,0,0,0,.124-.323Q225.16,362.5,225.156,357.234Zm-1.47-11.255-.166-1.132c-.489.343-.2.846-.231,1.27a6.905,6.905,0,0,0,.112,1.249C223.891,347.023,223.529,346.513,223.686,345.979Zm1.093-1.571c.081.358-.205.8.25,1.072.043-.354.092-.706.124-1.061a2.1,2.1,0,0,0-.008-.554c-.011-.061-.151-.111-.241-.139-.027-.008-.115.078-.119.126C224.771,344.036,224.779,344.222,224.779,344.408ZM205.5,357.443c-.039-.06-.121-.215-.138-.208a1.422,1.422,0,0,0-.536.289c-.05.054.1.294.166.45Zm13.194,19.284c-.483-.2-.638-.306-.68-.273a3.066,3.066,0,0,0-.394.439c.1.063.22.2.3.176A5.516,5.516,0,0,0,218.693,376.727Zm5.932-39.529c-.1.148-.219.25-.21.337a1.914,1.914,0,0,0,.176.469c.063-.1.179-.192.176-.285A2.253,2.253,0,0,0,224.625,337.2Zm.517,4.5c-.086-.138-.142-.29-.186-.287a2.7,2.7,0,0,0-.494.116c.047.082.091.232.143.235A2.866,2.866,0,0,0,225.142,341.7Zm-.063,1.57a2.88,2.88,0,0,0,.065-.538c0-.051-.153-.1-.236-.142a2.7,2.7,0,0,0-.116.494C224.789,343.124,224.941,343.179,225.079,343.266Zm-1.4,15.418-.219-.33a1.909,1.909,0,0,0-.175.469c-.01.088.113.189.175.285Zm0,4.992-.219-.423c-.062.1-.185.2-.175.285a1.966,1.966,0,0,0,.175.469Zm-.219-12.1c-.041.042-.124.093-.117.124a1.2,1.2,0,0,0,.117.253c.042-.042.125-.093.118-.124A1.135,1.135,0,0,0,223.46,351.571Zm.189,4.71c-.042-.042-.093-.124-.124-.117a1.132,1.132,0,0,0-.253.117c.042.042.093.125.124.118A1.182,1.182,0,0,0,223.649,356.281Zm-21.615,3.526.135-.134a1.206,1.206,0,0,0-.253-.118c-.031-.007-.082.076-.124.118Zm21.292,5.95.134.134a1.182,1.182,0,0,0,.118-.253c.007-.031-.076-.082-.118-.124Zm-2.826,4.225.134-.134a1.182,1.182,0,0,0-.253-.118c-.031-.007-.082.076-.124.118Zm12.247,1.051.135.134a1.177,1.177,0,0,0,.117-.253c.007-.031-.076-.082-.117-.124Z" fill="#3d466e"/></g></g></svg>