<svg xmlns="http://www.w3.org/2000/svg" xmlns:xlink="http://www.w3.org/1999/xlink" width="945.823" height="833.814" viewBox="0 0 945.823 833.814"><defs><linearGradient id="a" x1="-0.372" y1="0.431" x2="11.483" y2="1.167" gradientUnits="objectBoundingBox"><stop offset="0" stop-color="#f0d16d"/><stop offset="0.998" stop-color="#e4b26d"/><stop offset="1" stop-color="#d15a3a"/></linearGradient></defs><g transform="translate(-345.98 -258.355)"><g transform="translate(284.634 144.941)"><path d="M-1762.654-458.133h0V-999.349c5.109-5.3,10.621-10.5,16.383-15.467,5.905-5.092,12.245-10.084,18.843-14.838,6.753-4.866,13.971-9.623,21.453-14.138,7.649-4.615,15.8-9.112,24.215-13.365,10.542-5.325,21.016-10.009,31.132-13.922a272.664,272.664,0,0,1,28.934-9.432,221.661,221.661,0,0,1,26.883-5.355,189.7,189.7,0,0,1,24.98-1.693c28.5,0,55.423,6.771,82.3,20.7a265.37,265.37,0,0,1,33.915,21.219c11.738,8.525,22.517,17.478,30.6,24.325,4.529,3.838,9.023,7.714,13.369,11.463l.031.027c16.772,14.466,32.613,28.129,48.648,38.207a120.416,120.416,0,0,0,24.307,12.053,82.681,82.681,0,0,0,12.489,3.326,72.227,72.227,0,0,0,12.842,1.168,73.363,73.363,0,0,0,19.42-2.679,126.494,126.494,0,0,0,24.394-9.792,236.777,236.777,0,0,0,24.871-15.026c16.742-11.4,33.486-24.965,51.213-39.322,23.36-18.919,47.511-38.478,72.214-53.216A199.466,199.466,0,0,1-1081.676-1093a132.608,132.608,0,0,1,19.141-5.047,108.83,108.83,0,0,1,19.391-1.791,99.708,99.708,0,0,1,16.118,1.309,101.308,101.308,0,0,1,16.29,4.107,113.069,113.069,0,0,1,16.463,7.179,136.906,136.906,0,0,1,16.639,10.523,175.989,175.989,0,0,1,16.817,14.141,234.583,234.583,0,0,1,17,18.031c5.732,6.732,11.512,14.2,17.179,22.193,5.79,8.168,11.632,17.128,17.364,26.629a462.149,462.149,0,0,1,23.691,44.432,384.489,384.489,0,0,1,16.9,42.981,331.836,331.836,0,0,1,10.559,41.518,300.073,300.073,0,0,1,4.674,40.044,285.909,285.909,0,0,1-.757,38.559,287.289,287.289,0,0,1-5.733,37.062A302.819,302.819,0,0,1-870.2-715.573a331.714,331.714,0,0,1-14.323,34.035c-36.938,75.837-106.424,148.584-206.526,216.22Z" transform="translate(1824 1392.778)" fill="#e3e4f2"/><g transform="translate(103.911 0)"><g transform="translate(666.282 745.78)"><g transform="translate(43.709)"><path d="M641.61,382.967c-.209.009-.452-1.229-.77-3.458s-.716-5.455-1.565-9.31a30.159,30.159,0,0,0-5.464-12.286,20.209,20.209,0,0,0-13.979-7.229,24.033,24.033,0,0,0-8.364.67,22.278,22.278,0,0,0-7.062,3.337,27.716,27.716,0,0,0-8.619,10.241,34.56,34.56,0,0,0-2.94,8.785c-.431,2.175-.549,3.422-.786,3.422-.17,0-.443-1.253-.358-3.558a28.558,28.558,0,0,1,11.1-21.1,24.324,24.324,0,0,1,7.9-3.922,26.016,26.016,0,0,1,9.419-.819,22.385,22.385,0,0,1,15.833,8.488,30.066,30.066,0,0,1,5.37,13.57,58.964,58.964,0,0,1,.664,9.635C641.953,381.7,641.807,382.954,641.61,382.967Z" transform="translate(-591.688 -347.625)" fill="#152e6b"/></g><path d="M580.032,357.928,577.28,503.946l118.493,16.315,29.652-15.08L692,366.236,588.336,354.91Z" transform="translate(-577.28 -332.811)" fill="#35469b"/><path d="M580.032,355.9l103.65,13.05,12.09,149.282L577.28,501.922Z" transform="translate(-577.28 -330.787)" fill="#5665c7"/><g transform="translate(24.184 1.257)"><path d="M629.749,381.456c-.237-.027-.239-1.168-.422-3.164a31.874,31.874,0,0,0-1.76-8.2,32.909,32.909,0,0,0-2.4-5.221,34.371,34.371,0,0,0-3.856-5.306,27.217,27.217,0,0,0-12.4-7.869,17.319,17.319,0,0,0-7.411-.537,14.512,14.512,0,0,0-6.292,2.685,20.254,20.254,0,0,0-6.971,9.638,35.858,35.858,0,0,0-1.8,8.212c-.231,2.005-.328,3.143-.546,3.152-.188.009-.485-1.11-.607-3.185a27.414,27.414,0,0,1,.958-8.816,21.313,21.313,0,0,1,7.323-11.176,16.815,16.815,0,0,1,7.444-3.364,19.676,19.676,0,0,1,8.692.543,28.592,28.592,0,0,1,13.651,8.922,33.751,33.751,0,0,1,3.965,5.931,31.145,31.145,0,0,1,2.236,5.77,25.063,25.063,0,0,1,.916,8.819C630.3,380.374,629.916,381.481,629.749,381.456Z" transform="translate(-585.252 -348.04)" fill="#152e6b"/></g><path d="M620.67,358.643l-8.316,4.743,12.09,149.282,29.652-15.08Z" transform="translate(-505.952 -325.219)" fill="#1e327a"/><path d="M582.667,374.19v17.562l74.7,11.359V383.229Z" transform="translate(-566.323 -293.602)" fill="#7ea1f4"/></g><g transform="translate(242.325 113.414)"><g transform="translate(39.003)"><path d="M788.651,958.293l-277.991-1.286a60.543,60.543,0,0,1-60.275-60.794l2.946-696.757a60.548,60.548,0,0,1,60.837-60.281l277.987,1.283a60.55,60.55,0,0,1,60.278,60.8l-2.946,696.754A60.552,60.552,0,0,1,788.651,958.293Z" transform="translate(-450.385 -139.174)" fill="#121e3a"/><path d="M779.386,148.383l-53.9-.249c-7.226-.033-13.111,6.064-13.142,13.618l-.042,9.774c-.033,7.554-5.919,13.651-13.148,13.618L594.1,184.656c-7.226-.03-13.06-6.183-13.03-13.736l.043-9.774c.03-7.554-5.8-13.706-13.032-13.739l-18.954-.088-47.176-.215a42.405,42.405,0,0,0-42.6,42.219L456.47,869.406a42.4,42.4,0,0,0,42.213,42.577l277.435,1.28a42.4,42.4,0,0,0,42.6-42.219L821.6,190.96A42.408,42.408,0,0,0,779.386,148.383Z" transform="translate(-438.01 -123.051)" fill="#fff"/></g><rect width="293.081" height="206.987" rx="2" transform="translate(92.227 518.09)" fill="#14bda4"/><g transform="translate(142.771 551.865)"><g transform="translate(0 0)"><path d="M486.439,324.92h16.036c2.891,0,17.028.962,14.234-1.283,4.693,3.765,7.481,19.352,9.568,24.733q13.078,33.828,26.153,67.644a1.983,1.983,0,0,0,1.844,1.408h72.765a1.893,1.893,0,0,0,1.656-.949q15.417-33.3,30.831-66.6a1.939,1.939,0,0,0-1.65-2.882H564.14a1.915,1.915,0,0,0,0,3.828H636.3c5.282,0,10.994.61,16.248,0,1.362-.158,2.77.127,4.132,0,2.136-.194-.209-3.185-.925-1.875-5.9,10.785-10.448,22.573-15.611,33.722q-4.582,9.9-9.165,19.8c-1.332,2.873-2.915,9.611-5.409,11.679,2.005-1.665-3.322-.552-6.1-.552H598.4c-13.521,0-27.294.774-40.8,0-5.063-.288-.434,2.321-2.221-.494-2.354-3.71-3.479-9.007-5.072-13.114q-14.98-38.743-29.96-77.488a1.987,1.987,0,0,0-1.844-1.408H486.439c-2.463,0-2.466,3.832,0,3.832Z" transform="translate(-484.591 -321.089)" fill="#fff"/><g transform="translate(123.731 106.007)"><path d="M547.7,369.1c-.637,11.846-18.5,11.953-18.5,0s17.862-11.846,18.5,0c.13,2.454,3.959,2.469,3.828,0-.379-7.09-5.676-13.072-13.075-13.072a13.065,13.065,0,0,0-.607,26.117c7.633.349,13.287-5.7,13.682-13.045C551.661,366.648,547.832,366.654,547.7,369.1Z" transform="translate(-525.377 -356.033)" fill="#fff"/></g><g transform="translate(60.379 106.007)"><path d="M526.816,369.1c-.637,11.846-18.5,11.953-18.5,0s17.859-11.846,18.5,0c.13,2.454,3.962,2.469,3.825,0-.379-7.09-5.67-13.072-13.072-13.072a13.065,13.065,0,0,0-.61,26.117c7.636.349,13.287-5.7,13.682-13.045C530.778,366.648,526.946,366.654,526.816,369.1Z" transform="translate(-504.494 -356.033)" fill="#fff"/></g></g><g transform="translate(53.645 51.456)"><path d="M503.6,342.208c33.534,2.105,68.16,1.468,101.748.507a1.885,1.885,0,0,0,0-3.768c-33.589-.962-68.214-1.6-101.748.51a1.377,1.377,0,0,0,0,2.751Z" transform="translate(-502.274 -338.051)" fill="#fff"/></g><g transform="translate(63.298 73.828)"><path d="M506.436,349.529c26.963,2.967,57.26,2.384,84.308.443a1.465,1.465,0,0,0,0-2.927c-27.063-1.939-57.357-2.527-84.308.449a1.019,1.019,0,0,0,0,2.036Z" transform="translate(-505.456 -345.425)" fill="#fff"/></g><g transform="translate(128.352 31.667)"><path d="M541.282,331.72c-5.124,20.723-9.1,41.725-14.361,62.4-.188.731.98,1.038,1.122.31,4.111-20.947,9.514-41.637,13.758-62.572.067-.337-.437-.479-.519-.143Z" transform="translate(-526.9 -331.528)" fill="#fff"/></g><g transform="translate(109.678 36.353)"><path d="M521.428,333.2c-.4,19.315-1.429,38.652.231,57.933a.659.659,0,0,0,1.316,0c.246-19.312-.871-38.63-1.277-57.933a.135.135,0,0,0-.27,0Z" transform="translate(-520.745 -333.072)" fill="#fff"/></g><g transform="translate(76.767 37.664)"><path d="M509.9,333.767c4.417,18.848,7.208,38.115,12.89,56.665.206.673,1.389.592,1.292-.176-2.475-19.4-9.341-37.66-13.776-56.6-.067-.264-.467-.152-.406.112Z" transform="translate(-509.896 -333.504)" fill="#fff"/></g></g><rect width="312.639" height="312.638" transform="translate(79.491 169.567)" fill="#7ea1f4"/><g transform="translate(268.911 416.316)"><path d="M661.708,415.694l-131.724.03a3.782,3.782,0,0,1-3.783-3.783l-.03-131.721a3.779,3.779,0,0,1,3.78-3.783l131.724-.03a3.78,3.78,0,0,1,3.783,3.783l.03,131.721A3.781,3.781,0,0,1,661.708,415.694Z" transform="translate(-526.171 -276.407)" fill="#896ccb"/><g transform="translate(33.607 14.767)"><text transform="translate(0.017 75.015) rotate(-0.013)" fill="#1c1a3e" font-size="77" font-family="Montserrat-Regular, Montserrat"><tspan x="0" y="0">%</tspan></text></g></g><g transform="translate(0 84.182)"><path d="M498.992,166.923l-61.464,66.81H901.292l-40.234-66.81Z" transform="translate(-437.528 -166.923)" fill="#f0f2f6"/><path d="M459.114,188.946v25.831A32.926,32.926,0,0,0,492.041,247.7h0a32.926,32.926,0,0,0,32.927-32.924V188.946Z" transform="translate(-393.63 -122.137)" fill="#d0d2e5"/><path d="M502.289,188.946v25.831A32.922,32.922,0,0,0,535.213,247.7h0a32.926,32.926,0,0,0,32.927-32.924V188.946Z" transform="translate(-305.827 -122.137)" fill="#d0d2e5"/><path d="M545.461,188.946v25.831c0,18.184,16.466,32.924,36.777,32.924h0c20.31,0,36.777-14.74,36.777-32.924l-1.453-25.831Z" transform="translate(-218.031 -122.137)" fill="#d0d2e5"/><g transform="translate(0 66.809)"><path d="M437.528,188.946v25.831A32.922,32.922,0,0,0,470.452,247.7h0a32.926,32.926,0,0,0,32.927-32.924V188.946Z" transform="translate(-437.528 -188.946)" fill="url(#a)"/><path d="M480.7,188.946v25.831A32.927,32.927,0,0,0,513.628,247.7h0a32.926,32.926,0,0,0,32.927-32.924V188.946Z" transform="translate(-349.73 -188.946)" fill="url(#a)"/><path d="M523.874,188.946v25.831A32.926,32.926,0,0,0,556.8,247.7h0a32.924,32.924,0,0,0,32.927-32.924V188.946Z" transform="translate(-261.932 -188.946)" fill="url(#a)"/><path d="M569.228,188.946l1.453,25.831c0,18.184,14.052,32.924,31.392,32.924h0c17.337,0,31.389-14.74,31.389-32.924V188.946Z" transform="translate(-169.698 -188.946)" fill="url(#a)"/></g><path d="M553.025,166.923l-50.013,66.81H437.528l61.464-66.81Z" transform="translate(-437.528 -166.923)" fill="#d6a259"/><path d="M520.111,166.923,480.7,233.733h65.49l24.518-66.81Z" transform="translate(-349.73 -166.923)" fill="#d6a259"/><path d="M537.8,166.923l-13.921,66.81h65.487v-66.81Z" transform="translate(-261.93 -166.923)" fill="#d6a259"/><path d="M558.331,166.923l33.059,66.81h64.234l-40.234-66.81Z" transform="translate(-191.859 -166.923)" fill="#d6a259"/></g><g transform="translate(97.503 246.023)"><rect width="275.113" height="161.023" rx="6.123" fill="#5665c7"/><rect width="50.31" height="24.678" transform="translate(203.23 116.004)" fill="#1f2f6e"/><rect width="50.31" height="33.05" transform="translate(21.39 26.027)" fill="#eac689"/><rect width="31.64" height="10.868" transform="translate(17.802 85.637)" fill="#fff"/><rect width="36.09" height="10.868" transform="translate(55.518 85.637)" fill="#fff"/><rect width="36.092" height="10.868" transform="translate(96.751 85.637)" fill="#fff"/><rect width="25.14" height="10.868" transform="translate(226.204 85.637)" fill="#fff"/><rect width="36.09" height="10.868" transform="translate(137.346 85.637)" fill="#fff"/><rect width="42.284" height="10.868" transform="translate(176.662 85.637)" fill="#fff"/><rect width="106.115" height="6.71" transform="translate(17.802 116.004)" fill="#fff" opacity="0.55"/><rect width="106.115" height="6.713" transform="translate(17.802 130.067)" fill="#fff" opacity="0.55"/></g></g><path d="M599.252,238.554H769.861s-6.668-10.554-23.9-11.109l-17.228-.555s5-13.891-7.226-19.449S674.274,223,674.274,223s3.337-5-7.778-6.11-31.122,13.333-31.122,13.333S596.474,231.889,599.252,238.554Z" transform="translate(133.397 111.178)" fill="#fff"/><g transform="translate(0 749.517)"><rect width="148.302" height="135.619" transform="translate(57.173 52.644)" fill="#f98091"/><rect width="170.741" height="35.127" transform="translate(44.488 42.886)" fill="#c94f55"/><rect width="35.21" height="145.378" transform="translate(113.182 42.886)" fill="#facf48"/><g transform="translate(60.219)"><path d="M443.214,389c.015.3-2.239.822-6.383,1.025a83.668,83.668,0,0,1-17.544-1.065,98.147,98.147,0,0,1-25.046-7.605c-2.254-1.026-4.526-2.166-6.8-3.425-2.218-1.292-4.648-2.418-6.971-4.766a10.712,10.712,0,0,1-2.567-4.408,11.408,11.408,0,0,1-.221-5.109,16.31,16.31,0,0,1,4.56-8.47c4.742-4.569,10.921-6.228,16.609-6.322a34.8,34.8,0,0,1,15.69,3.725,62.364,62.364,0,0,1,11.9,7.751,75.506,75.506,0,0,1,9,8.337,33.943,33.943,0,0,1,5.715,8.576,23.8,23.8,0,0,1,2.042,7.53c.334,4.32-.722,6.565-.977,6.486-.4-.061-.046-2.348-.916-6.186a29.224,29.224,0,0,0-8.4-14.018,82.768,82.768,0,0,0-8.964-7.49,62.665,62.665,0,0,0-11.328-6.874,31.062,31.062,0,0,0-13.679-3.009,23,23,0,0,0-7.117,1.28,16.7,16.7,0,0,0-6.088,3.686,11.547,11.547,0,0,0-3.231,5.858,5.875,5.875,0,0,0,1.471,5.345c1.356,1.477,3.64,2.724,5.776,3.983,2.142,1.241,4.287,2.378,6.416,3.413a107.676,107.676,0,0,0,23.769,8.291C434.052,388.64,443.2,388.164,443.214,389Z" transform="translate(-377.499 -348.857)" fill="#facf48"/></g><path d="M401.455,373.367a10.358,10.358,0,0,1-.312-11.98,9.339,9.339,0,0,1,11.416-2.918,8.517,8.517,0,0,1,3.728,10.948,10.078,10.078,0,0,1-5.427,4.614c-3.279,1.283-7.3,1.153-10.02-1.08s-3.495-6.792-1.08-9.359" transform="translate(-274.954 -331.112)" fill="#facf48"/><g transform="translate(124.965 2.039)"><path d="M398.855,382.593c.233-.319,2.139.974,5.906,2.33a39.992,39.992,0,0,0,16.57,2.042c7.093-.5,15.317-2.982,24.275-6.559,4.478-1.835,9.4-3.477,13.536-6a17.9,17.9,0,0,0,5.263-4.69,11.911,11.911,0,0,0,2.312-6.371,7.484,7.484,0,0,0-2.23-5.7,11.445,11.445,0,0,0-5.816-3.009c-4.472-.916-9.447.2-13.861,1.477A52.556,52.556,0,0,0,423.7,368.768,57.44,57.44,0,0,0,413.559,382.3q-.7,1.333-1.259,2.391-.505,1.024-.877,1.784c-.5.965-.843,1.453-1,1.4s-.139-.631.064-1.723c.109-.54.231-1.217.455-1.993q.387-1.174.877-2.651a48.082,48.082,0,0,1,9.374-15.153,52.978,52.978,0,0,1,22.246-14.568,35.494,35.494,0,0,1,3.713-1.077,33.591,33.591,0,0,1,3.9-.816,24.99,24.99,0,0,1,8.567.009,16.108,16.108,0,0,1,8.342,4.28,12.423,12.423,0,0,1,3.686,9.325,16.638,16.638,0,0,1-3.252,9.058,22.328,22.328,0,0,1-6.735,5.955,48.371,48.371,0,0,1-7.4,3.5q-3.6,1.347-7.05,2.63c-9.183,3.4-18.047,5.715-25.722,5.791a36.394,36.394,0,0,1-17.5-3.768C400.211,384.662,398.679,382.808,398.855,382.593Z" transform="translate(-398.842 -349.529)" fill="#facf48"/></g><rect width="57.173" height="11.077" transform="translate(0 131.536)" fill="#f7b643"/><rect width="50.571" height="45.65" transform="translate(6.602 142.613)" fill="#f4a240"/><path d="M425.38,383.656c0-.373,61.2,0,61.2,0v18.987h-6.328V466.69H425.38Z" transform="translate(-219.907 -278.425)" fill="#5d7bf0"/><g transform="translate(205.16 123.732)"><path d="M480.465,390.13a9.239,9.239,0,0,1-2.172.164c-1.6.033-3.58.07-5.909.118-5.221.079-12,.188-19.506.309-7.617.109-14.525.121-19.518.015-2.5-.048-4.52-.115-5.916-.194a9.314,9.314,0,0,1-2.166-.218,9.091,9.091,0,0,1,2.169-.167q2.412-.045,5.913-.115l19.509-.309c7.614-.109,14.522-.121,19.515-.018,2.5.052,4.52.118,5.916.2A9.3,9.3,0,0,1,480.465,390.13Z" transform="translate(-425.277 -389.644)" fill="#3364f5"/></g><g transform="translate(56.039 78.022)"><path d="M527.421,375.071c0,.27-33.871.491-75.647.491s-75.653-.221-75.653-.491,33.865-.495,75.653-.495S527.421,374.8,527.421,375.071Z" transform="translate(-376.121 -374.576)" fill="#3364f5"/></g><g transform="translate(5.944 142.636)"><path d="M412.154,396.369c0,.27-11.764.491-26.271.491s-26.274-.221-26.274-.491,11.761-.494,26.274-.494S412.154,396.1,412.154,396.369Z" transform="translate(-359.608 -395.875)" fill="#3364f5"/></g></g><g transform="translate(229.704 363.61)"><path d="M481.986,263.147s-60.712,64.841-46.448,85.139S499.976,386.8,499.976,386.8l5.194-26.723s-42.923-15.1-36.871-26.265,38.412-47.564,38.412-47.564Z" transform="translate(-433.367 -137.253)" fill="#d78142"/><g transform="translate(232.463 123.801)"><path d="M510,279.024s25.777-18.52,28.683-16.4c1.738,1.268-6.1,6.987-6.1,6.987s19.282-.012,19.555,2.454-20.368,2.2-14.4,2.463,14.838,1.2,12.408,3.176-11.786,1.4-11.786,1.4,6.186,2.612,5.849,4.42-9.735-2-13.606,2.509-9.8,10.072-9.8,10.072Z" transform="translate(-509.996 -262.457)" fill="#e7bc90"/></g><path d="M472.885,282.185s42.753,60.445,62,52.527,72.471-50.847,72.471-50.847L595,264.642s-57.257,37.544-62.784,35.26-29.308-34.356-29.308-34.356Z" transform="translate(-353.003 -134.213)" fill="#d78142"/><path d="M462.8,406.589s-1.954,14.625-1.954,21.463l41.843,1.113c-.388-1.044-7.724-4.557-18.214-4.814l3.37-15.335S471.816,406.537,462.8,406.589Z" transform="translate(-377.492 154.454)" fill="#14365b"/><path d="M444.562,406.589s-1.945,14.625-1.945,21.463l41.843,1.113c-.391-1.044-7.727-4.557-18.22-4.814l3.373-15.335S453.587,406.537,444.562,406.589Z" transform="translate(-414.558 154.454)" fill="#14365b"/><path d="M555.544,337.912V337.9c-2.937-12.4-22.8-41.764-22.8-41.764l-43.933-.091L470.9,340.263c-4.663,11.3-10.721,35.931-8.867,86.143,2.918,79-19.412,215.971-19.412,215.971h25.116s23.307-89.868,32-143.494c7.266-44.84,11-99.352,11-99.352s-.625-11.155,3.161-12.574,4.083,12.574,4.083,12.574-2.384,94.762-5.136,122.1-14.941,120.742-14.941,120.742h24.931s28.143-114.311,40.208-197.942C571.155,388.228,562.255,354.2,555.544,337.912Z" transform="translate(-414.558 -70.356)" fill="#7ea1f4"/><path d="M446.573,289.852s8.967-28.756,40.1-30.946c23.268-1.635,31.959-2.042,31.959-2.042s26.174,2.221,39.883,27.066l-15.368,32.575-11.382,71H475.05l-5.818-72.692Z" transform="translate(-406.512 -150.03)" fill="#d78142"/><path d="M476.126,306.4c6.668,1.547,13.791-3.179,16.13-9.614s.479-13.87-3.568-19.388l-10.069-2.187Z" transform="translate(-346.412 -112.709)" fill="#d78142"/><g transform="translate(98.65 271.669)" opacity="0.23"><path d="M487.119,311.2H465.886v16.682l10.615,6.672,10.618-6.672Z" transform="translate(-465.886 -311.2)" fill="#1f2f6e"/></g><g transform="translate(80.025 273.711)"><path d="M461.486,311.873c.182.042-.7,2.924-.919,7.705a38.464,38.464,0,0,0,15.026,32.493c3.786,2.931,6.553,4.123,6.468,4.293a7.8,7.8,0,0,1-1.96-.774,32.621,32.621,0,0,1-4.924-2.961,37.065,37.065,0,0,1-15.3-33.094,32.688,32.688,0,0,1,.931-5.67A7.445,7.445,0,0,1,461.486,311.873Z" transform="translate(-459.747 -311.873)" fill="#14365b"/></g><g transform="translate(105.762 238.865)"><g transform="translate(0 321.594)"><path d="M470.468,406.4c.267.052.006,2.588-.582,5.667s-1.283,5.53-1.55,5.482-.006-2.591.585-5.667S470.2,406.345,470.468,406.4Z" transform="translate(-468.23 -406.396)" fill="#14365b"/></g><g transform="translate(6.171 279.906)"><path d="M474.315,392.654c.267.052-.413,4.76-1.514,10.515s-2.209,10.381-2.479,10.33.41-4.757,1.514-10.515S474.048,392.6,474.315,392.654Z" transform="translate(-470.265 -392.654)" fill="#14365b"/></g><g transform="translate(14.156 238.221)"><path d="M476.944,378.913c.267.048-.409,4.757-1.511,10.512s-2.215,10.381-2.478,10.333.406-4.763,1.511-10.518S476.677,378.859,476.944,378.913Z" transform="translate(-472.897 -378.913)" fill="#14365b"/></g><g transform="translate(22.135 196.53)"><path d="M479.58,365.17c.267.052-.413,4.76-1.514,10.514s-2.211,10.381-2.482,10.333.413-4.76,1.514-10.518S479.31,365.122,479.58,365.17Z" transform="translate(-475.527 -365.17)" fill="#14365b"/></g><g transform="translate(30.116 154.814)"><path d="M482.078,351.419c.267.049-.379,4.76-1.447,10.524s-2.145,10.4-2.412,10.345.379-4.76,1.444-10.521S481.808,351.374,482.078,351.419Z" transform="translate(-478.158 -351.419)" fill="#14365b"/></g><g transform="translate(37.27 112.759)"><path d="M482.988,337.556c.27.021-.042,4.769-.7,10.6s-1.408,10.533-1.678,10.493.043-4.784.7-10.6S482.715,337.535,482.988,337.556Z" transform="translate(-480.516 -337.556)" fill="#14365b"/></g><g transform="translate(39.684 70.37)"><path d="M481.431,323.583c.264-.027.968,4.693,1.207,10.566.255,5.873-.049,10.636-.3,10.63-.288,0-.428-4.748-.679-10.587S481.154,323.61,481.431,323.583Z" transform="translate(-481.312 -323.583)" fill="#14365b"/></g><g transform="translate(30.807 28.99)"><path d="M478.417,309.944c.246-.094,2.12,4.3,3.716,9.969s2.324,10.387,2.069,10.436c-.279.058-1.426-4.547-3.018-10.166S478.153,310.041,478.417,309.944Z" transform="translate(-478.386 -309.943)" fill="#202c43"/></g><g transform="translate(16.115)"><path d="M473.571,300.395c.221-.155,1.744,1.89,3.4,4.572s2.8,4.957,2.563,5.087-1.76-1.914-3.4-4.569S473.346,300.552,473.571,300.395Z" transform="translate(-473.543 -300.386)" fill="#202c43"/></g></g><g transform="translate(40.338 309.663)"><g transform="translate(49.557)"><path d="M463.339,335.07c-.27-.009-.41-2.557-.3-5.688s.407-5.664.68-5.658.41,2.554.3,5.691S463.612,335.079,463.339,335.07Z" transform="translate(-463 -323.724)" fill="#14365b"/></g><g transform="translate(46.751 34.049)"><path d="M462.2,357.609c-.273-.027-.088-5.118.413-11.373s1.126-11.306,1.4-11.288.085,5.1-.416,11.367S462.471,357.63,462.2,357.609Z" transform="translate(-462.075 -334.948)" fill="#14365b"/></g><g transform="translate(41.37 79.314)"><path d="M460.378,372.4c-.267-.036.185-5.112,1.019-11.328s1.723-11.234,2-11.2-.188,5.1-1.019,11.331S460.648,372.439,460.378,372.4Z" transform="translate(-460.302 -349.869)" fill="#14365b"/></g><g transform="translate(33.578 124.291)"><path d="M457.787,387.038c-.264-.055.461-5.1,1.62-11.264s2.315-11.124,2.585-11.079-.455,5.087-1.617,11.264S458.054,387.093,457.787,387.038Z" transform="translate(-457.733 -364.695)" fill="#14365b"/></g><g transform="translate(23.421 168.855)"><path d="M454.427,401.476c-.264-.073.725-5.066,2.209-11.161s2.9-10.988,3.17-10.93-.725,5.057-2.212,11.161S454.692,401.543,454.427,401.476Z" transform="translate(-454.385 -379.385)" fill="#14365b"/></g><g transform="translate(10.919 212.879)"><path d="M450.3,415.67c-.258-.085.995-5.021,2.8-11.027s3.48-10.815,3.743-10.745-.992,5.012-2.8,11.03S450.558,415.752,450.3,415.67Z" transform="translate(-450.264 -393.897)" fill="#14365b"/></g><g transform="translate(0 256.24)"><path d="M446.721,418.9c-.255-.091.382-2.563,1.423-5.515s2.093-5.276,2.351-5.191-.379,2.56-1.423,5.518S446.978,418.989,446.721,418.9Z" transform="translate(-446.664 -408.19)" fill="#14365b"/></g></g><path d="M471.837,246.6c.613.537,1.229,28.455,1.229,28.455l-18.141,8.194,62.532-.51-16.782-7.991.616-27.5Z" transform="translate(-389.53 -170.908)" fill="#e7bc90"/><g transform="translate(51.622)"><path d="M474.8,223.518s13.885,5.124,16.445,16.133a120.157,120.157,0,0,1,2.612,23.08h-9.526Z" transform="translate(-400.727 -217.844)" fill="#1f2f6e"/><path d="M478.275,222.659c-14.455,7.523-23.186,23.268-26.244,39.274s-1.25,32.5.57,48.69c.276,2.454.652,5.121,2.421,6.844,2.172,2.121,5.606,2.045,8.637,1.832q15.039-1.078,30.075-2.139.51-4.218,1.007-8.44a48.659,48.659,0,0,0,45.744,7.035,4.936,4.936,0,0,0,2.542-1.638c1.044-1.541.206-3.6-.519-5.312-3.119-7.432-3.516-15.681-3.868-23.732q-.724-16.35-1.444-32.7c-.322-7.332-.9-15.311-5.834-20.744-5.542-6.1-14.859-5.561-22.886-7.414-11.525-2.67-24.9-3.376-30.2-1.556" transform="translate(-450.384 -221.648)" fill="#1f2f6e"/></g><g transform="translate(111.04 113.944)"><path d="M510.478,330.511a3.506,3.506,0,0,1-.752-.616c-.546-.513-1.216-1.144-2.023-1.905-1.832-1.787-4.3-4.2-7.308-7.135-3.094-3.073-6.729-6.68-10.748-10.675-4-4.047-8.622-8.352-12.574-13.7a34.116,34.116,0,0,1-7-17.2,22.508,22.508,0,0,1,.725-8.176,17.83,17.83,0,0,1,3.313-6.34,15.041,15.041,0,0,1,8.649-5.4,8.83,8.83,0,0,1,3.765.061,21.953,21.953,0,0,0-3.689.315,15.065,15.065,0,0,0-8.182,5.458,17.417,17.417,0,0,0-3.07,6.128,22.028,22.028,0,0,0-.607,7.869,33.634,33.634,0,0,0,6.9,16.7c3.874,5.254,8.458,9.562,12.423,13.648,3.965,4.05,7.551,7.708,10.6,10.824,2.915,3.025,5.309,5.512,7.086,7.36.755.813,1.38,1.486,1.89,2.033A3.923,3.923,0,0,1,510.478,330.511Z" transform="translate(-469.97 -259.208)" fill="#152e6b"/></g><g transform="translate(54.24 128.712)"><path d="M459.726,300.143c-.137.027-.664-2.114-1.487-5.573-.91-3.753-2.035-8.379-3.279-13.5-1.8-7.293-3.173-13.688-3.713-16.879l.449-.115a8.92,8.92,0,0,1,.449,2.357,9.131,9.131,0,0,1-.892-2.227l.446-.115c.843,3.125,2.415,9.453,4.22,16.746,1.3,5.269,2.36,10.084,3,13.591A30.8,30.8,0,0,1,459.726,300.143Z" transform="translate(-451.247 -264.076)" fill="#152e6b"/></g><g transform="translate(178.052 164.97)"><path d="M492.327,287.031c-.273-.015-.349-2.494-.17-5.53s.543-5.491.813-5.473.349,2.491.17,5.53S492.6,287.049,492.327,287.031Z" transform="translate(-492.06 -276.028)" fill="#152e6b"/></g><g transform="translate(179.9 164.988)"><path d="M495.1,287.038c-.267.055-1-2.363-1.65-5.4s-.949-5.545-.683-5.6,1,2.357,1.65,5.4S495.366,286.98,495.1,287.038Z" transform="translate(-492.669 -276.034)" fill="#152e6b"/></g><g transform="translate(66.685 212.304)"><path d="M455.542,291.631c.261,0,.658,5.612,1.323,12.541.661,6.944.622,12.626.337,12.626-.261,0-.655-5.606-1.32-12.538S455.26,291.634,455.542,291.631Z" transform="translate(-455.349 -291.631)" fill="#152e6b"/></g></g><path d="M5.786,7.081c-5.925,5.7-8.181,14.551-2.527,21.389,5.322,6.434,15.619,7.8,22.268,2.67C41.572,18.755,24.845-4.1,7.529.636c-3.206.875-2.4,5.442.762,5.624,5.065.29,10.481.483,14.528,4.032a10.526,10.526,0,0,1,.875,14.638c-9.44,11.605-25.832-5.484-15.92-15.86A1.406,1.406,0,0,0,5.786,7.081Z" transform="translate(793.817 662.504) rotate(167)" fill="#14bda4"/><path d="M3.225,3.947c-3.3,3.174-4.56,8.111-1.409,11.922a9.245,9.245,0,0,0,12.412,1.488c8.943-6.9-.381-19.642-10.032-17a1.6,1.6,0,0,0,.425,3.135c2.823.162,5.842.269,8.1,2.247a5.867,5.867,0,0,1,.488,8.159c-5.262,6.469-14.4-3.057-8.874-8.84A.784.784,0,0,0,3.225,3.947Z" transform="translate(197.585 170.685) rotate(-68)" fill="#1f2f6e"/><path d="M3.743,4.581C-.09,8.265-1.549,13.993,2.108,18.417a10.73,10.73,0,0,0,14.4,1.727C26.892,12.132,16.071-2.651,4.87.411a1.861,1.861,0,0,0,.493,3.638c3.277.188,6.78.312,9.4,2.608a6.809,6.809,0,0,1,.566,9.469C9.22,23.633-1.383,12.578,5.029,5.866A.91.91,0,0,0,3.743,4.581Z" transform="translate(114.586 434.052) rotate(-104)" fill="#eac689"/><path d="M5.615,6.871C-.135,12.4-2.323,20.991,3.163,27.626c5.164,6.244,15.155,7.568,21.608,2.591C40.339,18.2,24.108-3.976,7.306.617c-3.111.849-2.331,5.281.739,5.457,4.915.282,10.171.468,14.1,3.912a10.214,10.214,0,0,1,.849,14.2C13.831,35.451-2.074,18.868,7.544,8.8A1.365,1.365,0,0,0,5.615,6.871Z" transform="translate(746.082 241.209) rotate(-42)" fill="#eac689"/><path d="M6.766,3.549c-2.531,13.139-4.692,26.3-6.7,39.532-.481,3.18,1.7,5.327,4.865,4.865C17.351,46.139,29.742,44.473,42,41.76a3.711,3.711,0,0,0,2.2-5.4C37.246,24.13,28.4,7.1,15.325.425c-3.306-1.69-8,1.966-5.523,5.523,3.894,5.6,9.651,9.8,14.175,14.922a104.971,104.971,0,0,1,13.872,19.2l3.175-5.533c-12.844,1.27-25.483,3.576-38.192,5.78l5.005,3.81c1.527-13.3,2.895-26.566,3.894-39.91C11.94,1.4,7.3.743,6.766,3.549Z" transform="translate(836.289 395.955) rotate(69)" fill="#e3707f"/></g></g></g></svg>