<svg xmlns="http://www.w3.org/2000/svg" width="178.483" height="85.631" viewBox="0 0 178.483 85.631"><g transform="translate(0 0)"><path d="M349.528,194.236h.336a1.658,1.658,0,0,1,1.007.336,2.589,2.589,0,0,1,1.175,1.175,5.336,5.336,0,0,1,.336,2.351v61.621a4.959,4.959,0,0,1-.336,2.183,3.378,3.378,0,0,1-1.847,1.511,10.327,10.327,0,0,1-2.183.168h-4.533l.336-.336v16.287l-.672-.672c-4.366-4.869-8.9-10.074-13.768-15.447l.336.168H176.754a2.983,2.983,0,0,1-1.679-.672,3.02,3.02,0,0,1-1.007-1.511,2.129,2.129,0,0,1-.168-1.007V196.922a2.991,2.991,0,0,1,1.679-2.686,3.028,3.028,0,0,1,1.679-.336h16.119c30.559,0,58.1,0,81.266.168,23.171,0,41.808.168,54.737.168h0c-12.929,0-31.566,0-54.737.168-23.171,0-50.707,0-81.266.168H177.258a1.417,1.417,0,0,0-1.175.336,2.489,2.489,0,0,0-1.343,2.015v62.628a4.648,4.648,0,0,0,.168,1.511,1.943,1.943,0,0,0,.84,1.175,1.907,1.907,0,0,0,1.343.5H330.219l.168.168c4.7,5.373,9.4,10.578,13.6,15.447l-.672.168V262.741h4.869a7.526,7.526,0,0,0,2.015-.168,2.68,2.68,0,0,0,1.511-1.175,3.321,3.321,0,0,0,.336-1.847V197.93a4.28,4.28,0,0,0-.336-2.183,2.645,2.645,0,0,0-1.175-1.175C350.032,194.236,349.528,194.4,349.528,194.236Z" transform="translate(-173.9 -193.9)" fill="#14365b"/><path d="M179.6,243.7c1.343-4.869,3.022-9.906,6.38-13.936,3.358-3.862,8.563-6.548,13.6-5.205,7.892,2.015,11.585,12.425,19.645,13.6,4.366.672,8.731-2.015,11.585-5.541,2.854-3.358,4.533-7.556,6.716-11.585,3.358-5.877,7.724-11.25,13.768-14.272s13.768-3.022,18.973,1.175c9.067,7.052,7.724,22.835,17.462,29.048a13.672,13.672,0,0,0,15.447-.5c4.2-3.19,6.38-8.563,10.914-11.418,5.205-3.358,12.425-2.015,17.126,2.015s7.22,10.074,8.059,16.119" transform="translate(-170.029 -186.616)" fill="#5987e4"/><g transform="translate(12.761 25.211)"><path d="M334.965,212.416a.52.52,0,0,1-.336-.168,8.182,8.182,0,0,0-1.175-.5,46.612,46.612,0,0,0-4.533-1.511,35.283,35.283,0,0,0-17.126.5,62.57,62.57,0,0,0-11.25,4.2c-3.862,1.847-7.892,4.03-12.257,6.212a105.884,105.884,0,0,1-13.936,6.212,43.564,43.564,0,0,1-16.287,2.351,54.294,54.294,0,0,1-15.951-4.03c-4.869-2.015-9.571-4.366-13.768-6.548-8.563-4.366-16.79-7.892-24.01-9.067a35.661,35.661,0,0,0-17.126,1.175,20.126,20.126,0,0,0-5.709,2.854l.336-.336c.336-.168.672-.5,1.007-.672a43.516,43.516,0,0,1,4.2-2.183,33.581,33.581,0,0,1,17.294-1.511c7.388,1.007,15.615,4.533,24.178,8.9a148.69,148.69,0,0,0,13.768,6.38A53.449,53.449,0,0,0,257.9,228.7a39.143,39.143,0,0,0,15.951-2.183,105.548,105.548,0,0,0,13.936-6.045c4.366-2.183,8.4-4.366,12.425-6.212a54.771,54.771,0,0,1,11.417-4.03,33.217,33.217,0,0,1,17.294-.168A20.929,20.929,0,0,1,334.965,212.416Z" transform="translate(-181.5 -208.915)" fill="#14365b"/></g><circle cx="1.847" cy="1.847" r="1.847" transform="translate(87.646 16.287)" fill="#184bb8"/><circle cx="1.847" cy="1.847" r="1.847" transform="translate(24.346 23.675)" fill="#184bb8"/><circle cx="1.847" cy="1.847" r="1.847" transform="translate(150.275 23.675)" fill="#184bb8"/></g></svg>