<svg xmlns="http://www.w3.org/2000/svg" width="104.446" height="104.437" viewBox="0 0 104.446 104.437"><g transform="translate(0 0)"><path d="M227.4,145.637h-95.37A4.515,4.515,0,0,1,127.5,141.1V45.733a4.515,4.515,0,0,1,4.533-4.533H227.4a4.515,4.515,0,0,1,4.533,4.533V141.1A4.412,4.412,0,0,1,227.4,145.637Z" transform="translate(-127.5 -41.2)" fill="#e3e4f2"/><path d="M201.731,56.568h0c-3.694,0-6.548.168-6.548.5s2.519.5,5.709.5a13.724,13.724,0,0,0-1.343,1.511c-1.343,1.511-3.022,3.358-5.037,5.709-4.366,5.037-10.074,11.585-16.79,19.309-2.351-1.511-4.7-3.19-7.052-4.7-1.175-.84-2.519-1.679-3.694-2.519l-.336-.168-.336.336c-7.556,8.731-14.1,16.623-18.805,22.163-2.183,2.686-4.2,5.037-5.541,6.716-1.343,1.511-2.015,2.519-1.847,2.519,0,0,.84-.84,2.183-2.351,1.511-1.679,3.358-3.862,5.709-6.548,4.869-5.373,11.418-13.1,18.805-21.66,1.007.672,2.183,1.511,3.358,2.183,2.519,1.679,5.037,3.358,7.388,4.869l.336.168.336-.336c6.716-7.892,12.425-14.776,16.79-19.813,2.015-2.351,3.694-4.366,4.869-5.877.672-.84,1.007-1.343,1.343-1.679h0c0,3.19.168,5.709.5,5.709s.5-2.854.5-6.212v-.5h-.5Z" transform="translate(-118.954 -30.878)" fill="#b5b7d6"/></g></svg>