<svg xmlns="http://www.w3.org/2000/svg" width="219.284" height="173.117" viewBox="0 0 219.284 173.117"><path d="M181.6,83.888V239.2a6.2,6.2,0,0,0,6.212,6.212H394.671a6.2,6.2,0,0,0,6.213-6.212V78.515A6.134,6.134,0,0,0,394.5,72.3L187.645,77.676A6.164,6.164,0,0,0,181.6,83.888Z" transform="translate(-181.6 -72.296)" fill="#5987e4"/><g transform="translate(12.425 32.935)"><path d="M377.389,97.769c0,.168-2.686-1.343-7.724-2.854a50.645,50.645,0,0,0-22-1.679,46.745,46.745,0,0,0-14.44,4.7,70.54,70.54,0,0,0-14.272,10.242c-4.7,4.2-9.235,8.731-14.608,13.1-5.373,4.2-11.418,8.227-18.637,10.074a29.976,29.976,0,0,1-10.914.672,33.662,33.662,0,0,1-10.074-3.19c-6.212-3.022-11.585-6.884-16.958-10.074a53.96,53.96,0,0,0-15.951-7.22,47.791,47.791,0,0,0-15.111-1.175,49.393,49.393,0,0,0-20.988,6.884c-4.533,2.686-6.548,4.869-6.716,4.7l1.511-1.511a39.417,39.417,0,0,1,4.869-3.694,48.053,48.053,0,0,1,21.156-7.388,45.861,45.861,0,0,1,15.615,1.007c5.541,1.175,11.082,3.862,16.455,7.22,5.373,3.19,10.746,7.052,16.791,9.906s13.1,4.2,19.981,2.351c6.884-1.679,12.761-5.541,18.134-9.738,5.205-4.2,9.906-8.9,14.608-12.929,4.7-4.2,9.571-7.892,14.608-10.242A48.908,48.908,0,0,1,347.67,92.4,46.2,46.2,0,0,1,370,94.579a31.845,31.845,0,0,1,5.541,2.351A6.128,6.128,0,0,1,377.389,97.769Z" transform="translate(-189 -91.911)" fill="#184bb8"/></g><g transform="translate(22.667 43.159)"><rect width="20.149" height="54.737" transform="translate(26.193 32.07)" fill="#184bb8"/><rect width="20.149" height="54.737" transform="translate(111.993 32.07)" fill="#184bb8"/><rect width="20.149" height="86.807" transform="translate(140.536)" fill="#184bb8"/><rect width="20.149" height="18.47" transform="translate(0 69.513)" fill="#184bb8"/><rect width="20.149" height="30.055" transform="translate(54.737 56.752)" fill="#184bb8"/><rect width="20.149" height="36.939" transform="translate(83.449 49.868)" fill="#184bb8"/></g><g transform="translate(22.835 135.506)"><g transform="translate(25.186)"><ellipse cx="10.914" cy="0.84" rx="10.914" ry="0.84" fill="#14365b"/></g><ellipse cx="10.914" cy="0.84" rx="10.914" ry="0.84" fill="#14365b"/><g transform="translate(139.865)"><ellipse cx="12.425" cy="0.84" rx="12.425" ry="0.84" fill="#14365b"/></g><g transform="translate(109.81)"><ellipse cx="12.425" cy="0.84" rx="12.425" ry="0.84" fill="#14365b"/></g><g transform="translate(81.602)"><ellipse cx="10.914" cy="0.84" rx="10.914" ry="0.84" fill="#14365b"/></g><g transform="translate(52.051)"><ellipse cx="10.914" cy="0.84" rx="10.914" ry="0.84" fill="#14365b"/></g></g></svg>