<svg xmlns="http://www.w3.org/2000/svg" width="85.781" height="120.052" viewBox="0 0 85.781 120.052"><g transform="translate(0 0)"><path d="M412.332,242.084a4.7,4.7,0,0,0,1.007-.168,2.988,2.988,0,0,0,2.015-2.015,4.649,4.649,0,0,0,.168-2.183v-9.4c0-10.242,0-24.85-.168-42.984V125.894a3.032,3.032,0,0,0-2.686-2.519H334.592a2.942,2.942,0,0,0-2.854,2.854V239.4a2.726,2.726,0,0,0,.84,1.511,3.247,3.247,0,0,0,1.511.84c.5.168,1.175,0,1.847.168H353.9c18.134,0,32.909.168,42.984.168h-.336c-10.242,0-24.85,0-42.984.168H335.6a8.174,8.174,0,0,1-2.015-.168,3.728,3.728,0,0,1-2.854-2.854,8.089,8.089,0,0,1,0-2.015V125.894a3.876,3.876,0,0,1,3.862-3.694h78.244a3.913,3.913,0,0,1,3.526,3.19,40.8,40.8,0,0,1,0,4.533V185c0,18.134-.168,32.909-.168,42.984v9.4a8.207,8.207,0,0,1-.168,2.183,3.115,3.115,0,0,1-2.183,2.015A3.9,3.9,0,0,1,412.332,242.084Z" transform="translate(-330.655 -122.2)" fill="#14365b"/><g transform="translate(20.384 23.6)"><path d="M370.675,137c-11.417-2.519-24.01,3.694-27.2,15.447-3.022,11.25,4.366,24.514,15.783,27.536,11.082,3.022,23.842-3.862,27.368-14.776,4.03-12.089-3.694-25.018-15.279-28.88-1.343-.5-1.847,1.679-.5,2.183,9.906,3.694,17.126,14.44,14.1,25.186-2.854,10.242-14.776,17.126-25.018,14.44-9.906-2.686-16.287-13.264-14.944-23,1.511-12.089,14.272-19.309,25.689-17.294.336-.168.5-.672,0-.84Z" transform="translate(-342.796 -136.255)" fill="#14365b"/></g><g transform="translate(36.529 22.553)"><path d="M352.9,180.073c11.585,3.526,25.018-3.19,28.544-15.111,3.526-12.257-4.366-25.522-16.287-29.215-2.686-.84-3.694,3.19-1.175,4.2,10.074,4.03,16.79,14.944,12.761,25.689-3.526,9.571-14.1,14.272-23.675,13.1a.687.687,0,0,0-.168,1.343Z" transform="translate(-352.411 -135.632)" fill="#5987e4"/></g><g transform="translate(19.72 86.639)"><ellipse cx="23.171" cy="0.504" rx="23.171" ry="0.504" fill="#184bb8"/></g><g transform="translate(19.72 93.691)"><ellipse cx="23.171" cy="0.504" rx="23.171" ry="0.504" fill="#184bb8"/></g></g></svg>