<svg xmlns="http://www.w3.org/2000/svg" width="713.574" height="423.373" viewBox="0 0 713.574 423.373"><g transform="translate(-358.299 -31.661)"><path d="M626.832,407.978c-21.092-96.152,117.947-167.671,35.916-303.654S509.514,108.5,446.689,125.767s-88.695,69.152-167.835,48.581-116.83,78.923-120.075,126.31c-3.245,47.3,10.559,65.259,38.682,107.32Z" transform="translate(211.46 45.67)" fill="#e3e4f2"/><path d="M281.792,178.249c-8.989-3.7-31.761-7.989-24.495,7.145,4.38,9.128,17.769,12.329,24.084,20.628-11.114,2.942-62.168-2.232-54.371,23.617,5.007,16.664,43.98,17.626,58.32,19.084-6.485.978-16.251,6.585-12.835,14.42,3.15,7.195,20.206,7.44,26.794,8.6-8.779,6.69-21.586,7.331-20.213,20.814,1.063,10.523,11.539,16.606,20.137,20.16,9.226,3.822,18.845,5.335,27.711,10.251,10.092,5.587,15.945,13.695,24.983,20.655-14.947-22.148,8.6-50.261,17.849-69.519,4.971-10.355,31.631-64.521-.266-56.541-5.911,1.487-35.2,43.9-35.922,21.124-.319-10.206,13.536-23.093,17.5-32.419,3.1-7.311,8.925-22.318,6.949-30.091-3.509-13.74-19.445-14.088-28.439-6.717-7.721,6.337-10.358,18.751-19.157,23.151-3.737-10.009,5.909-20.863,3.4-30.638-3.118-12.248-11.867-6.641-17.648.089.859-14.184-13.115-32.046-24.5-13.936-4.105,6.541-3.313,13.791-.121,20.311,2.163,4.451,5.065,13.2,6.808,10.523-.772.482,1.06.453,0,0" transform="matrix(0.616, 0.788, -0.788, 0.616, 945.588, -59.842)" fill="#14bda4"/><path d="M997.464,257.609s-64.188,107.432-68.943,129.571" fill="none" stroke="#2cd6bd" stroke-linecap="round" stroke-width="1"/><path d="M960.1,322.569c12.244-.551,48.044,1.114,51.867-2.379" fill="none" stroke="#2cd6bd" stroke-linecap="round" stroke-width="1"/><path d="M960.1,322.569c12.244-.551,29.047,15.338,56.83,0" transform="translate(-26 49)" fill="none" stroke="#2cd6bd" stroke-linecap="round" stroke-width="1"/><path d="M970.4,315.525c4.794,7.3,5.379,16.062,10.012,36.194" transform="translate(-7 -52.53)" fill="none" stroke="#2cd6bd" stroke-linecap="round" stroke-width="1"/><g transform="translate(278.46 13.449)"><path d="M-786.1-1434.219H-1257.76a274.19,274.19,0,0,1-3.324-30.629,263.179,263.179,0,0,1,.575-37.417A184.905,184.905,0,0,1-1253.1-1541a129.82,129.82,0,0,1,7.19-18.152,102.5,102.5,0,0,1,10-16.431,86.815,86.815,0,0,1,11.259-12.348,81.666,81.666,0,0,1,13.9-10.084,86.835,86.835,0,0,1,16.783-7.37,104.6,104.6,0,0,1,19.907-4.208,297.924,297.924,0,0,1,33.888-1.942c24.446,0,45.365,3.008,62.6,5.951,3.488.6,6.824,1.188,10.05,1.761,12.661,2.249,23.6,4.19,32.26,4.19a37.611,37.611,0,0,0,9.943-1.15,88.578,88.578,0,0,0,16.828-6.492,102.505,102.505,0,0,0,14.4-8.918c8.972-6.578,17.024-14.391,24.811-21.947,6.691-6.492,13.61-13.205,21.143-19.181a120.713,120.713,0,0,1,11.924-8.4,97.254,97.254,0,0,1,13.516-6.948,98.091,98.091,0,0,1,20.2-5.9,120.273,120.273,0,0,1,21.5-1.884,143.955,143.955,0,0,1,46.043,7.774c14.739,5.045,27.875,12.25,37.987,20.837a103.413,103.413,0,0,1,18.721,20.781,102.7,102.7,0,0,1,11.738,23.326c5.333,15.065,7.531,31.862,6.532,49.925-.327,5.907-.524,12.144-.732,18.748v.019c-.548,17.4-1.169,37.111-4.512,55.526-3.838,21.146-10.672,37.273-20.891,49.3Z" transform="translate(1439 1873.719)" fill="#b5b7d6" stroke="rgba(0,0,0,0)" stroke-width="1"/></g><path d="M338.7,179.173c42.1-13.508-25.375-120.226-65.869-75.911S257.451,8.042,185.323,48.971s-22.765,115.088-11.938,130.2Z" transform="translate(211.46 274.475)" fill="#5987e4"/><g transform="translate(600.055 212.838)"><path d="M577.782,127.346a25.539,25.539,0,0,1,2.066-8.114c.1-.233-.214-.436-.347-.2a15.494,15.494,0,0,0-2.028,8.317.155.155,0,0,0,.309,0Z" transform="translate(-577.458 -118.927)" fill="#14365b"/></g><g transform="translate(608.776 91.207)"><g transform="translate(66.756)"><rect width="77.61" height="21.876" transform="translate(0 14.329)" fill="#f98091"/><path d="M636.972,67.243l.6,21.876H666.5V67.243Z" transform="translate(-588.889 -52.914)" fill="#e2697d"/><path d="M613.813,70.814l77.61,1.464v2.062l-77.61.64Z" transform="translate(-613.813 -49.072)" fill="#9b4a3d"/><path d="M644.083,67.243V89.119h2.668l-.45-21.876Z" transform="translate(-581.237 -52.914)" fill="#9b4a3d"/><path d="M623.026,67.243V89.119h2.59l-.451-21.876Z" transform="translate(-603.897 -52.914)" fill="#9b4a3d"/><g transform="translate(47.368)"><path d="M652.928,74.126c-1.044-4.171-4-7.377-7.007-10.312-1.875-1.829-5.257-4.7-8.068-2.9-3.023,1.933.3,5.359,1.916,6.92a28.284,28.284,0,0,0,11.624,6.677.376.376,0,0,0,.2-.725,27.725,27.725,0,0,1-8.008-3.615,26.6,26.6,0,0,1-3.779-3.075c-1.6-1.563-2.934-5.836.478-5.842,2.736-.006,5.344,3.341,7.076,5.176a22.524,22.524,0,0,1,5.2,7.8.192.192,0,0,0,.37-.1Z" transform="translate(-636.628 -60.342)" fill="#9b4a3d"/></g><g transform="translate(62.218 1.615)"><path d="M644.037,73.553a14.048,14.048,0,0,0,11.083-3.135c1.854-1.684,4.281-5.278,2.776-7.869-1.648-2.84-5.217-.81-7.04.612a16.347,16.347,0,0,0-6.11,9.777.387.387,0,0,0,.745.206,19.357,19.357,0,0,1,3.577-7.109,15.761,15.761,0,0,1,2.965-2.7c1.736-1.206,5.213-1.364,5.232,1.489.016,2.52-2.622,5.047-4.572,6.226-2.655,1.607-5.633,1.854-8.656,1.964a.268.268,0,0,0,0,.536Z" transform="translate(-643.78 -61.119)" fill="#9b4a3d"/></g></g><g transform="translate(74.259 36.205)"><rect width="60.899" height="60.899" fill="#69a1b2"/><path d="M641.839,77.78l-1.269,60.249,12.849.65V77.78Z" transform="translate(-592.52 -77.78)" fill="#50808c"/><path d="M617.426,94.692l60.9-2.712v4.576l-60.9,2.373Z" transform="translate(-617.426 -62.498)" fill="#345268"/><path d="M643.236,77.78v60.529h3.945l-.852-60.529Z" transform="translate(-589.651 -77.78)" fill="#345268"/><path d="M627.808,77.78v59.466h4.448l1.823-59.466Z" transform="translate(-606.254 -77.78)" fill="#345268"/></g><g transform="translate(0 92.839)"><path d="M581.659,105.058V132.17H734.318v-22.6Z" transform="translate(-581.659 -105.058)" fill="#e4b26d"/><path d="M646.759,107.113l2.17,22.846h15.33v-22.6Z" transform="translate(-511.601 -102.848)" fill="#d6a259"/><path d="M581.659,115.048l152.659,3.78v-3.78l-152.659-4.693Z" transform="translate(-581.659 -99.359)" fill="#cb8234"/><path d="M650.058,106.934l1.9,23.217h2.74L652.417,107.3Z" transform="translate(-508.05 -103.04)" fill="#cb8234"/><path d="M613.421,106l.813,25.163h4.439L616.047,106Z" transform="translate(-547.477 -104.048)" fill="#d3a471"/></g></g><path d="M574.218,100.18s-1.484,44.8,20.977,47.367l.413-44.436Z" transform="translate(19.088 73.737)" fill="#e5baab"/><path d="M643.321,97.315s1.306,42.567,2.439,42.567h30.187s-32.78,29.106-51.962,10.713l-3.98-53.316Z" transform="translate(68.385 70.616)" fill="#e5baab"/><g transform="translate(643.75 31.661)"><rect width="82.712" height="50.448" transform="translate(0 24.804)" fill="#7a466f"/><path d="M624.36,43.608,625.9,91.081h27.49l1.525-47.473Z" transform="translate(-570.679 -18.804)" fill="#5e3558"/><path d="M677.17,54.592l-74.141-.9v6.67H677.17Z" transform="translate(-593.634 -7.948)" fill="#9b6899"/><path d="M632.527,43.608l-2.61,47.473h5.22l2.175-47.473Z" transform="translate(-564.698 -18.804)" fill="#9b6899"/><path d="M619.337,43.608l3.045,47.473h-6.525l-3.19-47.473Z" transform="translate(-583.262 -18.804)" fill="#9b6899"/><g transform="translate(36.043)"><path d="M634.053,55.811A39.143,39.143,0,0,0,627.515,39c-1.773-2.691-5.533-9.2-9.654-6.822-4.073,2.352-.936,8.317.824,11.1,3.208,5.072,8,8.93,12.748,12.486,1.08.81,2.5-1.019,1.451-1.881a89.015,89.015,0,0,1-8.375-7.335,29.827,29.827,0,0,1-3.251-3.988c-.477-.716-4.651-8.564-.918-7.858,1.69.32,3.924,4.482,4.748,5.72.812,1.217,1.576,2.477,2.284,3.758a85.9,85.9,0,0,1,4.892,11.878c.33.884,1.91.857,1.79-.241Z" transform="translate(-615.864 -31.661)" fill="#9b6899"/></g><g transform="translate(51.351 3.545)"><path d="M625.377,54.524c4.52-1.289,8.234-5.213,10.582-9.15,1.516-2.541,4.538-7.933,2.078-10.688-6.11-6.839-14.247,14.979-14.78,18.752-.272,1.923,2.429,2.811,3,.826a51.208,51.208,0,0,1,3.436-9.677c.65-1.258,5.087-8.616,5.628-6.069.484,2.275-3.015,6.943-4.362,8.6-1.877,2.307-4.233,4-6.409,5.981a.857.857,0,0,0,.828,1.422Z" transform="translate(-623.238 -33.368)" fill="#9b6899"/></g></g><g transform="translate(567.467 222.373)"><path d="M561.762,207.29l10.087,8.055,64.344,10.889,6.731-88.015-2.59-9.62Z" transform="translate(-561.762 -118.053)" fill="#8c736b"/><path d="M632.123,224.327l8.219-90.433-63.276-10.375-15.294,89.065Z" transform="translate(-561.751 -123.519)" fill="#a5887c"/><g transform="translate(27.104 25.432)"><path d="M598.886,139.465c-6.187-5.41-16.049-4.962-21.1,1.885a14.965,14.965,0,0,0,3.366,21.189,15.259,15.259,0,0,0,20.8-3.2c5.537-6.97,3.573-16.669-3-22.142-.322-.268-.789.191-.465.465,5.529,4.7,7.95,12.681,4.231,19.306-3.986,7.1-13.53,9.968-20.5,5.466A14.237,14.237,0,0,1,578.3,141.79c5.053-6.646,14.008-6.953,20.514-2.232.054.039.123-.05.073-.093Z" transform="translate(-574.817 -135.769)" fill="#122344"/></g><g transform="translate(23.408 56.948)"><path d="M573.146,151.254a161.469,161.469,0,0,0,33.013,6.627c.33.033.322-.473,0-.511a230.87,230.87,0,0,1-32.932-6.415.155.155,0,0,0-.081.3Z" transform="translate(-573.036 -150.949)" fill="#122344"/></g><g transform="translate(32.29 65.409)"><path d="M577.438,155.364c4.441.785,8.923,1.439,13.4,2.018.3.039.372-.482.071-.529-4.453-.7-8.938-1.331-13.42-1.827-.193-.021-.237.305-.046.338Z" transform="translate(-577.315 -155.025)" fill="#122344"/></g></g><g transform="translate(556.46 211.983)"><path d="M556.46,176.9l6.589,8.486,49.93,21.368L635.6,136.86l-.218-8.288Z" transform="translate(-556.46 -107.693)" fill="#8c736b"/><path d="M611.107,210.816l24.3-71.558L586.24,118.515l-29.756,69.07Z" transform="translate(-556.434 -118.515)" fill="#a5887c"/><g transform="translate(31.12 25.261)"><path d="M593.469,135.98c-3.916-5.645-12.037-7.183-17.465-2.633a12.488,12.488,0,0,0-2.209,16.914,12.768,12.768,0,0,0,17.815,2.828c6.258-4.468,6.82-13.022,2.4-18.949-.247-.334-.816-.015-.567.33,3.5,4.813,3.99,11.822-.332,16.377-4.653,4.9-12.777,5.458-17.57.432a11.813,11.813,0,0,1,.839-17.39c5.313-4.482,12.7-2.788,17,2.163.046.05.133-.017.093-.073Z" transform="translate(-571.449 -130.682)" fill="#14365b"/></g><g transform="translate(25.178 47.653)"><path d="M568.662,141.755a128.6,128.6,0,0,0,25.412,11.824c.314.108.44-.38.135-.492a202.862,202.862,0,0,1-25.391-11.6.155.155,0,0,0-.156.268Z" transform="translate(-568.587 -141.467)" fill="#14365b"/></g><g transform="translate(30.703 56.23)"><path d="M571.335,145.921c3.426,1.528,6.932,2.94,10.441,4.267.33.122.455-.388.143-.519-3.438-1.443-6.934-2.822-10.451-4.061-.183-.064-.313.235-.133.313Z" transform="translate(-571.248 -145.599)" fill="#14365b"/></g></g><g transform="translate(695.281 222.027)"><path d="M630.16,209.521l10.44,3.446,54.6-10.355-20.684-72.275-4.917-6.915Z" transform="translate(-615.968 -123.278)" fill="#8dc6b7"/><path d="M697.135,198l-20.212-74.646-53.6,10.45,14.157,75.649Z" transform="translate(-623.324 -123.353)" fill="#a7d7cc"/><g transform="translate(23.341 48.799)"><path d="M634.715,151.821a134.165,134.165,0,0,0,28.329-4.464.256.256,0,0,0-.137-.492,204.729,204.729,0,0,1-28.192,4.646c-.193.019-.2.318,0,.309Z" transform="translate(-634.567 -146.857)" fill="#14365b"/></g><g transform="translate(32.938 55.054)"><path d="M639.4,152.727c3.766-.664,7.528-1.464,11.253-2.331.341-.079.2-.585-.143-.519-3.747.745-7.5,1.568-11.2,2.518-.218.056-.123.37.091.332Z" transform="translate(-639.19 -149.87)" fill="#14365b"/></g><g transform="translate(20.955 21.096)" opacity="0.16"><path d="M640.409,134.569a8.335,8.335,0,0,0-6.021,4.665,11.059,11.059,0,0,0-.509,7.732,12.944,12.944,0,0,0,9.849,9.073,12.069,12.069,0,0,0,12.162-5.329,11.31,11.31,0,0,0-1.1-13.115c-3.143-3.5-10.325-5.4-14.384-3.025" transform="translate(-633.418 -133.514)" fill="#122344"/></g></g><g transform="translate(590.68 39.129)"><path d="M639.278,218.692l9.492,33.432-66.233.81,35.724-14.8-3.336-18.827,25.985-1.034" transform="translate(-562.617 161.692)" fill="#6d4e55"/><path d="M605.917,67.871s-25.526-1.223-21.893,63.489l.737,65.8,76.66-9.21s4.312-109.446-6-115.573S631.493,64.119,605.917,67.871Z" transform="translate(-561.398 -2.163)" fill="#ab5856"/><path d="M616.679,68.2S646,81.51,648.637,131.492l-29.542.361Z" transform="translate(-525.875 0.191)" fill="#ab5856"/><path d="M610.948,67.58s-38.841,8.307-37.992,66.524l25.678,3.517Z" transform="translate(-572.942 -0.474)" fill="#ab5856"/><path d="M591.248,76.025l3.239.563a97.557,97.557,0,0,0,39.806-1.358l3.4-.833-14.282-1.7-.49-11.531-22.043-1.437,2.1,13.773Z" transform="translate(-553.243 -8.919)" fill="#e5baab"/><path d="M584.2,133.784l30.522,201.787,27.982-.343s-19.4-183.411-14.988-179.1,43.524,177.752,43.524,177.752l27.09-.332L658.092,124.906Z" transform="translate(-560.833 61.217)" fill="#5987e4"/><path d="M595.618,59.617c-1.642.785-2.965,1.7-4.5.39-1.466-1.256-1.345-4.391-1.14-6.118.579-4.821,4.393-4.7,6.486-.544" transform="translate(-554.737 -19.126)" fill="#e5baab"/><path d="M610,58.545c1.661.745,3,1.632,4.505.28,1.435-1.291,1.237-4.422.988-6.143-.7-4.806-4.507-4.595-6.5-.384" transform="translate(-534.148 -20.352)" fill="#e5baab"/><g transform="translate(28.023 407.929)"><path d="M586.631,235.6c18.347-.419,36.713-2.687,55.095-3.235a.311.311,0,0,0,0-.621c-18.378.285-36.787,2.219-55.095,3.461-.251.017-.257.4,0,.394Z" transform="translate(-586.44 -231.741)" fill="#1a3066"/></g><g transform="translate(47.616 403.421)"><path d="M595.9,229.925a19.982,19.982,0,0,0,1.345,2.352,4.771,4.771,0,0,0,1.466,1.692c.179.1.407-.106.289-.289-.451-.7-1.04-1.3-1.487-2.012a22.169,22.169,0,0,0-1.256-2.02c-.172-.218-.457.06-.357.276Z" transform="translate(-595.877 -229.57)" fill="#1a3066"/></g><g transform="translate(49.271 402.402)"><path d="M596.695,229.432a7.994,7.994,0,0,0,1.337,2.093,7.085,7.085,0,0,0,1.765,1.686c.245.133.583-.149.407-.407a12.5,12.5,0,0,0-1.584-1.541,7.874,7.874,0,0,1-1.526-2.064c-.133-.272-.511-.033-.4.233Z" transform="translate(-596.674 -229.079)" fill="#1a3066"/></g><g transform="translate(51.929 401.042)"><path d="M598.014,228.81c.685.774,1.26,1.624,1.879,2.45a4.183,4.183,0,0,0,1.6,1.607c.233.091.372-.2.291-.378a9.912,9.912,0,0,0-1.646-1.935c-.592-.7-1.169-1.406-1.808-2.062-.2-.208-.507.1-.318.318Z" transform="translate(-597.954 -228.424)" fill="#1a3066"/></g><g transform="translate(43.304 390.597)"><path d="M601.777,231.8c-2.444-1.439-4.555-3.569-7.526-3.727a.453.453,0,0,0-.451.451c.043,2.57,5.234,5.707,7.582,4.767,3.434-1.374.266-7.759-.924-9.694a.423.423,0,0,0-.723,0c-1.8,3.075-1.6,8.155,1.682,10.184.478.295.876-.426.432-.741-2.732-1.943-2.961-6.28-1.391-9.019h-.723c1.024,1.621,3.7,6.61,1.711,8.273-1.613,1.35-6.644-1.935-6.743-3.77l-.453.453c2.784.048,4.887,2.095,7.206,3.372a.318.318,0,0,0,.32-.548Z" transform="translate(-593.8 -223.393)" fill="#1a3066"/></g><path d="M598.978,41.225a16.393,16.393,0,0,0-6.843,14.132c.162,3.357.365,7.333.594,11.338.579,10.231,1.47,13.341,2.265,15.773.587,1.8,4.547,10.379,17.747,9.644,9.274-.517,16.609-7.514,16.518-15.011L628,50.887c-.32-2.547-2.3-7.024-7.823-10.487h0a18.81,18.81,0,0,0-20.936.633Z" transform="translate(-552.309 -32.818)" fill="#14365b"/><path d="M592.566,57.311a23.19,23.19,0,0,1,4.389-16.265,7.222,7.222,0,0,1,2.929-2.562,3.1,3.1,0,0,1,3.581.77A8.245,8.245,0,0,1,614.519,38a15.482,15.482,0,0,1,4.375-2.462,5.238,5.238,0,0,1,4.794.679,3.21,3.21,0,0,1,.557,4.464c1.408-1.221,3.812.17,4.163,2s-.656,3.635-1.76,5.136a3.831,3.831,0,0,1,4.775,3.808c-.214,2.209-2.282,3.685-3.59,5.477-3.027,4.144-1.908,9.882-.66,14.859" transform="translate(-551.976 -35.258)" fill="#14365b"/><g transform="translate(22.017 113.654)"><path d="M583.547,90.192c.033,10.4.21,20.842.768,31.229a.367.367,0,0,0,.733,0c-.064-10.406-.515-20.84-1.1-31.229a.2.2,0,0,0-.4,0Z" transform="translate(-583.547 -90.001)" fill="#1a3066"/></g><g transform="translate(99.077 105.14)"><path d="M621.76,86.027c-.544,11.647-1.3,23.394-1.044,35.056a.336.336,0,0,0,.673,0c.814-11.633.621-23.4.635-35.056a.132.132,0,0,0-.264,0Z" transform="translate(-620.664 -85.9)" fill="#14365b"/></g><path d="M628.406,225.656l1.505,18.411,28.52-.349L647.4,225.412Z" transform="translate(-513.256 169.376)" fill="#6d4e55"/><g transform="translate(115.721 410.278)"><path d="M628.991,233.519c9.258,1.244,18.638,1.21,27.958.976.577-.015.577-.926,0-.9-9.363.465-18.621-.141-27.958-.725-.426-.027-.4.592,0,.646Z" transform="translate(-628.681 -232.873)" fill="#1a3066"/></g><g transform="translate(123.471 394.949)"><path d="M632.415,225.674a69.752,69.752,0,0,0,4.277,17.068c.093.241.484.133.388-.108a70.1,70.1,0,0,1-4.275-16.96c-.033-.243-.419-.249-.39,0Z" transform="translate(-632.413 -225.489)" fill="#1a3066"/></g><g transform="translate(55.137 191.249)"><path d="M599.5,127.543c.683,8.838,3.359,23.834,13.381,26.753.3.087.4-.343.124-.453-9.793-3.857-11.77-17.132-13.169-26.346-.029-.189-.351-.147-.336.046Z" transform="translate(-599.5 -127.375)" fill="#3a6cd6"/></g><g transform="translate(32.904 203.452)"><g transform="translate(0.583)"><path d="M589.073,136.094c.641,4.891,2.458,13.024,9.255,11.934,6.972-1.119,5.2-10.047,3.513-14.487-.189-.5-.992-.3-.814.224,1.445,4.188,3.7,14.292-4.177,13.545-5.348-.507-6.893-6.889-7.661-11.23-.012-.066-.126-.052-.116.015Z" transform="translate(-589.072 -133.253)" fill="#3a6cd6"/></g><g transform="translate(0 0.003)"><path d="M589.017,136.42c4.256-.544,8.508-1.563,12.7-2.458.459-.1.264-.789-.191-.7-4.183.818-8.471,1.534-12.573,2.7-.245.071-.208.5.062.461Z" transform="translate(-588.791 -133.254)" fill="#3a6cd6"/></g></g><g transform="translate(73.897 196.438)"><g transform="translate(0.582)"><path d="M608.816,132.716c.642,4.889,2.46,13.024,9.256,11.934,6.974-1.119,5.2-10.047,3.515-14.489-.189-.5-.994-.295-.814.226,1.445,4.185,3.7,14.292-4.177,13.545-5.348-.509-6.893-6.889-7.661-11.232-.012-.064-.127-.05-.118.017Z" transform="translate(-608.816 -129.874)" fill="#3a6cd6"/></g><g transform="translate(0 0.004)"><path d="M608.761,133.042c4.258-.544,8.508-1.565,12.7-2.458.459-.1.264-.789-.193-.7-4.183.818-8.47,1.534-12.573,2.7-.243.069-.208.494.062.461Z" transform="translate(-608.536 -129.876)" fill="#3a6cd6"/></g></g></g><g transform="translate(714.095 210.773)"><path d="M632.529,118.229c8.246.938,13.831,6.868,13.725,15.264,0,.343.5.334.527,0,.6-8.188-5.93-15.613-14.253-15.561-.2,0-.185.276,0,.3Z" transform="translate(-632.386 -117.932)" fill="#14365b"/></g><g transform="translate(701.425 226.766)"><path d="M627.835,129.685a7.289,7.289,0,0,1-.82-1.821,7.846,7.846,0,0,1-.1-1.983.255.255,0,0,0-.5-.069,4.264,4.264,0,0,0,1.179,4.053.151.151,0,0,0,.237-.181Z" transform="translate(-626.284 -125.635)" fill="#14365b"/></g><g transform="translate(715.297 210.553)"><path d="M633.06,118.719c10.242-1.2,19.31,3.453,22.034,13.848a.363.363,0,0,0,.7-.191c-2.61-9.82-12.561-16.848-22.759-13.852-.1.031-.089.208.025.2Z" transform="translate(-632.965 -117.826)" fill="#14365b"/></g><g transform="translate(598.012 211.979)"><path d="M576.8,122.979a11.506,11.506,0,0,1,1.646-4.086c.156-.235-.206-.519-.392-.3a6.332,6.332,0,0,0-1.565,4.347c.012.168.268.226.311.042Z" transform="translate(-576.474 -118.513)" fill="#14365b"/></g><g transform="translate(603.753 114.806)"><path d="M579.442,81.332c29.365-3.058,58.4-7.051,87.935-8.568.677-.035.681-1.092,0-1.055-29.238,1.526-59.222,3.509-87.991,9.214-.226.046-.179.434.056.409Z" transform="translate(-579.239 -71.709)" fill="#b77e36"/></g><g transform="translate(593.792 132.434)"><path d="M574.6,90.966c18.324-2.348,36.5-5.39,54.92-7.063s36.856-2.273,55.35-2.643a.529.529,0,0,0,0-1.057c-36.441-.116-74.679,2.458-110.314,10.445-.174.039-.139.343.044.318Z" transform="translate(-574.441 -80.199)" fill="#b77e36"/></g><g transform="translate(591.207 158.783)"><path d="M573.412,97.094a199.5,199.5,0,0,0,21.27-3.347c.554-.116.318-.955-.232-.847-7.013,1.377-14.053,2.545-21.1,3.76-.243.042-.191.459.058.434Z" transform="translate(-573.196 -92.89)" fill="#b77e36"/></g><g transform="translate(612.944 156.196)"><path d="M583.944,100.712c25.8-2.255,51.543-5.4,77.3-8.114.6-.064.608-1.017,0-.951-25.757,2.811-51.594,5.211-77.3,8.483-.361.046-.38.615,0,.581Z" transform="translate(-583.666 -91.644)" fill="#b77e36"/></g><g transform="translate(690.48 149.342)"><path d="M621.253,90.517a182.307,182.307,0,0,0,18.5-1.343c.475-.066.355-.841-.112-.83a181.431,181.431,0,0,0-18.384,1.673c-.309.037-.332.513,0,.5Z" transform="translate(-621.012 -88.343)" fill="#b77e36"/></g><g transform="translate(615.024 180.512)"><path d="M584.832,112.3a704.47,704.47,0,0,1,72.524-7.9c.664-.033.664-1.08,0-1.036a642.4,642.4,0,0,0-72.593,8.685c-.168.029-.1.28.069.253Z" transform="translate(-584.668 -103.356)" fill="#b77e36"/></g><g transform="translate(615.256 204.303)"><path d="M585.019,125.149c24.887-4.291,49.477-8.224,74.768-9.191.731-.029.735-1.171,0-1.142-25,.949-50.642,3.453-74.87,9.963-.243.066-.137.411.1.37Z" transform="translate(-584.78 -114.816)" fill="#b77e36"/></g><rect width="40.6" height="4.1" transform="translate(877.86 135.449)" fill="#91b6e0"/><rect width="128.7" height="4.1" transform="translate(877.86 151.449)" fill="#91b6e0"/><rect width="92.7" height="4.1" transform="translate(877.86 167.549)" fill="#f98091"/><path d="M349.528,194.236h.336a1.658,1.658,0,0,1,1.007.336,2.589,2.589,0,0,1,1.175,1.175,5.336,5.336,0,0,1,.336,2.351v61.621a4.959,4.959,0,0,1-.336,2.183,3.378,3.378,0,0,1-1.847,1.511,10.327,10.327,0,0,1-2.183.168h-4.533l.336-.336v16.287l-.672-.672c-4.366-4.869-8.9-10.074-13.768-15.447l.336.168H176.754a2.983,2.983,0,0,1-1.679-.672,3.02,3.02,0,0,1-1.007-1.511,2.129,2.129,0,0,1-.168-1.007V196.922a2.991,2.991,0,0,1,1.679-2.686,3.028,3.028,0,0,1,1.679-.336h16.119c30.559,0,58.1,0,81.266.168,23.171,0,41.808.168,54.737.168h0c-12.929,0-31.566,0-54.737.168-23.171,0-50.707,0-81.266.168H177.258a1.417,1.417,0,0,0-1.175.336,2.489,2.489,0,0,0-1.343,2.015v62.628a4.648,4.648,0,0,0,.168,1.511,1.943,1.943,0,0,0,.84,1.175,1.907,1.907,0,0,0,1.343.5H330.219l.168.168c4.7,5.373,9.4,10.578,13.6,15.447l-.672.168V262.741h4.869a7.526,7.526,0,0,0,2.015-.168,2.68,2.68,0,0,0,1.511-1.175,3.321,3.321,0,0,0,.336-1.847V197.93a4.28,4.28,0,0,0-.336-2.183,2.645,2.645,0,0,0-1.175-1.175C350.032,194.236,349.528,194.4,349.528,194.236Z" transform="translate(687.866 -74.532)" fill="#14365b"/><path d="M29.5,59a29.718,29.718,0,0,1-5.945-.6,29.339,29.339,0,0,1-10.548-4.439A29.586,29.586,0,0,1,2.318,40.983,29.352,29.352,0,0,1,.6,35.445a29.788,29.788,0,0,1,0-11.891A29.339,29.339,0,0,1,5.038,13.006,29.586,29.586,0,0,1,18.017,2.318,29.352,29.352,0,0,1,23.555.6,29.788,29.788,0,0,1,35.445.6,29.339,29.339,0,0,1,45.994,5.038,29.586,29.586,0,0,1,56.682,18.017,29.351,29.351,0,0,1,58.4,23.555a29.788,29.788,0,0,1,0,11.891,29.339,29.339,0,0,1-4.439,10.548A29.586,29.586,0,0,1,40.983,56.682,29.351,29.351,0,0,1,35.445,58.4,29.718,29.718,0,0,1,29.5,59ZM16.264,12.33a16.256,16.256,0,0,0-2.219,1.565,21.221,21.221,0,0,0-4.32,4.824A18.7,18.7,0,0,0,6.81,27a21.44,21.44,0,0,0,.166,5.493,28.936,28.936,0,0,0,1.833,6.429,21.214,21.214,0,0,0,4.037,6.472,18.5,18.5,0,0,0,5.2,3.916,21.934,21.934,0,0,0,5.711,1.931,28.94,28.94,0,0,0,5.561.517,36.364,36.364,0,0,0,6.55-.615,27.143,27.143,0,0,0,2.655-.615l-.117-.2C35.482,45.345,20.662,20.1,16.264,12.33ZM30.588,6.576a36.767,36.767,0,0,0-6.161.537c-1.532.266-2.472.534-2.481.537l.111.2C24.9,12.878,39.274,38.38,43.537,46.228A16.276,16.276,0,0,0,45.784,44.7a21.222,21.222,0,0,0,4.4-4.748,18.7,18.7,0,0,0,3.058-8.225,21.44,21.44,0,0,0-.07-5.5,28.936,28.936,0,0,0-1.721-6.46A21.133,21.133,0,0,0,47.4,13.089,18.541,18.541,0,0,0,42.09,9.065,22.333,22.333,0,0,0,36.243,7.1,29.676,29.676,0,0,0,30.588,6.576Z" transform="translate(490.46 50.449)" fill="#f98091"/><path d="M414.765,205.715a7.015,7.015,0,0,0,1.037-.117,2.842,2.842,0,0,0,2.075-1.4c.346-.468.173-.936.173-1.521v-6.55c0-7.135,0-17.311-.173-29.944V124.773c-.173-.936-1.383-1.638-2.767-1.755h-80.4c-1.556,0-2.939.936-2.939,1.988v78.837a1.867,1.867,0,0,0,.865,1.053,3.967,3.967,0,0,0,1.556.585c.519.117,1.21,0,1.9.117h18.5c18.674,0,33.89.117,44.264.117h-.346c-10.547,0-25.59,0-44.264.117h-18.5a12.346,12.346,0,0,1-2.075-.117,4.953,4.953,0,0,1-1.9-.7,2.714,2.714,0,0,1-1.037-1.287,3.829,3.829,0,0,1,0-1.4v-77.55c0-1.4,1.9-2.573,3.977-2.573h80.574a3.806,3.806,0,0,1,3.631,2.222,19.252,19.252,0,0,1,0,3.158v38.366c0,12.633-.173,22.926-.173,29.944v6.55a3.935,3.935,0,0,1-.173,1.521,3.107,3.107,0,0,1-2.248,1.4A5.521,5.521,0,0,1,414.765,205.715Z" transform="translate(144.656 -84.942)" fill="#14365b"/></g></svg>