<svg xmlns="http://www.w3.org/2000/svg" width="520" height="401.138" viewBox="0 0 520 401.138"><g transform="translate(-114.5 -40.25)"><path d="M191.6,440.2c23.4-104.7-48.3-152.7-34.4-218.1s53.8-108,123.5-89.2,98.4,75.3,186.2,52.9,132.6-5.4,136.2,46.2c3.6,51.5-14.7,162.4-45.9,208.2Z" fill="#e3e4f2"/><path d="M182.6,352.1c-1.8-13.7,3.6-22-12.5-29.1-16.1-7.2-24.6-15.5-20.2-28.2,4.5-12.8,28-13.4,36.1-2.7,8.1,10.8,13.7,23.3,12.8,41.4Z" fill="#14bda4"/><path d="M161.9,300.2s27.8-.3,28.8,38.8" fill="none" stroke="#1dceb4" stroke-linecap="round" stroke-miterlimit="10" stroke-width="1.093"/><path d="M196.7,329s-1.3-29.5-15.9-37c-14.6-7.4-20.2-11.2-17.7-20.6s22.6-8.7,31.1,1.8,14.3,22.6,14.3,41.9Z" fill="#14bda4"/><path d="M170.1,272.8s27.6.4,32.6,45.5" fill="none" stroke="#1dceb4" stroke-linecap="round" stroke-miterlimit="10" stroke-width="1.093"/><path d="M206.1,314.4A227.074,227.074,0,0,0,196,278.6c-6.9-18.6-6.3-47.3,6.7-49.7,13-2.5,9,21.5,15.9,34.5s12.1,23.7,6.7,40.1Z" fill="#14bda4"/><path d="M202.7,234.5c-5.2,28.4,11.4,30.9,13,71.5" fill="none" stroke="#1dceb4" stroke-linecap="round" stroke-miterlimit="10" stroke-width="1.093"/><path d="M224.9,301.5s-5.9-19.5-.6-37.3c5.4-17.7,23.5-23.4,29.6-15.4,6,8-10.3,21.4-4.8,41.1Z" fill="#14bda4"/><path d="M246.9,251.7s-19.3,15.8-11.2,41.5" fill="none" stroke="#1dceb4" stroke-linecap="round" stroke-miterlimit="10" stroke-width="1.093"/><path d="M451.7,347.7c-3.7-6.1-20.2-14.8-18.2-24.9,1.9-10.1,20.3-11.4,27.8,2.1s7.6,25.4,7.6,25.4Z" fill="#14bda4"/><path d="M442.9,322.2s15.5,3.7,15.6,24" fill="none" stroke="#1dceb4" stroke-linecap="round" stroke-miterlimit="10" stroke-width="1.093"/><path d="M467.2,347.1c-4.6-9.4-10-30.3-4.3-43.2,5.7-12.8,22.9-13.7,21.8,1-1,14.8-4.3,31.1,12.2,45.3Z" fill="#14bda4"/><path d="M474.1,300s-11,10,2.2,44.6" fill="none" stroke="#1dceb4" stroke-linecap="round" stroke-miterlimit="10" stroke-width="1.093"/><path d="M491.4,353.4c-7.6-9.9-15.1-19.4-12.7-34.2s9.4-19.7,21.2-28.2,23-17,26.1-10-19.1,22.7-21.1,36.1S516,354.7,516,354.7Z" fill="#14bda4"/><path d="M518.9,286s-45.7,21.1-23.4,64.3" fill="none" stroke="#1dceb4" stroke-linecap="round" stroke-miterlimit="10" stroke-width="1.093"/><path d="M507.1,352.5c-2.1-12.2-8-33.8,7.4-46.6,15.3-12.8,37.5-2.2,34.6,8.4-2.8,10.6-19.6,7.7-23.7,20.9a34.591,34.591,0,0,0,1.5,24.1Z" fill="#14bda4"/><path d="M541.9,311.5s-38.7-5.2-27.5,36.5" fill="none" stroke="#1dceb4" stroke-linecap="round" stroke-miterlimit="10" stroke-width="1.093"/><path d="M171.1,440.2H548.8s42.6-85.6-65-95.6c-107.5-10-87.4-61.1-183.7-66C203.9,273.7,157.7,352.7,171.1,440.2Z" fill="#b5b7d6"/><path d="M454.8,440.2c-12.8-22.1-16.1-53.2,23.7-68.1,39.9-14.9,36.3-61.7,100.5-55.5s32.6,105.1,23,123.6Z" fill="#5987e4"/><path d="M458.5,242.4H388.2a2.006,2.006,0,0,1-2-2h0a2.006,2.006,0,0,1,2-2h70.3Z" fill="#fff"/><path d="M477.9,185.8v52.6h13.4l10.4-50.8a1.5,1.5,0,0,0-1.5-1.8H477.9Z" fill="#c1c7d3"/><path d="M489.3,242.4H458.5v-4h32.9v2A2.03,2.03,0,0,1,489.3,242.4Z" fill="#a9b2bf"/><path d="M424.6,185.8H499l-10.8,52.6H411.9l10.4-50.7A2.276,2.276,0,0,1,424.6,185.8Z" fill="#fff"/><path d="M415,234.4l9.2-45.1a1.4,1.4,0,0,1,1.4-1.2h68.7a1.486,1.486,0,0,1,1.4,1.8L486.5,235a1.4,1.4,0,0,1-1.4,1.2H416.4A1.53,1.53,0,0,1,415,234.4Z" fill="#91b6e0"/><path d="M452.6,230.5l.3-2.5c-2.4,0-4.1-.8-5.1-2.3a9.073,9.073,0,0,1-1.5-5.4v-.7l3.6-1v.8a6.621,6.621,0,0,0,.1,1.5,7.336,7.336,0,0,0,.5,2,3.269,3.269,0,0,0,1.1,1.5,3.557,3.557,0,0,0,1.9.5,3.739,3.739,0,0,0,2.6-.9,4.158,4.158,0,0,0,1.1-2.6v-.7a2.2,2.2,0,0,0-.1-.8,10.384,10.384,0,0,0-.3-1.2,4.073,4.073,0,0,0-.6-1.1,8.745,8.745,0,0,0-.8-1,4.636,4.636,0,0,0-1-1l-4.5-4.4a8.2,8.2,0,0,1-1.9-2.8,8.6,8.6,0,0,1-.4-2.4,4.868,4.868,0,0,1,.1-1.2A7.083,7.083,0,0,1,450,200a7.7,7.7,0,0,1,5-1.9l.2-2.5h1.2l-.2,2.5a5.371,5.371,0,0,1,4.3,2,8.5,8.5,0,0,1,1.3,5.2v.3l-3.4.9v-.8a6.149,6.149,0,0,0-.1-1.4,8.47,8.47,0,0,0-.4-1.7,2.545,2.545,0,0,0-1.1-1.2,3.339,3.339,0,0,0-1.5-.3H455c-2.2.1-3.5,1.2-3.7,3.3v.6a3.34,3.34,0,0,0,.3,1.5,6.444,6.444,0,0,0,1.3,1.9l4.5,4.4a12.941,12.941,0,0,1,2.7,3.7,7.674,7.674,0,0,1,.7,3.4,3.4,3.4,0,0,1-.1,1,7.614,7.614,0,0,1-2.1,4.8,7.318,7.318,0,0,1-4.6,2.1l-.3,2.5h-1.1Z" fill="#fff"/><line x1="9.5" y2="191.2" transform="translate(379.7 249)" stroke-width="2.265" stroke="#14365b" stroke-linecap="round" stroke-linejoin="round" stroke-miterlimit="10" fill="none"/><line x2="9.5" y2="191.2" transform="translate(504.9 249)" stroke-width="2.265" stroke="#14365b" stroke-linecap="round" stroke-linejoin="round" stroke-miterlimit="10" fill="none"/><line x2="122.2" transform="translate(386 312.7)" stroke-width="2.265" stroke="#14365b" stroke-linecap="round" stroke-linejoin="round" stroke-miterlimit="10" fill="none"/><line x1="2.1" y2="191.2" transform="translate(424.8 249)" stroke-width="1.133" stroke="#14365b" stroke-linecap="round" stroke-linejoin="round" stroke-miterlimit="10" fill="none"/><rect width="116.3" height="5.2" transform="translate(388.8 251.8)" fill="#14365b"/><path d="M513.6,253H380.5a5.335,5.335,0,0,1-5.3-5.3h0a5.335,5.335,0,0,1,5.3-5.3H513.6a5.335,5.335,0,0,1,5.3,5.3h0A5.335,5.335,0,0,1,513.6,253Z" fill="#14365b"/><rect width="40.6" height="4.1" transform="translate(208.4 134)" fill="#f98091"/><rect width="128.7" height="4.1" transform="translate(208.4 150)" fill="#91b6e0"/><rect width="128.7" height="4.1" transform="translate(208.4 166.1)" fill="#91b6e0"/><path d="M349.528,194.236h.336a1.658,1.658,0,0,1,1.007.336,2.589,2.589,0,0,1,1.175,1.175,5.336,5.336,0,0,1,.336,2.351v61.621a4.959,4.959,0,0,1-.336,2.183,3.378,3.378,0,0,1-1.847,1.511,10.327,10.327,0,0,1-2.183.168h-4.533l.336-.336v16.287l-.672-.672c-4.366-4.869-8.9-10.074-13.768-15.447l.336.168H176.754a2.983,2.983,0,0,1-1.679-.672,3.02,3.02,0,0,1-1.007-1.511,2.129,2.129,0,0,1-.168-1.007V196.922a2.991,2.991,0,0,1,1.679-2.686,3.028,3.028,0,0,1,1.679-.336h16.119c30.559,0,58.1,0,81.266.168,23.171,0,41.808.168,54.737.168h0c-12.929,0-31.566,0-54.737.168-23.171,0-50.707,0-81.266.168H177.258a1.417,1.417,0,0,0-1.175.336,2.489,2.489,0,0,0-1.343,2.015v62.628a4.648,4.648,0,0,0,.168,1.511,1.943,1.943,0,0,0,.84,1.175,1.907,1.907,0,0,0,1.343.5H330.219l.168.168c4.7,5.373,9.4,10.578,13.6,15.447l-.672.168V262.741h4.869a7.526,7.526,0,0,0,2.015-.168,2.68,2.68,0,0,0,1.511-1.175,3.321,3.321,0,0,0,.336-1.847V197.93a4.28,4.28,0,0,0-.336-2.183,2.645,2.645,0,0,0-1.175-1.175C350.032,194.236,349.528,194.4,349.528,194.236Z" transform="translate(18.406 -75.981)" fill="#14365b"/><path d="M162.5,150.6H118a3.543,3.543,0,0,1-3.5-3.5V118.8h48.1v31.8Z" fill="#f98091"/><path d="M117.4,115.9a2.9,2.9,0,0,0,0,5.8h45.1v-5.8Z" fill="#f995a6"/><line x2="44.5" transform="translate(118 118.8)" fill="none" stroke="#f98091" stroke-miterlimit="10" stroke-width="0.85"/><path d="M138.4,146.5v-1.6c-2.7-.1-4.2-1.8-4.3-5l2.6-.5c.1,2.2.7,3.3,1.9,3.3a1.053,1.053,0,0,0,1-.4,2.016,2.016,0,0,0,.3-1.1,3.083,3.083,0,0,0-.1-1,2.01,2.01,0,0,0-.4-.8c-.2-.3-.4-.5-.5-.7l-.7-.7-2.2-2a7,7,0,0,1-1.4-1.7,5.214,5.214,0,0,1-.5-2.3,3.633,3.633,0,0,1,1.1-2.9,4.531,4.531,0,0,1,2.9-1.2v-1.5h.9v1.5a4.256,4.256,0,0,1,1.7.4,2.66,2.66,0,0,1,1.1,1,3.506,3.506,0,0,1,.6,1.4c.1.5.2,1,.3,1.6l-2.6.5a2.768,2.768,0,0,0-.1-.9,1.854,1.854,0,0,0-.2-.7,1.628,1.628,0,0,0-.3-.6,1,1,0,0,0-.5-.4,1.483,1.483,0,0,0-.7-.1,1.528,1.528,0,0,0-1,.4,1.82,1.82,0,0,0-.4,1.1,2.5,2.5,0,0,0,.3,1.3,4.7,4.7,0,0,0,1,1.1l2.2,1.9a3.819,3.819,0,0,1,.9.9c.3.3.5.7.8,1,.2.4.4.8.6,1.3a7.719,7.719,0,0,1,.2,1.5,3.62,3.62,0,0,1-1,2.7,4.069,4.069,0,0,1-2.6,1.3v1.6h-.9Z" fill="#e4e9ff"/><path d="M292.4,60.6V58.8h-5.1V75.4H262.5v1.8h29.9V75.4h-3.3V60.6Z" fill="#91b6e0"/><circle cx="2.2" cy="2.2" r="2.2" transform="translate(264.4 77.2)" fill="#91b6e0"/><circle cx="2.2" cy="2.2" r="2.2" transform="translate(286 77.2)" fill="#91b6e0"/><path d="M285.2,58.8H259.9l2.6,14.7h22.7Z" fill="#91b6e0"/><path d="M385.117,202.138a3.132,3.132,0,0,0,.672-.112,1.993,1.993,0,0,0,1.344-1.344,3.1,3.1,0,0,0,.112-1.455v-6.27c0-6.829,0-16.57-.112-28.661V124.663a2.022,2.022,0,0,0-1.791-1.679H333.28a1.962,1.962,0,0,0-1.9,1.9v75.46a1.817,1.817,0,0,0,.56,1.008,2.165,2.165,0,0,0,1.008.56c.336.112.784,0,1.232.112h11.98c12.091,0,21.944.112,28.661.112h-.224c-6.829,0-16.57,0-28.661.112h-11.98a5.45,5.45,0,0,1-1.343-.112,2.486,2.486,0,0,1-1.9-1.9,5.393,5.393,0,0,1,0-1.344V124.663a2.584,2.584,0,0,1,2.575-2.463h52.172a2.609,2.609,0,0,1,2.351,2.127,27.211,27.211,0,0,1,0,3.023v36.722c0,12.091-.112,21.944-.112,28.661V199a5.473,5.473,0,0,1-.112,1.455,2.077,2.077,0,0,1-1.455,1.343A2.6,2.6,0,0,1,385.117,202.138Z" transform="translate(113.171 428.103) rotate(-90)" fill="#14365b"/><path d="M542.8,72.2c-3.2-6.1-10.6,1.4-10.6,1.4s-7.3-7.5-10.6-1.4C517,81,532.2,88.6,532.2,88.6S547.5,81,542.8,72.2Z" fill="#f98091"/><path d="M380.213,171.408a4.134,4.134,0,0,0,.611-.069,1.674,1.674,0,0,0,1.223-.827c.2-.276.1-.551.1-.9v-3.859c0-4.2,0-10.2-.1-17.643v-24.4c-.1-.551-.815-.965-1.63-1.034H333.044c-.917,0-1.732.551-1.732,1.172v46.451a1.1,1.1,0,0,0,.509.62,2.337,2.337,0,0,0,.917.345c.306.069.713,0,1.121.069h10.9c11,0,19.968.069,26.081.069h-.2c-6.214,0-15.078,0-26.081.069h-10.9a7.274,7.274,0,0,1-1.223-.069,2.918,2.918,0,0,1-1.121-.414,1.6,1.6,0,0,1-.611-.758,2.257,2.257,0,0,1,0-.827V123.716c0-.827,1.121-1.516,2.343-1.516h47.475a2.243,2.243,0,0,1,2.139,1.309,11.341,11.341,0,0,1,0,1.861v22.605c0,7.443-.1,13.508-.1,17.643v3.859a2.318,2.318,0,0,1-.1.9,1.831,1.831,0,0,1-1.324.827A3.253,3.253,0,0,1,380.213,171.408Z" transform="translate(175.197 -68.39)" fill="#14365b"/><path d="M630.1,163.3H588.9a4.439,4.439,0,0,1-4.4-4.4V137.8a4.439,4.439,0,0,1,4.4-4.4h41.2a4.439,4.439,0,0,1,4.4,4.4v21.1A4.375,4.375,0,0,1,630.1,163.3Z" fill="#62a5e7"/><rect width="50" height="3.4" transform="translate(584.5 140.4)" fill="#fcd98e"/><rect width="6.9" height="3.3" transform="translate(590 152.9)" fill="#e4e9ff"/><rect width="6.9" height="3.3" transform="translate(599.8 152.9)" fill="#e4e9ff"/><rect width="13.9" height="3.3" transform="translate(609.6 152.9)" fill="#e4e9ff"/><line x2="23.3" transform="translate(590 148.4)" stroke-width="1.133" stroke="#01004c" stroke-linecap="round" stroke-linejoin="round" stroke-miterlimit="10" fill="none"/><path d="M461,144.2H420.3l4.5-52.6h30.6Z" fill="#e2697d"/><path d="M426.3,92.5h19.6V85.4a9.816,9.816,0,0,0-9.8-9.8h0a9.816,9.816,0,0,0-9.8,9.8v7.1Z" fill="none" stroke="#14365b" stroke-linecap="round" stroke-linejoin="round" stroke-miterlimit="10" stroke-width="1.133"/><path d="M453.2,144.2H412.5L417,91.6h30.6Z" fill="#f98091"/><circle cx="17" cy="17" r="17" transform="translate(532.3 204.5)" fill="none" stroke="#14365b" stroke-linecap="round" stroke-linejoin="round" stroke-miterlimit="10" stroke-width="1.133"/><path d="M543.8,222.6a3.121,3.121,0,0,1-2.7-1.1,4.589,4.589,0,0,1-.9-3.1v-.9a5.225,5.225,0,0,1,.8-3.1,4.42,4.42,0,0,1,5.6,0,4.6,4.6,0,0,1,.8,3.1v1a4.589,4.589,0,0,1-.9,3.1A3.087,3.087,0,0,1,543.8,222.6Zm0-1.9a.749.749,0,0,0,.5-.1c.1-.1.3-.2.3-.3a.764.764,0,0,0,.2-.5,1.269,1.269,0,0,0,.1-.6v-2.3a1.269,1.269,0,0,0-.1-.6c0-.2-.1-.3-.2-.5a1.38,1.38,0,0,0-.4-.3,1.3,1.3,0,0,0-1,0q-.3.15-.3.3c-.1.1-.1.3-.2.5,0,.2-.1.4-.1.6v2.5a1.853,1.853,0,0,0,.2.7,1,1,0,0,0,.4.5C543.4,220.6,543.6,220.7,543.8,220.7ZM546,230l4.7-16.5h2L548,230Zm8.7.1A3.121,3.121,0,0,1,552,229a4.589,4.589,0,0,1-.9-3.1V225a5.225,5.225,0,0,1,.8-3.1,4.42,4.42,0,0,1,5.6,0,4.435,4.435,0,0,1,.8,3.1v1a4.589,4.589,0,0,1-.9,3.1A3.386,3.386,0,0,1,554.7,230.1Zm0-2a.749.749,0,0,0,.5-.1c.1-.1.3-.2.3-.3s.2-.3.2-.5.1-.4.1-.6v-2.3a1.269,1.269,0,0,0-.1-.6c0-.2-.1-.3-.2-.5l-.3-.3c-.1-.1-.3-.1-.6-.1a.749.749,0,0,0-.5.1c-.1.1-.3.2-.3.3-.1.1-.1.3-.2.5,0,.2-.1.4-.1.6v2.5a1.853,1.853,0,0,0,.2.7,1,1,0,0,0,.4.5A1.268,1.268,0,0,0,554.7,228.1Z" fill="#f98091"/><path d="M323.2,273.2c14.6,44.2,14,108.9,9.5,135.8l10.7,3s26.7-72.8,16.5-127.8Z" fill="#5987e4"/><path d="M343.4,412l13.9,17.8-29-9.9,4.4-10.9Z" fill="#3a6cd6"/><g transform="translate(341.765 414.916) rotate(-19)"><path d="M154.922,439.871c.168.168-.336.84-1.343,1.175-.84.336-1.679.168-1.679,0,0-.336.5-.672,1.343-.84C154.083,439.7,154.754,439.535,154.922,439.871Z" transform="translate(-151.9 -439.696)" fill="#184bb8"/></g><path d="M154.894,439c0,.336-.84.5-1.847.5s-1.847-.168-1.847-.5.84-.5,1.847-.5S154.894,438.668,154.894,439Z" transform="translate(54.276 48.016) rotate(-19)" fill="#184bb8"/><path d="M266.191,442.177c.065.065.261-.13.522-.456a8.827,8.827,0,0,1,1.108-1.108,2.728,2.728,0,0,1,1.369-.587c.391-.065.652,0,.652-.065s-.2-.2-.652-.261a2.635,2.635,0,0,0-1.565.522,4.2,4.2,0,0,0-1.043,1.239C266.256,441.916,266.126,442.177,266.191,442.177Z" transform="matrix(0.07, 0.998, -0.998, 0.07, 753.745, 118.658)" fill="#184bb8"/><ellipse cx="13.25" cy="0.25" rx="13.25" ry="0.25" transform="translate(329.547 417.298) rotate(19)" fill="#184bb8"/><path d="M291.5,280h55.1l.3,6H291.2Z" fill="#14365b"/><line x1="7.7" y2="161.6" transform="translate(283.8 278.6)" stroke-width="2.265" stroke="#14365b" stroke-linecap="round" stroke-linejoin="round" stroke-miterlimit="10" fill="none"/><line x2="7.8" y2="161.6" transform="translate(346.5 278.6)" stroke-width="2.265" stroke="#14365b" stroke-linecap="round" stroke-linejoin="round" stroke-miterlimit="10" fill="none"/><line x1="64.1" transform="translate(287 373.8)" stroke-width="2.265" stroke="#14365b" stroke-linecap="round" stroke-linejoin="round" stroke-miterlimit="10" fill="none"/><path d="M352.8,281.9H285.2a4.481,4.481,0,0,1-4.5-4.5v-1.5a4.481,4.481,0,0,1,4.5-4.5h67.6a4.481,4.481,0,0,1,4.5,4.5v1.5A4.481,4.481,0,0,1,352.8,281.9Z" fill="#14365b"/><path d="M338.3,170.8c-11.4-25.1-17.4-69.2,18-73.3,0,0,10.8-8.5,23.3,3.1s-4.2,40.6-2.4,62.3,25.5,41.7,10.3,60.7-35,14.1-42.4-13.7C337.8,182.2,338.3,170.8,338.3,170.8Z" fill="#14365b"/><path d="M344.3,362.4c.6.807,6.1,7.6,6.1,7.6s35.4-15.7,41-51.1-19-63-35.6-75.7l-52.851-3.18S292.2,266.5,317.7,275.7s39.7,1.8,47.5,28.7-18.924,56.214-18.924,56.214S343.7,361.593,344.3,362.4Z" transform="translate(-1)" fill="#3a6cd6"/><path d="M342.3,362.4l8.1,7.6s35.4-15.7,41-51.1-19-63-35.6-75.7l-56.7-1.6s-6.9,24.9,18.6,34.1,39.7,1.8,47.5,28.7C373,331.2,342.3,362.4,342.3,362.4Z" fill="#5987e4"/><path d="M350.4,370l4,22.2-21-22.2,8.9-7.6Z" fill="#3a6cd6"/><path d="M266.191,442.177c.065.065.261-.13.522-.456a8.827,8.827,0,0,1,1.108-1.108,2.728,2.728,0,0,1,1.369-.587c.391-.065.652,0,.652-.065s-.2-.2-.652-.261a2.635,2.635,0,0,0-1.565.522,4.2,4.2,0,0,0-1.043,1.239C266.256,441.916,266.126,442.177,266.191,442.177Z" transform="matrix(-0.438, 0.899, -0.899, -0.438, 852.892, 321.23)" fill="#184bb8"/><ellipse cx="13.25" cy="0.25" rx="13.25" ry="0.25" transform="matrix(0.656, 0.755, -0.755, 0.656, 336.205, 367.76)" fill="#184bb8"/><g transform="translate(348.175 372.623)"><path d="M154.922,439.871c.168.168-.336.84-1.343,1.175-.84.336-1.679.168-1.679,0,0-.336.5-.672,1.343-.84C154.083,439.7,154.754,439.535,154.922,439.871Z" transform="translate(-151.9 -439.696)" fill="#184bb8"/></g><path d="M154.894,439c0,.336-.84.5-1.847.5s-1.847-.168-1.847-.5.84-.5,1.847-.5S154.894,438.668,154.894,439Z" transform="translate(195.8 -67.885)" fill="#184bb8"/><path d="M338.3,140.5l9.1,4.3,4.1-8.9s13,9.5,19.4-3.9a6.013,6.013,0,0,0,4,0s-1.5-7.7,1.2-14.7c0,0-5.2-9.6-10.9-4.3-3.6,3.4-7.2,5.4-8.6,4-1.3-1.4,2.3-4.9-.4-7.8a5.593,5.593,0,0,0-8.6.7c-4.4,6.7,1.1,9.9,1.1,9.9Z" fill="#e5baab"/><path d="M366.4,119.2a4.7,4.7,0,0,1,4,2.5" fill="none" stroke="#14365b" stroke-linecap="round" stroke-miterlimit="10" stroke-width="0.566"/><path d="M348.3,112.8a9.467,9.467,0,0,1,.9-1.7,3.5,3.5,0,0,1,2.9-1.5,3.3,3.3,0,0,1,2.2.8" fill="none" stroke="#14365b" stroke-linecap="round" stroke-miterlimit="10" stroke-width="0.566"/><path d="M350.9,109.9a4.964,4.964,0,0,0,.8,2.9" fill="none" stroke="#14365b" stroke-linecap="round" stroke-miterlimit="10" stroke-width="0.566"/><path d="M350,139.1h0l1.4-3.1a37.326,37.326,0,0,1-3.9-2.7A5.919,5.919,0,0,0,350,139.1Z" fill="#c1998c" opacity="0.75"/><path d="M292.8,260.113s37.506,14.41,69.272-11.621C362.154,248.345,292.8,260.113,292.8,260.113Z" fill="#3a6cd6"/><path d="M362.2,248.6c-19.3,12-32.8,19.2-69.4,11.4,0,0,6.3-35,11.7-67.9s17.3-53.5,35.2-52.2,23.5,39.7,20.6,64.7c-2.9,25.1,2,43,2,43" fill="#e4b26d"/><path d="M345.2,154.5c.7,1.5-11.9,16.1-11.9,16.1-.1,18,6.3,51.2,26.2,56.1h0a131.311,131.311,0,0,1,.8-22c1.6-13.8.6-31.7-3.6-45.1C349.8,156.2,345,154.1,345.2,154.5Z" fill="#d6a259"/><path d="M413,230.5s-10.5-4.3-27.3-17.6c-8.5-6.7-14.5-19.2-19.8-32.1L342,192.9c19.8,31,66.2,45.5,66.2,45.5h23.6C430.4,228.8,413,230.5,413,230.5Z" fill="#e5baab"/><path d="M350.6,146.8s-29.2,3.9-12.4,39.5a53.15,53.15,0,0,0,3.7,6.6c11.1-3.1,18.8-7.8,23.8-12.1C360.6,168.1,356.1,155,350.6,146.8Z" fill="#e4b26d"/></g></svg>