<svg xmlns="http://www.w3.org/2000/svg" xmlns:xlink="http://www.w3.org/1999/xlink" width="521.498" height="355.359" viewBox="0 0 521.498 355.359"><defs><clipPath id="a"><path d="M0,0H76.7V70.795H0Z" transform="translate(-24.497 1522.768)" fill="#f4f3f9"/></clipPath></defs><g transform="translate(105.348 -106.87)"><path d="M232.861,350.554c-133-171.109-92.778-283.865,45.891-302.363S431.708,99.442,494.262,83.483s-22.46,81.974-19.9,118.737c2.565,36.692-10.473,115.7-32.7,148.334Z" transform="translate(-256.754 111.465)" fill="#e3e4f2"/><path d="M428.681,274.183A94.871,94.871,0,0,1,446.04,289.37l-10.7-28.708c-5.415,6.774-30.369-1.163-42.7-9.149-12.539-8.141-17.468-23.122-14-28.164,2.35-3.408,18.878-6.833,31.419,1.3a86.823,86.823,0,0,1,18.014,16.515l-10.846-29.1a2.764,2.764,0,0,1-.376-.059c-4.155,4.12-20.648-1.183-28.88-6.519-8.552-5.554-11.914-15.771-9.545-19.208,1.594-2.326,12.873-4.658,21.425.886a59.03,59.03,0,0,1,12.306,11.3l-7.225-19.388a2.261,2.261,0,0,1-.467.237c-4.128,1.254-11.145-9.83-13.267-16.811s.755-14.127,3.635-14.916c1.956-.53,9.2,3.392,11.315,10.377,1.95,6.412,2.369,17.968-.767,20.789,2.3,5.4,5.322,12.523,8.841,20.818a59.2,59.2,0,0,1,6.2-17.472c5.109-8.831,15.148-12.707,18.7-10.518,2.4,1.477,5.306,12.622.2,21.449-4.185,7.231-13.708,17.147-19.895,18.834,4.851,11.428,10.267,24.2,15.793,37.254-.176-9.98,4.7-25.462,9.954-34.538,7.486-12.943,22.193-18.627,27.41-15.421,3.522,2.172,7.783,18.5.3,31.449-7.34,12.682-25.887,31-33.832,27.564,6.285,14.824,12.559,29.669,18.172,42.965.063-11.329,5.486-28.33,11.3-38.385,8.495-14.687,25.189-21.141,31.1-17.5,4,2.466,8.835,21,.346,35.689-8.212,14.185-28.8,34.611-38.015,31.439,9.208,21.872,15.68,37.372,15.589,37.578l-8.362,1.535-13.138-35.254c-8.131,5.439-33.98-3.04-47.141-11.576-14.24-9.228-19.825-26.231-15.886-31.953C395.693,268.839,414.455,264.952,428.681,274.183Z" transform="translate(-416.352 -18.72)" fill="#14bda4"/><path d="M176.933,515.687C125.973,498.948,81.774,457.35,72.722,405.7S97.106,295.839,149.641,284.64c24.841-5.294,51.651-.566,75.385-9.457,44.76-16.768,59.972-73.5,101.322-97.153,39.841-22.8,94.467-6.356,124.147,28.143s38.343,82.1,36.522,127.081c-2.673,66.083-31.493,137.354-93.018,165.3C342.154,522.1,232.536,528.77,176.933,515.687" transform="translate(-71.098 -60.636)" fill="#ece7f8"/><g transform="translate(81.236 206.827)"><g transform="translate(4.541 4.541)" opacity="0.15"><path d="M118.047,202.674a11.6,11.6,0,0,0-16.37,11.043c.125,3.075,1.351,6.576-.6,8.951-1.512,1.837-4.21,2.01-6.376,2.988a8.959,8.959,0,0,0-4.3,11.424c1.013,2.228,3.022,4.278,2.639,6.7a5.4,5.4,0,0,1-2.863,3.588c-1.374.788-2.916,1.235-4.337,1.932-5.189,2.539-8.338,8.433-8.188,14.208a19.917,19.917,0,0,0,7.879,14.8,27.968,27.968,0,0,0,16.136,5.488c5.784.216,11.833-1.14,16.247-4.884,3.311-2.809,5.472-6.746,7.069-10.786a53.982,53.982,0,0,0,3.56-24.3c-.729-8.536-3.488-16.81-4.09-25.357a56.09,56.09,0,0,0-.8-8.565c-.638-2.8-2.071-5.568-4.526-7.055" transform="translate(-77.646 -167.949)" fill="#3d3d3d"/><path d="M109.441,252.325s-8.131,47.917,3.336,46.738c37.719-3.878,60.179-4.4,60.179-4.4l6.251,12.982c.145,2.212-71.43,22.7-82.931,15.925-8.12-4.782-21.056-17.666-15.184-56.169l1.387-12.9Z" transform="translate(-75.15 -103.587)" fill="#3d3d3d"/><path d="M149.557,270.2a3.883,3.883,0,1,1-3.976-3.788A3.883,3.883,0,0,1,149.557,270.2Z" transform="translate(3.867 -85.685)" fill="#3d3d3d"/><path d="M151.982,271.034a5.438,5.438,0,1,1-5.568-5.3A5.438,5.438,0,0,1,151.982,271.034Z" transform="translate(2.997 -86.555)" fill="#3d3d3d" opacity="0.41"/><path d="M89.634,240.329s-8.8,8.447-10.765,40.417l34.052-3.769S118.6,222.531,89.634,240.329Z" transform="translate(-76.091 -123.374)" fill="#3d3d3d"/><path d="M91.46,217l5.566,29.685a11.907,11.907,0,0,0,14.469,9.387h0a11.9,11.9,0,0,0,8.958-13.663l-3.02-17.014Z" transform="translate(-60.092 -148.478)" fill="#3d3d3d"/><path d="M101.54,227.259c.079-.057.248.266.624.309.381.016.908-.309,1.065-1.151a10.473,10.473,0,0,0-.03-3.068l-.3-3.956c-.352-5.618-.372-10.186-.045-10.207s.874,4.514,1.226,10.134l.2,3.96a9.309,9.309,0,0,1-.257,3.374c-.252.988-1.342,1.683-1.987,1.356S101.5,227.252,101.54,227.259Z" transform="translate(-47.32 -158.405)" fill="#3d3d3d"/><path d="M115.488,224.383c.091.109-.731,1.015-2.427,1.991a15.668,15.668,0,0,1-14.735.311c-1.742-.906-2.6-1.773-2.509-1.889.1-.15,1.117.461,2.85,1.124a18.723,18.723,0,0,0,7.028,1.269C111.428,227.088,115.317,224.061,115.488,224.383Z" transform="translate(-54.564 -139.123)" fill="#3d3d3d"/><path d="M107.495,220.49c.116.084-.15.749-1.065,1.394a4.839,4.839,0,0,1-7.284-2.341c-.37-1.065-.2-1.755-.054-1.753.179-.016.32.606.811,1.394a4.717,4.717,0,0,0,6.122,1.969C106.886,220.792,107.359,220.374,107.495,220.49Z" transform="translate(-50.608 -147.472)" fill="#3d3d3d"/><path d="M92.721,220.593c0,.139-.5.384-1.4.118a1.985,1.985,0,0,1-1.24-1.183,1.792,1.792,0,0,1-.052-1.138,1.5,1.5,0,0,1,.915-.985,1.45,1.45,0,0,1,1.783.547l-1,.522c-.656-1.66-.974-2.936-.729-3.043s.976.983,1.767,2.584l-1,.522a.4.4,0,0,0-.393-.027c-.22.068-.32.329-.245.679a1.27,1.27,0,0,0,.561.765C92.219,220.313,92.735,220.42,92.721,220.593Z" transform="translate(-62.002 -150.478)" fill="#3d3d3d"/><path d="M105.756,213.249c-.318.073-.74-.595-.945-1.492s-.109-1.683.211-1.755.74.6.942,1.494S106.074,213.179,105.756,213.249Z" transform="translate(-43.261 -157.375)" fill="#3d3d3d"/><path d="M98.123,213.97c-.313.086-.772-.57-1.02-1.467s-.2-1.7.118-1.785.772.57,1.02,1.467S98.438,213.881,98.123,213.97Z" transform="translate(-53.121 -156.467)" fill="#3d3d3d"/><path d="M100.532,209.262c-.1.32-1.029.309-2.062.595-1.04.259-1.842.72-2.089.495-.254-.2.4-1.276,1.789-1.637S100.655,208.965,100.532,209.262Z" transform="translate(-53.907 -159.148)" fill="#3d3d3d"/><path d="M108.7,208.16c-.132.309-1.156.157-2.355.275-1.2.093-2.18.418-2.366.139-.2-.252.736-1.188,2.264-1.317S108.85,207.878,108.7,208.16Z" transform="translate(-44.214 -160.878)" fill="#3d3d3d"/><path d="M104.592,221.158a2.468,2.468,0,1,1-4.528-.963c.913-1.362,2.1-2.182,2.8-2.05C103.555,218.311,104.327,219.541,104.592,221.158Z" transform="translate(-49.686 -147.038)" fill="#3d3d3d"/><path d="M103.81,216.712c.288,1.6-1.692,3.295-4.451,3.417s-4.889-1.381-4.744-3,2.139-2.8,4.476-2.906S103.524,215.1,103.81,216.712Z" transform="translate(-56.09 -152.013)" fill="#3d3d3d"/><path d="M112.844,215.926c.322,1.594-1.408,3.29-3.908,3.417s-4.4-1.383-4.235-3,1.914-2.8,3.933-2.906S112.522,214.319,112.844,215.926Z" transform="translate(-43.278 -153.01)" fill="#3d3d3d"/><path d="M91.882,233.268c-.332-.009-.513-3.263-.724-7.262s-.354-7.257-.023-7.3c.316-.043,1,3.188,1.2,7.239S92.2,233.277,91.882,233.268Z" transform="translate(-60.752 -146.308)" fill="#3d3d3d"/><path d="M120.33,273.361s18.456-5.79,17.823-3.885-3.774,1.976-6.914,5.046c0,0,20.634.223,19.642,1.923s-14.424,2.128-14.5,2.416,14.689.652,14.358,2.223-14.058,1.19-14.058,1.19,12.723,1.351,12.462,3.047-11.992.472-11.992.472,9.819,1.124,9.564,2.659c-.157.936-28.75,1.149-28.809,1.837-.03.359,2.427-16.928,2.427-16.928" transform="translate(-26.492 -82.283)" fill="#3d3d3d"/><path d="M91.009,249.692c.125-.011.54.731.563,2.209a3.013,3.013,0,0,1-1.208,2.412,2.21,2.21,0,0,1-1.76.409,2.961,2.961,0,0,1-1.528-.985c-.731-.854-1.206-1.358-1.955-1.446a2.162,2.162,0,0,0-1.78.509c-.87.8-.842,1.71-1.02,1.705-.118.082-.57-.988.411-2.278a2.9,2.9,0,0,1,2.514-1.017,3.028,3.028,0,0,1,1.571.6,8.89,8.89,0,0,1,1.124,1.124c1.174,1.6,2.716.041,2.8-1.115C90.925,250.6,90.816,249.7,91.009,249.692Z" transform="translate(-71.967 -106.933)" fill="#3d3d3d"/><path d="M90.478,247.019c-.075-.1.343-.84,1.594-1.63a3.017,3.017,0,0,1,2.689-.223,2.22,2.22,0,0,1,1.265,1.29,2.986,2.986,0,0,1-.045,1.819,3.214,3.214,0,0,0-.218,2.423,2.148,2.148,0,0,0,1.36,1.256c1.135.327,1.9-.17,1.987-.016.129.059-.547,1-2.162.833a2.9,2.9,0,0,1-2.175-1.617,3.033,3.033,0,0,1-.307-1.655,8.742,8.742,0,0,1,.375-1.544c.761-1.837-1.378-2.339-2.409-1.81C91.3,246.62,90.589,247.178,90.478,247.019Z" transform="translate(-61.351 -112.964)" fill="#3d3d3d"/><path d="M90.178,237.471c-.075-.1.343-.842,1.594-1.63a3.018,3.018,0,0,1,2.689-.223,2.213,2.213,0,0,1,1.265,1.29,2.985,2.985,0,0,1-.045,1.819,3.214,3.214,0,0,0-.218,2.423,2.148,2.148,0,0,0,1.36,1.256c1.135.327,1.9-.17,1.987-.016.129.059-.547,1-2.162.833a2.9,2.9,0,0,1-2.175-1.617,3.033,3.033,0,0,1-.307-1.655,8.741,8.741,0,0,1,.375-1.544c.761-1.837-1.378-2.339-2.409-1.81C91,237.072,90.289,237.63,90.178,237.471Z" transform="translate(-61.732 -125.097)" fill="#3d3d3d"/><path d="M100.96,253.808c-.093.084-.87-.268-1.764-1.446a3.016,3.016,0,0,1-.456-2.659,2.219,2.219,0,0,1,1.174-1.372,2.993,2.993,0,0,1,1.817-.113,3.216,3.216,0,0,0,2.432.007,2.153,2.153,0,0,0,1.131-1.465c.227-1.16-.334-1.876-.188-1.978.048-.136,1.045.459,1.02,2.078a2.9,2.9,0,0,1-1.421,2.309,3.046,3.046,0,0,1-1.621.452,9.085,9.085,0,0,1-1.571-.241c-1.9-.595-2.209,1.578-1.592,2.559C100.49,253.026,101.108,253.683,100.96,253.808Z" transform="translate(-51.013 -113.197)" fill="#3d3d3d"/><path d="M110.718,262.24c.068.1-.4.815-1.71,1.508a3.012,3.012,0,0,1-2.7.025,2.217,2.217,0,0,1-1.165-1.381,2.975,2.975,0,0,1,.179-1.81,3.2,3.2,0,0,0,.4-2.4,2.142,2.142,0,0,0-1.263-1.353c-1.108-.409-1.905.03-1.985-.132-.125-.068.62-.956,2.216-.672a2.9,2.9,0,0,1,2.05,1.773,3.027,3.027,0,0,1,.186,1.674,9.245,9.245,0,0,1-.488,1.512c-.892,1.773,1.2,2.434,2.268,1.982C109.874,262.578,110.619,262.074,110.718,262.24Z" transform="translate(-46.114 -98.953)" fill="#3d3d3d"/><path d="M118.32,246.491c.068.1-.4.813-1.71,1.508a3.012,3.012,0,0,1-2.7.025,2.216,2.216,0,0,1-1.165-1.381,2.975,2.975,0,0,1,.179-1.81,3.214,3.214,0,0,0,.4-2.4,2.145,2.145,0,0,0-1.265-1.353c-1.108-.409-1.905.03-1.982-.132-.125-.068.62-.956,2.216-.672a2.9,2.9,0,0,1,2.05,1.773,3.048,3.048,0,0,1,.186,1.674,8.931,8.931,0,0,1-.49,1.51c-.892,1.778,1.2,2.437,2.271,1.985C117.473,246.829,118.22,246.323,118.32,246.491Z" transform="translate(-36.455 -118.966)" fill="#3d3d3d"/><path d="M121.028,240.6c.077-.1.9.1,2,1.1a3.01,3.01,0,0,1,.936,2.53,2.214,2.214,0,0,1-.9,1.564,2.985,2.985,0,0,1-1.764.443c-1.122-.05-1.817-.048-2.391.438a2.157,2.157,0,0,0-.847,1.649c-.011,1.181.672,1.782.547,1.91-.02.141-1.11-.259-1.381-1.857a2.9,2.9,0,0,1,.974-2.53,3.035,3.035,0,0,1,1.512-.74,8.892,8.892,0,0,1,1.587-.052c1.973.241,1.885-1.955,1.1-2.807C121.635,241.281,120.906,240.75,121.028,240.6Z" transform="translate(-27.39 -118.516)" fill="#3d3d3d"/><path d="M102.527,270.384c.066.1-.4.813-1.712,1.508a3.008,3.008,0,0,1-2.7.023,2.208,2.208,0,0,1-1.167-1.378,2.99,2.99,0,0,1,.179-1.81,3.223,3.223,0,0,0,.4-2.4,2.162,2.162,0,0,0-1.265-1.353c-1.108-.409-1.905.03-1.982-.129-.127-.068.62-.958,2.216-.672a2.9,2.9,0,0,1,2.05,1.771,3.048,3.048,0,0,1,.184,1.673,8.769,8.769,0,0,1-.488,1.512c-.892,1.776,1.2,2.434,2.268,1.982C101.68,270.723,102.427,270.216,102.527,270.384Z" transform="translate(-56.524 -88.605)" fill="#3d3d3d"/><path d="M110.259,256.47c-.1.07-.829-.37-1.578-1.646a3,3,0,0,1-.139-2.693,2.213,2.213,0,0,1,1.328-1.224,2.99,2.99,0,0,1,1.817.1,3.214,3.214,0,0,0,2.414.3,2.149,2.149,0,0,0,1.3-1.322c.363-1.124-.109-1.9.048-1.987.061-.127.983.579.765,2.187a2.9,2.9,0,0,1-1.685,2.123,3.043,3.043,0,0,1-1.662.257,8.879,8.879,0,0,1-1.533-.425c-1.812-.815-2.38,1.306-1.885,2.352C109.886,255.639,110.422,256.364,110.259,256.47Z" transform="translate(-38.712 -109.106)" fill="#3d3d3d"/><path d="M95.009,258.945c-.123-.016-.366-.831-.064-2.28a3.012,3.012,0,0,1,1.708-2.087,2.214,2.214,0,0,1,1.805-.014,2.969,2.969,0,0,1,1.276,1.3c.525.992.879,1.59,1.59,1.839a2.149,2.149,0,0,0,1.848-.1c1.024-.59,1.2-1.483,1.369-1.442.134-.052.341,1.09-.9,2.134a2.9,2.9,0,0,1-2.675.441,3.046,3.046,0,0,1-1.4-.929,9.1,9.1,0,0,1-.849-1.342c-.792-1.823-2.639-.634-2.975.475C95.291,258.077,95.2,258.976,95.009,258.945Z" transform="translate(-55.848 -100.978)" fill="#3d3d3d"/><path d="M109.713,269c-.123-.016-.366-.831-.064-2.28a3,3,0,0,1,1.708-2.087,2.2,2.2,0,0,1,1.805-.014,2.993,2.993,0,0,1,1.276,1.3c.525.992.879,1.587,1.59,1.839a2.149,2.149,0,0,0,1.848-.107c1.024-.588,1.2-1.48,1.369-1.44.134-.052.341,1.09-.9,2.134a2.9,2.9,0,0,1-2.675.44,3.063,3.063,0,0,1-1.4-.929,9.117,9.117,0,0,1-.849-1.344c-.792-1.821-2.641-.634-2.975.477C109.994,268.131,109.906,269.027,109.713,269Z" transform="translate(-37.163 -88.204)" fill="#3d3d3d"/><path d="M109.288,238.543c-.125-.014-.368-.831-.066-2.28a3.018,3.018,0,0,1,1.708-2.087,2.218,2.218,0,0,1,1.808-.014,2.993,2.993,0,0,1,1.276,1.3c.525.992.879,1.59,1.59,1.839a2.149,2.149,0,0,0,1.848-.1c1.024-.59,1.2-1.483,1.369-1.44.134-.054.338,1.088-.9,2.132a2.9,2.9,0,0,1-2.675.441,3.035,3.035,0,0,1-1.4-.929,8.738,8.738,0,0,1-.849-1.342c-.792-1.821-2.641-.633-2.977.475C109.57,237.677,109.479,238.574,109.288,238.543Z" transform="translate(-37.705 -126.904)" fill="#3d3d3d"/><path d="M106.248,276.021c-.064.107-.908.009-2.121-.84a3.017,3.017,0,0,1-1.242-2.393,2.207,2.207,0,0,1,.7-1.664,2.986,2.986,0,0,1,1.7-.661c1.119-.091,1.807-.182,2.318-.733a2.151,2.151,0,0,0,.631-1.742c-.136-1.172-.888-1.685-.781-1.826,0-.143,1.135.118,1.6,1.669a2.9,2.9,0,0,1-.649,2.632,3.045,3.045,0,0,1-1.408.924,9.092,9.092,0,0,1-1.569.25c-1.987.009-1.626,2.175-.74,2.922C105.562,275.421,106.353,275.857,106.248,276.021Z" transform="translate(-45.574 -86.049)" fill="#3d3d3d"/><path d="M90.636,240.59c.107-.061.79.447,1.412,1.792a3.008,3.008,0,0,1-.127,2.693,2.206,2.206,0,0,1-1.44,1.088,2.977,2.977,0,0,1-1.8-.279c-1.013-.484-1.653-.749-2.373-.527a2.145,2.145,0,0,0-1.421,1.188c-.47,1.083-.075,1.9-.241,1.973-.075.12-.922-.672-.547-2.25a2.9,2.9,0,0,1,1.882-1.951,3.03,3.03,0,0,1,1.68-.091,8.912,8.912,0,0,1,1.483.57c1.723.99,2.5-1.065,2.1-2.157C90.927,241.453,90.464,240.681,90.636,240.59Z" transform="translate(-69.564 -118.506)" fill="#3d3d3d"/><path d="M107.469,237.577c.109-.061.79.447,1.412,1.792a3.015,3.015,0,0,1-.125,2.693,2.21,2.21,0,0,1-1.442,1.088,2.977,2.977,0,0,1-1.8-.279c-1.013-.484-1.653-.749-2.373-.527a2.146,2.146,0,0,0-1.419,1.188c-.47,1.083-.077,1.9-.241,1.973-.075.12-.922-.672-.55-2.25a2.905,2.905,0,0,1,1.882-1.951,3.039,3.039,0,0,1,1.683-.091,9.07,9.07,0,0,1,1.483.57c1.723.99,2.5-1.067,2.1-2.155C107.762,238.44,107.3,237.668,107.469,237.577Z" transform="translate(-48.173 -122.334)" fill="#3d3d3d"/><path d="M102.019,281.036a9.031,9.031,0,0,1,.025-2.339c.093-1.5.266-3.663.5-6.333.475-5.336,1.224-12.714,2.1-20.834a23.687,23.687,0,0,0,.027-5.806,10.153,10.153,0,0,0-2-4.816,13.47,13.47,0,0,0-7.559-4.7,22.839,22.839,0,0,0-6.2-.543,12.918,12.918,0,0,1-2.328.055,6.866,6.866,0,0,1,2.291-.513,19.95,19.95,0,0,1,6.424.184,14,14,0,0,1,8.236,4.852,11.149,11.149,0,0,1,2.287,5.307,24.062,24.062,0,0,1,0,6.1c-.881,8.145-1.76,15.491-2.448,20.811-.345,2.657-.645,4.807-.876,6.29A8.868,8.868,0,0,1,102.019,281.036Z" transform="translate(-66.287 -125.57)" fill="#3d3d3d"/><path d="M113.52,254.523c.034.325-7.727,1.412-17.332,2.427s-17.423,1.578-17.46,1.253,7.725-1.412,17.335-2.43S113.486,254.2,113.52,254.523Z" transform="translate(-76.271 -100.912)" fill="#3d3d3d"/></g><g transform="translate(269.389 64.355)"><path d="M197.765,217.427c-3.567,3.429-4.925,8.76-1.521,12.877a9.986,9.986,0,0,0,13.406,1.608c9.66-7.457-.411-21.215-10.836-18.366a1.732,1.732,0,0,0,.459,3.386c3.05.175,6.31.291,8.747,2.427a6.337,6.337,0,0,1,.527,8.813c-5.684,6.987-15.552-3.3-9.585-9.548a.847.847,0,0,0-1.2-1.2Z" transform="translate(-194.282 -213.163)" fill="#8aa9fc"/></g><g transform="translate(0 33.726)"><path d="M116.047,200.674a11.6,11.6,0,0,0-16.37,11.043c.125,3.075,1.351,6.576-.6,8.951-1.512,1.837-4.21,2.01-6.376,2.988a8.959,8.959,0,0,0-4.3,11.424c1.013,2.228,3.022,4.278,2.639,6.7a5.4,5.4,0,0,1-2.863,3.588c-1.374.788-2.916,1.235-4.337,1.932-5.189,2.539-8.338,8.433-8.188,14.208a19.917,19.917,0,0,0,7.879,14.8,27.969,27.969,0,0,0,16.136,5.488c5.784.216,11.833-1.14,16.247-4.884,3.311-2.809,5.472-6.746,7.069-10.786a53.982,53.982,0,0,0,3.56-24.3c-.729-8.536-3.488-16.81-4.09-25.357a56.093,56.093,0,0,0-.8-8.565c-.638-2.8-2.071-5.568-4.526-7.055" transform="translate(-75.646 -199.675)" fill="#14365b"/></g><g transform="translate(37.051 21.648)"><path d="M94,208.539a25.542,25.542,0,0,1,17.221-13.649c4.548-1.008,9.535-.67,13.531,1.723s6.755,7.062,6.147,11.681c-.377,2.857-1.923,5.4-2.907,8.111s-1.308,6.008.52,8.236c1.639,2,4.453,2.489,6.69,3.783a10.033,10.033,0,0,1-1.029,17.893,12.057,12.057,0,0,1,10.35,14.728c-1.108,4.728-4.95,8.347-9.081,10.9a40.045,40.045,0,0,1-19.144,5.913c-7.157.322-15.084-1.794-18.976-7.809-2.557-3.951-2.947-8.876-3.233-13.574-.863-14.174-1.458-28.361-2.05-42.549a24.587,24.587,0,0,1,.35-6.823" transform="translate(-91.963 -194.356)" fill="#14365b"/></g><path d="M103.464,232.216l64.166,24.056L161.5,230.358l16.69-4.239s17.95,50.655,5.484,52.011c-21.824,2.375-54.847-6.267-54.847-6.267Z" transform="translate(-40.297 -132.346)" fill="#e5baab"/><path d="M100.993,315.984s77.522-84.614,129.856-66.139S305.278,354.5,305.278,354.5l-41.684-.674s-32.921-65.09-48.984-62.57-65.676,64.477-65.676,64.477Z" transform="translate(-43.437 -105.549)" fill="#5987e4"/><path d="M153.034,289.226l3.218,49.647c-16.71,20.543-74.884-6.02-74.884-6.02L80.691,312.1,79.34,262.66c1.34-19.689,19.624-29.351,19.624-29.351,7.559-3.767,19.088-5.906,29.474-5.393,10.843.536,13.522,5.727,17.989,15.623C150.034,251.532,159.828,264.552,153.034,289.226Z" transform="translate(-70.951 -130.158)" fill="#edc483"/><path d="M85.8,279.967s-8.9,36.213,18.22,41.922,126.851-7.646,152.828-5.361S356.7,323.12,356.7,323.12l5.409-43s-114.962-5.511-127.957-2.282S85.8,279.967,85.8,279.967Z" transform="translate(-64.514 -67.919)" fill="#5987e4"/><g transform="translate(4.459 148.738)"><path d="M107.441,250.325s-8.131,47.917,3.336,46.738c37.719-3.878,60.179-4.4,60.179-4.4l6.251,12.982c.145,2.212-71.43,22.7-82.931,15.925-8.12-4.782-21.056-17.666-15.184-56.169l1.387-12.9Z" transform="translate(-77.61 -250.325)" fill="#e5baab"/></g><g transform="translate(68.247 162.416)"><path d="M105.779,311.462l-.078-3.212,47.342-6.685,12.567-43.943,52.443-1.273L203.9,303.912Z" transform="translate(-105.701 -256.349)" fill="#14365b"/><path d="M147.557,268.2a3.883,3.883,0,1,1-3.976-3.788A3.883,3.883,0,0,1,147.557,268.2Z" transform="translate(-62.38 -246.1)" fill="#fff"/></g><path d="M87.634,238.329s-8.8,8.447-10.765,40.416l34.052-3.769S116.6,220.531,87.634,238.329Z" transform="translate(-74.091 -121.374)" fill="#edc483"/><path d="M92.39,216.831l.77,10.15s-8.629,1.163-6.17,9.033,8.363,4.428,8.363,4.428,1.474,20.168,22.135,13.772c16.442-5.089,15.436-26.381,13.35-44.533a12.154,12.154,0,0,0-14.408-10.513l-12.421,2.421A14.414,14.414,0,0,0,92.39,216.831Z" transform="translate(-61.791 -166.883)" fill="#e5baab"/><path d="M89.46,215l5.566,29.685a11.907,11.907,0,0,0,14.469,9.387h0a11.9,11.9,0,0,0,8.958-13.663l-3.02-17.014Z" transform="translate(-58.092 -146.478)" fill="#e5baab"/><g transform="translate(54.191 50.781)"><path d="M99.54,225.259c.079-.057.248.266.624.309.381.016.908-.309,1.065-1.151a10.474,10.474,0,0,0-.03-3.068l-.3-3.956c-.352-5.618-.372-10.186-.045-10.207s.874,4.514,1.226,10.134l.2,3.96a9.31,9.31,0,0,1-.257,3.374c-.252.988-1.342,1.683-1.987,1.356S99.5,225.252,99.54,225.259Z" transform="translate(-99.511 -207.186)" fill="#14365b"/></g><g transform="translate(41.247 85.236)"><path d="M113.488,222.383c.091.109-.731,1.015-2.427,1.991a15.668,15.668,0,0,1-14.735.311c-1.742-.906-2.6-1.773-2.509-1.889.1-.15,1.117.461,2.85,1.124a18.723,18.723,0,0,0,7.028,1.269C109.428,225.088,113.317,222.061,113.488,222.383Z" transform="translate(-93.81 -222.359)" fill="#14365b"/></g><g transform="translate(48.315 70.318)"><path d="M105.495,218.49c.116.084-.15.749-1.065,1.394a4.839,4.839,0,0,1-7.284-2.341c-.37-1.065-.2-1.755-.054-1.753.179-.016.32.606.811,1.394a4.717,4.717,0,0,0,6.122,1.969C104.886,218.792,105.359,218.374,105.495,218.49Z" transform="translate(-96.923 -215.79)" fill="#14365b"/></g><g transform="translate(27.954 64.945)"><path d="M90.721,218.593c0,.139-.5.384-1.4.118a1.985,1.985,0,0,1-1.24-1.183,1.792,1.792,0,0,1-.052-1.138,1.5,1.5,0,0,1,.915-.985,1.45,1.45,0,0,1,1.783.547l-1,.522c-.656-1.66-.974-2.936-.729-3.043s.976.983,1.767,2.584l-1,.522a.4.4,0,0,0-.393-.027c-.22.068-.32.329-.245.679a1.27,1.27,0,0,0,.561.765C90.219,218.313,90.735,218.42,90.721,218.593Z" transform="translate(-87.957 -213.424)" fill="#14365b"/></g><g transform="translate(43.824 54.243)"><circle cx="1.511" cy="1.511" r="1.511" transform="translate(-1.124 -1.214)" fill="#14365b"/><circle cx="1.511" cy="1.511" r="1.511" transform="translate(17.876 -4.214)" fill="#14365b"/></g><g transform="translate(42.42 49.452)"><path d="M98.532,207.262c-.1.32-1.029.309-2.062.595-1.04.259-1.842.72-2.089.495-.254-.2.4-1.276,1.789-1.637S98.655,206.965,98.532,207.262Z" transform="translate(-94.327 -206.601)" fill="#14365b"/></g><g transform="translate(59.742 46.362)"><path d="M106.7,206.16c-.132.309-1.156.157-2.355.275-1.2.093-2.18.418-2.366.139-.2-.252.736-1.188,2.264-1.317S106.85,205.878,106.7,206.16Z" transform="translate(-101.955 -205.24)" fill="#14365b"/></g><g transform="translate(26.892 26.614)"><path d="M91.965,230.027c5.765-5.622,7.462-14.989,9.026-22.889a20.193,20.193,0,0,0,18.845,2.452,30.359,30.359,0,0,0,6.712,5.865,3.008,3.008,0,0,0,2.373.659c.967-.293,1.4-1.4,1.628-2.387a16.948,16.948,0,0,0-.336-9.567,11.52,11.52,0,0,0-6.419-6.885c-3.227-1.249-6.855-.706-10.2.163a56.661,56.661,0,0,0-14.4,5.949c-4.412,2.586-8.651,6.006-10.522,10.765s-1.864,14.008,2.65,16.413" transform="translate(-87.489 -196.543)" fill="#14365b"/></g><g transform="translate(30.189 72.398)"><path d="M89.882,231.268c-.332-.009-.513-3.263-.724-7.262s-.354-7.257-.023-7.3c.316-.043,1,3.188,1.2,7.239S90.2,231.277,89.882,231.268Z" transform="translate(-88.941 -216.706)" fill="#5944d8"/></g><path d="M104.733,228.827c-5.586-2.219,37.362,13.726,37.362,13.726l-4.357,29.379L121.4,266.574Z" transform="translate(-39.32 -129.173)" fill="#edc483"/><g transform="translate(31.986 22.173)"><path d="M97.6,205.609a8.91,8.91,0,0,0,1.2-7.026c-.5-1.951-1.971-3.887-3.981-3.992a4.375,4.375,0,0,0-3.093,1.276,6.356,6.356,0,0,0,6.042,10.781" transform="translate(-89.732 -194.587)" fill="#14365b"/></g><path d="M208.227,290.225S222.2,270.2,220.494,277.779,204.6,319.061,204.6,319.061Z" transform="translate(88.22 -68.879)" fill="#251a51"/><path d="M118.33,271.361s18.456-5.79,17.823-3.885-3.774,1.976-6.914,5.046c0,0,20.634.223,19.642,1.923s-14.424,2.128-14.5,2.416,14.689.652,14.358,2.223-14.058,1.19-14.058,1.19,12.723,1.351,12.462,3.047-11.992.472-11.992.472,9.819,1.124,9.564,2.659c-.157.936-28.75,1.149-28.809,1.837-.03.359,2.427-16.928,2.427-16.928" transform="translate(-24.492 -80.283)" fill="#e5baab"/><path d="M134.843,246.152s-11.208-15.668-9.21-15.661,3.04,2.959,6.921,4.977c0,0-6.195-19.594-4.276-19.183s6.49,12.988,6.787,12.975-3.944-14.1-2.352-14.276,5.488,12.932,5.488,12.932-2.67-12.459-.985-12.736,4.171,11.2,4.171,11.2-1.985-9.639-.454-9.875c.933-.143,9.394,23.768,9.394,23.768-.223,0-15.484,5.881-15.484,5.881" transform="translate(-12.43 -146.498)" fill="#e5baab"/><g transform="translate(10.148 142.759)"><path d="M89.009,247.692c.125-.011.54.731.563,2.209a3.013,3.013,0,0,1-1.208,2.412,2.21,2.21,0,0,1-1.76.409,2.961,2.961,0,0,1-1.528-.985c-.731-.854-1.206-1.358-1.955-1.446a2.162,2.162,0,0,0-1.78.509c-.87.8-.842,1.71-1.02,1.705-.118.082-.57-.988.411-2.278a2.9,2.9,0,0,1,2.514-1.017,3.028,3.028,0,0,1,1.571.6,8.889,8.889,0,0,1,1.124,1.124c1.174,1.6,2.716.041,2.8-1.115C88.925,248.6,88.816,247.7,89.009,247.692Z" transform="translate(-80.115 -247.692)" fill="#14365b"/></g><g transform="translate(29.119 131.982)"><path d="M88.478,245.019c-.075-.1.343-.84,1.594-1.63a3.017,3.017,0,0,1,2.689-.223,2.22,2.22,0,0,1,1.265,1.29,2.986,2.986,0,0,1-.045,1.819,3.214,3.214,0,0,0-.218,2.423,2.148,2.148,0,0,0,1.36,1.256c1.135.327,1.9-.17,1.987-.016.129.059-.547,1-2.162.833a2.9,2.9,0,0,1-2.175-1.617,3.033,3.033,0,0,1-.307-1.655,8.743,8.743,0,0,1,.375-1.544c.761-1.837-1.378-2.339-2.409-1.81C89.3,244.62,88.589,245.178,88.478,245.019Z" transform="translate(-88.469 -242.946)" fill="#14365b"/></g><g transform="translate(28.437 110.301)"><path d="M88.178,235.471c-.075-.1.343-.842,1.594-1.63a3.018,3.018,0,0,1,2.689-.223,2.213,2.213,0,0,1,1.265,1.29,2.985,2.985,0,0,1-.045,1.819,3.214,3.214,0,0,0-.218,2.423,2.148,2.148,0,0,0,1.36,1.256c1.135.327,1.9-.17,1.987-.016.129.059-.547,1-2.162.833a2.9,2.9,0,0,1-2.175-1.617,3.033,3.033,0,0,1-.307-1.655,8.743,8.743,0,0,1,.375-1.544c.761-1.837-1.378-2.339-2.409-1.81C89,235.072,88.289,235.63,88.178,235.471Z" transform="translate(-88.169 -233.398)" fill="#14365b"/></g><g transform="translate(47.592 131.566)"><path d="M98.96,251.808c-.093.084-.87-.268-1.764-1.446a3.016,3.016,0,0,1-.456-2.659,2.219,2.219,0,0,1,1.174-1.372,2.993,2.993,0,0,1,1.817-.113,3.216,3.216,0,0,0,2.432.007,2.153,2.153,0,0,0,1.131-1.465c.227-1.16-.334-1.876-.188-1.978.048-.136,1.045.459,1.02,2.078a2.9,2.9,0,0,1-1.421,2.309,3.046,3.046,0,0,1-1.621.452,9.085,9.085,0,0,1-1.571-.241c-1.9-.595-2.209,1.578-1.592,2.559C98.49,251.027,99.108,251.683,98.96,251.808Z" transform="translate(-96.605 -242.763)" fill="#14365b"/></g><g transform="translate(56.346 157.018)"><path d="M108.719,260.24c.068.1-.4.815-1.71,1.508a3.012,3.012,0,0,1-2.7.025,2.217,2.217,0,0,1-1.165-1.381,2.975,2.975,0,0,1,.179-1.81,3.2,3.2,0,0,0,.4-2.4,2.142,2.142,0,0,0-1.263-1.353c-1.108-.409-1.905.03-1.985-.132-.125-.068.62-.956,2.216-.672a2.9,2.9,0,0,1,2.05,1.773,3.027,3.027,0,0,1,.186,1.674,9.247,9.247,0,0,1-.488,1.512c-.892,1.773,1.2,2.434,2.268,1.982C107.874,260.578,108.619,260.074,108.719,260.24Z" transform="translate(-100.46 -253.971)" fill="#14365b"/></g><g transform="translate(73.606 121.256)"><path d="M116.32,244.491c.068.1-.4.813-1.71,1.508a3.012,3.012,0,0,1-2.7.025,2.216,2.216,0,0,1-1.165-1.381,2.975,2.975,0,0,1,.179-1.81,3.214,3.214,0,0,0,.4-2.4,2.145,2.145,0,0,0-1.265-1.353c-1.108-.409-1.905.03-1.982-.132-.125-.068.62-.956,2.216-.672a2.9,2.9,0,0,1,2.05,1.773,3.048,3.048,0,0,1,.186,1.674,8.931,8.931,0,0,1-.49,1.51c-.892,1.778,1.2,2.437,2.271,1.985C115.473,244.829,116.22,244.323,116.32,244.491Z" transform="translate(-108.061 -238.222)" fill="#14365b"/></g><g transform="translate(89.805 122.061)"><path d="M119.028,238.6c.077-.1.9.1,2,1.1a3.01,3.01,0,0,1,.936,2.53,2.214,2.214,0,0,1-.9,1.565,2.984,2.984,0,0,1-1.764.443c-1.122-.05-1.817-.048-2.391.438a2.157,2.157,0,0,0-.847,1.649c-.011,1.181.672,1.782.547,1.91-.02.141-1.11-.259-1.381-1.857a2.9,2.9,0,0,1,.974-2.53,3.035,3.035,0,0,1,1.512-.74,8.892,8.892,0,0,1,1.587-.052c1.973.241,1.885-1.955,1.1-2.807C119.635,239.281,118.906,238.75,119.028,238.6Z" transform="translate(-115.195 -238.577)" fill="#14365b"/></g><g transform="translate(37.744 175.51)"><path d="M100.527,268.384c.066.1-.4.813-1.712,1.508a3.008,3.008,0,0,1-2.7.023,2.209,2.209,0,0,1-1.167-1.378,2.99,2.99,0,0,1,.179-1.81,3.223,3.223,0,0,0,.4-2.4,2.162,2.162,0,0,0-1.265-1.353c-1.108-.409-1.905.03-1.982-.129-.127-.068.62-.958,2.216-.672a2.9,2.9,0,0,1,2.05,1.771,3.048,3.048,0,0,1,.184,1.673,8.769,8.769,0,0,1-.488,1.512c-.892,1.776,1.2,2.434,2.268,1.982C99.68,268.723,100.427,268.216,100.527,268.384Z" transform="translate(-92.268 -262.115)" fill="#14365b"/></g><g transform="translate(69.573 138.875)"><path d="M108.259,254.47c-.1.07-.829-.37-1.578-1.646a3,3,0,0,1-.138-2.693,2.213,2.213,0,0,1,1.328-1.224,2.99,2.99,0,0,1,1.817.1,3.214,3.214,0,0,0,2.414.3,2.149,2.149,0,0,0,1.3-1.322c.363-1.124-.109-1.9.048-1.987.061-.127.983.579.765,2.187a2.9,2.9,0,0,1-1.685,2.123,3.043,3.043,0,0,1-1.662.257,8.876,8.876,0,0,1-1.533-.425c-1.812-.815-2.38,1.306-1.885,2.353C107.886,253.639,108.422,254.364,108.259,254.47Z" transform="translate(-106.285 -245.982)" fill="#14365b"/></g><g transform="translate(74.159 157.366)"><path d="M110.279,262.613c-.1.07-.831-.37-1.58-1.646a3.019,3.019,0,0,1-.139-2.693,2.213,2.213,0,0,1,1.328-1.224,2.989,2.989,0,0,1,1.817.1,3.225,3.225,0,0,0,2.414.3,2.158,2.158,0,0,0,1.3-1.322c.361-1.124-.111-1.9.045-1.987.064-.127.983.579.765,2.187a2.9,2.9,0,0,1-1.683,2.123,3.05,3.05,0,0,1-1.664.257,9,9,0,0,1-1.53-.425c-1.812-.815-2.382,1.306-1.887,2.352C109.9,261.782,110.44,262.507,110.279,262.613Z" transform="translate(-108.304 -254.125)" fill="#14365b"/></g><g transform="translate(38.952 153.399)"><path d="M93.009,256.945c-.123-.016-.366-.831-.064-2.28a3.012,3.012,0,0,1,1.708-2.087,2.214,2.214,0,0,1,1.805-.014,2.968,2.968,0,0,1,1.276,1.3c.525.992.879,1.59,1.589,1.839a2.149,2.149,0,0,0,1.848-.1c1.024-.59,1.2-1.483,1.369-1.442.134-.052.341,1.09-.9,2.134a2.9,2.9,0,0,1-2.675.441,3.045,3.045,0,0,1-1.4-.929,9.1,9.1,0,0,1-.849-1.342c-.792-1.823-2.639-.634-2.975.475C93.291,256.077,93.2,256.976,93.009,256.945Z" transform="translate(-92.8 -252.378)" fill="#14365b"/></g><g transform="translate(72.341 176.226)"><path d="M107.713,267c-.123-.016-.366-.831-.064-2.28a3,3,0,0,1,1.708-2.087,2.2,2.2,0,0,1,1.805-.014,2.993,2.993,0,0,1,1.276,1.3c.525.992.879,1.587,1.59,1.839a2.149,2.149,0,0,0,1.848-.107c1.024-.588,1.2-1.48,1.369-1.44.134-.052.341,1.09-.9,2.134a2.9,2.9,0,0,1-2.675.44,3.063,3.063,0,0,1-1.4-.929,9.115,9.115,0,0,1-.849-1.344c-.792-1.821-2.641-.634-2.975.477C107.995,266.131,107.906,267.027,107.713,267Z" transform="translate(-107.504 -262.431)" fill="#14365b"/></g><g transform="translate(71.372 107.072)"><path d="M107.288,236.543c-.125-.014-.368-.831-.066-2.28a3.018,3.018,0,0,1,1.708-2.087,2.218,2.218,0,0,1,1.808-.014,2.993,2.993,0,0,1,1.276,1.3c.525.992.879,1.59,1.59,1.839a2.149,2.149,0,0,0,1.848-.1c1.024-.59,1.2-1.483,1.369-1.44.134-.054.338,1.088-.9,2.132a2.9,2.9,0,0,1-2.675.441,3.035,3.035,0,0,1-1.4-.929,8.739,8.739,0,0,1-.849-1.342c-.792-1.821-2.641-.633-2.977.475C107.57,235.677,107.479,236.574,107.288,236.543Z" transform="translate(-107.077 -231.976)" fill="#14365b"/></g><g transform="translate(57.311 180.078)"><path d="M104.248,274.021c-.064.107-.908.009-2.121-.84a3.017,3.017,0,0,1-1.242-2.393,2.207,2.207,0,0,1,.7-1.664,2.985,2.985,0,0,1,1.7-.661c1.119-.091,1.807-.182,2.318-.733a2.151,2.151,0,0,0,.631-1.742c-.136-1.172-.888-1.685-.781-1.826,0-.143,1.135.118,1.6,1.669a2.9,2.9,0,0,1-.649,2.632,3.045,3.045,0,0,1-1.408.924,9.092,9.092,0,0,1-1.569.25c-1.987.009-1.626,2.175-.74,2.922C103.562,273.421,104.353,273.857,104.248,274.021Z" transform="translate(-100.885 -264.127)" fill="#14365b"/></g><g transform="translate(14.443 122.079)"><path d="M88.636,238.59c.107-.061.79.447,1.412,1.792a3.008,3.008,0,0,1-.127,2.693,2.206,2.206,0,0,1-1.44,1.088,2.977,2.977,0,0,1-1.8-.279c-1.013-.484-1.653-.749-2.373-.527a2.145,2.145,0,0,0-1.421,1.188c-.47,1.083-.075,1.9-.241,1.973-.075.12-.922-.672-.547-2.25a2.9,2.9,0,0,1,1.882-1.951,3.03,3.03,0,0,1,1.68-.091,8.906,8.906,0,0,1,1.483.57c1.723.99,2.5-1.065,2.1-2.157C88.927,239.453,88.464,238.681,88.636,238.59Z" transform="translate(-82.006 -238.585)" fill="#14365b"/></g><g transform="translate(52.667 115.238)"><path d="M105.469,235.577c.109-.061.79.447,1.412,1.792a3.015,3.015,0,0,1-.125,2.693,2.211,2.211,0,0,1-1.442,1.088,2.977,2.977,0,0,1-1.8-.279c-1.013-.484-1.653-.749-2.373-.527a2.146,2.146,0,0,0-1.419,1.188c-.47,1.083-.077,1.9-.241,1.973-.075.12-.922-.672-.55-2.25a2.905,2.905,0,0,1,1.882-1.951,3.039,3.039,0,0,1,1.683-.091,9.069,9.069,0,0,1,1.483.57c1.723.99,2.5-1.067,2.1-2.155C105.762,236.44,105.3,235.668,105.469,235.577Z" transform="translate(-98.84 -235.572)" fill="#14365b"/></g><g transform="translate(20.298 109.455)"><path d="M100.019,279.036a9.032,9.032,0,0,1,.025-2.339c.093-1.5.266-3.663.5-6.333.475-5.336,1.224-12.714,2.1-20.834a23.686,23.686,0,0,0,.027-5.806,10.153,10.153,0,0,0-2-4.816,13.47,13.47,0,0,0-7.559-4.7,22.839,22.839,0,0,0-6.2-.543,12.912,12.912,0,0,1-2.328.054,6.869,6.869,0,0,1,2.291-.513,19.951,19.951,0,0,1,6.424.184,14,14,0,0,1,8.236,4.852,11.149,11.149,0,0,1,2.287,5.307,24.063,24.063,0,0,1,0,6.1c-.881,8.145-1.76,15.491-2.448,20.811-.345,2.657-.645,4.807-.876,6.29A8.868,8.868,0,0,1,100.019,279.036Z" transform="translate(-84.585 -233.025)" fill="#14365b"/></g><g transform="translate(2.457 153.519)"><path d="M111.52,252.523c.034.325-7.727,1.412-17.332,2.427s-17.423,1.578-17.46,1.253,7.725-1.412,17.335-2.43S111.486,252.2,111.52,252.523Z" transform="translate(-76.728 -252.43)" fill="#14365b"/></g><g transform="translate(77.272 121.19)"><path d="M116.948,266.772c-.391-.034,1.487-6.885-.654-15.041-2.012-8.2-6.926-13.313-6.6-13.533.1-.082,1.431,1.01,3.118,3.3a29.475,29.475,0,0,1,5.307,20.893C117.724,265.183,117.073,266.811,116.948,266.772Z" transform="translate(-109.675 -238.193)" fill="#14365b"/></g><g transform="translate(172.003 130.706)"><path d="M154.816,262c.293-1.948.238-3.8,1.326-5.518,2.169-3.424,5.261-2.575,8.252-1.067,3.038,1.528,5.9,2.446,9.2,1.017,5.2-2.253,7.512-9.957,2.666-13.677-1.569-1.208-3.188.781-2.954,2.271.329,2.1,1.351,4.412-.445,6.215-2.407,2.414-5.229.393-7.63-.69a9.937,9.937,0,0,0-8-.354c-4.6,1.853-7.938,8.084-4.287,12.3a1.125,1.125,0,0,0,1.869-.493Z" transform="translate(-45.394 -353.384)" fill="#6e3281"/></g><g transform="translate(187.592 49.875)"><path d="M158.27,217.762c.488,3.161,3.765,9.823,7.221,10.745,1.832.486,3.195-.722,4.619-1.7,2.593-1.787,5.157-3.617,7.72-5.443a2.226,2.226,0,0,0,.786-2.993q-3.406-5.242-6.81-10.479a2.211,2.211,0,0,0-2.993-.786,90.989,90.989,0,0,0-8.458,6.188c-1.769,1.59.49,4.294,2.477,3.209a86.841,86.841,0,0,0,8.191-5.618l-2.993-.786,6.808,10.479.786-2.993c-1.54,1.1-3.084,2.187-4.619,3.29-.77.552-3.919,3.424-4.755,3.238-.992-.223-2.593-3.084-3.22-3.828a17.654,17.654,0,0,0-3.517-3.477c-.677-.463-1.344.3-1.242.954Z" transform="translate(-158.259 -206.787)" fill="#edc483"/></g><g transform="translate(151.969 89.16)"><path d="M146.056,228.353c-3.57,3.427-4.925,8.76-1.524,12.877a9.986,9.986,0,0,0,13.406,1.608c9.66-7.457-.409-21.215-10.834-18.368a1.733,1.733,0,0,0,.456,3.388c3.05.173,6.313.291,8.747,2.425a6.34,6.34,0,0,1,.527,8.815c-5.681,6.987-15.552-3.3-9.582-9.548a.847.847,0,0,0-1.2-1.2Z" transform="translate(-142.571 -224.088)" fill="#8aa9fc"/></g><g transform="translate(234.272 123.396)"><path d="M182.108,240.891c-1.231,6.39-2.282,12.791-3.259,19.226a1.96,1.96,0,0,0,2.366,2.366c6.04-.879,12.067-1.689,18.027-3.009a1.8,1.8,0,0,0,1.07-2.625c-3.381-5.949-7.682-14.233-14.042-17.478-1.608-.822-3.89.956-2.686,2.686,1.894,2.723,4.694,4.764,6.894,7.257a51.052,51.052,0,0,1,6.746,9.339l1.544-2.691c-6.247.618-12.394,1.739-18.574,2.811l2.434,1.853c.743-6.467,1.408-12.92,1.894-19.41a1.234,1.234,0,0,0-2.414-.327Z" transform="translate(-178.817 -239.165)" fill="#e3707f"/></g><g transform="translate(207.388 92.086)"><path d="M169.361,246.551a113.426,113.426,0,0,0,2.809-19.406c.089-2-3.168-2.5-3.542-.479a113.171,113.171,0,0,0-1.651,19.562,1.219,1.219,0,0,0,2.384.322Z" transform="translate(-166.977 -225.376)" fill="#e8947e"/></g><g transform="translate(277.696 109.525)"><path d="M198.816,235.826a113.054,113.054,0,0,0,19.519,1.283,1.805,1.805,0,0,0,0-3.608,111.056,111.056,0,0,0-19.2-.057c-1.263.091-1.764,2.18-.322,2.382Z" transform="translate(-197.94 -233.056)" fill="#edc483"/><path d="M198.816,235.826a113.054,113.054,0,0,0,19.519,1.283,1.805,1.805,0,0,0,0-3.608,111.056,111.056,0,0,0-19.2-.057c-1.263.091-1.764,2.18-.322,2.382Z" transform="matrix(0.966, -0.259, 0.259, 0.966, -681.669, -123.95)" fill="#edc483"/></g><g transform="translate(226.067 28.872)"><path d="M175.8,199.8a109.432,109.432,0,0,0,17.909,7.961c1.926.62,3.231-2.373,1.392-3.3a109.567,109.567,0,0,0-18.368-6.883,1.219,1.219,0,0,0-.933,2.218Z" transform="translate(-175.203 -197.538)" fill="#e3707f"/></g><g transform="translate(238.337 81.757)"><path d="M187.122,222.159l-.327-.288a3.645,3.645,0,0,0-5.155,5.155l.288.327a3.672,3.672,0,0,0,5.193-5.193Z" transform="translate(-180.607 -220.827)" fill="#251a51"/></g><g transform="translate(-61.236 -206.827)"><path d="M171.474,226.533s-15.306,3.667-12.139,9.454,22.468,15.346,50.156,5.433,31.482-20.02,30.188-24.351-14.64-7.277-22.075-3.079S171.474,226.533,171.474,226.533Z" fill="#14365b"/><path d="M166.488,191.572c-.409,2.8,6.757,45.3,6.757,45.3s10.959,8.085,34.77,0,18.692-16.519,18.692-16.519-12.625-38-13.119-39.086-5.969-2.386-18.27.6S166.9,188.768,166.488,191.572Z" fill="#14365b"/><path d="M204.316,231.575c15.245-5.819,21.909-12.494,21.909-12.494l1.061,2.773s1.687,7.495-20.107,15.253-34.071,0-34.071,0l-.627-4.52S189.071,237.394,204.316,231.575Z" fill="#fff"/><path d="M99.54,225.259c.079-.057.248.266.624.309.381.016.908-.309,1.065-1.151a10.474,10.474,0,0,0-.03-3.068l-.3-3.956c-.352-5.618-.372-10.186-.045-10.207s.874,4.514,1.226,10.134l.2,3.96a9.31,9.31,0,0,1-.257,3.374c-.252.988-1.342,1.683-1.987,1.356S99.5,225.252,99.54,225.259Z" transform="matrix(0.07, 0.998, -0.998, 0.07, 385.904, 76.28)" fill="#91b6e0"/></g><path d="M418.339,205.153a7.663,7.663,0,0,0,1.081-.116,2.971,2.971,0,0,0,2.163-1.394c.36-.465.18-.929.18-1.51v-6.506c0-7.087,0-17.195-.18-29.742V124.756c-.18-.929-1.442-1.626-2.884-1.743H334.882c-1.622,0-3.064.929-3.064,1.975v78.306a1.875,1.875,0,0,0,.9,1.046,4.259,4.259,0,0,0,1.622.581c.541.116,1.262,0,1.983.116h19.287c19.467,0,35.33.116,46.145.116h-.361c-11,0-26.677,0-46.145.116H335.963a13.5,13.5,0,0,1-2.163-.116,5.325,5.325,0,0,1-1.983-.7,2.723,2.723,0,0,1-1.081-1.278,3.628,3.628,0,0,1,0-1.394V124.756c0-1.394,1.983-2.556,4.146-2.556h84c1.8,0,3.425,1.046,3.785,2.207a18.218,18.218,0,0,1,0,3.137v38.107c0,12.547-.18,22.771-.18,29.742V201.9a3.734,3.734,0,0,1-.18,1.51,3.266,3.266,0,0,1-2.343,1.394A6.006,6.006,0,0,1,418.339,205.153Z" transform="translate(-239.21 -154.896)" fill="#14365b"/></g><g transform="translate(-1228.771 268.672) rotate(-93)" clip-path="url(#a)"><g transform="translate(-21.892 1527.913)"><rect width="56.905" height="4.634" transform="translate(7.847 49.516) rotate(-45)" fill="#424a60"/><path d="M828.615,6.951a.772.772,0,0,1-.772-.772V.772a.772.772,0,1,1,1.545,0V6.179A.772.772,0,0,1,828.615,6.951Z" transform="translate(-780.474 0)" fill="#ebba16"/><path d="M828.615,488.912a.772.772,0,0,1-.772-.772v-5.406a.772.772,0,0,1,1.545,0v5.406A.772.772,0,0,1,828.615,488.912Z" transform="translate(-780.474 -464.198)" fill="#ebba16"/><path d="M1001.66,315.867h-5.406a.772.772,0,1,1,0-1.545h5.406a.772.772,0,0,1,0,1.545Z" transform="translate(-941.934 -302.738)" fill="#ebba16"/><path d="M519.7,315.867h-5.406a.772.772,0,1,1,0-1.545H519.7a.772.772,0,0,1,0,1.545Z" transform="translate(-477.736 -302.738)" fill="#ebba16"/><path d="M954.339,90.23a.772.772,0,0,1-.546-1.318l3.823-3.823a.772.772,0,0,1,1.092,1.092L954.885,90A.77.77,0,0,1,954.339,90.23Z" transform="translate(-901.564 -81.734)" fill="#ebba16"/><path d="M958.161,445.414a.77.77,0,0,1-.546-.226l-3.823-3.823a.772.772,0,0,1,1.092-1.092l3.823,3.823a.772.772,0,0,1-.546,1.318Z" transform="translate(-901.564 -423.828)" fill="#ebba16"/><path d="M602.977,90.23a.77.77,0,0,1-.546-.226l-3.823-3.823a.772.772,0,0,1,1.092-1.092l3.823,3.823a.772.772,0,0,1-.546,1.318Z" transform="translate(-559.47 -81.734)" fill="#ebba16"/><rect width="11.103" height="4.633" transform="translate(51.395 12.521) rotate(135)" fill="#7383bf"/><rect width="11.103" height="4.633" transform="translate(11.127 52.789) rotate(135)" fill="#7383bf"/></g></g><g transform="translate(137.154 9.052)"><g transform="translate(145.931 176.738)"><path d="M150.61,169.7l-2.695,4.925-4.925,2.7,4.925,2.692,2.695,4.925,2.7-4.925,4.925-2.692-4.925-2.7Z" transform="translate(-142.99 -169.702)" fill="#e4b26d"/></g><g transform="translate(134.092 148.413)"><path d="M138.773,148.413l-1.658,3.029-3.023,1.654,3.023,1.655,1.658,3.026,1.658-3.026,3.023-1.655-3.023-1.654Z" transform="translate(-134.092 -148.413)" fill="#e4b26d"/></g></g><g transform="matrix(0.035, -0.999, 0.999, 0.035, -37.74, 329.905)"><path d="M197.765,217.427c-3.567,3.429-4.925,8.76-1.521,12.877a9.986,9.986,0,0,0,13.406,1.608c9.66-7.457-.411-21.215-10.836-18.366a1.732,1.732,0,0,0,.459,3.386c3.05.175,6.31.291,8.747,2.427a6.337,6.337,0,0,1,.527,8.813c-5.684,6.987-15.552-3.3-9.585-9.548a.847.847,0,0,0-1.2-1.2Z" transform="translate(-194.282 -213.163)" fill="#8aa9fc"/></g><g transform="matrix(0.035, -0.999, 0.999, 0.035, 25.172, 429.548)"><path d="M154.816,262c.293-1.948.238-3.8,1.326-5.518,2.169-3.424,5.261-2.575,8.252-1.067,3.038,1.528,5.9,2.446,9.2,1.017,5.2-2.253,7.512-9.957,2.666-13.677-1.569-1.208-3.188.781-2.954,2.271.329,2.1,1.351,4.412-.445,6.215-2.407,2.414-5.229.393-7.63-.69a9.937,9.937,0,0,0-8-.354c-4.6,1.853-7.938,8.084-4.287,12.3a1.125,1.125,0,0,0,1.869-.493Z" transform="translate(-45.394 -353.384)" fill="#6e3281"/></g><path d="M182.108,240.891c-1.231,6.39-2.282,12.791-3.259,19.226a1.96,1.96,0,0,0,2.366,2.366c6.04-.879,12.067-1.689,18.027-3.009a1.8,1.8,0,0,0,1.07-2.625c-3.381-5.949-7.682-14.233-14.042-17.478-1.608-.822-3.89.956-2.686,2.686,1.894,2.723,4.694,4.764,6.894,7.257a51.052,51.052,0,0,1,6.746,9.339l1.544-2.691c-6.247.618-12.394,1.739-18.574,2.811l2.434,1.853c.743-6.467,1.408-12.92,1.894-19.41a1.234,1.234,0,0,0-2.414-.327Z" transform="matrix(0.035, -0.999, 0.999, 0.035, -225.22, 537.422)" fill="#e3707f"/><g transform="matrix(0.035, -0.999, 0.999, 0.035, -21.432, 361.546)"><path d="M187.122,222.159l-.327-.288a3.645,3.645,0,0,0-5.155,5.155l.288.327a3.672,3.672,0,0,0,5.193-5.193Z" transform="translate(-180.607 -220.827)" fill="#251a51"/></g><path d="M158.27,217.762c.488,3.161,3.765,9.823,7.221,10.745,1.832.486,3.195-.722,4.619-1.7,2.593-1.787,5.157-3.617,7.72-5.443a2.226,2.226,0,0,0,.786-2.993q-3.406-5.242-6.81-10.479a2.211,2.211,0,0,0-2.993-.786,90.989,90.989,0,0,0-8.458,6.188c-1.769,1.59.49,4.294,2.477,3.209a86.841,86.841,0,0,0,8.191-5.618l-2.993-.786,6.808,10.479.786-2.993c-1.54,1.1-3.084,2.187-4.619,3.29-.77.552-3.919,3.424-4.755,3.238-.992-.223-2.593-3.084-3.22-3.828a17.654,17.654,0,0,0-3.517-3.477c-.677-.463-1.344.3-1.242.954Z" transform="translate(-174.431 182.915)" fill="#edc483"/></g></svg>