<svg width="291" height="52" viewBox="0 0 291 52" fill="none" xmlns="http://www.w3.org/2000/svg">
<path d="M3.16016 37.9999H6.20016V29.2799C6.20016 24.5999 7.80016 22.2799 11.0402 22.2799C11.6002 22.2799 12.2402 22.3999 12.9202 22.6399L13.9602 19.8799C13.2802 19.6399 12.6002 19.5199 11.8802 19.5199C9.16016 19.5199 7.48016 20.7999 5.88016 23.8399V20.1199H3.16016V37.9999Z" fill="white"/>
<path d="M33.1036 29.5199C33.1036 29.3199 33.1036 29.1199 33.1036 28.9199C33.1036 22.9999 29.7436 19.4399 24.5036 19.4399C19.3036 19.4399 15.5836 23.3599 15.5836 28.9999C15.5836 34.8399 19.2636 38.7599 24.7036 38.7599C28.3836 38.7599 31.1836 37.1199 32.9836 33.8799L30.6636 32.3199C29.1836 34.9199 27.2636 36.1999 24.8636 36.1999C21.4236 36.1999 18.9436 33.6799 18.9436 29.7999C18.9436 29.7199 18.9436 29.5999 18.9436 29.5199H33.1036ZM29.8236 27.0399H18.9436C19.2636 23.9999 21.4636 22.1199 24.3836 22.1199C27.6236 22.1199 29.6236 23.8799 29.8236 27.0399Z" fill="white"/>
<path d="M38.1705 22.6399V37.9999H41.2905V22.6399H44.5705V20.1199H41.2905V12.9199H38.1705V20.1199H34.8905V22.6399H38.1705Z" fill="white"/>
<path d="M50.922 20.1199H47.722V30.5599C47.722 35.9599 50.562 38.7599 55.842 38.7599C61.202 38.7599 64.002 35.9599 64.002 30.5599V20.1199H60.882V28.9199C60.882 33.6399 59.842 35.8399 55.922 35.8399C52.002 35.8399 50.922 33.6399 50.922 28.9199V20.1199Z" fill="white"/>
<path d="M69.957 37.9999H72.997V29.2799C72.997 24.5999 74.597 22.2799 77.837 22.2799C78.397 22.2799 79.037 22.3999 79.717 22.6399L80.757 19.8799C80.077 19.6399 79.397 19.5199 78.677 19.5199C75.957 19.5199 74.277 20.7999 72.677 23.8399V20.1199H69.957V37.9999Z" fill="white"/>
<path d="M83.9405 37.9999H86.9805V28.7599C86.9805 26.7999 86.9805 25.3199 88.0205 24.0399C89.0205 22.7999 90.5805 22.1199 92.3805 22.1199C95.5805 22.1199 97.0605 23.8799 97.0605 27.4799V37.9999H100.18V25.8399C100.18 21.7999 97.6205 19.4799 93.4605 19.4799C90.6605 19.4799 88.5005 20.5599 86.9405 22.8799V20.1199H83.9405V37.9999Z" fill="white"/>
<path d="M106.12 37.9997H109.16V28.7597C109.16 26.7997 109.16 25.3197 110.2 24.0397C111.2 22.7997 112.76 22.1197 114.56 22.1197C117.76 22.1197 119.24 23.8797 119.24 27.4797V37.9997H122.36V25.8397C122.36 21.7997 119.8 19.4797 115.64 19.4797C112.84 19.4797 110.68 20.5597 109.12 22.8797V7.71973H106.12V37.9997Z" fill="#929AFA"/>
<path d="M145.026 20.1197H141.986V23.4797C140.626 20.8397 138.426 19.4797 135.426 19.4797C130.426 19.4797 127.026 23.1197 127.026 29.1197C127.026 34.9597 130.466 38.7597 135.586 38.7597C138.346 38.7597 140.626 37.3597 142.066 34.7597V37.9997H145.026V20.1197ZM142.066 29.2397C142.066 33.3597 139.826 35.7197 136.226 35.7197C132.426 35.7197 130.266 33.2797 130.266 28.9597C130.266 24.8797 132.426 22.5197 136.106 22.5197C139.546 22.5197 142.066 25.0797 142.066 29.2397Z" fill="#929AFA"/>
<path d="M151.159 37.9997H154.199V28.7597C154.199 26.7997 154.199 25.3197 155.239 24.0397C156.239 22.7997 157.799 22.1197 159.599 22.1197C162.799 22.1197 164.279 23.8797 164.279 27.4797V37.9997H167.399V25.8397C167.399 21.7997 164.839 19.4797 160.679 19.4797C157.879 19.4797 155.719 20.5597 154.159 22.8797V20.1197H151.159V37.9997Z" fill="#929AFA"/>
<path d="M190.065 7.71973H187.025V23.4797C185.665 20.8397 183.465 19.4797 180.505 19.4797C175.505 19.4797 172.065 23.1197 172.065 29.1197C172.065 34.9597 175.505 38.7597 180.625 38.7597C183.385 38.7597 185.705 37.3197 187.105 34.7597V37.9997H190.065V7.71973ZM187.105 29.1597C187.105 33.3997 184.785 35.7997 181.105 35.7997C177.545 35.7997 175.305 33.2397 175.305 28.7597C175.305 24.7997 177.505 22.5197 181.065 22.5197C184.665 22.5197 187.105 25.1197 187.105 29.1597Z" fill="#929AFA"/>
<path d="M196.475 37.9997H199.595V7.71973H196.475V37.9997Z" fill="#929AFA"/>
<path d="M221.963 29.5197C221.963 29.3197 221.963 29.1197 221.963 28.9197C221.963 22.9997 218.603 19.4397 213.363 19.4397C208.163 19.4397 204.443 23.3597 204.443 28.9997C204.443 34.8397 208.123 38.7597 213.563 38.7597C217.243 38.7597 220.043 37.1197 221.843 33.8797L219.523 32.3197C218.043 34.9197 216.123 36.1997 213.723 36.1997C210.283 36.1997 207.803 33.6797 207.803 29.7997C207.803 29.7197 207.803 29.5997 207.803 29.5197H221.963ZM218.683 27.0397H207.803C208.123 23.9997 210.323 22.1197 213.243 22.1197C216.483 22.1197 218.483 23.8797 218.683 27.0397Z" fill="#929AFA"/>
<path d="M226.59 37.9997H229.63V29.2797C229.63 24.5997 231.23 22.2797 234.47 22.2797C235.03 22.2797 235.67 22.3997 236.35 22.6397L237.39 19.8797C236.71 19.6397 236.03 19.5197 235.31 19.5197C232.59 19.5197 230.91 20.7997 229.31 23.8397V20.1197H226.59V37.9997Z" fill="#929AFA"/>
</svg>
