<svg xmlns="http://www.w3.org/2000/svg" xmlns:xlink="http://www.w3.org/1999/xlink" width="770.698" height="599.014" viewBox="0 0 770.698 599.014"><defs><linearGradient id="a" y1="0.5" x2="1" y2="0.5" gradientUnits="objectBoundingBox"><stop offset="0.085" stop-color="#a7b1dd"/><stop offset="0.155" stop-color="#afb9de"/><stop offset="0.356" stop-color="#c0cce2"/><stop offset="0.562" stop-color="#cbd8e4"/><stop offset="0.778" stop-color="#cfdce5"/></linearGradient></defs><g transform="translate(-1046.594 -2793.813)"><g transform="translate(855.22 2679.067)"><g transform="translate(192.78 135.933)"><path d="M921.6,198.342c-13.979-29.479-41.83-54.9-76.217-60.948-41.572-7.307-63.8,13.957-96.988,37.744S658.151,280.976,617.237,290.472c-73.163,17-139.609-64.041-215.149-67.713-49.322-2.4-100.924,28.089-134.848,61.124C165.555,382.9,195.292,601.637,336.376,662.114,450.284,710.954,613.615,735.2,717.823,672c99.41-60.287,198.723-244.988,214.44-353.6q1.88-12.794,2.81-25.531C937.441,260.9,935.586,227.823,921.6,198.342Z" transform="translate(-166.649 -135.933)" fill="#ece7f8"/><path d="M486.525,329.113c-7.894,5.118-17.059,13.149-24.888,21.774l15.335-41.158c7.764,9.712,43.54-1.667,61.223-13.117,17.978-11.671,25.044-33.151,20.067-40.379-3.369-4.886-27.065-9.8-45.046,1.863-8.3,5.393-18.224,14.45-25.826,23.677l15.55-41.723a3.962,3.962,0,0,0,.539-.085c5.958,5.906,29.6-1.7,41.405-9.346,12.261-7.962,17.081-22.611,13.684-27.539-2.285-3.335-18.457-6.678-30.718,1.27a84.631,84.631,0,0,0-17.643,16.194l10.358-27.8a3.24,3.24,0,0,0,.669.34c5.918,1.8,15.978-14.093,19.021-24.1s-1.083-20.254-5.212-21.386c-2.8-.76-13.188,4.863-16.222,14.878-2.8,9.193-3.4,25.761,1.1,29.8-3.295,7.747-7.63,17.955-12.675,29.847a84.878,84.878,0,0,0-8.9-25.049c-7.324-12.661-21.718-18.219-26.807-15.08-3.439,2.118-7.608,18.1-.292,30.752,6,10.367,19.653,24.584,28.523,27-6.956,16.384-14.719,34.693-22.642,53.411.252-14.308-6.743-36.505-14.271-49.518-10.733-18.556-31.818-26.705-39.3-22.109-5.05,3.113-11.158,26.53-.431,45.088,10.523,18.182,37.115,44.448,48.505,39.519-9.011,21.253-18.006,42.536-26.053,61.6-.091-16.242-7.866-40.617-16.2-55.033-12.179-21.057-36.114-30.309-44.592-25.086-5.731,3.536-12.667,30.1-.5,51.168,11.773,20.337,41.289,49.622,54.5,45.074-13.2,31.359-22.48,53.581-22.35,53.876l11.989,2.2L447.275,389.4c11.657,7.8,48.718-4.358,67.586-16.6,20.416-13.231,28.424-37.608,22.775-45.812C533.819,321.451,506.921,315.879,486.525,329.113Z" transform="translate(146.402 -114.643)" fill="#14bda4"/><path d="M296.816,188.459c-11.419-4.7-40.345-10.149-31.115,9.077,5.563,11.595,22.571,15.661,30.593,26.2-14.118,3.737-78.971-2.836-69.066,30,6.36,21.168,55.866,22.39,74.082,24.241-8.237,1.242-20.643,8.365-16.3,18.318,4,9.139,25.668,9.451,34.035,10.928-11.152,8.5-27.42,9.312-25.676,26.439,1.35,13.367,14.657,21.094,25.58,25.608,11.719,4.855,23.938,6.777,35.2,13.021,12.82,7.1,20.255,17.4,31.736,26.237-18.987-28.135,10.923-63.846,22.673-88.308,6.315-13.154,40.18-81.959-.337-71.822-7.509,1.888-44.717,55.764-45.63,26.833-.406-12.964,17.195-29.334,22.225-41.181,3.941-9.286,11.337-28.35,8.827-38.223-4.458-17.453-24.7-17.9-36.125-8.532-9.808,8.05-13.157,23.819-24.335,29.408-4.747-12.715,7.506-26.5,4.321-38.918-3.961-15.559-15.074-8.436-22.418.113,1.092-18.017-16.659-40.707-31.118-17.7-5.215,8.308-4.208,17.518-.153,25.8,2.748,5.654,10.517,15.987,12.732,12.59-.981.612-2.736,1.353-4.083.777" transform="translate(-131.427 -127.601)" fill="#14bda4"/><g transform="translate(0 164.167)"><path d="M331.426,529.54c11.212-51.33,19.838-103.243,18.913-138.492-2.475-94.986-71.644-197.22-71.644-197.22s-53.709,70.847-81.616,183.739c-10.443,42.284-16.223,105.509,73.012,196.066Z" transform="translate(-192.78 -193.828)" fill="#3a6cd6"/><g transform="translate(0.718 4.672)"><line x1="4.458" y1="326.373" transform="translate(81.539)" fill="none" stroke="#fff" stroke-miterlimit="10" stroke-width="0.5"/><line x2="76.451" y2="97.51" transform="translate(9.547 156.343)" fill="none" stroke="#fff" stroke-miterlimit="10" stroke-width="0.5"/><line x1="47.536" y2="48.224" transform="translate(83.937 88.11)" fill="none" stroke="#fff" stroke-miterlimit="10" stroke-width="0.5"/><line x1="70.191" y2="64.362" transform="translate(85.998 189.49)" fill="none" stroke="#fff" stroke-miterlimit="10" stroke-width="0.5"/><line x2="46.467" y2="55.485" transform="translate(37.47 80.85)" fill="none" stroke="#fff" stroke-miterlimit="10" stroke-width="0.5"/><line x2="85.998" y2="80.144" transform="translate(0 246.229)" fill="none" stroke="#fff" stroke-miterlimit="10" stroke-width="0.5"/><line y1="72.52" x2="65.747" transform="translate(85.998 253.853)" fill="none" stroke="#fff" stroke-miterlimit="10" stroke-width="0.5"/></g></g><g transform="translate(50.094 282.795)"><path d="M273.864,530.7c8.28-37.895,53.57-123.435,52.883-149.454-1.826-70.126-52.883-145.578-52.883-145.578s-39.641,52.288-60.242,135.62C205.909,402.5,261.747,491.117,273.864,530.7Z" transform="translate(-210.446 -235.663)" fill="#5987e4"/><g transform="translate(1.063)"><line y1="246.223" transform="translate(62.356)" fill="none" stroke="#fff" stroke-miterlimit="10" stroke-width="0.5"/><line x2="56.429" y2="71.978" transform="translate(7.049 117.423)" fill="none" stroke="#fff" stroke-miterlimit="10" stroke-width="0.5"/><line x1="35.09" y2="35.589" transform="translate(61.956 67.058)" fill="none" stroke="#fff" stroke-miterlimit="10" stroke-width="0.5"/><line x1="51.81" y2="47.51" transform="translate(63.478 141.891)" fill="none" stroke="#fff" stroke-miterlimit="10" stroke-width="0.5"/><line x2="34.301" y2="40.95" transform="translate(27.655 61.697)" fill="none" stroke="#fff" stroke-miterlimit="10" stroke-width="0.5"/><line x2="44.135" y2="43.224" transform="translate(19.343 199.706)" fill="none" stroke="#fff" stroke-miterlimit="10" stroke-width="0.5"/><line y1="43.224" x2="35.865" transform="translate(63.478 199.706)" fill="none" stroke="#fff" stroke-miterlimit="10" stroke-width="0.5"/></g></g><g transform="translate(210.594 56.018)"><g transform="translate(0 4.767)"><path d="M557.49,619.34c10.1,0,18.3-8.527,18.3-19.041V176.41c0-10.514-8.2-19.041-18.3-19.041H285.357c-10.12,0-18.309,8.527-18.309,19.041V600.3c0,10.514,8.189,19.041,18.309,19.041Z" transform="translate(-267.048 -157.369)" fill="#3a46d8"/><path d="M6.916,0H271.53a6.918,6.918,0,0,1,6.918,6.918V389.4a6.918,6.918,0,0,1-6.918,6.918H6.918A6.918,6.918,0,0,1,0,389.4V6.916A6.916,6.916,0,0,1,6.916,0Z" transform="translate(15.141 15.397)" fill="#b5b7d6"/><path d="M332.083,338.355a16.371,16.371,0,1,0-16.367-16.37A16.368,16.368,0,0,0,332.083,338.355Z" transform="translate(-177.714 114.743)" fill="#5987e4"/></g><g transform="translate(40.78 71.842)"><rect width="109.934" height="144.376" transform="translate(0.174)" fill="#ece7f8"/><rect width="109.934" height="144.376" transform="translate(122.533)" fill="#ece7f8"/><rect width="109.937" height="144.372" transform="translate(0 176.348)" fill="#ece7f8"/><rect width="109.937" height="144.372" transform="translate(122.356 176.348)" fill="#ece7f8"/></g><g transform="translate(83.902 24.942)"><path d="M423.191,212.139l-39.743-13.622L339.61,229.949,296.637,355.313l97.81,33.525,42.979-125.363ZM381.466,267.3a19.377,19.377,0,1,1,24.607-12.048A19.389,19.389,0,0,1,381.466,267.3Z" transform="translate(-296.637 -102.014)" fill="#fff"/><path d="M337.182,301.147c-.091,0-.184,0-.275-.006a9.518,9.518,0,0,1-8.473-5.83c-2.413-6.269-.853-14.907.289-21.213,2.473-13.687,7.046-28.256,13.982-44.541,1.072-2.526,2.121-5.07,3.17-7.616,4.863-11.807,9.893-24.017,17.839-34.492,3.522-4.639,7.321-9.19,10.993-13.588,2.6-3.113,5.2-6.221,7.707-9.377l2.232,1.781c-2.526,3.17-5.132,6.3-7.747,9.425-3.655,4.375-7.429,8.9-10.909,13.486-7.724,10.18-12.681,22.214-17.476,33.851-1.052,2.558-2.11,5.115-3.184,7.648-6.854,16.086-11.365,30.457-13.8,43.932-1.021,5.637-2.561,14.158-.431,19.682a6.675,6.675,0,0,0,5.889,4,4.34,4.34,0,0,0,4.31-2.64l2.6,1.188A7.118,7.118,0,0,1,337.182,301.147Z" transform="translate(-240.605 -164.484)" fill="#3a46d8"/><path d="M341.074,263.738l-2.535-1.313c4.049-7.838,8.8-15.547,13.4-23,5.606-9.1,11.4-18.508,15.976-28.225l3.465-7.344c2.379-5.039,4.747-10.055,7.112-15.114.919-1.968,1.741-4.072,2.609-6.3a62.723,62.723,0,0,1,5.3-11.331l-.457-1.214c.153-.054.278-.116.4-.17a2.954,2.954,0,0,1,2.416-.238l1.863.61-1.151,1.585c-2.39,3.295-4.075,7.616-5.705,11.8-.848,2.169-1.724,4.415-2.682,6.471-2.368,5.059-4.735,10.081-7.117,15.122l-3.459,7.341c-4.645,9.862-10.483,19.339-16.132,28.506C349.8,248.332,345.075,256,341.074,263.738Z" transform="translate(-219.723 -155.592)" fill="#3a46d8"/><text transform="matrix(0.93, 0.369, -0.369, 0.93, 16.08, 234.756)" fill="#3a46d8" font-size="100" font-family="OpenSans-Light, Open Sans" font-weight="300"><tspan x="0" y="0">%</tspan></text></g><g transform="translate(6.105)"><path d="M269.2,171.547l7.969-15.859H560.708l2.448,15.859Z" transform="translate(-269.201 -155.688)" fill="#d6a259"/><g transform="translate(0 15.859)"><path d="M269.2,161.281v55.932a21.211,21.211,0,1,0,42.423,0V161.281Z" transform="translate(-269.201 -161.281)" fill="#e4b26d"/><path d="M283.985,161.281v55.932a21.214,21.214,0,1,0,42.429,0V161.281Z" transform="translate(-242.064 -161.281)" fill="#fff"/><path d="M298.772,161.281v55.932a21.209,21.209,0,1,0,42.417,0V161.281Z" transform="translate(-214.921 -161.281)" fill="#e4b26d"/><path d="M313.556,161.281v55.932a21.212,21.212,0,1,0,42.423,0V161.281Z" transform="translate(-187.784 -161.281)" fill="#fff"/><path d="M328.339,161.281v55.932a21.209,21.209,0,1,0,42.417,0V161.281Z" transform="translate(-160.649 -161.281)" fill="#e4b26d"/><path d="M343.124,161.281v55.932a21.214,21.214,0,1,0,42.429,0V161.281Z" transform="translate(-133.51 -161.281)" fill="#fff"/><path d="M357.909,161.281v55.932a21.209,21.209,0,1,0,42.417,0V161.281Z" transform="translate(-106.371 -161.281)" fill="#e4b26d"/></g></g></g><g transform="translate(479.474 174.334)"><g transform="translate(39.919 56.025)"><path d="M2.9,0H231.445a2.9,2.9,0,0,1,2.9,2.9v156.43a2.9,2.9,0,0,1-2.9,2.9H2.9a2.9,2.9,0,0,1-2.9-2.9V2.9A2.9,2.9,0,0,1,2.9,0Z" fill="#62a5e7"/><rect width="234.342" height="36.814" transform="translate(0 86.394)" fill="#fcd98e"/><rect width="139.635" height="11.647" transform="translate(30.925 14.052)" fill="#e4e9ff"/><rect width="53.391" height="21.356" transform="translate(30.925 46.13)" fill="#e4e9ff"/><rect width="87.689" height="21.356" transform="translate(130.464 46.13)" fill="#e4e9ff"/></g><path d="M9.844,0H250.721a9.847,9.847,0,0,1,9.847,9.847v39.34a9.847,9.847,0,0,1-9.847,9.847H9.845A9.845,9.845,0,0,1,0,49.189V9.844A9.844,9.844,0,0,1,9.844,0Z" fill="#fff"/><g transform="translate(11.724 13.242)"><path d="M383.12,202.083l5.292,10.716,11.819,1.717-8.557,8.341,2.021,11.774-10.575-5.557-10.581,5.557,2.024-11.774-8.557-8.341,11.824-1.717Z" transform="translate(-366.007 -202.083)" fill="#fcd98e"/><path d="M397.735,202.083l5.286,10.716,11.827,1.717-8.548,8.341,2.013,11.774-10.578-5.557-10.578,5.557,2.024-11.774-8.554-8.341,11.819-1.717Z" transform="translate(-339.169 -202.083)" fill="#fcd98e"/><path d="M412.354,202.083l5.289,10.716,11.83,1.717-8.559,8.341,2.019,11.774-10.578-5.557-10.567,5.557,2.019-11.774-8.559-8.341,11.83-1.717Z" transform="translate(-312.336 -202.083)" fill="#fcd98e"/><path d="M426.976,202.083l5.292,10.716,11.821,1.717-8.557,8.341,2.024,11.774-10.581-5.557-10.581,5.557,2.027-11.774-8.554-8.341,11.824-1.717Z" transform="translate(-285.496 -202.083)" fill="#fcd98e"/><path d="M441.6,202.083l5.292,10.716,11.822,1.717-8.551,8.341,2.019,11.774L441.6,229.074l-10.572,5.557,2.021-11.774-8.559-8.341,11.821-1.717Z" transform="translate(-258.663 -202.083)" fill="#fcd98e"/><path d="M456.22,202.083l5.289,10.716,11.822,1.717-8.551,8.341,2.019,11.774-10.578-5.557-10.572,5.557,2.019-11.774-8.559-8.341,11.824-1.717Z" transform="translate(-231.827 -202.083)" fill="url(#a)"/></g></g></g></g><g transform="translate(1033.949 2925.667)"><g transform="translate(520.404 208.975)"><path d="M392.24,206.465a59.723,59.723,0,1,1-12.165-83.482A59.659,59.659,0,0,1,392.24,206.465Z" transform="translate(-284.724 -111.072)" fill="#fcd98e"/><path d="M377.314,194.418a45.513,45.513,0,1,1-9.269-63.619A45.461,45.461,0,0,1,377.314,194.418Z" transform="translate(-281.182 -107.532)" fill="#fdce68"/><g transform="translate(22.376 12.601)"><path d="M376.121,193.666c-.228-.157.813-1.873,2.313-5.1a48.317,48.317,0,0,0,4.146-14.317,46.59,46.59,0,0,0,.125-10.231,45.6,45.6,0,0,0-2.677-11.381,44.574,44.574,0,0,0-6.222-11.273,44.123,44.123,0,0,0-4.527-5.1,44.4,44.4,0,0,0-11.475-8.03,44.374,44.374,0,0,0-6.342-2.509,44.63,44.63,0,0,0-12.724-1.981,45.523,45.523,0,0,0-11.609,1.39,46.691,46.691,0,0,0-9.569,3.624,48.352,48.352,0,0,0-12.022,8.8c-2.519,2.517-3.775,4.084-4,3.922-.171-.115.709-1.952,2.99-4.831a42.091,42.091,0,0,1,11.848-10.058,45.593,45.593,0,0,1,22.353-6.061,43.9,43.9,0,0,1,6.78.426,44.507,44.507,0,0,1,6.936,1.5,46.469,46.469,0,0,1,6.866,2.657,46.649,46.649,0,0,1,12.377,8.662,46.408,46.408,0,0,1,4.847,5.539,46.4,46.4,0,0,1,6.511,12.226,45.631,45.631,0,0,1,1.971,23.076,42.143,42.143,0,0,1-5.385,14.582C377.712,192.33,376.286,193.785,376.121,193.666Z" transform="translate(-301.519 -120.53)" fill="#efb945"/></g><g transform="translate(30.752 32.862)"><path d="M324.6,187.338l-4.654,6.419L314.22,189.6l4.529-6.245c-5.423-4.459-9.579-10.182-10.944-14.93l8.221-4.707a28.607,28.607,0,0,0,8.167,12.131l6.939-9.572c-5.24-6.158-10.807-13.431-4.863-21.625,4.4-6.074,12.6-8.089,22.4-2.554l4.614-6.362,5.73,4.156-4.531,6.247a32.013,32.013,0,0,1,9.1,11.928l-7.977,4.972A28.994,28.994,0,0,0,349,153.7l-7.064,9.743c5.28,6.1,10.732,13.293,4.874,21.371C342.483,190.776,334.388,192.774,324.6,187.338Zm12.637-29.483,5.9-8.137c-3.535-1.515-5.944-.725-7.316,1.166C334.372,152.89,335.3,155.226,337.24,157.855Zm-.159,20.959c1.455-2.007.582-4.3-1.258-6.948l-5.736,7.909C333.411,181.223,335.752,180.647,337.082,178.814Z" transform="translate(-307.805 -135.737)" fill="#fff"/></g></g><g transform="translate(132.14 268.799)"><path d="M239.227,263.6a68.9,68.9,0,1,1-78.068-58.115A68.823,68.823,0,0,1,239.227,263.6Z" transform="translate(-102.14 -204.759)" fill="#fcd98e"/><path d="M218.914,261.879a52.505,52.505,0,1,1-59.493-44.288A52.444,52.444,0,0,1,218.914,261.879Z" transform="translate(-98.051 -200.679)" fill="#fdce68"/><g transform="translate(15.443 14.366)"><path d="M218.9,260.75c-.313.057-.866-2.192-2.281-6.049a55.741,55.741,0,0,0-8.308-15.054,53.691,53.691,0,0,0-8.251-8.442,52.563,52.563,0,0,0-11.473-7.092A51.4,51.4,0,0,0,174.315,220a50.781,50.781,0,0,0-7.853-.458,51.318,51.318,0,0,0-15.909,2.822,51.216,51.216,0,0,0-7.217,3.132,51.59,51.59,0,0,0-11.988,8.773,52.519,52.519,0,0,0-8.327,10.609,53.777,53.777,0,0,0-4.84,10.767,55.751,55.751,0,0,0-2.613,16.99c0,4.108.257,6.41-.059,6.462-.23.047-1.014-2.169-1.506-6.378a48.6,48.6,0,0,1,1.446-17.872,52.6,52.6,0,0,1,13.273-23.187,50.649,50.649,0,0,1,5.874-5.188,51.348,51.348,0,0,1,6.879-4.442,53.4,53.4,0,0,1,7.764-3.439A53.806,53.806,0,0,1,166.4,215.55a53.551,53.551,0,0,1,8.472.558,53.554,53.554,0,0,1,15.289,4.65,52.632,52.632,0,0,1,20.446,17.2,48.636,48.636,0,0,1,7.514,16.281C219.108,258.362,219.134,260.711,218.9,260.75Z" transform="translate(-113.731 -215.541)" fill="#efb945"/></g><g transform="translate(45.577 32.125)"><path d="M170.057,295.635l1.447,9.032-8.063,1.288-1.407-8.788c-8.061.794-16.12-.477-21.11-3.235l2.858-10.548a33,33,0,0,0,16.561,3.22l-2.158-13.466c-9.3-.741-19.773-2.125-21.619-13.656-1.368-8.547,3.665-16.878,16.172-20.367l-1.434-8.952,8.065-1.291,1.407,8.791c6.123-.485,12.267.184,17.154,2.3l-2.442,10.565a33.471,33.471,0,0,0-13.009-2.22l2.2,13.708c9.284.662,19.6,2.073,21.42,13.439C187.438,283.838,182.471,292.076,170.057,295.635Zm-13.768-34.349-1.835-11.449c-4.118,1.652-5.436,4.262-5.011,6.923C149.9,259.58,152.56,260.727,156.289,261.285ZM173.27,278.5c-.453-2.825-3.035-3.98-6.7-4.637l1.781,11.128C172.244,283.458,173.683,281.079,173.27,278.5Z" transform="translate(-136.348 -228.871)" fill="#fff"/></g></g><g transform="translate(520.216 -131.853)"><path d="M326.57,79.329a34.037,34.037,0,1,1-27.265-39.6A34,34,0,0,1,326.57,79.329Z" transform="translate(-259.064 -39.147)" fill="#fcd98e"/><path d="M316.586,75.834a25.939,25.939,0,1,1-20.777-30.18A25.908,25.908,0,0,1,316.586,75.834Z" transform="translate(-257.043 -37.131)" fill="#fdce68"/><g transform="translate(8.34 7.101)"><path d="M316.669,75.278c-.156-.023-.056-1.163-.1-3.192a27.529,27.529,0,0,0-1.491-8.362,26.528,26.528,0,0,0-2.515-5.261,25.989,25.989,0,0,0-4.237-5.143,25.392,25.392,0,0,0-6.022-4.193,25.158,25.158,0,0,0-3.6-1.464,25.34,25.34,0,0,0-7.889-1.211,25.392,25.392,0,0,0-3.874.316,25.491,25.491,0,0,0-7,2.2,25.924,25.924,0,0,0-5.583,3.637,26.562,26.562,0,0,0-3.977,4.265,27.549,27.549,0,0,0-3.926,7.53c-.653,1.921-.9,3.039-1.055,3.012-.116-.015-.129-1.175.31-3.222a24,24,0,0,1,3.52-8.129,25.985,25.985,0,0,1,9.9-8.732,25,25,0,0,1,3.572-1.492,25.379,25.379,0,0,1,3.924-.982,26.448,26.448,0,0,1,4.178-.374,26.669,26.669,0,0,1,8.511,1.307,26.591,26.591,0,0,1,3.873,1.609A26.393,26.393,0,0,1,309.589,52a25.98,25.98,0,0,1,6.826,11.3,24.04,24.04,0,0,1,.925,8.811C317.144,74.195,316.783,75.3,316.669,75.278Z" transform="translate(-265.323 -44.477)" fill="#efb945"/></g><g transform="translate(20.746 16.108)"><path d="M287.989,84.843l-.761,4.454-3.976-.681.741-4.334c-3.9-.911-7.464-2.787-9.358-4.871l3.015-4.479a16.314,16.314,0,0,0,7.233,4.142l1.134-6.642c-4.232-1.827-8.911-4.141-7.938-9.827.719-4.216,4.4-7.311,10.8-6.952l.754-4.415,3.977.679-.741,4.335a18.234,18.234,0,0,1,7.657,3.8l-2.823,4.553a16.513,16.513,0,0,0-5.73-3.108l-1.155,6.76c4.237,1.787,8.837,4.089,7.879,9.694C297.995,82.091,294.36,85.153,287.989,84.843Zm-.974-18.256.965-5.646c-2.189.117-3.22,1.129-3.445,2.441C284.3,64.772,285.36,65.733,287.015,66.587Zm5.2,10.752c.238-1.392-.786-2.344-2.394-3.234l-.938,5.488C290.949,79.5,292,78.611,292.218,77.339Z" transform="translate(-274.635 -51.237)" fill="#fff"/></g></g></g></g></svg>