<svg xmlns="http://www.w3.org/2000/svg" width="98.128" height="27.991" viewBox="0 0 98.128 27.991"><defs><style>.a{fill:#95bf47;}.b{fill:#5e8e3e;}.c{fill:#fff;}</style></defs><g transform="translate(0.1 -308.7)"><path class="a" d="M21,314.022a.238.238,0,0,0-.24-.208c-.1,0-2.2-.16-2.2-.16s-1.459-1.459-1.635-1.6a.673.673,0,0,0-.593-.08c-.016,0-.321.1-.818.257-.5-1.427-1.347-2.725-2.87-2.725H12.5a1.864,1.864,0,0,0-1.411-.8c-3.527,0-5.226,4.409-5.755,6.653-1.379.433-2.357.721-2.469.769-.77.24-.786.257-.882.978C1.9,317.646-.1,333.148-.1,333.148l15.6,2.918,8.465-1.828C23.979,334.206,21.013,314.167,21,314.022Zm-6.348-1.571c-.385.112-.85.256-1.315.417v-.289a6.158,6.158,0,0,0-.321-2.132C13.815,310.544,14.312,311.425,14.649,312.451Zm-2.613-1.828A6.715,6.715,0,0,1,12.388,313v.16c-.866.273-1.779.545-2.725.85A4.78,4.78,0,0,1,12.036,310.624Zm-1.026-.994a.766.766,0,0,1,.449.16c-1.138.529-2.341,1.86-2.838,4.553-.753.24-1.475.449-2.164.673C7.034,312.964,8.477,309.63,11.01,309.63Z" transform="translate(0 0)"/><path class="b" d="M102.71,330.66c-.1,0-2.2-.16-2.2-.16s-1.459-1.459-1.635-1.6a.31.31,0,0,0-.208-.1L97.5,352.943l8.465-1.828S103,331.044,102.983,330.9A.434.434,0,0,0,102.71,330.66Z" transform="translate(-81.953 -16.878)"/><path class="c" d="M32.126,367.5,31.1,370.592a4.822,4.822,0,0,0-2.036-.5c-1.651,0-1.731,1.042-1.731,1.3,0,1.411,3.687,1.956,3.687,5.274,0,2.613-1.651,4.3-3.88,4.3A5.341,5.341,0,0,1,23.1,379.3l.721-2.373a5.125,5.125,0,0,0,2.6,1.218,1.053,1.053,0,0,0,1.106-1.058c0-1.844-3.014-1.924-3.014-4.97,0-2.549,1.828-5.018,5.531-5.018A4.28,4.28,0,0,1,32.126,367.5Z" transform="translate(-19.481 -49.035)"/><path d="M180.112,352.832c-.85-.449-1.283-.85-1.283-1.379,0-.673.609-1.106,1.555-1.106a5.622,5.622,0,0,1,2.084.449l.77-2.357a4.91,4.91,0,0,0-2.789-.545c-2.9,0-4.922,1.667-4.922,4.008a3.7,3.7,0,0,0,2.2,3.062c1.026.561,1.379.978,1.379,1.587,0,.625-.513,1.138-1.459,1.138a6.555,6.555,0,0,1-2.725-.721l-.818,2.357a6.256,6.256,0,0,0,3.27.818c2.982,0,5.146-1.475,5.146-4.12C182.484,354.579,181.41,353.585,180.112,352.832Zm11.9-4.97a4.473,4.473,0,0,0-3.511,1.763l-.032-.016,1.283-6.669h-3.319l-3.238,16.993h3.318l1.106-5.8c.433-2.2,1.571-3.559,2.629-3.559.753,0,1.042.513,1.042,1.234a6.576,6.576,0,0,1-.144,1.475l-1.25,6.653h3.318l1.3-6.861a12.393,12.393,0,0,0,.24-2.18C194.732,348.984,193.755,347.862,192.007,347.862Zm10.244,0c-4.008,0-6.653,3.607-6.653,7.631a4.343,4.343,0,0,0,4.569,4.649c3.928,0,6.573-3.511,6.573-7.631C206.756,350.123,205.377,347.862,202.251,347.862Zm-1.635,9.747c-1.138,0-1.6-.962-1.6-2.18,0-1.908.978-5,2.789-5,1.17,0,1.571,1.026,1.571,2C203.373,354.467,202.363,357.609,200.616,357.609Zm14.637-9.747a4.527,4.527,0,0,0-3.511,1.988h-.032l.192-1.779h-2.95c-.144,1.2-.417,3.046-.673,4.409l-2.292,12.168H209.3l.93-4.922h.08a3.888,3.888,0,0,0,1.94.433c3.912,0,6.461-4.008,6.461-8.048C218.7,349.866,217.689,347.862,215.253,347.862Zm-3.174,9.779a2.093,2.093,0,0,1-1.379-.5l.545-3.094c.385-2.084,1.475-3.447,2.629-3.447,1.026,0,1.331.946,1.331,1.828C215.221,354.579,213.938,357.641,212.078,357.641Zm11.366-14.54a1.906,1.906,0,0,0-1.908,1.924,1.542,1.542,0,0,0,1.571,1.667h.032a1.863,1.863,0,0,0,1.94-1.924A1.557,1.557,0,0,0,223.445,343.1ZM218.8,359.918h3.319l2.244-11.8h-3.335m11.8-.016h-2.309l.112-.545c.192-1.138.866-2.132,1.988-2.132a3.3,3.3,0,0,1,1.058.176l.641-2.613a4.311,4.311,0,0,0-1.812-.289,4.977,4.977,0,0,0-3.254,1.106,6.214,6.214,0,0,0-1.924,3.767l-.1.545h-1.555l-.5,2.517h1.555l-1.763,9.3h3.319l1.763-9.3h2.292l.481-2.533Zm8,.016s-2.084,5.242-3,8.112h-.032c-.064-.93-.818-8.112-.818-8.112H233.48l2,10.805a.752.752,0,0,1-.08.545,5.658,5.658,0,0,1-1.812,2,7.439,7.439,0,0,1-1.892.946l.93,2.822a7.588,7.588,0,0,0,3.254-1.812,22.452,22.452,0,0,0,4.361-6.589L244.3,348.1h-3.479Z" transform="translate(-146.273 -28.549)"/></g></svg>