<svg xmlns="http://www.w3.org/2000/svg" width="929" height="561.013" viewBox="0 0 929 561.013"><g transform="translate(0 -65.447)"><g transform="translate(513.002 225.321)"><path d="M347.147,209.36c-.336,9.4.168,38.114.168,38.114l8.4-8.4h47.181a3.01,3.01,0,0,0,3.022-3.022V209.528a3.01,3.01,0,0,0-3.022-3.022H350A2.73,2.73,0,0,0,347.147,209.36Z" transform="translate(-347.031 -206.492)" fill="#d3d4e9"/><g transform="translate(19.928 14.118)"><circle cx="2.183" cy="2.183" r="2.183" fill="#b5b7d6"/><circle cx="2.183" cy="2.183" r="2.183" transform="translate(7.388)" fill="#b5b7d6"/><circle cx="2.183" cy="2.183" r="2.183" transform="translate(14.944)" fill="#b5b7d6"/></g></g><path d="M117.9,475.28c1.754-24.31,19.8-62.153,41.853-72.679s49.622-8.772,69.922,5.012c13.784,9.273,24.31,23.558,39.347,30.575,29.823,13.784,65.411-5.764,86.212-31.327s34.084-57.141,57.642-80.2a119.262,119.262,0,0,1,170.67,4.26c16.039,17.293,26.565,38.846,39.6,58.644,12.781,19.8,29.573,38.846,51.878,46.113,30.826,10.275,65.662-4.762,87.465-28.821s33.082-55.637,42.6-86.713,17.794-62.9,35.086-90.473c17.293-27.317,45.863-50.123,78.443-50.875V474.277Z" transform="translate(10.379 -97.823)" fill="#e3e4f2"/><g transform="translate(253.872 216.597)"><path d="M386.782,364.4h15.783c7.388,0,23-19.309-62.293-17.126-56.08,1.511-59.774,9.738-56.92,14.608a6.86,6.86,0,0,0,6.548,3.358,49,49,0,0,1,5.373-.168l-1.343,5.877h0L262.7,508.962l5.373-.5,23-76.061,43.991-1.679,2.519,80.762h6.884l1.679-81.266h.168l4.7-.168,38.954-1.511,23.171,82.945h6.548Zm-92.516,57.424,15.447-50.707,1.679-5.709h0c6.38,0,13.936-.168,21.492-.168l1.679,55.409Zm58.1-1.847h-1.679l-4.366.168,1.175-55.744h24.514l15.111,54.4Z" transform="translate(-145.167 -102.289)" fill="#14365b"/><g transform="translate(79.284)"><g transform="translate(0 381.991)"><path d="M261.546,446.766v-17.8l31.9-.168.336,26.7-2.015.168c-8.9.5-44.831,1.679-50.875-.168C234.514,453.314,261.546,446.766,261.546,446.766Z" transform="translate(-239.919 -428.8)" fill="#3a6cd6"/><g transform="translate(0.303 24.346)"><ellipse cx="26.697" cy="0.504" rx="26.697" ry="0.504" fill="#184bb8"/></g><g transform="translate(18.73 18.198)"><path d="M253.468,442.932c.336-.168,0-1.007-.672-2.015s-1.511-1.511-1.679-1.175c-.168.168.168,1.007.84,1.847C252.461,442.428,253.132,443.1,253.468,442.932Z" transform="translate(-251.074 -439.638)" fill="#184bb8"/></g><g transform="translate(16.882 18.612)"><path d="M252.2,443.94c.336-.168.168-1.175-.5-2.351s-1.511-1.847-1.679-1.679.168,1.175.672,2.183C251.361,443.268,251.865,444.108,252.2,443.94Z" transform="translate(-249.974 -439.885)" fill="#184bb8"/></g><g transform="translate(44.084 18.302)"><path d="M266.217,446.08c.168.168.672-.336,1.343-1.175a22.735,22.735,0,0,1,2.854-2.854,7.026,7.026,0,0,1,3.526-1.511c1.007-.168,1.679,0,1.679-.168s-.5-.5-1.679-.672a6.787,6.787,0,0,0-4.03,1.343,10.8,10.8,0,0,0-2.686,3.19C266.385,445.409,266.049,446.08,266.217,446.08Z" transform="translate(-266.175 -439.7)" fill="#184bb8"/></g><g transform="translate(20.924 18.064)"><path d="M252.413,439.628c-.168.336.336.84,1.343,1.175a2.2,2.2,0,0,0,1.847,0c0-.336-.672-.672-1.343-1.007C253.252,439.628,252.581,439.46,252.413,439.628Z" transform="translate(-252.381 -439.559)" fill="#184bb8"/></g><g transform="translate(21.459 15.951)"><path d="M252.7,438.8c0,.336.84.5,1.847.5s2.015-.168,1.847-.5c0-.336-.84-.5-1.847-.5S252.7,438.468,252.7,438.8Z" transform="translate(-252.7 -438.3)" fill="#184bb8"/></g></g><g transform="translate(67.498 381.991)"><path d="M301.746,446.766v-17.8l31.9-.168.336,26.7-2.015.168c-8.9.5-44.831,1.679-50.875-.168C274.714,453.314,301.746,446.766,301.746,446.766Z" transform="translate(-280.12 -428.8)" fill="#3a6cd6"/><g transform="translate(0.303 24.346)"><ellipse cx="26.697" cy="0.504" rx="26.697" ry="0.504" fill="#184bb8"/></g><g transform="translate(18.73 18.198)"><path d="M293.668,442.932c.336-.168,0-1.007-.672-2.015s-1.511-1.511-1.679-1.175c-.168.168.168,1.007.84,1.847C292.661,442.428,293.332,443.1,293.668,442.932Z" transform="translate(-291.275 -439.638)" fill="#184bb8"/></g><g transform="translate(16.882 18.612)"><path d="M292.4,443.94c.336-.168.168-1.175-.5-2.351s-1.511-1.847-1.679-1.679.168,1.175.672,2.183C291.561,443.268,292.065,444.108,292.4,443.94Z" transform="translate(-290.174 -439.885)" fill="#184bb8"/></g><g transform="translate(44.084 18.302)"><path d="M306.417,446.08c.168.168.672-.336,1.343-1.175a22.739,22.739,0,0,1,2.854-2.854,7.026,7.026,0,0,1,3.526-1.511c1.007-.168,1.679,0,1.679-.168s-.5-.5-1.679-.672a6.787,6.787,0,0,0-4.03,1.343,10.805,10.805,0,0,0-2.686,3.19C306.585,445.409,306.249,446.08,306.417,446.08Z" transform="translate(-306.375 -439.7)" fill="#184bb8"/></g><g transform="translate(20.924 18.064)"><path d="M292.613,439.628c-.168.336.336.84,1.343,1.175a2.2,2.2,0,0,0,1.847,0c0-.336-.672-.672-1.343-1.007C293.452,439.628,292.781,439.46,292.613,439.628Z" transform="translate(-292.581 -439.559)" fill="#184bb8"/></g><g transform="translate(21.459 15.951)"><path d="M292.9,438.8c0,.336.84.5,1.847.5s2.015-.168,1.847-.5c0-.336-.84-.5-1.847-.5S292.9,438.468,292.9,438.8Z" transform="translate(-292.9 -438.3)" fill="#184bb8"/></g></g><path d="M367.157,272.833c-1.343-.336-3.022-.168-3.694-1.175s-.168-2.351.168-3.526a17.163,17.163,0,0,0,.168-11.585,13.269,13.269,0,0,0-4.869-6.045,4.454,4.454,0,0,0,.84-1.007,7.421,7.421,0,0,0,.839-3.694,7.734,7.734,0,0,0-2.519-6.045c-1.679-1.343-4.03-1.343-5.205,0-1.175,1.175-1.175,3.19,0,3.862a2.415,2.415,0,0,0,2.519.336,2.011,2.011,0,0,0,.672-.672,1.163,1.163,0,0,1-.672.5,1.924,1.924,0,0,1-2.183-.5,2.391,2.391,0,0,1,.168-3.358c1.007-1.175,3.19-1.007,4.533.168A7.711,7.711,0,0,1,360.1,245.8a5.9,5.9,0,0,1-.84,3.358,4.452,4.452,0,0,1-.84,1.007,8.553,8.553,0,0,0-2.854-1.175c-2.183-.5-4.533-.336-6.548-1.343a7.885,7.885,0,0,1-3.526-4.2v-.5c0-3.022.84-5.877,1.175-8.731a28.042,28.042,0,0,0-.168-8.4c-1.007-5.373-4.366-9.571-8.059-11.25a10.79,10.79,0,0,0-9.4-.168,8.138,8.138,0,0,0-2.183,1.511l-.336.336a7.434,7.434,0,0,0-2.519,2.015L318.8,264.942l37.947,23.171c3.022-.336,5.877-.5,8.731-1.679,2.686-1.175,5.205-3.358,5.709-6.212C371.69,276.863,370.011,273.5,367.157,272.833Zm-25.018-48.86c-1.511-3.694-4.03-6.884-7.724-8.4a9.51,9.51,0,0,0-7.724.168,17.715,17.715,0,0,1,2.183-1.343,11.028,11.028,0,0,1,8.9.336c3.526,1.679,6.548,5.709,7.556,10.914a25.733,25.733,0,0,1,.168,8.059c-.168,2.015-.84,4.2-1.007,6.548a44.355,44.355,0,0,1-.336-4.869C343.986,231.529,343.65,227.5,342.139,223.973Z" transform="translate(-186.356 -193.07)" fill="#14365b"/><g transform="translate(95.336)"><path d="M345.387,231.923a4,4,0,0,0-1.511-2.183c-1.175-.84-3.022-.5-4.533-.168l-.168-10.746L318.355,201.7l-11.25,5.877a17.211,17.211,0,0,0-9.4,15.783c0,8.563.336,20.316.84,27.033,1.007,11.418,12.593,12.425,12.593,12.425s.5,4.2.84,8.227c0,0-2.519,33.749,9.4,33.581,8.731-.168,14.608-18.637,17.126-28.376l1.343-5.373v-.5h0l-.336-32.07.336.336a2.585,2.585,0,0,0,2.686.336,4.979,4.979,0,0,0,2.686-2.854A7.253,7.253,0,0,0,345.387,231.923Z" transform="translate(-296.022 -201.021)" fill="#e5baab"/><g transform="translate(2.792 27.164)"><circle cx="1.511" cy="1.511" r="1.511" transform="translate(1.406 1.892)" fill="#14365b"/><path d="M298.425,219.365c.168.168,1.175-.84,2.854-.84,1.511-.168,2.854.672,2.854.336,0-.168-.168-.5-.672-.84a3.289,3.289,0,0,0-2.351-.5,3.33,3.33,0,0,0-2.183,1.007C298.425,218.861,298.258,219.365,298.425,219.365Z" transform="translate(-298.362 -217.473)" fill="#14365b"/></g><g transform="translate(20.254 26.66)"><circle cx="1.511" cy="1.511" r="1.511" transform="translate(0.902 1.892)" fill="#14365b"/><path d="M308.825,219.065c.168.168,1.175-.84,2.854-.84,1.511-.168,2.854.672,2.854.336,0-.168-.168-.5-.672-.84a3.289,3.289,0,0,0-2.351-.5,2.71,2.71,0,0,0-2.183,1.007C308.825,218.561,308.658,218.9,308.825,219.065Z" transform="translate(-308.762 -217.173)" fill="#14365b"/></g><g transform="translate(11.013 28.384)"><path d="M307.19,231.968c0,.168-1.007.168-2.519.168H304c-.336,0-.5-.336-.672-.5a2.762,2.762,0,0,1,.168-1.679c.336-1.007.672-2.183,1.007-3.358a54.615,54.615,0,0,1,2.854-8.4c.168,0-.84,3.862-2.183,8.563-.336,1.175-.672,2.183-1.007,3.358a1.989,1.989,0,0,0-.168,1.343c0,.336.5.336.84.336C306.182,231.632,307.19,231.8,307.19,231.968Z" transform="translate(-303.259 -218.2)" fill="#14365b"/></g><path d="M311.924,227.1c.168-.168-4.533,2.854-7.724,2.854A4.2,4.2,0,0,0,309.4,231.3C312.763,229.957,311.924,227.1,311.924,227.1Z" transform="translate(-291.606 -183.775)" fill="#fff"/><path d="M305.6,240.241a28.62,28.62,0,0,0,14.944-5.541s-3.19,8.4-14.776,8.227Z" transform="translate(-290.656 -178.612)" fill="#d78776"/><path d="M296.7,224.978c5.037.672,8.731-.672,13.6-1.847s9.571-4.366,11.25-9.235a16,16,0,0,0,4.2,8.4c.5.5,1.343,1.007,1.679.5a1.07,1.07,0,0,0,0-1.007l-1.007-4.03a32.166,32.166,0,0,0,6.716,8.4c2.854,2.183,11.25,5.709,9.906,2.351-.336-.84,2.519-26.7-22.163-27.2S296.7,224.978,296.7,224.978Z" transform="translate(-296.7 -201.295)" fill="#14365b"/><g transform="translate(43.656 30.54)"><path d="M322.7,220.015a1.576,1.576,0,0,1,1.511-.5,2.406,2.406,0,0,1,1.679.672,2.781,2.781,0,0,1,.84,2.015,2.516,2.516,0,0,1-.84,2.015,2.4,2.4,0,0,1-1.679.672,2.206,2.206,0,0,1-1.511-.5c0-.168.672.168,1.343,0a2.2,2.2,0,0,0,1.847-2.183,2.346,2.346,0,0,0-1.847-2.183A2.844,2.844,0,0,0,322.7,220.015Z" transform="translate(-322.7 -219.484)" fill="#d78776"/></g></g><g transform="translate(59.741 69.185)"><path d="M395.552,284.812l4.2-.84s-9.235-41.472-41.3-41.472h-3.862v.5l-1.343,5.373c-2.519,9.738-8.4,28.04-17.126,28.376-11.082.336-9.571-29.048-9.4-33.077a4.711,4.711,0,0,1-.84.168s-34.924,2.015-50.371,32.574l26.865,19.645,6.548-4.03s2.183,43.152-1.511,54.9c-4.2,13.264-10.578,28.04-10.578,28.04,29.551-2.351,63.132-1.007,98.9,2.351l-23.675-87.814A84.729,84.729,0,0,0,395.552,284.812Z" transform="translate(-275.5 -242.5)" fill="#3a6cd6"/><g transform="translate(19.86 10.492)"><g transform="translate(44.951 51.619)"><path d="M340.629,280.345a7.682,7.682,0,0,1-.672,1.007,11.82,11.82,0,0,1-2.519,2.015,18.079,18.079,0,0,1-10.242,2.854,18.377,18.377,0,0,1-10.074-3.526,15.842,15.842,0,0,1-2.351-2.183,7.677,7.677,0,0,1-.672-1.007c.168-.168,1.175,1.175,3.358,2.686a19.079,19.079,0,0,0,9.738,3.19,18.314,18.314,0,0,0,9.906-2.519C339.286,281.521,340.461,280.345,340.629,280.345Z" transform="translate(-314.1 -279.492)" fill="#14365b"/></g><g transform="translate(70.137 22.417)"><path d="M345.89,315.158a10.823,10.823,0,0,1-.672-2.015c-.5-1.511-1.007-3.358-1.679-5.709-1.511-4.869-3.358-11.418-5.709-18.805s-4.533-13.936-6.213-18.637c-.672-2.183-1.343-4.2-1.847-5.709a10.608,10.608,0,0,1-.672-2.183s.336.672.84,2.015,1.343,3.19,2.183,5.541c1.679,4.7,4.03,11.25,6.38,18.637s4.2,14.1,5.541,18.973c.672,2.519,1.175,4.366,1.511,5.709C345.89,314.486,346.058,315.158,345.89,315.158Z" transform="translate(-329.1 -262.1)" fill="#14365b"/></g><g transform="translate(68.29 5.769)"><path d="M336.227,255.736c0,.168-2.015-.168-4.366-1.175-2.183-1.007-3.862-2.015-3.862-2.351.168-.168,1.847.5,4.2,1.511S336.4,255.4,336.227,255.736Z" transform="translate(-328 -252.185)" fill="#14365b"/></g><g transform="translate(84.318 13.949)"><ellipse cx="5.037" cy="0.504" rx="5.037" ry="0.504" transform="translate(4.132 0.318) rotate(108.379)" fill="#14365b"/></g><g transform="translate(56.012 25.44)"><path d="M320.709,272.463c-.168-.168.672-2.015,1.847-4.366s2.015-4.2,2.351-4.2c.168.168-.336,2.183-1.511,4.533S320.877,272.631,320.709,272.463Z" transform="translate(-320.687 -263.9)" fill="#14365b"/></g><g transform="translate(44.096 35.67)"><path d="M320.323,277.392c-.168.168-2.015-1.175-3.862-3.19s-3.022-4.03-2.854-4.2,1.679,1.511,3.526,3.526C318.979,275.713,320.491,277.225,320.323,277.392Z" transform="translate(-313.591 -269.993)" fill="#14365b"/></g><g transform="translate(62.749 41.717)"><path d="M333.6,273.6c.168.168-1.343,2.351-3.526,4.869a15.566,15.566,0,0,1-4.2,3.526l-1.175.84,1.007-1.008c.168-.168.336-.336.5-.336a1.3,1.3,0,0,1-.168.5l-.336-.168c.672-.672,2.015-2.183,3.694-3.862C331.752,275.451,333.431,273.436,333.6,273.6Z" transform="translate(-324.7 -273.594)" fill="#14365b"/></g><g transform="translate(67.607 66.56)"><path d="M336.168,293.444c-.168.168-2.183-.5-4.7-1.847-2.351-1.343-4.03-3.022-3.862-3.19s2.015,1.007,4.366,2.351C334.321,292.268,336.168,293.276,336.168,293.444Z" transform="translate(-327.593 -288.39)" fill="#14365b"/></g><g transform="translate(49.467 64.886)"><path d="M322.516,287.4c.168.168-1.007,2.183-2.519,4.366-1.511,2.351-3.022,4.03-3.19,3.862s.839-2.183,2.519-4.366C320.837,288.916,322.348,287.237,322.516,287.4Z" transform="translate(-316.789 -287.393)" fill="#14365b"/></g><g transform="translate(34.434 60.733)"><ellipse cx="4.198" cy="0.504" rx="4.198" ry="0.504" transform="translate(0.621 0) rotate(38.031)" fill="#14365b"/></g><g transform="translate(27.262 45.475)"><ellipse cx="3.862" cy="0.504" rx="3.862" ry="0.504" transform="translate(0 4.484) rotate(-35.484)" fill="#14365b"/></g><g transform="translate(25.926 28.956)"><ellipse cx="3.862" cy="0.504" rx="3.862" ry="0.504" transform="translate(0.803 0) rotate(52.844)" fill="#14365b"/></g><g transform="translate(60.477 0)"><ellipse cx="4.366" cy="0.504" rx="4.366" ry="0.504" transform="translate(5.01 0.476) rotate(118.169)" fill="#14365b"/></g><g transform="translate(15.155 4.247)"><ellipse cx="4.701" cy="0.504" rx="4.701" ry="0.504" transform="matrix(0.852, 0.524, -0.524, 0.852, 0.528, 0)" fill="#14365b"/></g><g transform="translate(0 4.362)"><ellipse cx="3.526" cy="0.504" rx="3.526" ry="0.504" transform="translate(0 6.065) rotate(-59.316)" fill="#14365b"/></g><g transform="translate(16.402 112.463)"><ellipse cx="4.533" cy="0.504" rx="4.533" ry="0.504" transform="matrix(0.831, 0.556, -0.556, 0.831, 0.56, 0)" fill="#14365b"/></g><g transform="translate(73.925 111.652)"><ellipse cx="4.533" cy="0.504" rx="4.533" ry="0.504" transform="matrix(0.677, -0.736, 0.736, 0.677, 0, 6.671)" fill="#14365b"/></g><g transform="translate(42.19 111.575)"><path d="M312.53,321.916a18.622,18.622,0,0,1,0-3.358,18.621,18.621,0,0,1,0-3.358c.168,0,.84,1.343.84,3.358C313.37,320.4,312.866,321.916,312.53,321.916Z" transform="translate(-312.456 -315.2)" fill="#14365b"/></g><g transform="translate(54.038 113.448)"><ellipse cx="4.533" cy="0.504" rx="4.533" ry="0.504" transform="matrix(0.855, 0.519, -0.519, 0.855, 0.523, 0)" fill="#14365b"/></g></g><g transform="translate(21.66 130.689)"><path d="M387.3,324.474h-1.007c-.672,0-1.679-.168-2.854-.168q-4.03-.252-10.578-1.007c-8.9-.84-21.324-1.847-34.924-2.183s-26.025,0-35.092.5c-4.366.168-8.059.336-10.578.5a13.627,13.627,0,0,0-2.854.168H288.4a4.7,4.7,0,0,0,1.007-.168,25.071,25.071,0,0,0,2.854-.336c2.519-.168,6.045-.5,10.578-.672,8.9-.5,21.324-1.007,35.092-.672a347.177,347.177,0,0,1,34.924,2.351c4.533.5,8.059.84,10.578,1.175a25.068,25.068,0,0,0,2.854.336A3.662,3.662,0,0,1,387.3,324.474Z" transform="translate(-288.4 -320.335)" fill="#14365b"/></g><path d="M329.1,262.2l8.4,55.744s7.724,0,9.235-2.351Z" transform="translate(-239.103 -229.123)" fill="#184bb8"/></g><g transform="translate(17.765 200.086)"><path d="M333.713,321.03c-19.813,1.511-30.559.168-52.218,2.183a31.3,31.3,0,0,0-27.033,30.055L250.6,517.478h39.961l6.38-147.253,11.753,1.511c-1.511,55.073,4.2,145.742,4.2,145.742L357.22,515.3,354.7,373.92s59.606,4.03,58.1-49.532C412.964,324.388,365.951,318.679,333.713,321.03Z" transform="translate(-250.432 -320.462)" fill="#5987e4"/><g transform="translate(57.759 0.064)"><path d="M322.343,320.5l-3.022.5c-2.015.336-4.7.672-8.227,1.343s-7.724,1.175-11.921,3.19a26.237,26.237,0,0,0-6.045,3.862,20.412,20.412,0,0,0-4.533,6.045c-2.351,4.7-2.854,9.906-2.854,14.608s.168,8.9.168,12.425-.168,6.38-.336,8.4c0,1.007-.168,1.679-.168,2.183a2.037,2.037,0,0,1-.168.84V362.476c-.168-3.526-.168-7.724-.336-12.425a34.724,34.724,0,0,1,2.854-14.944,18.465,18.465,0,0,1,4.869-6.38,28.02,28.02,0,0,1,6.212-4.03c4.366-2.015,8.563-2.351,12.089-3.022,3.526-.5,6.38-.84,8.227-1.007a12.045,12.045,0,0,1,2.183-.168Z" transform="translate(-284.9 -320.5)" fill="#3a6cd6"/></g><g transform="translate(42.882 39.522)"><path d="M276.141,344a39.646,39.646,0,0,1,2.183,5.037c1.175,2.854,1.679,5.205,1.343,5.373a39.64,39.64,0,0,1-2.183-5.037C276.309,346.519,275.805,344,276.141,344Z" transform="translate(-276.039 -344)" fill="#3a6cd6"/></g><g transform="translate(46.035 36.164)"><path d="M278.056,342a20.6,20.6,0,0,1,1.175,6.716c.168,3.862-.672,6.884-.84,6.884-.336,0,.168-3.022,0-6.716C278.056,345.022,277.72,342,278.056,342Z" transform="translate(-277.917 -342)" fill="#3a6cd6"/></g><g transform="translate(101.214 39.186)"><path d="M310.813,343.8c.168,0,1.175,3.022,2.015,7.052.672,3.862,1.343,7.052,1.007,7.22-.168,0-1.175-3.022-2.015-7.052C311.149,347.158,310.645,343.968,310.813,343.8Z" transform="translate(-310.781 -343.8)" fill="#3a6cd6"/><g transform="translate(3.178)"><path d="M313.558,343.8c.168,0,.84,3.19.5,7.052-.168,4.03-1.175,7.052-1.343,7.052s.168-3.19.5-7.052C313.39,346.99,313.222,343.8,313.558,343.8Z" transform="translate(-312.673 -343.8)" fill="#3a6cd6"/></g></g><g transform="translate(0 186.942)"><ellipse cx="19.477" cy="0.504" rx="19.477" ry="0.504" fill="#3a6cd6"/></g><g transform="translate(61.957 186.103)"><ellipse cx="22.163" cy="0.504" rx="22.163" ry="0.504" fill="#3a6cd6"/></g><g transform="translate(88.776 27.768)"><path d="M371.756,337.672h-8.563c-5.541,0-13.6,0-23.507.168H323.4a32.929,32.929,0,0,0-8.9,1.007,14.561,14.561,0,0,0-7.724,4.869c-2.015,2.519-2.687,5.877-2.854,9.235s.168,6.884.336,10.41c.168,7.052.336,14.44.672,22,.84,30.223,1.511,57.591,1.847,77.4.168,9.906.168,17.966.168,23.507v6.38c0-1.511,0-3.694-.168-6.38-.168-5.541-.336-13.6-.5-23.507-.336-19.813-1.175-47.181-2.015-77.4-.168-7.556-.336-14.944-.5-22-.168-3.526-.5-7.052-.336-10.578.168-3.358,1.007-7.052,3.022-9.738a14.239,14.239,0,0,1,8.227-5.037A33.4,33.4,0,0,1,323.735,337h16.287c9.906,0,17.8.168,23.507.168,2.686,0,4.869,0,6.38.168h1.679C371.588,337.672,371.756,337.672,371.756,337.672Z" transform="translate(-303.373 -337)" fill="#3a6cd6"/></g><path d="M282.451,363.3s-1.511-19.981,5.877-31.4l-1.175,31.9Z" transform="translate(-228.89 -312.695)" fill="#3a6cd6"/><g transform="translate(28.04 30.18)"><path d="M295.912,340.055h-.5c-.336,0-.84-.168-1.343-.168-1.175-.168-2.854-.5-5.037-.84a21.918,21.918,0,0,0-7.892.5,13.46,13.46,0,0,0-4.533,2.015,12.4,12.4,0,0,0-3.526,4.2c-1.679,3.526-1.847,7.892-2.015,12.593s-.168,9.571-.336,14.944c-.336,10.41-.5,22-.84,34.085-.672,24.178-1.343,46.006-1.847,61.957-.336,7.892-.5,14.272-.672,18.805-.168,2.183-.168,3.862-.168,5.037v-5.037c.168-4.533.168-10.914.336-18.805.336-15.951,1.007-37.779,1.511-61.957.336-12.089.672-23.675,1.007-34.085.168-5.205.336-10.242.5-14.944s.336-9.067,2.183-12.761a10.523,10.523,0,0,1,3.694-4.365,19.666,19.666,0,0,1,4.7-2.183,19.185,19.185,0,0,1,8.059-.336,43.636,43.636,0,0,1,5.037,1.007c.5.168,1.007.168,1.343.336C295.744,339.887,295.912,339.887,295.912,340.055Z" transform="translate(-267.2 -338.436)" fill="#3a6cd6"/></g></g><path d="M304.108,263.9s-42.144,42.312-50.2,51.715c-6.884,8.059-2.351,23.339,3.358,24.01s98.728-.672,98.728-.672l-1.175-18.973s-60.278.336-61.957-.84c-1.847-1.175,34.756-38.114,34.756-38.114Z" transform="translate(-232.782 -158.784)" fill="#e5baab"/><path d="M386.555,267.2s12.761,38.786,14.44,43.487c1.511,4.533,9.571,24.01-5.541,25.689s-96.21,0-96.21,0L293.2,316.732s78.412-.168,78.076-4.366-11.921-39.29-11.921-39.29Z" transform="translate(-203.739 -156.543)" fill="#e5baab"/></g><g transform="translate(91.004 97.393)"><path d="M246.9,260.475l29.215,80.762L410.1,341.07l-.839-3.862-50.371-1.847L334.043,259.3Z" transform="translate(-246.9 -259.3)" fill="#14365b"/><ellipse cx="4.701" cy="5.541" rx="4.701" ry="5.541" transform="translate(49.65 34.154) rotate(-10.073)" fill="#fff"/></g><path d="M516.253,307H192.7V538.709h6.716V320.6H516.253V538.877h81.1V307Z" transform="translate(-192.7 -129.517)" fill="#14365b"/></g><g transform="translate(0 625.453)"><path d="M741.663,445.3c0,.168-156.823.5-350.082.5-193.426,0-350.082-.168-350.082-.5,0-.168,156.655-.5,350.082-.5C584.84,444.8,741.663,445.136,741.663,445.3Z" transform="translate(-41.5 -444.8)" fill="#14365b"/></g><g transform="translate(38.282 65.447)"><g transform="translate(118.037 533.812)"><path d="M166,446.662V429.368l-31.062-.168-.336,25.857,1.847.168c8.563.5,43.655,1.679,49.364-.168C192.359,453.042,166,446.662,166,446.662Z" transform="translate(-134.6 -429.2)" fill="#3a6cd6"/><g transform="translate(0 23.842)"><ellipse cx="26.025" cy="0.504" rx="26.025" ry="0.504" fill="#184bb8"/></g><g transform="translate(31.77 17.766)"><path d="M153.653,443c-.336-.168,0-1.007.672-2.015.672-.839,1.511-1.343,1.679-1.175s-.168,1.007-.84,1.847S153.989,443.171,153.653,443Z" transform="translate(-153.522 -439.781)" fill="#184bb8"/></g><g transform="translate(33.749 18.444)"><path d="M154.868,443.9c-.336-.168-.168-1.175.5-2.183s1.343-1.679,1.679-1.511c.168.168-.168,1.007-.672,2.015C155.707,443.233,155.2,444.072,154.868,443.9Z" transform="translate(-154.7 -440.185)" fill="#184bb8"/></g><g transform="translate(0.672 17.966)"><path d="M143.9,446.112c-.168.168-.5-.336-1.175-1.175a13.507,13.507,0,0,0-2.686-2.686,8.356,8.356,0,0,0-3.358-1.511c-1.007-.168-1.511,0-1.679-.168,0-.168.5-.5,1.679-.672a6.787,6.787,0,0,1,4.03,1.343,9.067,9.067,0,0,1,2.686,3.19A10.87,10.87,0,0,1,143.9,446.112Z" transform="translate(-135 -439.9)" fill="#184bb8"/></g><g transform="translate(29.048 17.623)"><path d="M154.922,439.871c.168.168-.336.84-1.343,1.175-.84.336-1.679.168-1.679,0,0-.336.5-.672,1.343-.84C154.083,439.7,154.754,439.535,154.922,439.871Z" transform="translate(-151.9 -439.696)" fill="#184bb8"/></g><g transform="translate(27.872 15.615)"><path d="M154.894,439c0,.336-.84.5-1.847.5s-1.847-.168-1.847-.5.84-.5,1.847-.5S154.894,438.668,154.894,439Z" transform="translate(-151.2 -438.5)" fill="#184bb8"/></g></g><path d="M208.047,145.234l.336-5.205a46.807,46.807,0,0,0,.672-8.731,13.407,13.407,0,0,0-.84-4.366,21.952,21.952,0,0,0-2.351-4.869,1.717,1.717,0,0,1,1.511-2.854c1.511.336,4.533,3.862,5.877,9.067s4.869-2.519,6.212-5.373,5.877-11.25,7.052-11.585c1.679-.336,2.519,1.343,1.007,4.2-1.343,2.854-5.037,11.418-3.526,11.921a9.009,9.009,0,0,1,3.358-.168c.336.168.672.336.672.672a9.867,9.867,0,0,0,.5,2.351s2.015-.672,2.686.168a9.132,9.132,0,0,1,.672,2.854s1.511-.672,2.351-.168c1.847,1.175-.168,3.694-.168,3.694-4.366,7.052-13.936,17.63-13.936,17.63l-12.257-9.906" transform="translate(31.554 -111.275)" fill="#e5baab"/><g transform="translate(77.74 14.637)"><path d="M118.168,134.627,118,201.621l28.544,1.343.84-16.287s10.242,2.015,12.761-7.388c1.679-6.045,1.343-52.89,1.343-52.89Z" transform="translate(-105.575 -115.641)" fill="#e5baab"/><path d="M165,120.341c-8.731,2.854-10.914,3.694-14.776,4.03-3.694.336-30.559.336-32.909,15.279-.336-.672-.5-1.343-.84-2.183-.5-2.351,0-4.366-.336-4.366-.168-.168-1.175,2.015-.5,4.7a2.387,2.387,0,0,0,.336,1.007l-.5-.5a11.39,11.39,0,0,0-3.358-1.847q-1.511-.252-1.511,0c0,.336,2.351.672,4.366,2.519a7.7,7.7,0,0,1,2.183,2.686v.168s-5.709-2.519-4.2,7.892,8.227,19.141,9.067,36.1c0,0,23.675,2.854,27.872-6.212l3.526-10.41s-5.709-1.007-5.037-5.541c.84-6.38,5.709-6.548,9.4-3.694l4.2-11.082s10.578-6.884,11.082-11.25C173.732,132.934,173.732,117.487,165,120.341Z" transform="translate(-110.6 -119.992)" fill="#14365b"/></g><g transform="translate(6.548 538.346)"><path d="M72.4,431.9l-4.2,18.805,29.048,3.526,1.007-18.637Z" transform="translate(-68.2 -431.9)" fill="#3a6cd6"/><g transform="translate(14.065 0.903)"><ellipse cx="8.563" cy="0.504" rx="8.563" ry="0.504" transform="translate(0 16.905) rotate(-80.77)" fill="#184bb8"/></g><g transform="translate(0.84 15.067)"><path d="M97.076,446.123c0,.168-1.679-.168-4.2-.5-2.854-.5-6.38-1.007-10.074-1.679-3.862-.672-7.556-1.343-10.074-1.847s-4.03-1.007-4.03-1.175,1.679.168,4.2.5c2.854.5,6.38,1.007,10.074,1.679,3.862.672,7.556,1.343,10.074,1.847C95.4,445.451,97.076,445.955,97.076,446.123Z" transform="translate(-68.7 -440.873)" fill="#184bb8"/></g></g><g transform="translate(0 239.979)"><path d="M118.03,258.062,64.3,559.787l46.006,2.686s48.86-260.085,56.08-260.756c3.022-.336,4.2,258.574,6.548,258.07s49.7.84,49.7.84S216.254,254.2,216.422,254.2Z" transform="translate(-64.3 -254.2)" fill="#5987e4"/><g transform="translate(3.018 40.567)"><g transform="translate(82.723 0)"><ellipse cx="18.302" cy="0.504" rx="18.302" ry="0.504" transform="translate(0 7.606) rotate(-11.993)" fill="#3a6cd6"/></g><g transform="translate(0 247.832)"><ellipse cx="23.171" cy="0.504" rx="23.171" ry="0.504" transform="matrix(0.999, 0.031, -0.031, 0.999, 0.031, 0)" fill="#3a6cd6"/></g><g transform="translate(104.952 247.852)"><ellipse cx="25.018" cy="0.504" rx="25.018" ry="0.504" transform="translate(0.03 0) rotate(1.708)" fill="#3a6cd6"/></g><g transform="translate(22.166 8.797)"><path d="M130.848,283.6c.168,0-11.082,53.9-25.354,120.22S79.469,523.872,79.3,523.872s11.082-53.9,25.354-120.22C118.758,337.33,130.512,283.6,130.848,283.6Z" transform="translate(-79.299 -283.6)" fill="#3a6cd6"/></g><g transform="translate(127.233 7.286)"><path d="M144.772,524.483v-.672a8.238,8.238,0,0,0-.168-1.847c0-1.679-.168-4.03-.336-7.052-.168-6.045-.5-14.944-.84-25.857-.672-21.828-1.343-52.051-1.511-85.464s.168-63.636.672-85.464c.168-10.914.5-19.813.672-25.857.168-3.022.168-5.373.168-7.052v7.052c0,6.212-.168,14.943-.336,25.857-.336,21.828-.5,52.051-.336,85.464s.672,63.468,1.175,85.464c.168,10.914.5,19.645.672,25.857,0,3.022.168,5.373.168,7.052v2.519Z" transform="translate(-141.874 -282.7)" fill="#3a6cd6"/></g></g></g><g transform="translate(17.59 32.448)"><path d="M291.917,130.6s-35.6,53.73-38.618,56.752-58.767,8.9-58.767,8.9c-17.126-3.862-72.535-2.519-82.945,5.037h0c-9.067,5.037-19.981,16.79-25.689,44.495-9.571,47.517-19.309,64.979,0,71.7a124.685,124.685,0,0,0,23.842,5.541l-.5,21.492L209.308,338.3,204.1,284.9c-.672-14.944-.84-30.559-1.175-44.495,6.212-2.351,64.475-24.346,68.505-25.018,4.2-.672,42.312-71.024,42.312-71.024C314.92,136.141,291.917,130.6,291.917,130.6Z" transform="translate(-74.776 -130.6)" fill="#e4b26d"/><g transform="translate(34.429 97.217)"><path d="M98.5,188.5c.168,0-.336,26.193-1.175,58.431s-1.847,58.431-2.015,58.431.336-26.193,1.175-58.431S98.335,188.5,98.5,188.5Z" transform="translate(-95.281 -188.5)" fill="#14365b"/></g><g transform="translate(178.633 56.744)"><path d="M186.093,176.492c-.168.168-1.679-2.519-2.854-5.877s-2.351-6.045-2.015-6.212c.168-.168,1.679,2.519,2.854,5.877S186.261,176.324,186.093,176.492Z" transform="translate(-181.165 -164.396)" fill="#14365b"/></g><g transform="translate(178.681 56.908)"><path d="M190.1,171.892c-.168.168-2.183-1.511-4.7-3.358-2.519-2.015-4.366-3.862-4.2-4.03s2.183,1.511,4.7,3.358S190.271,171.725,190.1,171.892Z" transform="translate(-181.194 -164.493)" fill="#14365b"/></g><g transform="translate(213.447 5.341)"><path d="M225.407,146.574c0,.168-1.343-.672-3.358-2.015s-4.869-3.022-8.059-4.869c-3.19-1.679-6.212-3.19-8.563-4.2-2.183-1.007-3.526-1.511-3.526-1.679s1.511.336,3.862,1.175a83.579,83.579,0,0,1,8.731,3.862,52.48,52.48,0,0,1,8.059,5.037C224.4,145.4,225.575,146.406,225.407,146.574Z" transform="translate(-201.9 -133.781)" fill="#14365b"/></g><g transform="translate(24.379 153.103)"><path d="M101.392,224.5c0,.168-2.854,0-6.212-.672s-6.045-1.847-5.877-2.015a56.838,56.838,0,0,1,6.045,1.175C98.706,223.657,101.56,224.329,101.392,224.5Z" transform="translate(-89.296 -221.784)" fill="#14365b"/></g><g transform="translate(108.655 64.811)"><path d="M159.825,169.2a40,40,0,0,0-5.373,1.343,21.329,21.329,0,0,0-10.41,7.724,21.7,21.7,0,0,0-3.862,12.425c0,3.358.672,5.373.5,5.541a4.052,4.052,0,0,1-.5-1.343,19.934,19.934,0,0,1-.672-4.03,21.6,21.6,0,0,1,3.694-12.929,20.987,20.987,0,0,1,10.914-7.724,14.2,14.2,0,0,1,4.03-.672A7.108,7.108,0,0,1,159.825,169.2Z" transform="translate(-139.488 -169.2)" fill="#14365b"/></g><g transform="translate(34.461 207.682)"><path d="M195.371,254.306c0,.168-22.331,1.847-50.036,3.526S95.3,260.687,95.3,260.519s22.331-1.847,50.036-3.526C172.872,255.314,195.371,254.139,195.371,254.306Z" transform="translate(-95.3 -254.291)" fill="#14365b"/></g><g transform="translate(11.29 63.804)"><path d="M164.949,168.6s.168.5.336,1.175a8.519,8.519,0,0,0,.336,1.511c0,.672.168,1.343.168,2.183a33.172,33.172,0,0,1-2.183,13.264,31.331,31.331,0,0,1-12.425,15.447,18.345,18.345,0,0,1-2.519,1.343,18.652,18.652,0,0,1-2.686,1.175c-1.847.672-3.862,1.175-5.709,1.847a32.978,32.978,0,0,0-5.541,2.519,22.27,22.27,0,0,0-4.533,4.366c-2.687,3.358-4.366,7.22-6.548,10.746s-4.869,6.716-8.227,8.563a19.886,19.886,0,0,1-10.578,2.015,30.007,30.007,0,0,1-9.067-2.519,38.93,38.93,0,0,1-10.914-8.059,30.224,30.224,0,0,1-2.519-2.686,10.282,10.282,0,0,0-.84-1.007,10.286,10.286,0,0,0,1.007.84c.672.672,1.511,1.511,2.686,2.519a42.744,42.744,0,0,0,10.914,7.724,23.943,23.943,0,0,0,8.731,2.351,16.824,16.824,0,0,0,10.074-2.015c3.19-1.679,5.709-4.869,7.892-8.227,2.183-3.526,3.862-7.388,6.716-10.746a30.034,30.034,0,0,1,4.7-4.533,29.181,29.181,0,0,1,5.709-2.686c2.015-.672,3.862-1.343,5.709-1.847.84-.336,1.847-.672,2.686-1.007a18.349,18.349,0,0,0,2.519-1.343A30.122,30.122,0,0,0,163.1,186.566a32.685,32.685,0,0,0,2.351-13.1,6.919,6.919,0,0,0-.168-2.015c0-.672-.168-1.175-.168-1.511C164.949,169.1,164.781,168.6,164.949,168.6Z" transform="translate(-81.5 -168.6)" fill="#14365b"/></g><g transform="translate(82.65 120.556)"><path d="M173.868,269.058a3.724,3.724,0,0,0-1.175-.672,9.025,9.025,0,0,0-3.526-1.343,54.649,54.649,0,0,0-6.045-.5c-2.351-.168-5.037-.168-7.892-.336a39.774,39.774,0,0,1-9.571-1.343,32.756,32.756,0,0,1-10.074-4.869,27.423,27.423,0,0,1-8.227-9.235A27.78,27.78,0,0,1,124,238a23.933,23.933,0,0,1,3.526-12.761,22.306,22.306,0,0,1,9.067-8.227,23.875,23.875,0,0,1,5.541-1.847c1.847-.336,3.694-.336,5.373-.5a57.96,57.96,0,0,0,9.571-.336c5.877-.672,9.906-4.03,11.25-7.052a9.53,9.53,0,0,0,1.007-3.526,7.607,7.607,0,0,0,.168-1.343v1.343a9.312,9.312,0,0,1-.84,3.694,13.644,13.644,0,0,1-3.862,4.7c-1.847,1.511-4.533,2.351-7.556,2.854a60.789,60.789,0,0,1-9.738.336,30.5,30.5,0,0,0-5.373.5,19.253,19.253,0,0,0-5.205,1.847A22.874,22.874,0,0,0,124.672,238a26.286,26.286,0,0,0,3.19,12.425,27.156,27.156,0,0,0,7.892,8.9,33.06,33.06,0,0,0,9.738,4.869,40.405,40.405,0,0,0,9.4,1.511c3.022.168,5.709.168,8.059.5a50.88,50.88,0,0,1,6.045.672,8.585,8.585,0,0,1,3.526,1.679c.336.336.672.5.84.672Z" transform="translate(-124 -202.4)" fill="#14365b"/></g><g transform="translate(36.98 148.703)"><path d="M136.761,282.357c-.168,0,.168-1.343-.168-3.526a11.829,11.829,0,0,0-5.205-7.891,14.879,14.879,0,0,0-2.854-1.343,19.8,19.8,0,0,0-3.358-.672c-2.351-.336-5.037-.168-7.892-1.007a8.694,8.694,0,0,1-3.694-2.351,10.29,10.29,0,0,1-2.519-3.862,19.708,19.708,0,0,1-1.175-9.4c1.007-6.38,3.694-12.089,4.2-17.462a15.986,15.986,0,0,0-.672-7.556,10.419,10.419,0,0,0-3.862-5.205,12.3,12.3,0,0,0-9.235-2.351,13.022,13.022,0,0,0-3.526,1.007,8.284,8.284,0,0,1,3.358-1.343,12.253,12.253,0,0,1,9.571,2.183,11.915,11.915,0,0,1,4.2,5.541,20.424,20.424,0,0,1,.84,7.892c-.5,5.709-3.358,11.25-4.2,17.462a15.988,15.988,0,0,0,1.007,8.9,10,10,0,0,0,2.351,3.526,9.587,9.587,0,0,0,3.526,2.183c2.519.84,5.205.84,7.724,1.175a21.89,21.89,0,0,1,3.526.672,8.523,8.523,0,0,1,3.022,1.511,12.673,12.673,0,0,1,5.205,8.4,6.98,6.98,0,0,1,0,2.687A2.037,2.037,0,0,1,136.761,282.357Z" transform="translate(-96.8 -219.164)" fill="#14365b"/></g><g transform="translate(70.786 118.037)"><path d="M119.731,201.739a3.724,3.724,0,0,1,1.175-.672,7.1,7.1,0,0,1,3.694.168,8.536,8.536,0,0,1,2.183,1.511,3.962,3.962,0,0,1,1.175,2.686,5.892,5.892,0,0,1-2.854,5.877,5.82,5.82,0,0,1-6.548-1.007,4.363,4.363,0,0,1-1.511-2.686,4.113,4.113,0,0,1,.168-2.519,6.284,6.284,0,0,1,2.015-3.022,2.177,2.177,0,0,1,1.175-.5,4.745,4.745,0,0,0-1.007.84,5.17,5.17,0,0,0-1.679,2.854,4.16,4.16,0,0,0,1.343,4.366,5.1,5.1,0,0,0,5.541.839,5.262,5.262,0,0,0,2.519-5.037,4.465,4.465,0,0,0-2.854-3.694,5.138,5.138,0,0,0-3.358-.5C120.235,201.739,119.731,201.907,119.731,201.739Z" transform="translate(-116.934 -200.9)" fill="#14365b"/></g><g transform="translate(4.91 143.894)"><path d="M96,262.978c-.168,0,.672-3.022.84-7.724v-3.862c0-1.343-.336-2.854-.5-4.533a45.936,45.936,0,0,0-2.686-9.906,50.826,50.826,0,0,0-4.7-9.067c-1.007-1.343-1.847-2.519-2.686-3.526a22.249,22.249,0,0,0-2.686-2.854c-3.358-3.358-5.877-5.037-5.877-5.205a15.649,15.649,0,0,1,1.847,1.175q.756.5,2.015,1.511c.672.672,1.679,1.343,2.519,2.183s1.847,1.847,2.686,2.854c1.007,1.007,1.847,2.351,2.854,3.526a43.5,43.5,0,0,1,4.869,9.235,50.066,50.066,0,0,1,2.686,10.074c.168,1.679.336,3.19.336,4.533v4.03a16.915,16.915,0,0,1-.336,3.19,17.834,17.834,0,0,1-.5,2.351C96.337,262.306,96.17,262.978,96,262.978Z" transform="translate(-77.7 -216.3)" fill="#14365b"/></g><g transform="translate(145.363 76.413)"><path d="M213.484,183.985s-.84-.336-2.519-1.175a67.347,67.347,0,0,0-6.884-2.854,53.885,53.885,0,0,0-10.578-2.687,35.876,35.876,0,0,0-13.264.672,25.73,25.73,0,0,0-11.585,6.212,23.317,23.317,0,0,0-6.045,8.9,17.551,17.551,0,0,0-1.007,7.22c.168,1.679.336,2.686.336,2.686a.981.981,0,0,1-.168-.672,6.261,6.261,0,0,1-.336-2.015,17.937,17.937,0,0,1,.84-7.388,24.764,24.764,0,0,1,6.045-9.4,27.2,27.2,0,0,1,11.921-6.38,37.681,37.681,0,0,1,13.6-.672,50.548,50.548,0,0,1,17.462,6.045,10.746,10.746,0,0,0,1.847,1.007A2.079,2.079,0,0,0,213.484,183.985Z" transform="translate(-161.35 -176.11)" fill="#14365b"/></g><g transform="translate(187.422 9.067)"><path d="M210.242,136a2.077,2.077,0,0,0,.5.336,10.961,10.961,0,0,1,1.175,1.343,20.081,20.081,0,0,1,3.19,5.541,22.727,22.727,0,0,1,1.343,9.4,21.976,21.976,0,0,1-12.425,18.47,22.031,22.031,0,0,1-9.067,2.351,22.673,22.673,0,0,1-6.38-.5,10.434,10.434,0,0,1-1.679-.5c-.336-.168-.5-.168-.5-.336a25.087,25.087,0,0,0,8.4.672,23.135,23.135,0,0,0,8.731-2.519,21.806,21.806,0,0,0,8.4-7.388,21.442,21.442,0,0,0,3.526-10.578,19.253,19.253,0,0,0-1.175-9.067C212.593,138.351,210.075,136.168,210.242,136Z" transform="translate(-186.4 -136)" fill="#14365b"/></g><g transform="translate(72.409 63.028)"><ellipse cx="14.608" cy="0.504" rx="14.608" ry="0.504" transform="matrix(1, -0.008, 0.008, 1, 0, 0.225)" fill="#14365b"/></g></g></g></g></svg>