<svg width="330" height="209" viewBox="0 0 330 209" fill="none" xmlns="http://www.w3.org/2000/svg">
<rect y="32" width="330" height="160" rx="5" fill="#DDFBEE"/>
<g clip-path="url(#clip0)">
<path fill-rule="evenodd" clip-rule="evenodd" d="M112.717 71.9202C105.185 70.6929 94.6196 67.6492 84.2989 60.2853C69.6739 49.8286 100.44 53.4124 125.484 61.8072L115.799 70.4474L112.717 71.9202Z" fill="#0E2D34"/>
<path fill-rule="evenodd" clip-rule="evenodd" d="M87.4293 51.9396C92.3696 56.7016 105.332 66.1273 117.853 76.2403L131.598 81.6405L134.288 73.1966C124.652 57.6343 111.837 41.6793 100.587 33.53C80.9728 19.2442 70.0652 35.2973 87.4293 51.9396Z" fill="#1B7154"/>
<path fill-rule="evenodd" clip-rule="evenodd" d="M131.745 81.1986C115.946 55.7688 86.0598 35.1992 85.962 35.101C85.7663 34.9537 85.4728 35.0028 85.3261 35.2482C85.1793 35.4937 85.2772 35.7883 85.4728 35.9355C85.5706 36.0337 115.016 56.2597 130.717 81.2477L131.598 81.5914L131.745 81.1986Z" fill="#DDFBEE"/>
<path fill-rule="evenodd" clip-rule="evenodd" d="M118.685 19.5387C121.033 26.3134 124.554 42.2193 128.663 58.7143C126.56 65.3909 122.255 71.0365 116.582 74.8657C106.799 59.2543 98.2881 41.3357 95.3533 27.2953C89.5815 -0.196435 109.636 -6.23479 118.685 19.5387Z" fill="#6AC75A"/>
<path fill-rule="evenodd" clip-rule="evenodd" d="M122.549 69.5637C108.853 43.2503 102.984 11.5857 102.935 11.4384C102.886 11.1439 103.033 10.8493 103.326 10.8002C103.62 10.7512 103.864 10.9475 103.913 11.2421C103.962 11.3894 109.783 42.7102 123.234 68.7292C123.038 69.0237 122.793 69.3183 122.549 69.5637Z" fill="#DDFBEE"/>
<path fill-rule="evenodd" clip-rule="evenodd" d="M117.364 19.7842C117.413 26.6571 119.614 42.563 121.082 58.6162L126.755 72.3129L134.679 68.3855C139.179 50.6141 141.674 30.2899 139.717 16.5441C136.342 -7.56025 117.266 -4.32016 117.364 19.7842Z" fill="#1B7154"/>
<path fill-rule="evenodd" clip-rule="evenodd" d="M127.147 72.1166C134.386 43.0539 128.418 7.16744 128.418 7.02017C128.37 6.7747 128.125 6.62743 127.88 6.67652C127.636 6.72561 127.44 6.97107 127.489 7.26563C127.489 7.4129 133.408 42.7103 126.413 71.4293L126.804 72.3129L127.147 72.1166Z" fill="#DDFBEE"/>
<path fill-rule="evenodd" clip-rule="evenodd" d="M58.9619 176.045C65.0271 179.432 79.9945 185.373 94.8152 192H110.223L110.614 184.931C97.163 172.069 80.3858 159.648 67.2771 154.493C44.2391 145.46 37.5869 164.116 58.9619 176.045Z" fill="#1B7154"/>
<path fill-rule="evenodd" clip-rule="evenodd" d="M108.511 192C86.4021 171.921 53.3369 159.894 53.1902 159.845C52.9456 159.746 52.7011 159.894 52.6032 160.139C52.5543 160.385 52.6521 160.679 52.8967 160.777C52.9945 160.826 85.1793 172.51 107.092 192H108.511Z" fill="#DDFBEE"/>
<path fill-rule="evenodd" clip-rule="evenodd" d="M65.663 192C68.5 188.171 80.9728 186.6 99.0217 192H65.663Z" fill="#0E2D34"/>
<path fill-rule="evenodd" clip-rule="evenodd" d="M102.837 192C98.0435 187.974 93.1032 182.722 89.8261 176.487C81.3152 160.286 78.6739 155.23 74.5163 153.855C70.9456 152.677 101.908 139.275 131.158 170.694C130.13 177.91 126.217 185.618 116.288 192H102.837Z" fill="#4A9075"/>
<path fill-rule="evenodd" clip-rule="evenodd" d="M78.625 151.302C95.4511 157.488 112.277 170.399 126.022 183.212C125.777 183.556 125.533 183.851 125.288 184.194C111.201 171.087 93.8859 157.832 76.7174 151.99C77.2065 151.695 77.8913 151.499 78.625 151.302Z" fill="#DDFBEE"/>
<path fill-rule="evenodd" clip-rule="evenodd" d="M102.299 119.196C107.239 124.154 116.141 135.347 126.266 147.768C126.266 147.768 136.587 164.41 128.125 179.874C109.636 168.092 91.3913 153.266 81.0217 139.717C60.5761 112.961 79.163 95.9263 102.299 119.196Z" fill="#6AC75A"/>
<path fill-rule="evenodd" clip-rule="evenodd" d="M131.207 170.448C103.326 149.142 81.1684 118.705 81.0706 118.558C80.875 118.263 80.875 117.871 81.1685 117.674C81.413 117.478 81.8043 117.527 82.0489 117.821C82.1467 117.969 103.962 147.866 131.353 169.025C131.304 169.516 131.255 170.007 131.207 170.448Z" fill="#DDFBEE"/>
<path fill-rule="evenodd" clip-rule="evenodd" d="M117.609 191.116C114.087 186.894 109.489 182.181 103.962 178.352C90.6087 169.025 77.3043 174.278 76.0326 179.285C75.4945 181.347 75.9837 186.207 78.3315 192H116.239C116.728 191.705 117.168 191.411 117.609 191.116Z" fill="#6AC75A"/>
<path fill-rule="evenodd" clip-rule="evenodd" d="M107.777 192C106.603 189.005 104.451 183.9 102.69 181.101C102.543 180.856 102.299 180.758 102.152 180.905C102.005 181.052 102.005 181.347 102.152 181.592C103.815 184.194 105.821 189.054 106.995 192H107.777ZM106.163 192H103.081C102.103 191.411 101.076 190.822 100.049 190.233C99.6087 190.576 98.9239 191.165 98.0434 192H96.625C97.6521 191.018 98.5326 190.233 99.1195 189.742C95.5489 187.827 91.6848 186.06 87.625 184.587C86.5489 185.176 84.3478 186.649 82.7337 188.907C82.6358 189.054 82.3913 189.054 82.1956 188.809C82 188.613 82 188.269 82.0978 188.122C83.4185 186.207 85.1793 184.882 86.3532 184.096C83.7608 183.212 81.0706 182.427 78.3315 181.789C77.8913 181.691 77.5489 181.2 77.5 180.66C77.4511 180.12 77.7445 179.776 78.1848 179.874C83.8587 181.151 89.1902 183.114 94.1793 185.372C91.2445 179.334 88.5054 175.701 88.5054 175.701C88.3587 175.456 88.3098 175.161 88.4565 175.014C88.6032 174.867 88.8478 174.916 88.9945 175.112C88.9945 175.112 92.0761 179.187 95.2065 185.814C99.0706 187.729 102.739 189.84 106.163 192Z" fill="#DDFBEE"/>
<path fill-rule="evenodd" clip-rule="evenodd" d="M225.266 87.9243C232.603 83.8987 242.533 76.8785 250.554 65.3909C261.951 49.1413 231.283 64.1636 208.342 82.0823L221.549 87.4824L225.266 87.9243Z" fill="#0E2D34"/>
<path fill-rule="evenodd" clip-rule="evenodd" d="M246.69 51.9887C243.609 58.9107 234.315 73.933 225.706 89.4462L213.918 100.688L207.658 93.1772C211.033 73.2948 217.489 51.6451 225.56 38.6847C239.696 15.955 257.5 27.7862 246.69 51.9887Z" fill="#1B7154"/>
<path fill-rule="evenodd" clip-rule="evenodd" d="M213.576 100.345C219.152 67.8456 241.114 34.3646 241.212 34.2173C241.359 33.9719 241.701 33.9228 241.897 34.1192C242.141 34.3155 242.19 34.6101 242.043 34.8555C241.946 34.9537 220.375 67.9438 214.652 100.001L213.87 100.737L213.576 100.345Z" fill="#DDFBEE"/>
<path fill-rule="evenodd" clip-rule="evenodd" d="M201.397 32.0572C201.788 39.9611 204.821 57.6343 207.413 76.1912C212.304 82.0823 219.103 86.0588 226.44 87.5806C229.913 67.6001 231.185 45.754 228.397 30.1917C222.87 -0.245503 199.929 1.91456 201.397 32.0572Z" fill="#6AC75A"/>
<path fill-rule="evenodd" clip-rule="evenodd" d="M218.174 84.6842C221.206 52.136 214.114 17.3786 214.114 17.2314C214.065 16.8877 213.772 16.6913 213.429 16.7404C213.136 16.7895 212.94 17.0841 212.989 17.4277C213.038 17.575 220.033 51.9887 217.098 84.1442C217.44 84.3405 217.783 84.4878 218.174 84.6842Z" fill="#DDFBEE"/>
<path fill-rule="evenodd" clip-rule="evenodd" d="M154.293 33.1662H188.924C190.636 33.1662 192.054 34.5899 192.054 36.3081V53.4413C192.054 55.1595 190.636 56.5832 188.924 56.5832H154.293C152.582 56.5832 151.163 55.1595 151.163 53.4413V36.3081C151.212 34.5899 152.582 33.1662 154.293 33.1662Z" fill="#B83470"/>
<path fill-rule="evenodd" clip-rule="evenodd" d="M148.717 38.4682H194.549C196.799 38.4682 198.658 40.3337 198.658 42.592V65.2235C198.658 67.4818 196.799 69.3473 194.549 69.3473H148.717C146.467 69.3473 144.609 67.4818 144.609 65.2235V42.592C144.609 40.3337 146.467 38.4682 148.717 38.4682Z" fill="#00000F"/>
<path fill-rule="evenodd" clip-rule="evenodd" d="M119.027 165.175H123.821H137.663C138.886 165.175 139.62 166.206 139.277 167.434L131.353 196.791C131.011 198.018 129.739 199.049 128.516 199.049H124.75C124.603 199.049 124.457 199.049 124.31 199C124.163 199.049 123.967 199.049 123.772 199.049H118.978C117.413 199.049 116.141 197.773 116.141 196.202V168.023C116.19 166.452 117.462 165.175 119.027 165.175Z" fill="#00000F"/>
<path fill-rule="evenodd" clip-rule="evenodd" d="M220.62 157.37H215.826L201.984 165.126C200.908 165.715 200.027 166.157 200.37 167.385L208.293 196.742C208.636 197.969 209.908 199 211.13 199H214.897C215.043 199 215.19 199 215.337 198.951C215.484 199 215.679 199 215.875 199H220.668C222.234 199 223.505 197.724 223.505 196.153V160.217C223.457 158.646 222.185 157.37 220.62 157.37Z" fill="#00000F"/>
<path fill-rule="evenodd" clip-rule="evenodd" d="M112.962 165.175H117.755H131.598C132.821 165.175 133.554 166.206 133.212 167.434L125.288 196.791C124.946 198.018 123.674 199.049 122.451 199.049H118.685C118.538 199.049 118.391 199.049 118.245 199C118.098 199.049 117.902 199.049 117.707 199.049H112.913C111.348 199.049 110.076 197.773 110.076 196.202V168.023C110.125 166.452 111.397 165.175 112.962 165.175Z" fill="#101537"/>
<path fill-rule="evenodd" clip-rule="evenodd" d="M214.554 165.175H209.761H195.918C194.696 165.175 193.962 166.206 194.304 167.434L202.228 196.791C202.571 198.018 203.842 199.049 205.065 199.049H208.832C208.978 199.049 209.125 199.049 209.272 199C209.418 199.049 209.614 199.049 209.81 199.049H214.603C216.168 199.049 217.44 197.773 217.44 196.202V168.023C217.391 166.452 216.12 165.175 214.554 165.175Z" fill="#101537"/>
<path fill-rule="evenodd" clip-rule="evenodd" d="M146.467 33.1662H181.098C182.81 33.1662 184.228 34.5899 184.228 36.3081V53.4413C184.228 55.1595 182.81 56.5832 181.098 56.5832H146.467C144.755 56.5832 143.337 55.1595 143.337 53.4413V36.3081C143.337 34.5899 144.755 33.1662 146.467 33.1662Z" fill="#E94D90"/>
<path fill-rule="evenodd" clip-rule="evenodd" d="M140.842 38.4682H186.674C188.924 38.4682 190.783 40.3337 190.783 42.592V65.2235C190.783 67.4818 188.924 69.3473 186.674 69.3473H140.842C138.592 69.3473 136.734 67.4818 136.734 65.2235V42.592C136.734 40.3337 138.592 38.4682 140.842 38.4682Z" fill="#101537"/>
<path fill-rule="evenodd" clip-rule="evenodd" d="M172.734 44.1628C213.478 44.1628 246.543 77.3492 246.543 118.243C246.543 159.137 213.478 192.323 172.734 192.323C171.266 192.323 169.799 192.274 168.332 192.176H163.734V191.783C127.196 187.316 98.9239 156.093 98.9239 118.243C98.9239 80.393 127.245 49.1703 163.734 44.7029V44.1628H172.734Z" fill="#004C84"/>
<path d="M164.699 192.264C205.458 191.755 238.09 158.178 237.582 117.269C237.075 76.3598 203.621 43.6092 162.861 44.1186C122.101 44.6279 89.4698 78.2044 89.9773 119.114C90.4848 160.023 123.939 192.774 164.699 192.264Z" fill="#1874BA"/>
<path fill-rule="evenodd" clip-rule="evenodd" d="M163.783 182.603C199.147 182.603 227.957 153.688 227.957 118.194C227.957 82.7003 199.147 53.785 163.783 53.785C128.467 53.785 99.6087 82.7003 99.6087 118.194C99.6087 153.688 128.418 182.603 163.783 182.603Z" fill="#C7C3D1"/>
<path d="M163.783 177.154C196.226 177.154 222.527 150.757 222.527 118.194C222.527 85.6315 196.226 59.2343 163.783 59.2343C131.339 59.2343 105.038 85.6315 105.038 118.194C105.038 150.757 131.339 177.154 163.783 177.154Z" fill="white"/>
<path fill-rule="evenodd" clip-rule="evenodd" d="M163.783 72.4891C162.853 72.4891 162.071 71.7037 162.071 70.7709V67.7763C162.071 66.8435 162.853 66.058 163.783 66.058C164.712 66.058 165.495 66.8435 165.495 67.7763V70.7709C165.495 71.7037 164.712 72.4891 163.783 72.4891ZM163.783 170.428C162.853 170.428 162.071 169.643 162.071 168.71V165.715C162.071 164.783 162.853 163.997 163.783 163.997C164.712 163.997 165.495 164.783 165.495 165.715V168.71C165.495 169.643 164.712 170.428 163.783 170.428ZM186.527 78.6257C185.696 78.1347 185.402 77.1038 185.891 76.2692L187.408 73.6674C187.897 72.8328 188.924 72.5382 189.755 73.0292C190.587 73.5201 190.88 74.551 190.391 75.3856L188.875 77.9875C188.435 78.822 187.359 79.0675 186.527 78.6257ZM137.761 163.408C136.929 162.917 136.636 161.886 137.125 161.052L138.641 158.45C139.13 157.615 140.158 157.321 140.989 157.812C141.821 158.302 142.114 159.333 141.625 160.168L140.109 162.77C139.62 163.604 138.592 163.899 137.761 163.408ZM203.207 95.3661C202.717 94.5316 203.011 93.5006 203.842 93.0097L206.435 91.4879C207.266 90.9969 208.293 91.2915 208.783 92.1261C209.272 92.9606 208.978 93.9916 208.147 94.4825L205.554 96.0043C204.772 96.4462 203.696 96.2007 203.207 95.3661ZM118.734 144.311C118.245 143.477 118.538 142.446 119.37 141.955L121.962 140.433C122.793 139.942 123.821 140.237 124.31 141.071C124.799 141.906 124.505 142.937 123.674 143.428L121.082 144.949C120.25 145.44 119.223 145.146 118.734 144.311ZM209.321 118.194C209.321 117.261 210.103 116.476 211.033 116.476H214.016C214.946 116.476 215.728 117.261 215.728 118.194C215.728 119.127 214.946 119.912 214.016 119.912H211.033C210.103 119.961 209.321 119.176 209.321 118.194ZM111.739 118.194C111.739 117.261 112.522 116.476 113.451 116.476H116.435C117.364 116.476 118.147 117.261 118.147 118.194C118.147 119.127 117.364 119.912 116.435 119.912H113.5C112.522 119.961 111.739 119.176 111.739 118.194ZM203.207 141.071C203.696 140.237 204.723 139.942 205.554 140.433L208.147 141.955C208.978 142.446 209.272 143.477 208.783 144.311C208.293 145.146 207.266 145.44 206.435 144.949L203.842 143.428C203.06 142.986 202.766 141.906 203.207 141.071ZM118.734 92.1261C119.223 91.2915 120.25 90.9969 121.082 91.4879L123.674 93.0097C124.505 93.5006 124.799 94.5316 124.31 95.3661C123.821 96.2007 122.793 96.4953 121.962 96.0043L119.37 94.4825C118.538 93.9916 118.245 92.9606 118.734 92.1261ZM186.527 157.812C187.359 157.321 188.386 157.615 188.875 158.45L190.391 161.052C190.88 161.886 190.587 162.917 189.755 163.408C188.924 163.899 187.897 163.604 187.408 162.77L185.891 160.168C185.451 159.383 185.745 158.302 186.527 157.812ZM137.761 73.0292C138.592 72.5382 139.62 72.8328 140.109 73.6674L141.625 76.2692C142.114 77.1038 141.821 78.1347 140.989 78.6257C140.158 79.1166 139.13 78.822 138.641 77.9875L137.125 75.3856C136.636 74.551 136.929 73.471 137.761 73.0292Z" fill="#00000F"/>
<path fill-rule="evenodd" clip-rule="evenodd" d="M163.783 120.256C164.908 120.256 165.837 119.323 165.837 118.194V83.4858C165.837 82.3567 164.908 81.424 163.783 81.424C162.658 81.424 161.728 82.3567 161.728 83.4858V118.194C161.728 119.323 162.658 120.256 163.783 120.256Z" fill="#00000F"/>
<path fill-rule="evenodd" clip-rule="evenodd" d="M162.315 116.77C161.533 117.556 161.533 118.881 162.315 119.667L180.266 137.684C181.049 138.469 182.37 138.469 183.152 137.684C183.935 136.898 183.935 135.573 183.152 134.787L165.201 116.77C164.418 115.985 163.098 115.985 162.315 116.77Z" fill="#E94D90"/>
</g>
<defs>
<clipPath id="clip0">
<rect x="46" width="207" height="209" fill="white"/>
</clipPath>
</defs>
</svg>
