<svg width="330" height="210" viewBox="0 0 330 210" fill="none" xmlns="http://www.w3.org/2000/svg">
<rect y="32" width="330" height="160" rx="5" fill="#637DF2"/>
<path d="M244.57 105.208C242.578 105.694 236.19 108.487 233.245 109.823L239.834 110.43C241.291 109.539 244.412 107.625 245.238 107.09C246.27 106.422 247.06 104.6 244.57 105.208Z" fill="#E38D7E"/>
<path d="M250.096 107.09C248.59 106.823 243.457 109.104 241.078 110.278C242.242 111.068 245.111 112.282 247.272 110.825C249.975 109.003 251.978 107.424 250.096 107.09Z" fill="#E38D7E"/>
<path d="M216.392 104.908C213.049 106.371 207.107 113.99 204.554 117.617L213.159 123.891C214.484 122.699 217.89 119.995 220.912 118.723C224.688 117.133 242.883 114.314 246.697 113.796C250.51 113.278 251.399 112.722 251.399 112.093C251.399 111.464 251.214 110.982 248.141 110.723C245.682 110.516 233.887 109.452 228.296 108.946C229.962 108.206 233.783 106.48 235.738 105.503C238.181 104.281 237.774 102.911 236.812 102.208C235.849 101.504 232.756 102.906 229.622 103.167C226.489 103.428 220.57 103.08 216.392 104.908Z" fill="#F3B4A3"/>
<path d="M80.5852 85.9918L126.977 108.898C127.243 109.029 127.436 109.271 127.506 109.559L147.2 190.764C147.353 191.394 146.876 192 146.228 192H100.325C99.8459 192 99.4342 191.66 99.343 191.19L79.1607 87.0787C79.0033 86.2667 79.8435 85.6256 80.5852 85.9918Z" fill="#153ABD"/>
<path d="M187.061 140.789L166.335 97.3883C172.004 98.9827 173.244 95.6169 173.421 93.1369C173.598 90.6569 172.358 89.2397 168.993 87.6454C165.627 86.0511 139.941 73.4739 133.918 69.7539C127.895 66.0338 116.381 70.4624 115.141 78.9654C114.149 85.7677 118.861 91.2473 121.341 93.1369C118.979 94.554 113.476 99.1952 110.358 106.423C107.24 113.65 117.245 167.023 122.5 192H146C147.83 198.023 154.715 208.599 166.335 209.166C180.861 209.875 187.947 200.84 192.376 190.389C196.804 179.937 197.623 170.377 200 168C206 162 212.409 161.5 215.759 148.937C216.892 144.686 215.286 136.301 214.341 132.64L217.884 126.971L204.421 117.583L187.061 140.789Z" fill="#C4BDF3"/>
<path d="M128.113 75.9689L136.297 80.9353L138.605 75.9689H128.113Z" fill="#9F93EC"/>
<path fill-rule="evenodd" clip-rule="evenodd" d="M121.6 93.5446C126.599 94.4664 134.83 96.0215 141.633 97.3936C144.255 98.5948 150.336 103.203 153.496 112.109C156.706 121.154 167.295 147.705 172.29 160.103L168.419 165.379L169.225 165.97L173.261 160.47L173.261 160.47L173.268 160.46L189.41 137.286L188.59 136.714L172.976 159.129C167.886 146.488 157.589 120.652 154.438 111.775C151.945 104.746 147.675 100.278 144.528 97.985C148.151 98.7352 151.054 99.381 152.358 99.7675C157.229 101.211 162.966 104.815 165.634 109.617L166.508 109.132C163.674 104.031 157.675 100.3 152.642 98.8087C150.959 98.31 146.78 97.4121 141.886 96.4247C135.065 95.0482 126.797 93.486 121.782 92.5612L121.6 93.5446ZM119.592 137.654L139.215 177.449L140.111 177.007L120.489 137.212L119.592 137.654ZM156.535 156.822C157.893 156.822 160.062 156.912 162.141 157.184C163.18 157.32 164.187 157.5 165.055 157.733C165.931 157.968 166.624 158.248 167.064 158.562L167.645 157.749C167.059 157.33 166.229 157.013 165.314 156.767C164.39 156.519 163.336 156.332 162.271 156.193C160.141 155.914 157.927 155.822 156.535 155.822V156.822ZM199.915 123.736L215.137 133.272L215.668 132.424L200.446 122.888L199.915 123.736ZM207.467 162.848L192.796 170.55L193.261 171.435L207.932 163.733L207.467 162.848Z" fill="#617CF2"/>
<path d="M135.727 80.6813C136.508 79.5334 136.32 63.6737 136.129 55.8874C136.328 53.2773 136.737 48.002 136.781 47.7816C136.836 47.5062 140.968 39.7933 141.244 39.2975C141.519 38.8017 145.1 36.3777 145.486 36.1573C145.794 35.981 148.589 33.9169 149.948 32.9069L161.628 32.0805L165.594 40.8401C167.247 47.451 170.332 62.0613 169.451 67.6145C168.569 73.1678 163.023 74.4146 160.36 74.3439L157.625 92.7529L135.727 80.6813Z" fill="#F2B2A1"/>
<path d="M136.161 55.9379C137.692 56.3754 139.716 55.0721 140.536 54.3657C139.761 52.7934 138.567 49.4028 139.989 48.4185C141.411 47.4341 142.495 49.8312 142.86 51.1528C143.202 50.4692 143.967 48.1997 144.296 44.5904C144.706 40.0787 146.756 37.2076 148.124 36.6608C149.491 36.1139 156.6 37.8912 158.719 38.3014C160.415 38.6296 162.023 37.3444 162.616 36.6608C163.709 37.317 165.396 41.1269 166.102 42.9498C169.219 39.067 166.444 35.2253 164.666 33.7897C166.717 23.5359 157.762 25.8601 156.6 26.0652C155.438 26.2702 152.157 26.2702 149.559 27.2956C146.962 28.321 144.227 32.4225 143.475 33.3796C142.723 34.3366 137.255 36.3874 135.682 38.3014C134.11 40.2155 133.973 44.2486 134.657 47.188C135.204 49.5396 135.887 54.0011 136.161 55.9379Z" fill="#FF6D43"/>
<path d="M143.544 32.6658C142.215 33.4235 139.848 37.1122 140.663 42.8585C141.682 50.0413 142.988 58.3634 153.923 67.8512" stroke="black"/>
<rect x="153.622" y="65.7657" width="9.00534" height="3.75222" rx="1.87611" transform="rotate(19.3921 153.622 65.7657)" fill="black"/>
<path d="M164.675 62.8843C163.394 62.4672 158.209 58.9621 155.776 57.2617C155.391 58.5029 155.337 61.4842 158.196 63.4801C161.056 65.4759 163.707 63.9145 164.675 62.8843Z" fill="#FFFEFE"/>
<path d="M145.274 64.2067C147.751 67.5429 154.589 74.3042 160.048 74.9108" stroke="#E48D7E" stroke-linecap="round"/>
<path d="M152.82 45.9572C152.566 46.0659 152.448 46.3599 152.557 46.6137C152.666 46.8675 152.96 46.9851 153.214 46.8763L152.82 45.9572ZM156.336 45.5379C156.59 45.4292 156.708 45.1352 156.599 44.8814C156.49 44.6276 156.196 44.51 155.942 44.6188L156.336 45.5379ZM162.049 42.4145C161.788 42.5042 161.649 42.7886 161.739 43.0498C161.829 43.3109 162.113 43.45 162.374 43.3603L162.049 42.4145ZM165.065 42.4367C165.326 42.347 165.465 42.0626 165.375 41.8014C165.286 41.5402 165.001 41.4012 164.74 41.4908L165.065 42.4367ZM153.214 46.8763L156.336 45.5379L155.942 44.6188L152.82 45.9572L153.214 46.8763ZM162.374 43.3603L165.065 42.4367L164.74 41.4908L162.049 42.4145L162.374 43.3603Z" fill="black"/>
<path d="M161.907 46.5513C161.776 46.3081 161.473 46.2171 161.23 46.348C160.987 46.4789 160.896 46.7821 161.027 47.0253L161.907 46.5513ZM161.173 56.8619C160.95 57.0241 160.9 57.3368 161.062 57.5602C161.225 57.7837 161.537 57.8333 161.761 57.6711L161.173 56.8619ZM161.027 47.0253C161.662 48.2052 162.584 50.009 163.286 51.5849C163.638 52.375 163.928 53.0939 164.101 53.6432C164.188 53.92 164.238 54.134 164.256 54.283C164.265 54.3577 164.264 54.398 164.262 54.4124C164.26 54.4326 164.261 54.3778 164.317 54.31L165.088 54.9469C165.203 54.807 165.241 54.6462 165.255 54.5301C165.27 54.4083 165.264 54.2819 165.249 54.163C165.22 53.9248 165.149 53.6434 165.055 53.3435C164.865 52.7393 164.556 51.9791 164.199 51.178C163.484 49.5714 162.549 47.744 161.907 46.5513L161.027 47.0253ZM164.317 54.31C164.118 54.5504 163.575 55.0168 162.925 55.5331C162.292 56.0351 161.609 56.5457 161.173 56.8619L161.761 57.6711C162.205 57.3486 162.9 56.8292 163.546 56.3163C164.174 55.8177 164.809 55.2844 165.088 54.9469L164.317 54.31Z" fill="#E48D7E"/>
<circle cx="157.154" cy="50.0753" r="1.00537" fill="black"/>
<circle cx="164.489" cy="48.0645" r="1.00537" fill="black"/>
</svg>
