<svg width="330" height="209" viewBox="0 0 330 209" fill="none" xmlns="http://www.w3.org/2000/svg">
<rect y="32" width="330" height="160" rx="5" fill="#EAECFB"/>
<mask id="mask0" mask-type="alpha" maskUnits="userSpaceOnUse" x="0" y="32" width="330" height="160">
<rect y="32" width="330" height="160" rx="5" fill="#EAECFB"/>
</mask>
<g mask="url(#mask0)">
<path d="M336.796 145.425L128.036 168.169L107.431 250.942L315.427 252.199L336.796 145.425Z" fill="#ADB3E2"/>
<path d="M-32.0908 185.626L175.762 155.701L216.318 230.741L15.1784 283.722L-32.0908 185.626Z" fill="#ADB3E2"/>
</g>
<g clip-path="url(#clip0)">
<path d="M40 190.685V196.711C40 198.196 41.2191 199.331 42.6123 199.331H287.301C288.781 199.331 289.913 198.109 289.913 196.711V190.685H40Z" fill="#1874BA"/>
<path d="M290 190.161C290 191.645 288.868 192.781 287.388 192.781H42.6123C41.132 192.781 40 191.558 40 190.161L70.6513 155.836C72.6541 153.216 73.6991 153.216 75.1794 153.216H254.646C256.127 153.216 257.433 153.216 259.349 155.836L290 190.161Z" fill="#A4DEF6"/>
<path d="M270.146 181.776C270.146 182.999 269.188 183.959 267.969 183.959H62.0306C60.8116 183.959 59.8537 182.999 59.8537 181.776L77.8788 158.98C79.6203 156.797 80.4911 156.797 81.7102 156.797H246.722C247.941 156.797 249.073 156.797 250.728 158.98L270.146 181.776Z" fill="#C4E9FB"/>
<path d="M187.51 189.287C187.51 189.549 187.248 189.811 186.987 189.811H143.013C142.752 189.811 142.49 189.549 142.49 189.287L148.76 182.3C149.195 181.776 149.37 181.776 149.718 181.776H180.282C180.543 181.776 180.892 181.776 181.24 182.3L187.51 189.287Z" fill="#7287C3"/>
<path d="M181.243 182.3C180.807 181.776 180.546 181.776 180.285 181.776H179.937L186.206 188.763C186.206 189.025 185.945 189.287 185.684 189.287H144.409C144.148 189.287 143.886 189.025 143.886 188.763L150.156 181.776H149.808C149.546 181.776 149.285 181.776 148.85 182.3L142.58 189.287C142.58 189.549 142.841 189.811 143.103 189.811H187.077C187.338 189.811 187.599 189.549 187.599 189.287L181.243 182.3Z" fill="black"/>
<path d="M259.349 146.403C259.349 147.888 258.13 149.023 256.736 149.023H73.2637C71.7833 149.023 70.6513 147.8 70.6513 146.403V27.6202C70.6513 26.1354 71.8704 25 73.2637 25H256.736C258.217 25 259.349 26.2228 259.349 27.6202V146.403Z" fill="#004C84"/>
<path d="M253.427 33.1226H76.4855V140.988H253.427V33.1226Z" fill="#885DE6"/>
<path d="M119.5 95.7103C119.5 93.8304 120.782 92.5372 122.536 92.5372C123.46 92.5372 124.209 92.8632 124.728 93.4016C125.248 93.9415 125.569 94.7296 125.569 95.7103C125.569 96.646 125.259 97.4371 124.74 97.9899C124.224 98.5395 123.476 98.8834 122.536 98.8834C120.743 98.8834 119.5 97.5538 119.5 95.7103Z" stroke="white"/>
<path d="M142.019 95.3244C143.77 95.3244 145.082 95.0143 146.148 94.6262L146.753 97.8719C145.532 98.3503 143.412 98.8362 140.901 98.8362C137.474 98.8362 134.69 97.7451 132.765 95.8475C130.841 93.9506 129.73 91.2035 129.73 87.8043C129.73 84.5244 130.851 81.6335 132.904 79.5641C134.955 77.4968 137.972 76.2125 141.832 76.2125C143.672 76.2125 145.535 76.5845 146.781 77.0751L145.993 80.3707C145.051 80.0069 143.777 79.6751 142.019 79.6751C139.703 79.6751 137.82 80.5286 136.526 81.9614C135.238 83.388 134.566 85.3521 134.589 87.5261C134.59 89.9621 135.384 91.9207 136.735 93.2717C138.085 94.6215 139.951 95.3244 142.019 95.3244Z" stroke="white"/>
<path d="M172.158 87.3408C172.158 91.3765 170.743 94.2468 168.673 96.1124C166.594 97.9866 163.813 98.8834 161.032 98.8834C157.94 98.8834 155.235 97.8211 153.305 95.9131C151.376 94.007 150.187 91.2227 150.187 87.712C150.187 84.1052 151.368 81.2401 153.336 79.2779C155.304 77.3147 158.101 76.2145 161.405 76.2145C164.655 76.2145 167.334 77.3549 169.201 79.2935C171.069 81.2338 172.158 84.01 172.158 87.3408ZM155.091 87.5726C155.091 89.8325 155.643 91.8595 156.689 93.3364C157.743 94.8263 159.296 95.7448 161.219 95.7448C163.03 95.7448 164.556 94.8459 165.613 93.3611C166.664 91.8855 167.252 89.8354 167.252 87.4782C167.252 85.6484 166.845 83.6567 165.9 82.1043C164.944 80.5328 163.425 79.4003 161.264 79.4003C159.048 79.4003 157.48 80.4832 156.487 82.057C155.509 83.6083 155.091 85.6281 155.091 87.5726Z" stroke="white"/>
<path d="M177.847 83.4684H177.851V82.9684C177.851 80.5932 177.813 78.5587 177.701 76.7252H181.628L181.827 79.6088L181.86 80.0742H182.326H182.466H182.741L182.888 79.8413C183.947 78.1655 185.854 76.2145 189.439 76.2145C192.21 76.2145 194.349 77.763 195.252 80.0818L195.376 80.4003H195.718H195.811H196.086L196.233 80.1671C196.989 78.9686 197.866 78.0959 198.86 77.4887L198.874 77.4802L198.888 77.4707C200.051 76.6516 201.39 76.2145 203.159 76.2145C204.929 76.2145 206.68 76.8131 207.993 78.2387C209.307 79.6664 210.237 81.9838 210.237 85.5258V98.3728H205.656V86.3626C205.656 84.4352 205.326 82.8231 204.581 81.678C203.816 80.4999 202.642 79.8638 201.11 79.8638C198.891 79.8638 197.298 81.448 196.642 83.2126L196.632 83.2394L196.625 83.2672C196.486 83.8344 196.332 84.5795 196.332 85.2941V98.3728H191.752V85.7576C191.752 84.1214 191.429 82.6611 190.707 81.5945C189.967 80.5023 188.834 79.8638 187.345 79.8638C184.922 79.8638 183.342 81.7459 182.784 83.4454C182.525 84.0783 182.429 84.7935 182.429 85.4787V98.3707H177.847V83.4684Z" stroke="white"/>
<path d="M258.217 176.885C258.217 176.885 258.304 176.797 258.217 176.797L254.734 173.653C254.559 173.478 254.124 173.391 253.689 173.391H252.557V173.304V173.216V173.129V173.042V172.954V172.867V172.78V172.692V172.605V172.518V172.43C252.557 172.43 252.644 172.343 252.557 172.256L249.596 169.548H255.343C255.691 169.548 255.866 169.461 255.778 169.286V169.199V169.111V169.024V168.937V168.849V168.762V168.675V168.587V168.5V168.413V168.325V168.238V168.151V168.063V167.976C255.778 167.976 255.866 167.889 255.778 167.801L252.034 164.657C251.86 164.482 251.425 164.395 251.076 164.395H242.281V164.308V164.22V164.133V164.046V163.958V163.871V163.784V163.696V163.609V163.522C242.281 163.522 242.368 163.434 242.281 163.347L238.885 160.203C238.711 160.028 238.276 159.941 237.928 159.941H229.655C229.307 159.941 229.133 160.028 229.22 160.203V160.29V160.377V160.465V160.552V160.639V160.727V160.814V160.901V160.989V161.076V161.163V161.251V161.338V161.426V161.513C229.22 161.513 229.22 161.6 229.22 161.688L231.745 164.308H229.742C229.394 164.308 229.133 164.395 229.307 164.57V164.657V164.744V164.832V164.919V165.006V165.094V165.181V165.268V165.356V165.443V165.531V165.618V165.705V165.793V165.88V165.967L231.745 168.675H228.697V168.587V168.5V168.413V168.325V168.238V168.151V168.063V167.976V167.889V167.801V167.714V167.627L226.433 165.006H228.523C228.871 165.006 229.133 164.919 228.959 164.744V164.657V164.57V164.482V164.395V164.308V164.22V164.133V164.046V163.958V163.871V163.784V163.696V163.609V163.522V163.434V163.347L226.085 160.203C225.998 160.028 225.562 159.941 225.214 159.941H216.768C216.419 159.941 216.245 160.028 216.332 160.203V160.29V160.377V160.465V160.552V160.639V160.727V160.814V160.901V160.989V161.076V161.163V161.251V161.338V161.426V161.513V161.6L218.422 164.22H216.158C215.81 164.22 215.549 164.308 215.636 164.482V164.57V164.657V164.744V164.832V164.919V165.006V165.094V165.181V165.268V165.356V165.443V165.531V165.618V165.705V165.793V165.88L217.638 168.587H214.504V168.5V168.413V168.325V168.238V168.151V168.063V167.976V167.889V167.801V167.714V167.627V167.539L212.675 164.919H215.113C215.461 164.919 215.723 164.832 215.636 164.657V164.57V164.482V164.395V164.308V164.22V164.133V164.046V163.958V163.871V163.784V163.696V163.609V163.522V163.434V163.347V163.26L213.285 160.115C213.197 159.941 212.849 159.853 212.414 159.853H204.141C203.793 159.853 203.532 159.941 203.619 160.115V160.203V160.29V160.377V160.465V160.552V160.639V160.727V160.814V160.901V160.989V161.076V161.163V161.251V161.338V161.426V161.513L205.186 164.133H202.574C202.4 164.133 202.313 164.133 202.226 164.133V164.046V163.958V163.871V163.784V163.696V163.609V163.522V163.434V163.347V163.26V163.172V163.085L200.484 159.941C200.397 159.766 200.049 159.679 199.7 159.679H191.428C191.08 159.679 190.819 159.766 190.906 159.941V160.028V160.115V160.203V160.29V160.377V160.465V160.552V160.639V160.727V160.814V160.901V160.989V161.076V161.163V161.251V161.338L192.038 163.958H189.077C188.99 163.958 188.99 163.958 188.99 163.958V163.871V163.784V163.696V163.609V163.522V163.434V163.347V163.26V163.172V163.085V162.998V162.91L187.771 159.766C187.684 159.591 187.422 159.504 186.987 159.504H178.715C178.366 159.504 178.105 159.591 178.105 159.766V159.853C178.105 159.853 178.105 159.853 178.105 159.941V160.028C178.105 160.028 178.105 160.028 178.105 160.115V160.203C178.105 160.203 178.105 160.203 178.105 160.29V160.377C178.105 160.377 178.105 160.377 178.105 160.465V160.552C178.105 160.552 178.105 160.552 178.105 160.639V160.727C178.105 160.727 178.105 160.727 178.105 160.814V160.901C178.105 160.901 178.105 160.901 178.105 160.989V161.076C178.105 161.076 178.105 161.076 178.105 161.163V161.251C178.105 161.251 178.105 161.251 178.105 161.338V161.426C178.105 161.426 178.105 161.426 178.105 161.513V161.6C178.105 161.6 178.105 161.6 178.105 161.688V161.775C178.105 161.775 178.105 161.775 178.105 161.862V161.95C178.105 161.95 178.105 161.95 178.105 162.037V162.124C178.105 162.124 178.105 162.124 178.105 162.212V162.299C178.105 162.299 178.105 162.299 178.105 162.386V162.474C178.105 162.474 178.105 162.474 178.105 162.561L178.802 165.181H175.667V165.094C175.667 165.094 175.667 165.094 175.667 165.006V164.919C175.667 164.919 175.667 164.919 175.667 164.832V164.744V164.657V164.57V164.482V164.395C175.667 164.395 175.667 164.395 175.667 164.308V164.22V164.133C175.667 164.133 175.667 164.133 175.667 164.046V163.958V163.871L174.97 160.727C174.97 160.552 174.622 160.465 174.274 160.465H166.001C165.653 160.465 165.392 160.552 165.392 160.727V160.814V160.901V160.989V161.076V161.163V161.251V161.338V161.426V161.513V161.6V161.688V161.775V161.862V161.95V162.037V162.124L165.566 164.744H162.344V164.657V164.57V164.482V164.395V164.308V164.22V164.133V164.046V163.958V163.871V163.784V163.696L162.257 160.552C162.257 160.377 161.996 160.29 161.56 160.29H153.288C152.94 160.29 152.591 160.377 152.591 160.552L152.243 163.696V163.784V163.871V163.958V164.046V164.133V164.22V164.308V164.395V164.482V164.57V164.657H149.021L149.37 162.037V161.95V161.862V161.775V161.688V161.6V161.513V161.426V161.338V161.251V161.163V161.076V160.989V160.901V160.814V160.727V160.639C149.37 160.465 149.108 160.377 148.76 160.377H140.488C140.139 160.377 139.791 160.465 139.791 160.639L138.92 163.784C138.92 163.784 138.92 163.784 138.92 163.871V163.958C138.92 163.958 138.92 163.958 138.92 164.046V164.133C138.92 164.133 138.92 164.133 138.92 164.22V164.308C138.92 164.308 138.92 164.308 138.92 164.395V164.482C138.92 164.482 138.92 164.482 138.92 164.57V164.657C138.92 164.657 138.92 164.657 138.92 164.744V164.832C138.92 164.832 138.92 164.832 138.92 164.919V165.006C138.92 165.006 138.92 165.006 138.92 165.094V165.181C138.92 165.181 138.92 165.181 138.92 165.268V165.356C138.92 165.356 138.92 165.356 138.92 165.443V165.531C138.92 165.531 138.92 165.531 138.92 165.618V165.705C138.92 165.705 138.92 165.705 138.92 165.793H135.785L136.656 163.172V163.085V162.998V162.91V162.823V162.736V162.648V162.561V162.474V162.386V162.299V162.212V162.124V162.037V161.95V161.862V161.775V161.688V161.6V161.513V161.426V161.338V161.251V161.163V161.076V160.989V160.901V160.814V160.727V160.639V160.552V160.465V160.377C136.743 160.203 136.482 160.115 136.047 160.115H127.774C127.426 160.115 127.078 160.203 126.991 160.377L125.597 163.522V163.609V163.696V163.784V163.871V163.958V164.046V164.133V164.22V164.308V164.395V164.482C125.597 164.482 125.597 164.482 125.597 164.57H122.55L123.856 161.95V161.862V161.775V161.688V161.6V161.513V161.426V161.338V161.251V161.163V161.076V160.989V160.901V160.814V160.727V160.639V160.552C123.943 160.377 123.682 160.29 123.333 160.29H114.887C114.538 160.29 114.19 160.377 114.103 160.552L112.1 163.696V163.784V163.871V163.958V164.046V164.133V164.22V164.308V164.395V164.482V164.57V164.657C112.1 164.657 112.1 164.657 112.1 164.744H109.14L110.881 162.124V162.037V161.95V161.862V161.775V161.688V161.6V161.513V161.426V161.338V161.251V161.163V161.076V160.989V160.901V160.814V160.727C110.968 160.552 110.794 160.465 110.359 160.465H102.086C101.738 160.465 101.303 160.552 101.216 160.727L98.6903 163.871V163.958V164.046V164.133V164.22V164.308V164.395V164.482C98.6903 164.57 98.6903 164.57 98.6903 164.57V164.657V164.744V164.832C98.6903 164.832 98.6903 164.832 98.6903 164.919H95.9039L98.1679 162.299C98.1679 162.212 98.1679 162.212 98.1679 162.212V162.124V162.037V161.95V161.862V161.775V161.688V161.6V161.513C98.1679 161.426 98.1679 161.426 98.1679 161.426V161.338V161.251V161.163V161.076V160.989V160.901C98.255 160.727 98.0808 160.639 97.7325 160.639H89.4601C89.1118 160.639 88.6764 160.727 88.5893 160.901L85.5416 164.046C85.4545 164.133 85.5416 164.133 85.5416 164.22V164.308V164.395V164.482V164.57V164.657V164.744V164.832C85.5416 164.919 85.5416 164.919 85.5416 164.919V165.006V165.094C85.5416 165.094 85.5416 165.094 85.5416 165.181H80.5782C80.2299 165.181 79.7945 165.268 79.6203 165.443L76.3985 168.587C76.3114 168.675 76.3985 168.675 76.3985 168.762V168.849V168.937V169.024C76.3985 169.111 76.3985 169.111 76.3985 169.111V169.199V169.286V169.373V169.461C76.3985 169.548 76.3985 169.548 76.3985 169.548V169.636V169.723V169.81V169.898V169.985V170.072C76.3114 170.16 76.4855 170.334 76.9209 170.334H79.0108L76.3985 173.042C76.3114 173.129 76.3985 173.129 76.3985 173.129V173.216V173.304V173.391V173.478V173.566V173.653V173.741V173.828V173.915V174.003V174.09C76.3985 174.09 76.3985 174.09 76.3985 174.177H76.1372C75.7018 174.177 75.2665 174.265 75.0923 174.439L72.0446 177.583C72.0446 177.671 72.0446 177.671 72.0446 177.671V177.758V177.845V177.933V178.02V178.108V178.195V178.282V178.37V178.457V178.544V178.632V178.719V178.806V178.894V178.981C71.9575 179.156 72.2187 179.243 72.6541 179.243H82.6681C83.1034 179.243 83.5388 179.156 83.713 178.981L86.3253 175.837V175.749V175.662V175.575V175.487V175.4V175.313V175.225V175.138V175.051V174.963V174.876V174.789C86.3253 174.789 86.3253 174.789 86.3253 174.701H86.4124C86.8478 174.701 87.2832 174.614 87.3702 174.439L90.0697 171.295C90.0697 171.208 90.0697 171.208 90.0697 171.208V171.12V171.033V170.946V170.858V170.771V170.684V170.596V170.509V170.422V170.334V170.247V170.16V170.072V169.985V169.898C90.1567 169.723 89.9826 169.636 89.5472 169.636H87.2832L89.7213 166.928C89.7213 166.841 89.7213 166.841 89.7213 166.841V166.753V166.666V166.579V166.491V166.404V166.317V166.229V166.142V166.055V165.967C89.7213 165.967 89.7213 165.967 89.7213 165.88H92.5949L90.3309 168.5C90.3309 168.587 90.3309 168.587 90.3309 168.587V168.675V168.762V168.849V168.937V169.024V169.111V169.199V169.286V169.373V169.461V169.548V169.636V169.723V169.81V169.898C90.2438 170.072 90.418 170.16 90.8534 170.16H93.2915L91.1146 172.867V172.954V173.042V173.129V173.216V173.304V173.391V173.478V173.566V173.653V173.741V173.828V173.915C91.1146 173.915 91.1146 173.915 91.1146 174.003C90.6792 174.003 90.2438 174.09 90.1567 174.265L87.6315 177.409V177.496V177.583V177.671V177.758V177.845V177.933V178.02V178.108V178.195V178.282V178.37V178.457V178.544V178.632V178.719V178.806C87.5444 178.981 87.8056 179.068 88.241 179.068H98.6033C99.0387 179.068 99.474 178.981 99.5611 178.806L101.651 175.662V175.575V175.487V175.4V175.313V175.225V175.138V175.051V174.963V174.876V174.789V174.701V174.614V174.527C101.999 174.527 102.348 174.439 102.435 174.265L104.525 171.12V171.033V170.946V170.858V170.771V170.684V170.596V170.509V170.422V170.334V170.247V170.16V170.072V169.985C104.612 170.072 104.786 170.072 105.047 170.072H107.833L106.179 172.78V172.867V172.954V173.042V173.129V173.216V173.304V173.391V173.478V173.566V173.653V173.741V173.828V173.915C105.831 173.915 105.569 174.003 105.482 174.177L103.567 177.321V177.409V177.496V177.583V177.671V177.758V177.845V177.933V178.02V178.108V178.195V178.282V178.37V178.457V178.544V178.632V178.719C103.48 178.894 103.741 178.981 104.263 178.981H114.626C115.061 178.981 115.496 178.894 115.583 178.719L117.151 175.575V175.487V175.4V175.313V175.225V175.138V175.051V174.963V174.876V174.789V174.701V174.614V174.527V174.439C117.412 174.439 117.586 174.352 117.673 174.265L119.241 171.12V171.033V170.946V170.858V170.771V170.684V170.596V170.509V170.422V170.334V170.247V170.16V170.072C119.328 170.072 119.415 170.072 119.502 170.072H122.55L121.331 172.78V172.867V172.954V173.042V173.129V173.216V173.304V173.391V173.478V173.566V173.653V173.741V173.828V173.915C121.069 174.003 120.982 174.003 120.895 174.09L119.502 177.234V177.321V177.409V177.496V177.583V177.671V177.758V177.845V177.933V178.02V178.108V178.195V178.282V178.37V178.457V178.544V178.632C119.415 178.806 119.763 178.894 120.199 178.894H130.561C130.996 178.894 131.432 178.806 131.432 178.632L132.389 175.487C132.389 175.487 132.389 175.487 132.389 175.4V175.313C132.389 175.313 132.389 175.313 132.389 175.225V175.138C132.389 175.138 132.389 175.138 132.389 175.051V174.963C132.389 174.963 132.389 174.963 132.389 174.876V174.789C132.389 174.789 132.389 174.789 132.389 174.701V174.614C132.389 174.614 132.389 174.614 132.389 174.527V174.439C132.389 174.439 132.389 174.439 132.389 174.352V174.265C132.389 174.265 132.389 174.265 132.389 174.177V174.09C132.389 174.09 132.389 174.09 132.389 174.003V173.915C132.389 173.915 132.389 173.915 132.389 173.828V173.741C132.389 173.741 132.389 173.741 132.389 173.653V173.566C132.389 173.566 132.389 173.566 132.389 173.478V173.391C132.389 173.391 132.389 173.391 132.389 173.304V173.216C132.389 173.216 132.389 173.216 132.389 173.129C132.476 173.129 132.564 173.042 132.564 172.954L133.521 169.81C133.521 169.81 133.521 169.81 133.521 169.723V169.636C133.521 169.636 133.521 169.636 133.521 169.548V169.461C133.521 169.461 133.521 169.461 133.521 169.373V169.286C133.521 169.286 133.521 169.286 133.521 169.199V169.111C133.521 169.111 133.521 169.111 133.521 169.024V168.937C133.521 168.937 133.521 168.937 133.521 168.849V168.762C133.521 168.762 133.521 168.762 133.521 168.675V168.587C133.521 168.587 133.521 168.587 133.521 168.5V168.413C133.521 168.413 133.521 168.413 133.521 168.325V168.238C133.521 168.238 133.521 168.238 133.521 168.151V168.063C133.521 168.063 133.521 168.063 133.521 167.976V167.889C133.521 167.889 133.521 167.889 133.521 167.801V167.714H136.917L136.221 170.422C136.221 170.422 136.221 170.422 136.221 170.509V170.596C136.221 170.596 136.221 170.596 136.221 170.684V170.771C136.221 170.771 136.221 170.771 136.221 170.858V170.946C136.221 170.946 136.221 170.946 136.221 171.033V171.12C136.221 171.12 136.221 171.12 136.221 171.208V171.295C136.221 171.295 136.221 171.295 136.221 171.382V171.47C136.221 171.47 136.221 171.47 136.221 171.557V171.644C136.221 171.644 136.221 171.644 136.221 171.732V171.819C136.221 171.819 136.221 171.819 136.221 171.906V171.994C136.221 171.994 136.221 171.994 136.221 172.081V172.168C136.221 172.168 136.221 172.168 136.221 172.256V172.343C136.221 172.343 136.221 172.343 136.221 172.43V172.518C136.221 172.518 136.221 172.518 136.221 172.605V172.692C136.221 172.692 136.221 172.692 136.221 172.78C136.134 172.78 136.134 172.867 136.047 172.867L135.176 176.011C135.176 176.011 135.176 176.011 135.176 176.099V176.186C135.176 176.186 135.176 176.186 135.176 176.273V176.361C135.176 176.361 135.176 176.361 135.176 176.448V176.535C135.176 176.535 135.176 176.535 135.176 176.623V176.71C135.176 176.71 135.176 176.71 135.176 176.797V176.885C135.176 176.885 135.176 176.885 135.176 176.972V177.059C135.176 177.059 135.176 177.059 135.176 177.147V177.234C135.176 177.234 135.176 177.234 135.176 177.321V177.409C135.176 177.409 135.176 177.409 135.176 177.496V177.583C135.176 177.583 135.176 177.583 135.176 177.671V177.758C135.176 177.758 135.176 177.758 135.176 177.845V177.933C135.176 177.933 135.176 177.933 135.176 178.02V178.108C135.176 178.108 135.176 178.108 135.176 178.195V178.282C135.176 178.282 135.176 178.282 135.176 178.37V178.457C135.176 178.457 135.176 178.457 135.176 178.544V178.632C135.176 178.632 135.176 178.632 135.176 178.719V178.806C135.176 178.981 135.437 179.068 135.96 179.068H194.65C195.085 179.068 195.434 178.981 195.347 178.806V178.719V178.632V178.544V178.457V178.37V178.282V178.195V178.108V178.02V177.933V177.845V177.758V177.671V177.583V177.496V177.409V177.321V177.234V177.147V177.059V176.972V176.885V176.797V176.71V176.623V176.535V176.448V176.361V176.273V176.186V176.099V176.011L194.127 172.867C194.04 172.692 193.692 172.605 193.257 172.605H192.56C192.56 172.605 192.56 172.605 192.56 172.518V172.43V172.343V172.256V172.168V172.081V171.994V171.906V171.819V171.732V171.644V171.557V171.47V171.382V171.295V171.208V171.12V171.033V170.946V170.858V170.771V170.684V170.596V170.509L191.716 170.684L191.515 169.111H194.911V169.199V169.286V169.373V169.461V169.548V169.636V169.723V169.81V169.898V169.985V170.072V170.16L196.304 173.304C196.391 173.478 196.74 173.566 197.175 173.566H197.349C197.349 173.566 197.349 173.566 197.349 173.653V173.741V173.828V173.915V174.003V174.09V174.177V174.265V174.352V174.439V174.527V174.614V174.701L198.743 177.845C198.83 178.02 199.178 178.108 199.7 178.108H210.063C210.498 178.108 210.846 178.02 210.759 177.845V177.758V177.671V177.583V177.496V177.409V177.321V177.234V177.147V177.059V176.972V176.885V176.797V176.71V176.623V176.535V176.448L208.931 173.304C208.844 173.129 208.408 173.042 207.973 173.042H207.624C207.624 173.042 207.624 173.042 207.624 172.954V172.867V172.78V172.692V172.605V172.518V172.43V172.343V172.256V172.168V172.081V171.994V171.906L206.057 169.199H209.366V169.286V169.373V169.461V169.548V169.636V169.723V169.81V169.898V169.985V170.072V170.16V170.247L211.282 173.391C211.369 173.566 211.804 173.653 212.24 173.653H212.675C212.675 173.653 212.675 173.653 212.675 173.741V173.828V173.915V174.003V174.09V174.177V174.265V174.352V174.439V174.527V174.614V174.701V174.789L214.591 177.933C214.678 178.108 215.113 178.195 215.549 178.195H225.911C226.346 178.195 226.607 178.108 226.52 177.933V177.845V177.758V177.671V177.583V177.496V177.409V177.321V177.234V177.147V177.059V176.972V176.885V176.797V176.71V176.623V176.535L224.169 173.391C224.082 173.216 223.647 173.129 223.211 173.129H222.602C222.602 173.129 222.602 173.129 222.602 173.042V172.954V172.867V172.78V172.692V172.605V172.518V172.43V172.343V172.256V172.168V172.081V171.994L220.599 169.286H223.821V169.373V169.461V169.548V169.636V169.723V169.81V169.898V169.985V170.072V170.16V170.247V170.334L226.259 173.478C226.346 173.653 226.782 173.741 227.217 173.741H227.914C227.914 173.741 227.914 173.74 227.914 173.828V173.915V174.003V174.09V174.177V174.265V174.352V174.439V174.527V174.614V174.701V174.789V174.876L230.352 178.02C230.439 178.195 230.874 178.282 231.397 178.282H241.759C242.194 178.282 242.456 178.195 242.368 178.02V177.933V177.845V177.758V177.671V177.583V177.496V177.409V177.321V177.234V177.147V177.059V176.972V176.885V176.797V176.71V176.623L239.495 173.478C239.408 173.304 238.885 173.216 238.45 173.216H237.579C237.579 173.216 237.579 173.216 237.579 173.129V173.042V172.954V172.867V172.78V172.692V172.605V172.518V172.43V172.343V172.256V172.168V172.081L235.141 169.373H238.276V169.461V169.548V169.636V169.723V169.81V169.898V169.985V170.072V170.16V170.247V170.334V170.422L241.324 173.566C241.498 173.741 241.933 173.828 242.368 173.828H243.326C243.326 173.828 243.326 173.828 243.326 173.915V174.003V174.09V174.177V174.265V174.352V174.439V174.527V174.614V174.701V174.789V174.876V174.963L246.374 178.108C246.548 178.282 246.984 178.37 247.419 178.37H257.694C258.13 178.37 258.391 178.282 258.217 178.108V178.02V177.933V177.845V177.758V177.671V177.583V177.496V177.409V177.321V177.234V177.147V177.059V176.972V176.885C258.304 176.972 258.304 176.885 258.217 176.885ZM104.525 168.587C104.437 168.5 104.263 168.5 104.002 168.5H101.39L103.393 165.793V165.705V165.618V165.531V165.443V165.356V165.268V165.181V165.094V165.006V164.919V164.832C103.393 164.832 103.393 164.832 103.393 164.744H106.353L104.525 167.365V167.452V167.539V167.627V167.714V167.801V167.889V167.976V168.063V168.151V168.238V168.325V168.413C104.525 168.5 104.525 168.5 104.525 168.587C104.525 168.5 104.525 168.5 104.525 168.587ZM180.456 170.509L181.153 173.304H177.583V173.216V173.129V173.042V172.954V172.867V172.78V172.692V172.605V172.518V172.43V172.343V172.256L176.973 169.548H180.456V169.636C180.456 169.636 180.456 169.636 180.456 169.723V169.81C180.456 169.81 180.456 169.81 180.456 169.898V169.985C180.456 169.985 180.456 169.985 180.456 170.072V170.16C180.456 170.16 180.456 170.16 180.456 170.247V170.334C180.456 170.334 180.456 170.334 180.456 170.422V170.509C180.456 170.509 180.456 170.509 180.456 170.596V170.684C180.456 170.684 180.456 170.684 180.456 170.771V170.858C180.456 170.858 180.456 170.858 180.456 170.946V171.033C180.456 171.033 180.456 171.033 180.456 171.12V171.208C180.456 171.208 180.456 171.208 180.456 171.295V171.382C180.456 170.422 180.369 170.422 180.456 170.509ZM147.976 170.509V170.422V170.334V170.247V170.16V170.072V169.985V169.898V169.81V169.723V169.636V169.548V169.461H151.459L151.198 172.168V172.256V172.343V172.43V172.518V172.605V172.692V172.78V172.867V172.954V173.042V173.129V173.216H147.541L147.976 170.509ZM116.977 165.618C116.977 165.531 116.977 165.531 116.977 165.531V165.443V165.356V165.268V165.181V165.094V165.006V164.919V164.832V164.744C116.977 164.744 116.977 164.744 116.977 164.657H120.024L118.718 167.277V167.365V167.452V167.539V167.627V167.714V167.801V167.889V167.976V168.063V168.151V168.238V168.325C118.631 168.325 118.544 168.325 118.457 168.325H115.496L116.977 165.618ZM130.561 165.618C130.561 165.531 130.561 165.531 130.561 165.531V165.443V165.356V165.268V165.181V165.094V165.006V164.919V164.832V164.744C130.561 164.744 130.561 164.744 130.561 164.657H133.696L132.825 167.277C132.825 167.277 132.825 167.277 132.825 167.365V167.452C132.825 167.452 132.825 167.452 132.825 167.539V167.627C132.825 167.627 132.825 167.627 132.825 167.714V167.801C132.825 167.801 132.825 167.801 132.825 167.889V167.976C132.825 167.976 132.825 167.976 132.825 168.063V168.151C132.825 168.151 132.825 168.151 132.825 168.238V168.325C132.825 168.325 132.825 168.325 132.825 168.413V168.5C132.825 168.5 132.825 168.5 132.825 168.587V168.675C132.825 168.675 132.825 168.675 132.825 168.762V168.849V168.937V169.024V169.111V169.199C132.825 169.199 132.825 169.199 132.825 169.286V169.373H129.516L130.561 165.618ZM147.018 167.015C147.018 167.103 147.018 167.103 147.018 167.103V167.19V167.277V167.365V167.452V167.539V167.627V167.714V167.801V167.889V167.976V168.063H143.622L144.145 165.356V165.268V165.181V165.094V165.006V164.919V164.832V164.744V164.657V164.57V164.482V164.395H147.367L147.018 167.015ZM171.923 167.015L171.487 164.308H174.796V164.395V164.482V164.57V164.657V164.744V164.832V164.919V165.006V165.094V165.181V165.268L175.319 167.976H171.923V167.889V167.801V167.714V167.627V167.539V167.452V167.365V167.277V167.19V167.103V167.015C171.923 167.19 171.923 167.19 171.923 167.015ZM186.029 167.103L185.158 164.395H188.206H188.293V164.482V164.57V164.657V164.744V164.832V164.919V165.006V165.094V165.181V165.268V165.356V165.443L189.338 168.151H186.029V168.063C186.029 168.063 186.029 168.063 186.029 167.976V167.889C186.029 167.889 186.029 167.889 186.029 167.801V167.714C186.029 167.714 186.029 167.714 186.029 167.627V167.539C186.029 167.539 186.029 167.539 186.029 167.452V167.365C186.029 167.365 186.029 167.365 186.029 167.277V167.19C186.029 167.19 186.029 167.19 186.029 167.103V167.015C186.029 167.015 186.029 167.015 186.029 166.928V166.841C186.029 166.841 186.029 166.841 186.029 166.753V166.666C186.029 166.666 186.029 166.666 186.029 166.579V166.491C186.029 166.491 186.029 166.491 186.029 166.404V166.317C186.029 167.19 186.116 167.19 186.029 167.103ZM200.223 167.103V167.015L198.917 164.395H201.616C201.79 164.395 201.877 164.395 201.964 164.395V164.482V164.57V164.657V164.744V164.832V164.919V165.006V165.094V165.181V165.268V165.356V165.443L203.445 168.151H200.223V168.063V167.976V167.889V167.801V167.714V167.627V167.539V167.452V167.365V167.277C200.223 167.19 200.223 167.19 200.223 167.103ZM161.125 164.395V164.57V164.657V164.744V164.832V164.919V165.006V165.094V165.181V165.268V165.356V165.443L161.212 168.151H157.729L157.816 165.443V165.356V165.268V165.181V165.094V165.006V164.919V164.832V164.744V164.657V164.57V164.482V164.395H161.125ZM162.518 173.304V173.129V173.042V172.954V172.867V172.78V172.692V172.605V172.518V172.43V172.343V172.256V172.168L162.431 169.461H166.001V169.548V169.636V169.723V169.81V169.898V169.985V170.072V170.16V170.247V170.334V170.422V170.509L166.263 173.304H162.518ZM241.759 164.395C241.759 164.482 241.759 164.482 241.759 164.57V164.657V164.744V164.832V164.919V165.006V165.094V165.181V165.268V165.356C241.759 165.356 241.672 165.443 241.759 165.531L244.633 168.238H242.717V168.151V168.063V167.976V167.889V167.801V167.714V167.627V167.539V167.452V167.365V167.277C242.717 167.277 242.717 167.19 242.717 167.103L240.017 164.482H241.759V164.395Z" fill="#385FA6"/>
<path d="M95.4685 162.299C95.3814 162.474 94.946 162.561 94.5977 162.561H85.8899C85.5416 162.561 85.2804 162.474 85.4545 162.299L88.5023 159.155C88.6764 158.98 89.0247 158.893 89.373 158.893H97.6454C97.9937 158.893 98.1679 158.98 98.0808 159.155L95.4685 162.299Z" fill="#7287C3"/>
<path d="M108.791 162.299C108.704 162.474 108.356 162.561 107.921 162.561H99.2128C98.8645 162.561 98.6033 162.474 98.6904 162.299L101.216 159.155C101.303 158.98 101.738 158.893 102.086 158.893H110.359C110.707 158.893 110.968 158.98 110.881 159.155L108.791 162.299Z" fill="#7287C3"/>
<path d="M122.201 162.299C122.114 162.474 121.766 162.561 121.418 162.561H112.71C112.362 162.561 112.1 162.474 112.187 162.299L114.19 159.155C114.277 158.98 114.626 158.893 114.974 158.893H123.246C123.595 158.893 123.856 158.98 123.769 159.155L122.201 162.299Z" fill="#7287C3"/>
<path d="M135.524 162.299C135.524 162.474 135.176 162.561 134.741 162.561H126.033C125.684 162.561 125.423 162.474 125.423 162.299L126.816 159.155C126.904 158.98 127.252 158.893 127.6 158.893H135.873C136.221 158.893 136.482 158.98 136.482 159.155L135.524 162.299Z" fill="#7287C3"/>
<path d="M148.847 162.299C148.847 162.474 148.499 162.561 148.151 162.561H139.443C139.094 162.561 138.746 162.474 138.833 162.299L139.704 159.155C139.704 158.98 140.052 158.893 140.401 158.893H148.673C149.021 158.893 149.283 158.98 149.283 159.155L148.847 162.299Z" fill="#7287C3"/>
<path d="M162.17 162.299C162.17 162.474 161.909 162.561 161.473 162.561H152.766C152.417 162.561 152.069 162.474 152.069 162.299L152.417 159.155C152.417 158.98 152.766 158.893 153.114 158.893H161.386C161.735 158.893 162.083 158.98 162.083 159.155L162.17 162.299Z" fill="#7287C3"/>
<path d="M175.493 162.299C175.493 162.474 175.232 162.561 174.883 162.561H166.175C165.827 162.561 165.479 162.474 165.479 162.299L165.218 159.155C165.218 158.98 165.479 158.893 165.827 158.893H174.1C174.448 158.893 174.796 158.98 174.796 159.155L175.493 162.299Z" fill="#7287C3"/>
<path d="M188.816 162.299C188.903 162.474 188.642 162.561 188.206 162.561H179.498C179.15 162.561 178.802 162.474 178.715 162.299L177.931 159.155C177.931 158.98 178.192 158.893 178.541 158.893H186.813C187.161 158.893 187.51 158.98 187.597 159.155L188.816 162.299Z" fill="#7287C3"/>
<path d="M202.226 162.299C202.313 162.474 202.052 162.561 201.703 162.561H192.995C192.647 162.561 192.299 162.474 192.212 162.299L190.819 159.155C190.731 158.98 190.993 158.893 191.341 158.893H199.613C199.962 158.893 200.31 158.98 200.397 159.155L202.226 162.299Z" fill="#7287C3"/>
<path d="M215.549 162.299C215.636 162.474 215.462 162.561 215.026 162.561H206.318C205.97 162.561 205.535 162.474 205.448 162.299L203.532 159.155C203.445 158.98 203.706 158.893 204.054 158.893H212.327C212.675 158.893 213.023 158.98 213.197 159.155L215.549 162.299Z" fill="#7287C3"/>
<path d="M228.871 162.299C228.959 162.474 228.784 162.561 228.436 162.561H219.728C219.38 162.561 218.945 162.474 218.858 162.299L216.419 159.155C216.332 158.98 216.506 158.893 216.855 158.893H225.127C225.475 158.893 225.911 158.98 225.998 159.155L228.871 162.299Z" fill="#7287C3"/>
<path d="M242.194 162.299C242.369 162.474 242.194 162.561 241.759 162.561H233.051C232.703 162.561 232.268 162.474 232.093 162.299L229.046 159.155C228.959 158.98 229.133 158.893 229.481 158.893H237.753C238.102 158.893 238.537 158.98 238.711 159.155L242.194 162.299Z" fill="#7287C3"/>
<path d="M87.4574 171.906C87.3703 172.081 86.9349 172.168 86.4995 172.168H76.6597C76.2243 172.168 75.9631 172.081 76.1373 171.906L79.185 168.762C79.3591 168.587 79.7945 168.5 80.1428 168.5H89.5472C89.9826 168.5 90.1568 168.587 90.0697 168.762L87.4574 171.906Z" fill="#7287C3"/>
<path d="M102.435 171.906C102.348 172.081 101.912 172.168 101.477 172.168H91.7241C91.2887 172.168 91.0275 172.081 91.1146 171.906L93.6398 168.762C93.7269 168.587 94.1623 168.5 94.5977 168.5H104.002C104.437 168.5 104.699 168.587 104.612 168.762L102.435 171.906Z" fill="#7287C3"/>
<path d="M117.499 171.906C117.412 172.081 117.064 172.168 116.628 172.168H106.789C106.353 172.168 106.092 172.081 106.179 171.906L108.182 168.762C108.269 168.587 108.704 168.5 109.053 168.5H118.37C118.805 168.5 119.067 168.587 118.979 168.762L117.499 171.906Z" fill="#7287C3"/>
<path d="M132.476 171.906C132.476 172.081 132.041 172.168 131.606 172.168H121.853C121.418 172.168 121.156 172.081 121.156 171.906L122.55 168.762C122.637 168.587 122.985 168.5 123.42 168.5H132.825C133.26 168.5 133.521 168.587 133.521 168.762L132.476 171.906Z" fill="#7287C3"/>
<path d="M147.541 171.906C147.541 172.081 147.193 172.168 146.757 172.168H136.917C136.482 172.168 136.134 172.081 136.221 171.906L137.092 168.762C137.092 168.587 137.527 168.5 137.875 168.5H147.28C147.715 168.5 147.976 168.587 147.976 168.762L147.541 171.906Z" fill="#7287C3"/>
<path d="M162.518 171.906C162.518 172.081 162.17 172.168 161.735 172.168H151.895C151.459 172.168 151.111 172.081 151.111 171.906L151.459 168.762C151.459 168.587 151.808 168.5 152.243 168.5H161.648C162.083 168.5 162.431 168.587 162.431 168.762L162.518 171.906Z" fill="#7287C3"/>
<path d="M177.496 171.906C177.496 172.081 177.234 172.168 176.799 172.168H166.959C166.524 172.168 166.176 172.081 166.176 171.906L165.914 168.762C165.914 168.587 166.263 168.5 166.611 168.5H176.015C176.451 168.5 176.799 168.587 176.799 168.762L177.496 171.906Z" fill="#7287C3"/>
<path d="M192.56 171.906C192.647 172.081 192.299 172.168 191.863 172.168H182.024C181.588 172.168 181.24 172.081 181.153 171.906L180.369 168.762C180.369 168.587 180.63 168.5 181.066 168.5H190.47C190.906 168.5 191.254 168.587 191.341 168.762L192.56 171.906Z" fill="#7287C3"/>
<path d="M207.537 171.906C207.625 172.081 207.363 172.168 206.928 172.168H197.088C196.653 172.168 196.304 172.081 196.217 171.906L194.824 168.762C194.737 168.587 195.085 168.5 195.434 168.5H204.838C205.273 168.5 205.622 168.587 205.709 168.762L207.537 171.906Z" fill="#7287C3"/>
<path d="M222.602 171.906C222.689 172.081 222.428 172.168 221.992 172.168H212.153C211.717 172.168 211.282 172.081 211.195 171.906L209.279 168.762C209.192 168.587 209.453 168.5 209.889 168.5H219.293C219.728 168.5 220.077 168.587 220.251 168.762L222.602 171.906Z" fill="#7287C3"/>
<path d="M237.579 171.906C237.666 172.081 237.492 172.168 237.057 172.168H227.217C226.782 172.168 226.346 172.081 226.259 171.906L223.821 168.762C223.734 168.587 223.995 168.5 224.343 168.5H233.748C234.183 168.5 234.619 168.587 234.706 168.762L237.579 171.906Z" fill="#7287C3"/>
<path d="M252.644 171.906C252.818 172.081 252.557 172.168 252.121 172.168H242.281C241.846 172.168 241.411 172.081 241.237 171.906L238.189 168.762C238.015 168.587 238.276 168.5 238.711 168.5H248.116C248.551 168.5 248.986 168.587 249.161 168.762L252.644 171.906Z" fill="#7287C3"/>
<path d="M86.8478 167.015C86.7607 167.19 86.3253 167.277 85.89 167.277H76.6597C76.2243 167.277 76.0502 167.19 76.2243 167.015L79.4462 163.871C79.6204 163.696 80.0558 163.609 80.4041 163.609H89.286C89.6343 163.609 89.8955 163.696 89.7214 163.871L86.8478 167.015Z" fill="#7287C3"/>
<path d="M101.041 167.015C100.954 167.19 100.519 167.277 100.171 167.277H90.8534C90.418 167.277 90.2438 167.19 90.3309 167.015L93.0303 163.871C93.1174 163.696 93.5528 163.609 93.9011 163.609H102.783C103.131 163.609 103.393 163.696 103.305 163.871L101.041 167.015Z" fill="#7287C3"/>
<path d="M115.235 167.015C115.148 167.19 114.8 167.277 114.364 167.277H105.047C104.612 167.277 104.35 167.19 104.525 167.015L106.701 163.871C106.789 163.696 107.224 163.609 107.572 163.609H116.454C116.803 163.609 117.064 163.696 116.977 163.871L115.235 167.015Z" fill="#7287C3"/>
<path d="M129.429 167.015C129.342 167.19 128.993 167.277 128.645 167.277H119.328C118.892 167.277 118.631 167.19 118.718 167.015L120.286 163.871C120.373 163.696 120.721 163.609 121.069 163.609H129.951C130.3 163.609 130.648 163.696 130.561 163.871L129.429 167.015Z" fill="#7287C3"/>
<path d="M143.535 167.015C143.535 167.19 143.187 167.277 142.752 167.277H133.521C133.086 167.277 132.825 167.19 132.912 167.015L133.957 163.871C134.044 163.696 134.392 163.609 134.741 163.609H143.622C143.971 163.609 144.319 163.696 144.232 163.871L143.535 167.015Z" fill="#7287C3"/>
<path d="M157.729 167.015C157.729 167.19 157.381 167.277 157.032 167.277H147.802C147.367 167.277 147.106 167.19 147.106 167.015L147.628 163.871C147.628 163.696 147.976 163.609 148.325 163.609H157.207C157.555 163.609 157.903 163.696 157.903 163.871L157.729 167.015Z" fill="#7287C3"/>
<path d="M171.923 167.015C171.923 167.19 171.661 167.277 171.226 167.277H161.909C161.473 167.277 161.212 167.19 161.212 167.015L161.125 163.871C161.125 163.696 161.473 163.609 161.822 163.609H170.704C171.052 163.609 171.4 163.696 171.4 163.871L171.923 167.015Z" fill="#7287C3"/>
<path d="M186.029 167.015C186.116 167.19 185.768 167.277 185.42 167.277H176.189C175.754 167.277 175.406 167.19 175.406 167.015L174.796 163.871C174.796 163.696 175.057 163.609 175.406 163.609H184.288C184.636 163.609 184.984 163.696 185.071 163.871L186.029 167.015Z" fill="#7287C3"/>
<path d="M200.223 167.015C200.31 167.19 200.049 167.277 199.613 167.277H190.383C189.948 167.277 189.599 167.19 189.599 167.015L188.38 163.871C188.293 163.696 188.642 163.609 188.99 163.609H197.872C198.22 163.609 198.656 163.696 198.656 163.871L200.223 167.015Z" fill="#7287C3"/>
<path d="M214.417 167.015C214.504 167.19 214.242 167.277 213.894 167.277H204.577C204.141 167.277 203.793 167.19 203.706 167.015L201.964 163.871C201.877 163.696 202.139 163.609 202.487 163.609H211.369C211.717 163.609 212.153 163.696 212.24 163.871L214.417 167.015Z" fill="#7287C3"/>
<path d="M228.61 167.015C228.697 167.19 228.523 167.277 228.088 167.277H218.858C218.422 167.277 218.074 167.19 217.987 167.015L215.723 163.871C215.636 163.696 215.897 163.609 216.245 163.609H225.127C225.475 163.609 225.911 163.696 225.998 163.871L228.61 167.015Z" fill="#7287C3"/>
<path d="M242.717 167.015C242.891 167.19 242.63 167.277 242.281 167.277H233.051C232.616 167.277 232.18 167.19 232.093 167.015L229.22 163.871C229.133 163.696 229.307 163.609 229.655 163.609H238.537C238.885 163.609 239.321 163.696 239.495 163.871L242.717 167.015Z" fill="#7287C3"/>
<path d="M255.866 167.015C256.04 167.19 255.866 167.277 255.43 167.277H246.2C245.765 167.277 245.329 167.19 245.242 167.015L241.933 163.871C241.759 163.696 242.02 163.609 242.369 163.609H251.25C251.599 163.609 252.121 163.696 252.208 163.871L255.866 167.015Z" fill="#7287C3"/>
<path d="M83.713 176.71C83.6259 176.885 83.1035 176.972 82.6681 176.972H72.3058C71.8704 176.972 71.6092 176.885 71.6963 176.71L74.744 173.566C74.9182 173.391 75.3535 173.304 75.7889 173.304H85.7158C86.1512 173.304 86.4124 173.391 86.3253 173.566L83.713 176.71Z" fill="#7287C3"/>
<path d="M99.5611 176.71C99.4741 176.885 99.0387 176.972 98.6033 176.972H88.241C87.8056 176.972 87.5444 176.885 87.6315 176.71L90.1567 173.566C90.2438 173.391 90.6792 173.304 91.1146 173.304H101.041C101.477 173.304 101.738 173.391 101.651 173.566L99.5611 176.71Z" fill="#7287C3"/>
<path d="M115.409 176.71C115.322 176.885 114.887 176.972 114.451 176.972H104.176C103.741 176.972 103.393 176.885 103.48 176.71L105.395 173.566C105.482 173.391 105.918 173.304 106.353 173.304H116.28C116.715 173.304 116.977 173.391 116.977 173.566L115.409 176.71Z" fill="#7287C3"/>
<path d="M131.344 176.71C131.257 176.885 130.909 176.972 130.474 176.972H120.024C119.589 176.972 119.241 176.885 119.328 176.71L120.721 173.566C120.808 173.391 121.156 173.304 121.592 173.304H131.519C131.954 173.304 132.302 173.391 132.215 173.566L131.344 176.71Z" fill="#7287C3"/>
<path d="M195.347 176.71C195.434 176.885 195.085 176.972 194.65 176.972H135.96C135.524 176.972 135.176 176.885 135.176 176.71L136.047 173.566C136.047 173.391 136.482 173.304 136.917 173.304H193.257C193.692 173.304 194.127 173.391 194.127 173.566L195.347 176.71Z" fill="#7287C3"/>
<path d="M210.672 176.71C210.759 176.885 210.411 176.972 209.976 176.972H199.613C199.178 176.972 198.743 176.885 198.656 176.71L197.262 173.566C197.175 173.391 197.523 173.304 197.959 173.304H207.886C208.321 173.304 208.757 173.391 208.844 173.566L210.672 176.71Z" fill="#7287C3"/>
<path d="M226.52 176.71C226.607 176.885 226.346 176.972 225.911 176.972H215.549C215.113 176.972 214.678 176.885 214.591 176.71L212.675 173.566C212.588 173.391 212.849 173.304 213.285 173.304H223.211C223.647 173.304 224.082 173.391 224.169 173.566L226.52 176.71Z" fill="#7287C3"/>
<path d="M242.369 176.71C242.456 176.885 242.194 176.972 241.759 176.972H231.397C230.961 176.972 230.526 176.885 230.352 176.71L227.914 173.566C227.827 173.391 228.088 173.304 228.523 173.304H238.45C238.885 173.304 239.321 173.391 239.495 173.566L242.369 176.71Z" fill="#7287C3"/>
<path d="M258.217 176.71C258.391 176.885 258.13 176.972 257.694 176.972H247.332C246.897 176.972 246.374 176.885 246.287 176.71L243.239 173.566C243.065 173.391 243.326 173.304 243.762 173.304H253.689C254.124 173.304 254.559 173.391 254.734 173.566L258.217 176.71Z" fill="#7287C3"/>
<rect x="106.5" y="65.5" width="120" height="44" rx="0.5" stroke="white"/>
</g>
<defs>
<clipPath id="clip0">
<rect x="40" y="25" width="250" height="174.419" fill="white"/>
</clipPath>
</defs>
</svg>
