<svg width="80" height="80" viewBox="0 0 80 80" fill="none" xmlns="http://www.w3.org/2000/svg">
<path d="M56.25 30C52.1137 30 48.75 33.3637 48.75 37.5C48.75 41.6362 52.1137 45 56.25 45C60.3862 45 63.75 41.6362 63.75 37.5C63.75 33.3637 60.3862 30 56.25 30ZM56.25 42.5C53.4925 42.5 51.25 40.2575 51.25 37.5C51.25 34.7425 53.4925 32.5 56.25 32.5C59.0075 32.5 61.25 34.7425 61.25 37.5C61.25 40.2575 59.0075 42.5 56.25 42.5Z" fill="white"/>
<path d="M13.75 6.25H6.25V13.75H13.75V6.25ZM11.25 11.25H8.75V8.75H11.25V11.25Z" fill="white"/>
<path d="M23.75 6.25H16.25V13.75H23.75V6.25ZM21.25 11.25H18.75V8.75H21.25V11.25Z" fill="white"/>
<path d="M33.75 6.25H26.25V13.75H33.75V6.25ZM31.25 11.25H28.75V8.75H31.25V11.25Z" fill="white"/>
<path d="M41.25 21.25H6.25V41.25H41.25V21.25ZM38.75 38.75H8.75V23.75H38.75V38.75Z" fill="white"/>
<path d="M78.75 60.3737C78.75 56.1437 76.8138 52.2663 73.75 49.6513V5C73.75 2.9325 72.0675 1.25 70 1.25H5C2.9325 1.25 1.25 2.9325 1.25 5V52.5C1.25 54.5675 2.9325 56.25 5 56.25H34.3887C33.98 57.5625 33.75 58.9463 33.75 60.3737V62.5H39.5275C35.9487 66.4863 33.75 71.735 33.75 77.5V78.75H78.75V77.5C78.75 71.735 76.5512 66.4863 72.9725 62.5H78.75V60.3737ZM5 3.75H70C70.6888 3.75 71.25 4.31125 71.25 5V11.25H39.375L35.625 16.25H3.75V5C3.75 4.31125 4.31125 3.75 5 3.75ZM5 53.75C4.31125 53.75 3.75 53.19 3.75 52.5V18.75H36.875L40.625 13.75H71.25V47.9412C70.2475 47.4038 69.1775 46.9762 68.0462 46.6937C68.5025 44.4925 68.75 42.25 68.75 40.0063C68.75 33.2025 66.6875 26.66 62.7863 21.0863L61.2087 18.8325C60.0775 17.215 58.2238 16.25 56.25 16.25C54.2762 16.25 52.4225 17.215 51.2925 18.8312L49.715 21.085C45.8125 26.66 43.75 33.2025 43.75 40.0063C43.75 42.25 43.9975 44.4938 44.4538 46.6925C40.5363 47.6738 37.2987 50.3088 35.4437 53.75H5ZM61.97 55.765C60.14 55.2825 58.23 55 56.25 55C54.27 55 52.36 55.2825 50.53 55.765L49.47 53.6438C49.2825 53.2675 49.1113 52.8838 48.94 52.5H63.5612C63.3887 52.8838 63.2188 53.2675 63.0312 53.6438L61.97 55.765ZM64.5525 50H47.9475C46.8363 46.7912 46.25 43.3988 46.25 40.0063C46.25 35.6463 47.1862 31.41 48.9512 27.5H63.5488C65.3125 31.41 66.25 35.6463 66.25 40.0063C66.25 43.3988 65.6637 46.7912 64.5525 50ZM50.215 25C50.6938 24.155 51.2 23.3225 51.7625 22.5187L53.34 20.265C54.0037 19.3162 55.0913 18.75 56.25 18.75C57.4087 18.75 58.4963 19.3162 59.16 20.265L60.7375 22.52C61.3 23.3238 61.8062 24.1562 62.285 25H50.215ZM45.0475 49.1237C45.605 51.065 46.3312 52.9575 47.2337 54.7625L48.1237 56.5425C45.9463 57.39 43.9288 58.555 42.14 60H36.2575C36.425 54.8363 40.0812 50.3713 45.0475 49.1237ZM41.965 72.9362L44.2238 73.8712L45.18 71.5612L42.9313 70.63C43.4525 69.6237 44.08 68.6825 44.8075 67.8237L46.5275 69.5437L48.295 67.7763L46.575 66.0563C47.4325 65.33 48.3738 64.7013 49.3813 64.18L50.3125 66.4287L52.6225 65.4713L51.6875 63.2137C52.7462 62.875 53.8563 62.6575 55.0013 62.5625V65H57.5013V62.5637C58.6462 62.6587 59.7563 62.8762 60.815 63.215L59.88 65.4725L62.19 66.43L63.1213 64.1813C64.1275 64.7025 65.0688 65.33 65.9275 66.0575L64.2075 67.7775L65.975 69.545L67.695 67.825C68.4212 68.6825 69.05 69.6237 69.5713 70.6312L67.3225 71.5625L68.2787 73.8725L70.5375 72.9375C70.8763 73.9962 71.0938 75.1062 71.19 76.2513H62.3775C61.875 73.805 59.945 71.875 57.5 71.3763V67.5H55V71.3763C52.555 71.875 50.625 73.805 50.1263 76.25H41.3137C41.4087 75.105 41.6262 73.9938 41.965 72.9362ZM56.25 73.75C57.8775 73.75 59.2525 74.7988 59.77 76.25H52.7313C53.2475 74.7988 54.6225 73.75 56.25 73.75ZM73.6862 76.25C73.0413 67.1838 65.4775 60 56.25 60C47.0225 60 39.4588 67.1838 38.8138 76.25H36.2887C36.9362 65.8025 45.6425 57.5 56.25 57.5C66.8575 57.5 75.5638 65.8025 76.2113 76.25H73.6862ZM70.3613 60C68.5725 58.555 66.555 57.39 64.3775 56.5425L65.2675 54.7625C66.17 52.9575 66.8962 51.065 67.4538 49.1237C72.4188 50.3713 76.0762 54.8375 76.245 60H70.3613Z" fill="white"/>
<path d="M6.25 43.75H8.75V46.25H6.25V43.75Z" fill="white"/>
<path d="M11.25 43.75H33.75V46.25H11.25V43.75Z" fill="white"/>
<path d="M6.25 48.75H33.75V51.25H6.25V48.75Z" fill="white"/>
</svg>
