<svg width="47" height="42" viewBox="0 0 47 42" fill="none" xmlns="http://www.w3.org/2000/svg">
<rect width="47" height="42" rx="5" fill="#6AC75A"/>
<path d="M17.7812 24.5158H30.4846C30.7991 24.5158 31.0751 24.3078 31.1602 24.0057L33.9729 14.1617C34.0333 13.9495 33.9919 13.7216 33.8588 13.5452C33.7255 13.3694 33.5182 13.2656 33.2971 13.2656H16.158L15.6554 11.0039C15.584 10.6818 15.2983 10.4531 14.9688 10.4531H10.7031C10.3146 10.4531 10 10.7677 10 11.1563C10 11.545 10.3146 11.8594 10.7031 11.8594H14.4044L16.9435 23.2852C16.1965 23.61 15.6719 24.3536 15.6719 25.2189C15.6719 26.382 16.6182 27.3283 17.7812 27.3283H30.4846C30.8733 27.3283 31.1877 27.0139 31.1877 26.6252C31.1877 26.2366 30.8733 25.9221 30.4846 25.9221H17.7812C17.394 25.9221 17.0781 25.6069 17.0781 25.2189C17.0781 24.8309 17.394 24.5158 17.7812 24.5158Z" fill="white"/>
<path d="M17.0781 29.4377C17.0781 30.601 18.0244 31.5471 19.1877 31.5471C20.3508 31.5471 21.2971 30.601 21.2971 29.4377C21.2971 28.2746 20.3508 27.3283 19.1877 27.3283C18.0244 27.3283 17.0781 28.2746 17.0781 29.4377Z" fill="white"/>
<path d="M26.9689 29.4377C26.9689 30.601 27.9152 31.5471 29.0782 31.5471C30.2415 31.5471 31.1876 30.601 31.1876 29.4377C31.1876 28.2746 30.2415 27.3283 29.0782 27.3283C27.9152 27.3283 26.9689 28.2746 26.9689 29.4377Z" fill="white"/>
</svg>
