<svg width="70" height="70" viewBox="0 0 70 70" fill="none" xmlns="http://www.w3.org/2000/svg">
<rect width="70" height="70" rx="35" fill="#FFE6DF"/>
<path d="M45.1831 31.6919C45.2411 31.75 45.31 31.796 45.3858 31.8274C45.4617 31.8588 45.5429 31.875 45.625 31.875C45.7071 31.875 45.7884 31.8588 45.8642 31.8274C45.94 31.796 46.0089 31.75 46.0669 31.6919L47.9419 29.8169C48 29.7589 48.046 29.69 48.0774 29.6142C48.1088 29.5383 48.125 29.4571 48.125 29.375C48.125 29.2929 48.1088 29.2116 48.0774 29.1358C48.046 29.06 48 28.9911 47.9419 28.933L44.8169 25.808C44.6997 25.6908 44.5408 25.625 44.375 25.625C44.2093 25.625 44.0503 25.6908 43.9331 25.808L42.0581 27.683C42 27.7411 41.954 27.81 41.9226 27.8858C41.8912 27.9616 41.875 28.0429 41.875 28.125C41.875 28.2071 41.8912 28.2883 41.9226 28.3642C41.954 28.44 42 28.5089 42.0581 28.5669L45.1831 31.6919ZM44.375 27.1339L46.6161 29.375L45.625 30.3661L43.3839 28.125L44.375 27.1339Z" fill="#FF6D43"/>
<path d="M39.1915 27.683L38.3076 28.5669L43.3076 33.5669L44.1915 32.683L39.1915 27.683Z" fill="#FF6D43"/>
<path d="M49.1919 35.8081C49.0747 35.6909 48.9158 35.625 48.75 35.625C48.5842 35.625 48.4253 35.6909 48.3081 35.8081L45.1831 38.9331L42.0581 42.0581C41.9708 42.1453 41.9113 42.2564 41.8871 42.3774L41.2992 45.3169L37.3484 49.2678C37.1168 49.5006 36.8413 49.6853 36.5378 49.8109C36.2344 49.9366 35.909 50.0009 35.5806 50H21.1428C20.9168 50 20.6958 49.933 20.5079 49.8074C20.32 49.6818 20.1735 49.5034 20.087 49.2945C20.0005 49.0857 19.9779 48.856 20.022 48.6343C20.0661 48.4126 20.1749 48.209 20.3347 48.0492L23.4331 44.9508L26.3726 44.3629C26.4936 44.3387 26.6047 44.2792 26.6919 44.1919L28.125 42.7589L31.3951 46.029C31.6634 46.2972 31.9818 46.51 32.3322 46.6551C32.6826 46.8003 33.0582 46.875 33.4375 46.875C33.8168 46.875 34.1924 46.8003 34.5428 46.6551C34.8932 46.51 35.2116 46.2972 35.4798 46.029L50.404 31.1049C50.6722 30.8366 50.885 30.5182 51.0301 30.1678C51.1753 29.8174 51.25 29.4418 51.25 29.0625C51.25 28.6832 51.1753 28.3076 51.0301 27.9572C50.885 27.6068 50.6722 27.2884 50.404 27.0201L40.4798 17.096C40.2116 16.8278 39.8932 16.615 39.5428 16.4699C39.1924 16.3247 38.8168 16.25 38.4375 16.25C38.0582 16.25 37.6826 16.3247 37.3322 16.4699C36.9818 16.615 36.6633 16.8278 36.3951 17.096L21.471 32.0201C21.2028 32.2884 20.99 32.6068 20.8449 32.9572C20.6997 33.3076 20.625 33.6832 20.625 34.0625C20.625 34.4418 20.6997 34.8174 20.8449 35.1678C20.99 35.5182 21.2028 35.8366 21.471 36.1049L22.8661 37.5L21.4331 38.9331C21.3458 39.0203 21.2863 39.1314 21.2621 39.2524L20.6742 42.1919L17.7275 45.1387C17.022 45.8441 16.5416 46.743 16.3469 47.7215C16.1523 48.7 16.2522 49.7143 16.634 50.636C17.0158 51.5578 17.6623 52.3456 18.4919 52.8999C19.3214 53.4542 20.2967 53.75 21.2944 53.75H35.7951C36.6162 53.7522 37.4295 53.5916 38.1881 53.2774C38.9467 52.9632 39.6355 52.5016 40.2145 51.9194L44.0581 48.0758L46.9976 47.4879C47.1186 47.4637 47.2297 47.4042 47.3169 47.3169L50.4419 44.1919L53.5669 41.0669C53.625 41.0089 53.671 40.94 53.7024 40.8642C53.7338 40.7883 53.75 40.7071 53.75 40.625C53.75 40.5429 53.7338 40.4617 53.7024 40.3858C53.671 40.31 53.625 40.2411 53.5669 40.1831L49.1919 35.8081ZM48.75 37.1339L50.0536 38.4375L47.8125 40.6786L46.5089 39.375L48.75 37.1339ZM21.875 34.0625C21.8744 33.8473 21.9165 33.634 21.9989 33.4352C22.0813 33.2363 22.2022 33.0558 22.3549 32.904L37.279 17.9799C37.5863 17.6726 38.003 17.5 38.4375 17.5C38.872 17.5 39.2887 17.6726 39.5959 17.9799L49.5201 27.904C49.8274 28.2113 50 28.628 50 29.0625C50 29.497 49.8274 29.9137 49.5201 30.221L34.596 45.1451C34.2887 45.4524 33.872 45.625 33.4375 45.625C33.003 45.625 32.5863 45.4524 32.279 45.1451L22.3549 35.221C22.2022 35.0692 22.0813 34.8887 21.9989 34.6898C21.9165 34.491 21.8744 34.2777 21.875 34.0625ZM22.4508 39.6831L23.75 38.3839L27.2411 41.875L25.9419 43.1742L23.3304 43.6966L21.9284 42.2946L22.4508 39.6831ZM39.3306 51.0355C38.8674 51.5013 38.3164 51.8705 37.7095 52.1219C37.1026 52.3733 36.4519 52.5018 35.7951 52.5H21.2944C20.5439 52.5 19.8103 52.2775 19.1864 51.8605C18.5624 51.4436 18.076 50.851 17.7888 50.1576C17.5016 49.4643 17.4265 48.7014 17.5729 47.9653C17.7193 47.2293 18.0807 46.5532 18.6113 46.0225L21.25 43.3839L22.2411 44.375L19.4508 47.1653C19.1162 47.4999 18.8883 47.9263 18.796 48.3904C18.7037 48.8546 18.751 49.3357 18.9321 49.7729C19.1132 50.2101 19.4199 50.5838 19.8134 50.8468C20.2069 51.1097 20.6695 51.25 21.1428 51.25H35.5806C36.0733 51.2514 36.5613 51.155 37.0164 50.9664C37.4716 50.7779 37.8848 50.501 38.2322 50.1516L41.875 46.5089L42.8661 47.5L39.3306 51.0355ZM46.5668 46.2992L43.9554 46.8216L42.5534 45.4196L43.0758 42.8082L45.625 40.2589L49.1161 43.75L46.5668 46.2992ZM50 42.8661L48.6964 41.5625L50.9375 39.3214L52.2411 40.625L50 42.8661Z" fill="#FF6D43"/>
</svg>
