<svg width="70" height="70" viewBox="0 0 70 70" fill="none" xmlns="http://www.w3.org/2000/svg">
<rect width="70" height="70" rx="35" fill="#FFE6DF"/>
<path d="M35.625 33.125H36.875V36.875H35.625V33.125Z" fill="#FF6D43"/>
<path d="M38.125 33.125H39.375V36.875H38.125V33.125Z" fill="#FF6D43"/>
<path d="M38.125 50.625C38.125 52.0037 37.0037 53.125 35.625 53.125H19.375C17.9962 53.125 16.875 52.0037 16.875 50.625V21.875C16.875 20.4963 17.9962 19.375 19.375 19.375H21.875V20.625H19.375C18.6856 20.625 18.125 21.1856 18.125 21.875V50.625C18.125 51.3144 18.6856 51.875 19.375 51.875H35.625C36.3144 51.875 36.875 51.3144 36.875 50.625V45.625H35.625V50.625H19.375V48.125H21.875V47.135C21.875 46.4344 22.2931 45.8088 22.9706 45.5288C23.625 45.2563 24.3663 45.4019 24.8612 45.8969L25.5613 46.5987L29.0975 43.0625L28.3975 42.3625C27.9013 41.8662 27.7562 41.1238 28.0412 40.4412C28.3087 39.7931 28.9338 39.375 29.635 39.375H30.625V34.375H29.635C28.9344 34.375 28.3088 33.9569 28.0288 33.2794C27.7563 32.6269 27.9012 31.8844 28.3969 31.3888L29.0981 30.6881L25.5619 27.1519L24.8625 27.8531C24.3669 28.3494 23.6238 28.4931 22.9413 28.2094C22.2931 27.9412 21.875 27.3156 21.875 26.615V25.625H19.375V21.875H21.875C21.875 22.5644 22.4356 23.125 23.125 23.125H31.875C32.5644 23.125 33.125 22.5644 33.125 21.875H35.625V24.375H36.875V21.875C36.875 21.1856 36.3144 20.625 35.625 20.625H33.125V19.375H35.625C37.0037 19.375 38.125 20.4963 38.125 21.875V24.375H39.375V21.875C39.375 19.8069 37.6931 18.125 35.625 18.125H30.625V16.875C30.625 16.1856 30.0644 15.625 29.375 15.625H25.625C24.9356 15.625 24.375 16.1856 24.375 16.875V18.125H19.375C17.3069 18.125 15.625 19.8069 15.625 21.875V50.625C15.625 52.6931 17.3069 54.375 19.375 54.375H35.625C37.6931 54.375 39.375 52.6931 39.375 50.625V45.625H38.125V50.625ZM19.375 34.375C20.7537 34.375 21.875 35.4963 21.875 36.875C21.875 38.2537 20.7537 39.375 19.375 39.375V34.375ZM19.375 40.625C21.4431 40.625 23.125 38.9431 23.125 36.875C23.125 34.8069 21.4431 33.125 19.375 33.125V31.875C22.1319 31.875 24.375 34.1181 24.375 36.875C24.375 39.6319 22.1319 41.875 19.375 41.875V40.625ZM20.6362 26.875C20.7312 27.9762 21.4294 28.9362 22.49 29.375C23.5306 29.8088 24.7056 29.6244 25.5544 28.9125L27.3375 30.6962C26.625 31.5444 26.4412 32.7219 26.8856 33.7869C27.3138 34.8225 28.2731 35.5188 29.3744 35.6144V38.1363C28.2725 38.2313 27.3125 38.93 26.8744 39.99C26.44 41.0306 26.6244 42.2063 27.3375 43.0544L25.5538 44.8381C24.7063 44.1263 23.5287 43.9425 22.4619 44.3863C21.4275 44.8144 20.7312 45.7738 20.6362 46.875H19.375V43.125C22.8212 43.125 25.625 40.3213 25.625 36.875C25.625 33.4287 22.8212 30.625 19.375 30.625V26.875H20.6362ZM25.625 19.375V16.875H29.375V19.375H31.875V21.875H23.125V19.375H25.625Z" fill="#FF6D43"/>
<path d="M31.875 26.8749H48.125V25.5756L52.66 28.7499L48.125 31.9243V30.6249H31.875V31.8749H46.875V34.3256L54.84 28.7499L46.875 23.1743V25.6249H31.875V26.8749Z" fill="#FF6D43"/>
<path d="M33.125 28.125H34.375V29.375H33.125V28.125Z" fill="#FF6D43"/>
<path d="M36.875 28.125H38.125V29.375H36.875V28.125Z" fill="#FF6D43"/>
<path d="M40.625 28.125H41.875V29.375H40.625V28.125Z" fill="#FF6D43"/>
<path d="M46.875 38.1249H31.875V39.3749H48.125V38.0756L52.66 41.2499L48.125 44.4243V43.1249H31.875V44.3749H46.875V46.8256L54.84 41.2499L46.875 35.6743V38.1249Z" fill="#FF6D43"/>
<path d="M33.125 40.625H34.375V41.875H33.125V40.625Z" fill="#FF6D43"/>
<path d="M36.875 40.625H38.125V41.875H36.875V40.625Z" fill="#FF6D43"/>
<path d="M40.625 40.625H41.875V41.875H40.625V40.625Z" fill="#FF6D43"/>
<path d="M31.875 45.625H34.375V46.875H31.875V45.625Z" fill="#FF6D43"/>
<path d="M28.125 45.625H30.625V46.875H28.125V45.625Z" fill="#FF6D43"/>
<path d="M28.125 48.125H34.375V49.375H28.125V48.125Z" fill="#FF6D43"/>
</svg>
