<svg width="70" height="70" viewBox="0 0 70 70" fill="none" xmlns="http://www.w3.org/2000/svg">
<rect width="70" height="70" rx="35" fill="#EDE6FE"/>
<path d="M53.125 18.125H48.9394L48.2212 17.6456C46.2375 16.3237 43.9294 15.625 41.5456 15.625H36.875C36.1856 15.625 35.625 16.1856 35.625 16.875C35.625 17.3325 35.7575 17.7563 35.9725 18.1256L32.5 18.125C31.4663 18.125 30.625 18.9663 30.625 20C30.625 20.2469 30.6756 20.4813 30.7625 20.6975C30.4137 20.7919 30.1062 20.9819 29.8694 21.2419L29.2375 20.61L28.3269 21.52C27.9825 21.865 27.4669 21.965 26.9887 21.765C26.54 21.5794 26.25 21.1456 26.25 20.6594V19.375H22.5V20.6594C22.5 21.1456 22.21 21.58 21.7356 21.775C21.2825 21.9663 20.7669 21.865 20.4219 21.52L19.5125 20.61L16.86 23.2625L17.7694 24.1725C18.1138 24.5175 18.2144 25.0331 18.015 25.5106C17.8294 25.9594 17.3956 26.25 16.9094 26.25H15.625V30H16.9094C17.3956 30 17.83 30.2906 18.0256 30.7638C18.215 31.2175 18.1144 31.7331 17.77 32.0781L16.86 32.9875L19.5125 35.64L20.4231 34.73C20.7675 34.385 21.2825 34.285 21.7606 34.4838C22.2094 34.6706 22.5 35.1044 22.5 35.5906V36.875H23.125V38.1413C23.125 39.3375 23.2581 40.5294 23.5056 41.6944C22.9094 41.9638 22.3306 42.2781 21.7794 42.6456L21.0606 43.125H16.875C16.1856 43.125 15.625 43.6856 15.625 44.375V51.875C15.625 52.5644 16.1856 53.125 16.875 53.125H20.625C21.1306 53.125 21.565 52.8219 21.7619 52.3888C23.7175 53.6738 26.0269 54.375 28.3769 54.375H33.75C34.0075 54.375 34.2531 54.3225 34.4769 54.2281C34.585 54.2663 34.6925 54.3063 34.8019 54.3425L35 54.4088L35.1981 54.3431C38.1506 53.3594 40.6863 51.6219 42.6381 49.395C42.76 49.4075 42.8838 49.4325 43.0106 49.485C43.4594 49.6706 43.75 50.1044 43.75 50.5906V51.875H47.5V50.5906C47.5 50.1044 47.7906 49.67 48.2637 49.4744C48.7175 49.2856 49.2325 49.385 49.5775 49.73L50.4875 50.64L53.14 47.9875L52.2306 47.0775C51.8862 46.7325 51.7856 46.2169 51.985 45.7394C52.1706 45.2906 52.6044 45 53.0906 45H54.375V41.25H53.0906C52.6044 41.25 52.17 40.9594 51.9744 40.4863C51.785 40.0325 51.8856 39.5169 52.23 39.1719L53.1394 38.2619L50.4869 35.6094L49.5762 36.5194C49.2319 36.8644 48.7169 36.9644 48.2381 36.7644C47.79 36.5794 47.5 36.1456 47.5 35.6594V34.375H46.875V28.1619C47.3456 27.9331 47.8006 27.6744 48.2375 27.3869C48.4338 27.8206 48.8688 28.125 49.375 28.125H53.125C53.8144 28.125 54.375 27.5644 54.375 26.875V19.375C54.375 18.6856 53.8144 18.125 53.125 18.125ZM32.5 19.375L38.125 19.3756V19.375H40.1062C40.4831 19.375 40.8238 19.5494 41.0569 19.8394C40.7844 20.0744 40.5456 20.34 40.3344 20.625H32.5C32.1556 20.625 31.875 20.345 31.875 20C31.875 19.655 32.1556 19.375 32.5 19.375ZM36.3538 25.1513L35.1894 24.375H39.375V25.625H37.1475C36.8769 25.4788 36.6106 25.3231 36.3538 25.1513ZM32.8525 25.625H32.5C32.1556 25.625 31.875 25.345 31.875 25C31.875 24.655 32.1556 24.375 32.5 24.375H34.8106L33.6469 25.1513C33.3894 25.3231 33.1231 25.4788 32.8525 25.625ZM31.25 21.875H39.6656C39.5225 22.2744 39.4338 22.6938 39.3994 23.125H31.25C30.9056 23.125 30.625 22.845 30.625 22.5C30.625 22.155 30.9056 21.875 31.25 21.875ZM22.2175 33.3206C21.2938 32.9356 20.2419 33.1419 19.5381 33.8463L19.5125 33.8725L18.6275 32.9875L18.6538 32.9613C19.3575 32.2569 19.5638 31.205 19.1706 30.2625C18.7912 29.3438 17.9037 28.75 16.9094 28.75H16.875V27.5H16.9094C17.9037 27.5 18.7912 26.9063 19.1788 25.9675C19.5638 25.0444 19.3575 23.9931 18.6538 23.2888L18.6275 23.2625L19.5125 22.3775L19.5388 22.4038C20.2438 23.1094 21.2956 23.3144 22.2375 22.9206C23.1562 22.5413 23.75 21.6538 23.75 20.6594V20.625H25V20.6594C25 21.6538 25.5938 22.5419 26.5319 22.9288C27.4544 23.315 28.5069 23.1088 29.2113 22.4038L29.2375 22.3775L29.3763 22.5169C29.3838 23.3738 29.9706 24.0881 30.7625 24.3031C30.6756 24.5188 30.625 24.7531 30.625 25C30.625 25.5238 30.8419 25.9969 31.1894 26.3375C30.3369 26.62 29.4513 26.7888 28.555 26.8425C28.0006 25.0219 26.3263 23.75 24.375 23.75C21.9625 23.75 20 25.7131 20 28.125C20 30.0881 21.2869 31.7706 23.125 32.315V33.96C22.8812 33.6894 22.575 33.4688 22.2175 33.3206ZM23.125 26.1125V30.9788C22.0081 30.4919 21.25 29.3938 21.25 28.1244C21.25 26.4013 22.6519 24.9994 24.375 24.9994C25.63 24.9994 26.7169 25.7413 27.2113 26.8369C26.7856 26.8069 26.3612 26.7594 25.94 26.6756L23.125 26.1125ZM20.625 51.875H16.875V44.375H20.625V51.875ZM33.75 53.125H28.3769C26.035 53.125 23.7406 52.3444 21.875 50.9338V44.0844L22.4725 43.6856C24.2494 42.5013 26.3181 41.875 28.4544 41.875H31.875C31.875 42.5644 31.315 43.125 30.6275 43.125H30.625H28.7463V44.375H30.625H30.6275H36.25C36.5944 44.375 36.875 44.655 36.875 45C36.875 45.345 36.5944 45.625 36.25 45.625H28.75V46.875H37.5C37.8444 46.875 38.125 47.155 38.125 47.5C38.125 47.845 37.8444 48.125 37.5 48.125H28.75V49.375H36.25C36.5944 49.375 36.875 49.655 36.875 50C36.875 50.345 36.5944 50.625 36.25 50.625H28.75V51.875H33.75C34.0944 51.875 34.375 52.155 34.375 52.5C34.375 52.845 34.0944 53.125 33.75 53.125ZM26.875 38.1413V30.5838C27.235 30.6113 27.5956 30.625 27.9531 30.625C30.33 30.625 32.4831 30.1381 34.375 29.185V43.125H32.7775C32.9925 42.7556 33.125 42.3325 33.125 41.875C33.125 41.1856 32.5644 40.625 31.875 40.625H28.4544C28.0081 40.625 27.5662 40.6575 27.1269 40.7063C26.9625 39.8638 26.875 39.0038 26.875 38.1413ZM39.3669 47.4181C39.33 46.5906 38.7581 45.9069 37.9875 45.6975C38.0744 45.4813 38.125 45.2469 38.125 45C38.125 43.9663 37.2838 43.125 36.25 43.125H35.625V29.185C37.5169 30.1388 39.67 30.625 42.0469 30.625C42.4044 30.625 42.765 30.6113 43.125 30.5838V38.1419C43.125 41.6569 41.7531 44.9613 39.3669 47.4181ZM35.5888 52.8588C35.6112 52.7425 35.625 52.6225 35.625 52.5C35.625 52.28 35.58 52.0713 35.51 51.875H36.25C37.2463 51.875 38.0562 51.0913 38.1137 50.1094C42.0381 47.3875 44.375 42.9438 44.375 38.1413V29.1813L43.6712 29.2713C43.1319 29.34 42.585 29.375 42.0469 29.375C39.4975 29.375 37.2375 28.7756 35.3288 27.5931L35 27.3894L34.6713 27.5931C32.7625 28.7756 30.5025 29.375 27.9531 29.375C27.415 29.375 26.8687 29.34 26.3287 29.2713L25.625 29.1813V38.1413C25.625 39.0694 25.7175 39.9944 25.8913 40.9019C25.4831 40.9906 25.0819 41.105 24.685 41.2363C24.4831 40.2194 24.375 39.1825 24.375 38.1413V27.6375L25.6956 27.9019C26.4375 28.05 27.1975 28.125 27.9531 28.125C30.2331 28.125 32.4419 27.4569 34.34 26.1913L35 25.7513L35.66 26.1913C37.5581 27.4569 39.7663 28.125 42.0469 28.125C42.8025 28.125 43.5625 28.05 44.305 27.9019L45.625 27.6375V38.1419C45.625 44.6831 41.6225 50.4875 35.5888 52.8588ZM46.7369 40.2125C47.9175 40.6681 48.75 41.8206 48.75 43.125C48.75 44.8481 47.3481 46.25 45.625 46.25C45.3675 46.25 45.1169 46.2175 44.8725 46.1569C45.8419 44.3325 46.48 42.3238 46.7369 40.2125ZM47.7819 37.9288C48.7044 38.315 49.7569 38.1088 50.4613 37.4038L50.4875 37.3775L51.3725 38.2625L51.3462 38.2888C50.6425 38.9931 50.4362 40.045 50.8294 40.9875C51.2088 41.9063 52.0962 42.5 53.0906 42.5H53.125V43.75H53.0906C52.0962 43.75 51.2087 44.3438 50.8213 45.2825C50.4362 46.2056 50.6425 47.2569 51.3462 47.9613L51.3725 47.9875L50.4875 48.8725L50.4613 48.8463C49.7562 48.1413 48.7044 47.9344 47.7619 48.3294C46.8438 48.7094 46.25 49.5963 46.25 50.5906V50.625H45V50.5906C45 49.6069 44.4181 48.73 43.4956 48.335C43.7531 47.9888 43.9969 47.6331 44.2281 47.2681C44.6756 47.42 45.1431 47.5 45.625 47.5C48.0375 47.5 50 45.5369 50 43.125C50 41.1763 48.6763 39.4644 46.8438 38.9275C46.8556 38.6656 46.875 38.4056 46.875 38.1413V37.2894C47.1187 37.5606 47.425 37.7813 47.7819 37.9288ZM44.06 26.6763C42.9225 26.9031 41.7606 26.92 40.625 26.76V23.5156C40.625 22.5006 41.0525 21.55 41.7838 20.8731C42.3881 21.5038 43.2256 21.875 44.1331 21.875H44.375V20.625H44.1331C43.3644 20.625 42.6744 20.1975 42.3256 19.4988C41.9031 18.6519 41.0531 18.125 40.1062 18.125H38.1225C37.435 18.125 36.875 17.5644 36.875 16.875H41.5456C43.6819 16.875 45.7506 17.5013 47.5275 18.6856L48.125 19.0844V25.9375C47.7275 26.2381 47.31 26.5106 46.875 26.7538V26.1125L44.06 26.6763ZM53.125 26.875H49.375V19.375H53.125V26.875Z" fill="#783BFF"/>
<path d="M44.89 23.29C43.4813 23.6419 42.3656 24.675 41.9062 26.0525L43.0919 26.4481C43.4156 25.4775 44.2006 24.7506 45.1931 24.5025L45.7756 24.3569L45.4725 23.145L44.89 23.29Z" fill="#783BFF"/>
<path d="M15.625 39.375H16.875V40.625H15.625V39.375Z" fill="#783BFF"/>
<path d="M18.125 39.375H19.375V40.625H18.125V39.375Z" fill="#783BFF"/>
<path d="M20.625 39.375H21.875V40.625H20.625V39.375Z" fill="#783BFF"/>
<path d="M48.125 30.625H49.375V31.875H48.125V30.625Z" fill="#783BFF"/>
<path d="M50.625 30.625H51.875V31.875H50.625V30.625Z" fill="#783BFF"/>
<path d="M53.125 30.625H54.375V31.875H53.125V30.625Z" fill="#783BFF"/>
</svg>
