<svg width="70" height="70" viewBox="0 0 70 70" fill="none" xmlns="http://www.w3.org/2000/svg">
<rect width="70" height="70" rx="35" fill="#FFE6DF"/>
<path d="M54.375 31.25V26.25C54.375 23.4294 46.5075 23.125 43.125 23.125C41.7087 23.125 39.5062 23.1794 37.4237 23.4487C36.8119 22.5919 35.8687 22.0319 34.8237 21.9056C34.2913 20.0506 32.6012 18.75 30.625 18.75C30.2369 18.75 29.8556 18.8006 29.485 18.9013C28.5763 16.9181 26.5956 15.625 24.375 15.625C21.2731 15.625 18.75 18.1488 18.75 21.25C18.75 21.4763 18.7656 21.7019 18.7925 21.925C17.0006 22.2062 15.625 23.7556 15.625 25.625C15.625 27.2238 16.6525 28.6281 18.125 29.1512V36.9381C16.7006 37.2288 15.625 38.4912 15.625 40V51.25C15.625 52.9731 17.0269 54.375 18.75 54.375H35H36.25H43.125C46.5075 54.375 54.375 54.0706 54.375 51.25V46.25C54.375 45.6044 53.8838 45.0787 52.85 44.6325C53.0294 44.36 53.125 44.0662 53.125 43.75C53.125 43.4963 53.0425 43.2569 52.8869 43.0306C53.7925 42.5931 54.375 42.015 54.375 41.25V36.25C54.375 35.6044 53.8838 35.0788 52.85 34.6325C53.0294 34.36 53.125 34.0662 53.125 33.75C53.125 33.4963 53.0425 33.2569 52.8869 33.0306C53.7925 32.5931 54.375 32.015 54.375 31.25ZM53.125 26.25C53.125 26.7506 50.755 28.125 43.125 28.125C40.7125 28.125 38.5694 27.9812 36.875 27.7112V25.625H33.8469C35.0231 25.0487 37.7806 24.375 43.125 24.375C50.755 24.375 53.125 25.7494 53.125 26.25ZM35.625 26.875V34.375H31.875C30.8969 34.375 29.9619 34.8425 29.375 35.625L28.4375 36.875H19.375V26.875H35.625ZM16.875 25.625C16.875 24.2463 17.9962 23.125 19.375 23.125C20.1687 23.125 20.8981 23.4894 21.375 24.1256L22.375 23.375C21.7994 22.6087 20.9787 22.1119 20.0612 21.9437C20.025 21.7144 20 21.4837 20 21.25C20 18.8375 21.9631 16.875 24.375 16.875C26.2681 16.875 27.9381 18.085 28.5294 19.885L28.7444 20.5381L29.3744 20.2625C29.7719 20.0881 30.1925 20 30.625 20C31.9375 20 33.0694 20.805 33.5287 21.9825C33.0244 22.0988 32.5463 22.3081 32.1238 22.6262L32.875 23.625C33.31 23.2981 33.8288 23.125 34.375 23.125C34.9575 23.125 35.5087 23.3294 35.9475 23.6844C34.0631 24.0506 32.4937 24.6506 32.0238 25.625H18.125V27.785C17.3719 27.3469 16.875 26.5331 16.875 25.625ZM18.75 38.125H29.0625L30.375 36.375C30.7275 35.9056 31.2881 35.625 31.875 35.625H36.25C37.2838 35.625 38.125 36.4662 38.125 37.5V39.375H16.99C17.2487 38.6494 17.9362 38.125 18.75 38.125ZM35 53.125H18.75C17.7162 53.125 16.875 52.2837 16.875 51.25V40.625H38.125V42.8962L35.625 41.3963V43.75H28.75V45H36.875V43.6037L41.2856 46.25L36.875 48.8963V47.5H28.75V48.75H35.625V51.1037L38.125 49.6038V51.25C38.125 52.2837 37.2838 53.125 36.25 53.125H35ZM38.7337 53.125C39.1306 52.6012 39.375 51.9562 39.375 51.25V48.8538L43.7144 46.25L39.375 43.6462V37.5C39.375 35.9912 38.2994 34.7288 36.875 34.4381V28.9781C38.6081 29.2419 40.7056 29.375 43.125 29.375C43.4931 29.375 43.9169 29.3713 44.375 29.3612V53.1113C43.9737 53.1194 43.56 53.125 43.125 53.125H38.7337ZM45.625 53.0694V49.3219C48.085 49.2119 51.3619 48.8725 53.125 47.9V51.25C53.125 51.6912 51.2806 52.8094 45.625 53.0694ZM53.125 46.2506C53.1219 46.7288 51.2069 47.8119 45.625 48.0675V46.8062C48.4319 46.6481 50.5019 46.2194 51.7469 45.5538C52.9769 45.9556 53.1263 46.2587 53.125 46.2506ZM51.875 43.7506C51.8731 44.1388 50.6931 45.2594 45.625 45.5538V44.3213C47.4856 44.2381 49.8156 44.025 51.6063 43.5056C51.8237 43.6562 51.8719 43.75 51.875 43.7506ZM51.7494 42.1525C51.7344 42.145 51.7219 42.1375 51.7069 42.1306L51.6869 42.1725C50.5325 42.5625 48.5975 42.9312 45.625 43.0681V39.3219C48.085 39.2119 51.3619 38.8725 53.125 37.9V41.25C53.125 41.4688 52.7225 41.8162 51.7494 42.1525ZM53.1244 36.2512C53.125 36.2512 53.125 36.2512 53.1244 36.2512C53.1219 36.7288 51.2069 37.8119 45.625 38.0675V36.8056C48.4313 36.6481 50.5019 36.2194 51.7469 35.5531C52.9119 35.9387 53.1144 36.2512 53.1244 36.2512ZM51.875 33.7506C51.8731 34.1388 50.6937 35.26 45.625 35.5538V34.3219C47.4856 34.2388 49.8156 34.0256 51.6063 33.5063C51.8237 33.6562 51.8719 33.75 51.875 33.7506ZM51.7494 32.1525C51.7344 32.1456 51.7225 32.1375 51.7075 32.1306L51.6875 32.1725C50.5325 32.5625 48.5975 32.9313 45.625 33.0675V29.3188C48.2119 29.2013 51.4006 28.855 53.125 27.9094V31.25C53.125 31.4688 52.7225 31.8162 51.7494 32.1525Z" fill="#FF6D43"/>
<path d="M26.25 21.25H27.5C27.5 19.5269 26.0981 18.125 24.375 18.125V19.375C25.4088 19.375 26.25 20.2162 26.25 21.25Z" fill="#FF6D43"/>
<path d="M41.25 25.625H42.5V26.875H41.25V25.625Z" fill="#FF6D43"/>
<path d="M48.75 25.625H50V26.875H48.75V25.625Z" fill="#FF6D43"/>
<path d="M46.25 25.625H47.5V26.875H46.25V25.625Z" fill="#FF6D43"/>
<path d="M38.75 25.625H40V26.875H38.75V25.625Z" fill="#FF6D43"/>
<path d="M43.75 25.625H45V26.875H43.75V25.625Z" fill="#FF6D43"/>
<path d="M23.125 50.625H24.375V51.875H23.125V50.625Z" fill="#FF6D43"/>
<path d="M18.125 50.625H19.375V51.875H18.125V50.625Z" fill="#FF6D43"/>
<path d="M20.625 50.625H21.875V51.875H20.625V50.625Z" fill="#FF6D43"/>
<path d="M34.375 28.125H26.875V33.125H34.375V28.125ZM33.125 31.875H28.125V29.375H33.125V31.875Z" fill="#FF6D43"/>
<path d="M20.625 28.125H25.625V29.375H20.625V28.125Z" fill="#FF6D43"/>
<path d="M20.625 30.625H25.625V31.875H20.625V30.625Z" fill="#FF6D43"/>
<path d="M20.625 33.125H25.625V34.375H20.625V33.125Z" fill="#FF6D43"/>
<path d="M41.875 30.625H43.125V31.875H41.875V30.625Z" fill="#FF6D43"/>
<path d="M41.875 35.625H43.125V36.875H41.875V35.625Z" fill="#FF6D43"/>
<path d="M41.875 33.125H43.125V34.375H41.875V33.125Z" fill="#FF6D43"/>
</svg>
