<svg width="70" height="70" viewBox="0 0 70 70" fill="none" xmlns="http://www.w3.org/2000/svg">
<rect width="70" height="70" rx="35" fill="#FFDFDF"/>
<path d="M52.5 15.625H35C33.9662 15.625 33.125 16.4662 33.125 17.5V23.5512C31.5925 22.8788 29.9031 22.5 28.125 22.5C21.2325 22.5 15.625 28.1075 15.625 35C15.625 40.9188 19.7662 45.9694 25.4369 47.2087L20.625 52.25V54.375H48.125V40.2588L51.875 36.5088V41.25H53.125V34.375H46.25V35.625H50.9912L41.8563 44.76L38.6131 41.7869C39.9256 39.7638 40.625 37.4325 40.625 35C40.625 34.3612 40.5619 33.7381 40.4688 33.125H52.5C53.5337 33.125 54.375 32.2838 54.375 31.25V17.5C54.375 16.4662 53.5337 15.625 52.5 15.625ZM44.375 18.125V19.375H43.125V18.125H41.875V19.375H40.625V16.875H46.875V19.375H45.625V18.125H44.375ZM19.4069 34.375C19.545 32.4325 20.3163 30.6663 21.52 29.2788L23.2638 31.0225L24.1475 30.1388L22.4037 28.395C23.7913 27.1912 25.5581 26.42 27.5 26.2819V28.75H28.75V26.2819C30.6925 26.42 32.4587 27.1912 33.8462 28.395L32.1025 30.1388L32.9862 31.0225L34.73 29.2788C35.9338 30.6663 36.705 32.4331 36.8431 34.375H34.375V35.625H36.8525C36.7631 36.8856 36.4031 38.1025 35.7969 39.2056L34.3456 37.8756L30.605 41.7944C30.5994 41.7362 30.6 41.6775 30.5906 41.62L29.4694 34.8888C29.3587 34.2288 28.7937 33.75 28.125 33.75C27.4563 33.75 26.8913 34.2288 26.7806 34.8881L25.6594 41.6187C25.6363 41.755 25.625 41.8919 25.625 42.03V42.5C25.625 42.8288 25.6925 43.1413 25.8081 43.4287C22.3 42.4631 19.6731 39.3694 19.4069 35.625H21.875V34.375H19.4069ZM26.875 42.5V42.03C26.875 41.9619 26.8806 41.8925 26.8919 41.8244L28.0131 35.0944C28.0319 34.985 28.2175 34.985 28.2356 35.0944L29.3569 41.825C29.3694 41.8925 29.375 41.9619 29.375 42.03V42.5C29.375 43.1894 28.8144 43.75 28.125 43.75C27.4356 43.75 26.875 43.1894 26.875 42.5ZM31.875 42.2744V53.125H29.375V44.8931L31.875 42.2744ZM33.125 40.965L34.4044 39.625L35.625 40.7437V53.125H33.125V40.965ZM36.875 41.8894L39.375 44.1812V53.125H36.875V41.8894ZM28.125 53.125H25.625V48.8219L28.125 46.2031V53.125ZM21.875 52.75L24.375 50.1312V53.125H21.875V52.75ZM46.875 53.125H44.375V44.0088L46.875 41.5088V53.125ZM41.8937 46.49L43.125 45.2588V53.125H40.625V45.3269L41.8937 46.49ZM37.68 40.9319L36.74 40.07C37.6444 38.5362 38.125 36.7962 38.125 35C38.125 29.4862 33.6388 25 28.125 25C22.6113 25 18.125 29.4862 18.125 35C18.125 40.3269 22.3156 44.6825 27.5719 44.9719L26.4762 46.1194C20.9831 45.3131 16.875 40.5906 16.875 35C16.875 28.7969 21.9219 23.75 28.125 23.75C34.3281 23.75 39.375 28.7969 39.375 35C39.375 37.1187 38.7881 39.1531 37.68 40.9319ZM53.125 31.25C53.125 31.5944 52.8444 31.875 52.5 31.875H40.2137C39.3662 28.6025 37.2313 25.8494 34.375 24.1912V17.5C34.375 17.1556 34.6556 16.875 35 16.875H39.375V20.625H48.125V16.875H52.5C52.8444 16.875 53.125 17.1556 53.125 17.5V31.25Z" fill="#E64141"/>
<path d="M45.625 29.375H46.875V30.625H45.625V29.375Z" fill="#E64141"/>
<path d="M50.625 29.375H51.875V30.625H50.625V29.375Z" fill="#E64141"/>
<path d="M48.125 29.375H49.375V30.625H48.125V29.375Z" fill="#E64141"/>
<path d="M45.625 26.875H51.875V28.125H45.625V26.875Z" fill="#E64141"/>
</svg>
