<svg width="70" height="70" viewBox="0 0 70 70" fill="none" xmlns="http://www.w3.org/2000/svg">
<rect width="70" height="70" rx="35" fill="#FFEAF1"/>
<path d="M38.125 20.625H39.375V21.875H38.125V20.625Z" fill="#CE3F6F"/>
<path d="M35.625 20.625H36.875V21.875H35.625V20.625Z" fill="#CE3F6F"/>
<path d="M30.625 25.625H31.875V26.875H30.625V25.625Z" fill="#CE3F6F"/>
<path d="M33.125 25.625H34.375V26.875H33.125V25.625Z" fill="#CE3F6F"/>
<path d="M38.125 30.625H39.375V31.875H38.125V30.625Z" fill="#CE3F6F"/>
<path d="M35.625 30.625H36.875V31.875H35.625V30.625Z" fill="#CE3F6F"/>
<path d="M30.625 35.625H31.875V36.875H30.625V35.625Z" fill="#CE3F6F"/>
<path d="M33.125 35.625H34.375V36.875H33.125V35.625Z" fill="#CE3F6F"/>
<path d="M20.625 25.625H21.875V26.875H20.625V25.625Z" fill="#CE3F6F"/>
<path d="M23.125 25.625H24.375V26.875H23.125V25.625Z" fill="#CE3F6F"/>
<path d="M20.625 35.625H21.875V36.875H20.625V35.625Z" fill="#CE3F6F"/>
<path d="M23.125 35.625H24.375V36.875H23.125V35.625Z" fill="#CE3F6F"/>
<path d="M51.25 20.625H44.375V18.75C44.375 17.0269 42.9731 15.625 41.25 15.625H28.75C27.0269 15.625 25.625 17.0269 25.625 18.75V20.625H18.75C17.0269 20.625 15.625 22.0269 15.625 23.75V41.25C15.625 42.9731 17.0269 44.375 18.75 44.375H23.8756C23.8737 44.3831 23.8731 44.3919 23.8719 44.4006C21.35 44.6537 19.375 46.7881 19.375 49.375C19.375 52.1319 21.6181 54.375 24.375 54.375H45.625C48.3819 54.375 50.625 52.1319 50.625 49.375C50.625 46.8294 48.7113 44.7262 46.2481 44.4181C46.2481 44.4037 46.25 44.3894 46.25 44.375H51.25C52.9731 44.375 54.375 42.9731 54.375 41.25V23.75C54.375 22.0269 52.9731 20.625 51.25 20.625ZM50.625 33.125H44.375V29.375H50.625V33.125ZM50.625 34.375V38.125H44.375V34.375H50.625ZM50.625 28.125H44.375V24.375H50.625V28.125ZM28.75 16.875H41.25C42.2838 16.875 43.125 17.7162 43.125 18.75V38.2956C42.7344 38.0138 42.3169 37.7694 41.875 37.5656V19.375C41.875 18.6856 41.3144 18.125 40.625 18.125H29.375C28.6856 18.125 28.125 18.6856 28.125 19.375V39.6656C27.6856 39.8031 27.2675 39.9881 26.875 40.2144V18.75C26.875 17.7162 27.7163 16.875 28.75 16.875ZM32.6781 39.99C31.8444 39.5938 30.9325 39.375 30 39.375C29.7894 39.375 29.5806 39.3869 29.375 39.4075V34.375H40.625V37.1219C40.0244 36.9662 39.3988 36.875 38.75 36.875C36.2525 36.875 34.0419 38.1069 32.6781 39.99ZM40.625 23.125H29.375V19.375H40.625V23.125ZM29.375 24.375H40.625V28.125H29.375V24.375ZM29.375 29.375H40.625V33.125H29.375V29.375ZM25.625 28.125H19.375V24.375H25.625V28.125ZM19.375 29.375H25.625V33.125H19.375V29.375ZM19.375 34.375H25.625V38.125H19.375V34.375ZM16.875 41.25V23.75C16.875 22.7162 17.7162 21.875 18.75 21.875H25.625V23.125H19.375C18.6856 23.125 18.125 23.6856 18.125 24.375V43.01C17.3994 42.7513 16.875 42.0637 16.875 41.25ZM19.375 43.125V39.375H25.625V41.1644C25.0581 41.72 24.5956 42.3825 24.2719 43.125H19.375ZM49.375 49.375C49.375 51.4431 47.6931 53.125 45.625 53.125H24.375C22.3069 53.125 20.625 51.4431 20.625 49.375C20.625 47.3069 22.3069 45.625 24.375 45.625C26.4431 45.625 28.125 47.3069 28.125 49.375H29.375C29.375 46.8806 27.5369 44.8131 25.1456 44.4406C25.68 42.2275 27.6631 40.625 30 40.625C30.7044 40.625 31.3956 40.7769 32.0325 41.0606C31.5363 42.0612 31.25 43.1844 31.25 44.375H32.5C32.5 40.9287 35.3037 38.125 38.75 38.125C42.1963 38.125 45 40.9287 45 44.375C45 44.3894 44.9981 44.4037 44.9981 44.4188C42.5369 44.7288 40.625 46.8306 40.625 49.375H41.875C41.875 47.3069 43.5569 45.625 45.625 45.625C47.6931 45.625 49.375 47.3069 49.375 49.375ZM46.1369 43.125C45.9 41.7231 45.2756 40.4544 44.375 39.4306V39.375H50.625V43.125H46.1369ZM53.125 41.25C53.125 42.0637 52.6006 42.7513 51.875 43.01V24.375C51.875 23.6856 51.3144 23.125 50.625 23.125H44.375V21.875H51.25C52.2837 21.875 53.125 22.7162 53.125 23.75V41.25Z" fill="#CE3F6F"/>
<path d="M48.125 25.625H49.375V26.875H48.125V25.625Z" fill="#CE3F6F"/>
<path d="M45.625 25.625H46.875V26.875H45.625V25.625Z" fill="#CE3F6F"/>
<path d="M48.125 35.625H49.375V36.875H48.125V35.625Z" fill="#CE3F6F"/>
<path d="M45.625 35.625H46.875V36.875H45.625V35.625Z" fill="#CE3F6F"/>
<path d="M42.4616 43.8387L43.6991 43.6619C43.3498 41.2175 41.2223 39.375 38.7504 39.375C38.2654 39.375 37.7848 39.4444 37.3223 39.5819L37.6785 40.7806C38.0254 40.6775 38.386 40.625 38.7504 40.625C40.6048 40.625 42.2004 42.0062 42.4616 43.8387Z" fill="#CE3F6F"/>
<path d="M24.375 50.625H25.625V51.875H24.375V50.625Z" fill="#CE3F6F"/>
<path d="M26.875 50.625H28.125V51.875H26.875V50.625Z" fill="#CE3F6F"/>
<path d="M29.375 50.625H30.625V51.875H29.375V50.625Z" fill="#CE3F6F"/>
</svg>
