<svg width="70" height="70" viewBox="0 0 70 70" fill="none" xmlns="http://www.w3.org/2000/svg">
<rect width="70" height="70" rx="35" fill="#EFF2FF"/>
<path d="M39.5161 48.5484H16.2903V20.1613H39.5161H40.1613H40.8064V16.9355C40.8064 15.8684 39.9381 15 38.871 15H16.9355C15.8684 15 15 15.8684 15 16.9355V53.0645C15 54.1316 15.8684 55 16.9355 55H38.871C39.9381 55 40.8064 54.1316 40.8064 53.0645V48.5484H40.1613H39.5161ZM16.2903 16.9355C16.2903 16.5794 16.5794 16.2903 16.9355 16.2903H38.871C39.2271 16.2903 39.5161 16.5794 39.5161 16.9355V18.871H16.2903V16.9355ZM39.5161 53.0645C39.5161 53.4206 39.2271 53.7097 38.871 53.7097H16.9355C16.5794 53.7097 16.2903 53.4206 16.2903 53.0645V49.8387H39.5161V53.0645Z" fill="#465DFF"/>
<path d="M30.4836 51.129H25.3223V52.4193H30.4836V51.129Z" fill="#465DFF"/>
<path d="M37.581 27.9033C37.581 24.3459 34.6868 21.4517 31.1293 21.4517C27.5719 21.4517 24.6777 24.3459 24.6777 27.9033C24.6777 31.4607 27.5719 34.3549 31.1293 34.3549C34.6868 34.3549 37.581 31.4607 37.581 27.9033ZM25.9681 27.9033C25.9681 25.0575 28.2835 22.742 31.1293 22.742C33.9752 22.742 36.2906 25.0575 36.2906 27.9033C36.2906 30.7491 33.9752 33.0646 31.1293 33.0646C28.2835 33.0646 25.9681 30.7491 25.9681 27.9033Z" fill="#465DFF"/>
<path d="M52.4191 21.4517H36.29V22.742H52.4191V21.4517Z" fill="#465DFF"/>
<path d="M55.0003 21.4517H53.71V22.742H55.0003V21.4517Z" fill="#465DFF"/>
<path d="M51.1287 33.0646H36.29V34.3549H51.1287V33.0646Z" fill="#465DFF"/>
<path d="M53.7093 33.0646H52.4189V34.3549H53.7093V33.0646Z" fill="#465DFF"/>
<path d="M51.1292 25.3226H38.8711V26.613H51.1292V25.3226Z" fill="#465DFF"/>
<path d="M53.7093 25.3226H52.4189V26.613H53.7093V25.3226Z" fill="#465DFF"/>
<path d="M52.4192 29.1936H40.1611V30.4839H52.4192V29.1936Z" fill="#465DFF"/>
<path d="M55.0003 29.1936H53.71V30.4839H55.0003V29.1936Z" fill="#465DFF"/>
<path d="M31.7746 32.4193V31.129C32.8417 31.129 33.7101 30.2606 33.7101 29.1935C33.7101 28.1264 32.8417 27.2581 31.7746 27.2581H30.4843C30.1282 27.2581 29.8392 26.969 29.8392 26.6129C29.8392 26.2568 30.1282 25.9677 30.4843 25.9677H31.7746C32.1308 25.9677 32.4198 26.2568 32.4198 26.6129H33.7101C33.7101 25.5458 32.8417 24.6774 31.7746 24.6774V23.3871H30.4843V24.6774C29.4172 24.6774 28.5488 25.5458 28.5488 26.6129C28.5488 27.68 29.4172 28.5484 30.4843 28.5484H31.7746C32.1308 28.5484 32.4198 28.8374 32.4198 29.1935C32.4198 29.5497 32.1308 29.8387 31.7746 29.8387H30.4843C30.1282 29.8387 29.8392 29.5497 29.8392 29.1935H28.5488C28.5488 30.2606 29.4172 31.129 30.4843 31.129V32.4193H31.7746Z" fill="#465DFF"/>
<path d="M45.9676 40.8065H53.6599L52.6193 43.4071C52.5528 43.4007 52.4876 43.3871 52.4193 43.3871C51.5793 43.3871 50.8696 43.9284 50.6025 44.6774H47.7838C47.5451 44.0071 46.9509 43.5116 46.2257 43.4136L44.4973 38.2258H42.0967V39.5162H43.567L44.9554 43.6807C44.4038 44.022 44.0322 44.6278 44.0322 45.3226C44.0322 46.3897 44.9006 47.2581 45.9676 47.2581C46.8076 47.2581 47.5173 46.7168 47.7844 45.9678H50.6031C50.8702 46.7168 51.5799 47.2581 52.4199 47.2581C53.487 47.2581 54.3554 46.3897 54.3554 45.3226C54.3554 44.7903 54.1393 44.3078 53.7902 43.9574L54.9999 40.9303V39.5162H45.9676V40.8065ZM45.9676 45.9678C45.6115 45.9678 45.3225 45.6787 45.3225 45.3226C45.3225 45.0974 45.4451 44.9091 45.6199 44.7936L45.9676 44.6774C46.3238 44.6774 46.6128 44.9665 46.6128 45.3226C46.6128 45.6787 46.3238 45.9678 45.9676 45.9678ZM52.4193 45.9678C52.0631 45.9678 51.7741 45.6787 51.7741 45.3226C51.7741 44.9665 52.0631 44.6774 52.4193 44.6774C52.7754 44.6774 53.0644 44.9665 53.0644 45.3226C53.0644 45.6787 52.7754 45.9678 52.4193 45.9678Z" fill="#465DFF"/>
<path d="M42.7417 45.9678H29.1934V47.2581H42.7417V45.9678Z" fill="#465DFF"/>
<path d="M27.9036 45.9678H26.6133V47.2581H27.9036V45.9678Z" fill="#465DFF"/>
<path d="M42.7415 42.0968H30.4834V43.3871H42.7415V42.0968Z" fill="#465DFF"/>
<path d="M40.8063 38.2258H29.1934V39.5162H40.8063V38.2258Z" fill="#465DFF"/>
<path d="M27.9036 38.2258H26.6133V39.5162H27.9036V38.2258Z" fill="#465DFF"/>
<path d="M29.1936 42.0968H27.9033V43.3871H29.1936V42.0968Z" fill="#465DFF"/>
</svg>
