<svg width="70" height="70" viewBox="0 0 70 70" fill="none" xmlns="http://www.w3.org/2000/svg">
<rect width="70" height="70" rx="35" fill="#FFE6DF"/>
<g clip-path="url(#clip0)">
<path d="M25.9681 34.9999C25.9681 35.3562 25.6792 35.6451 25.3229 35.6451C24.9666 35.6451 24.6777 35.3562 24.6777 34.9999C24.6777 34.6436 24.9666 34.3547 25.3229 34.3547C25.6792 34.3547 25.9681 34.6436 25.9681 34.9999Z" fill="black"/>
<path d="M32.4192 34.9999C32.4192 35.3562 32.1304 35.6451 31.7741 35.6451C31.4178 35.6451 31.1289 35.3562 31.1289 34.9999C31.1289 34.6436 31.4178 34.3547 31.7741 34.3547C32.1304 34.3547 32.4192 34.6436 32.4192 34.9999Z" fill="black"/>
<path d="M28.5484 40.8064C27.8368 40.8064 27.2581 40.2277 27.2581 39.5161H25.9678C25.9678 40.9394 27.1252 42.0968 28.5484 42.0968C29.9717 42.0968 31.1291 40.9394 31.1291 39.5161H29.8387C29.8387 40.2277 29.26 40.8064 28.5484 40.8064Z" fill="black"/>
<path d="M42.0967 17.5806H43.387V18.8709H42.0967V17.5806Z" fill="black"/>
<path d="M44.6777 17.5806H52.4197V18.8709H44.6777V17.5806Z" fill="black"/>
<path d="M44.6777 20.1614H52.4197V21.4517H44.6777V20.1614Z" fill="black"/>
<path d="M42.0967 20.1614H43.387V21.4517H42.0967V20.1614Z" fill="black"/>
<path d="M42.0967 22.7419H43.387V24.0323H42.0967V22.7419Z" fill="black"/>
<path d="M44.6777 22.7419H52.4197V24.0323H44.6777V22.7419Z" fill="black"/>
<path d="M53.065 26.6129C54.132 26.6129 55.0005 25.7444 55.0005 24.6774V16.9355C55.0005 15.8685 54.132 15 53.065 15H41.4521C40.3851 15 39.5166 15.8685 39.5166 16.9355V24.6774C39.5166 25.7444 40.3851 26.6129 41.4521 26.6129H44.6779V29.5413L50.4843 26.9607V31.7742C50.4843 32.8412 51.3529 33.7097 52.4198 33.7097H53.065C53.421 33.7097 53.7102 33.9995 53.7102 34.3548V38.2258C53.7102 38.5818 53.421 38.871 53.065 38.871H51.1295V37.5806H49.8392V40.1613H53.065C54.132 40.1613 55.0005 39.2928 55.0005 38.2258V34.3548C55.0005 33.2879 54.132 32.4194 53.065 32.4194H52.4198C52.0639 32.4194 51.7747 32.1295 51.7747 31.7742V26.6129H53.065ZM41.4521 25.3226C41.0961 25.3226 40.8069 25.0328 40.8069 24.6774V16.9355C40.8069 16.5801 41.0961 16.2903 41.4521 16.2903H53.065C53.421 16.2903 53.7102 16.5801 53.7102 16.9355V24.6774C53.7102 25.0328 53.421 25.3226 53.065 25.3226H50.9928L45.9682 27.5554V25.3226H41.4521Z" fill="black"/>
<path d="M40.8064 40.8064V42.0968C40.8064 42.4527 40.5173 42.7419 40.1613 42.7419H38.871C38.515 42.7419 38.2258 42.4527 38.2258 42.0968V38.5225C39.0156 37.8134 39.5161 36.7884 39.5161 35.6451V30.4839C39.5161 24.4361 34.5961 19.5161 28.5484 19.5161C22.5006 19.5161 17.5806 24.4361 17.5806 30.4839V35.6451C17.5806 37.78 19.3167 39.5161 21.4516 39.5161H21.5748C21.9799 41.7102 23.3962 43.5509 25.3226 44.5394V45.4646L18.4214 47.1903C16.4072 47.6928 15 49.4941 15 51.571V55H42.0968V51.571C42.0968 49.4941 40.6896 47.6928 38.6753 47.1903L31.7742 45.4646V44.5394C33.7005 43.5509 35.1169 41.7109 35.522 39.5161H35.6452C36.0982 39.5161 36.531 39.4336 36.9355 39.2902V42.0968C36.9355 43.1637 37.804 44.0322 38.871 44.0322H40.1613C41.2283 44.0322 42.0968 43.1637 42.0968 42.0968V40.8064C42.0968 40.4505 42.386 40.1613 42.7419 40.1613H44.6774V41.4516H45.9677V38.871H42.7419C41.675 38.871 40.8064 39.7395 40.8064 40.8064ZM28.5484 20.8064C33.8845 20.8064 38.2258 25.1477 38.2258 30.4839V32.7678C37.8528 32.4329 37.4168 32.1702 36.9355 32V30.4839C36.9355 25.8594 33.1729 22.0968 28.5484 22.0968C23.9239 22.0968 20.1613 25.8594 20.1613 30.4839V32C19.6799 32.1711 19.244 32.4335 18.871 32.7678V30.4839C18.871 25.1477 23.2123 20.8064 28.5484 20.8064ZM18.871 35.6451C18.871 34.2219 20.0284 33.0645 21.4516 33.0645H21.4756C21.4658 33.1943 21.4516 33.3231 21.4516 33.4548V38.2258C20.0284 38.2258 18.871 37.0684 18.871 35.6451ZM21.7484 31.7742H21.4516V30.4839C21.4516 26.571 24.6355 23.3871 28.5484 23.3871C32.4613 23.3871 35.6452 26.571 35.6452 30.4839V31.7742H31.3889C28.871 31.7742 26.4012 30.9079 24.4355 29.335L24.0672 29.0401L23.6747 29.3019C22.7678 29.9064 22.1046 30.7787 21.7484 31.7742ZM25.7696 46.6819L27.6361 48.5484L25.5749 50.6089L24.2452 47.0634L25.7696 46.6819ZM16.2903 51.571C16.2903 50.0879 17.2956 48.8013 18.7336 48.4413L22.9845 47.3781L25.0702 52.9388L27.9032 50.1058V53.7097H21.4516V51.129H20.1613V53.7097H16.2903V51.571ZM40.8064 51.571V53.7097H36.9355V51.129H35.6452V53.7097H29.1935V50.1058L32.0265 52.9388L34.1123 47.3781L38.3632 48.4413C39.8012 48.8013 40.8064 50.0879 40.8064 51.571ZM32.8516 47.0634L31.5219 50.6089L29.4607 48.5484L31.3272 46.6819L32.8516 47.0634ZM30.4839 45.7006L28.5484 47.6361L26.6129 45.7006V45.0479C27.2291 45.2227 27.8768 45.3226 28.5484 45.3226C29.22 45.3226 29.8677 45.2227 30.4839 45.0479V45.7006ZM34.3548 38.2258C34.3548 41.4277 31.7503 44.0322 28.5484 44.0322C25.3465 44.0322 22.7419 41.4277 22.7419 38.2258V33.4548C22.7419 32.3664 23.216 31.347 24.0291 30.6489C26.1536 32.2102 28.7478 33.0645 31.3889 33.0645H34.3548V38.2258ZM35.6452 33.0645C37.0684 33.0645 38.2258 34.2219 38.2258 35.6451C38.2258 37.0684 37.0684 38.2258 35.6452 38.2258V33.0645Z" fill="black"/>
<path d="M47.2578 37.5806H48.5481V41.4515H47.2578V37.5806Z" fill="black"/>
</g>
<defs>
<clipPath id="clip0">
<rect x="15" y="15" width="40" height="40" fill="white"/>
</clipPath>
</defs>
</svg>
