<svg width="70" height="70" viewBox="0 0 70 70" fill="none" xmlns="http://www.w3.org/2000/svg">
<rect width="70" height="70" rx="35" fill="#EDE6FE"/>
<path d="M28.1294 30.625L52.7031 20.9713L50.3356 15.4469L17.7088 28.265C17.2344 28.1782 16.7487 28.125 16.25 28.125H15.625V40.625V49.375V54.375H54.375V49.375V40.625V30.625H28.1294ZM24.35 35.625C24.2619 34.4738 23.9319 33.3894 23.4125 32.4213L26.6163 35.625H24.35ZM42.265 23.7288L39.705 24.7344L41.1506 20.3981L43.71 19.3925L42.265 23.7288ZM45.2262 18.7969L47.7863 17.7913L46.3412 22.1275L43.7812 23.1331L45.2262 18.7969ZM38.19 25.33L35.63 26.3356L37.0756 21.9994L39.6356 20.9938L38.19 25.33ZM34.1144 26.9313L31.555 27.9369L33 23.6L35.56 22.5944L34.1144 26.9313ZM30.0394 28.5319L27.4794 29.5375L28.925 25.2006L31.485 24.195L30.0394 28.5319ZM25.9637 30.1331L24.7119 30.625H23.4025L24.8369 26.8069L27.4094 25.7963L25.9637 30.1331ZM28.3837 35.625L24.6337 31.875H27.8663L31.6163 35.625H28.3837ZM33.3837 35.625L29.6337 31.875H32.8663L36.6162 35.625H33.3837ZM38.3838 35.625L34.6337 31.875H37.8662L41.6162 35.625H38.3838ZM43.3838 35.625L39.6338 31.875H42.8662L46.6162 35.625H43.3838ZM48.3838 35.625L44.6338 31.875H47.8662L51.6162 35.625H48.3838ZM53.125 35.3663L49.6338 31.875H53.125V35.3663ZM51.0469 20.2788L47.8563 21.5325L49.3013 17.1963L49.6644 17.0538L51.0469 20.2788ZM23.27 27.4225L22.0775 30.5963C21.3756 29.8731 20.5394 29.2831 19.6119 28.8594L23.27 27.4225ZM16.875 29.4031C20.1687 29.7013 22.7994 32.3319 23.0969 35.625H16.875V29.4031ZM53.125 41.875V48.125H41.875V41.875H53.125ZM40.625 48.125H29.375V41.875H40.625V48.125ZM28.125 48.125H16.875V41.875H28.125V48.125ZM53.125 53.125H16.875V49.375H53.125V53.125ZM16.875 40.625V36.875H23.75H24.375H53.125V40.625H16.875Z" fill="#783BFF"/>
<path d="M28.125 38.125H18.125V39.375H28.125V38.125Z" fill="#783BFF"/>
<path d="M26.875 43.125H18.125V44.375H26.875V43.125Z" fill="#783BFF"/>
<path d="M39.375 43.125H30.625V44.375H39.375V43.125Z" fill="#783BFF"/>
<path d="M51.875 43.125H43.125V44.375H51.875V43.125Z" fill="#783BFF"/>
<path d="M20.625 50.625H19.375V51.875H20.625V50.625Z" fill="#783BFF"/>
<path d="M23.125 50.625H21.875V51.875H23.125V50.625Z" fill="#783BFF"/>
<path d="M25.625 50.625H24.375V51.875H25.625V50.625Z" fill="#783BFF"/>
<path d="M38.125 50.625H31.875V51.875H38.125V50.625Z" fill="#783BFF"/>
<path d="M50.625 50.625H49.375V51.875H50.625V50.625Z" fill="#783BFF"/>
<path d="M48.125 50.625H46.875V51.875H48.125V50.625Z" fill="#783BFF"/>
<path d="M45.625 50.625H44.375V51.875H45.625V50.625Z" fill="#783BFF"/>
</svg>
