<svg width="70" height="70" viewBox="0 0 70 70" fill="none" xmlns="http://www.w3.org/2000/svg">
<rect width="70" height="70" rx="35" fill="#DDFBEE"/>
<path d="M53.0645 15H16.9355C15.8684 15 15 15.8684 15 16.9355V41.4516C15 42.5187 15.8684 43.3871 16.9355 43.3871H22.7419V45.9677H20.1613V47.2581H25.3226V55H44.6774V47.2581H49.8387V45.9677H47.2581V43.3871H53.0645C54.1316 43.3871 55 42.5187 55 41.4516V16.9355C55 15.8684 54.1316 15 53.0645 15ZM25.3226 45.9677H24.0323V43.3871H25.3226V45.9677ZM25.3226 42.0968H16.9355C16.5794 42.0968 16.2903 41.8077 16.2903 41.4516V39.5161H25.3226V42.0968ZM43.3871 53.7097H26.6129V39.5161H43.3871V53.7097ZM40.8064 23.3871C41.8735 23.3871 42.7419 24.2555 42.7419 25.3226V25.9677H43.3871C44.8103 25.9677 45.9677 27.1252 45.9677 28.5484C45.9677 29.9716 44.8103 31.129 43.3871 31.129H42.4329C41.0316 28.449 38.2277 26.6129 35 26.6129C31.7845 26.6129 28.9897 28.4342 27.5826 31.0968C25.9561 30.9329 24.6774 29.5723 24.6774 27.9032C24.6774 26.1245 26.1245 24.6774 27.8884 24.6774L28.4961 24.6806L28.6006 24.1632C28.8419 22.9658 29.9058 22.0968 31.129 22.0968C31.3232 22.0968 31.5277 22.1265 31.7729 22.1897L32.391 22.3497L32.5574 21.7335C33.0116 20.0477 34.5471 18.871 36.2903 18.871C38.4252 18.871 40.1613 20.6071 40.1613 22.7419V23.3871H40.8064ZM35 30.4839C32.5103 30.4839 30.4839 32.5103 30.4839 35V38.2258H27.9032V35C27.9032 31.0871 31.0871 27.9032 35 27.9032C38.9129 27.9032 42.0968 31.0871 42.0968 35V38.2258H39.5161V35C39.5161 32.5103 37.4897 30.4839 35 30.4839ZM38.2258 35V38.2258H31.7742V35C31.7742 33.2213 33.2213 31.7742 35 31.7742C36.7787 31.7742 38.2258 33.2213 38.2258 35ZM45.9677 45.9677H44.6774V43.3871H45.9677V45.9677ZM53.7097 41.4516C53.7097 41.8077 53.4206 42.0968 53.0645 42.0968H44.6774V39.5161H53.7097V41.4516ZM53.7097 38.2258H44.6774H44.0323H43.3871V35C43.3871 34.0994 43.2406 33.2329 42.9768 32.4194H43.3871C45.5219 32.4194 47.2581 30.6832 47.2581 28.5484C47.2581 26.6142 45.8323 25.0071 43.9761 24.7219C43.7316 23.4277 42.711 22.4039 41.4181 22.1548C41.1265 19.5839 38.9381 17.5806 36.2903 17.5806C34.1665 17.5806 32.2748 18.889 31.5006 20.8277C31.3742 20.8135 31.2503 20.8065 31.129 20.8065C29.469 20.8065 28.0052 21.8735 27.4723 23.4071C25.1832 23.6252 23.3871 25.5581 23.3871 27.9032C23.3871 30.1026 24.969 31.9374 27.0535 32.3368C26.7723 33.1748 26.6129 34.0684 26.6129 35V38.2258H25.9677H25.3226H16.2903V16.9355C16.2903 16.5794 16.5794 16.2903 16.9355 16.2903H53.0645C53.4206 16.2903 53.7097 16.5794 53.7097 16.9355V38.2258Z" fill="#6AC75A"/>
<path d="M34.3547 48.4903V52.4193H35.645V48.4903C37.4728 48.1819 38.8708 46.5922 38.8708 44.6774C38.8708 42.5425 37.1347 40.8064 34.9999 40.8064C32.865 40.8064 31.1289 42.5425 31.1289 44.6774C31.1289 46.5916 32.527 48.1812 34.3547 48.4903ZM34.9999 42.0967C36.4231 42.0967 37.5805 43.2541 37.5805 44.6774C37.5805 46.1006 36.4231 47.258 34.9999 47.258C33.5766 47.258 32.4192 46.1006 32.4192 44.6774C32.4192 43.2541 33.5766 42.0967 34.9999 42.0967Z" fill="#6AC75A"/>
<path d="M50.4837 17.5806H49.1934V18.8709H50.4837V17.5806Z" fill="#6AC75A"/>
<path d="M51.7737 18.8708H50.4834V20.1612H51.7737V18.8708Z" fill="#6AC75A"/>
<path d="M50.4837 20.1614H49.1934V21.4517H50.4837V20.1614Z" fill="#6AC75A"/>
<path d="M49.1936 18.8708H47.9033V20.1612H49.1936V18.8708Z" fill="#6AC75A"/>
<path d="M47.2581 33.0645H45.9678V34.3548H47.2581V33.0645Z" fill="#6AC75A"/>
<path d="M48.5481 34.3547H47.2578V35.6451H48.5481V34.3547Z" fill="#6AC75A"/>
<path d="M47.2581 35.6453H45.9678V36.9356H47.2581V35.6453Z" fill="#6AC75A"/>
<path d="M45.9681 34.3547H44.6777V35.6451H45.9681V34.3547Z" fill="#6AC75A"/>
<path d="M26.6126 17.5806H25.3223V18.8709H26.6126V17.5806Z" fill="#6AC75A"/>
<path d="M27.9036 18.8708H26.6133V20.1612H27.9036V18.8708Z" fill="#6AC75A"/>
<path d="M26.6126 20.1614H25.3223V21.4517H26.6126V20.1614Z" fill="#6AC75A"/>
<path d="M25.3225 18.8708H24.0322V20.1612H25.3225V18.8708Z" fill="#6AC75A"/>
<path d="M20.1614 25.3225H18.8711V26.6128H20.1614V25.3225Z" fill="#6AC75A"/>
<path d="M21.4515 26.6128H20.1611V27.9031H21.4515V26.6128Z" fill="#6AC75A"/>
<path d="M20.1614 27.9033H18.8711V29.1936H20.1614V27.9033Z" fill="#6AC75A"/>
<path d="M18.8714 26.6128H17.5811V27.9031H18.8714V26.6128Z" fill="#6AC75A"/>
</svg>
