<svg width="70" height="70" viewBox="0 0 70 70" fill="none" xmlns="http://www.w3.org/2000/svg">
<rect width="70" height="70" rx="35" fill="#EFF2FF"/>
<path d="M31.875 41.7844V43.125H33.125V41.7844C33.8469 41.5556 34.375 40.8875 34.375 40.0912C34.375 39.4113 33.9975 38.8006 33.3888 38.4956L32.1706 37.8863C31.9881 37.7956 31.875 37.6125 31.875 37.4088C31.875 37.115 32.115 36.875 32.4088 36.875H32.5906C32.885 36.875 33.125 37.115 33.125 37.4088V37.5H34.375V37.4088C34.375 36.6119 33.8469 35.9438 33.125 35.7156V34.375H31.875V35.7156C31.1531 35.9444 30.625 36.6125 30.625 37.4088C30.625 38.0888 31.0025 38.6994 31.6112 39.0044L32.8294 39.6137C33.0119 39.7044 33.125 39.8875 33.125 40.0912C33.125 40.385 32.885 40.625 32.5912 40.625H32.4094C32.115 40.625 31.875 40.385 31.875 40.0912V40H30.625V40.0912C30.625 40.8875 31.1531 41.5556 31.875 41.7844Z" fill="#465DFF"/>
<path d="M32.5 45.625C36.2906 45.625 39.375 42.5406 39.375 38.75C39.375 34.9594 36.2906 31.875 32.5 31.875C28.7094 31.875 25.625 34.9594 25.625 38.75C25.625 42.5406 28.7094 45.625 32.5 45.625ZM32.5 33.125C35.6019 33.125 38.125 35.6481 38.125 38.75C38.125 41.8519 35.6019 44.375 32.5 44.375C29.3981 44.375 26.875 41.8519 26.875 38.75C26.875 35.6481 29.3981 33.125 32.5 33.125Z" fill="#465DFF"/>
<path d="M46.25 48.125C45.2162 48.125 44.375 48.9662 44.375 50C44.375 51.0338 45.2162 51.875 46.25 51.875C47.2838 51.875 48.125 51.0338 48.125 50C48.125 48.9662 47.2838 48.125 46.25 48.125ZM46.25 50.625C45.905 50.625 45.625 50.345 45.625 50C45.625 49.655 45.905 49.375 46.25 49.375C46.595 49.375 46.875 49.655 46.875 50C46.875 50.345 46.595 50.625 46.25 50.625Z" fill="#465DFF"/>
<path d="M26.25 48.125C25.2162 48.125 24.375 48.9662 24.375 50C24.375 51.0338 25.2162 51.875 26.25 51.875C27.2838 51.875 28.125 51.0338 28.125 50C28.125 48.9662 27.2838 48.125 26.25 48.125ZM26.25 50.625C25.905 50.625 25.625 50.345 25.625 50C25.625 49.655 25.905 49.375 26.25 49.375C26.595 49.375 26.875 49.655 26.875 50C26.875 50.345 26.595 50.625 26.25 50.625Z" fill="#465DFF"/>
<path d="M53.125 46.99V40C53.125 36.2094 50.0406 33.125 46.25 33.125H41.875V32.5C41.875 30.7769 40.4731 29.375 38.75 29.375H25V23.75C25 22.3712 23.8787 21.25 22.5 21.25C21.1213 21.25 20 22.3712 20 23.75V29.9263L15.625 32.1138V45.3862L18.6269 46.8875C17.6512 46.9519 16.875 47.7581 16.875 48.75V50C16.875 51.0338 17.7162 51.875 18.75 51.875H22.3031C23.0069 53.3506 24.5094 54.375 26.25 54.375C27.9906 54.375 29.4925 53.3506 30.1969 51.875H42.3031C43.0069 53.3506 44.5094 54.375 46.25 54.375C47.9906 54.375 49.4925 53.3506 50.1969 51.875H52.5C53.5337 51.875 54.375 51.0338 54.375 50V48.75C54.375 47.9363 53.8506 47.2487 53.125 46.99ZM46.25 34.375C49.3519 34.375 51.875 36.8981 51.875 40V46.875H50.625V40C50.625 37.5881 48.6619 35.625 46.25 35.625H43.125V46.875H41.875V34.375H46.25ZM44.375 40.625H49.375V46.875H49.3056C48.5163 46.1031 47.4381 45.625 46.25 45.625C45.5788 45.625 44.9444 45.7819 44.375 46.0531V40.625ZM44.375 39.375V36.875H46.25C47.7588 36.875 49.0212 37.9506 49.3119 39.375H44.375ZM22.5 22.5C23.1894 22.5 23.75 23.0606 23.75 23.75V29.375H21.25V23.75C21.25 23.0606 21.8106 22.5 22.5 22.5ZM20 39.8263C19.6281 39.6094 19.375 39.2106 19.375 38.75C19.375 38.2894 19.6281 37.8906 20 37.6737V39.8263ZM21.25 37.6737C21.6219 37.8906 21.875 38.2894 21.875 38.75C21.875 39.2106 21.6219 39.6094 21.25 39.8263V37.6737ZM16.875 32.8862L20 31.3237V36.3387C18.9244 36.6181 18.125 37.5881 18.125 38.75C18.125 40.1287 19.2462 41.25 20.625 41.25C22.0037 41.25 23.125 40.1287 23.125 38.75C23.125 37.5881 22.3256 36.6181 21.25 36.3387V30.6987L21.3975 30.625H38.75C39.7838 30.625 40.625 31.4663 40.625 32.5V46.875H29.3056C28.5162 46.1031 27.4381 45.625 26.25 45.625C25.0619 45.625 23.9838 46.1031 23.1944 46.875H21.3981L16.875 44.6138V32.8862ZM18.75 50.625C18.405 50.625 18.125 50.345 18.125 50V48.75C18.125 48.405 18.405 48.125 18.75 48.125H21.1025H22.3038C22.0319 48.6944 21.875 49.3288 21.875 50C21.875 50.2125 21.8956 50.42 21.925 50.625H18.75ZM26.25 53.125C24.5269 53.125 23.125 51.7231 23.125 50C23.125 48.2769 24.5269 46.875 26.25 46.875C27.9731 46.875 29.375 48.2769 29.375 50C29.375 51.7231 27.9731 53.125 26.25 53.125ZM30.575 50.625C30.6044 50.42 30.625 50.2125 30.625 50C30.625 49.3288 30.4681 48.6944 30.1969 48.125H40.625H41.875H42.3031C42.0319 48.6944 41.875 49.3288 41.875 50C41.875 50.2125 41.8956 50.42 41.925 50.625H30.575ZM46.25 53.125C44.5269 53.125 43.125 51.7231 43.125 50C43.125 48.2769 44.5269 46.875 46.25 46.875C47.9731 46.875 49.375 48.2769 49.375 50C49.375 51.7231 47.9731 53.125 46.25 53.125ZM53.125 50C53.125 50.345 52.845 50.625 52.5 50.625H50.575C50.6044 50.42 50.625 50.2125 50.625 50C50.625 49.3288 50.4681 48.6944 50.1969 48.125H52.5C52.845 48.125 53.125 48.405 53.125 48.75V50Z" fill="#465DFF"/>
<path d="M35 21.875H36.25V20.625H35V19.375H36.25V18.125H33.75V24.375H35V21.875Z" fill="#465DFF"/>
<path d="M38.75 21.875H39.375C39.72 21.875 40 22.1556 40 22.5V24.375H41.25V22.5C41.25 22.0181 41.0619 21.5825 40.7625 21.25C41.0619 20.9175 41.25 20.4819 41.25 20C41.25 18.9662 40.4088 18.125 39.375 18.125H37.5V24.375H38.75V21.875ZM38.75 19.375H39.375C39.72 19.375 40 19.6556 40 20C40 20.3444 39.72 20.625 39.375 20.625H38.75V19.375Z" fill="#465DFF"/>
<path d="M45 23.125H43.75V21.875H45V20.625H43.75V19.375H45V18.125H42.5V24.375H45V23.125Z" fill="#465DFF"/>
<path d="M48.75 23.125H47.5V21.875H48.75V20.625H47.5V19.375H48.75V18.125H46.25V24.375H48.75V23.125Z" fill="#465DFF"/>
<path d="M32.7587 28.125C33.1569 28.125 33.5456 27.9637 33.8256 27.6831L34.6337 26.875H49.375C50.4088 26.875 51.25 26.0337 51.25 25V17.5C51.25 16.4662 50.4088 15.625 49.375 15.625H33.125C32.0912 15.625 31.25 16.4662 31.25 17.5V26.6163C31.25 27.4481 31.9269 28.125 32.7587 28.125ZM32.5 17.5C32.5 17.1556 32.78 16.875 33.125 16.875H49.375C49.72 16.875 50 17.1556 50 17.5V25C50 25.3444 49.72 25.625 49.375 25.625H34.1163L32.9412 26.7994C32.7944 26.9475 32.4994 26.8269 32.5 26.6163V17.5Z" fill="#465DFF"/>
</svg>
