<svg width="70" height="70" viewBox="0 0 70 70" fill="none" xmlns="http://www.w3.org/2000/svg">
<rect width="70" height="70" rx="35" fill="#DDFBEE"/>
<path d="M49.2342 48.1942C48.3342 45.3161 45.8277 43.16 42.8477 42.7013L39.5161 42.1884V41.52C41.6871 40.26 43.289 38.1271 43.8296 35.6006C45.3974 35.3819 46.6129 34.0465 46.6129 32.4194V26.6129C46.6129 20.2097 41.4032 15 35 15C28.5967 15 23.3871 20.2097 23.3871 26.6129V32.4194C23.3871 34.0465 24.6025 35.3819 26.1703 35.6006C26.7109 38.1271 28.3129 40.26 30.4838 41.52V42.1884L27.1522 42.7006C24.1722 43.1594 21.6651 45.3155 20.7658 48.1935L18.6387 55H51.3613L49.2342 48.1942ZM40.7484 43.6832L39.7154 49.8813L35.9438 46.5813L39.0961 43.429L40.7484 43.6832ZM35 45.7006L31.7742 42.4748V42.1361C32.7774 42.5219 33.8625 42.7419 35 42.7419C36.1374 42.7419 37.2225 42.5219 38.2258 42.1361V42.4748L35 45.7006ZM44.0051 34.2445C44.0154 34.0665 44.0322 33.8903 44.0322 33.7097V30.6026C44.7813 30.8697 45.3225 31.5794 45.3225 32.4194C45.3225 33.269 44.7684 33.9852 44.0051 34.2445ZM24.6774 32.4194C24.6774 31.5794 25.2187 30.8697 25.9677 30.6026V33.7097C25.9677 33.8903 25.9845 34.0665 25.9948 34.2445C25.2316 33.9852 24.6774 33.269 24.6774 32.4194ZM26.1038 29.2452C25.5729 29.3303 25.089 29.5439 24.6774 29.8555V26.6129C24.6774 20.9213 29.3084 16.2903 35 16.2903C40.6916 16.2903 45.3225 20.9213 45.3225 26.6129V29.8555C44.9458 29.5703 44.5116 29.3568 44.0322 29.2594V24.6774H43.3871C41.9638 24.6774 40.8064 23.52 40.8064 22.0968H39.5161C39.5161 23.52 38.3587 24.6774 36.9354 24.6774H31.7742C28.998 24.6774 26.6735 26.6374 26.1038 29.2452ZM27.258 33.7097V30.4839C27.258 27.9935 29.2845 25.9677 31.7742 25.9677H36.9354C38.2806 25.9677 39.4671 25.2787 40.1613 24.2342C40.7419 25.1077 41.6677 25.7329 42.7419 25.9135V33.7097C42.7419 37.9787 39.269 41.4516 35 41.4516C30.7309 41.4516 27.258 37.9787 27.258 33.7097ZM31.9161 53.7097H26.6987L27.2529 49.2735L25.9729 49.1135L25.398 53.7097H20.3935L21.9967 48.5787C22.7509 46.1671 24.8516 44.36 27.349 43.9761L27.9767 43.8794L28.2348 45.4284L29.5077 45.2161L29.2522 43.6832L30.9045 43.429L34.0567 46.5813L30.2851 49.8813L29.7225 46.5065L28.4496 46.7187L29.3929 52.3761L31.4761 50.5535L32.3703 51.8942L31.9161 53.7097ZM36.7548 53.7097H33.2451L33.7593 51.6535L32.4548 49.6968L35 47.4703L37.5451 49.6974L36.2406 51.6542L36.7548 53.7097ZM44.0271 49.1135L42.7471 49.2735L43.3013 53.7097H38.0838L37.6303 51.8948L38.5245 50.5542L40.6077 52.3768L42.0238 43.88L42.6516 43.9768C45.1484 44.3606 47.249 46.1671 48.0032 48.5787L49.6064 53.7097H44.6019L44.0271 49.1135Z" fill="#6AC75A"/>
<path d="M30.8066 31.1291C31.3411 31.1291 31.7744 30.6958 31.7744 30.1613C31.7744 29.6269 31.3411 29.1936 30.8066 29.1936C30.2721 29.1936 29.8389 29.6269 29.8389 30.1613C29.8389 30.6958 30.2721 31.1291 30.8066 31.1291Z" fill="#6AC75A"/>
<path d="M39.1933 31.1291C39.7278 31.1291 40.1611 30.6958 40.1611 30.1613C40.1611 29.6269 39.7278 29.1936 39.1933 29.1936C38.6589 29.1936 38.2256 29.6269 38.2256 30.1613C38.2256 30.6958 38.6589 31.1291 39.1933 31.1291Z" fill="#6AC75A"/>
<path d="M38.226 36.2884V35.6451H36.9357V36.2884C36.9357 36.6451 36.6454 36.9355 36.2886 36.9355H33.7118C33.3551 36.9355 33.0647 36.6451 33.0647 36.2884V35.6451H31.7744V36.2884C31.7744 37.3568 32.6434 38.2258 33.7118 38.2258H36.2886C37.357 38.2258 38.226 37.3568 38.226 36.2884Z" fill="#6AC75A"/>
</svg>
