<svg width="80" height="80" viewBox="0 0 80 80" fill="none" xmlns="http://www.w3.org/2000/svg">
<path d="M75 41.25H73.75C73.75 31.6 65.9 23.75 56.25 23.75V5C56.25 2.9325 54.5675 1.25 52.5 1.25H5C2.9325 1.25 1.25 2.9325 1.25 5V35C1.25 37.0675 2.9325 38.75 5 38.75H10.7325L17.3487 45.3675C17.9112 45.9275 18.6888 46.25 19.4825 46.25C21.1462 46.25 22.5 44.8962 22.5 43.2325V38.75H38.95C38.8312 39.5687 38.75 40.3988 38.75 41.25H37.5C35.4325 41.25 33.75 42.9325 33.75 45V67.5C33.75 69.5675 35.4325 71.25 37.5 71.25H38.75V75.7325C38.75 77.3962 40.1038 78.75 41.7675 78.75C42.5613 78.75 43.3387 78.4275 43.9012 77.8662L50.5175 71.25H75C77.0675 71.25 78.75 69.5675 78.75 67.5V45C78.75 42.9325 77.0675 41.25 75 41.25ZM50.68 36.25H42.125C42.6437 34.7887 43.3812 33.435 44.3 32.2213L50.68 36.25ZM53.75 35C53.75 35.0725 53.72 35.1362 53.7087 35.205L45.995 30.3337C48.1025 28.3525 50.7775 26.9775 53.75 26.4762V35ZM43.8137 28.9563L37.5 24.9688V20.8L53.75 5.40625V23.95C49.8913 24.505 46.4325 26.3075 43.8137 28.9563ZM3.79125 35.205C3.78 35.1362 3.75 35.0725 3.75 35V5.40625L20 20.8013V22.5C20 23.2875 20.1137 24.0463 20.31 24.7725L3.79125 35.205ZM20.3263 17.6663L5.63625 3.75H51.8625L37.1738 17.6663C36.1488 13.9725 32.765 11.25 28.75 11.25C24.735 11.25 21.3512 13.9725 20.3263 17.6663ZM20 36.25V43.2325C20 43.655 19.4163 43.8975 19.1163 43.5988L11.7675 36.25H6.82125L21.3175 27.095C22.8613 29.5838 25.6112 31.25 28.75 31.25V28.75C25.3037 28.75 22.5 25.9463 22.5 22.5V20C22.5 16.5538 25.3037 13.75 28.75 13.75C32.1963 13.75 35 16.5538 35 20V27.5C35 28.1887 34.4388 28.75 33.75 28.75C33.0613 28.75 32.5 28.1887 32.5 27.5V22.5V21.25V20C32.5 17.9325 30.8175 16.25 28.75 16.25C26.6825 16.25 25 17.9325 25 20V22.5C25 24.5675 26.6825 26.25 28.75 26.25C29.19 26.25 29.6075 26.16 30 26.02V27.5C30 29.5675 31.6825 31.25 33.75 31.25C35.6813 31.25 37.2563 29.7787 37.46 27.9012L42.1838 30.885C40.9975 32.49 40.0725 34.295 39.4875 36.2513H20V36.25ZM30 21.25V22.5C30 23.1887 29.4387 23.75 28.75 23.75C28.0613 23.75 27.5 23.1887 27.5 22.5V20C27.5 19.3113 28.0613 18.75 28.75 18.75C29.4387 18.75 30 19.3113 30 20V21.25ZM41.4762 38.75H52.5C54.5675 38.75 56.25 37.0675 56.25 35V26.25C64.5213 26.25 71.25 32.9788 71.25 41.25H41.25C41.25 40.3963 41.3387 39.565 41.4762 38.75ZM67.5 56.25C66.8112 56.25 66.25 55.69 66.25 55V50C66.25 49.31 66.8112 48.75 67.5 48.75C69.5675 48.75 71.25 50.4325 71.25 52.5C71.25 54.5675 69.5675 56.25 67.5 56.25ZM76.25 67.5C76.25 68.19 75.6888 68.75 75 68.75H49.4825L42.135 76.0975C41.8325 76.3988 41.25 76.1537 41.25 75.7325V68.75H37.5C36.8112 68.75 36.25 68.19 36.25 67.5V45C36.25 44.31 36.8112 43.75 37.5 43.75H38.75V52.5C38.75 55.9463 41.5537 58.75 45 58.75C47.0675 58.75 48.75 57.0675 48.75 55V50C48.75 47.9325 47.0675 46.25 45 46.25C43.5875 46.25 42.2975 46.7388 41.25 47.5325V43.75H71.25V47.5325C70.2025 46.7388 68.9125 46.25 67.5 46.25C65.4325 46.25 63.75 47.9325 63.75 50V55C63.75 57.0675 65.4325 58.75 67.5 58.75V60C67.5 60.69 66.9388 61.25 66.25 61.25H59.77C59.2525 59.7988 57.8775 58.75 56.25 58.75C54.1825 58.75 52.5 60.4325 52.5 62.5C52.5 64.5675 54.1825 66.25 56.25 66.25C57.8775 66.25 59.2525 65.2012 59.77 63.75H66.25C68.3175 63.75 70 62.0675 70 60V58.22C72.2038 57.2525 73.75 55.0563 73.75 52.5V43.75H75C75.6888 43.75 76.25 44.31 76.25 45V67.5ZM41.25 52.5C41.25 50.4325 42.9325 48.75 45 48.75C45.6888 48.75 46.25 49.31 46.25 50V55C46.25 55.69 45.6888 56.25 45 56.25C42.9325 56.25 41.25 54.5675 41.25 52.5ZM57.5 62.5C57.5 63.19 56.9388 63.75 56.25 63.75C55.5612 63.75 55 63.19 55 62.5C55 61.81 55.5612 61.25 56.25 61.25C56.9388 61.25 57.5 61.81 57.5 62.5Z" fill="white"/>
<path d="M18.75 61.25H21.25V63.75H18.75V61.25Z" fill="white"/>
<path d="M13.75 61.25H16.25V63.75H13.75V61.25Z" fill="white"/>
<path d="M8.75 61.25H11.25V63.75H8.75V61.25Z" fill="white"/>
<path d="M23.75 61.25H26.25V63.75H23.75V61.25Z" fill="white"/>
<path d="M8.75 56.25H26.25V58.75H8.75V56.25Z" fill="white"/>
<path d="M8.75 51.25H26.25V53.75H8.75V51.25Z" fill="white"/>
</svg>
