<svg width="80" height="80" viewBox="0 0 80 80" fill="none" xmlns="http://www.w3.org/2000/svg">
<path d="M76.25 66.48V25C76.25 21.5537 73.4463 18.75 70 18.75H66.25V5C66.25 2.9325 64.5675 1.25 62.5 1.25H17.5C15.4325 1.25 13.75 2.9325 13.75 5V18.75H10C6.55375 18.75 3.75 21.5537 3.75 25V66.48C2.29875 66.9975 1.25 68.3725 1.25 70C1.25 74.8238 5.17625 78.75 10 78.75H70C74.8238 78.75 78.75 74.8238 78.75 70C78.75 68.3725 77.7012 66.9975 76.25 66.48ZM13.75 61.25H11.25V26.25H13.75V61.25ZM16.25 61.25V18.75H63.75V61.25H16.25ZM66.25 26.25H68.75V61.25H66.25V26.25ZM17.5 3.75H62.5C63.19 3.75 63.75 4.31 63.75 5V16.25H16.25V5C16.25 4.31 16.81 3.75 17.5 3.75ZM10 21.25H13.75V23.75H11.25C9.87125 23.75 8.75 24.8713 8.75 26.25V61.25C8.75 62.6287 9.87125 63.75 11.25 63.75H68.75C70.1288 63.75 71.25 62.6287 71.25 61.25V26.25C71.25 24.8713 70.1288 23.75 68.75 23.75H66.25V21.25H70C72.0675 21.25 73.75 22.9325 73.75 25V66.25H6.25V25C6.25 22.9325 7.9325 21.25 10 21.25ZM48.52 68.75C48.0025 70.2012 46.6275 71.25 45 71.25H35C33.3725 71.25 31.9975 70.2012 31.48 68.75H48.52ZM70 76.25H10C6.55375 76.25 3.75 73.4463 3.75 70C3.75 69.31 4.31 68.75 5 68.75H28.8762C29.4575 71.5987 31.9813 73.75 35 73.75H45C48.0175 73.75 50.5425 71.5987 51.1237 68.75H75C75.69 68.75 76.25 69.31 76.25 70C76.25 73.4463 73.4463 76.25 70 76.25Z" fill="white"/>
<path d="M63.75 71.25H66.25V73.75H63.75V71.25Z" fill="white"/>
<path d="M68.75 71.25H71.25V73.75H68.75V71.25Z" fill="white"/>
<path d="M58.75 71.25H61.25V73.75H58.75V71.25Z" fill="white"/>
<path d="M26.25 6.25H18.75V13.75H26.25V6.25ZM23.75 11.25H21.25V8.75H23.75V11.25Z" fill="white"/>
<path d="M36.25 6.25H28.75V13.75H36.25V6.25ZM33.75 11.25H31.25V8.75H33.75V11.25Z" fill="white"/>
<path d="M46.25 6.25H38.75V13.75H46.25V6.25ZM43.75 11.25H41.25V8.75H43.75V11.25Z" fill="white"/>
<path d="M59.5988 28.5238L60.3438 26.9325L55.5688 22.1575L53.9775 22.9025L53.3763 21.25H46.6237L46.025 22.9012L44.4338 22.1563L39.6587 26.9313L40.4038 28.5225L38.75 29.1237V35.8763L40.4012 36.475L39.6563 38.0662L44.4312 42.8412L46.0225 42.0962L46.6237 43.75H53.3763L53.975 42.0988L55.5662 42.8438L60.3412 38.0688L59.5962 36.4775L61.25 35.8763V29.1237L59.5988 28.5238ZM58.75 34.1237L57.7212 34.4988L57.1688 34.7513L56.635 36.04L57.3363 37.5375L55.0387 39.835L53.5413 39.1337L52.1912 39.6912L51.6237 41.25H48.3763L48.0013 40.2212L47.7488 39.6688L46.46 39.135L44.9625 39.8363L42.665 37.5387L43.3663 36.0413L42.8088 34.6912L41.25 34.1237V30.8763L42.2788 30.5012L42.8312 30.2487L43.365 28.96L42.6638 27.4625L44.9613 25.165L46.4587 25.8663L47.8088 25.3087L48.3763 23.75H51.6237L51.9987 24.7787L52.2512 25.3312L53.54 25.865L55.0375 25.1638L57.335 27.4612L56.6337 28.9587L57.1912 30.3088L58.75 30.8763V34.1237Z" fill="white"/>
<path d="M50 26.25C46.5538 26.25 43.75 29.0538 43.75 32.5C43.75 35.9462 46.5538 38.75 50 38.75C53.4462 38.75 56.25 35.9462 56.25 32.5C56.25 29.0538 53.4462 26.25 50 26.25ZM50 36.25C47.9325 36.25 46.25 34.5675 46.25 32.5C46.25 30.4325 47.9325 28.75 50 28.75C52.0675 28.75 53.75 30.4325 53.75 32.5C53.75 34.5675 52.0675 36.25 50 36.25Z" fill="white"/>
<path d="M58.75 48.75H56.25V56.25H53.75V51.25H51.25V56.25H48.75V48.75H46.25V56.25H43.75V53.75H41.25V56.25H38.75V46.25H36.25V58.75H61.25V56.25H58.75V48.75Z" fill="white"/>
<path d="M36.25 26.25H28.75V28.75H26.25V21.25H18.75V43.75H36.25V26.25ZM23.75 41.25H21.25V23.75H23.75V41.25ZM26.25 41.25V31.25H28.75V41.25H26.25ZM33.75 41.25H31.25V28.75H33.75V41.25Z" fill="white"/>
<path d="M18.75 46.25H21.25V48.75H18.75V46.25Z" fill="white"/>
<path d="M23.75 46.25H33.75V48.75H23.75V46.25Z" fill="white"/>
<path d="M18.75 51.25H33.75V53.75H18.75V51.25Z" fill="white"/>
<path d="M18.75 56.25H33.75V58.75H18.75V56.25Z" fill="white"/>
</svg>
