<svg width="176" height="46" viewBox="0 0 176 46" fill="none" xmlns="http://www.w3.org/2000/svg">
<path d="M21.9505 46H12.7805C11.8005 46 11.2172 45.51 11.0305 44.53L0.180547 2.6C-0.14612 1.52667 0.320547 0.99 1.58055 0.99H8.16055C9.09388 0.99 9.65388 1.48 9.84055 2.46L17.1905 36.9H17.4705L24.8205 2.46C25.0072 1.48 25.5672 0.99 26.5005 0.99H33.0805C34.2472 0.99 34.7139 1.52667 34.4805 2.6L23.6305 44.53C23.3972 45.51 22.8372 46 21.9505 46ZM47.5345 46H41.5845C40.6045 46 40.1145 45.51 40.1145 44.53V2.46C40.1145 1.48 40.6045 0.99 41.5845 0.99H58.6645C62.3045 0.99 65.1278 1.99333 67.1345 4C69.1411 5.96 70.1445 8.76 70.1445 12.4V19.12C70.1445 22.76 69.1411 25.5833 67.1345 27.59C65.1278 29.55 62.3045 30.53 58.6645 30.53H49.8445C49.2845 30.53 49.0045 30.7867 49.0045 31.3V44.53C49.0045 45.51 48.5145 46 47.5345 46ZM49.7745 22.76H57.1945C58.6878 22.76 59.7378 22.4567 60.3445 21.85C60.9511 21.1967 61.2545 20.1467 61.2545 18.7V12.82C61.2545 11.3267 60.9511 10.2767 60.3445 9.67C59.7378 9.01666 58.6878 8.69 57.1945 8.69H49.7745C49.2611 8.69 49.0045 8.94666 49.0045 9.46V21.99C49.0045 22.5033 49.2611 22.76 49.7745 22.76ZM76.1136 34.52V33.12C76.1136 32.14 76.6036 31.65 77.5836 31.65H83.5336C84.5136 31.65 85.0036 32.14 85.0036 33.12V33.68C85.0036 35.4533 85.3536 36.6667 86.0536 37.32C86.7536 37.9733 88.0369 38.3 89.9036 38.3H93.1936C95.0136 38.3 96.2736 37.95 96.9736 37.25C97.7203 36.55 98.0936 35.2433 98.0936 33.33V32.49C98.0936 31.1367 97.5336 30.11 96.4136 29.41C95.3403 28.6633 93.9869 28.22 92.3536 28.08C90.7203 27.94 88.9469 27.6833 87.0336 27.31C85.1669 26.89 83.4169 26.3767 81.7836 25.77C80.1503 25.1167 78.7736 23.88 77.6536 22.06C76.5803 20.1933 76.0436 17.8133 76.0436 14.92V12.47C76.0436 8.83 77.0703 6.00666 79.1236 4C81.1769 1.99333 84.0236 0.99 87.6636 0.99H94.6636C98.3503 0.99 101.22 1.99333 103.274 4C105.327 6.00666 106.354 8.83 106.354 12.47V13.8C106.354 14.78 105.864 15.27 104.884 15.27H98.9336C97.9536 15.27 97.4636 14.78 97.4636 13.8V13.38C97.4636 11.56 97.1136 10.3233 96.4136 9.67C95.7136 9.01666 94.4303 8.69 92.5636 8.69H89.8336C87.9203 8.69 86.6136 9.06333 85.9136 9.81C85.2603 10.51 84.9336 11.91 84.9336 14.01V15.34C84.9336 17.5333 86.8469 18.7933 90.6736 19.12C94.6403 19.4467 98.1636 20.24 101.244 21.5C102.877 22.2 104.23 23.46 105.304 25.28C106.424 27.0533 106.984 29.34 106.984 32.14V34.52C106.984 38.16 105.957 40.9833 103.904 42.99C101.85 44.9967 99.0036 46 95.3636 46H87.7336C84.0936 46 81.2469 44.9967 79.1936 42.99C77.1403 40.9833 76.1136 38.16 76.1136 34.52Z" fill="#C0214B"/>
<path d="M139.328 46H117.068C116.601 46 116.368 45.72 116.368 45.16V1.83C116.368 1.27 116.601 0.99 117.068 0.99H119.098C119.611 0.99 119.868 1.27 119.868 1.83V42.08C119.868 42.5 120.101 42.71 120.568 42.71H139.328C139.888 42.71 140.168 42.9667 140.168 43.48V45.23C140.168 45.7433 139.888 46 139.328 46ZM165.87 46H157.05C154.017 46 151.613 45.1133 149.84 43.34C148.113 41.5667 147.25 39.14 147.25 36.06V10.93C147.25 7.85 148.113 5.42333 149.84 3.65C151.613 1.87667 154.017 0.99 157.05 0.99H165.87C168.903 0.99 171.283 1.87667 173.01 3.65C174.783 5.42333 175.67 7.85 175.67 10.93V14.36C175.67 14.92 175.413 15.2 174.9 15.2H172.94C172.427 15.2 172.17 14.92 172.17 14.36V11.07C172.17 8.83 171.587 7.12666 170.42 5.96C169.3 4.74666 167.667 4.14 165.52 4.14H157.33C155.183 4.14 153.55 4.74666 152.43 5.96C151.31 7.17333 150.75 8.87667 150.75 11.07V35.92C150.75 38.1133 151.31 39.8167 152.43 41.03C153.55 42.2433 155.183 42.85 157.33 42.85H165.52C167.667 42.85 169.3 42.2667 170.42 41.1C171.587 39.8867 172.17 38.16 172.17 35.92V32.63C172.17 32.07 172.427 31.79 172.94 31.79H174.9C175.413 31.79 175.67 32.07 175.67 32.63V36.06C175.67 39.14 174.783 41.5667 173.01 43.34C171.283 45.1133 168.903 46 165.87 46Z" fill="white"/>
</svg>
