<svg width="70" height="70" viewBox="0 0 70 70" fill="none" xmlns="http://www.w3.org/2000/svg">
<rect width="70" height="70" rx="35" fill="#EFF2FF"/>
<path d="M19.0628 45.5716C19.18 45.6888 19.339 45.7547 19.5047 45.7547H19.5049C19.5871 45.7546 19.6684 45.7384 19.7442 45.7069C19.8201 45.6755 19.889 45.6294 19.947 45.5713L20.4414 45.076C20.4654 45.0518 20.494 45.0326 20.5254 45.0194C20.5569 45.0062 20.5906 44.9994 20.6247 44.9993C20.6588 44.9992 20.6926 45.0059 20.7241 45.0189C20.7556 45.0319 20.7843 45.051 20.8084 45.0751C20.8325 45.0992 20.8516 45.1278 20.8647 45.1593C20.8777 45.1908 20.8844 45.2246 20.8843 45.2587C20.8842 45.2928 20.8774 45.3265 20.8643 45.358C20.8512 45.3895 20.8319 45.418 20.8077 45.442L20.3124 45.9381C20.1954 46.0553 20.1297 46.2143 20.1297 46.3799C20.1298 46.5456 20.1956 46.7045 20.3128 46.8216L21.8753 48.3841C21.9333 48.4422 22.0022 48.4882 22.078 48.5196C22.1539 48.551 22.2351 48.5672 22.3172 48.5672H22.3175C22.3996 48.5671 22.4809 48.5509 22.5568 48.5194C22.6326 48.4879 22.7015 48.4418 22.7596 48.3837L23.2005 47.9419C23.2246 47.9178 23.2532 47.8987 23.2846 47.8857C23.3161 47.8726 23.3499 47.866 23.3839 47.866H23.384C23.418 47.866 23.4516 47.8727 23.483 47.8857C23.5143 47.8987 23.5428 47.9178 23.5667 47.9419C23.6151 47.9907 23.6423 48.0566 23.6422 48.1253C23.6421 48.194 23.6148 48.2599 23.5663 48.3085L23.1249 48.7507C23.0078 48.8679 22.9421 49.0268 22.9422 49.1925C22.9423 49.3582 23.0081 49.517 23.1253 49.6341L27.0581 53.5669C27.1753 53.6841 27.3342 53.75 27.5 53.75H27.5038C27.5865 53.7495 27.6683 53.7326 27.7444 53.7002C27.8205 53.6679 27.8895 53.6207 27.9472 53.5615L53.5722 27.3115C53.6871 27.1938 53.751 27.0356 53.75 26.8712C53.749 26.7067 53.6832 26.5493 53.5669 26.433L49.8169 22.683C49.6997 22.5659 49.5407 22.5 49.375 22.5C49.2093 22.5 49.0503 22.5659 48.9331 22.683L48.5667 23.0494C48.5305 23.0856 48.4844 23.1103 48.4342 23.1203C48.384 23.1303 48.3319 23.1252 48.2846 23.1056C48.2373 23.086 48.1969 23.0528 48.1685 23.0102C48.1401 22.9676 48.1249 22.9175 48.125 22.8663C48.1247 22.8323 48.1312 22.7986 48.1442 22.7672C48.1572 22.7357 48.1763 22.7072 48.2005 22.6833L48.5669 22.3169C48.6842 22.1997 48.75 22.0407 48.75 21.875C48.75 21.7092 48.6842 21.5502 48.5669 21.433L47.3169 20.183C47.1997 20.0659 47.0407 20.0001 46.875 20.0001C46.7093 20.0001 46.5503 20.0659 46.4331 20.183L46.0667 20.5494C46.0305 20.5856 45.9844 20.6103 45.9342 20.6203C45.884 20.6303 45.8319 20.6252 45.7846 20.6056C45.7373 20.586 45.6969 20.5528 45.6685 20.5102C45.6401 20.4676 45.6249 20.4175 45.625 20.3663C45.6247 20.3323 45.6312 20.2986 45.6442 20.2672C45.6572 20.2357 45.6763 20.2072 45.7005 20.1833L46.0669 19.8169C46.1842 19.6997 46.25 19.5407 46.25 19.375C46.25 19.2092 46.1842 19.0502 46.0669 18.933L43.5669 16.433C43.4506 16.3167 43.2932 16.251 43.1288 16.25C42.9643 16.249 42.8061 16.3129 42.6884 16.4277L16.4384 42.0527C16.3792 42.1105 16.3321 42.1795 16.2998 42.2556C16.2674 42.3317 16.2505 42.4135 16.25 42.4962C16.2495 42.5789 16.2654 42.6609 16.2969 42.7374C16.3283 42.8139 16.3746 42.8835 16.4331 42.9419L19.0628 45.5716ZM46.9096 30.2935L47.9241 31.308L46.945 32.311L45.9333 31.2994L46.9096 30.2935ZM47.7803 29.3964L48.7567 28.3905L49.7765 29.4104L48.7974 30.4134L47.7803 29.3964ZM45.0626 32.1965L46.0717 33.2056L45.0926 34.2086L44.0863 33.2024L45.0626 32.1965ZM43.2156 34.0995L44.2193 35.1032L43.2401 36.1062L42.2393 35.1053L43.2156 34.0995ZM41.3686 36.0024L42.3669 37.0008L41.3877 38.0038L40.3923 37.0083L41.3686 36.0024ZM39.5216 37.9054L40.5145 38.8983L39.5353 39.9014L38.5453 38.9113L39.5216 37.9054ZM37.6746 39.8084L38.6621 40.7959L37.6829 41.799L36.6982 40.8143L37.6746 39.8084ZM35.8275 41.7114L36.8097 42.6935L35.8305 43.6966L34.8512 42.7173L35.8275 41.7114ZM33.9805 43.6144L34.9573 44.5911L33.9781 45.5942L33.0042 44.6203L33.9805 43.6144ZM32.1335 45.5174L33.1049 46.4887L32.1257 47.4918L31.1572 46.5233L32.1335 45.5174ZM30.2865 47.4204L31.2525 48.3863L29.9646 49.7056L29.0024 48.7434L30.2865 47.4204ZM43.1197 17.7536L44.7437 19.3776C44.4936 19.6659 44.3621 20.0383 44.3756 20.4198C44.3892 20.8012 44.5468 21.1634 44.8167 21.4333C45.0865 21.7031 45.4487 21.8607 45.8301 21.8743C46.2116 21.8878 46.584 21.7563 46.8723 21.5062L47.2437 21.8776C46.9936 22.1659 46.8621 22.5383 46.8756 22.9198C46.8892 23.3012 47.0468 23.6634 47.3167 23.9333C47.5865 24.2031 47.9487 24.3607 48.3301 24.3743C48.7116 24.3878 49.084 24.2563 49.3723 24.0062L52.2464 26.8802L50.6498 28.5158L49.1919 27.058C49.1339 27 49.065 26.9539 48.9892 26.9225C48.9134 26.8911 48.8321 26.875 48.75 26.875H48.7454C48.6625 26.8756 48.5806 26.8927 48.5044 26.9253C48.4282 26.9578 48.3592 27.0052 48.3015 27.0646L27.6765 48.3146C27.5622 48.4324 27.4988 48.5905 27.5 48.7546C27.5013 48.9188 27.567 49.0759 27.6831 49.1919L29.0913 50.6002L27.4947 52.2358L24.4507 49.1918C24.6616 48.9808 24.8052 48.7121 24.8635 48.4195C24.9217 48.1269 24.8919 47.8236 24.7778 47.548C24.6637 47.2723 24.4705 47.0367 24.2225 46.8708C23.9746 46.7049 23.683 46.6163 23.3847 46.616H23.3839C23.1856 46.6155 22.9893 46.6543 22.8061 46.7301C22.6229 46.806 22.4566 46.9174 22.3168 47.0579L21.6383 46.3794L21.6921 46.3254C21.975 46.0424 22.1339 45.6586 22.1338 45.2584C22.1337 44.8582 21.9746 44.4745 21.6916 44.1916C21.4086 43.9087 21.0248 43.7498 20.6246 43.7499C20.2244 43.7499 19.8406 43.909 19.5577 44.192L19.5044 44.2454L17.7643 42.5053L43.1197 17.7536Z" fill="#465DFF"/>
<path d="M25.8081 47.317C25.9253 47.4342 26.0843 47.5 26.25 47.5C26.4158 47.5 26.5747 47.4342 26.6919 47.317L36.0669 37.942C36.125 37.884 36.171 37.8151 36.2024 37.7392C36.2338 37.6634 36.25 37.5821 36.25 37.5C36.25 37.4179 36.2338 37.3367 36.2024 37.2608C36.171 37.185 36.125 37.1161 36.0669 37.0581L31.0669 32.0581C30.9497 31.9409 30.7908 31.8751 30.625 31.8751C30.4593 31.8751 30.3003 31.9409 30.1831 32.0581L20.8081 41.4331C20.75 41.4911 20.704 41.56 20.6726 41.6358C20.6412 41.7117 20.625 41.7929 20.625 41.875C20.625 41.9571 20.6412 42.0384 20.6726 42.1142C20.704 42.1901 20.75 42.259 20.8081 42.317L25.8081 47.317ZM30.625 33.3839L34.7411 37.5L32.5 39.7411L28.3839 35.625L30.625 33.3839ZM27.5 36.5089L31.6161 40.625L29.375 42.8661L25.2589 38.75L27.5 36.5089ZM24.375 39.6339L28.4911 43.75L26.25 45.9912L22.1339 41.875L24.375 39.6339Z" fill="#465DFF"/>
<path d="M37.0581 36.067C37.1753 36.1842 37.3343 36.25 37.5 36.25C37.6658 36.25 37.8247 36.1842 37.9419 36.067L47.3169 26.692C47.375 26.634 47.421 26.5651 47.4524 26.4892C47.4839 26.4134 47.5 26.3321 47.5 26.25C47.5 26.1679 47.4839 26.0867 47.4524 26.0108C47.421 25.935 47.375 25.8661 47.3169 25.8081L42.3169 20.8081C42.1997 20.6909 42.0408 20.6251 41.875 20.6251C41.7093 20.6251 41.5503 20.6909 41.4331 20.8081L32.0581 30.1831C32 30.2411 31.954 30.31 31.9226 30.3858C31.8912 30.4617 31.875 30.5429 31.875 30.625C31.875 30.7071 31.8912 30.7884 31.9226 30.8642C31.954 30.9401 32 31.009 32.0581 31.067L37.0581 36.067ZM41.875 22.1339L45.9911 26.25L43.75 28.4911L39.6339 24.375L41.875 22.1339ZM38.75 25.2589L42.8661 29.375L40.625 31.6161L36.5089 27.5L38.75 25.2589ZM35.625 28.3839L39.7411 32.5L37.5 34.7412L33.3839 30.625L35.625 28.3839Z" fill="#465DFF"/>
</svg>
