<svg width="71" height="70" viewBox="0 0 71 70" fill="none" xmlns="http://www.w3.org/2000/svg">
<rect x="0.314453" width="70" height="70" rx="35" fill="#DDFBEE"/>
<path d="M16.875 53.75H53.125C53.2908 53.75 53.4497 53.6842 53.5669 53.5669C53.6842 53.4497 53.75 53.2908 53.75 53.125V47.5C53.75 47.3342 53.6842 47.1753 53.5669 47.0581C53.4497 46.9409 53.2908 46.875 53.125 46.875H52.5C52.3342 46.875 52.1753 46.8092 52.0581 46.6919C51.9408 46.5747 51.875 46.4158 51.875 46.25C51.875 46.0842 51.9408 45.9253 52.0581 45.8081C52.1753 45.6908 52.3342 45.625 52.5 45.625H53.125C53.2908 45.625 53.4497 45.5591 53.5669 45.4419C53.6842 45.3247 53.75 45.1658 53.75 45V25C53.75 24.8342 53.6842 24.6753 53.5669 24.5581C53.4497 24.4409 53.2908 24.375 53.125 24.375H52.5C52.3342 24.375 52.1753 24.3092 52.0581 24.1919C51.9408 24.0747 51.875 23.9158 51.875 23.75C51.875 23.5842 51.9408 23.4253 52.0581 23.3081C52.1753 23.1908 52.3342 23.125 52.5 23.125H53.125C53.2908 23.125 53.4497 23.0591 53.5669 22.9419C53.6842 22.8247 53.75 22.6658 53.75 22.5V16.875C53.75 16.7092 53.6842 16.5503 53.5669 16.4331C53.4497 16.3159 53.2908 16.25 53.125 16.25H16.875C16.7092 16.25 16.5503 16.3159 16.4331 16.4331C16.3159 16.5503 16.25 16.7092 16.25 16.875V27.5C16.25 27.6658 16.3159 27.8247 16.4331 27.9419C16.5503 28.0591 16.7092 28.125 16.875 28.125H17.5C17.6658 28.125 17.8247 28.1908 17.9419 28.3081C18.0592 28.4253 18.125 28.5842 18.125 28.75C18.125 28.9158 18.0592 29.0747 17.9419 29.1919C17.8247 29.3092 17.6658 29.375 17.5 29.375H16.875C16.7092 29.375 16.5503 29.4409 16.4331 29.5581C16.3159 29.6753 16.25 29.8342 16.25 30V44.375C16.25 44.5408 16.3159 44.6997 16.4331 44.8169C16.5503 44.9341 16.7092 45 16.875 45H17.5C17.6658 45 17.8247 45.0658 17.9419 45.1831C18.0592 45.3003 18.125 45.4592 18.125 45.625C18.125 45.7908 18.0592 45.9497 17.9419 46.0669C17.8247 46.1842 17.6658 46.25 17.5 46.25H16.875C16.7092 46.25 16.5503 46.3159 16.4331 46.4331C16.3159 46.5503 16.25 46.7092 16.25 46.875V53.125C16.25 53.2908 16.3159 53.4497 16.4331 53.5669C16.5503 53.6842 16.7092 53.75 16.875 53.75ZM17.5 47.5C17.9973 47.5 18.4742 47.3025 18.8258 46.9508C19.1775 46.5992 19.375 46.1223 19.375 45.625C19.375 45.1277 19.1775 44.6508 18.8258 44.2992C18.4742 43.9475 17.9973 43.75 17.5 43.75V30.625C17.7462 30.625 17.99 30.5765 18.2175 30.4823C18.445 30.388 18.6517 30.2499 18.8258 30.0758C18.9999 29.9017 19.138 29.695 19.2323 29.4675C19.3265 29.24 19.375 28.9962 19.375 28.75C19.375 28.5038 19.3265 28.26 19.2323 28.0325C19.138 27.805 18.9999 27.5983 18.8258 27.4242C18.6517 27.2501 18.445 27.112 18.2175 27.0177C17.99 26.9235 17.7462 26.875 17.5 26.875V17.5H52.5V21.875C52.2538 21.8744 52.01 21.9225 51.7825 22.0165C51.555 22.1105 51.3484 22.2487 51.1745 22.4229L51.1729 22.4245C50.911 22.6869 50.7328 23.0211 50.6608 23.3848C50.5887 23.7484 50.626 24.1253 50.7681 24.4677C50.9101 24.8102 51.1504 25.1029 51.4586 25.3089C51.7669 25.5149 52.1293 25.6249 52.5 25.625V44.375C52.2538 44.375 52.01 44.4235 51.7825 44.5177C51.555 44.612 51.3483 44.7501 51.1742 44.9242C51.0001 45.0983 50.862 45.305 50.7677 45.5325C50.6735 45.76 50.625 46.0038 50.625 46.25C50.625 46.4962 50.6735 46.74 50.7677 46.9675C50.862 47.195 51.0001 47.4017 51.1742 47.5758C51.3483 47.7499 51.555 47.888 51.7825 47.9823C52.01 48.0765 52.2538 48.125 52.5 48.125V52.5H17.5V47.5Z" fill="#6AC75A"/>
<path d="M19.375 23.125H22.5C22.6658 23.125 22.8247 23.0591 22.9419 22.9419C23.0592 22.8247 23.125 22.6658 23.125 22.5V19.375C23.125 19.2092 23.0592 19.0503 22.9419 18.9331C22.8247 18.8159 22.6658 18.75 22.5 18.75H19.375C19.2092 18.75 19.0503 18.8159 18.9331 18.9331C18.8159 19.0503 18.75 19.2092 18.75 19.375V22.5C18.75 22.6658 18.8159 22.8247 18.9331 22.9419C19.0503 23.0591 19.2092 23.125 19.375 23.125ZM20 20H21.875V21.875H20V20Z" fill="#6AC75A"/>
<path d="M18.75 24.375H20V25.625H18.75V24.375Z" fill="#6AC75A"/>
<path d="M18.75 35.625H20V36.875H18.75V35.625Z" fill="#6AC75A"/>
<path d="M20.625 35.625H21.875V36.875H20.625V35.625Z" fill="#6AC75A"/>
<path d="M18.75 37.5H20V38.75H18.75V37.5Z" fill="#6AC75A"/>
<path d="M20.625 37.5H21.875V38.75H20.625V37.5Z" fill="#6AC75A"/>
<path d="M18.75 39.375H20V40.625H18.75V39.375Z" fill="#6AC75A"/>
<path d="M20.625 39.375H21.875V40.625H20.625V39.375Z" fill="#6AC75A"/>
<path d="M48.125 31.25H49.375V32.5H48.125V31.25Z" fill="#6AC75A"/>
<path d="M50 31.25H51.25V32.5H50V31.25Z" fill="#6AC75A"/>
<path d="M48.125 33.125H49.375V34.375H48.125V33.125Z" fill="#6AC75A"/>
<path d="M50 33.125H51.25V34.375H50V33.125Z" fill="#6AC75A"/>
<path d="M48.125 35H49.375V36.25H48.125V35Z" fill="#6AC75A"/>
<path d="M50 35H51.25V36.25H50V35Z" fill="#6AC75A"/>
<path d="M21.25 24.375H23.125V25.625H21.25V24.375Z" fill="#6AC75A"/>
<path d="M41.25 23.75H30C29.1715 23.7509 28.3772 24.0805 27.7913 24.6663C27.2055 25.2522 26.8759 26.0465 26.875 26.875V43.125C26.8759 43.9535 27.2055 44.7478 27.7913 45.3337C28.3772 45.9195 29.1715 46.2491 30 46.25H41.25C42.0785 46.2491 42.8728 45.9195 43.4587 45.3337C44.0445 44.7478 44.3741 43.9535 44.375 43.125V26.875C44.3741 26.0465 44.0445 25.2522 43.4587 24.6663C42.8728 24.0805 42.0785 23.7509 41.25 23.75ZM43.125 43.125C43.1244 43.6221 42.9267 44.0987 42.5752 44.4502C42.2237 44.8017 41.7471 44.9994 41.25 45H30C29.5029 44.9994 29.0263 44.8017 28.6748 44.4502C28.3233 44.0987 28.1256 43.6221 28.125 43.125V26.875C28.1256 26.3779 28.3233 25.9013 28.6748 25.5498C29.0263 25.1983 29.5029 25.0006 30 25H41.25C41.7471 25.0006 42.2237 25.1983 42.5752 25.5498C42.9267 25.9013 43.1244 26.3779 43.125 26.875V43.125Z" fill="#6AC75A"/>
<path d="M47.5 18.75H44.375C43.8779 18.7506 43.4013 18.9483 43.0498 19.2998C42.6983 19.6513 42.5006 20.1279 42.5 20.625C42.4998 20.7907 42.4339 20.9496 42.3167 21.0667C42.1996 21.1839 42.0407 21.2498 41.875 21.25H40V20.625C39.9994 20.1279 39.8017 19.6513 39.4502 19.2998C39.0987 18.9483 38.6221 18.7506 38.125 18.75H31.875C31.3779 18.7506 30.9013 18.9483 30.5498 19.2998C30.1983 19.6513 30.0006 20.1279 30 20.625V21.25H26.25C25.7529 21.2506 25.2763 21.4483 24.9248 21.7998C24.5733 22.1513 24.3756 22.6279 24.375 23.125V26.25C24.3748 26.4157 24.3089 26.5746 24.1917 26.6917C24.0746 26.8089 23.9157 26.8748 23.75 26.875H22.5C22.0029 26.8756 21.5263 27.0733 21.1748 27.4248C20.8233 27.7763 20.6256 28.2529 20.625 28.75V32.5C20.6256 32.9971 20.8233 33.4737 21.1748 33.8252C21.5263 34.1767 22.0029 34.3744 22.5 34.375C22.6657 34.3752 22.8246 34.4411 22.9417 34.5583C23.0589 34.6754 23.1248 34.8343 23.125 35V43.125C23.1248 43.2907 23.0589 43.4496 22.9417 43.5667C22.8246 43.6839 22.6657 43.7498 22.5 43.75C22.0029 43.7506 21.5263 43.9483 21.1748 44.2998C20.8233 44.6513 20.6256 45.1279 20.625 45.625V49.375C20.6256 49.8721 20.8233 50.3487 21.1748 50.7002C21.5263 51.0517 22.0029 51.2494 22.5 51.25H25.625C26.1221 51.2494 26.5987 51.0517 26.9502 50.7002C27.3017 50.3487 27.4994 49.8721 27.5 49.375C27.5002 49.2093 27.5661 49.0504 27.6833 48.9333C27.8004 48.8161 27.9593 48.7502 28.125 48.75H30V49.375C30.0006 49.8721 30.1983 50.3487 30.5498 50.7002C30.9013 51.0517 31.3779 51.2494 31.875 51.25H38.125C38.6221 51.2494 39.0987 51.0517 39.4502 50.7002C39.8017 50.3487 39.9994 49.8721 40 49.375V48.75H41.875C42.0407 48.7502 42.1996 48.8161 42.3167 48.9333C42.4339 49.0504 42.4998 49.2093 42.5 49.375C42.5006 49.8721 42.6983 50.3487 43.0498 50.7002C43.4013 51.0517 43.8779 51.2494 44.375 51.25H47.5C47.9971 51.2494 48.4737 51.0517 48.8252 50.7002C49.1767 50.3487 49.3744 49.8721 49.375 49.375V41.25C49.3744 40.7529 49.1767 40.2763 48.8252 39.9248C48.4737 39.5733 47.9971 39.3756 47.5 39.375C47.3343 39.3748 47.1754 39.3089 47.0583 39.1917C46.9411 39.0746 46.8752 38.9157 46.875 38.75V30.625C46.8752 30.4593 46.9411 30.3004 47.0583 30.1833C47.1754 30.0661 47.3343 30.0002 47.5 30C47.9971 29.9994 48.4737 29.8017 48.8252 29.4502C49.1767 29.0987 49.3744 28.6221 49.375 28.125V20.625C49.3744 20.1279 49.1767 19.6513 48.8252 19.2998C48.4737 18.9483 47.9971 18.7506 47.5 18.75ZM48.125 28.125C48.1248 28.2907 48.0589 28.4496 47.9417 28.5667C47.8246 28.6839 47.6657 28.7498 47.5 28.75C47.0029 28.7506 46.5263 28.9483 46.1748 29.2998C45.8233 29.6513 45.6256 30.1279 45.625 30.625V38.75C45.6256 39.2471 45.8233 39.7237 46.1748 40.0752C46.5263 40.4267 47.0029 40.6244 47.5 40.625C47.6657 40.6252 47.8246 40.6911 47.9417 40.8083C48.0589 40.9254 48.1248 41.0843 48.125 41.25V49.375C48.1248 49.5407 48.0589 49.6996 47.9417 49.8167C47.8246 49.9339 47.6657 49.9998 47.5 50H44.375C44.2093 49.9998 44.0504 49.9339 43.9333 49.8167C43.8161 49.6996 43.7502 49.5407 43.75 49.375C43.7494 48.8779 43.5517 48.4013 43.2002 48.0498C42.8487 47.6983 42.3721 47.5006 41.875 47.5H36.25V48.75H38.75V49.375C38.7498 49.5407 38.6839 49.6996 38.5667 49.8167C38.4496 49.9339 38.2907 49.9998 38.125 50H31.875C31.7093 49.9998 31.5504 49.9339 31.4333 49.8167C31.3161 49.6996 31.2502 49.5407 31.25 49.375V48.75H34.375V47.5H28.125C27.6279 47.5006 27.1513 47.6983 26.7998 48.0498C26.4483 48.4013 26.2506 48.8779 26.25 49.375C26.2498 49.5407 26.1839 49.6996 26.0667 49.8167C25.9496 49.9339 25.7907 49.9998 25.625 50H22.5C22.3343 49.9998 22.1754 49.9339 22.0583 49.8167C21.9411 49.6996 21.8752 49.5407 21.875 49.375V45.625C21.8752 45.4593 21.9411 45.3004 22.0583 45.1833C22.1754 45.0661 22.3343 45.0002 22.5 45C22.9971 44.9994 23.4737 44.8017 23.8252 44.4502C24.1767 44.0987 24.3744 43.6221 24.375 43.125V35C24.3744 34.5029 24.1767 34.0263 23.8252 33.6748C23.4737 33.3233 22.9971 33.1256 22.5 33.125C22.3343 33.1248 22.1754 33.0589 22.0583 32.9417C21.9411 32.8246 21.8752 32.6657 21.875 32.5V28.75C21.8752 28.5843 21.9411 28.4254 22.0583 28.3083C22.1754 28.1911 22.3343 28.1252 22.5 28.125H23.75C24.2471 28.1244 24.7237 27.9267 25.0752 27.5752C25.4267 27.2237 25.6244 26.7471 25.625 26.25V23.125C25.6252 22.9593 25.6911 22.8004 25.8083 22.6833C25.9254 22.5661 26.0843 22.5002 26.25 22.5H30.625C30.7908 22.5 30.9497 22.4341 31.0669 22.3169C31.1842 22.1997 31.25 22.0408 31.25 21.875V20.625C31.2502 20.4593 31.3161 20.3004 31.4333 20.1833C31.5504 20.0661 31.7093 20.0002 31.875 20H38.125C38.2907 20.0002 38.4496 20.0661 38.5667 20.1833C38.6839 20.3004 38.7498 20.4593 38.75 20.625V21.25H36.25V22.5H41.875C42.3721 22.4994 42.8487 22.3017 43.2002 21.9502C43.5517 21.5987 43.7494 21.1221 43.75 20.625C43.7502 20.4593 43.8161 20.3004 43.9333 20.1833C44.0504 20.0661 44.2093 20.0002 44.375 20H47.5C47.6657 20.0002 47.8246 20.0661 47.9417 20.1833C48.0589 20.3004 48.1248 20.4593 48.125 20.625V28.125Z" fill="#6AC75A"/>
</svg>
