<svg width="70" height="70" viewBox="0 0 70 70" fill="none" xmlns="http://www.w3.org/2000/svg">
<rect width="70" height="70" rx="35" fill="#EDE6FE"/>
<path d="M52.9688 24.3966C53.1138 24.3966 53.2529 24.3389 53.3554 24.2364C53.458 24.1338 53.5156 23.9947 53.5156 23.8497V17.0312C53.5156 16.8862 53.458 16.7471 53.3554 16.6446C53.2529 16.542 53.1138 16.4844 52.9688 16.4844H17.0312C16.8862 16.4844 16.7471 16.542 16.6446 16.6446C16.542 16.7471 16.4844 16.8862 16.4844 17.0312V23.8497C16.4844 23.9947 16.542 24.1338 16.6446 24.2364C16.7471 24.3389 16.8862 24.3966 17.0312 24.3966H18.8281V26.1906H17.0312C16.8862 26.1906 16.7471 26.2482 16.6446 26.3508C16.542 26.4534 16.4844 26.5925 16.4844 26.7375V33.5562C16.4844 33.7013 16.542 33.8404 16.6446 33.9429C16.7471 34.0455 16.8862 34.1031 17.0312 34.1031H18.8281V35.8969H17.0312C16.8862 35.8969 16.7471 35.9545 16.6446 36.0571C16.542 36.1596 16.4844 36.2987 16.4844 36.4438V43.2622C16.4844 43.4072 16.542 43.5463 16.6446 43.6489C16.7471 43.7514 16.8862 43.8091 17.0312 43.8091H18.8281V45.6031H17.0312C16.8862 45.6031 16.7471 45.6607 16.6446 45.7633C16.542 45.8659 16.4844 46.005 16.4844 46.15V52.9688C16.4844 53.1138 16.542 53.2529 16.6446 53.3554C16.7471 53.458 16.8862 53.5156 17.0312 53.5156H52.9688C53.1138 53.5156 53.2529 53.458 53.3554 53.3554C53.458 53.2529 53.5156 53.1138 53.5156 52.9688V46.15C53.5156 46.005 53.458 45.8659 53.3554 45.7633C53.2529 45.6607 53.1138 45.6031 52.9688 45.6031H51.1719V43.8091H52.9688C53.1138 43.8091 53.2529 43.7514 53.3554 43.6489C53.458 43.5463 53.5156 43.4072 53.5156 43.2622V36.4438C53.5156 36.2987 53.458 36.1596 53.3554 36.0571C53.2529 35.9545 53.1138 35.8969 52.9688 35.8969H51.1719V34.1031H52.9688C53.1138 34.1031 53.2529 34.0455 53.3554 33.9429C53.458 33.8404 53.5156 33.7013 53.5156 33.5562V26.7375C53.5156 26.5925 53.458 26.4534 53.3554 26.3508C53.2529 26.2482 53.1138 26.1906 52.9688 26.1906H51.1719V24.3966H52.9688ZM17.5781 17.5781H52.4219V23.3028H17.5781V17.5781ZM52.4219 52.4219H17.5781V46.6969H52.4219V52.4219ZM50.0781 45.6031H19.9219V43.8091H50.0781V45.6031ZM52.4219 42.7153H17.5781V36.9906H52.4219V42.7153ZM50.0781 35.8969H19.9219V34.1031H50.0781V35.8969ZM52.4219 33.0094H17.5781V27.2844H52.4219V33.0094ZM50.0781 26.1906H19.9219V24.3966H50.0781V26.1906Z" fill="#783BFF"/>
<path d="M27.5723 18.9559C27.4272 18.9559 27.2881 19.0135 27.1856 19.1161C27.083 19.2187 27.0254 19.3578 27.0254 19.5028V21.3778C27.0254 21.5228 27.083 21.6619 27.1856 21.7645C27.2881 21.8671 27.4272 21.9247 27.5723 21.9247C27.7173 21.9247 27.8564 21.8671 27.959 21.7645C28.0615 21.6619 28.1191 21.5228 28.1191 21.3778V19.5028C28.1191 19.3578 28.0615 19.2187 27.959 19.1161C27.8564 19.0135 27.7173 18.9559 27.5723 18.9559Z" fill="#783BFF"/>
<path d="M24.5195 18.9559C24.3745 18.9559 24.2354 19.0135 24.1328 19.1161C24.0303 19.2187 23.9727 19.3578 23.9727 19.5028V21.3778C23.9727 21.5228 24.0303 21.6619 24.1328 21.7645C24.2354 21.8671 24.3745 21.9247 24.5195 21.9247C24.6646 21.9247 24.8037 21.8671 24.9062 21.7645C25.0088 21.6619 25.0664 21.5228 25.0664 21.3778V19.5028C25.0664 19.431 25.0523 19.3598 25.0249 19.2935C24.9974 19.2271 24.9571 19.1668 24.9063 19.116C24.8555 19.0652 24.7952 19.0249 24.7289 18.9975C24.6625 18.97 24.5914 18.9559 24.5195 18.9559Z" fill="#783BFF"/>
<path d="M21.4688 18.9559C21.3969 18.9559 21.3258 18.97 21.2594 18.9975C21.1931 19.0249 21.1327 19.0652 21.082 19.116C21.0312 19.1668 20.9909 19.2271 20.9634 19.2935C20.936 19.3598 20.9218 19.431 20.9219 19.5028V21.3778C20.9219 21.5228 20.9795 21.6619 21.0821 21.7645C21.1846 21.8671 21.3237 21.9247 21.4688 21.9247C21.6138 21.9247 21.7529 21.8671 21.8554 21.7645C21.958 21.6619 22.0156 21.5228 22.0156 21.3778V19.5028C22.0156 19.3578 21.958 19.2187 21.8554 19.1161C21.7529 19.0135 21.6138 18.9559 21.4688 18.9559Z" fill="#783BFF"/>
<path d="M48.4502 19.8934H35.9502C35.8052 19.8934 35.6661 19.951 35.5635 20.0536C35.4609 20.1562 35.4033 20.2953 35.4033 20.4403C35.4033 20.5853 35.4609 20.7244 35.5635 20.827C35.6661 20.9296 35.8052 20.9872 35.9502 20.9872H48.4502C48.5952 20.9872 48.7343 20.9296 48.8369 20.827C48.9395 20.7244 48.9971 20.5853 48.9971 20.4403C48.9971 20.2953 48.9395 20.1562 48.8369 20.0536C48.7343 19.951 48.5952 19.8934 48.4502 19.8934Z" fill="#783BFF"/>
<path d="M27.5723 28.6625C27.4272 28.6625 27.2881 28.7201 27.1856 28.8227C27.083 28.9252 27.0254 29.0643 27.0254 29.2094V31.0844C27.0254 31.2294 27.083 31.3685 27.1856 31.471C27.2881 31.5736 27.4272 31.6312 27.5723 31.6312C27.7173 31.6312 27.8564 31.5736 27.959 31.471C28.0615 31.3685 28.1191 31.2294 28.1191 31.0844V29.2094C28.1191 29.0643 28.0615 28.9252 27.959 28.8227C27.8564 28.7201 27.7173 28.6625 27.5723 28.6625Z" fill="#783BFF"/>
<path d="M24.5195 28.6625C24.3745 28.6625 24.2354 28.7201 24.1328 28.8227C24.0303 28.9252 23.9727 29.0643 23.9727 29.2094V31.0844C23.9727 31.2294 24.0303 31.3685 24.1328 31.471C24.2354 31.5736 24.3745 31.6312 24.5195 31.6312C24.6646 31.6312 24.8037 31.5736 24.9062 31.471C25.0088 31.3685 25.0664 31.2294 25.0664 31.0844V29.2094C25.0664 29.1375 25.0523 29.0664 25.0249 29C24.9974 28.9337 24.9571 28.8733 24.9063 28.8226C24.8555 28.7718 24.7952 28.7315 24.7289 28.704C24.6625 28.6766 24.5914 28.6624 24.5195 28.6625Z" fill="#783BFF"/>
<path d="M21.4688 28.6625C21.3969 28.6624 21.3258 28.6766 21.2594 28.704C21.1931 28.7315 21.1327 28.7718 21.082 28.8226C21.0312 28.8733 20.9909 28.9337 20.9634 29C20.936 29.0664 20.9218 29.1375 20.9219 29.2094V31.0844C20.9219 31.2294 20.9795 31.3685 21.0821 31.471C21.1846 31.5736 21.3237 31.6312 21.4688 31.6312C21.6138 31.6312 21.7529 31.5736 21.8554 31.471C21.958 31.3685 22.0156 31.2294 22.0156 31.0844V29.2094C22.0156 29.0643 21.958 28.9252 21.8554 28.8227C21.7529 28.7201 21.6138 28.6625 21.4688 28.6625Z" fill="#783BFF"/>
<path d="M48.4502 29.6H35.9502C35.8052 29.6 35.6661 29.6576 35.5635 29.7602C35.4609 29.8627 35.4033 30.0018 35.4033 30.1469C35.4033 30.2919 35.4609 30.431 35.5635 30.5335C35.6661 30.6361 35.8052 30.6937 35.9502 30.6937H48.4502C48.5952 30.6937 48.7343 30.6361 48.8369 30.5335C48.9395 30.431 48.9971 30.2919 48.9971 30.1469C48.9971 30.0018 48.9395 29.8627 48.8369 29.7602C48.7343 29.6576 48.5952 29.6 48.4502 29.6Z" fill="#783BFF"/>
<path d="M27.5723 38.3688C27.4272 38.3688 27.2881 38.4264 27.1856 38.529C27.083 38.6315 27.0254 38.7706 27.0254 38.9156V40.7906C27.0254 40.9357 27.083 41.0748 27.1856 41.1773C27.2881 41.2799 27.4272 41.3375 27.5723 41.3375C27.7173 41.3375 27.8564 41.2799 27.959 41.1773C28.0615 41.0748 28.1191 40.9357 28.1191 40.7906V38.9156C28.1191 38.7706 28.0615 38.6315 27.959 38.529C27.8564 38.4264 27.7173 38.3688 27.5723 38.3688Z" fill="#783BFF"/>
<path d="M24.5195 38.3688C24.3745 38.3688 24.2354 38.4264 24.1328 38.529C24.0303 38.6315 23.9727 38.7706 23.9727 38.9156V40.7906C23.9727 40.9357 24.0303 41.0748 24.1328 41.1773C24.2354 41.2799 24.3745 41.3375 24.5195 41.3375C24.6646 41.3375 24.8037 41.2799 24.9062 41.1773C25.0088 41.0748 25.0664 40.9357 25.0664 40.7906V38.9156C25.0664 38.8438 25.0523 38.7727 25.0249 38.7063C24.9974 38.64 24.9571 38.5796 24.9063 38.5289C24.8555 38.4781 24.7952 38.4378 24.7289 38.4103C24.6625 38.3829 24.5914 38.3687 24.5195 38.3688Z" fill="#783BFF"/>
<path d="M21.4688 38.3688C21.3969 38.3687 21.3258 38.3829 21.2594 38.4103C21.1931 38.4378 21.1327 38.4781 21.082 38.5289C21.0312 38.5796 20.9909 38.64 20.9634 38.7063C20.936 38.7727 20.9218 38.8438 20.9219 38.9156V40.7906C20.9219 40.9357 20.9795 41.0748 21.0821 41.1773C21.1846 41.2799 21.3237 41.3375 21.4688 41.3375C21.6138 41.3375 21.7529 41.2799 21.8554 41.1773C21.958 41.0748 22.0156 40.9357 22.0156 40.7906V38.9156C22.0156 38.7706 21.958 38.6315 21.8554 38.529C21.7529 38.4264 21.6138 38.3688 21.4688 38.3688Z" fill="#783BFF"/>
<path d="M48.4502 39.3063H35.9502C35.8052 39.3063 35.6661 39.3639 35.5635 39.4665C35.4609 39.569 35.4033 39.7081 35.4033 39.8531C35.4033 39.9982 35.4609 40.1373 35.5635 40.2398C35.6661 40.3424 35.8052 40.4 35.9502 40.4H48.4502C48.5952 40.4 48.7343 40.3424 48.8369 40.2398C48.9395 40.1373 48.9971 39.9982 48.9971 39.8531C48.9971 39.7081 48.9395 39.569 48.8369 39.4665C48.7343 39.3639 48.5952 39.3063 48.4502 39.3063Z" fill="#783BFF"/>
<path d="M27.5723 48.075C27.4272 48.075 27.2881 48.1326 27.1856 48.2352C27.083 48.3377 27.0254 48.4768 27.0254 48.6219V50.4969C27.0254 50.6419 27.083 50.781 27.1856 50.8836C27.2881 50.9861 27.4272 51.0438 27.5723 51.0438C27.7173 51.0438 27.8564 50.9861 27.959 50.8836C28.0615 50.781 28.1191 50.6419 28.1191 50.4969V48.6219C28.1191 48.4768 28.0615 48.3377 27.959 48.2352C27.8564 48.1326 27.7173 48.075 27.5723 48.075Z" fill="#783BFF"/>
<path d="M24.5195 48.075C24.3745 48.075 24.2354 48.1326 24.1328 48.2352C24.0303 48.3377 23.9727 48.4768 23.9727 48.6219V50.4969C23.9727 50.6419 24.0303 50.781 24.1328 50.8836C24.2354 50.9861 24.3745 51.0438 24.5195 51.0438C24.6646 51.0438 24.8037 50.9861 24.9062 50.8836C25.0088 50.781 25.0664 50.6419 25.0664 50.4969V48.6219C25.0664 48.5501 25.0523 48.4789 25.0249 48.4126C24.9974 48.3462 24.9571 48.2859 24.9063 48.2351C24.8555 48.1843 24.7952 48.144 24.7289 48.1166C24.6625 48.0891 24.5914 48.075 24.5195 48.075Z" fill="#783BFF"/>
<path d="M21.4688 48.075C21.3969 48.075 21.3258 48.0891 21.2594 48.1166C21.1931 48.144 21.1327 48.1843 21.082 48.2351C21.0312 48.2859 20.9909 48.3462 20.9634 48.4126C20.936 48.4789 20.9218 48.5501 20.9219 48.6219V50.4969C20.9219 50.6419 20.9795 50.781 21.0821 50.8836C21.1846 50.9861 21.3237 51.0438 21.4688 51.0438C21.6138 51.0438 21.7529 50.9861 21.8554 50.8836C21.958 50.781 22.0156 50.6419 22.0156 50.4969V48.6219C22.0156 48.4768 21.958 48.3377 21.8554 48.2352C21.7529 48.1326 21.6138 48.075 21.4688 48.075Z" fill="#783BFF"/>
<path d="M48.4502 49.0125H35.9502C35.8052 49.0125 35.6661 49.0701 35.5635 49.1727C35.4609 49.2752 35.4033 49.4143 35.4033 49.5594C35.4033 49.7044 35.4609 49.8435 35.5635 49.9461C35.6661 50.0486 35.8052 50.1063 35.9502 50.1063H48.4502C48.5952 50.1063 48.7343 50.0486 48.8369 49.9461C48.9395 49.8435 48.9971 49.7044 48.9971 49.5594C48.9971 49.4143 48.9395 49.2752 48.8369 49.1727C48.7343 49.0701 48.5952 49.0125 48.4502 49.0125Z" fill="#783BFF"/>
</svg>
