<svg width="80" height="80" viewBox="0 0 80 80" fill="none" xmlns="http://www.w3.org/2000/svg">
<path d="M75 1.25H50C47.9325 1.25 46.25 2.9325 46.25 5V20C46.25 22.0675 47.9325 23.75 50 23.75H61.25V38.75H56.25V32.5C56.25 30.4325 54.5675 28.75 52.5 28.75H41.25V15H33.75V7.5C33.75 3.39625 25.575 1.25 17.5 1.25C9.425 1.25 1.25 3.39625 1.25 7.5V22.5C1.25 26.6038 9.425 28.75 17.5 28.75C25.575 28.75 33.75 26.6038 33.75 22.5V17.5H38.75V28.75H27.5C25.4325 28.75 23.75 30.4325 23.75 32.5V47.5C23.75 49.5675 25.4325 51.25 27.5 51.25H38.75V66.25H33.75V60C33.75 57.9325 32.0675 56.25 30 56.25H5C2.9325 56.25 1.25 57.9325 1.25 60V75C1.25 77.0675 2.9325 78.75 5 78.75H30C32.0675 78.75 33.75 77.0675 33.75 75V68.75H41.25V51.25H52.5C54.5675 51.25 56.25 49.5675 56.25 47.5V41.25H63.75V23.75H75C77.0675 23.75 78.75 22.0675 78.75 20V5C78.75 2.9325 77.0675 1.25 75 1.25ZM17.5 3.75C26.3962 3.75 31.25 6.2275 31.25 7.5C31.25 8.7725 26.3962 11.25 17.5 11.25C8.60375 11.25 3.75 8.7725 3.75 7.5C3.75 6.2275 8.60375 3.75 17.5 3.75ZM3.75 10.9788C6.7825 12.8038 12.1562 13.75 17.5 13.75C22.8438 13.75 28.2175 12.8038 31.25 10.9788V12.5C31.25 13.7725 26.3962 16.25 17.5 16.25C8.60375 16.25 3.75 13.7725 3.75 12.5V10.9788ZM3.75 15.9788C6.7825 17.8037 12.1562 18.75 17.5 18.75C22.8438 18.75 28.2175 17.8037 31.25 15.9788V17.5C31.25 18.7725 26.3962 21.25 17.5 21.25C8.60375 21.25 3.75 18.7725 3.75 17.5V15.9788ZM17.5 26.25C8.60375 26.25 3.75 23.7725 3.75 22.5V20.9788C6.7825 22.8038 12.1562 23.75 17.5 23.75C22.8438 23.75 28.2175 22.8038 31.25 20.9788V22.5C31.25 23.7725 26.3962 26.25 17.5 26.25ZM5 58.75H30C30.6887 58.75 31.25 59.3112 31.25 60V63.75H3.75V60C3.75 59.3112 4.31125 58.75 5 58.75ZM30 76.25H5C4.31125 76.25 3.75 75.6888 3.75 75V66.25H31.25V75C31.25 75.6888 30.6887 76.25 30 76.25ZM27.5 31.25H52.5C53.1888 31.25 53.75 31.8113 53.75 32.5V36.25H26.25V32.5C26.25 31.8113 26.8113 31.25 27.5 31.25ZM52.5 48.75H27.5C26.8113 48.75 26.25 48.1888 26.25 47.5V38.75H53.75V47.5C53.75 48.1888 53.1888 48.75 52.5 48.75ZM50 3.75H75C75.6888 3.75 76.25 4.31125 76.25 5V8.75H48.75V5C48.75 4.31125 49.3112 3.75 50 3.75ZM75 21.25H50C49.3112 21.25 48.75 20.6887 48.75 20V11.25H76.25V20C76.25 20.6887 75.6888 21.25 75 21.25Z" fill="white"/>
</svg>
