<svg width="80" height="80" viewBox="0 0 80 80" fill="none" xmlns="http://www.w3.org/2000/svg">
<path d="M40 30C34.4863 30 30 34.4863 30 40C30 45.5138 34.4863 50 40 50C45.5138 50 50 45.5138 50 40C50 34.4863 45.5138 30 40 30ZM40 47.5C35.8637 47.5 32.5 44.1362 32.5 40C32.5 35.8637 35.8637 32.5 40 32.5C44.1362 32.5 47.5 35.8637 47.5 40C47.5 44.1362 44.1362 47.5 40 47.5Z" fill="white"/>
<path d="M40 35C37.2425 35 35 37.2425 35 40C35 42.7575 37.2425 45 40 45C42.7575 45 45 42.7575 45 40C45 37.2425 42.7575 35 40 35ZM40 42.5C38.6212 42.5 37.5 41.3787 37.5 40C37.5 38.6212 38.6212 37.5 40 37.5C41.3787 37.5 42.5 38.6212 42.5 40C42.5 41.3787 41.3787 42.5 40 42.5Z" fill="white"/>
<path d="M76.25 18.98V1.25H41.25V13.98C39.7988 14.4975 38.75 15.8725 38.75 17.5V23.75H35.365L34.56 26.0325C34.3625 26.11 34.1662 26.1912 33.9712 26.2775L31.785 25.2325L25.2325 31.7875L26.2775 33.9725C26.1912 34.1688 26.1087 34.365 26.0325 34.5612L23.75 35.365V44.635L26.0325 45.44C26.11 45.6363 26.1912 45.8325 26.2775 46.0288L26.1725 46.25H5C2.9325 46.25 1.25 47.9325 1.25 50V70C1.25 72.0675 2.9325 73.75 5 73.75H10V76.25H7.5V78.75H32.5V76.25H30V73.75H35C37.0675 73.75 38.75 72.0675 38.75 70V56.25H44.635L45.44 53.9675C45.6363 53.89 45.8325 53.8088 46.0288 53.7225L48.215 54.7675L54.7675 48.215L53.7225 46.0288C53.8088 45.8338 53.8913 45.6375 53.9675 45.44L56.25 44.635V41.25H75C77.0675 41.25 78.75 39.5675 78.75 37.5V22.5C78.75 20.8725 77.7012 19.4975 76.25 18.98ZM73.75 3.75V18.75H57.0225L55.5587 15.8225C54.92 14.5437 53.6338 13.75 52.205 13.75H43.75V3.75H73.75ZM27.5 76.25H12.5V73.75H27.5V76.25ZM35 71.25H5C4.31 71.25 3.75 70.69 3.75 70V68.75H36.25V70C36.25 70.69 35.69 71.25 35 71.25ZM36.25 66.25H3.75V50C3.75 49.31 4.31 48.75 5 48.75H25.7687L31.785 54.7663L33.9712 53.7213C34.1662 53.8075 34.3625 53.89 34.56 53.9663L35.365 56.25H36.25V66.25ZM53.75 42.865L52.0087 43.4788L51.8138 44.0525C51.6512 44.53 51.45 45.0112 51.2175 45.4837L50.95 46.0288L51.7487 47.6975L47.6963 51.75L46.0275 50.9513L45.4825 51.2188C45.01 51.4512 44.5288 51.6525 44.0513 51.815L43.4775 52.01L42.865 53.75H37.135L36.5212 52.0087L35.9475 51.8138C35.47 51.6512 34.9888 51.45 34.5163 51.2175L33.9712 50.95L32.3025 51.7487L28.25 47.6963L29.0487 46.0275L28.7812 45.4825C28.5487 45.01 28.3475 44.5288 28.185 44.0513L27.99 43.4775L26.25 42.865V37.135L27.9912 36.5212L28.1862 35.9487C28.3487 35.4738 28.5487 34.9925 28.7825 34.5163L29.05 33.9725L28.2512 32.305L32.3038 28.2525L33.9725 29.05L34.5175 28.7825C34.9863 28.5512 35.4688 28.3512 35.95 28.1862L36.5225 27.99L37.135 26.25H42.865L43.4788 27.99L44.0513 28.1862C44.5325 28.3512 45.015 28.5512 45.4837 28.7825L46.0288 29.05L47.6975 28.2525L51.75 32.305L50.9513 33.9725L51.2188 34.5163C51.4525 34.9925 51.6525 35.4738 51.815 35.9487L52.01 36.5212L53.75 37.135V42.865ZM76.25 37.5C76.25 38.1888 75.69 38.75 75 38.75H56.25V35.365L53.9675 34.5588C53.89 34.3625 53.8088 34.1663 53.7225 33.97L54.7675 31.785L48.215 25.23L46.0288 26.275C45.835 26.1888 45.6375 26.1075 45.44 26.03L44.635 23.75H41.25V17.5C41.25 16.8112 41.81 16.25 42.5 16.25H52.205C52.6813 16.25 53.11 16.515 53.3237 16.9413L55.4775 21.25H75C75.69 21.25 76.25 21.8113 76.25 22.5V37.5Z" fill="white"/>
<path d="M43.75 18.75H46.25V21.25H43.75V18.75Z" fill="white"/>
<path d="M48.75 18.75H51.25V21.25H48.75V18.75Z" fill="white"/>
<path d="M46.25 6.25H53.75V8.75H46.25V6.25Z" fill="white"/>
<path d="M56.25 6.25H71.25V8.75H56.25V6.25Z" fill="white"/>
<path d="M58.75 11.25H71.25V13.75H58.75V11.25Z" fill="white"/>
<path d="M68.7509 62.5H43.2334L50.3672 69.6338L52.1347 67.8662L49.2684 65H71.2509V53.75H68.7509V62.5Z" fill="white"/>
<path d="M68.75 43.75H71.25V46.25H68.75V43.75Z" fill="white"/>
<path d="M68.75 48.75H71.25V51.25H68.75V48.75Z" fill="white"/>
<path d="M63.75 48.75V57.5H50V60H66.25V48.75H63.75Z" fill="white"/>
<path d="M11.25 17.5H36.7675L29.6337 10.3662L27.8662 12.1337L30.7325 15H8.75V26.25H11.25V17.5Z" fill="white"/>
<path d="M8.75 33.75H11.25V36.25H8.75V33.75Z" fill="white"/>
<path d="M8.75 28.75H11.25V31.25H8.75V28.75Z" fill="white"/>
<path d="M16.25 31.25V22.5H30V20H13.75V31.25H16.25Z" fill="white"/>
</svg>
