<svg width="520" height="313" viewBox="0 0 520 313" fill="none" xmlns="http://www.w3.org/2000/svg">
<rect y="50" width="520" height="260" rx="5" fill="#637DF2"/>
<g clip-path="url(#clip0)">
<path fill-rule="evenodd" clip-rule="evenodd" d="M315.792 206.372C277.337 189.992 244.185 241.557 279.288 282.34C299.953 306.415 355.224 307.533 355.114 265.713C355.004 223.893 398.027 272.565 404.683 232.828C410.871 193.401 410.662 208.325 435.178 194.525C443.506 189.822 451.147 179.002 445.924 166.039C440.322 152.506 420.622 153.254 412.115 159.719C389.867 176.943 403.687 182.56 364.983 172.916C326.567 164.724 354.626 223.323 315.792 206.372Z" fill="#FAD57B"/>
<path fill-rule="evenodd" clip-rule="evenodd" d="M355.544 227.594C356.628 226.841 357.645 226.191 358.831 225.506C369.911 218.284 380.889 210.994 391.761 203.192L392.37 202.713C396.128 199.907 401.24 195.939 401.24 195.939L404.287 193.544C412.243 187.487 420.232 181.158 428.634 175.545L429.237 174.178C428.862 174.076 428.487 173.974 428.111 173.872C419.263 179.042 410.829 184.928 402.257 190.575L398.902 192.766C396.26 194.545 393.787 196.29 391.145 198.07L389.653 198.994C388.027 200.124 386.402 201.253 384.776 202.382C376.037 208.508 367.16 214.394 358.18 220.213C359.043 217.104 359.597 213.79 360.255 210.545C361.242 205.899 362.23 201.252 363.218 196.606C363.218 196.606 364.529 189.671 365.513 184.581C365.513 184.581 365.645 183.932 364.968 184.513C362.018 195.515 359.748 206.379 357.106 217.585C356.775 218.985 356.445 220.386 356.012 221.719C337.579 233.63 319.106 244.926 300.641 257.11C300.336 257.35 300.031 257.589 299.691 257.658C299.922 256.633 300.153 255.608 300.384 254.583L300.416 254.31C302.208 243.276 302.092 232.006 303.817 221.074L303.093 219.709C303.093 219.709 302.313 220.222 302.009 220.462C300.011 231.36 299.752 242.528 297.924 253.391C297.924 253.391 297.671 256.021 297.081 259.164C281.155 269.501 265.126 279.769 248.925 289.628L243.236 293.802C242.46 294.76 242.46 294.76 241.581 295.649L240.747 298.041C240.747 298.041 242.485 298.312 243.303 298.413C243.303 298.413 244.56 298.07 246.09 297.76C248.396 296.493 251.619 294.952 251.619 294.952C270.633 283.279 289.439 271.026 308.142 258.705C312.244 260.988 316.548 262.962 320.749 264.869L325.531 267.014C326.794 267.559 328.433 268.206 328.433 268.206C328.911 268.376 329.389 268.546 329.867 268.716C330.925 269.124 331.984 269.533 333.042 269.941C334.578 270.519 335.364 270.894 335.364 270.894L336.281 270.62C336.281 270.62 336.105 269.766 335.422 269.46C332.824 268.029 329.168 266.189 329.168 266.189C327.801 265.577 326.23 264.827 326.23 264.827C320.698 262.479 315.031 260.335 309.531 257.713C323.625 248.369 337.89 238.991 352.02 229.819C362.09 228.848 372.372 228.902 382.419 229.537C382.419 229.537 387.493 229.667 391.002 229.935C391.002 229.935 392.053 229.456 390.485 229.15C387.281 228.643 382.714 227.966 382.714 227.966C373.959 227.158 364.8 226.966 355.544 227.594Z" fill="#F59E00"/>
<path fill-rule="evenodd" clip-rule="evenodd" d="M187.08 135.967C164.444 172.459 211.87 211.879 258.856 181.699C286.585 163.939 296.266 108.773 253.631 103.815C210.996 98.8565 267.246 61.7084 227.779 50.2328C188.556 39.2627 203.733 41.2802 193.458 15.0781C189.952 6.17561 180.107 -2.78112 166.09 0.874464C151.432 4.8392 149.15 24.6412 154.424 33.9365C168.538 58.2836 176.398 45.1366 160.588 82.6938C146.303 120.138 210.6 99.6712 187.08 135.967Z" fill="#FAD57B"/>
<path fill-rule="evenodd" clip-rule="evenodd" d="M214.857 99.0552C214.257 97.8792 213.751 96.7831 213.237 95.5127C207.591 83.5497 201.859 71.6812 195.59 59.8566L195.196 59.1888C192.918 55.0876 189.664 49.4912 189.664 49.4912L187.694 46.1523C182.744 37.2821 177.623 28.6008 173.117 19.607L171.818 18.8381C171.656 19.2012 171.494 19.5643 171.332 19.9275C175.232 29.4081 179.926 38.5616 184.355 47.8242L186.069 51.4464C187.474 54.3065 188.87 56.9923 190.275 59.8523L190.986 61.4566C191.886 63.2205 192.785 64.9844 193.685 66.7483C198.576 76.2357 203.202 85.8322 207.743 95.5231C204.708 94.2831 201.417 93.3265 198.212 92.2755C193.63 90.7242 189.048 89.1729 184.467 87.6216C184.467 87.6216 177.603 85.469 172.568 83.8671C172.568 83.8671 171.927 83.6569 172.415 84.4045C183.169 88.6897 193.888 92.2779 204.899 96.2798C206.275 96.78 207.651 97.2803 208.942 97.8749C218.23 117.765 226.885 137.619 236.447 157.574C236.644 157.908 236.841 158.242 236.858 158.59C235.849 158.235 234.841 157.88 233.832 157.525L233.559 157.459C222.592 154.329 211.09 153.079 200.217 150.028L198.714 150.588C198.714 150.588 199.117 151.43 199.314 151.764C210.11 155.084 221.45 156.697 232.237 159.842C232.237 159.842 234.878 160.414 237.99 161.385C246.137 178.306 254.123 195.59 261.664 212.997L265.039 219.196C265.894 220.089 265.894 220.089 266.665 221.076L268.973 222.2C268.973 222.2 269.518 220.494 269.747 219.688C269.747 219.688 269.592 218.388 269.513 216.82C268.578 214.359 267.506 210.947 267.506 210.947C258.551 190.505 248.972 170.201 239.308 149.992C242.268 146.164 244.945 142.096 247.538 138.123L250.463 133.598C251.213 132.399 252.125 130.837 252.125 130.837C252.372 130.38 252.62 129.922 252.867 129.465C253.447 128.455 254.026 127.445 254.606 126.436C255.433 124.969 255.936 124.228 255.936 124.228L255.798 123.277C255.798 123.277 254.901 123.35 254.483 123.996C252.624 126.422 250.184 129.858 250.184 129.858C249.349 131.151 248.342 132.633 248.342 132.633C245.094 137.885 242.033 143.296 238.511 148.482C231.169 133.245 223.818 117.834 216.655 102.583C217.223 92.3882 218.868 82.1057 221.068 72.1279C221.068 72.1279 221.984 67.0665 222.8 63.588C222.8 63.588 222.474 62.4772 221.92 64.0096C220.907 67.1542 219.512 71.6423 219.512 71.6423C217.165 80.4948 215.648 89.7171 214.857 99.0552Z" fill="#F59E00"/>
<path fill-rule="evenodd" clip-rule="evenodd" d="M312.305 222.546C341.581 209.662 334.599 177.861 346.704 155.621C355.13 140.013 373.919 134.364 385.383 121.197C393.211 112.189 394.338 101.157 395.339 89.9016C396.432 77.1396 396.463 64.3557 397.077 51.5418C397.183 48.9138 397.226 46.2634 397.686 43.6426C397.725 43.3605 398.49 39.7819 398.282 39.7672C393.252 38.3957 383.783 45.2218 380.382 47.3315C362.011 58.8158 357.444 78.0454 351.496 96.251C345.546 114.278 318.008 114.215 309.865 131.463C305.475 140.626 309.011 151.241 308.791 161.055C308.633 167.811 305.095 173.9 305.061 180.7C305.087 186.988 307.985 193.053 309.031 199.288C310.384 207.647 309.317 215.621 308.961 223.787" fill="#2B61AB"/>
<path fill-rule="evenodd" clip-rule="evenodd" d="M310.346 222.801C310.66 223.091 310.828 223.209 311.393 223.588C311.497 223.506 311.683 223.395 311.787 223.313C312.284 222.956 312.989 222.436 312.989 222.436C312.989 222.436 313.49 222.614 314.11 221.946C317.974 217.75 321.693 213.562 324.03 208.349L324.05 208.297C326.665 201.288 327.339 193.767 327.888 186.38C327.888 186.38 327.998 184.286 328.069 182.653C328.084 181.889 328.142 181.198 328.157 180.433C328.738 168.792 330.943 157.017 338.247 147.527C342.807 141.563 349.21 136.906 355.214 131.989C355.214 131.989 357.678 129.902 359.582 128.149C362.395 125.535 365.062 122.75 367.268 119.683C370.196 115.51 372.599 110.854 373.981 106.251C373.981 106.251 373.94 106.355 374.002 106.199C374.45 104.877 375.311 102.872 373.394 102.843C372.331 102.821 371.236 103.972 370.2 104.79C362.288 110.925 357.394 119.553 349.672 126.112C344.082 130.88 337.864 135.069 332.232 139.763C322.481 147.852 315.376 159.013 315.137 171.782C314.922 182.309 318.085 193.147 317.788 203.704C317.727 206.763 317.396 209.963 316.502 212.962L316.481 213.014C314.798 216.385 312.404 219.385 309.465 221.955L309.99 222.616C310.199 222.631 310.303 222.727 310.346 222.801Z" fill="#1A3F73"/>
<path fill-rule="evenodd" clip-rule="evenodd" d="M259.503 252.944C237.76 231.235 211.756 248.581 187.64 245.505C170.74 243.409 159.128 228.562 143.35 222.895C132.56 219.03 122.3 221.871 111.885 224.902C100.09 228.376 88.6454 232.809 76.9709 236.73C74.5836 237.553 72.1982 238.439 69.6938 238.942C69.4276 239.005 65.96 239.568 66.0195 239.76C66.5489 244.741 75.9597 250.835 79.0336 253.143C95.7181 265.58 114.51 262.958 132.869 261.93C151.069 260.966 160.626 285.638 178.895 286.908C188.622 287.641 196.881 280.772 205.735 277.545C211.833 275.329 218.514 276.372 224.607 274.029C230.222 271.812 234.634 267.102 239.846 263.99C246.849 259.863 254.352 258.035 261.781 255.505" fill="#2B61AB"/>
<path fill-rule="evenodd" clip-rule="evenodd" d="M260.358 254.607C260.507 254.224 260.554 254.033 260.696 253.395C260.586 253.331 260.422 253.203 260.312 253.139C259.82 252.818 259.109 252.369 259.109 252.369C259.109 252.369 259.093 251.858 258.279 251.536C253.177 249.541 248.133 247.674 242.656 247.402L242.602 247.401C235.421 247.506 228.459 249.527 221.661 251.613C221.661 251.613 219.75 252.245 218.265 252.751C217.575 253.004 216.938 253.194 216.249 253.447C205.635 256.988 194.334 259.123 183.296 255.897C176.371 253.896 169.971 249.79 163.478 246.131C163.478 246.131 160.751 244.654 158.519 243.562C155.199 241.956 151.777 240.54 148.264 239.636C143.51 238.472 138.507 237.945 133.907 238.314C133.907 238.314 134.014 238.314 133.854 238.314C132.515 238.373 130.422 238.303 131.065 240.028C131.416 240.987 132.828 241.566 133.92 242.208C142.169 247.149 151.595 248.52 160.156 253.143C166.371 256.482 172.289 260.586 178.453 263.989C189.091 269.895 201.553 272.361 213.056 268.12C222.546 264.638 231.135 258.026 240.68 254.609C243.437 253.596 246.414 252.776 249.409 252.53L249.463 252.53C253.065 252.861 256.584 253.957 259.909 255.691L260.316 254.99C260.258 254.862 260.308 254.735 260.358 254.607Z" fill="#1A3F73"/>
<path d="M173.495 203.064C182.628 208.843 192.459 212.901 202.403 214.364L202.789 214.505C204.612 215.459 203.389 215.11 203.389 215.11C202.937 215.203 202.539 215.333 202.539 215.333C192.583 214.141 182.884 210.093 173.632 204.353L173.592 204.526L173.047 204.276C172.953 204.094 172.859 203.911 172.846 203.862C172.26 203.465 171.688 203.118 171.102 202.722C167.681 205.113 165.447 209.464 163.173 213.189C158.042 221.681 152.791 230.212 145.365 235.557C144.609 236.122 143.429 236.879 143.429 236.879C142.248 237.476 140.574 237.54 140.783 236.405L141.18 235.797C141.246 235.722 141.312 235.647 141.339 235.585C145.654 229.651 148.716 222.791 153.044 216.586C156.802 211.153 161.319 206.433 166.706 203.457C167.767 202.899 168.882 202.377 169.997 202.014C165.523 198.988 161.168 195.604 156.919 191.972L156.852 192.047C156.494 192.163 156.48 192.114 156.308 192.117C148.309 192.369 141.536 198.355 133.626 201.617C128.277 203.781 122.662 205.765 117.294 205.962C116.523 205.999 115.353 205.846 115.353 205.846C115.247 205.774 115.154 205.751 115.007 205.692C114.954 205.656 114.861 205.633 114.794 205.548C114.741 205.512 114.688 205.476 114.634 205.44C114.088 205.031 113.488 204.266 114.749 203.803C115.532 203.495 117.801 202.118 119.711 201.018C124.487 198.187 129.168 195.013 134.238 192.78C140.236 190.138 146.58 187.491 152.964 189.097C153.296 189.202 153.668 189.295 154.001 189.4C150.084 185.873 146.299 182.197 142.634 178.482C141.675 177.514 140.755 176.533 139.848 175.601C139.769 175.626 140.154 175.608 138.679 175.607C131.862 175.422 125.331 177.863 118.478 179.289C113.644 180.326 108.797 181.154 103.922 181.885C99.884 182.503 95.6202 183.088 91.8546 181.378C91.5086 181.224 91.2284 180.835 91.2284 180.835C91.027 180.101 90.8681 180.312 91.4516 179.91C92.3931 179.23 93.908 179.218 95.2885 178.717C104.885 175.119 114.535 171.239 124.526 170.66C127.436 170.514 130.346 170.689 133.192 171.417C134.814 171.797 136.292 172.597 137.782 173.446C132.678 168.118 127.665 162.654 122.613 157.204C122.387 157.17 122.201 157.124 122.201 157.124C121.349 156.708 121.323 156.929 121.111 156.945C120.34 156.982 119.211 157.135 119.211 157.135C119.078 157.125 118.919 157.177 118.746 157.18C114.15 157.66 109.65 159.281 105.054 159.921C98.9968 160.769 92.6966 160.255 86.6081 159.407C85.4781 159.241 83.496 158.498 84.4235 157.61C84.8742 157.197 85.7518 157.392 85.9111 157.341C86.9336 157.115 87.9163 156.903 88.9254 156.628C96.4681 154.871 103.902 152.403 111.97 153.035C115.027 153.269 118.073 154.093 121 155.435C117.134 151.305 113.269 147.175 109.39 143.155C108.057 141.775 106.671 140.359 105.312 139.041C102.023 136.857 98.5499 135.105 95.1159 133.181C87.4759 128.891 79.7159 124.479 72.9757 118.884C71.7369 117.846 70.7111 116.953 69.2444 115.243C68.9378 114.916 68.8563 114.303 68.8563 114.303C69.0007 113.723 67.7897 113.103 71.7262 114.17C83.6286 117.396 96.4333 124.702 106.258 135.534C109.125 138.709 112.004 141.933 114.075 145.846C115.368 147.239 116.648 148.583 117.941 149.976C113.528 140.531 112.603 128.621 112.211 117.071C112.136 114.109 111.994 111.062 112.371 108.167C112.579 106.553 113.913 108.413 113.913 108.413C115.688 110.929 116.64 114.085 117.527 117.317C120.872 129.668 117.934 143.153 122.354 154.835C122.794 155.332 123.273 155.816 123.713 156.313C124.086 156.405 124.245 156.513 124.033 156.529L124.007 156.591C127.419 160.335 130.792 164.092 134.191 167.787C130.332 161.148 128.647 152.951 128.185 144.942C128.185 144.783 128.185 144.783 128.197 144.672C127.925 137.828 128.769 131.102 129.441 124.378C129.517 123.394 129.22 121.517 130.405 122.519C131.098 122.987 131.085 123.258 131.325 123.659C132.034 124.976 132.503 126.37 132.866 127.852C135.029 135.894 136.288 144.123 137.125 152.863C137.836 160.044 137.393 167.44 140.15 174.17C143.442 177.633 146.801 181.021 150.159 184.249C149.705 183.384 148.381 180.614 147.683 178.228C145.575 170.701 145.91 162.594 146.127 155.005C146.247 150.7 146.354 146.346 146.661 142.087C146.737 140.783 146.119 138.69 147.61 139.379L148.182 139.727C150.889 143.113 151.622 148.314 152.221 153.345C153.393 163.149 152.797 172.994 154.287 182.695C154.666 185.185 155.272 187.708 156.328 189.977C160.405 193.612 164.627 196.986 168.942 200.064C168.995 200.1 169.101 200.172 169.155 200.208C165.645 195.323 164.03 188.169 163.4 181.761C162.498 173.096 162.34 164.456 161.756 155.847C161.701 155.012 161.592 153.981 161.592 153.981C161.868 153.091 162.202 153.676 162.429 154.029C162.669 154.431 162.723 154.467 162.723 154.467C164.275 158.388 165.589 162.387 166.731 166.549C169.095 175.326 170.809 184.261 171.686 193.307C172.121 196.632 172.436 199.996 173.495 203.064ZM162.882 154.575C162.869 154.526 162.882 154.575 162.882 154.575V154.575Z" fill="#F59E00"/>
<path d="M360.495 196.748C360.495 255.957 312.532 303.946 253.356 303.946C194.18 303.946 146.217 255.957 146.217 196.748C146.217 137.539 194.18 89.5491 253.356 89.5491C312.532 89.5491 360.495 137.539 360.495 196.748Z" fill="#B1BACA"/>
<g opacity="0.55">
<g opacity="0.55">
<path opacity="0.55" d="M350.749 196.704C350.749 250.509 307.189 294.093 253.414 294.093C199.639 294.093 156.079 250.509 156.079 196.704C156.079 142.899 199.639 99.3144 253.414 99.3144C307.189 99.3144 350.749 142.899 350.749 196.704Z" fill="white"/>
</g>
</g>
<path d="M340.829 196.74C340.829 245.023 301.672 284.202 253.415 284.202C205.159 284.202 166.001 245.023 166.001 196.74C166.001 148.457 205.159 109.278 253.415 109.278C301.672 109.278 340.829 148.398 340.829 196.74Z" fill="white"/>
<path d="M253.596 280.339H253.424C252.137 280.339 251.193 279.309 251.193 278.106V266.686C251.193 265.397 252.223 264.453 253.424 264.453H253.596C254.883 264.453 255.827 265.483 255.827 266.686V278.106C255.913 279.309 254.883 280.339 253.596 280.339ZM196.18 254.32L196.094 254.234C195.236 253.376 195.236 251.916 196.094 251.057L201.243 245.905C202.102 245.046 203.561 245.046 204.419 245.905L204.505 245.991C205.363 246.849 205.363 248.309 204.505 249.168L199.355 254.32C198.497 255.265 197.038 255.265 196.18 254.32ZM303.459 246.763L303.545 246.678C304.403 245.819 305.862 245.819 306.72 246.678L310.84 250.799C311.698 251.658 311.698 253.118 310.84 253.977L310.754 254.062C309.896 254.921 308.437 254.921 307.579 254.062L303.459 249.941C302.515 249.082 302.515 247.622 303.459 246.763ZM183.478 199.191H172.063C170.776 199.191 169.832 198.16 169.832 196.958V196.786C169.832 195.498 170.862 194.554 172.063 194.554H183.478C184.765 194.554 185.709 195.584 185.709 196.786V196.958C185.709 198.246 184.679 199.191 183.478 199.191ZM334.699 198.933H323.284C321.997 198.933 321.053 197.903 321.053 196.701V196.529C321.053 195.241 322.083 194.296 323.284 194.296H334.699C335.986 194.296 336.93 195.327 336.93 196.529V196.701C337.016 197.903 335.986 198.933 334.699 198.933ZM195.837 139.51L195.922 139.425C196.781 138.566 198.24 138.566 199.098 139.425L204.247 144.577C205.105 145.436 205.105 146.895 204.247 147.754L204.161 147.84C203.303 148.699 201.844 148.699 200.986 147.84L195.837 142.688C194.892 141.829 194.892 140.369 195.837 139.51ZM303.373 146.638L303.287 146.552C302.429 145.693 302.429 144.233 303.287 143.375L307.407 139.253C308.265 138.394 309.724 138.394 310.582 139.253L310.668 139.339C311.526 140.197 311.526 141.657 310.668 142.516L306.549 146.638C305.69 147.582 304.231 147.582 303.373 146.638ZM253.338 129.034H253.167C251.879 129.034 250.935 128.004 250.935 126.802V115.381C250.935 114.093 251.965 113.148 253.167 113.148H253.338C254.626 113.148 255.57 114.179 255.57 115.381V126.802C255.57 128.004 254.626 129.034 253.338 129.034Z" fill="#B1BACA"/>
<path d="M253.469 198.052H253.293C251.884 198.052 250.769 196.936 250.769 195.527V140.606C250.769 139.196 251.884 138.08 253.293 138.08H253.469C254.878 138.08 255.993 139.196 255.993 140.606V195.585C255.993 196.936 254.819 198.052 253.469 198.052Z" fill="#FAD57B"/>
<path d="M250.749 200.138V199.962C250.749 198.553 251.864 197.436 253.273 197.436H291.256C292.665 197.436 293.781 198.553 293.781 199.962V200.138C293.781 201.548 292.665 202.664 291.256 202.664H253.273C251.864 202.605 250.749 201.489 250.749 200.138Z" fill="#FAD57B"/>
<path d="M298.78 162.454L253.717 196.475" stroke="#2B61AB" stroke-width="2.92" stroke-miterlimit="10" stroke-linecap="round"/>
<path d="M262.866 196.717C262.866 201.945 258.639 206.174 253.414 206.174C248.19 206.174 243.963 201.945 243.963 196.717C243.963 191.489 248.19 187.26 253.414 187.26C258.639 187.26 262.866 191.489 262.866 196.717Z" fill="#F6A600"/>
<path fill-rule="evenodd" clip-rule="evenodd" d="M249.38 172.371C249.36 172.159 250.192 170.621 250.303 170.439C250.708 169.564 250.798 169.17 250.926 168.301C251.04 167.497 250.798 167.65 250.873 167.321C250.887 167.255 251.15 167.315 251.419 167.652C251.84 168.232 251.574 168.793 251.654 168.742C252.227 168.044 254.146 165.371 254.481 165.723C254.648 165.899 252.472 168.79 252.487 168.724C252.744 168.506 254.269 167.264 254.812 166.697C255.34 166.195 255.472 166.225 255.537 166.24C255.603 166.255 255.478 166.502 255.287 166.735C254.743 167.303 253.185 169.298 252.944 169.45C252.863 169.501 254.842 168.085 255.618 167.709C256.152 167.485 256.576 167.443 255.806 168.097C255.278 168.599 254.648 168.939 254.069 169.36C253.812 169.578 253.379 169.964 253.123 170.182C253.027 170.298 254.433 169.581 254.952 169.423C255.245 169.351 255.537 169.28 255.815 169.274C255.961 169.238 255.886 169.566 255.645 169.719C255.096 170.008 254.349 170.253 253.836 170.689C253.323 171.125 252.744 171.546 252.132 172.72C251.831 173.135 249.38 172.371 249.38 172.371Z" fill="#F9C1B6"/>
<path fill-rule="evenodd" clip-rule="evenodd" d="M232.325 194.177C228.76 197.821 229.657 208.532 237.521 195.647L252.349 172.258C252.349 172.258 252.086 169.017 249.685 171.478C247.318 174.004 235.903 190.48 232.325 194.177Z" fill="#F9C1B6"/>
<path fill-rule="evenodd" clip-rule="evenodd" d="M225.847 199.552C224.404 199.903 229.165 206.544 231.308 205.28C231.602 205.089 233.638 203.142 235.342 200.618L242.44 189.669L238.007 186.239L228.976 197.94C229.014 197.999 228.682 198.84 225.847 199.552Z" fill="#FAD57B"/>
<path fill-rule="evenodd" clip-rule="evenodd" d="M214.279 190.711C211.446 191.835 209.708 195.56 209.633 198.974C209.598 201.467 210.283 203.955 209.711 206.412C208.881 209.889 205.3 210.669 204.212 213.847C203.68 215.382 203.896 217.922 205.363 218.921C205.814 219.228 207.414 219.285 207.508 219.721C208.045 222.191 205.202 225.7 207.469 227.945C208.199 228.648 209.671 228.784 210.515 228.245C210.597 228.176 211.54 227.21 211.551 227.259C212.243 227.564 212.911 229.092 213.472 229.68C215.287 231.617 218.046 233.248 220.677 232.523C221.493 232.294 222.21 231.834 222.86 231.287C227.077 227.681 234.478 228.554 235.612 222.931C237.161 215.241 230.833 216.873 231.98 211.755C233.355 205.471 229.818 205.126 228.967 202.319C228.236 199.842 228.289 196.99 227.294 194.621C225.727 190.956 220.612 188.216 214.279 190.711Z" fill="#FF8A93"/>
<path fill-rule="evenodd" clip-rule="evenodd" d="M210.821 234.107C210.821 234.107 213.653 238.242 213.29 242.525C212.281 254.037 206.381 266.995 203.421 273.64C200.464 280.231 196.557 297.33 196.264 303.294C196.264 303.294 194.889 306.735 193.669 303.7C192.449 300.666 189.669 279.428 196.871 270.964C196.871 270.964 191.615 245.22 203.489 235.241C206.312 232.836 210.821 234.107 210.821 234.107Z" fill="#F58A88"/>
<path fill-rule="evenodd" clip-rule="evenodd" d="M220.1 205.501C217.862 205.583 217.299 203.871 217.299 203.871C217.299 203.871 216.181 204.575 215.121 203.253C214.498 202.398 215.118 201.852 215.491 201.617C216.546 201.07 218.167 203.091 218.353 202.701C219.344 200.986 218.223 200.366 217.6 199.666C217.039 199.045 217.284 197.643 218.465 197.485C223.624 196.851 222.619 192.493 223.43 193.425C225.736 196.223 226.247 201.828 225.693 204.165C225.755 204.243 221.53 205.42 220.1 205.501Z" fill="#F9C1B6"/>
<path fill-rule="evenodd" clip-rule="evenodd" d="M183.221 237.05C183.138 237.246 181.669 238.194 181.485 238.301C180.709 238.873 180.441 239.176 179.912 239.876C179.427 240.526 179.712 240.509 179.489 240.761C179.444 240.812 179.243 240.633 179.169 240.208C179.078 239.498 179.58 239.133 179.485 239.139C178.647 239.476 175.681 240.898 175.557 240.428C175.495 240.193 178.791 238.704 178.746 238.754C178.416 238.822 176.482 239.179 175.734 239.415C175.029 239.601 174.929 239.512 174.878 239.467C174.828 239.423 175.057 239.266 175.336 239.153C176.085 238.917 178.409 237.916 178.694 237.898C178.789 237.893 176.374 238.183 175.512 238.14C174.936 238.08 174.545 237.913 175.534 237.709C176.238 237.523 176.954 237.527 177.664 237.436C177.993 237.368 178.558 237.238 178.888 237.171C179.027 237.114 177.45 237.067 176.919 236.957C176.628 236.879 176.337 236.801 176.091 236.673C175.945 236.634 176.168 236.382 176.453 236.364C177.074 236.374 177.846 236.518 178.506 236.383C179.165 236.247 179.875 236.156 180.975 235.421C181.483 235.151 183.221 237.05 183.221 237.05Z" fill="#F9C1B6"/>
<path fill-rule="evenodd" clip-rule="evenodd" d="M221.04 217.707C220.766 215.395 219.052 210.88 214.613 209.935C212.249 209.453 208.718 223.264 209.885 231.304C210.397 234.792 213.072 238.413 214.745 235.318C216.502 232.203 221.337 219.969 221.04 217.707Z" fill="#F9C1B6"/>
<path fill-rule="evenodd" clip-rule="evenodd" d="M217.546 202.942C217.546 202.942 218.248 207.683 216.257 209.921C214.646 211.844 221.127 212.903 221.986 211.114L223.36 204.674C223.36 204.674 222.649 203.053 217.546 202.942Z" fill="#F9C1B6"/>
<path fill-rule="evenodd" clip-rule="evenodd" d="M216.172 228.699L215.847 233.105C215.847 233.105 212.879 242.044 209.558 245.032C206.16 248.037 205.864 247.983 205.861 245.676C205.859 243.369 206.913 237.379 201.762 234.146C201.762 234.146 205.419 232.094 208.505 231.791C210.356 231.57 209.94 224.985 209.94 224.985L216.172 228.699Z" fill="#F9C1B6"/>
<path fill-rule="evenodd" clip-rule="evenodd" d="M209.294 237.608C209.294 237.608 211.571 243.22 210.652 247.432C209.733 251.643 200.933 266.92 197.156 273.116C193.39 279.256 184.85 285.843 174.481 292.853C174.481 292.853 173.013 293.637 174.573 290.815C176.529 287.388 183.108 274.969 191.296 269.567C191.296 269.567 190.098 243.316 202.802 235.015C205.869 233.074 209.294 237.608 209.294 237.608Z" fill="#F9C1B6"/>
<path fill-rule="evenodd" clip-rule="evenodd" d="M195.638 303.599C195.63 303.302 195.502 301.714 196.53 303.593C197.032 304.506 197.538 305.896 199.242 307.576C200.335 308.665 201.764 308.249 202.119 308.654C202.588 309.215 202.591 309.035 202.412 309.67C201.945 309.766 201.453 309.809 200.975 309.788C199.966 309.818 199.013 309.596 198.155 309.116C196.58 308.187 192.944 303.858 192.717 303.546C193.061 302.339 193.558 302.774 193.453 302.078C193.626 301.803 195.13 303.046 195.638 303.599Z" fill="black"/>
<path d="M194.936 304.791C194.735 304.565 194.492 304.338 194.273 304.055C193.549 303.263 192.59 302.02 192.53 301.964C191.81 301.06 190.079 300.859 193.092 304.255C194.691 306.288 195.955 308.315 197.793 309.575C200.161 311.178 203.112 311.792 205.594 312.619L207.13 312.982L207.324 312.819L206.713 312.362C206.033 312.071 205.372 311.836 204.711 311.6L205.59 311.618C205.845 311.511 205.849 311.4 205.634 311.007C205.217 310.387 204.43 309.036 204.43 309.036C203.579 308.853 202.756 309.004 201.804 309.263C201.095 308.638 199.169 306.376 197.144 305.669C197.144 305.669 196.095 305.148 195.537 304.97C195.35 304.911 195.122 304.851 194.936 304.791ZM201.279 309.309C200.191 309.288 199.381 309.105 198.602 308.645C197.908 308.186 197.259 307.618 196.698 306.939C196.338 306.487 195.905 306.312 195.721 305.641C196.447 305.822 197.108 306.057 197.83 306.349C198.696 306.7 199.36 307.436 199.644 307.664C200.149 308.174 200.327 308.456 200.63 308.74C200.812 308.91 201.017 309.026 201.279 309.309ZM196.459 305.488L195.924 305.256C195.863 305.199 196.543 305.49 196.459 305.488Z" fill="#ECEEEE"/>
<path fill-rule="evenodd" clip-rule="evenodd" d="M174.295 292.492C174.576 292.393 176.046 291.782 174.575 293.34C173.862 294.099 173.459 295.047 172.637 297.272C172.347 298.064 171.973 299.3 171.319 300.162C170.891 300.712 170.38 300.76 169.912 300.767C170.395 295.224 173.066 290.095 173.406 289.626C174.66 289.582 174.399 290.189 175.028 289.875C175.382 290.024 174.664 291.839 174.295 292.492Z" fill="black"/>
<path d="M172.978 292.208C173.131 291.947 173.272 291.646 173.473 291.35C174.004 290.416 174.889 289.121 174.925 289.046C175.562 288.082 175.22 286.373 172.92 290.288C169.637 295.177 168.818 300.152 168.819 304.764L168.947 306.338L169.162 306.473L169.408 305.751C169.475 305.014 169.495 304.312 169.515 303.61L169.77 304.452C169.95 304.662 170.057 304.631 170.364 304.305C170.825 303.718 170.479 303.533 170.479 303.533C170.391 302.666 170.363 301.803 170.429 300.871C170.805 300.003 172.776 296.725 172.836 294.619C172.836 294.619 173.008 293.461 173.005 292.874C172.98 292.599 172.979 292.403 172.978 292.208ZM170.495 299.743C170.733 297.652 171.376 295.359 172.459 293.181C172.511 293.928 172.491 294.63 172.435 295.407C172.369 296.34 171.874 297.198 171.745 297.539C171.415 298.177 171.202 298.433 171.025 298.809C170.824 299.105 170.636 299.442 170.495 299.743ZM172.772 293.832L172.829 293.251C172.829 293.251 172.749 293.948 172.772 293.832Z" fill="#ECEEEE"/>
<path fill-rule="evenodd" clip-rule="evenodd" d="M213.78 271.571L187.708 263.187C187.708 263.187 191.707 247.318 196.714 239.575C201.975 231.429 209.264 230.878 209.264 230.878C209.264 230.878 208.161 222.106 207.937 216.818C207.841 214.235 213.255 208.114 217.26 208.027L222.177 209.323C222.177 209.323 223.32 212.635 223.065 215.26C222.902 217.163 220.838 246.077 213.78 271.571Z" fill="#FAD57B"/>
<path fill-rule="evenodd" clip-rule="evenodd" d="M212.713 211.054C212.713 211.054 211.898 206.702 200.996 217.062L180.625 235.811C180.625 235.811 180.041 239.009 182.997 237.255C185.98 235.452 201.267 222.496 205.653 219.901C210.022 217.233 214.431 214.902 212.713 211.054Z" fill="#F9C1B6"/>
<path fill-rule="evenodd" clip-rule="evenodd" d="M217.917 208.845C217.653 207.39 215.774 206.79 213.376 207.319C213.039 207.414 210.518 208.669 208.144 210.574L198.123 218.926L201.343 223.517L212.798 216.255C212.798 216.255 218.468 211.711 217.917 208.845Z" fill="#FAD57B"/>
<path fill-rule="evenodd" clip-rule="evenodd" d="M320.176 201.559C318.57 196.798 312.377 191.084 308.366 185.919C304.355 180.753 299.081 173.079 296.046 170.623C293.942 168.924 293.075 170.383 294.556 174.403C295.982 178.244 299.697 184.585 301.298 187.189C305.347 193.685 312.141 204.434 316.115 205.197C317.902 205.53 320.176 201.559 320.176 201.559Z" fill="#F9C1B6"/>
<path fill-rule="evenodd" clip-rule="evenodd" d="M296.184 166.783C296.103 167.939 298.652 170.699 297.948 174.548C297.937 174.692 296.912 176.152 295.755 175.611C295.071 175.291 293.324 173.876 291.973 171.454C291.15 170.024 289.589 167.876 288.872 166.869C288.672 166.626 288.482 166.239 288.313 165.936C288.261 165.911 288.113 165.693 288.176 165.573C288.207 165.513 288.47 165.636 288.523 165.661C288.87 165.749 289.185 165.896 289.438 166.164C289.944 166.699 290.47 167.318 291.007 167.793C291.186 167.952 291.334 168.17 291.482 168.388C291.555 168.498 291.787 168.681 291.787 168.681C291.787 168.681 291.618 168.378 291.492 168.244C291.27 167.917 291.028 167.505 290.806 167.177C290.342 166.438 289.909 165.638 289.33 164.994C289.203 164.86 288.803 164.374 288.928 164.135C288.991 164.015 289.201 164.113 289.254 164.138C289.601 164.226 289.854 164.493 290.054 164.736C290.633 165.38 291.129 166.06 291.624 166.739C291.772 166.957 291.972 167.2 292.12 167.419C292.162 167.588 292.363 167.831 292.363 167.831C292.363 167.831 292.289 167.722 292.268 167.637C292.194 167.528 292.12 167.419 292.13 167.274C291.993 166.911 291.802 166.524 291.612 166.137C291.232 165.362 290.967 164.492 290.556 163.777C290.482 163.668 290.218 163.171 290.26 162.967C290.322 162.847 290.554 163.03 290.554 163.03C290.807 163.297 291.038 163.48 291.207 163.783C291.671 164.523 293.116 166.766 293.232 167.044C293.275 167.213 293.444 167.516 293.444 167.516C293.444 167.516 293.38 167.262 293.306 167.153C293.211 166.959 292.418 164.723 292.143 163.997C292.048 163.803 291.688 162.74 292.013 162.743C292.15 162.732 292.266 163.01 292.371 163.059C292.645 163.411 292.804 163.859 293.047 164.271C293.701 165.398 294.745 167.155 295.505 168.331C295.356 167.739 294.923 166.566 295.845 165.804C295.919 165.913 296.223 165.832 296.184 166.783Z" fill="#F9C1B6"/>
<path fill-rule="evenodd" clip-rule="evenodd" d="M315.125 191.129C315.125 191.129 318.236 195.65 324.101 199.601C326.539 201.256 324.275 212.241 321.514 211.353C317.033 209.959 306.123 198.801 306.202 198.743C306.716 195.541 315.125 191.129 315.125 191.129Z" fill="#193F73"/>
<path d="M336.2 225.865C336.2 225.865 335.978 212.448 336.022 211.471C336.246 207.702 336.318 204.349 334.402 202.844C333.346 202.014 332.072 200.897 330.438 200.287C329.562 199.978 325.711 200.243 323.664 201.669C322.297 202.629 321.39 206.77 321.008 209.529C320.51 212.994 320.74 222.45 320.74 222.45C322.254 226.058 334.225 228.181 336.2 225.865Z" fill="#F9C1B6"/>
<path fill-rule="evenodd" clip-rule="evenodd" d="M321.12 300.949C321.313 302.095 320.781 303.645 320.446 304.711C320.211 305.487 320.349 306.338 320.021 307.078C319.594 308.077 318.743 307.107 318.507 306.481C318.152 305.623 318.43 304.295 318.574 303.419C318.755 302.25 318.444 300.807 318.904 299.712C319.395 298.585 320.538 299.042 320.858 300.094" fill="#F9C1B6"/>
<path fill-rule="evenodd" clip-rule="evenodd" d="M338.126 301.644C338.322 302.666 337.794 304.045 337.462 304.994C337.229 305.685 337.368 306.444 337.042 307.102C336.618 307.99 335.764 307.124 335.527 306.565C335.17 305.8 335.445 304.617 335.586 303.837C335.765 302.796 335.45 301.51 335.907 300.535C336.396 299.533 337.54 299.943 337.863 300.882" fill="#F9C1B6"/>
<path fill-rule="evenodd" clip-rule="evenodd" d="M334.44 304.576C334.44 304.576 333.652 306.479 327.915 307.1C327.499 307.159 327.166 307.221 326.752 307.209C326.577 307.632 326.319 308.053 326.227 308.478C326.549 308.915 327.544 308.944 328.039 309.03C329.941 309.298 331.846 309.424 333.683 308.906C335.268 308.452 337.075 309.288 338.66 308.906C338.835 308.483 339.01 308.06 339.102 307.634C339.197 307.066 338.959 306.56 338.972 305.99C338.901 305.417 338.152 305.538 337.733 305.74C337.397 305.945 337.143 306.151 336.727 306.211C336.146 306.265 335.736 306.04 335.155 306.023C334.824 306.014 334.489 306.147 334.154 306.28C334.494 305.933 334.999 305.591 335.174 305.167C335.176 305.096 335.265 304.813 335.266 304.742C335.103 304.595 334.687 304.654 334.44 304.576Z" fill="black"/>
<path fill-rule="evenodd" clip-rule="evenodd" d="M335.145 306.522L335.228 306.525L335.31 306.527L335.393 306.53L335.476 306.532L335.559 306.534L335.642 306.537L335.725 306.539L335.806 306.613L335.888 306.686L335.969 306.76L336.05 306.834L336.132 306.907L336.213 306.981L336.294 307.055L336.376 307.128L336.457 307.202L336.538 307.276L336.62 307.349L336.701 307.423L336.782 307.497L336.864 307.57L336.945 307.644L337.027 307.718L337.189 307.865L337.352 308.012L337.515 308.16L337.679 308.236L337.762 308.238L337.845 308.241L337.928 308.243L338.01 308.245L338.093 308.248L338.176 308.25L338.259 308.252L338.342 308.255L338.425 308.257L338.508 308.26L338.591 308.262L338.672 308.336L338.753 308.409L338.918 308.485L338.999 308.559L339.076 308.846L339.159 308.849L339.238 308.994L339.071 309.06L338.988 309.058L338.735 309.265L338.652 309.262L338.486 309.258L338.32 309.253L338.155 309.248L338.072 309.246L337.989 309.243L337.906 309.241L337.823 309.239L337.74 309.236L337.657 309.234L337.574 309.231L337.491 309.229L337.408 309.227L337.326 309.224L337.243 309.222L337.16 309.22L336.996 309.144L336.831 309.067L336.667 308.991L336.503 308.915L336.421 308.842L336.34 308.768L336.259 308.694L336.177 308.621L336.096 308.547L336.013 308.545L335.93 308.542L335.847 308.54L335.765 308.538L335.682 308.535L335.599 308.533L335.516 308.53L335.433 308.528L335.35 308.526L335.267 308.523L335.184 308.521L335.101 308.519L335.018 308.516L334.936 308.514L334.853 308.511L334.77 308.509L334.687 308.507L334.604 308.504L334.521 308.502L334.438 308.5L334.355 308.497L334.272 308.495L334.189 308.492L334.107 308.49L334.024 308.488L333.941 308.485L333.858 308.483L333.775 308.481L333.692 308.478L333.609 308.476L333.442 308.542L333.109 308.604L332.941 308.671L332.774 308.737L332.691 308.735L332.608 308.732L332.525 308.73L332.442 308.728L332.109 308.79L331.776 308.851L331.108 309.046L330.774 309.179L330.441 309.241L330.273 309.308L330.106 309.374L329.939 309.441L330.034 308.873L329.866 308.939L329.699 309.006L329.532 309.072L329.364 309.139L329.197 309.205L329.03 309.272L328.862 309.339L328.695 309.405L328.528 309.472L328.36 309.538L328.193 309.605L328.027 309.6L327.861 309.595L327.696 309.59L327.53 309.586L327.364 309.581L327.201 309.434L327.287 309.293L327.453 309.298L327.619 309.303L327.786 309.236L327.954 309.17L328.121 309.103L328.288 309.037L328.456 308.97L328.623 308.904L328.79 308.837L328.958 308.771L329.125 308.704L329.292 308.638L329.377 308.569L329.544 308.502L329.712 308.436L329.879 308.369L330.046 308.302L330.214 308.236L330.381 308.169L330.548 308.103L330.878 308.184L331.213 308.051L331.882 307.784L332.217 307.651L332.552 307.518L332.635 307.521L332.717 307.523L332.8 307.525L332.883 307.528L333.051 307.461L333.218 307.395L333.47 307.259L333.637 307.193L333.722 307.124L333.806 307.055L333.89 306.986L333.975 306.917L334.059 306.848L334.144 306.779L334.228 306.71L334.313 306.641L334.397 306.572L334.482 306.503L334.564 306.506L334.647 306.508L334.73 306.511L334.813 306.513L334.896 306.515L334.979 306.518L335.062 306.52L335.145 306.522L335.228 306.525L335.31 306.527L335.393 306.53L335.145 306.522Z" fill="#ECE8E9"/>
<path fill-rule="evenodd" clip-rule="evenodd" d="M317.748 304.099C317.748 304.099 317.045 306.005 311.963 306.644C311.594 306.705 311.299 306.768 310.932 306.757C310.776 307.181 310.547 307.602 310.464 308.028C310.748 308.464 311.629 308.489 312.068 308.573C313.752 308.835 315.438 308.955 317.066 308.431C318.471 307.972 320.069 308.802 321.473 308.414C321.629 307.991 321.785 307.567 321.868 307.142C321.954 306.573 321.745 306.068 321.757 305.498C321.696 304.925 321.032 305.049 320.661 305.252C320.362 305.458 320.137 305.665 319.769 305.726C319.253 305.783 318.891 305.558 318.377 305.543C318.084 305.535 317.787 305.669 317.49 305.803C317.791 305.455 318.24 305.111 318.396 304.688C318.397 304.617 318.477 304.334 318.479 304.262C318.261 304.113 317.893 304.174 317.748 304.099Z" fill="black"/>
<path fill-rule="evenodd" clip-rule="evenodd" d="M318.366 306.043L318.44 306.045L318.513 306.047L318.586 306.049L318.66 306.051L318.733 306.053L318.807 306.056L318.88 306.058L318.952 306.131L319.024 306.204L319.096 306.278L319.167 306.351L319.239 306.425L319.311 306.498L319.383 306.571L319.455 306.645L319.527 306.718L319.599 306.792L319.67 306.865L319.742 306.938L319.814 307.012L319.886 307.085L319.958 307.159L320.03 307.232L320.175 307.307L320.319 307.454L320.462 307.601L320.608 307.676L320.681 307.679L320.754 307.681L320.828 307.683L320.901 307.685L320.975 307.687L321.048 307.689L321.121 307.691L321.195 307.693L321.268 307.695L321.342 307.698L321.415 307.7L321.487 307.773L321.559 307.846L321.704 307.922L321.776 307.995L321.843 308.283L321.917 308.285L321.987 308.429L321.838 308.496L321.765 308.494L321.54 308.702L321.467 308.7L321.32 308.696L321.173 308.691L321.026 308.687L320.953 308.685L320.88 308.683L320.806 308.681L320.733 308.679L320.659 308.677L320.586 308.675L320.513 308.672L320.439 308.67L320.366 308.668L320.292 308.666L320.22 308.593L320.149 308.519L320.003 308.444L319.858 308.368L319.713 308.293L319.568 308.217L319.496 308.144L319.502 307.859L319.43 307.785L319.358 307.712L319.285 307.71L319.211 307.708L319.138 307.706L319.065 307.704L318.991 307.702L318.918 307.699L318.844 307.697L318.771 307.695L318.698 307.693L318.624 307.691L318.551 307.689L318.477 307.687L318.404 307.685L318.331 307.683L318.257 307.68L318.184 307.678L318.11 307.676L318.037 307.674L317.963 307.672L317.89 307.67L317.817 307.668L317.743 307.666L317.67 307.664L317.596 307.662L317.523 307.659L317.45 307.657L317.376 307.655L317.303 307.653L317.229 307.651L317.156 307.649L317.083 307.647L317.009 307.645L316.861 307.712L316.566 307.775L316.417 307.842L316.269 307.909L316.196 307.907L316.122 307.905L316.049 307.903L315.975 307.9L315.832 307.754L315.536 307.817L314.945 308.014L314.648 308.148L314.353 308.211L314.057 308.274L313.909 308.341L313.761 308.408L313.612 308.475L313.464 308.542L313.316 308.609L313.242 308.607L313.169 308.605L313.02 308.672L312.872 308.739L312.724 308.806L312.575 308.873L312.427 308.94L312.279 309.007L312.13 309.074L311.984 309.07L311.837 309.066L311.69 309.062L311.543 309.057L311.396 309.053L311.251 308.978L311.401 308.839L311.548 308.844L311.695 308.848L311.843 308.781L311.991 308.714L312.14 308.647L312.288 308.579L312.436 308.512L312.585 308.445L312.733 308.378L312.881 308.311L313.03 308.244L313.178 308.177L313.252 308.179L313.327 308.11L313.475 308.043L313.623 307.976L313.772 307.909L313.92 307.842L314.068 307.774L314.365 307.64L314.662 307.506L314.958 307.372L315.479 307.102L315.775 306.967L316.072 306.833L316.145 306.835L316.219 306.837L316.292 306.839L316.366 306.842L316.514 306.775L316.662 306.707L316.886 306.571L317.034 306.504L317.109 306.435L317.182 306.437L317.257 306.368L317.332 306.299L317.407 306.229L317.482 306.16L317.557 306.091L317.632 306.022L317.707 305.953L317.782 305.883L317.855 305.886L317.929 305.888L318.002 305.89L318.076 305.892L318.149 305.894L318.222 305.896L318.296 305.898L318.369 305.9L318.443 305.902L318.516 305.905L318.589 305.907L318.663 305.909L318.366 306.043Z" fill="#ECE8E9"/>
<path d="M319.322 270.231C319.322 270.231 317.962 254.867 317.509 249.746C317.109 245.362 319.17 224.245 324.933 228.856C331.551 234.156 334.805 240.346 332.419 250.522C331.584 254.132 328.871 268.001 327.81 273.523C329.765 277.376 329.623 282.197 327.602 285.509C327.602 285.509 321.817 302.959 321.319 303.57C320.532 304.573 318.367 303.718 318.367 303.718C317.645 303.418 319.283 270.449 319.322 270.231Z" fill="#2B61AB"/>
<path d="M332.28 270.151C332.28 270.151 327.975 255.369 326.511 250.428C325.269 246.18 323.194 225.088 329.699 228.392C337.224 232.21 341.606 237.611 341.25 248.123C341.13 251.51 341.174 263.409 341.223 269.792C344.104 273.509 345.116 279.322 343.776 283.064C343.776 283.064 338.918 303.331 338.55 304.158C337.611 306.422 335.095 304.57 334.656 303.444L332.28 270.151Z" fill="#3E73BF"/>
<path fill-rule="evenodd" clip-rule="evenodd" d="M335.943 236.995L335.901 237.039L335.943 236.995L335.943 237.038L335.943 236.995L335.943 237.038L335.986 237.081L336.029 237.125L336.072 237.168L336.114 237.211L336.158 237.298L336.201 237.384L336.245 237.471L336.245 237.514L336.246 237.558L336.289 237.644L336.333 237.731L336.376 237.817L336.42 237.904L336.507 238.077L336.55 238.164L336.593 238.207L336.636 238.25L336.679 238.337L336.722 238.423L336.766 238.51L336.767 238.553L336.767 238.597L336.768 238.64L336.768 238.683L336.769 238.727L336.77 238.77L336.77 238.814L336.771 238.857L336.772 238.9L336.772 238.944L336.819 239.248L336.865 239.551L336.912 239.855L336.958 240.159L337.005 240.462L337.051 240.766L337.098 241.07L337.142 241.2L337.186 241.33L337.23 241.46L337.232 241.59L337.234 241.72L337.236 241.851L337.238 241.981L337.239 242.111L337.241 242.241L337.243 242.372L337.245 242.502L337.247 242.632L337.249 242.762L337.251 242.893L337.253 243.023L337.254 243.153L337.256 243.283L337.258 243.414L337.265 243.891L337.272 244.369L337.278 244.803L337.285 245.281L337.289 245.541L337.291 245.715L337.297 246.149L337.304 246.583L337.31 247.018L337.316 247.452L337.322 247.886L337.328 248.32L337.335 248.754L337.306 249.667L337.276 250.579L337.247 251.491L337.218 252.403L337.224 252.837L337.231 253.271L337.237 253.706L337.243 254.14L337.249 254.574L337.255 255.008L337.262 255.442L337.268 255.877L337.274 256.311L337.28 256.745L337.287 257.179L337.293 257.613L337.297 257.917L337.301 258.221L337.307 258.612L337.31 258.829L337.32 259.481L337.329 260.132L337.333 260.436L337.338 260.74L337.342 261.044L337.346 261.348L337.351 261.652L337.355 261.956L337.359 262.259L337.364 262.563L337.368 262.867L337.372 263.171L337.375 263.345L337.377 263.519L337.38 263.692L337.382 263.866L337.384 263.953L337.385 264.04L337.387 264.213L337.39 264.387L337.392 264.561L337.395 264.735L337.397 264.908L337.4 265.082L337.402 265.256L337.405 265.429L337.407 265.603L337.452 265.776L337.497 265.95L337.541 266.123L337.586 266.297L337.631 266.47L337.675 266.643L337.72 266.817L337.765 266.99L337.809 267.164L337.854 267.337L337.899 267.511L337.943 267.684L337.988 267.857L338.033 268.031L338.077 268.204L338.122 268.378L338.167 268.551L338.211 268.725L338.256 268.898L338.301 269.071L338.39 269.418L338.479 269.722L338.568 270.025L338.656 270.329L338.745 270.632L338.834 270.935L338.965 271.239L339.184 271.845L339.185 271.889L339.316 272.192L339.405 272.495L339.493 272.799L339.583 273.146L339.672 273.492L339.761 273.839L339.851 274.186L339.895 274.359L339.94 274.533L339.985 274.706L340.029 274.88L340.074 275.053L340.119 275.227L340.164 275.4L340.208 275.573L340.253 275.747L340.298 275.92L340.342 276.094L340.387 276.267L340.432 276.441L340.476 276.614L340.521 276.787L340.566 276.961L340.61 277.134L340.655 277.308L340.7 277.481L340.744 277.655L340.789 277.828L340.834 278.001L340.836 278.175L340.839 278.349L340.841 278.522L340.844 278.696L340.89 279L340.895 279.304L340.899 279.608L340.903 279.912L340.906 280.129L340.907 280.172L340.911 280.476L340.916 280.78L340.92 281.084L340.924 281.388L340.929 281.692L340.933 281.996L340.937 282.3L340.942 282.604L340.946 282.908L340.95 283.168L340.954 283.429L340.957 283.689L340.961 283.95L340.923 284.211L340.884 284.471L340.846 284.732L340.807 284.993L340.769 285.254L340.73 285.515L340.692 285.775L340.653 286.036L340.615 286.297L340.577 286.558L340.538 286.819L340.5 287.079L340.461 287.34L340.423 287.601L340.384 287.862L340.346 288.122L340.307 288.383L340.269 288.644L340.23 288.905L340.191 289.122L340.192 289.166L340.154 289.426L340.115 289.687L340.077 289.948L340.038 290.209L340 290.47L339.919 290.731L339.838 290.992L339.758 291.253L339.677 291.514L339.596 291.775L339.516 292.036L339.435 292.297L339.355 292.558L339.274 292.819L339.193 293.08L339.113 293.341L339.032 293.602L338.951 293.863L338.791 294.429L338.63 294.994L338.469 295.56L338.309 296.125L338.268 296.212L338.227 296.299L338.186 296.386L338.145 296.474L338.104 296.561L338.063 296.648L338.064 296.735L338.023 296.822L337.984 296.996L337.944 297.17L337.904 297.344L337.864 297.517L337.825 297.691L337.785 297.865L337.745 298.039L337.706 298.213L337.666 298.387L337.626 298.561L337.587 298.735L337.547 298.909L337.549 299.083L337.552 299.256L338.278 299.86L338.28 300.034L338.206 300.772L338.169 301.12L338.13 301.294L338.09 301.468L338.05 301.642L338.01 301.816L337.971 301.99L337.931 302.164L337.889 302.207L337.846 302.121L337.844 301.947L337.841 301.773L337.839 301.6L337.836 301.426L337.834 301.252L337.831 301.079L337.826 300.731L337.816 299.993L337.813 299.819L337.81 299.602L337.807 299.429L337.805 299.255L337.802 299.081L337.8 298.907L337.798 298.734L337.795 298.56L337.793 298.386L337.79 298.213L337.788 298.039L337.827 297.865L337.867 297.691L337.907 297.517L337.946 297.343L337.986 297.169L337.985 297.082L337.984 296.996L338.025 296.909L338.065 296.821L338.106 296.734L338.147 296.647L338.188 296.56L338.229 296.473L338.39 295.908L338.551 295.342L338.711 294.776L338.872 294.211L338.953 293.95L339.033 293.689L339.114 293.428L339.194 293.167L339.275 292.906L339.356 292.645L339.436 292.384L339.517 292.123L339.598 291.862L339.678 291.601L339.759 291.339L339.797 291.079L339.836 290.818L339.874 290.557L339.913 290.296L339.951 290.036L339.99 289.775L340.028 289.514L340.028 289.471L340.067 289.253L340.105 288.992L340.144 288.732L340.182 288.471L340.22 288.21L340.259 287.949L340.297 287.688L340.336 287.428L340.374 287.167L340.413 286.906L340.451 286.645L340.49 286.385L340.528 286.124L340.567 285.863L340.605 285.602L340.643 285.341L340.682 285.081L340.72 284.82L340.759 284.559L340.755 284.299L340.751 284.038L340.748 283.777L340.744 283.517L340.74 283.256L340.736 282.996L340.733 282.735L340.729 282.475L340.725 282.214L340.722 281.954L340.718 281.693L340.714 281.433L340.71 281.129L340.705 280.825L340.705 280.781L340.702 280.564L340.697 280.26L340.693 279.956L340.689 279.652L340.642 279.349L340.64 279.175L340.637 279.001L340.635 278.828L340.632 278.654L340.587 278.481L340.543 278.307L340.498 278.134L340.453 277.96L340.409 277.787L340.364 277.613L340.319 277.44L340.275 277.267L340.23 277.093L340.185 276.92L340.141 276.746L340.096 276.573L340.051 276.399L340.007 276.226L339.962 276.053L339.917 275.879L339.873 275.706L339.828 275.532L339.783 275.359L339.739 275.186L339.694 275.012L339.649 274.839L339.56 274.535L339.472 274.232L339.383 273.928L339.294 273.625L339.163 273.322L339.032 273.019L338.901 272.715L338.901 272.672L338.682 272.109L338.551 271.806L338.42 271.502L338.289 271.199L338.158 270.853L338.068 270.506L337.979 270.159L337.889 269.812L337.845 269.639L337.8 269.465L337.755 269.292L337.711 269.118L337.666 268.945L337.621 268.772L337.577 268.598L337.532 268.425L337.487 268.251L337.443 268.078L337.398 267.905L337.353 267.731L337.309 267.558L337.264 267.384L337.219 267.211L337.175 267.037L337.13 266.864L337.085 266.691L337.041 266.517L336.996 266.344L336.951 266.17L336.907 265.997L336.904 265.823L336.902 265.649L336.899 265.476L336.897 265.302L336.894 265.128L336.892 264.955L336.889 264.781L336.888 264.694L336.887 264.607L336.884 264.434L336.882 264.26L336.879 264.086L336.877 263.913L336.872 263.609L336.868 263.305L336.864 263.001L336.859 262.697L336.855 262.393L336.851 262.089L336.846 261.785L336.842 261.481L336.838 261.177L336.833 260.873L336.824 260.222L336.815 259.57L336.811 259.353L336.806 258.963L336.801 258.659L336.797 258.355L336.79 257.877L336.783 257.399L336.777 256.922L336.77 256.444L336.763 255.967L336.756 255.489L336.749 255.011L336.743 254.577L336.737 254.143L336.773 253.708L336.809 253.274L336.845 252.839L336.874 251.927L336.903 251.015L336.932 250.103L336.961 249.191L336.997 248.757L337.033 248.322L337.069 247.888L337.105 247.453L337.141 247.019L337.135 246.584L337.129 246.15L337.126 245.977L337.122 245.716L337.116 245.282L337.11 244.848L337.104 244.413L337.097 243.979L337.096 243.849L337.094 243.719L337.092 243.588L337.09 243.458L337.088 243.328L337.086 243.198L337.084 243.067L337.083 242.937L337.081 242.807L337.079 242.677L337.077 242.546L337.075 242.416L337.073 242.286L337.071 242.155L337.069 242.025L337.068 241.895L337.066 241.765L337.064 241.634L337.018 241.374L336.972 241.114L336.926 240.854L336.88 240.593L336.834 240.29L336.787 239.986L336.741 239.682L336.74 239.639L336.739 239.595L336.739 239.552L336.738 239.509L336.737 239.465L336.737 239.422L336.736 239.378L336.736 239.335L336.735 239.292L336.734 239.248L336.691 239.162L336.647 239.075L336.604 238.988L336.603 238.945L336.561 238.902L336.517 238.815L336.43 238.642L336.387 238.555L336.343 238.469L336.3 238.382L336.257 238.296L336.256 238.252L336.255 238.209L336.212 238.122L336.168 238.036L336.124 237.906L336.082 237.863L336.081 237.819L336.08 237.776L336.08 237.732L336.079 237.689L335.943 236.995Z" fill="#6396E3"/>
<path fill-rule="evenodd" clip-rule="evenodd" d="M323.868 239.849L323.911 239.892L323.954 239.935L323.997 239.978L324.04 240.022L324.083 240.065L324.169 240.195L324.213 240.325L324.256 240.368L324.299 240.411L324.299 240.454L324.3 240.498L324.3 240.541L324.302 240.628L324.303 240.715L324.348 240.888L324.392 241.062L324.395 241.235L324.397 241.409L324.399 241.539L324.402 241.713L324.404 241.887L324.407 242.06L324.409 242.234L324.412 242.408L324.414 242.581L324.418 242.885L324.423 243.189L324.425 243.363L324.428 243.537L324.432 243.841L324.437 244.145L324.441 244.449L324.445 244.753L324.45 245.057L324.454 245.36L324.456 245.534L324.459 245.708L324.461 245.882L324.464 246.055L324.466 246.229L324.469 246.403L324.471 246.576L324.474 246.75L324.476 246.924L324.479 247.097L324.481 247.271L324.484 247.445L324.486 247.575L324.488 247.705L324.489 247.792L324.489 247.836L324.534 247.966L324.578 248.096L324.622 248.226L324.622 248.269L324.623 248.312L324.624 248.356L324.624 248.399L324.625 248.486L324.627 248.573L324.628 248.66L324.629 248.747L324.63 248.833L324.632 248.92L324.633 249.007L324.633 249.051L324.634 249.094L324.635 249.137L324.635 249.181L324.636 249.224L324.637 249.268L324.637 249.311L324.638 249.355L324.638 249.398L324.639 249.441L324.64 249.485L324.64 249.528L324.641 249.572L324.642 249.615L324.642 249.659L324.643 249.702L324.685 249.702L324.727 249.701L324.769 249.701L324.812 249.701L324.854 249.701L324.896 249.7L324.938 249.7L324.98 249.7L325.023 249.7L325.065 249.699L325.276 249.698L325.318 249.698L325.36 249.698L325.403 249.697L325.445 249.697L325.487 249.697L325.529 249.696L325.571 249.696L325.614 249.696L325.698 249.695L325.782 249.695L325.867 249.694L325.951 249.694L326.078 249.693L326.204 249.692L326.416 249.734L326.839 249.775L327.05 249.817L327.177 249.817L327.304 249.816L327.43 249.815L327.557 249.814L327.683 249.814L327.726 249.813L327.81 249.813L327.937 249.855L328.065 249.898L328.192 249.941L328.319 249.983L328.446 250.026L328.531 250.069L328.616 250.112L328.659 250.112L328.701 250.111L328.743 250.111L328.786 250.154L328.829 250.197L328.871 250.24L328.914 250.284L328.957 250.327L329 250.37L329.043 250.413L329.043 250.457L329.001 250.457L328.958 250.414L328.916 250.414L328.874 250.414L328.832 250.414L328.79 250.415L328.747 250.415L328.705 250.415L328.663 250.415L328.621 250.416L328.579 250.416L328.493 250.373L328.408 250.33L328.282 250.331L328.155 250.332L328.029 250.333L327.902 250.333L327.775 250.334L327.691 250.335L327.649 250.335L327.522 250.336L327.396 250.336L327.269 250.337L327.142 250.338L327.016 250.339L326.805 250.34L326.34 250.299L326.129 250.301L326.002 250.302L325.875 250.302L325.749 250.303L325.664 250.304L325.538 250.304L325.453 250.305L325.411 250.305L325.369 250.305L325.327 250.306L326.171 250.301L326.129 250.301L326.087 250.301L326.044 250.301L326.002 250.302L325.791 250.303L325.749 250.303L325.707 250.303L325.664 250.304L325.622 250.304L325.58 250.304L325.538 250.304L325.496 250.305L325.453 250.305L325.411 250.305L325.369 250.305L325.327 250.306L325.285 250.306L325.242 250.306L325.2 250.306L325.158 250.307L325.116 250.307L325.074 250.307L325.031 250.308L324.989 250.308L324.947 250.308L324.905 250.308L324.863 250.309L324.82 250.265L324.777 250.222L324.734 250.179L324.691 250.136L324.648 250.093L324.606 250.05L324.563 250.006L324.52 249.963L324.477 249.92L324.434 249.877L324.391 249.834L324.349 249.791L324.306 249.747L324.305 249.704L324.305 249.661L324.304 249.617L324.303 249.574L324.303 249.53L324.302 249.487L324.301 249.443L324.301 249.4L324.3 249.357L324.3 249.313L324.298 249.226L324.297 249.14L324.296 249.053L324.295 248.966L324.293 248.879L324.292 248.792L324.291 248.705L324.29 248.662L324.29 248.618L324.289 248.575L324.288 248.532L324.244 248.358L324.199 248.185L324.154 248.011L324.154 247.968L324.152 247.838L324.149 247.664L324.147 247.49L324.144 247.317L324.142 247.143L324.139 246.969L324.137 246.796L324.134 246.622L324.132 246.448L324.129 246.274L324.127 246.101L324.124 245.927L324.122 245.753L324.119 245.58L324.117 245.406L324.113 245.102L324.108 244.798L324.104 244.494L324.099 244.19L324.095 243.886L324.091 243.582L324.088 243.409L324.086 243.235L324.081 242.931L324.077 242.627L324.075 242.453L324.072 242.28L324.07 242.106L324.067 241.932L324.065 241.759L324.062 241.585L324.06 241.455L324.058 241.281L324.055 241.107L324.053 240.934L324.05 240.76L324.049 240.673L324.048 240.586L324.047 240.543L324.047 240.499L324.046 240.456L324.002 240.326L323.958 240.196L323.914 240.109L323.913 240.022L323.912 239.936L323.911 239.892L323.911 239.849L323.91 239.805L323.909 239.762L323.952 239.805L323.868 239.849Z" fill="#3E73BF"/>
<path fill-rule="evenodd" clip-rule="evenodd" d="M327.109 251.163L327.152 251.25L327.153 251.293L327.155 251.423L327.157 251.554L327.158 251.684L327.16 251.814L327.162 251.944L327.164 252.075L327.166 252.205L327.168 252.335L327.17 252.465L327.171 252.596L327.173 252.726L327.175 252.856L327.177 252.987L327.137 253.117L327.138 253.204L327.1 253.465L327.061 253.725L327.023 253.986L326.984 254.247L326.946 254.508L326.905 254.638L326.865 254.769L326.825 254.899L326.784 255.03L326.786 255.16L326.788 255.29L326.75 255.595L326.712 255.899L326.675 256.203L326.637 256.507L326.599 256.811L326.561 257.116L326.523 257.42L326.485 257.724L326.367 258.333L326.25 258.941L326.132 259.55L326.055 260.072L326.057 260.202L325.939 260.811L325.821 261.419L325.703 262.028L325.585 262.637L325.547 262.941L325.509 263.245L325.472 263.549L325.434 263.854L325.396 264.158L325.358 264.462L325.359 264.549L325.32 264.766L325.282 265.07L325.245 265.375L325.207 265.679L325.169 265.983L325.131 266.287L325.093 266.591L325.055 266.896L325.017 267.156L324.979 267.461L324.941 267.765L324.903 268.069L324.866 268.373L324.828 268.677L324.832 268.981L324.833 269.068L324.836 269.242L324.84 269.546L324.845 269.85L324.849 270.154L324.853 270.458L324.858 270.762L324.862 271.066L324.866 271.37L324.871 271.674L324.875 271.977L324.879 272.281L324.887 272.846L324.896 273.41L324.904 273.975L324.912 274.539L324.886 275.712L324.894 276.276L324.896 276.363L324.902 276.841L324.911 277.405L324.919 277.97L324.923 278.274L324.927 278.578L324.932 278.882L324.936 279.186L324.94 279.49L324.945 279.794L324.949 280.098L324.954 280.401L324.958 280.705L324.92 281.01L324.882 281.314L324.844 281.618L324.807 281.922L324.769 282.226L324.731 282.531L324.693 282.835L324.655 283.139L324.617 283.443L324.579 283.748L324.542 284.052L324.503 284.269L324.463 284.486L324.424 284.704L324.385 284.921L324.346 285.139L324.307 285.356L324.267 285.486L324.267 285.53L324.228 285.747L324.189 285.965L324.15 286.182L324.111 286.399L324.072 286.617L324.033 286.834L323.994 287.051L323.955 287.269L323.916 287.486L323.877 287.704L323.837 287.921L323.798 288.138L323.759 288.356L323.678 288.573L323.597 288.791L323.476 289.182L323.355 289.574L323.234 289.966L323.113 290.357L322.992 290.749L322.952 290.923L322.912 291.097L322.873 291.271L322.834 291.488L322.795 291.705L322.755 291.923L322.716 292.14L322.677 292.357L322.638 292.575L322.599 292.792L322.56 293.009L322.521 293.227L322.482 293.444L322.443 293.662L322.444 293.748L322.404 293.879L322.365 294.096L322.325 294.314L322.286 294.531L322.247 294.748L322.208 294.966L322.169 295.183L322.13 295.401L322.091 295.618L322.052 295.835L322.013 296.053L321.974 296.27L321.935 296.487L321.896 296.705L321.856 296.922L321.817 297.139L321.778 297.357L321.739 297.574L321.7 297.792L321.661 298.009L321.622 298.226L321.583 298.444L321.544 298.661L321.505 298.878L321.466 299.096L321.427 299.313L321.387 299.53L321.348 299.748L321.309 299.965L321.27 300.183L321.231 300.4L321.192 300.617L321.153 300.835L321.114 301.052L321.075 301.269L321.078 301.486L321.081 301.704L321.084 301.921L321.087 302.138L321.09 302.312L321.09 302.355L321.093 302.572L321.097 302.789L321.1 303.006L321.103 303.223L321.106 303.44L321.109 303.658L321.112 303.875L321.115 304.092L321.118 304.309L321.121 304.526L321.038 304.613L320.953 304.527L320.95 304.31L320.946 304.093L320.943 303.876L320.94 303.659L320.937 303.441L320.934 303.224L320.931 303.007L320.928 302.79L320.925 302.573L320.922 302.356L320.921 302.313L320.918 302.139L320.915 301.922L320.912 301.705L320.909 301.488L320.906 301.27L320.903 301.053L320.9 300.836L320.897 300.619L320.894 300.402L320.89 300.185L320.887 299.968L320.884 299.751L320.923 299.533L320.962 299.316L321.001 299.099L321.041 298.881L321.08 298.664L321.119 298.446L321.158 298.229L321.197 298.012L321.236 297.794L321.275 297.577L321.314 297.36L321.353 297.142L321.392 296.925L321.431 296.708L321.47 296.49L321.51 296.273L321.549 296.055L321.588 295.838L321.627 295.621L321.666 295.403L321.705 295.186L321.744 294.969L321.783 294.751L321.822 294.534L321.861 294.317L321.9 294.099L321.939 293.882L321.98 293.751L321.979 293.664L322.018 293.447L322.057 293.23L322.096 293.012L322.135 292.795L322.174 292.578L322.213 292.36L322.252 292.143L322.291 291.926L322.33 291.708L322.369 291.491L322.409 291.273L322.448 291.056L322.487 290.839L322.526 290.665L322.647 290.273L322.768 289.882L322.889 289.49L323.01 289.098L323.131 288.707L323.17 288.49L323.21 288.272L323.249 288.055L323.288 287.837L323.327 287.62L323.366 287.403L323.405 287.185L323.444 286.968L323.483 286.751L323.522 286.533L323.561 286.316L323.6 286.098L323.639 285.881L323.679 285.664L323.718 285.446L323.717 285.403L323.757 285.272L323.796 285.055L323.835 284.838L323.875 284.62L323.914 284.403L323.953 284.186L323.992 283.968L324.03 283.707L324.068 283.403L324.106 283.099L324.144 282.795L324.182 282.491L324.219 282.186L324.257 281.882L324.295 281.578L324.333 281.274L324.329 280.97L324.324 280.666L324.32 280.362L324.316 280.058L324.311 279.754L324.307 279.45L324.303 279.146L324.298 278.842L324.294 278.538L324.289 278.234L324.285 277.93L324.277 277.366L324.269 276.801L324.262 276.324L324.261 276.237L324.253 275.672L324.236 274.5L324.228 273.936L324.22 273.371L324.212 272.807L324.204 272.242L324.199 271.938L324.195 271.634L324.191 271.33L324.186 271.026L324.182 270.722L324.177 270.418L324.173 270.115L324.169 269.811L324.164 269.507L324.16 269.203L324.158 269.029L324.156 268.942L324.194 268.638L324.232 268.334L324.27 268.03L324.308 267.725L324.345 267.421L324.383 267.117L324.421 266.813L324.459 266.508L324.497 266.204L324.535 265.9L324.573 265.596L324.61 265.292L324.648 264.987L324.686 264.683L324.725 264.466L324.724 264.379L324.762 264.075L324.8 263.771L324.837 263.466L324.875 263.162L324.913 262.858L324.951 262.554L325.069 261.945L325.187 261.336L325.305 260.728L325.422 260.119L325.463 260.032L325.541 259.554L325.659 258.945L325.777 258.336L325.895 257.728L325.932 257.424L325.97 257.119L326.008 256.815L326.046 256.511L326.084 256.207L326.122 255.903L326.159 255.598L326.197 255.294L326.238 255.164L326.278 255.033L326.318 254.903L326.359 254.772L326.399 254.641L326.439 254.511L326.478 254.25L326.516 253.989L326.555 253.729L326.594 253.511L326.633 253.294L326.674 253.207L326.714 253.076L326.754 252.946L326.795 252.815L326.835 252.685L326.875 252.554L326.916 252.424L326.956 252.293L326.954 252.163L326.952 252.033L326.951 251.902L326.949 251.772L326.947 251.642L326.945 251.512L326.944 251.425L326.943 251.381L326.984 251.294L327.026 251.25L327.109 251.163Z" fill="#3E73BF"/>
<path fill-rule="evenodd" clip-rule="evenodd" d="M324.522 250.137L324.691 250.136L324.859 250.135L325.028 250.134L325.197 250.133L325.535 250.131L325.872 250.129L326.083 250.127L326.21 250.127L326.506 250.168L326.675 250.167L326.844 250.166L326.886 250.166L327.013 250.208L327.098 250.208L327.183 250.251L327.226 250.294L327.184 250.338L327.1 250.382L327.016 250.382L326.89 250.427L326.848 250.427L326.679 250.428L326.51 250.429L326.214 250.431L326.088 250.431L325.877 250.433L325.539 250.435L325.201 250.437L325.033 250.438L324.864 250.439L324.695 250.44L324.568 250.441L324.399 250.442L324.231 250.443L324.062 250.444L323.893 250.445L323.724 250.446L323.597 250.447L323.429 250.448L323.26 250.449L323.091 250.45L323.049 250.45L322.922 250.451L322.838 250.451L322.753 250.452L322.669 250.452L322.584 250.453L322.5 250.454L322.416 250.454L322.373 250.454L322.331 250.455L322.247 250.455L322.162 250.456L322.078 250.456L321.994 250.457L321.909 250.457L321.739 250.371L321.822 250.24L321.905 250.196L321.989 250.152L322.073 250.109L322.157 250.065L322.241 250.021L322.283 250.02L322.325 250.02L322.409 250.02L322.494 250.019L322.578 250.018L322.663 250.018L322.747 250.017L322.831 250.017L322.957 249.973L323 249.972L323.169 249.971L323.337 249.97L323.506 249.969L323.633 249.969L323.802 249.968L323.97 249.966L324.139 249.965L324.308 249.964L324.522 250.137Z" fill="#3E73BF"/>
<path fill-rule="evenodd" clip-rule="evenodd" d="M319.198 226.694L319.265 226.696L319.328 226.837L319.326 226.906L319.325 226.975L319.323 227.045L319.322 227.114L319.32 227.183L319.319 227.252L319.317 227.322L319.316 227.391L319.314 227.46L319.313 227.53L319.311 227.599L319.31 227.668L319.308 227.737L319.307 227.807L319.304 227.945L319.301 228.084L319.299 228.153L319.298 228.222L319.296 228.292L319.229 228.359L319.161 228.426L319.093 228.494L319.025 228.561L318.958 228.629L318.891 228.627L318.825 228.625L318.759 228.623L318.693 228.621L318.627 228.619L318.56 228.617L318.494 228.615L318.428 228.613L318.362 228.612L318.295 228.61L318.229 228.608L318.164 228.537L318.1 228.465L318.035 228.394L317.97 228.323L317.906 228.252L317.841 228.181L317.776 228.11L317.711 228.038L317.647 227.967L317.582 227.896L317.517 227.825L317.453 227.754L317.388 227.682L317.323 227.611L317.325 227.542L317.326 227.473L317.328 227.403L317.329 227.334L317.331 227.265L317.332 227.196L317.334 227.126L317.335 227.057L317.337 226.988L317.338 226.918L317.34 226.849L317.341 226.78L317.343 226.711L317.344 226.641L317.346 226.572L317.347 226.503L317.349 226.433L317.35 226.364L317.352 226.295L317.353 226.226L317.355 226.156L317.358 226.018L317.359 225.949L317.361 225.879L317.362 225.81L317.364 225.741L317.367 225.602L319.198 226.694Z" fill="white"/>
<path d="M323.72 201.58C323.72 201.58 322.325 204.395 324.681 205.116C330.316 206.81 330.516 200.109 330.516 200.109C331.859 200.366 334.278 201.075 335.034 201.492C336.462 202.3 337.656 203.622 337.976 205.264C338.105 205.983 338.079 206.716 338.026 207.441C337.469 217.121 338.144 227.023 340.044 236.745C340.134 237.174 340.2 237.688 339.891 237.933C339.732 238.07 339.542 238.104 339.323 238.13C331.664 239.244 324.93 242.741 317.281 239.967C317.426 237.85 317.491 235.585 317.581 233.235C317.737 227.972 317.914 216.755 318.293 211.344C318.962 202.439 323.72 201.58 323.72 201.58Z" fill="#193F73"/>
<path d="M328.06 198.94C328.676 200.345 332.192 197.914 333.361 197.314C334.53 196.714 335.676 195.719 335.759 194.164C335.764 193.834 335.741 193.5 335.861 193.244C335.981 192.959 336.245 192.783 336.479 192.633C338.003 191.567 338.244 189.19 338.193 186.956C338.172 186.441 338.123 185.893 337.87 185.378C337.589 184.799 337.075 184.341 336.588 184.006C333.176 181.634 329.77 182.574 326.329 180.258C325.326 179.585 324.413 178.683 323.409 178.01C322.405 177.337 321.225 176.852 320.263 177.178C319.272 177.5 318.671 178.866 319.261 180.027C319.626 180.767 320.344 181.192 321.004 181.58C319.611 181.729 318.887 183.501 319.237 185.173C319.588 186.814 320.782 188.265 322.1 189.219C323.074 189.919 324.167 190.453 324.992 191.404C326.502 193.046 327.165 196.896 328.06 198.94Z" fill="#1C243E"/>
<path d="M326.688 204.389C330.079 203.683 330.362 200.344 330.362 200.344L328.862 195.527C328.582 194.118 326.912 193.459 325.25 194.025C323.589 194.592 323.287 196.525 323.567 197.933L324.177 203.176C324.425 204.611 325.767 204.571 326.688 204.389Z" fill="#F9C1B6"/>
<path d="M320.021 197.384C320.888 201.17 326.131 199.537 328.054 198.945C330.938 198.027 337.227 190.749 334.513 186.451C331.799 182.153 325.425 182.013 322.823 183.419C320.25 184.859 319.426 194.717 320.021 197.384Z" fill="#F9C1B6"/>
<path d="M330.257 193.404C329.344 194.339 329.036 195.473 329.522 195.898C331.122 197.311 332.251 197.428 333.164 196.493C334.078 195.559 333.922 194.394 333.124 193.537C332.327 192.681 331.171 192.47 330.257 193.404Z" fill="#F9C1B6"/>
<path d="M322.692 182.6C323.995 181.797 325.757 181.746 327.31 182.096C328.773 182.401 330.171 182.884 331.574 183.411C332.888 183.894 334.3 184.51 335.493 185.437C337.654 187.159 336.329 190.134 335.158 191.778C334.532 192.623 334.87 193.819 333.842 194.044C333.388 194.135 332.677 193.782 332.233 193.562C331.7 193.298 331.353 196.758 330.062 196.496C329.889 196.452 329.187 194.992 329.358 193.04C329.46 191.621 330.402 190.199 330.57 189.4C330.654 189.001 330.695 188.203 330.428 188.071C330.096 187.717 329.601 187.807 329.227 187.853C328.769 187.899 328.372 188.122 327.918 188.212C327.18 188.392 326.395 188.528 325.591 188.486C324.198 188.447 322.374 187.921 321.555 186.55C321.096 185.798 321.105 185.088 321.329 184.422C321.324 184.378 321.319 184.334 321.352 184.245C321.45 183.978 321.595 183.756 321.739 183.534C321.954 183.179 322.258 182.867 322.519 182.556C322.594 182.467 322.687 182.555 322.692 182.6C322.613 182.644 322.575 182.689 322.496 182.733L322.099 183.355C321.875 183.622 321.693 183.889 321.516 184.2C321.516 184.2 321.52 184.244 321.478 184.244L321.483 184.289L321.446 184.333C321.441 184.289 321.478 184.244 321.478 184.244C321.669 183.667 322.043 183.223 322.416 182.778C322.145 183.001 321.875 183.223 321.693 183.49C321.51 183.757 321.375 184.067 321.277 184.334C321.287 184.422 321.334 184.467 321.422 184.511C321.455 184.422 321.446 184.333 321.483 184.289L322.099 183.355C322.174 183.266 322.291 183.177 322.407 183.088C322.519 182.955 322.589 182.822 322.701 182.688C322.701 182.688 322.739 182.644 322.692 182.6Z" fill="#1C243E"/>
<path fill-rule="evenodd" clip-rule="evenodd" d="M293.336 200.009C293.597 199.29 294.049 198.407 294.049 198.407C294.188 198.157 294.484 197.877 294.502 197.81C294.85 197.33 294.867 197.549 294.937 197.568C295.617 197.821 294.955 198.935 295.096 200.407C295.096 200.694 295.149 201.067 295.288 201.391C295.463 201.581 296.928 203.693 297.085 203.95C297.207 204.054 296.234 208.097 295.188 207.244C292.451 204.864 291.161 203.516 290.464 203.33C289.505 203.002 288.442 202.79 287.449 202.596C286.595 202.44 284.016 202.326 284.068 202.124C284.208 201.875 284.521 201.815 284.748 201.804C285.601 201.673 286.542 201.494 287.431 201.516C287.727 201.523 288.023 201.531 288.319 201.538C288.476 201.508 288.772 201.516 288.772 201.516C288.772 201.516 288.493 201.441 288.284 201.385C288.005 201.311 287.64 201.285 287.361 201.21C286.524 200.987 283.893 200.787 283.579 200.56C283.51 200.541 283.231 200.467 283.283 200.265C283.422 200.016 285.286 200.011 285.809 200.007C286.907 200.085 288.022 200.096 288.318 200.104L288.614 200.111C288.632 200.044 288.423 199.988 288.353 199.969C288.161 199.847 283.508 198.533 283.613 198.417C283.909 198.138 284.414 198.201 284.85 198.245C285.878 198.305 286.923 198.584 287.969 198.863C288.317 198.956 288.666 199.049 289.014 199.142C289.084 199.161 289.363 199.235 289.433 199.254C289.45 199.187 289.223 199.198 289.154 199.179C288.962 199.056 288.666 199.049 288.474 198.926C287.759 198.52 286.853 198.278 286.104 198.007C285.755 197.914 284.919 197.69 284.954 197.556C285.058 197.154 288.404 198.047 289.031 198.214C290.53 198.758 291.959 199.283 293.336 200.009Z" fill="#F9C1B6"/>
<path fill-rule="evenodd" clip-rule="evenodd" d="M335.475 204.848C336.31 206.163 340.058 209.809 332.622 216.145C326.812 221.176 306.993 226.218 292.088 203.07C292.088 203.07 290.33 200.785 291.875 200.318C294.814 199.467 303.66 210.658 311.856 212.609C318.102 214.066 322.795 212.433 327.367 208.193C330.888 205.037 334.611 203.648 335.475 204.848Z" fill="#F9C1B6"/>
<path fill-rule="evenodd" clip-rule="evenodd" d="M320.612 210.488C320.612 210.488 326.079 208.821 331.001 203.74C333.058 201.63 336.693 202.948 337.428 207.582C338.799 216.179 326.571 220.673 326.528 220.584C323.468 219.515 320.612 210.488 320.612 210.488Z" fill="#193F73"/>
</g>
<defs>
<clipPath id="clip0">
<rect x="66" width="382" height="313" fill="white"/>
</clipPath>
</defs>
</svg>
