<svg width="520" height="310" viewBox="0 0 520 310" fill="none" xmlns="http://www.w3.org/2000/svg">
<rect y="50" width="520" height="260" rx="5" fill="#DDFBEE"/>
<g clip-path="url(#clip0)">
<path d="M295.754 28.8104H289.617V196.679H295.754V28.8104Z" fill="#2B61AB"/>
<path d="M313.015 63.3829H306.878V231.252H313.015V63.3829Z" fill="#2B61AB"/>
<path d="M329.507 0H323.37V167.869H329.507V0Z" fill="#2B61AB"/>
<path d="M347.153 86.4313H341.016V254.3H347.153V86.4313Z" fill="#2B61AB"/>
<path d="M128.906 61.8464C102.823 50.7063 72.5218 62.9988 61.3984 89.1202C49.8915 115.242 62.1656 145.973 88.248 157.113C114.33 168.253 144.632 155.96 156.139 129.839C167.262 103.333 155.372 72.9864 128.906 61.8464ZM95.9193 139.442C79.426 132.528 71.7547 113.321 78.6589 96.803C85.563 80.285 104.741 72.6023 121.235 79.5168C137.728 86.4312 145.399 105.638 138.495 122.156C131.591 138.674 112.413 146.357 95.9193 139.442Z" fill="#2B61AB"/>
<path d="M117.4 89.5044C106.277 84.8947 93.6195 89.8885 89.0167 101.029C84.4139 112.169 89.4003 124.845 100.524 129.455C111.647 134.064 124.305 129.071 128.907 117.931C133.51 106.791 128.14 94.114 117.4 89.5044Z" fill="#2B61AB"/>
<path d="M131.973 79.1326L112.795 71.0656L128.905 39.1821L143.48 45.3283L131.973 79.1326Z" fill="#2B61AB"/>
<path d="M103.973 144.052L85.1786 135.985L73.2881 170.173L87.8635 176.32L103.973 144.052Z" fill="#2B61AB"/>
<path d="M143.864 105.638L137.344 86.047L172.248 76.8276L177.234 92.1932L143.864 105.638Z" fill="#2B61AB"/>
<path d="M138.109 137.138L145.014 117.547L178 132.144L172.63 147.125L138.109 137.138Z" fill="#2B61AB"/>
<path d="M70.9858 106.406L78.2735 87.1994L43.7527 76.8276L38.3828 91.4249L70.9858 106.406Z" fill="#2B61AB"/>
<path d="M84.7941 80.2849L103.589 71.4497L86.3284 40.3345L71.7529 46.8648L84.7941 80.2849Z" fill="#2B61AB"/>
<path d="M131.59 138.674L112.795 147.125L129.672 178.625L144.247 172.094L131.59 138.674Z" fill="#2B61AB"/>
<path d="M71.3701 113.321L77.5071 132.912L42.6028 141.363L38 125.997L71.3701 113.321Z" fill="#2B61AB"/>
<path d="M405.456 271.97C405.456 278.116 400.086 283.11 393.565 283.11H118.55C112.029 283.11 106.659 278.116 106.659 271.97V110.248C106.659 104.102 112.029 99.1078 118.55 99.1078H393.565C400.086 99.1078 405.456 104.102 405.456 110.248V271.97Z" fill="#FAD57B"/>
<path d="M390.111 119.083H120.849V273.891H390.111V119.083Z" fill="#725559"/>
<path d="M126.22 254.3V276.58H126.603C129.288 282.342 156.138 287.336 188.741 287.336C221.344 287.336 248.193 282.726 250.878 276.58H251.262V254.3H126.22Z" fill="#F3A43D"/>
<path d="M148.851 255.068V284.647C154.988 285.799 162.659 286.184 170.714 286.952V255.452H148.851V255.068Z" fill="#FED150"/>
<path d="M174.933 260.446V286.952C176.85 286.952 178.385 286.952 180.303 286.952V260.062H174.933V260.446Z" fill="#FED150"/>
<path d="M251.262 254.3C251.262 259.678 223.262 264.288 188.741 264.288C154.22 264.288 126.22 260.062 126.22 254.3C126.22 248.922 154.22 244.312 188.741 244.312C223.262 244.312 251.262 248.922 251.262 254.3Z" fill="#FFE984"/>
<path d="M235.919 255.068C235.919 259.294 214.823 262.751 188.741 262.751C162.659 262.751 141.562 259.294 141.562 255.068C141.562 250.843 162.659 247.385 188.741 247.385C214.823 247.385 235.919 250.843 235.919 255.068Z" fill="#F3A43D"/>
<path d="M188.742 262.751C212.256 262.751 231.317 259.655 231.317 255.836C231.317 252.018 212.256 248.922 188.742 248.922C165.228 248.922 146.166 252.018 146.166 255.836C146.166 259.655 165.228 262.751 188.742 262.751Z" fill="#FED150"/>
<path d="M120.084 227.026V249.306H120.468C123.153 255.068 150.002 260.062 182.605 260.062C215.208 260.062 242.057 255.452 244.742 249.306H245.126V227.026H120.084Z" fill="#F3A43D"/>
<path d="M142.715 227.794V257.373C148.852 258.526 156.523 258.91 164.578 259.678V228.179H142.715V227.794Z" fill="#FED150"/>
<path d="M168.797 232.788V259.294C170.715 259.294 172.249 259.294 174.167 259.294V232.404H168.797V232.788Z" fill="#FED150"/>
<path d="M245.126 227.026C245.126 232.404 217.126 237.014 182.605 237.014C148.084 237.014 120.084 232.404 120.084 227.026C120.084 221.648 148.084 217.038 182.605 217.038C217.126 217.038 245.126 221.264 245.126 227.026Z" fill="#FFE984"/>
<path d="M229.784 227.41C229.784 231.636 208.688 235.093 182.605 235.093C156.523 235.093 135.427 231.636 135.427 227.41C135.427 223.185 156.523 219.727 182.605 219.727C208.688 220.111 229.784 223.569 229.784 227.41Z" fill="#F3A43D"/>
<path d="M225.182 228.178C225.182 232.02 206.003 235.093 182.606 235.093C159.208 235.093 140.03 232.02 140.03 228.178C140.03 224.337 159.208 221.264 182.606 221.264C206.003 221.648 225.182 224.721 225.182 228.178Z" fill="#FED150"/>
<path d="M112.412 199.752V222.032H112.796C115.481 227.794 142.33 232.788 174.933 232.788C207.536 232.788 234.386 228.178 237.071 222.032H237.454V199.752H112.412Z" fill="#F3A43D"/>
<path d="M135.043 200.136V229.715C141.18 230.867 148.851 231.252 156.906 232.02V200.52H135.043V200.136Z" fill="#FED150"/>
<path d="M161.125 205.514V232.02C163.043 232.02 164.577 232.02 166.495 232.02V205.13H161.125V205.514Z" fill="#FED150"/>
<path d="M237.454 199.752C237.454 205.13 209.454 209.74 174.933 209.74C140.412 209.74 112.412 205.13 112.412 199.752C112.412 194.374 140.412 189.765 174.933 189.765C209.454 189.38 237.454 193.99 237.454 199.752Z" fill="#FFE984"/>
<path d="M222.112 200.136C222.112 204.362 201.016 207.819 174.933 207.819C148.851 207.819 127.755 204.362 127.755 200.136C127.755 195.911 148.851 192.453 174.933 192.453C201.016 192.453 222.112 195.911 222.112 200.136Z" fill="#F3A43D"/>
<path d="M217.51 200.905C217.51 204.746 198.331 207.819 174.934 207.819C151.537 207.819 132.358 204.746 132.358 200.905C132.358 197.063 151.537 193.99 174.934 193.99C198.331 193.99 217.51 197.063 217.51 200.905Z" fill="#FED150"/>
<path d="M126.22 170.558V192.838H126.603C129.288 198.6 156.138 203.594 188.741 203.594C221.344 203.594 248.193 198.984 250.878 192.838H251.262V170.558H126.22Z" fill="#F3A43D"/>
<path d="M148.851 170.942V200.52C154.988 201.673 162.659 202.057 170.714 202.825V171.326H148.851V170.942Z" fill="#FED150"/>
<path d="M174.933 176.32V202.825C176.85 202.825 178.385 202.825 180.303 202.825V175.936H174.933V176.32Z" fill="#FED150"/>
<path d="M251.262 170.558C251.262 175.936 223.262 180.545 188.741 180.545C154.22 180.545 126.22 175.936 126.22 170.558C126.22 165.18 154.22 160.57 188.741 160.57C223.262 160.186 251.262 164.796 251.262 170.558Z" fill="#FFE984"/>
<path d="M235.919 170.942C235.919 175.167 214.823 178.625 188.741 178.625C162.659 178.625 141.562 175.167 141.562 170.942C141.562 166.716 162.659 163.259 188.741 163.259C214.823 163.259 235.919 166.716 235.919 170.942Z" fill="#F3A43D"/>
<path d="M231.317 171.71C231.317 175.552 212.139 178.625 188.742 178.625C165.344 178.625 146.166 175.552 146.166 171.71C146.166 167.869 165.344 164.796 188.742 164.796C212.139 164.796 231.317 167.869 231.317 171.71Z" fill="#FED150"/>
<path d="M254.714 253.147V275.427H255.097C257.782 281.19 284.632 286.183 317.235 286.183C349.838 286.183 376.687 281.574 379.372 275.427H379.756V253.147H254.714Z" fill="#F3A43D"/>
<path d="M277.345 253.531V283.11C283.482 284.263 291.153 284.647 299.208 285.415V253.531H277.345Z" fill="#FED150"/>
<path d="M303.042 258.91V285.415C304.96 285.415 306.494 285.415 308.412 285.415V258.526H303.042V258.91Z" fill="#FED150"/>
<path d="M379.756 253.147C379.756 258.525 351.756 263.135 317.235 263.135C282.714 263.135 254.714 258.525 254.714 253.147C254.714 247.77 282.714 243.16 317.235 243.16C351.756 242.776 379.756 247.385 379.756 253.147Z" fill="#FFE984"/>
<path d="M364.413 253.532C364.413 257.757 343.317 261.214 317.235 261.214C291.153 261.214 270.057 257.757 270.057 253.532C270.057 249.306 291.153 245.849 317.235 245.849C343.317 245.849 364.413 249.306 364.413 253.532Z" fill="#F3A43D"/>
<path d="M359.811 254.3C359.811 258.141 340.633 261.214 317.236 261.214C293.838 261.214 274.66 258.141 274.66 254.3C274.66 250.458 293.838 247.385 317.236 247.385C340.633 247.385 359.811 250.458 359.811 254.3Z" fill="#FED150"/>
<path d="M269.674 227.41V249.69H270.057C272.742 255.452 299.592 260.446 332.195 260.446C364.798 260.446 391.647 255.836 394.332 249.69H394.716V227.41H269.674Z" fill="#F3A43D"/>
<path d="M292.688 228.179V257.373C298.825 258.526 306.496 258.91 314.551 259.678V228.179H292.688Z" fill="#FED150"/>
<path d="M318.387 233.172V259.678C320.305 259.678 321.839 259.678 323.757 259.678V232.788H318.387V233.172Z" fill="#FED150"/>
<path d="M394.716 227.41C394.716 232.788 366.716 237.398 332.195 237.398C297.674 237.398 269.674 232.788 269.674 227.41C269.674 222.032 297.674 217.422 332.195 217.422C366.716 217.422 394.716 221.648 394.716 227.41Z" fill="#FFE984"/>
<path d="M379.755 227.794C379.755 232.02 358.659 235.477 332.577 235.477C306.494 235.477 285.398 232.02 285.398 227.794C285.398 223.569 306.494 220.111 332.577 220.111C358.276 220.495 379.755 223.569 379.755 227.794Z" fill="#F3A43D"/>
<path d="M374.771 228.562C374.771 232.404 355.593 235.477 332.196 235.477C308.798 235.477 289.62 232.404 289.62 228.562C289.62 224.721 308.798 221.648 332.196 221.648C355.593 221.648 374.771 224.721 374.771 228.562Z" fill="#FED150"/>
<path d="M434.221 273.891H74.8213V292.714H434.221V273.891Z" fill="#F59E00"/>
<path d="M469.893 288.872L472.578 295.018L466.441 296.171L462.989 288.104L469.893 288.872Z" fill="#FFD9A7"/>
<path d="M465.292 294.25C465.292 294.25 469.127 296.171 471.429 292.33C471.429 292.33 479.867 300.396 473.347 304.238C466.826 308.079 453.785 311.152 451.1 308.848C446.881 305.39 457.237 298.476 465.292 294.25Z" fill="#E66254"/>
<path d="M420.031 292.33V299.244L413.894 297.708V288.873L420.031 292.33Z" fill="#FFD9A7"/>
<path d="M451.483 165.948C451.483 165.948 454.935 181.698 438.058 195.911L417.345 233.172C417.345 233.172 425.4 272.354 421.948 290.025C420.414 296.939 412.743 293.866 411.975 291.561C405.838 273.507 393.948 236.63 400.085 215.886C405.455 198.216 416.578 187.076 416.578 187.076L451.483 165.948Z" fill="#52456B"/>
<path d="M413.51 295.403C413.51 295.403 416.579 298.86 420.031 296.171C420.031 296.171 424.634 306.927 417.346 308.079C410.058 308.848 396.634 306.927 394.716 303.47C392.414 298.86 404.688 296.171 413.51 295.403Z" fill="#E66254"/>
<path d="M451.483 160.186C451.483 160.186 460.689 173.247 450.332 193.222L444.962 235.477C444.962 235.477 467.209 268.513 470.661 286.183C471.812 293.098 463.757 293.482 461.839 291.177C449.182 276.58 424.25 247.385 422.332 225.874C420.414 207.435 426.551 192.838 426.551 192.838L451.483 160.186Z" fill="#675781"/>
<path d="M418.112 120.62C420.03 119.467 423.482 117.547 425.016 122.156C426.167 126.766 412.359 150.967 407.756 154.808C403.537 158.649 374.77 166.332 374.77 166.332C374.77 166.332 371.701 165.948 374.002 162.107L401.235 149.814C400.852 149.43 411.975 124.845 418.112 120.62Z" fill="#AFAE35"/>
<path d="M441.511 120.235C448.415 125.998 453.785 139.058 454.935 182.082C455.319 191.301 412.36 189.38 412.36 180.161C412.743 155.192 403.538 138.29 416.195 121.772C416.195 121.388 428.086 108.711 441.511 120.235Z" fill="#D8D844"/>
<path d="M430.769 104.102C430.769 104.102 428.084 111.016 430.769 115.626C432.303 118.315 420.029 127.918 420.029 124.077C420.413 119.083 422.714 116.01 420.029 110.632L430.769 104.102Z" fill="#EFC18F"/>
<path d="M420.031 92.1933C416.196 96.4189 412.36 114.089 416.963 117.546C418.881 119.083 426.936 116.778 431.538 109.095C433.456 106.022 435.758 99.8761 432.305 94.114C430.388 91.425 424.634 87.1995 420.031 92.1933Z" fill="#FFD9A8"/>
<path d="M413.125 94.114C413.125 94.114 415.426 97.1871 421.947 97.9554C428.468 98.7237 429.618 97.9554 429.235 99.8761C427.317 104.486 432.303 104.486 430.385 110.248C428.084 116.01 432.303 111.016 433.07 109.864C433.837 109.095 439.207 102.181 434.988 94.4982C430.385 86.4312 418.495 89.5043 413.125 94.114Z" fill="#9B4D34"/>
<path d="M423.866 167.485V188.228H423.482C420.797 193.99 395.482 198.216 365.18 198.216C334.879 198.216 309.564 193.99 306.879 188.228H306.495V167.485H423.866Z" fill="#F3A43D"/>
<path d="M402.769 168.253V195.911C397.016 196.679 389.728 197.447 382.44 197.832V168.253H402.769Z" fill="#FED150"/>
<path d="M378.223 173.247V198.216C376.688 198.216 374.771 198.216 373.236 198.216V173.247H378.223Z" fill="#FED150"/>
<path d="M306.495 167.485C306.495 172.863 332.961 177.088 365.18 177.088C397.783 177.088 423.866 172.863 423.866 167.485C423.866 162.107 397.4 157.881 365.18 157.881C332.961 158.265 306.495 162.491 306.495 167.485Z" fill="#FFE984"/>
<path d="M320.688 168.253C320.688 172.094 340.633 175.551 365.181 175.551C389.729 175.551 409.674 172.478 409.674 168.253C409.674 164.411 389.729 160.954 365.181 160.954C340.633 160.954 320.688 164.027 320.688 168.253Z" fill="#F3A43D"/>
<path d="M325.291 168.637C325.291 172.094 343.319 175.167 365.182 175.167C387.428 175.167 405.072 172.094 405.072 168.637C405.072 165.18 387.045 162.107 365.182 162.107C343.319 162.491 325.291 165.18 325.291 168.637Z" fill="#FED150"/>
<path d="M418.112 184.387C418.112 184.387 405.837 188.228 409.673 189.381C413.509 190.533 416.961 191.301 421.18 186.308L418.112 184.387Z" fill="#EFC18F"/>
<path d="M434.99 125.998C435.757 124.077 438.058 119.851 441.51 123.309C446.497 129.071 446.88 154.424 445.346 159.802C443.812 165.18 421.182 187.076 421.182 187.076C421.182 187.076 417.729 187.076 417.729 183.618L437.291 157.113C437.291 157.497 432.305 133.296 434.99 125.998Z" fill="#AFAE35"/>
<path d="M181.836 175.551C182.987 174.399 185.288 169.021 185.288 169.021C185.288 169.021 187.59 174.015 189.124 175.551C190.274 176.704 195.644 179.009 195.644 179.009C195.644 179.009 190.658 181.313 189.124 182.85C187.973 184.002 185.672 189.38 185.672 189.38C185.672 189.38 183.37 184.387 181.836 182.85C180.685 181.698 175.315 179.393 175.315 179.393C175.315 179.393 180.685 176.704 181.836 175.551Z" fill="#F7F7FC"/>
<path d="M210.221 142.131C211.371 140.979 213.673 135.601 213.673 135.601C213.673 135.601 215.974 140.595 217.509 142.131C218.659 143.284 224.029 145.589 224.029 145.589C224.029 145.589 219.043 147.893 217.509 149.43C216.358 150.582 214.056 155.96 214.056 155.96C214.056 155.96 211.755 150.967 210.221 149.43C208.687 148.278 203.7 145.973 203.7 145.973C203.7 145.973 209.07 143.284 210.221 142.131Z" fill="#F7F7FC"/>
<path d="M141.947 200.905C143.098 199.752 145.399 194.374 145.399 194.374C145.399 194.374 147.701 199.368 149.235 200.905C150.386 202.057 155.756 204.362 155.756 204.362C155.756 204.362 150.769 206.667 149.235 208.203C148.084 209.356 145.783 214.734 145.783 214.734C145.783 214.734 143.482 209.74 141.947 208.203C140.797 207.051 135.427 204.746 135.427 204.746C135.427 204.746 140.797 202.057 141.947 200.905Z" fill="#F7F7FC"/>
<path d="M151.919 241.623C153.07 240.471 155.371 235.093 155.371 235.093C155.371 235.093 157.673 240.087 159.207 241.623C160.357 242.776 165.727 245.08 165.727 245.08C165.727 245.08 160.741 247.385 159.207 248.922C158.056 250.074 155.755 255.452 155.755 255.452C155.755 255.452 153.453 250.458 151.919 248.922C150.768 247.769 145.398 245.465 145.398 245.465C145.398 245.465 150.768 242.776 151.919 241.623Z" fill="#F7F7FC"/>
</g>
<defs>
<clipPath id="clip0">
<rect x="38" width="437.647" height="310" fill="white"/>
</clipPath>
</defs>
</svg>
