<svg width="432" height="310" viewBox="0 0 432 310" fill="none" xmlns="http://www.w3.org/2000/svg">
<g clip-path="url(#clip0)">
<rect x="-50" y="51" width="520" height="260" rx="5" fill="#EAECFB"/>
<path d="M399.755 309.9C425.114 309.9 440.389 283.941 425.513 265.471C425.214 265.072 424.914 264.673 424.515 264.273C415.43 253.99 401.552 250.296 389.372 244.505C385.977 242.908 382.583 241.011 380.187 238.016C376.892 233.822 376.093 228.032 376.792 222.64C379.588 200.177 404.048 186.399 408.042 164.135C411.037 147.262 400.753 130.189 386.776 121.304C372.798 112.418 355.926 110.122 339.652 109.423C323.278 108.724 306.805 109.323 290.931 105.33C286.737 104.231 282.444 102.734 279.549 99.3392C276.354 95.5454 275.655 89.9544 276.154 84.8626C277.552 71.1847 308.802 23.9608 293.127 8.38595C286.937 2.29577 278.65 -1.09875 270.164 -0.200202C261.778 0.997866 253.89 4.79175 246.602 9.18466C231.027 18.3698 176.715 79.1718 157.246 88.357C138.077 97.3425 116.013 94.7467 94.9466 94.2475C73.8806 93.8481 50.5183 96.9431 36.7405 113.616C31.8484 119.507 28.5537 127.494 30.1512 135.082C31.1495 139.874 34.0449 143.967 37.2397 147.462C44.6278 155.449 54.2123 160.94 61.2011 169.326C68.1898 177.713 71.8838 190.991 65.2945 199.777C62.6987 203.172 59.0046 205.368 55.4104 207.365C35.1431 218.846 12.3798 230.528 3.49415 252.792C-0.998608 264.173 -0.898769 276.753 2.39592 288.534C5.99012 301.014 18.47 309.8 32.8468 309.8H399.755V309.9Z" fill="#CAE2FF"/>
<path opacity="0.41" d="M424.515 264.374C415.429 254.09 401.552 250.396 389.371 244.605C385.977 243.008 382.582 241.111 380.186 238.116C376.891 233.923 376.093 228.132 376.792 222.741C379.587 200.277 404.048 186.499 408.041 164.235C411.036 147.362 400.753 130.29 386.775 121.404C372.798 112.519 355.925 110.222 339.652 109.523C323.278 108.824 306.804 109.424 290.93 105.43C286.737 104.332 282.444 102.834 279.548 99.4396C276.354 95.6457 275.655 90.0547 276.154 84.963C277.552 71.285 308.801 24.0612 293.127 8.48631C287.835 3.39453 280.746 0.199678 273.558 0C283.442 2.69565 290.631 8.38647 285.439 19.9678C273.259 46.7246 160.441 135.681 239.713 144.467C318.985 153.253 187.697 223.739 247.5 228.631C293.127 232.325 199.478 285.839 152.753 310H399.854C425.213 310 440.489 284.042 425.613 265.572C425.213 265.072 424.914 264.773 424.515 264.374Z" fill="#A6CEF4"/>
<path d="M64.995 73.9807C64.995 73.9807 147.162 102.235 183.703 36.1417C220.245 -29.9516 -3.99376 49.4203 64.995 73.9807Z" fill="#CAE2FF"/>
<path opacity="0.41" d="M165.932 10.4832C171.723 14.3769 172.921 21.3656 166.831 32.3479C140.972 79.0725 92.3507 78.6732 65.9932 74.3801C75.5777 77.3753 149.558 97.9421 183.603 36.2416C193.787 17.9711 183.903 10.7827 165.932 10.4832Z" fill="#A6CEF4"/>
<path d="M37.9389 279.449C37.9389 279.449 34.9437 276.654 36.9405 266.071C38.9373 255.488 44.029 245.205 41.5331 233.723C39.0371 222.242 19.3688 193.089 19.3688 191.192C19.269 189.295 13.2786 225.037 23.4622 239.114C33.6458 253.192 34.8439 258.084 34.3447 265.472C33.8455 272.86 34.4445 278.85 35.5427 280.548L37.9389 279.449Z" fill="#4286E8"/>
<path d="M36.0415 258.084C34.8434 262.776 34.1446 274.757 36.0415 277.552C36.2412 277.852 36.4409 277.652 36.7404 277.153C36.1413 275.156 35.742 271.762 36.8402 265.971C38.837 255.388 43.9288 245.105 41.4328 233.623C38.9368 222.142 19.2686 192.989 19.2686 191.092C19.2686 191.092 22.2637 215.353 32.1478 231.926C39.436 244.006 37.2396 253.391 36.0415 258.084Z" fill="#1D54B5"/>
<path d="M41.5325 278.751C41.5325 278.751 35.7418 264.374 45.5261 251.894C55.3103 239.414 70.985 223.44 71.2845 217.05C71.2845 217.05 75.2781 247.201 62.5985 255.688C49.919 264.174 40.9335 265.572 43.1299 278.651L41.5325 278.751Z" fill="#4286E8"/>
<path d="M55.2101 249.597C41.033 259.881 39.8349 271.862 42.0314 277.353C42.231 277.752 42.5305 278.052 42.9299 278.151C41.033 265.472 49.9186 264.074 62.3985 255.588C75.078 247.101 71.0845 216.95 71.0845 216.95C71.0845 216.95 69.4871 239.314 55.2101 249.597Z" fill="#1D54B5"/>
<path d="M32.0479 279.05C32.0479 279.05 33.9448 271.462 32.9464 263.176C31.9481 254.989 23.3619 250.296 15.2749 241.61C11.1815 237.118 9.88364 213.456 12.4795 211.259C12.4795 211.259 -1.69768 228.432 0.498774 241.011C2.69523 253.591 25.8579 261.778 27.9545 267.868C30.0511 273.958 29.9513 279.05 29.9513 279.05H32.0479Z" fill="#4286E8"/>
<path d="M7.68682 218.049C2.99439 230.728 7.78666 246.104 23.3615 255.688C34.843 262.677 31.149 277.353 31.149 277.353L33.0459 271.563C33.2456 269.067 33.2456 266.171 32.8462 263.176C31.8479 254.989 23.2617 250.297 15.1747 241.611C11.1812 237.318 9.88328 215.154 12.0797 211.559C11.5805 212.458 9.6836 214.754 7.68682 218.049Z" fill="#1D54B5"/>
<path d="M12.1797 211.559C12.3797 211.359 12.4797 211.259 12.4797 211.259C12.3797 211.359 12.2797 211.459 12.1797 211.559Z" fill="#49B4D6"/>
<path d="M44.5273 278.051C44.5273 278.051 47.822 265.671 56.1087 264.074C64.2955 262.377 73.7802 250.296 74.2794 247.9C74.1795 247.9 72.7818 270.863 44.5273 278.051Z" fill="#4286E8"/>
<path d="M55.6099 268.167C50.618 270.663 48.5214 274.058 47.7227 277.153C72.9819 269.066 74.2798 247.9 74.2798 247.9C74.18 248.399 73.6808 249.198 72.9819 250.296C70.4859 254.589 64.4956 263.675 55.6099 268.167Z" fill="#1D54B5"/>
<path d="M62.2992 273.559H19.2686L24.3603 305.707C24.7597 308.103 26.8563 309.9 29.3523 309.9H52.2154C54.7114 309.9 56.808 308.103 57.2074 305.707L62.2992 273.559Z" fill="#C0214B"/>
<path d="M61.4006 278.85L62.2992 273.559H19.2686L20.0673 278.85H61.4006Z" fill="#DB2A59"/>
<path d="M51.8162 273.559L46.7244 305.707C46.325 308.103 44.2284 309.9 41.7324 309.9H52.1157C54.6117 309.9 56.7083 308.103 57.1076 305.707L62.1994 273.559H51.8162Z" fill="#DB2A59"/>
<path d="M231.726 236.718H222.74V310H231.726V236.718Z" fill="white"/>
<path d="M231.626 236.718H228.132V310H231.626V236.718Z" fill="#E8F2FC"/>
<path d="M252.892 304.01H203.971C202.273 304.01 200.976 305.308 200.976 307.005C200.976 308.702 202.273 310 203.971 310H252.892C254.589 310 255.887 308.702 255.887 307.005C255.887 305.308 254.589 304.01 252.892 304.01Z" fill="white"/>
<path d="M252.892 304.01H203.971C202.873 304.01 201.974 304.609 201.375 305.507H243.807C245.504 305.507 246.802 306.805 246.802 308.503C246.802 309.102 246.602 309.601 246.402 310H252.992C254.689 310 255.987 308.702 255.987 307.005C255.887 305.308 254.589 304.01 252.892 304.01Z" fill="#E8F2FC"/>
<path d="M231.726 236.718H222.74V243.208H231.726V236.718Z" fill="#E8F2FC"/>
<path d="M278.051 134.583C276.753 133.984 275.355 133.684 273.858 133.684H223.439C218.547 133.684 214.254 137.179 213.355 142.071L197.581 224.638C197.281 225.936 197.381 227.333 197.581 228.531V228.631H183.603C181.307 228.631 179.41 230.528 179.41 232.825C179.41 235.121 181.307 237.018 183.603 237.018H228.93V236.918H258.083C262.975 236.918 267.268 233.424 268.167 228.531L283.942 145.965C284.94 141.073 282.244 136.48 278.051 134.583Z" fill="#FF9933"/>
<path d="M284.041 145.965L268.267 228.531C267.368 233.324 263.075 236.818 258.183 236.818H228.93V236.918H183.603C181.307 236.918 179.41 235.021 179.41 232.725C179.41 230.428 181.307 228.531 183.603 228.531H197.581V228.432C197.681 228.432 197.88 228.432 197.98 228.432H248.399C255.188 228.432 260.979 223.639 262.277 216.95L278.051 134.483C282.244 136.48 284.94 141.073 284.041 145.965Z" fill="#E8F2FC"/>
<path d="M262.376 216.651L262.276 217.15C260.978 223.839 255.188 228.631 248.399 228.631H197.98C197.88 228.631 197.68 228.631 197.581 228.631V228.731H183.603C181.507 228.731 179.809 230.229 179.51 232.226V220.944V220.844C179.21 218.647 181.107 216.651 183.304 216.651H262.376Z" fill="white"/>
<path d="M278.051 134.583L262.276 217.05C260.978 223.739 255.188 228.531 248.399 228.531H197.98C197.88 228.531 197.68 228.531 197.581 228.531C197.381 227.333 197.281 225.936 197.581 224.638L213.355 142.071C214.254 137.279 218.547 133.684 223.439 133.684H273.858C275.455 133.784 276.853 134.084 278.051 134.583Z" fill="white"/>
<path d="M158.544 114.815H72.6823C70.6855 114.815 69.1879 116.612 69.4874 118.609L76.8755 169.027C77.0752 170.625 78.473 171.823 80.0704 171.823H165.932C167.929 171.823 169.426 170.026 169.127 168.029L161.739 117.61C161.639 116.013 160.241 114.815 158.544 114.815Z" fill="#1D54B5"/>
<path d="M146.563 114.815H72.7819C70.7851 114.815 69.2875 116.612 69.5871 118.609L72.8817 140.873C80.769 144.367 89.7545 146.264 99.2392 146.264C123.8 146.264 138.276 133.185 146.563 114.815Z" fill="#3070CE"/>
<path d="M119.606 153.353H108.624H103.333C101.935 153.353 100.837 154.551 101.036 155.948L105.928 189.794C105.928 189.894 105.928 189.994 105.928 190.093L106.128 191.391C106.328 192.49 107.226 193.388 108.424 193.388H113.716H124.498L119.606 153.353Z" fill="#4286E8"/>
<path d="M143.368 190.992C143.368 189.694 142.27 188.696 141.071 188.696H128.791C126.994 188.696 125.397 187.398 125.197 185.601L121.603 159.243H123.699C125.097 159.243 126.195 158.045 125.996 156.647L125.796 155.349C125.596 154.251 124.698 153.353 123.5 153.353H119.207C117.31 153.353 115.712 155.05 116.012 156.947L120.505 190.393C120.704 192.09 122.202 193.288 123.799 193.288H140.972C142.369 193.388 143.368 192.29 143.368 190.992Z" fill="#1D54B5"/>
<path d="M134.582 164.535C134.582 165.433 133.883 166.032 133.084 166.032C132.186 166.032 131.587 165.333 131.587 164.535C131.587 163.636 132.286 163.037 133.084 163.037C133.883 163.037 134.582 163.736 134.582 164.535Z" fill="#4286E8"/>
<path d="M142.47 164.535C142.47 165.433 141.771 166.032 140.972 166.032C140.074 166.032 139.475 165.333 139.475 164.535C139.475 163.636 140.173 163.037 140.972 163.037C141.771 163.037 142.47 163.736 142.47 164.535Z" fill="#4286E8"/>
<path d="M147.861 166.032C148.688 166.032 149.358 165.362 149.358 164.535C149.358 163.708 148.688 163.037 147.861 163.037C147.034 163.037 146.363 163.708 146.363 164.535C146.363 165.362 147.034 166.032 147.861 166.032Z" fill="#4286E8"/>
<path d="M156.946 138.177L161.439 169.027C161.639 170.625 163.036 171.823 164.634 171.823H165.932C167.929 171.823 169.426 170.026 169.127 168.029L161.739 117.61C161.539 116.013 160.141 114.815 158.544 114.815H157.246C155.249 114.815 153.751 116.612 154.051 118.609L156.946 138.177Z" fill="#4286E8"/>
<path d="M124.499 120.306H94.5469C93.848 120.306 93.249 121.005 93.3488 121.704L93.5485 122.902C93.6483 123.501 94.1475 123.9 94.7466 123.9H124.698C125.397 123.9 125.996 123.201 125.896 122.502L125.697 121.304C125.497 120.705 124.998 120.306 124.499 120.306Z" fill="#4286E8"/>
<path d="M246.102 135.681C245.104 128.393 234.421 131.787 238.514 124.998C242.208 118.709 237.915 115.913 232.823 114.915C226.334 113.617 230.028 111.121 226.833 105.031C222.84 97.343 216.55 99.6393 216.55 99.6393C216.55 99.6393 208.762 95.4461 200.775 102.135C192.389 109.224 194.186 115.414 198.679 124C200.975 128.293 198.179 132.187 196.183 140.174C193.786 149.758 205.567 168.928 230.827 155.949C240.711 150.857 246.601 139.575 246.102 135.681Z" fill="#13448C"/>
<path d="M211.258 137.678C211.258 137.678 207.365 138.077 203.471 141.971C200.875 144.567 187.896 170.325 187.896 170.325L176.015 133.884L167.329 134.583C167.329 134.583 177.113 193.288 184.801 193.388C191.989 193.488 214.952 155.549 214.952 155.549L211.258 137.678Z" fill="#C0214B"/>
<path d="M235.918 153.053L243.506 181.607L198.379 185.301L198.579 193.488C198.579 193.488 250.595 193.688 260.479 193.588C266.968 193.488 254.688 141.771 246.901 135.881C240.711 131.189 223.538 132.486 223.538 132.486L211.358 137.678C211.358 137.678 197.181 151.755 205.667 164.934C212.356 175.317 203.87 195.585 203.87 195.585L232.724 197.282L258.482 197.482L235.918 153.053Z" fill="#C0214B"/>
<path d="M207.065 184.602L208.663 184.303C210.26 177.514 210.46 168.329 206.966 163.836C199.977 155.05 207.165 142.271 211.259 137.678C210.66 138.377 197.281 151.955 205.568 164.934C209.462 171.124 208.563 179.111 207.065 184.602Z" fill="#DB2A59"/>
<path d="M198.479 187.198C193.687 187.398 188.595 189.095 186.199 191.891C185.699 192.49 186.099 193.488 186.898 193.488H198.479V187.198Z" fill="#FFB19E"/>
<path d="M223.539 122.902V132.586L214.853 142.47L214.753 142.37L212.357 137.378V131.987C208.064 131.388 204.27 128.093 203.271 123.401L202.073 116.712C202.073 116.712 208.563 116.013 213.655 110.821C213.655 110.821 215.152 113.617 217.448 115.813C219.046 117.411 221.242 117.81 222.141 118.709C223.239 119.807 223.638 121.304 223.539 122.902Z" fill="#FFB19E"/>
<path d="M221.142 114.515C221.142 114.515 220.843 110.422 219.245 107.027C217.448 103.034 214.952 98.3415 209.86 98.3415C209.86 98.3415 222.44 96.3447 224.537 113.816L221.142 114.515Z" fill="#FF4751"/>
<path d="M228.63 117.411C228.231 114.016 225.436 111.62 222.341 111.92C219.246 112.219 217.049 115.214 217.349 118.609C217.748 122.003 220.543 124.399 223.638 124.1C226.733 123.8 229.03 120.805 228.63 117.411Z" fill="#FF4751"/>
<path d="M224.737 123.501C221.742 123.8 219.046 121.504 218.647 118.209C218.347 115.214 220.144 112.519 222.74 111.92C222.54 111.92 222.441 111.92 222.241 111.92C219.146 112.219 216.949 115.214 217.249 118.609C217.648 122.003 220.444 124.399 223.539 124.1C224.537 124 225.336 123.601 226.135 123.102C225.735 123.301 225.236 123.501 224.737 123.501Z" fill="#CC3241"/>
<path d="M226.434 117.61C226.235 116.013 224.937 114.815 223.439 114.915C221.942 115.114 220.843 116.512 221.043 118.11C221.243 119.707 222.541 120.905 224.038 120.805C225.536 120.705 226.634 119.208 226.434 117.61Z" fill="#CC3241"/>
<path d="M220.643 127.794C220.244 128.293 218.247 130.789 216.55 132.187C215.851 132.786 215.551 133.585 215.551 134.383L214.753 142.271L212.356 137.279V131.887L212.456 131.788C212.456 131.887 217.947 130.989 220.643 127.794Z" fill="#F48F7A"/>
<path d="M216.949 127.395L216.85 126.796C220.044 126.296 222.341 122.003 222.341 122.003L222.84 122.303C222.74 122.502 220.344 126.796 216.949 127.395Z" fill="#FF4751"/>
<path d="M217.548 127.095C217.448 126.596 216.65 126.296 215.751 126.496C214.853 126.696 214.154 127.195 214.254 127.694C214.353 128.193 215.152 128.493 216.051 128.293C216.949 128.193 217.648 127.594 217.548 127.095Z" fill="#FF4751"/>
<path d="M175.316 134.084C175.316 134.084 176.514 124 175.416 123.601C174.318 123.201 173.22 127.494 173.22 127.494C173.22 127.494 168.527 118.409 165.332 119.407C162.138 120.406 168.028 134.383 168.028 134.383L175.316 134.084Z" fill="#FFB19E"/>
<path d="M207.065 184.602L242.608 181.607C243.806 181.507 244.705 180.409 244.405 179.211C243.107 172.522 239.313 153.552 239.114 154.052C238.814 154.75 242.708 176.515 238.115 178.712C235.02 180.209 207.065 184.602 207.065 184.602Z" fill="#DB2A59"/>
<path d="M231.226 289.733C230.927 289.833 230.727 289.932 230.527 290.232C228.231 293.427 226.234 294.126 222.241 294.625C222.041 294.625 221.741 294.725 221.542 294.824C221.841 294.325 223.139 292.229 222.241 290.232C221.242 288.035 219.944 286.438 219.944 286.438L225.735 282.944C225.835 283.043 229.429 287.137 231.226 289.733Z" fill="#FFB19E"/>
<path d="M235.519 297.121C234.521 298.119 217.947 307.105 214.054 309.401C213.555 309.7 212.556 310.2 212.456 309.701C212.157 308.902 219.345 295.024 222.34 294.625C226.334 294.126 228.331 293.327 230.527 290.232C231.026 289.533 232.025 289.533 232.424 290.232C234.022 292.628 236.318 296.322 235.519 297.121Z" fill="#13448C"/>
<path d="M203.97 195.485C203.97 195.485 163.835 214.055 162.737 227.034C161.838 238.515 220.943 291.031 220.943 291.031L230.328 287.137L197.98 234.921C197.98 234.921 232.324 218.048 240.711 197.681L203.97 195.485Z" fill="#13448C"/>
<path d="M178.312 223.639C175.616 228.931 173.619 236.219 172.222 242.808C176.814 248.2 182.505 254.29 188.396 260.28C184.003 243.008 180.109 225.636 181.507 223.14C184.103 218.448 201.075 205.768 213.156 199.578C213.156 199.578 184.702 211.459 178.312 223.639Z" fill="#09326D"/>
<path d="M207.564 300.515C207.265 300.415 207.065 300.415 206.766 300.615C203.271 302.213 201.175 301.913 197.381 300.415C197.181 300.316 196.882 300.316 196.582 300.316C197.081 300.016 199.278 298.818 199.477 296.721C199.677 294.325 199.378 292.328 199.378 292.328L206.167 292.129C206.167 292.029 207.265 297.42 207.564 300.515Z" fill="#FFB19E"/>
<path d="M207.764 309.601C206.367 310 186.898 309.7 182.305 309.8C181.706 309.8 181.307 309.301 181.407 308.802C181.607 307.903 194.586 299.417 197.381 300.515C201.075 302.013 203.172 302.312 206.766 300.715C207.465 300.415 208.363 300.815 208.463 301.713C208.663 304.409 208.863 309.301 207.764 309.601Z" fill="#13448C"/>
<path d="M258.183 197.482C258.183 197.482 261.577 220.245 241.21 225.936C225.136 230.428 207.864 232.825 207.864 232.825L209.062 297.42H198.379C198.379 297.42 178.711 228.432 181.506 223.24C184.701 217.449 209.661 199.678 220.444 196.483L258.183 197.482Z" fill="#1D54B5"/>
<path opacity="0.13" d="M207.864 232.825C207.864 232.825 225.136 230.528 241.21 225.936C261.577 220.145 258.183 197.482 258.183 197.482L245.603 197.182C241.809 205.369 229.529 225.536 199.577 227.733L206.366 297.42H209.162L207.864 232.825Z" fill="#0E367C"/>
<path d="M75.2779 310L70.7852 309.9L89.455 197.781H93.9478L75.2779 310Z" fill="white"/>
<path d="M260.079 309.9L264.872 310L241.709 196.483L237.017 196.583L260.079 309.9Z" fill="white"/>
<path d="M92.65 203.971L93.9479 197.781H89.4551L88.1572 203.971H92.65Z" fill="#E4EDF7"/>
<path d="M243.208 203.971L241.71 196.483L237.018 196.583L238.515 203.971H243.208Z" fill="#E4EDF7"/>
<path d="M268.966 193.488H66.5922C65.2943 193.488 64.2959 194.486 64.2959 195.784C64.2959 197.082 65.2943 198.081 66.5922 198.081H268.966C270.264 198.081 271.262 197.082 271.262 195.784C271.162 194.486 270.164 193.488 268.966 193.488Z" fill="white"/>
<path d="M188.995 94.0484L183.703 63.1981C183.504 61.8004 182.306 60.7021 180.808 60.7021L131.188 61.2013C129.391 61.2013 128.093 62.7988 128.293 64.496L132.985 91.5524L135.381 106.928C135.481 107.726 136.579 107.926 136.979 107.327L143.269 97.8423L186.099 97.3431C187.897 97.3431 189.195 95.7456 188.995 94.0484Z" fill="#1D54B5"/>
<path d="M171.324 70.2867H142.57C142.071 70.2867 141.671 70.6861 141.771 71.1853L141.871 71.984C141.971 72.3834 142.27 72.6829 142.67 72.6829H171.423C171.923 72.6829 172.322 72.2835 172.222 71.7843L172.122 70.9856C172.022 70.5863 171.723 70.2867 171.324 70.2867Z" fill="white"/>
<path d="M172.322 77.8745H143.568C143.069 77.8745 142.669 78.2739 142.769 78.7731L142.869 79.5718C142.969 79.9711 143.268 80.2707 143.668 80.2707H172.421C172.921 80.2707 173.32 79.8713 173.22 79.3721L173.12 78.5734C173.021 78.174 172.721 77.8745 172.322 77.8745Z" fill="white"/>
<path d="M165.434 86.1611H152.155C151.656 86.1611 151.256 86.5605 151.356 87.0597L151.456 87.8584C151.556 88.2577 151.855 88.5573 152.255 88.5573H165.533C166.033 88.5573 166.432 88.1579 166.332 87.6587L166.232 86.86C166.232 86.4606 165.833 86.1611 165.434 86.1611Z" fill="white"/>
<path d="M390.47 45.1273L397.06 16.0741C397.359 14.7762 396.66 13.7778 395.262 13.7778L348.438 14.277C346.741 14.277 344.944 15.7746 344.444 17.372L338.654 42.831L335.06 57.3076C334.86 58.1063 335.758 58.306 336.457 57.6071L345.942 48.6216L386.377 48.2223C388.174 48.2223 390.071 46.7247 390.47 45.1273Z" fill="#1D54B5"/>
<path d="M382.083 23.1627H356.425C356.025 23.1627 355.526 23.5621 355.426 23.9614L355.227 24.7601C355.127 25.0597 355.326 25.3592 355.726 25.3592H381.384C381.784 25.3592 382.283 24.9598 382.383 24.5605L382.583 23.7618C382.682 23.4622 382.483 23.1627 382.083 23.1627Z" fill="white"/>
<path d="M380.287 29.9518H354.528C354.129 29.9518 353.63 30.3511 353.53 30.7505L353.33 31.5492C353.23 31.8487 353.43 32.1482 353.829 32.1482H379.588C379.987 32.1482 380.486 31.7489 380.586 31.3495L380.786 30.5508C380.786 30.2513 380.586 29.9518 380.287 29.9518Z" fill="white"/>
<path d="M371.201 37.4397H359.32C358.921 37.4397 358.422 37.8391 358.322 38.2384L358.122 39.0371C358.022 39.3366 358.222 39.6362 358.621 39.6362H370.502C370.902 39.6362 371.401 39.2368 371.501 38.8374L371.7 38.0387C371.7 37.6394 371.501 37.4397 371.201 37.4397Z" fill="white"/>
<path d="M123.5 93.8487C124.099 94.3479 125.098 93.8487 124.998 93.05L118.608 56.4091C118.409 55.211 117.41 54.3125 116.212 54.3125L74.08 54.8117C72.5824 54.8117 71.3844 56.1096 71.6839 57.6072L76.1767 83.765C76.3763 84.9631 77.3747 85.8616 78.5728 85.8616L111.02 85.4623C112.518 85.4623 114.016 85.9614 115.214 86.9598L123.5 93.8487Z" fill="#C0214B"/>
<path d="M110.421 65.1949H81.6676C81.1684 65.1949 80.7691 65.5943 80.8689 66.0935L80.9688 66.8922C81.0686 67.2916 81.3681 67.5911 81.7675 67.5911H110.521C111.02 67.5911 111.42 67.1917 111.32 66.6925L111.22 65.8938C111.12 65.4945 110.821 65.1949 110.421 65.1949Z" fill="white"/>
<path d="M111.419 72.7827H82.6657C82.1665 72.7827 81.7671 73.1821 81.867 73.6813L81.9668 74.48C82.0666 74.8793 82.3662 75.1789 82.7655 75.1789H111.519C112.018 75.1789 112.418 74.7795 112.318 74.2803L112.218 73.4816C112.118 73.0822 111.819 72.7827 111.419 72.7827Z" fill="white"/>
<path d="M345.443 155.05L345.243 160.841L341.749 294.824H327.871L315.591 180.01L300.016 218.747L310.699 294.824H305.607L297.121 294.924C297.121 294.924 271.762 218.947 272.261 214.055C272.76 209.163 291.83 155.449 291.83 155.449L345.443 155.05Z" fill="#1D54B5"/>
<path d="M346.84 72.0837L320.782 68.4895L320.183 68.3896L307.703 68.4895H307.604L292.728 72.2834V155.749H346.84V72.0837Z" fill="#F95858"/>
<path d="M391.369 88.3574C391.369 88.3574 393.266 76.5764 394.664 76.4766C396.062 76.3767 395.862 81.6682 395.862 81.6682C395.862 81.6682 404.149 72.8824 407.443 75.0788C410.738 77.2753 399.556 91.1529 399.556 91.1529L391.369 88.3574Z" fill="#FFB19E"/>
<path d="M307.804 68.5895L309.201 160.841H289.733L288.335 135.581L262.477 135.182C259.781 135.282 257.784 132.686 258.583 130.09L271.462 85.3624C272.96 80.1708 277.153 76.0774 282.445 74.7795L307.704 68.4896L307.804 68.5895Z" fill="#4286E8"/>
<path d="M400.254 91.4525L375.195 142.87C373.597 145.765 369.504 145.865 367.807 142.969L348.238 110.522L347.24 160.741H326.473L320.683 68.4895H320.782L347.24 72.0837C352.232 72.8824 356.525 75.9774 358.721 80.57L372.1 108.126C372.399 108.824 373.398 108.924 373.797 108.325L390.77 87.9581L400.254 91.4525Z" fill="#4286E8"/>
<path d="M288.235 135.781H313.594L313.794 122.802L288.435 122.502L288.235 135.781Z" fill="#4286E8"/>
<path d="M313.695 132.187C320.883 131.887 328.471 129.391 332.065 125.198C332.864 124.299 332.165 122.802 330.967 122.802H313.595L313.695 132.187Z" fill="#FFB19E"/>
<path opacity="0.41" d="M303.81 136.38L303.91 135.981L288.335 135.781L289.733 160.841L294.325 140.074L303.81 136.38Z" fill="#13448C"/>
<path opacity="0.32" d="M345.343 160.841L341.849 294.824H340.85L331.565 160.841H345.343Z" fill="#0E367C"/>
<path opacity="0.41" d="M313.794 122.702C313.794 122.702 279.35 125.198 279.649 124.499L285.64 103.932L285.74 104.232L286.339 118.609C286.339 120.605 311.997 122.203 313.794 122.702Z" fill="#13448C"/>
<path opacity="0.41" d="M375.295 142.869L400.355 91.4524H400.255C397.559 91.4524 374.297 140.174 371.901 141.372C369.105 142.77 348.438 110.621 348.438 110.621L368.007 143.069C369.604 145.865 373.698 145.765 375.295 142.869Z" fill="#13448C"/>
<path d="M298.719 294.824C295.724 300.915 281.546 304.01 281.546 304.01C281.546 304.01 280.548 305.807 282.145 308.103C283.743 310.399 298.719 309.002 300.616 308.602C302.513 308.203 303.81 306.705 303.81 306.705C303.81 306.705 305.108 308.103 305.807 308.403C306.506 308.702 310.3 308.003 310.3 308.003C311.199 305.607 310.3 296.322 310 294.824H298.719Z" fill="#13448C"/>
<path d="M340.55 294.824C343.546 300.915 357.723 304.01 357.723 304.01C357.723 304.01 358.721 305.807 357.124 308.103C355.526 310.399 340.551 309.002 338.654 308.602C336.757 308.203 335.459 306.705 335.459 306.705C335.459 306.705 334.161 308.103 333.462 308.403C332.763 308.702 328.969 308.003 328.969 308.003C328.071 305.607 328.969 296.322 329.269 294.824H340.55Z" fill="#13448C"/>
<path opacity="0.32" d="M300.116 218.747L310.799 294.824H305.707C302.513 278.451 291.53 223.639 291.93 220.245C292.429 216.151 315.092 181.208 315.791 180.01L300.116 218.747Z" fill="#0E367C"/>
<path fill-rule="evenodd" clip-rule="evenodd" d="M320.682 68.5893C318.785 70.0869 314.193 73.2818 314.193 73.2818C314.193 73.2818 309.6 70.0869 307.604 68.5893V57.6071H320.583V68.5893H320.682Z" fill="#FFB19E"/>
<path fill-rule="evenodd" clip-rule="evenodd" d="M320.783 57.6071V62.1997C316.989 65.2947 311.598 65.2947 307.804 62.2995V57.6071H320.783Z" fill="#FFB19E"/>
<path fill-rule="evenodd" clip-rule="evenodd" d="M299.816 50.5185H329.069L329.568 42.3317C336.058 39.6361 331.166 24.161 331.166 24.161C331.565 27.8551 321.481 28.0547 317.488 27.3559C313.494 26.7568 310.799 28.3542 310.799 28.3542C310.799 28.3542 298.119 25.6586 298.818 43.4299C298.918 46.1256 299.217 48.4219 299.816 50.5185Z" fill="#13448C"/>
<path fill-rule="evenodd" clip-rule="evenodd" d="M325.974 42.3318V49.62C325.974 52.715 324.676 55.7102 322.38 57.9066C321.98 58.2062 321.681 58.6055 321.281 58.905C317.388 62.5991 311.198 62.5991 307.204 58.905L306.106 57.9066C303.81 55.81 302.512 52.8148 302.512 49.62V44.029C302.512 44.029 305.906 41.7327 310.599 36.2416C310.499 36.2416 315.69 41.2335 325.974 42.3318Z" fill="#FFB19E"/>
<path fill-rule="evenodd" clip-rule="evenodd" d="M320.783 59.4042V62.1997C316.989 65.2947 311.598 65.2947 307.804 62.2995V59.504C311.498 62.599 316.989 62.599 320.783 59.4042Z" fill="#F48F7A"/>
<path fill-rule="evenodd" clip-rule="evenodd" d="M305.407 51.3172C307.704 47.723 303.81 43.8293 300.216 46.1256C299.916 46.3253 299.717 46.525 299.517 46.8245C297.221 50.4187 301.114 54.3124 304.709 52.0161C305.008 51.9163 305.208 51.6168 305.407 51.3172Z" fill="#FFB19E"/>
<path fill-rule="evenodd" clip-rule="evenodd" d="M328.77 51.3173C330.966 47.7231 327.372 44.0291 323.878 45.926C323.379 46.2255 322.979 46.6249 322.78 47.0242C320.883 50.6184 324.577 54.2126 328.171 51.9163C328.271 51.9163 328.57 51.6168 328.77 51.3173Z" fill="#FFB19E"/>
<path d="M328.67 43.6297H327.472V39.7359C327.472 33.3463 321.681 28.1546 314.493 28.1546H313.993C306.805 28.1546 301.014 33.3463 301.014 39.7359V43.6297H299.916V39.7359C299.916 32.7472 306.206 27.0564 313.993 27.0564H314.493C322.28 27.0564 328.57 32.7472 328.57 39.7359V43.6297H328.67Z" fill="#A31919"/>
<path d="M327.671 41.5331C325.974 41.5331 324.576 42.9308 324.576 44.6281V50.2191C324.576 51.9163 325.974 53.3141 327.671 53.3141C329.368 53.3141 330.766 51.9163 330.766 50.2191V44.6281C330.866 42.9308 329.468 41.5331 327.671 41.5331Z" fill="#F95858"/>
<path d="M327.671 41.5331C327.372 41.5331 327.072 41.6329 326.772 41.7328C328.07 42.1321 328.969 43.3302 328.969 44.7279V50.3189C328.969 51.7167 328.07 52.9147 326.772 53.3141C327.072 53.4139 327.372 53.5138 327.671 53.5138C329.368 53.5138 330.766 52.116 330.766 50.4187V44.8278C330.866 42.9308 329.468 41.5331 327.671 41.5331Z" fill="#CC3241"/>
<path d="M300.815 41.5331C299.117 41.5331 297.72 42.9308 297.72 44.6281V50.2191C297.72 51.9163 299.117 53.3141 300.815 53.3141C302.512 53.3141 303.91 51.9163 303.91 50.2191V44.6281C303.91 42.9308 302.512 41.5331 300.815 41.5331Z" fill="#F95858"/>
<path d="M300.815 41.5331C300.515 41.5331 300.216 41.6329 299.916 41.7328C301.214 42.1321 302.112 43.3302 302.112 44.7279V50.3189C302.112 51.7167 301.214 52.9147 299.916 53.3141C300.216 53.4139 300.515 53.5138 300.815 53.5138C302.512 53.5138 303.91 52.116 303.91 50.4187V44.8278C303.91 42.9308 302.512 41.5331 300.815 41.5331Z" fill="#CC3241"/>
<path d="M319.284 56.9083V56.3093C322.878 56.1096 325.973 51.6168 325.973 51.6168L326.473 52.0162C326.273 52.116 323.078 56.7086 319.284 56.9083Z" fill="#FF4751"/>
<path d="M319.883 56.6088C319.883 56.0098 318.985 55.6104 317.987 55.7102C316.988 55.8101 316.189 56.3093 316.189 56.9083C316.189 57.5073 317.088 57.9067 318.086 57.8069C319.185 57.8069 319.983 57.2078 319.883 56.6088Z" fill="#FF4751"/>
<path d="M334.76 84.6635H289.333C286.837 84.6635 284.94 86.7601 285.04 89.3559L286.238 118.609C286.338 121.005 288.335 122.902 290.631 122.902H333.462C335.758 122.902 337.755 121.005 337.855 118.609L339.053 89.3559C339.153 86.8599 337.256 84.6635 334.76 84.6635Z" fill="#13448C"/>
<path d="M334.76 84.6635H289.333C288.135 84.6635 286.937 85.1626 286.238 86.0612C286.638 85.9614 287.037 85.8615 287.436 85.8615H332.863C335.359 85.8615 337.256 87.9581 337.156 90.5539L335.958 119.807C335.958 120.905 335.459 121.903 334.76 122.602C336.557 122.103 337.855 120.506 337.955 118.509L339.153 89.256C339.153 86.8599 337.256 84.6635 334.76 84.6635Z" fill="#1D54B5"/>
<path d="M316.888 104.531C316.888 101.736 314.592 99.3397 311.697 99.3397C308.901 99.3397 306.505 101.636 306.505 104.531C306.505 107.327 308.801 109.723 311.697 109.723C314.592 109.723 316.888 107.427 316.888 104.531Z" fill="#4286E8"/>
</g>
<defs>
<clipPath id="clip0">
<rect width="431.404" height="310" fill="white"/>
</clipPath>
</defs>
</svg>
