<svg width="80" height="80" viewBox="0 0 80 80" fill="none" xmlns="http://www.w3.org/2000/svg">
<path d="M56.7742 33.5485V32.2582H29.6774V5.16138H28.3871C12.7342 5.16138 0 17.8956 0 33.5485C0 46.3072 8.44387 57.3588 20.6452 60.8078V80.0001H80V37.4194H56.4684C56.6503 36.1201 56.7742 34.822 56.7742 33.5485ZM20.6452 58.124C9.9329 54.7691 2.58065 44.8994 2.58065 33.5485C2.58065 19.7523 13.4645 8.44783 27.0968 7.77299V34.8388H54.16C54.1148 35.693 54.0103 36.5549 53.8787 37.4194H20.6452V58.124ZM42.5806 49.0323C41.8684 49.0323 41.2903 48.4543 41.2903 47.742C41.2903 47.0298 41.8684 46.4517 42.5806 46.4517H45.1613C45.8735 46.4517 46.4516 47.0298 46.4516 47.742C46.4516 48.4543 45.8735 49.0323 45.1613 49.0323H42.5806ZM45.1613 54.1936C45.8735 54.1936 46.4516 54.7717 46.4516 55.484C46.4516 56.1962 45.8735 56.7743 45.1613 56.7743H42.5806C41.8684 56.7743 41.2903 56.1962 41.2903 55.484C41.2903 54.7717 41.8684 54.1936 42.5806 54.1936H45.1613ZM29.6774 56.7743C28.9652 56.7743 28.3871 56.1962 28.3871 55.484C28.3871 54.7717 28.9652 54.1936 29.6774 54.1936H32.2581C32.9703 54.1936 33.5484 54.7717 33.5484 55.484C33.5484 56.1962 32.9703 56.7743 32.2581 56.7743H29.6774ZM32.2581 61.9356C32.9703 61.9356 33.5484 62.5136 33.5484 63.2259C33.5484 63.9381 32.9703 64.5162 32.2581 64.5162H29.6774C28.9652 64.5162 28.3871 63.9381 28.3871 63.2259C28.3871 62.5136 28.9652 61.9356 29.6774 61.9356H32.2581ZM29.6774 77.4194H23.2258V40.0001H29.6774V51.613C27.5432 51.613 25.8064 53.3498 25.8064 55.484C25.8064 57.6181 27.5432 59.3549 29.6774 59.3549C27.5432 59.3549 25.8064 61.0917 25.8064 63.2259C25.8064 65.3601 27.5432 67.0969 29.6774 67.0969C27.5432 67.0969 25.8064 68.8336 25.8064 70.9678C25.8064 73.102 27.5432 74.8388 29.6774 74.8388V77.4194ZM28.3871 70.9678C28.3871 70.2556 28.9652 69.6775 29.6774 69.6775H32.2581C32.9703 69.6775 33.5484 70.2556 33.5484 70.9678C33.5484 71.6801 32.9703 72.2581 32.2581 72.2581H29.6774C28.9652 72.2581 28.3871 71.6801 28.3871 70.9678ZM42.5806 77.4194H32.2581V74.8388C34.3923 74.8388 36.129 73.102 36.129 70.9678C36.129 68.8336 34.3923 67.0969 32.2581 67.0969C34.3923 67.0969 36.129 65.3601 36.129 63.2259C36.129 61.0917 34.3923 59.3549 32.2581 59.3549C34.3923 59.3549 36.129 57.6181 36.129 55.484C36.129 53.3498 34.3923 51.613 32.2581 51.613V40.0001H42.5806V43.8711C40.4464 43.8711 38.7097 45.6078 38.7097 47.742C38.7097 49.8762 40.4464 51.613 42.5806 51.613C40.4464 51.613 38.7097 53.3498 38.7097 55.484C38.7097 57.6181 40.4464 59.3549 42.5806 59.3549C40.4464 59.3549 38.7097 61.0917 38.7097 63.2259C38.7097 65.3601 40.4464 67.0969 42.5806 67.0969V77.4194ZM41.2903 63.2259C41.2903 62.5136 41.8684 61.9356 42.5806 61.9356H45.1613C45.8735 61.9356 46.4516 62.5136 46.4516 63.2259C46.4516 63.9381 45.8735 64.5162 45.1613 64.5162H42.5806C41.8684 64.5162 41.2903 63.9381 41.2903 63.2259ZM55.4839 77.4194H45.1613V67.0969C47.2955 67.0969 49.0323 65.3601 49.0323 63.2259C49.0323 61.0917 47.2955 59.3549 45.1613 59.3549C47.2955 59.3549 49.0323 57.6181 49.0323 55.484C49.0323 53.3498 47.2955 51.613 45.1613 51.613C47.2955 51.613 49.0323 49.8762 49.0323 47.742C49.0323 45.6078 47.2955 43.8711 45.1613 43.8711V40.0001H55.4839V43.8711C53.3497 43.8711 51.6129 45.6078 51.6129 47.742C51.6129 49.8762 53.3497 51.613 55.4839 51.613V59.3549C53.3497 59.3549 51.6129 61.0917 51.6129 63.2259C51.6129 65.3601 53.3497 67.0969 55.4839 67.0969C53.3497 67.0969 51.6129 68.8336 51.6129 70.9678C51.6129 73.102 53.3497 74.8388 55.4839 74.8388V77.4194ZM58.0645 61.9356C58.7768 61.9356 59.3548 62.5136 59.3548 63.2259C59.3548 63.9381 58.7768 64.5162 58.0645 64.5162H55.4839C54.7716 64.5162 54.1935 63.9381 54.1935 63.2259C54.1935 62.5136 54.7716 61.9356 55.4839 61.9356H58.0645ZM54.1935 70.9678C54.1935 70.2556 54.7716 69.6775 55.4839 69.6775H58.0645C58.7768 69.6775 59.3548 70.2556 59.3548 70.9678C59.3548 71.6801 58.7768 72.2581 58.0645 72.2581H55.4839C54.7716 72.2581 54.1935 71.6801 54.1935 70.9678ZM70.9677 69.6775C71.68 69.6775 72.2581 70.2556 72.2581 70.9678C72.2581 71.6801 71.68 72.2581 70.9677 72.2581H68.3871C67.6748 72.2581 67.0968 71.6801 67.0968 70.9678C67.0968 70.2556 67.6748 69.6775 68.3871 69.6775H70.9677ZM68.3871 56.7743C67.6748 56.7743 67.0968 56.1962 67.0968 55.484C67.0968 54.7717 67.6748 54.1936 68.3871 54.1936H70.9677C71.68 54.1936 72.2581 54.7717 72.2581 55.484C72.2581 56.1962 71.68 56.7743 70.9677 56.7743H68.3871ZM70.9677 40.0001H77.4193V77.4194H70.9677V74.8388C73.1019 74.8388 74.8387 73.102 74.8387 70.9678C74.8387 68.8336 73.1019 67.0969 70.9677 67.0969V59.3549C73.1019 59.3549 74.8387 57.6181 74.8387 55.484C74.8387 53.3498 73.1019 51.613 70.9677 51.613C73.1019 51.613 74.8387 49.8762 74.8387 47.742C74.8387 45.6078 73.1019 43.8711 70.9677 43.8711V40.0001ZM72.2581 47.742C72.2581 48.4543 71.68 49.0323 70.9677 49.0323H68.3871C67.6748 49.0323 67.0968 48.4543 67.0968 47.742C67.0968 47.0298 67.6748 46.4517 68.3871 46.4517H70.9677C71.68 46.4517 72.2581 47.0298 72.2581 47.742ZM58.0645 40.0001H68.3871V43.8711C66.2529 43.8711 64.5161 45.6078 64.5161 47.742C64.5161 49.8762 66.2529 51.613 68.3871 51.613C66.2529 51.613 64.5161 53.3498 64.5161 55.484C64.5161 57.6181 66.2529 59.3549 68.3871 59.3549V67.0969C66.2529 67.0969 64.5161 68.8336 64.5161 70.9678C64.5161 73.102 66.2529 74.8388 68.3871 74.8388V77.4194H58.0645V74.8388C60.1987 74.8388 61.9355 73.102 61.9355 70.9678C61.9355 68.8336 60.1987 67.0969 58.0645 67.0969C60.1987 67.0969 61.9355 65.3601 61.9355 63.2259C61.9355 61.0917 60.1987 59.3549 58.0645 59.3549V51.613C60.1987 51.613 61.9355 49.8762 61.9355 47.742C61.9355 45.6078 60.1987 43.8711 58.0645 43.8711V40.0001ZM58.0645 46.4517C58.7768 46.4517 59.3548 47.0298 59.3548 47.742C59.3548 48.4543 58.7768 49.0323 58.0645 49.0323H55.4839C54.7716 49.0323 54.1935 48.4543 54.1935 47.742C54.1935 47.0298 54.7716 46.4517 55.4839 46.4517H58.0645Z" fill="white"/>
<path d="M57.5301 0L51.2836 6.24645C46.4204 2.34323 40.2539 0 33.5481 0H32.2578V29.6774H61.9352V28.3871C61.9352 20.369 58.5881 13.1213 53.2243 7.95484L58.5985 2.58065H79.9997V0H57.5301ZM59.3236 27.0968H34.8385V2.61161C40.3339 2.88387 45.3675 4.90064 49.4359 8.0929L41.6681 15.8606L43.4927 17.6852L51.392 9.78581C55.9997 14.2077 58.9868 20.3045 59.3236 27.0968Z" fill="white"/>
<path d="M79.9996 5.16138H77.4189V7.74202H79.9996V5.16138Z" fill="white"/>
<path d="M74.8391 5.16138H60.6455V7.74202H74.8391V5.16138Z" fill="white"/>
</svg>
