<svg width="80" height="80" viewBox="0 0 80 80" fill="none" xmlns="http://www.w3.org/2000/svg">
<path d="M23.75 51.25H26.25V56.25H23.75V51.25Z" fill="white"/>
<path d="M27.5 51.25H30V56.25H27.5V51.25Z" fill="white"/>
<path d="M31.25 51.25H33.75V56.25H31.25V51.25Z" fill="white"/>
<path d="M52.5 51.25H55V53.75H52.5V51.25Z" fill="white"/>
<path d="M48.75 51.25H51.25V53.75H48.75V51.25Z" fill="white"/>
<path d="M23.75 37.5H26.25V42.5H23.75V37.5Z" fill="white"/>
<path d="M27.5 37.5H30V42.5H27.5V37.5Z" fill="white"/>
<path d="M31.25 37.5H33.75V42.5H31.25V37.5Z" fill="white"/>
<path d="M52.5 37.5H55V40H52.5V37.5Z" fill="white"/>
<path d="M48.75 37.5H51.25V40H48.75V37.5Z" fill="white"/>
<path d="M23.75 23.75H26.25V28.75H23.75V23.75Z" fill="white"/>
<path d="M27.5 23.75H30V28.75H27.5V23.75Z" fill="white"/>
<path d="M31.25 23.75H33.75V28.75H31.25V23.75Z" fill="white"/>
<path d="M52.5 23.75H55V26.25H52.5V23.75Z" fill="white"/>
<path d="M48.75 23.75H51.25V26.25H48.75V23.75Z" fill="white"/>
<path d="M78.75 40C78.75 36.78 76.2925 34.1512 73.1588 33.8162C70.6138 20.0425 59.9562 9.385 46.1837 6.84125C45.8487 3.7075 43.22 1.25 40 1.25C36.78 1.25 34.1512 3.7075 33.8162 6.84125C20.0438 9.385 9.38625 20.0425 6.84125 33.8162C3.7075 34.1512 1.25 36.78 1.25 40C1.25 43.22 3.7075 45.8487 6.84125 46.1837C9.38625 59.9575 20.0438 70.615 33.8175 73.16C34.1513 76.2925 36.78 78.75 40 78.75C43.22 78.75 45.8487 76.2925 46.1837 73.1588C59.9575 70.6138 70.615 59.9575 73.16 46.1825C76.2925 45.8487 78.75 43.22 78.75 40ZM68.9113 45.1012C66.9688 47.165 63.8825 49.0312 60 50.485V50C60 48.6213 58.8787 47.5 57.5 47.5V46.25C58.8787 46.25 60 45.1287 60 43.75V36.25C60 34.8713 58.8787 33.75 57.5 33.75V32.5C58.8787 32.5 60 31.3787 60 30V29.5138C63.8825 30.9688 66.97 32.8337 68.9113 34.8975C67.3075 36.0312 66.25 37.8913 66.25 40C66.25 42.1087 67.3075 43.9688 68.9113 45.1012ZM45.1012 68.9125C43.9688 67.3075 42.1087 66.25 40 66.25C37.8913 66.25 36.0312 67.3075 34.8988 68.9125C32.8338 66.97 30.97 63.8825 29.515 60H50.4863C49.0312 63.8825 47.1663 66.97 45.1012 68.9125ZM22.5 57.5V50H57.5V57.5H22.5ZM20 50V50.4863C16.1175 49.0312 13.0312 47.1663 11.0888 45.1012C12.6925 43.9688 13.75 42.1087 13.75 40C13.75 37.8913 12.6925 36.0312 11.0888 34.8988C13.0312 32.835 16.1175 30.9688 20 29.515V30C20 31.3787 21.1213 32.5 22.5 32.5V33.75C21.1213 33.75 20 34.8713 20 36.25V43.75C20 45.1287 21.1213 46.25 22.5 46.25V47.5C21.1213 47.5 20 48.6213 20 50ZM34.8988 11.0875C36.0312 12.6925 37.8913 13.75 40 13.75C42.105 13.75 43.9613 12.6962 45.095 11.0975C47.1637 13.035 49.02 16.09 50.4825 20H29.515C30.9688 16.1175 32.8338 13.03 34.8988 11.0875ZM57.5 22.5V30H22.5V22.5H57.5ZM55 46.25V47.5H25V46.25H55ZM22.5 43.75V36.25H57.5V43.75H22.5ZM25 33.75V32.5H55V33.75H25ZM70.43 32.875C68.0588 30.485 64.5 28.4362 60 26.8637V22.5C60 21.1213 58.8787 20 57.5 20H53.1338C51.5687 15.53 49.4937 11.9412 47.1112 9.5675C58.7337 12.2525 67.74 21.2537 70.43 32.875ZM40 3.75C42.0675 3.75 43.75 5.4325 43.75 7.5C43.75 9.5675 42.0675 11.25 40 11.25C37.9325 11.25 36.25 9.5675 36.25 7.5C36.25 5.4325 37.9325 3.75 40 3.75ZM32.875 9.57C30.485 11.9412 28.435 15.5 26.8637 20H22.5C21.1213 20 20 21.1213 20 22.5V26.8637C15.5 28.435 11.9412 30.485 9.57 32.8737C12.2587 21.2588 21.2587 12.2587 32.875 9.57ZM3.75 40C3.75 37.9325 5.4325 36.25 7.5 36.25C9.5675 36.25 11.25 37.9325 11.25 40C11.25 42.0675 9.5675 43.75 7.5 43.75C5.4325 43.75 3.75 42.0675 3.75 40ZM9.57 47.125C11.9412 49.515 15.5 51.5637 20 53.1362V57.5C20 58.8787 21.1213 60 22.5 60H26.8637C28.435 64.5 30.485 68.0588 32.875 70.43C21.2587 67.7412 12.2587 58.7413 9.57 47.125ZM40 76.25C37.9325 76.25 36.25 74.5675 36.25 72.5C36.25 70.4325 37.9325 68.75 40 68.75C42.0675 68.75 43.75 70.4325 43.75 72.5C43.75 74.5675 42.0675 76.25 40 76.25ZM47.125 70.43C49.515 68.0588 51.565 64.5 53.1362 60H57.5C58.8787 60 60 58.8787 60 57.5V53.1362C64.5 51.565 68.0588 49.515 70.43 47.1263C67.7412 58.7412 58.7413 67.7412 47.125 70.43ZM72.5 43.75C70.4325 43.75 68.75 42.0675 68.75 40C68.75 37.9325 70.4325 36.25 72.5 36.25C74.5675 36.25 76.25 37.9325 76.25 40C76.25 42.0675 74.5675 43.75 72.5 43.75Z" fill="white"/>
</svg>
