<svg width="80" height="80" viewBox="0 0 80 80" fill="none" xmlns="http://www.w3.org/2000/svg">
<path d="M62.6916 0L58.2619 4.42968C52.7819 1.60516 46.5768 0 40 0H38.7097V3.90323C19.3845 4.5871 3.87097 20.511 3.87097 40C3.87097 49.2181 7.3071 57.9045 13.5626 64.6129L10.8039 67.3716L11.7161 68.2839C14.049 70.6168 16.6194 72.6232 19.3729 74.2864L16.24 77.4193H0V80H17.3084L21.7187 75.5897C27.3058 78.4671 33.5329 80 40 80C50.6852 80 60.729 75.8387 68.2839 68.2839L69.1961 67.3716L66.4374 64.6129C72.4 58.2194 75.7923 50.0271 76.0981 41.2903H80V40C80 25.4774 72.2194 12.7406 60.609 5.73161L63.76 2.58065H80V0H62.6916ZM40 21.9355C49.9613 21.9355 58.0645 30.0387 58.0645 40V41.2903H60.5819C60.2994 45.889 58.5174 50.191 55.4658 53.6413L53.6852 51.8606L52.7729 52.7729C49.3626 56.1858 44.8258 58.0645 40 58.0645C35.1742 58.0645 30.6374 56.1858 27.2271 52.7729L26.3148 51.8606L24.5342 53.6413C21.1974 49.8684 19.3548 45.0813 19.3548 40C19.3548 29.0516 27.9277 20.0916 38.7097 19.4206V21.9355H40ZM6.45161 40C6.45161 21.9329 20.8065 7.16516 38.7097 6.48387V16.8387C26.5045 17.5148 16.7742 27.6297 16.7742 40C16.7742 45.7703 18.8865 51.2039 22.7097 55.4658L15.3884 62.7871C9.61806 56.5677 6.45161 48.529 6.45161 40ZM40 77.4193C34.2361 77.4193 28.6761 76.1174 23.6426 73.6658L29.2994 68.009L27.4748 66.1845L21.2594 72.4C18.8374 70.9935 16.5574 69.311 14.4684 67.3561L26.3419 55.4826C30.1148 58.8206 34.9161 60.6452 40 60.6452C45.0826 60.6452 49.8852 58.8206 53.6581 55.4826L65.5316 67.3561C58.5794 73.8555 49.5639 77.4193 40 77.4193ZM64.6129 62.7871L57.2903 55.4658C60.8258 51.5239 62.8735 46.5781 63.1626 41.2903H73.5161C73.2142 49.3368 70.089 56.8826 64.6129 62.7871ZM77.3974 38.7097H60.6052C59.9639 28.3523 51.6477 20.0361 41.2903 19.3948V2.60258C46.6723 2.78581 51.7652 4.11742 56.3419 6.34968L50.7006 11.991L52.5252 13.8155L58.7213 7.61935C69.5394 13.8994 76.9445 25.4348 77.3974 38.7097Z" fill="white"/>
<path d="M79.9996 5.16138H77.4189V7.74202H79.9996V5.16138Z" fill="white"/>
<path d="M74.8386 5.16138H67.0967V7.74202H74.8386V5.16138Z" fill="white"/>
<path d="M7.74194 72.2581H0V74.8387H7.74194V72.2581Z" fill="white"/>
<path d="M12.9029 72.2581H10.3223V74.8387H12.9029V72.2581Z" fill="white"/>
<path d="M30.6637 28.3872H24.5166V30.9679H28.6921L32.5631 45.1614H36.1295H47.7424H52.7527L54.3656 32.2582H31.7192L30.6637 28.3872ZM51.4418 34.8388L50.474 42.5808H34.5347L32.4224 34.8388H51.4418Z" fill="white"/>
<path d="M32.2578 49.0323C32.2578 51.1665 33.9946 52.9033 36.1288 52.9033C38.263 52.9033 39.9997 51.1665 39.9997 49.0323C39.9997 46.8982 38.263 45.1614 36.1288 45.1614C33.9946 45.1614 32.2578 46.8982 32.2578 49.0323ZM36.1288 47.742C36.841 47.742 37.4191 48.3201 37.4191 49.0323C37.4191 49.7446 36.841 50.3227 36.1288 50.3227C35.4165 50.3227 34.8385 49.7446 34.8385 49.0323C34.8385 48.3201 35.4165 47.742 36.1288 47.742Z" fill="white"/>
<path d="M43.8711 49.0323C43.8711 51.1665 45.6079 52.9033 47.7421 52.9033C49.8763 52.9033 51.613 51.1665 51.613 49.0323C51.613 46.8982 49.8763 45.1614 47.7421 45.1614C45.6079 45.1614 43.8711 46.8982 43.8711 49.0323ZM47.7421 47.742C48.4543 47.742 49.0324 48.3201 49.0324 49.0323C49.0324 49.7446 48.4543 50.3227 47.7421 50.3227C47.0298 50.3227 46.4517 49.7446 46.4517 49.0323C46.4517 48.3201 47.0298 47.742 47.7421 47.742Z" fill="white"/>
<path d="M74.8385 33.5483H72.2578V36.129H74.8385V33.5483Z" fill="white"/>
<path d="M69.6773 33.5483H67.0967V36.129H69.6773V33.5483Z" fill="white"/>
<path d="M64.5162 33.5483H61.9355V36.129H64.5162V33.5483Z" fill="white"/>
</svg>
