<svg width="80" height="80" viewBox="0 0 80 80" fill="none" xmlns="http://www.w3.org/2000/svg">
<path d="M72.4955 24.5161C73.0297 26.0155 74.449 27.0968 76.129 27.0968C78.2632 27.0968 80 25.36 80 23.2258C80 21.0916 78.2632 19.3548 76.129 19.3548C74.449 19.3548 73.0297 20.4361 72.4955 21.9355H46.3858C46.1394 17.4761 44.6452 13.351 42.2232 9.90839L42.9161 9.59355C43.551 10.0477 44.3226 10.3226 45.1613 10.3226C46.1858 10.3226 47.1123 9.91613 47.8052 9.26323L55.5355 13.6813C55.5123 13.8503 55.4839 14.0181 55.4839 14.1935C55.4839 16.3277 57.2206 18.0645 59.3548 18.0645C61.489 18.0645 63.2258 16.3277 63.2258 14.1935C63.2258 13.7987 63.1497 13.4258 63.0387 13.0671L73.991 7.0929C74.6039 7.50194 75.3381 7.74194 76.129 7.74194C78.2632 7.74194 80 6.00516 80 3.87097C80 1.73677 78.2632 0 76.129 0C73.9948 0 72.2581 1.73677 72.2581 3.87097C72.2581 4.26581 72.3342 4.63871 72.4452 4.99742L61.4929 10.9716C60.88 10.5626 60.1458 10.3226 59.3548 10.3226C58.3303 10.3226 57.4039 10.729 56.711 11.3819L48.9806 6.96387C49.0026 6.79484 49.0323 6.6271 49.0323 6.45161C49.0323 4.31742 47.2955 2.58065 45.1613 2.58065C43.0271 2.58065 41.2903 4.31742 41.2903 6.45161C41.2903 6.79355 41.3484 7.11742 41.4323 7.43355L40.5652 7.8271C36.3071 3.03871 30.1213 0 23.2258 0C10.4194 0 0 10.4194 0 23.2258C0 34.2568 7.73677 43.4968 18.0645 45.8529V50.3226H12.9032V52.9032H15.4839V72.2581C15.4839 76.5277 18.9561 80 23.2258 80C27.4955 80 30.9677 76.5277 30.9677 72.2581V52.9032H33.5484V50.3226H28.3871V45.8529C34.5677 44.4426 39.8039 40.5626 43.0232 35.3071C43.6671 36.5548 44.9535 37.4194 46.4516 37.4194C47.5226 37.4194 48.4916 36.9819 49.1935 36.2774L58.1032 39.6181C58.0903 39.7458 58.0645 39.8697 58.0645 40C58.0645 42.1342 59.8013 43.871 61.9355 43.871C64.0697 43.871 65.8064 42.1342 65.8064 40C65.8064 39.9419 65.7923 39.889 65.7897 39.831L73.3045 38.7574C74.0116 39.5174 75.0116 40 76.129 40C78.2632 40 80 38.2632 80 36.129C80 33.9948 78.2632 32.2581 76.129 32.2581C73.9948 32.2581 72.2581 33.9948 72.2581 36.129C72.2581 36.1871 72.2723 36.24 72.2748 36.2981L64.76 37.3716C64.0529 36.6116 63.0529 36.129 61.9355 36.129C60.8645 36.129 59.8955 36.5665 59.1935 37.271L50.2839 33.9303C50.2968 33.8026 50.3226 33.6787 50.3226 33.5484C50.3226 31.4142 48.5858 29.6774 46.4516 29.6774C46.1161 29.6774 45.7961 29.7342 45.4852 29.8142C45.9871 28.1213 46.2839 26.3445 46.3858 24.5161H72.4955ZM76.129 21.9355C76.8413 21.9355 77.4193 22.5135 77.4193 23.2258C77.4193 23.9381 76.8413 24.5161 76.129 24.5161C75.4168 24.5161 74.8387 23.9381 74.8387 23.2258C74.8387 22.5135 75.4168 21.9355 76.129 21.9355ZM76.129 2.58065C76.8413 2.58065 77.4193 3.15871 77.4193 3.87097C77.4193 4.58323 76.8413 5.16129 76.129 5.16129C75.4168 5.16129 74.8387 4.58323 74.8387 3.87097C74.8387 3.15871 75.4168 2.58065 76.129 2.58065ZM59.3548 12.9032C60.0671 12.9032 60.6452 13.4813 60.6452 14.1935C60.6452 14.9058 60.0671 15.4839 59.3548 15.4839C58.6426 15.4839 58.0645 14.9058 58.0645 14.1935C58.0645 13.4813 58.6426 12.9032 59.3548 12.9032ZM45.1613 5.16129C45.8735 5.16129 46.4516 5.73935 46.4516 6.45161C46.4516 7.16387 45.8735 7.74194 45.1613 7.74194C44.449 7.74194 43.871 7.16387 43.871 6.45161C43.871 5.73935 44.449 5.16129 45.1613 5.16129ZM76.129 34.8387C76.8413 34.8387 77.4193 35.4168 77.4193 36.129C77.4193 36.8413 76.8413 37.4194 76.129 37.4194C75.4168 37.4194 74.8387 36.8413 74.8387 36.129C74.8387 35.4168 75.4168 34.8387 76.129 34.8387ZM61.9355 38.7097C62.6477 38.7097 63.2258 39.2877 63.2258 40C63.2258 40.7123 62.6477 41.2903 61.9355 41.2903C61.2232 41.2903 60.6452 40.7123 60.6452 40C60.6452 39.2877 61.2232 38.7097 61.9355 38.7097ZM28.3871 72.2581C28.3871 75.1045 26.0723 77.4193 23.2258 77.4193C20.3794 77.4193 18.0645 75.1045 18.0645 72.2581V52.9032H28.3871V72.2581ZM20.6452 50.3226V46.2994C21.4929 46.3935 22.3523 46.4516 23.2258 46.4516C24.0994 46.4516 24.9574 46.3935 25.8064 46.2994V50.3226H20.6452ZM23.2258 43.871C11.8426 43.871 2.58065 34.609 2.58065 23.2258C2.58065 11.8426 11.8426 2.58065 23.2258 2.58065C29.0697 2.58065 34.3419 5.03226 38.1019 8.9471L34.311 10.6697C31.351 8.05419 27.4761 6.45161 23.2258 6.45161C13.9768 6.45161 6.45161 13.9768 6.45161 23.2258C6.45161 32.4748 13.9768 40 23.2258 40C28.649 40 33.4645 37.4013 36.5329 33.3961L40.6671 34.2232C37.0052 40.009 30.5652 43.871 23.2258 43.871ZM20.6452 19.3548C18.511 19.3548 16.7742 21.0916 16.7742 23.2258C16.7742 25.36 18.511 27.0968 20.6452 27.0968C22.3252 27.0968 23.7445 26.0155 24.2787 24.5161H37.3548C37.1561 26.7045 36.4529 28.7432 35.3716 30.5329L32.0826 29.8748C31.6065 28.2748 30.1394 27.0968 28.3871 27.0968C26.2529 27.0968 24.5161 28.8335 24.5161 30.9677C24.5161 33.1019 26.2529 34.8387 28.3871 34.8387C29.9858 34.8387 31.36 33.8645 31.9497 32.48L33.6542 32.8206C31.0581 35.64 27.351 37.4194 23.2258 37.4194C15.4 37.4194 9.03226 31.0516 9.03226 23.2258C9.03226 15.4 15.4 9.03226 23.2258 9.03226C26.4 9.03226 29.3252 10.0929 31.6916 11.8606L30.631 12.3419C29.9974 11.8877 29.2258 11.6129 28.3871 11.6129C26.2529 11.6129 24.5161 13.3497 24.5161 15.4839C24.5161 17.6181 26.2529 19.3548 28.3871 19.3548C30.5213 19.3548 32.2581 17.6181 32.2581 15.4839C32.2581 15.1432 32.2 14.8181 32.1161 14.5019L33.7652 13.7523C35.7574 15.9665 37.0697 18.8013 37.3535 21.9355H24.2787C23.7445 20.4361 22.3252 19.3548 20.6452 19.3548ZM21.9355 23.2258C21.9355 23.9381 21.3574 24.5161 20.6452 24.5161C19.9329 24.5161 19.3548 23.9381 19.3548 23.2258C19.3548 22.5135 19.9329 21.9355 20.6452 21.9355C21.3574 21.9355 21.9355 22.5135 21.9355 23.2258ZM29.6774 30.9677C29.6774 31.68 29.0994 32.2581 28.3871 32.2581C27.6748 32.2581 27.0968 31.68 27.0968 30.9677C27.0968 30.2555 27.6748 29.6774 28.3871 29.6774C29.0994 29.6774 29.6774 30.2555 29.6774 30.9677ZM29.6774 15.4839C29.6774 16.1961 29.0994 16.7742 28.3871 16.7742C27.6748 16.7742 27.0968 16.1961 27.0968 15.4839C27.0968 14.7716 27.6748 14.1935 28.3871 14.1935C29.0994 14.1935 29.6774 14.7716 29.6774 15.4839ZM41.9587 31.8503L38.0439 31.0671C39.0968 29.0852 39.7548 26.8671 39.9342 24.5161H43.8052C43.6426 27.1213 43.0013 29.5935 41.9587 31.8503ZM39.9342 21.9355C39.6658 18.4258 38.3239 15.2129 36.2206 12.6361L39.8232 10.9987C42.1135 14.1006 43.551 17.8555 43.8052 21.9355H39.9342ZM46.4516 32.2581C47.1639 32.2581 47.7419 32.8361 47.7419 33.5484C47.7419 34.2606 47.1639 34.8387 46.4516 34.8387C45.7394 34.8387 45.1613 34.2606 45.1613 33.5484C45.1613 32.8361 45.7394 32.2581 46.4516 32.2581Z" fill="white"/>
</svg>
