<svg width="80" height="80" viewBox="0 0 80 80" fill="none" xmlns="http://www.w3.org/2000/svg">
<path d="M69.6815 57.9938H61.9356V56.7034C61.9356 55.2803 63.0929 54.1227 64.5163 54.1227H70.9681C73.8146 54.1227 76.1295 51.8078 76.1295 48.9613C76.1295 46.1148 73.8146 43.7999 70.9681 43.7999H64.5163C63.0932 43.7999 61.9356 42.6426 61.9356 41.2192V36.0578H61.8557C63.5435 32.1867 64.5163 28.7042 64.5163 24.7275C64.5163 11.2089 53.5188 0.0693359 40.0001 0.0693359C26.4815 0.0693359 15.484 10.9975 15.484 24.5161C15.484 28.427 16.4286 32.0439 18.0647 35.3291V41.2195C18.0647 42.6426 16.9074 43.8002 15.484 43.8002H9.0322C6.18567 43.8002 3.87079 46.1151 3.87079 48.9616C3.87079 51.8081 6.18567 54.123 9.0322 54.123H15.484C16.9071 54.123 18.0647 55.2803 18.0647 56.7037V57.994H10.3188C4.62842 57.994 0 62.6225 0 68.3128V70.5721C0 75.5851 3.92769 79.7799 8.75608 79.9244C11.2154 80.0135 13.5549 79.0947 15.3225 77.3786C16.7778 75.9658 17.6953 74.1568 17.9742 72.1863H20.7367C21.0155 74.1565 21.9328 75.9658 23.3884 77.3786C25.0876 79.0302 27.3109 79.9295 29.6735 79.9295C29.7665 79.9295 29.8605 79.9282 29.9534 79.9257C34.7818 79.7813 38.7095 75.5851 38.7095 70.5735V68.3142C38.7095 62.6225 34.0811 57.994 28.3907 57.994H20.6451V56.7037C20.6451 53.8572 18.3302 51.5423 15.4837 51.5423H9.03193C7.6088 51.5423 6.45122 50.385 6.45122 48.9616C6.45122 47.5385 7.60853 46.3809 9.03193 46.3809H15.4837C18.3302 46.3809 20.6451 44.066 20.6451 41.2195V39.4376C25.1342 45.2195 32.1304 48.9616 40.0001 48.9616C47.8699 48.9616 54.866 45.2195 59.3552 39.4376V41.2195C59.3552 44.066 61.67 46.3809 64.5166 46.3809H70.9683C72.3915 46.3809 73.549 47.5382 73.549 48.9616C73.549 50.3847 72.3917 51.5423 70.9683 51.5423H64.5166C61.67 51.5423 59.3552 53.8572 59.3552 56.7037V57.994H51.6092C45.9189 57.994 41.2905 62.6225 41.2905 68.3128V70.5721C41.2905 75.5851 45.2182 79.7799 50.0466 79.9244C52.5072 80.0135 54.8454 79.0947 56.613 77.3786C58.0683 75.9658 58.9858 74.1568 59.2647 72.1863H62.0272C62.306 74.1565 63.2232 75.9658 64.6789 77.3786C66.3781 79.0302 68.6014 79.9295 70.964 79.9295C71.0569 79.9295 71.151 79.9282 71.2439 79.9257C76.0723 79.7813 80 75.5851 80 70.5735V68.3142C80.0003 62.6225 75.3719 57.9938 69.6815 57.9938ZM28.391 60.5748C32.6582 60.5748 36.1291 64.0456 36.1291 68.3128V70.5721C36.1291 74.2031 33.324 77.2418 29.8776 77.345C28.1046 77.4006 26.4479 76.7527 25.1846 75.5268C23.9214 74.3009 23.2258 72.6572 23.2258 70.897V69.6067H15.484V70.897C15.484 72.657 14.7884 74.3009 13.5251 75.5268C12.2619 76.7527 10.5805 77.3965 8.83223 77.345C5.38578 77.2418 2.58071 74.2045 2.58071 70.5735V68.3142C2.58071 64.0459 6.05182 60.5748 10.3188 60.5748H28.391ZM35.0864 3.08549C34.8401 3.3047 34.5924 3.53963 34.3369 3.7873C34.0207 3.65967 33.6801 3.58868 33.3264 3.55643C33.902 3.37163 34.4916 3.22233 35.0864 3.08549ZM32.995 6.10218C33.5641 6.10218 34.0274 6.56554 34.0274 7.13457C34.0274 7.70361 33.5641 8.16697 32.995 8.16697C32.426 8.16697 31.9627 7.70361 31.9627 7.13457C31.9627 6.56554 32.426 6.10218 32.995 6.10218ZM32.2659 10.6737C32.5008 10.7214 32.7447 10.7471 32.9948 10.7471C34.9869 10.7471 36.6076 9.12647 36.6076 7.1343C36.6076 6.56256 36.4618 6.02848 36.2245 5.54724C37.1406 4.66849 37.9974 3.99378 38.7095 3.49817V13.0284C36.3147 12.8891 33.9857 12.3859 31.8025 11.5058C31.9486 11.2235 32.1098 10.9501 32.2659 10.6737ZM38.7098 15.6094V23.1553H28.9408C29.0646 19.7864 29.6724 16.6819 30.7563 13.87C33.266 14.8919 35.951 15.4661 38.7098 15.6094ZM35.288 31.4145C33.4183 31.4145 31.8944 32.8468 31.7112 34.6674C31.3925 34.7823 31.0763 34.9035 30.7628 35.0327C29.7692 32.4674 29.0958 29.376 28.9576 25.7347H38.7098V25.7358V33.2584C38.6155 33.2635 38.5228 33.2725 38.4285 33.2776C37.8104 32.1718 36.6415 31.4145 35.288 31.4145ZM36.3201 35.0284C36.3201 35.5974 35.8568 36.0608 35.2877 36.0608C34.7187 36.0608 34.2553 35.5974 34.2553 35.0284C34.2553 34.4593 34.7187 33.996 35.2877 33.996C35.857 33.9965 36.3201 34.4596 36.3201 35.0284ZM30.2336 4.83378C29.7098 5.4608 29.382 6.25691 29.382 7.13566C29.382 7.93691 29.6529 8.67124 30.0968 9.27116C29.8851 9.64022 29.6722 10.0093 29.4787 10.3886C28.1599 9.66488 26.9161 8.79507 25.7548 7.79899C27.1134 6.63382 28.6181 5.64154 30.2336 4.83378ZM23.8994 9.59904C25.3006 10.8249 26.8105 11.8906 28.4208 12.7577C27.1782 15.9099 26.4891 19.3875 26.3615 23.1551H18.1305C18.4362 17.937 20.5638 13.2132 23.8994 9.59904ZM18.1305 25.7358H26.3512C26.4894 29.8363 27.2698 33.2817 28.3924 36.1526C26.782 37.0224 25.2646 38.0676 23.8826 39.2739C20.5576 35.6622 18.4348 30.9449 18.1305 25.7358ZM25.764 41.1024C26.9086 40.1231 28.1447 39.2625 29.4622 38.5361C31.1264 41.7977 33.195 44.1603 35.0222 45.7902C31.5473 44.98 28.3899 43.3501 25.764 41.1024ZM38.7101 45.3951C36.8702 44.1085 34.0082 41.5847 31.8442 37.4067C32.0323 37.3316 32.2209 37.2595 32.4106 37.1899C33.0698 38.0659 34.1087 38.6415 35.288 38.6415C36.8919 38.6415 38.2402 37.5833 38.7101 36.1331V45.3951ZM61.87 23.1551H53.648C53.635 22.7565 53.612 22.3641 53.586 21.9717C54.7693 21.3783 55.5911 20.1652 55.5911 18.7537C55.5911 16.906 54.1924 15.3964 52.4016 15.1834C52.1539 14.3331 51.8802 13.524 51.5784 12.7577C53.1887 11.8906 54.6983 10.826 56.1008 9.59904C59.4364 13.2132 61.5641 17.937 61.87 23.1551ZM53.0107 18.7537C53.0107 19.3227 52.5487 19.7861 51.9783 19.7861C51.4093 19.7861 50.9459 19.3227 50.9459 18.7537C50.9459 18.1847 51.4093 17.7213 51.9783 17.7213C52.5473 17.7213 53.0107 18.1847 53.0107 18.7537ZM54.2455 7.79899C53.0868 8.79372 51.8442 9.66082 50.5281 10.3848C48.8519 7.09176 46.773 4.72675 44.9396 3.09199C48.4338 3.90083 51.6092 5.53857 54.2455 7.79899ZM41.2905 3.49438C43.1409 4.78338 46.0324 7.2958 48.1988 11.5048C46.0156 12.3859 43.6853 12.8894 41.2905 13.0287V3.49438ZM41.2905 15.6094C44.0492 15.4661 46.7318 14.8919 49.2415 13.87C49.4802 14.4868 49.6984 15.1333 49.8983 15.8094C48.9743 16.4648 48.3655 17.5371 48.3655 18.7526C48.3655 20.4017 49.483 21.781 50.9952 22.2121C51.0158 22.5232 51.0261 22.838 51.0378 23.154H41.2908V23.1551H41.2905V15.6094ZM41.2905 25.7358H51.0427C50.9072 29.386 50.2428 32.4764 49.2621 35.0389C46.7383 34.0082 44.0465 33.4069 41.2905 33.2611V25.7358ZM41.2905 45.4146V35.8714C43.6764 36.012 46.0002 36.5371 48.1885 37.421C46.0208 41.6416 43.1434 44.1448 41.2905 45.4146ZM44.977 45.7888C46.8052 44.1592 48.8749 41.7977 50.5384 38.5358C51.8493 39.2557 53.0868 40.1112 54.239 41.0983C51.6133 43.3474 48.4544 44.9781 44.977 45.7888ZM56.119 39.2715C54.7267 38.0548 53.2118 37.0108 51.6106 36.1475C52.7332 33.2779 53.5125 29.8339 53.6494 25.7344H61.87C61.5654 30.9435 59.444 35.6611 56.119 39.2715ZM77.4196 70.5732C77.4196 74.2042 74.6145 77.2429 71.168 77.3461C69.404 77.4016 67.7384 76.7538 66.4751 75.5279C65.2119 74.3007 64.5163 72.657 64.5163 70.897V69.6067H56.7745V70.897C56.7745 72.657 56.0789 74.3009 54.8156 75.5268C53.5524 76.7527 51.8802 77.3965 50.1227 77.345C46.6763 77.2418 43.8712 74.2045 43.8712 70.5735V68.3142C43.8712 64.0459 47.3423 60.5748 51.6092 60.5748H69.6815C73.9487 60.5748 77.4196 64.0459 77.4196 68.3128V70.5732Z" fill="white"/>
<path d="M54.194 68.3167H51.6133V70.8974H54.194V68.3167Z" fill="white"/>
<path d="M49.0329 68.3165H51.6133V65.7358H49.0326V68.3165H46.4521V70.897H49.0326V73.4777H51.6133V70.897H49.0329V68.3165Z" fill="white"/>
<path d="M70.9681 68.3165C71.6807 68.3165 72.2584 67.7388 72.2584 67.0262C72.2584 66.3136 71.6807 65.7358 70.9681 65.7358C70.2554 65.7358 69.6777 66.3136 69.6777 67.0262C69.6777 67.7388 70.2554 68.3165 70.9681 68.3165Z" fill="white"/>
<path d="M70.9681 73.4777C71.6807 73.4777 72.2584 72.9 72.2584 72.1873C72.2584 71.4747 71.6807 70.897 70.9681 70.897C70.2554 70.897 69.6777 71.4747 69.6777 72.1873C69.6777 72.9 70.2554 73.4777 70.9681 73.4777Z" fill="white"/>
<path d="M73.5491 70.8974C74.2618 70.8974 74.8395 70.3196 74.8395 69.607C74.8395 68.8944 74.2618 68.3167 73.5491 68.3167C72.8365 68.3167 72.2588 68.8944 72.2588 69.607C72.2588 70.3196 72.8365 70.8974 73.5491 70.8974Z" fill="white"/>
<path d="M68.387 70.8974C69.0997 70.8974 69.6774 70.3196 69.6774 69.607C69.6774 68.8944 69.0997 68.3167 68.387 68.3167C67.6744 68.3167 67.0967 68.8944 67.0967 69.607C67.0967 70.3196 67.6744 70.8974 68.387 70.8974Z" fill="white"/>
<path d="M59.3554 61.8652H55.4844V64.4459H59.3554V61.8652Z" fill="white"/>
<path d="M65.8066 61.8652H61.9355V64.4459H65.8066V61.8652Z" fill="white"/>
<path d="M7.74157 65.7358V68.3165H5.16113V70.897H7.74157V73.4777H10.3223V70.897H7.74184V68.3165H10.3223V65.7358H7.74157Z" fill="white"/>
<path d="M12.9039 68.3167H10.3232V70.8974H12.9039V68.3167Z" fill="white"/>
<path d="M29.678 68.3165C30.3907 68.3165 30.9684 67.7388 30.9684 67.0262C30.9684 66.3136 30.3907 65.7358 29.678 65.7358C28.9654 65.7358 28.3877 66.3136 28.3877 67.0262C28.3877 67.7388 28.9654 68.3165 29.678 68.3165Z" fill="white"/>
<path d="M29.678 73.4777C30.3907 73.4777 30.9684 72.9 30.9684 72.1873C30.9684 71.4747 30.3907 70.897 29.678 70.897C28.9654 70.897 28.3877 71.4747 28.3877 72.1873C28.3877 72.9 28.9654 73.4777 29.678 73.4777Z" fill="white"/>
<path d="M32.2581 70.8974C32.9708 70.8974 33.5485 70.3196 33.5485 69.607C33.5485 68.8944 32.9708 68.3167 32.2581 68.3167C31.5455 68.3167 30.9678 68.8944 30.9678 69.607C30.9678 70.3196 31.5455 70.8974 32.2581 70.8974Z" fill="white"/>
<path d="M27.097 70.8974C27.8096 70.8974 28.3873 70.3196 28.3873 69.607C28.3873 68.8944 27.8096 68.3167 27.097 68.3167C26.3844 68.3167 25.8066 68.8944 25.8066 69.607C25.8066 70.3196 26.3844 70.8974 27.097 70.8974Z" fill="white"/>
<path d="M18.0644 61.8652H14.1934V64.4459H18.0644V61.8652Z" fill="white"/>
<path d="M24.5156 61.8652H20.6445V64.4459H24.5156V61.8652Z" fill="white"/>
</svg>
