<svg width="80" height="80" viewBox="0 0 80 80" fill="none" xmlns="http://www.w3.org/2000/svg">
<g clip-path="url(#clip0)">
<path d="M74.8896 46.718V31.3899H62.1162V39.0543H64.6709V33.9446H72.3351V46.718H74.8896Z" fill="white"/>
<path d="M57.0077 77.3745H49.3435V62.0461H46.7891V79.929H59.5624V72.2648H57.0077V77.3745Z" fill="white"/>
<path d="M59.5624 44.1635V36.4993H46.7891V54.3821H49.3435V39.0543H57.0077V44.1635H59.5624Z" fill="white"/>
<path d="M31.4609 79.9288H44.2343V41.6086H31.4609V79.9288ZM34.0157 44.1634H41.6796V77.3743H34.0157V44.1634Z" fill="white"/>
<path d="M16.1328 79.9289H28.9062V47.9954H16.1328V79.9289ZM18.6875 50.5504H26.3515V77.3745H18.6875V50.5504Z" fill="white"/>
<path d="M0.804688 79.9288H13.5781V54.3821H0.804688V79.9288ZM3.35942 56.9368H11.0233V77.3741H3.35942V56.9368Z" fill="white"/>
<path d="M63.3937 51.8274C59.8719 51.8274 57.0068 54.6925 57.0068 58.2142C57.0068 61.736 59.8719 64.601 63.3937 64.601C66.9154 64.601 69.7805 61.736 69.7805 58.2142C69.7805 54.6925 66.9154 51.8274 63.3937 51.8274ZM63.3937 62.046C61.281 62.046 59.5616 60.3266 59.5616 58.2139C59.5616 56.1013 61.281 54.3819 63.3937 54.3819C65.5063 54.3819 67.2258 56.1013 67.2258 58.2139C67.2258 60.3269 65.5066 62.046 63.3937 62.046Z" fill="white"/>
<path d="M79.9997 56.9368H76.1027C75.5011 50.9115 70.6971 46.1062 64.6719 45.5059V41.6086H62.1172V45.5059C56.0919 46.1076 51.2867 50.9115 50.6863 56.9368H46.7891V59.4915H50.6863C51.288 65.5167 56.0919 70.322 62.1172 70.9223V74.8196H64.6719V70.9223C70.6971 70.3207 75.5024 65.5167 76.1027 59.4915H80L79.9997 56.9368ZM73.5252 59.4912C72.945 64.105 69.2854 67.7646 64.6716 68.3445V67.1554H62.1169V68.3445C57.5031 67.7659 53.8435 64.105 53.2636 59.4912H54.453V56.9365H53.2639C53.8425 52.3227 57.5034 48.6631 62.1172 48.0832V49.2723H64.6719V48.0832C69.2856 48.6618 72.9453 52.3227 73.5252 56.9365H72.3361V59.4912H73.5252Z" fill="white"/>
<path d="M72.3351 77.3744H62.1162V79.9289H74.8896V68.4329H72.3351V77.3744Z" fill="white"/>
<path d="M51.8983 28.8352H54.453V18.6163H52.703L60.8398 11.384L68.9764 18.6163H67.2264V28.8352H69.7811V21.1713H75.6951L60.8398 7.96606L45.9844 21.1713H51.8983V28.8352Z" fill="white"/>
<path d="M37.8483 0.0708008L26.0918 13.5073H31.4617V31.3898H34.0164V10.9525H31.7222L37.8483 3.95171L43.9744 10.9525H41.6804V28.8354H44.2351V13.5073H49.605L37.8483 0.0708008Z" fill="white"/>
<path d="M8.46879 35.2219H5.91406V51.8274H8.46879V35.2219Z" fill="white"/>
<path d="M8.46879 30.1128H5.91406V32.6675H8.46879V30.1128Z" fill="white"/>
<path d="M0 18.6166H5.91418V27.5584H8.46864V16.0624H6.7189L14.8555 8.8298L22.992 16.0624H21.242V40.3315H23.7967V18.6166H29.7109L14.8555 5.41187L0 18.6166Z" fill="white"/>
<path d="M54.4532 31.3899H51.8984V33.9446H54.4532V31.3899Z" fill="white"/>
<path d="M44.2344 36.4993H41.6797V39.054H44.2344V36.4993Z" fill="white"/>
<path d="M44.2344 31.3899H41.6797V33.9446H44.2344V31.3899Z" fill="white"/>
<path d="M34.0157 33.9446H31.4609V36.4993H34.0157V33.9446Z" fill="white"/>
<path d="M23.7969 42.8862H21.2422V45.441H23.7969V42.8862Z" fill="white"/>
<path d="M62.1172 16.0623H59.5625V23.7262H62.1172V16.0623Z" fill="white"/>
<path d="M62.1172 26.2808H59.5625V28.8355H62.1172V26.2808Z" fill="white"/>
<path d="M16.1329 12.2302H13.5781V30.1131H16.1329V12.2302Z" fill="white"/>
<path d="M16.1329 32.6675H13.5781V35.2222H16.1329V32.6675Z" fill="white"/>
<path d="M16.1329 37.7766H13.5781V40.3313H16.1329V37.7766Z" fill="white"/>
</g>
<defs>
<clipPath id="clip0">
<rect width="80" height="80" fill="white"/>
</clipPath>
</defs>
</svg>
