<svg width="80" height="80" viewBox="0 0 80 80" fill="none" xmlns="http://www.w3.org/2000/svg">
<path d="M57.1337 35.3662L55.3662 37.1337L58.2325 40L55.3662 42.8662L57.1337 44.6337L61.7675 40L57.1337 35.3662Z" fill="white"/>
<path d="M47.8662 35.3662L43.2324 40L47.8662 44.6337L49.6337 42.8662L46.7674 40L49.6337 37.1337L47.8662 35.3662Z" fill="white"/>
<path d="M51.2725 46.1431L52.5287 33.6434L55.0162 33.8934L53.76 46.3931L51.2725 46.1431Z" fill="white"/>
<path d="M52.5 26.25C44.9187 26.25 38.75 32.4187 38.75 40C38.75 47.5812 44.9187 53.75 52.5 53.75C60.0812 53.75 66.25 47.5812 66.25 40C66.25 32.4187 60.0812 26.25 52.5 26.25ZM52.5 51.25C46.2975 51.25 41.25 46.2038 41.25 40C41.25 33.7963 46.2975 28.75 52.5 28.75C58.7025 28.75 63.75 33.7963 63.75 40C63.75 46.2038 58.7025 51.25 52.5 51.25Z" fill="white"/>
<path d="M78.75 47.5V5C78.75 2.9325 77.0675 1.25 75 1.25H25C22.9325 1.25 21.25 2.9325 21.25 5V28.75H5C2.9325 28.75 1.25 30.4325 1.25 32.5V75C1.25 77.0675 2.9325 78.75 5 78.75H55C57.0675 78.75 58.75 77.0675 58.75 75V57.6562C59.8575 57.2625 60.9175 56.7713 61.9188 56.1863L70.5813 64.8488C71.485 65.7525 72.6862 66.25 73.9638 66.25C76.6038 66.25 78.75 64.1025 78.75 61.465C78.75 60.1863 78.2525 58.985 77.3475 58.0812L70.5175 51.25H75C77.0675 51.25 78.75 49.5675 78.75 47.5ZM75 48.75H69.07C70.4563 46.135 71.25 43.16 71.25 40C71.25 29.6613 62.8387 21.25 52.5 21.25C42.1613 21.25 33.75 29.6613 33.75 40C33.75 43.16 34.5438 46.135 35.93 48.75H25C24.3113 48.75 23.75 48.19 23.75 47.5V13.75H76.25V47.5C76.25 48.19 75.6888 48.75 75 48.75ZM52.5 56.25C43.54 56.25 36.25 48.96 36.25 40C36.25 31.04 43.54 23.75 52.5 23.75C61.46 23.75 68.75 31.04 68.75 40C68.75 48.96 61.46 56.25 52.5 56.25ZM13.75 58.75H28.75V56.25H31.25V66.25H13.75V58.75ZM26.25 56.25H8.75V46.25H21.25V47.5C21.25 49.5675 22.9325 51.25 25 51.25H26.25V56.25ZM25 3.75H75C75.6888 3.75 76.25 4.31 76.25 5V11.25H23.75V5C23.75 4.31 24.3113 3.75 25 3.75ZM5 31.25H21.25V38.75H3.75V32.5C3.75 31.81 4.31125 31.25 5 31.25ZM56.25 75C56.25 75.69 55.6888 76.25 55 76.25H5C4.31125 76.25 3.75 75.69 3.75 75V41.25H21.25V43.75H6.25V58.75H11.25V68.75H33.75V53.75H28.75V51.25H37.535C40.96 55.7938 46.3838 58.75 52.5 58.75C53.7837 58.75 55.0375 58.6188 56.25 58.3725V75ZM76.25 61.465C76.25 62.725 75.225 63.75 73.9638 63.75C73.3538 63.75 72.7787 63.5125 72.3475 63.0812L64.025 54.7588C65.23 53.8162 66.3138 52.7313 67.2575 51.5263L75.58 59.8488C76.0062 60.275 76.25 60.8625 76.25 61.465Z" fill="white"/>
<path d="M26.25 6.25H28.75V8.75H26.25V6.25Z" fill="white"/>
<path d="M31.25 6.25H33.75V8.75H31.25V6.25Z" fill="white"/>
<path d="M36.25 6.25H38.75V8.75H36.25V6.25Z" fill="white"/>
<path d="M6.25 33.75H8.75V36.25H6.25V33.75Z" fill="white"/>
<path d="M11.25 33.75H13.75V36.25H11.25V33.75Z" fill="white"/>
<path d="M16.25 33.75H18.75V36.25H16.25V33.75Z" fill="white"/>
<path d="M6.25 71.25H8.75V73.75H6.25V71.25Z" fill="white"/>
<path d="M11.25 71.25H33.75V73.75H11.25V71.25Z" fill="white"/>
<path d="M36.25 71.25H38.75V73.75H36.25V71.25Z" fill="white"/>
<path d="M41.25 71.25H53.75V73.75H41.25V71.25Z" fill="white"/>
<path d="M36.25 66.25H53.75V68.75H36.25V66.25Z" fill="white"/>
<path d="M36.25 61.25H53.75V63.75H36.25V61.25Z" fill="white"/>
<path d="M26.25 43.75H31.25V46.25H26.25V43.75Z" fill="white"/>
<path d="M26.25 38.75H31.25V41.25H26.25V38.75Z" fill="white"/>
<path d="M26.25 33.75H31.25V36.25H26.25V33.75Z" fill="white"/>
<path d="M26.25 31.25H33.75V16.25H26.25V31.25ZM28.75 18.75H31.25V28.75H28.75V18.75Z" fill="white"/>
<path d="M36.25 16.25H38.75V18.75H36.25V16.25Z" fill="white"/>
<path d="M41.25 16.25H73.75V18.75H41.25V16.25Z" fill="white"/>
<path d="M66.25 21.25H73.75V23.75H66.25V21.25Z" fill="white"/>
</svg>
