<svg width="80" height="80" viewBox="0 0 80 80" fill="none" xmlns="http://www.w3.org/2000/svg">
<path fill-rule="evenodd" clip-rule="evenodd" d="M40 80C62.0914 80 80 62.0914 80 40C80 17.9086 62.0914 0 40 0C17.9086 0 0 17.9086 0 40C0 62.0914 17.9086 80 40 80Z" fill="#EDE6FE"/>
<path d="M32.9688 55.625H32.1875V50.1953C32.1877 50.0582 32.1519 49.9235 32.0836 49.8047L26.6836 40.4547C26.6502 40.3975 26.6137 40.3422 26.5742 40.2891C26.3243 39.9204 25.9991 39.6088 25.62 39.3749C25.241 39.141 24.8166 38.9901 24.375 38.932V32.1875C24.375 31.3587 24.0458 30.5638 23.4597 29.9778C22.8737 29.3917 22.0788 29.0625 21.25 29.0625C20.4212 29.0625 19.6263 29.3917 19.0403 29.9778C18.4542 30.5638 18.125 31.3587 18.125 32.1875V50.9375C18.1249 51.115 18.1853 51.2872 18.2961 51.4258L21.25 55.118V55.625H20.4688C20.2615 55.625 20.0628 55.7073 19.9163 55.8538C19.7698 56.0003 19.6875 56.199 19.6875 56.4062V62.6562C19.6875 62.8634 19.7698 63.0622 19.9163 63.2087C20.0628 63.3552 20.2615 63.4375 20.4688 63.4375H32.9688C33.176 63.4375 33.3747 63.3552 33.5212 63.2087C33.6677 63.0622 33.75 62.8634 33.75 62.6562V56.4062C33.75 56.199 33.6677 56.0003 33.5212 55.8538C33.3747 55.7073 33.176 55.625 32.9688 55.625ZM22.6414 54.3555L19.6875 50.6633V32.1875C19.6875 31.7731 19.8521 31.3757 20.1451 31.0826C20.4382 30.7896 20.8356 30.625 21.25 30.625C21.6644 30.625 22.0618 30.7896 22.3549 31.0826C22.6479 31.3757 22.8125 31.7731 22.8125 32.1875V39.1445C22.6786 39.1961 22.5481 39.2561 22.4219 39.3242C21.7059 39.7404 21.1836 40.423 20.969 41.2229C20.7544 42.0228 20.865 42.8751 21.2766 43.5937L25.7453 51.3281L27.0984 50.5469L22.6297 42.8125C22.424 42.4541 22.3681 42.029 22.4742 41.6296C22.5802 41.2302 22.8397 40.8888 23.1961 40.6797C23.3528 40.5882 23.5254 40.527 23.7047 40.4992C23.7313 40.4953 23.95 40.468 23.9844 40.468C24.2619 40.4678 24.5342 40.5434 24.7719 40.6867C24.9781 40.8035 25.1531 40.9683 25.282 41.1672C25.2969 41.1891 25.3227 41.2289 25.3391 41.2492L30.625 50.4039V55.625H22.8125V54.8438C22.8126 54.6663 22.7522 54.4941 22.6414 54.3555ZM32.1875 61.875H21.25V57.1875H32.1875V61.875Z" fill="#783BFF"/>
<path d="M29.0625 58.75H30.625V60.3125H29.0625V58.75Z" fill="#783BFF"/>
<path d="M58.75 29.0625C57.9212 29.0625 57.1263 29.3917 56.5403 29.9778C55.9542 30.5638 55.625 31.3587 55.625 32.1875V38.932C55.2134 38.9821 54.8165 39.1167 54.4594 39.3273C54.0445 39.5623 53.6908 39.8914 53.4266 40.2883C53.3835 40.3461 53.3438 40.4063 53.3078 40.4687L47.9172 49.8055C47.8489 49.9243 47.813 50.059 47.8133 50.1961V55.625H47.0312C46.824 55.625 46.6253 55.7073 46.4788 55.8538C46.3323 56.0003 46.25 56.199 46.25 56.4062V62.6562C46.25 62.8634 46.3323 63.0622 46.4788 63.2087C46.6253 63.3552 46.824 63.4375 47.0312 63.4375H59.5312C59.7385 63.4375 59.9372 63.3552 60.0837 63.2087C60.2302 63.0622 60.3125 62.8634 60.3125 62.6562V56.4062C60.3125 56.199 60.2302 56.0003 60.0837 55.8538C59.9372 55.7073 59.7385 55.625 59.5312 55.625H58.75V55.118L61.7039 51.4258C61.8147 51.2872 61.8751 51.115 61.875 50.9375V32.1875C61.875 31.3587 61.5458 30.5638 60.9597 29.9778C60.3737 29.3917 59.5788 29.0625 58.75 29.0625ZM58.75 61.875H47.8125V57.1875H58.75V61.875ZM60.3125 50.6633L57.3586 54.3555C57.2478 54.4941 57.1874 54.6663 57.1875 54.8438V55.625H49.375V50.4039L54.6711 41.232C54.6883 41.2109 54.7031 41.1898 54.718 41.168C54.8616 40.9551 55.0547 40.7803 55.2807 40.6585C55.5067 40.5367 55.7589 40.4716 56.0156 40.4687C56.05 40.4687 56.2687 40.4961 56.2945 40.5C56.4709 40.5269 56.6408 40.5866 56.7953 40.6758C57.1538 40.8839 57.4154 41.2254 57.5229 41.6258C57.6305 42.0261 57.5754 42.4527 57.3695 42.8125L52.9016 50.5469L54.2547 51.3281L58.7234 43.5937C58.9576 43.2099 59.1041 42.779 59.1524 42.3319C59.2007 41.8848 59.1497 41.4326 59.003 41.0075C58.8562 40.5825 58.6174 40.1951 58.3036 39.873C57.9897 39.551 57.6086 39.3022 57.1875 39.1445V32.1875C57.1875 31.7731 57.3521 31.3757 57.6451 31.0826C57.9382 30.7896 58.3356 30.625 58.75 30.625C59.1644 30.625 59.5618 30.7896 59.8549 31.0826C60.1479 31.3757 60.3125 31.7731 60.3125 32.1875V50.6633Z" fill="#783BFF"/>
<path d="M49.375 58.75H50.9375V60.3125H49.375V58.75Z" fill="#783BFF"/>
<path d="M29.7328 29.8359L31.8281 30.1352C31.9698 30.5756 32.1469 31.0038 32.3578 31.4156L31.0891 33.1078C30.9763 33.2583 30.9215 33.4444 30.9349 33.6319C30.9482 33.8195 31.0288 33.9959 31.1617 34.1289L33.3711 36.3383C33.5041 36.4712 33.6805 36.5518 33.8681 36.5651C34.0556 36.5785 34.2417 36.5237 34.3922 36.4109L36.0844 35.1422C36.4962 35.3531 36.9244 35.5302 37.3648 35.6719L37.6641 37.7672C37.6908 37.9533 37.7837 38.1235 37.9257 38.2466C38.0678 38.3698 38.2495 38.4375 38.4375 38.4375H41.5625C41.7505 38.4375 41.9322 38.3698 42.0743 38.2466C42.2163 38.1235 42.3092 37.9533 42.3359 37.7672L42.6352 35.6719C43.0757 35.5304 43.5039 35.3532 43.9156 35.1422L45.6086 36.4109C45.759 36.5235 45.9449 36.5782 46.1323 36.5648C46.3197 36.5515 46.496 36.471 46.6289 36.3383L48.8383 34.1289C48.9712 33.9959 49.0518 33.8195 49.0651 33.6319C49.0785 33.4444 49.0237 33.2583 48.9109 33.1078L47.6414 31.4156C47.8529 31.004 48.0303 30.5757 48.1719 30.1352L50.2672 29.8359C50.4533 29.8092 50.6235 29.7163 50.7466 29.5743C50.8698 29.4322 50.9375 29.2505 50.9375 29.0625V25.9375C50.9375 25.7495 50.8698 25.5678 50.7466 25.4257C50.6235 25.2837 50.4533 25.1908 50.2672 25.1641L48.1719 24.8648C48.0303 24.4243 47.8529 23.996 47.6414 23.5844L48.9109 21.8922C49.0237 21.7417 49.0785 21.5556 49.0651 21.3681C49.0518 21.1805 48.9712 21.0041 48.8383 20.8711L46.6289 18.6617C46.496 18.529 46.3197 18.4485 46.1323 18.4352C45.9449 18.4218 45.759 18.4765 45.6086 18.5891L43.9156 19.8578C43.5039 19.6468 43.0757 19.4696 42.6352 19.3281L42.3359 17.2328C42.3092 17.0467 42.2163 16.8765 42.0743 16.7534C41.9322 16.6302 41.7505 16.5625 41.5625 16.5625H38.4375C38.2495 16.5625 38.0678 16.6302 37.9257 16.7534C37.7837 16.8765 37.6908 17.0467 37.6641 17.2328L37.3648 19.3281C36.9244 19.4698 36.4962 19.6469 36.0844 19.8578L34.3922 18.5891C34.2417 18.4763 34.0556 18.4215 33.8681 18.4349C33.6805 18.4482 33.5041 18.5288 33.3711 18.6617L31.1617 20.8711C31.0288 21.0041 30.9482 21.1805 30.9349 21.3681C30.9215 21.5556 30.9763 21.7417 31.0891 21.8922L32.3578 23.5844C32.1469 23.9962 31.9698 24.4244 31.8281 24.8648L29.7328 25.1641C29.5467 25.1908 29.3765 25.2837 29.2534 25.4257C29.1302 25.5678 29.0625 25.7495 29.0625 25.9375V29.0625C29.0625 29.2505 29.1302 29.4322 29.2534 29.5743C29.3765 29.7163 29.5467 29.8092 29.7328 29.8359ZM30.625 26.6148L32.5492 26.3398C32.7024 26.318 32.8457 26.2512 32.9608 26.1479C33.076 26.0445 33.1579 25.9093 33.1961 25.7594C33.3603 25.1124 33.6168 24.4925 33.9578 23.9188C34.0368 23.7857 34.0746 23.6322 34.0662 23.4776C34.0579 23.3231 34.0038 23.1745 33.9109 23.0508L32.7453 21.4961L33.9953 20.2461L35.55 21.4117C35.6738 21.5046 35.8223 21.5587 35.9769 21.567C36.1314 21.5754 36.2849 21.5376 36.418 21.4586C36.9917 21.1176 37.6116 20.861 38.2586 20.6969C38.4085 20.6587 38.5437 20.5768 38.6471 20.4616C38.7504 20.3464 38.8172 20.2032 38.8391 20.05L39.1148 18.125H40.8852L41.1594 20.0492C41.1813 20.2025 41.2482 20.3458 41.3517 20.461C41.4552 20.5762 41.5905 20.658 41.7406 20.6961C42.3877 20.8599 43.0076 21.1165 43.5812 21.4578C43.7142 21.5367 43.8676 21.5743 44.022 21.566C44.1763 21.5576 44.3247 21.5037 44.4484 21.4109L46.0039 20.2453L47.2539 21.4953L46.0883 23.05C45.9953 23.1737 45.9411 23.3222 45.9326 23.4767C45.9241 23.6313 45.9617 23.7848 46.0406 23.918C46.3819 24.492 46.639 25.1122 46.8039 25.7594C46.8422 25.9091 46.924 26.044 47.039 26.1472C47.154 26.2504 47.2971 26.3172 47.45 26.3391L49.375 26.6148V28.3852L47.4508 28.6602C47.2978 28.6821 47.1548 28.7488 47.0398 28.852C46.9248 28.9552 46.843 29.0902 46.8047 29.2398C46.6398 29.887 46.3827 30.5072 46.0414 31.0812C45.9625 31.2144 45.9249 31.3679 45.9334 31.5225C45.9419 31.677 45.996 31.8255 46.0891 31.9492L47.2547 33.5039L46.0047 34.7539L44.4492 33.5883C44.3255 33.4955 44.1771 33.4416 44.0227 33.4332C43.8684 33.4249 43.715 33.4625 43.582 33.5414C43.0084 33.8827 42.3885 34.1393 41.7414 34.3031C41.5913 34.3412 41.4559 34.423 41.3525 34.5382C41.249 34.6534 41.182 34.7967 41.1602 34.95L40.8852 36.875H39.1148L38.8398 34.9508C38.818 34.7976 38.7512 34.6543 38.6479 34.5392C38.5445 34.424 38.4093 34.3421 38.2594 34.3039C37.6124 34.1397 36.9925 33.8832 36.4188 33.5422C36.2857 33.4632 36.1322 33.4254 35.9776 33.4338C35.8231 33.4421 35.6745 33.4962 35.5508 33.5891L33.9961 34.7547L32.7461 33.5047L33.9117 31.95C34.0046 31.8262 34.0587 31.6777 34.067 31.5231C34.0754 31.3686 34.0376 31.2151 33.9586 31.082C33.6176 30.5083 33.361 29.8884 33.1969 29.2414C33.1587 29.0915 33.0768 28.9563 32.9616 28.8529C32.8464 28.7496 32.7032 28.6828 32.55 28.6609L30.625 28.3852V26.6148Z" fill="#783BFF"/>
<path d="M40 32.1875C40.9271 32.1875 41.8334 31.9126 42.6042 31.3975C43.3751 30.8824 43.9759 30.1504 44.3307 29.2938C44.6855 28.4373 44.7783 27.4948 44.5974 26.5855C44.4166 25.6762 43.9701 24.841 43.3146 24.1854C42.659 23.5299 41.8238 23.0834 40.9145 22.9026C40.0052 22.7217 39.0627 22.8145 38.2062 23.1693C37.3496 23.5241 36.6176 24.1249 36.1025 24.8958C35.5874 25.6666 35.3125 26.5729 35.3125 27.5C35.3137 28.7428 35.808 29.9344 36.6868 30.8132C37.5656 31.692 38.7572 32.1863 40 32.1875ZM40 24.375C40.6181 24.375 41.2223 24.5583 41.7362 24.9017C42.2501 25.245 42.6506 25.7331 42.8871 26.3041C43.1236 26.8751 43.1855 27.5035 43.0649 28.1097C42.9444 28.7159 42.6467 29.2727 42.2097 29.7097C41.7727 30.1467 41.2158 30.4444 40.6097 30.565C40.0035 30.6855 39.3751 30.6236 38.8041 30.3871C38.2331 30.1506 37.745 29.7501 37.4017 29.2362C37.0583 28.7223 36.875 28.1181 36.875 27.5C36.875 26.6712 37.2042 25.8763 37.7903 25.2903C38.3763 24.7042 39.1712 24.375 40 24.375Z" fill="#783BFF"/>
<path d="M39.2188 19.6875H40.7812V21.25H39.2188V19.6875Z" fill="#783BFF"/>
<path d="M33.9206 22.5297L35.0253 21.425L36.1299 22.5297L35.0253 23.6344L33.9206 22.5297Z" fill="#783BFF"/>
<path d="M32.1875 26.7188H33.75V28.2812H32.1875V26.7188Z" fill="#783BFF"/>
<path d="M33.9195 32.4724L35.0242 31.3677L36.1289 32.4724L35.0242 33.5771L33.9195 32.4724Z" fill="#783BFF"/>
<path d="M39.2188 33.75H40.7812V35.3125H39.2188V33.75Z" fill="#783BFF"/>
<path d="M43.8607 32.4672L44.9654 31.3625L46.0701 32.4672L44.9654 33.5719L43.8607 32.4672Z" fill="#783BFF"/>
<path d="M46.25 26.7188H47.8125V28.2812H46.25V26.7188Z" fill="#783BFF"/>
<path d="M43.8633 22.5307L44.968 21.426L46.0727 22.5307L44.968 23.6354L43.8633 22.5307Z" fill="#783BFF"/>
<path d="M54.0625 22.8125C54.0625 22.6053 54.1448 22.4066 54.2913 22.2601C54.4378 22.1136 54.6365 22.0313 54.8437 22.0313H59.2078L58.1977 23.0414L59.3023 24.1461L61.6461 21.8024C61.7926 21.6559 61.8748 21.4572 61.8748 21.25C61.8748 21.0429 61.7926 20.8442 61.6461 20.6977L59.3023 18.3539L58.1977 19.4586L59.2078 20.4688H54.8437C54.2221 20.4688 53.626 20.7157 53.1865 21.1553C52.7469 21.5948 52.5 22.1909 52.5 22.8125V30.625H54.0625V22.8125Z" fill="#783BFF"/>
<path d="M52.5 32.1875H54.0625V33.75H52.5V32.1875Z" fill="#783BFF"/>
<path d="M52.5 35.3125H54.0625V36.875H52.5V35.3125Z" fill="#783BFF"/>
<path d="M55.625 23.5938H57.1875V25.1562H55.625V23.5938Z" fill="#783BFF"/>
<path d="M55.625 26.7188H57.1875V28.2812H55.625V26.7188Z" fill="#783BFF"/>
<path d="M20.6976 24.1461L21.8023 23.0414L20.7922 22.0313H25.1562C25.3634 22.0313 25.5622 22.1136 25.7087 22.2601C25.8552 22.4066 25.9375 22.6053 25.9375 22.8125V30.625H27.5V22.8125C27.5 22.1909 27.2531 21.5948 26.8135 21.1553C26.374 20.7157 25.7778 20.4688 25.1562 20.4688H20.7922L21.8023 19.4586L20.6976 18.3539L18.3539 20.6977C18.2074 20.8442 18.1252 21.0429 18.1252 21.25C18.1252 21.4572 18.2074 21.6559 18.3539 21.8024L20.6976 24.1461Z" fill="#783BFF"/>
<path d="M25.9375 32.1875H27.5V33.75H25.9375V32.1875Z" fill="#783BFF"/>
<path d="M25.9375 35.3125H27.5V36.875H25.9375V35.3125Z" fill="#783BFF"/>
<path d="M22.8125 23.5938H24.375V25.1562H22.8125V23.5938Z" fill="#783BFF"/>
<path d="M22.8125 26.7188H24.375V28.2812H22.8125V26.7188Z" fill="#783BFF"/>
<path d="M35.5414 40.2289L33.1977 42.5727L34.3024 43.6774L35.3125 42.6672V48.5938H36.875V42.6672L37.8852 43.6774L38.9899 42.5727L36.6461 40.2289C36.4996 40.0825 36.3009 40.0002 36.0938 40.0002C35.8866 40.0002 35.6879 40.0825 35.5414 40.2289Z" fill="#783BFF"/>
<path d="M35.3125 50.1562H36.875V51.7188H35.3125V50.1562Z" fill="#783BFF"/>
<path d="M35.3125 53.2812H36.875V54.8438H35.3125V53.2812Z" fill="#783BFF"/>
<path d="M46.8024 42.5727L44.4586 40.2289C44.3121 40.0825 44.1134 40.0002 43.9063 40.0002C43.6991 40.0002 43.5004 40.0825 43.3539 40.2289L41.0102 42.5727L42.1149 43.6774L43.125 42.6672V48.5938H44.6875V42.6672L45.6977 43.6774L46.8024 42.5727Z" fill="#783BFF"/>
<path d="M43.125 50.1562H44.6875V51.7188H43.125V50.1562Z" fill="#783BFF"/>
<path d="M43.125 53.2812H44.6875V54.8438H43.125V53.2812Z" fill="#783BFF"/>
</svg>
