<svg width="80" height="80" viewBox="0 0 80 80" fill="none" xmlns="http://www.w3.org/2000/svg">
<path fill-rule="evenodd" clip-rule="evenodd" d="M40 80C62.0914 80 80 62.0914 80 40C80 17.9086 62.0914 0 40 0C17.9086 0 0 17.9086 0 40C0 62.0914 17.9086 80 40 80Z" fill="#FFE6DF"/>
<path d="M22.0312 54.8438V49.375H20.4688V54.8438C20.47 55.8794 20.8819 56.8722 21.6142 57.6045C22.3465 58.3368 23.3394 58.7488 24.375 58.75H36.875V57.1875H24.375C23.7534 57.1875 23.1573 56.9406 22.7177 56.501C22.2782 56.0615 22.0312 55.4654 22.0312 54.8438Z" fill="#FF6D43"/>
<path d="M25.1562 19.6875H26.7188V21.25H25.1562V19.6875Z" fill="#FF6D43"/>
<path d="M28.2812 19.6875H29.8438V21.25H28.2812V19.6875Z" fill="#FF6D43"/>
<path d="M31.4062 19.6875H32.9688V21.25H31.4062V19.6875Z" fill="#FF6D43"/>
<path d="M55.625 16.5625H24.375C23.339 16.5625 22.3454 16.9741 21.6129 17.7066C20.8803 18.4392 20.4688 19.4327 20.4688 20.4688V24.375H57.9688V43.125H59.5312V20.4688C59.5312 19.4327 59.1197 18.4392 58.3871 17.7066C57.6546 16.9741 56.661 16.5625 55.625 16.5625ZM57.9688 22.8125H22.0312V20.4688C22.0331 19.8477 22.2806 19.2527 22.7198 18.8135C23.1589 18.3744 23.754 18.1269 24.375 18.125H55.625C56.246 18.1269 56.8411 18.3744 57.2802 18.8135C57.7194 19.2527 57.9669 19.8477 57.9688 20.4688V22.8125Z" fill="#FF6D43"/>
<path d="M32.1875 45.4688V28.2812C32.1875 27.6596 31.9406 27.0635 31.501 26.624C31.0615 26.1844 30.4654 25.9375 29.8438 25.9375H18.9062C18.2846 25.9375 17.6885 26.1844 17.249 26.624C16.8094 27.0635 16.5625 27.6596 16.5625 28.2812V45.4688C16.5625 46.0904 16.8094 46.6865 17.249 47.126C17.6885 47.5656 18.2846 47.8125 18.9062 47.8125H29.8438C30.4654 47.8125 31.0615 47.5656 31.501 47.126C31.9406 46.6865 32.1875 46.0904 32.1875 45.4688ZM18.125 45.4688V28.2812C18.125 28.074 18.2073 27.8753 18.3538 27.7288C18.5003 27.5823 18.699 27.5 18.9062 27.5H29.8438C30.051 27.5 30.2497 27.5823 30.3962 27.7288C30.5427 27.8753 30.625 28.074 30.625 28.2812V45.4688C30.625 45.676 30.5427 45.8747 30.3962 46.0212C30.2497 46.1677 30.051 46.25 29.8438 46.25H18.9062C18.699 46.25 18.5003 46.1677 18.3538 46.0212C18.2073 45.8747 18.125 45.676 18.125 45.4688Z" fill="#FF6D43"/>
<path d="M28.2812 35.3125H20.4688C20.2615 35.3125 20.0628 35.3948 19.9163 35.5413C19.7698 35.6878 19.6875 35.8865 19.6875 36.0938V43.9062C19.6875 44.1135 19.7698 44.3122 19.9163 44.4587C20.0628 44.6052 20.2615 44.6875 20.4688 44.6875H28.2812C28.4885 44.6875 28.6872 44.6052 28.8337 44.4587C28.9802 44.3122 29.0625 44.1135 29.0625 43.9062V36.0938C29.0625 35.8865 28.9802 35.6878 28.8337 35.5413C28.6872 35.3948 28.4885 35.3125 28.2812 35.3125ZM27.5 39.2188H25.1562V36.875H27.5V39.2188ZM23.5938 36.875V39.2188H21.25V36.875H23.5938ZM21.25 40.7812H23.5938V43.125H21.25V40.7812ZM25.1562 43.125V40.7812H27.5V43.125H25.1562Z" fill="#FF6D43"/>
<path d="M28.2812 29.0625H20.4688C20.2615 29.0625 20.0628 29.1448 19.9163 29.2913C19.7698 29.4378 19.6875 29.6365 19.6875 29.8438V32.9688C19.6875 33.176 19.7698 33.3747 19.9163 33.5212C20.0628 33.6677 20.2615 33.75 20.4688 33.75H28.2812C28.4885 33.75 28.6872 33.6677 28.8337 33.5212C28.9802 33.3747 29.0625 33.176 29.0625 32.9688V29.8438C29.0625 29.6365 28.9802 29.4378 28.8337 29.2913C28.6872 29.1448 28.4885 29.0625 28.2812 29.0625ZM27.5 32.1875H21.25V30.625H27.5V32.1875Z" fill="#FF6D43"/>
<path d="M61.875 44.6875H40C39.586 44.6887 39.1893 44.8538 38.8965 45.1465C38.6038 45.4393 38.4387 45.836 38.4375 46.25V61.875C38.4387 62.289 38.6038 62.6857 38.8965 62.9785C39.1893 63.2712 39.586 63.4363 40 63.4375H61.875C62.289 63.4363 62.6857 63.2712 62.9785 62.9785C63.2712 62.6857 63.4363 62.289 63.4375 61.875V46.25C63.4363 45.836 63.2712 45.4393 62.9785 45.1465C62.6857 44.8538 62.289 44.6887 61.875 44.6875ZM40 46.25H42.2344C42.0928 46.7868 41.8114 47.2764 41.4189 47.6689C41.0264 48.0614 40.5368 48.3428 40 48.4844V46.25ZM40 54.9453C40.5383 55.0863 41.0293 55.3684 41.4221 55.7626C41.8149 56.1568 42.0953 56.6487 42.2344 57.1875H40V54.9453ZM47.8125 61.875H40V61.0938H47.8125V61.875ZM47.8125 59.5312H40V58.75H47.8125V59.5312ZM52.5 61.875H49.375V58.75H52.5V61.875ZM61.875 61.875H54.0625V61.0938H61.875V61.875ZM61.875 59.5312H54.0625V58.75H61.875V59.5312ZM61.875 57.1875H59.6406C59.7822 56.6507 60.0636 56.1611 60.4561 55.7686C60.8486 55.3761 61.3382 55.0947 61.875 54.9531V57.1875ZM61.875 53.3516C60.9165 53.5135 60.0321 53.9699 59.3447 54.6572C58.6574 55.3446 58.201 56.229 58.0391 57.1875H43.8359C43.674 56.229 43.2176 55.3446 42.5303 54.6572C41.8429 53.9699 40.9585 53.5135 40 53.3516V50.0859C40.9585 49.924 41.8429 49.4676 42.5303 48.7803C43.2176 48.0929 43.674 47.2085 43.8359 46.25H58.0391C58.201 47.2085 58.6574 48.0929 59.3447 48.7803C60.0321 49.4676 60.9165 49.924 61.875 50.0859V53.3516ZM61.875 48.4844C61.3382 48.3428 60.8486 48.0614 60.4561 47.6689C60.0636 47.2764 59.7822 46.7868 59.6406 46.25H61.875V48.4844Z" fill="#FF6D43"/>
<path d="M50.9375 47.8125C50.1649 47.8125 49.4097 48.0416 48.7673 48.4708C48.1249 48.9 47.6243 49.5101 47.3286 50.2239C47.0329 50.9377 46.9556 51.7231 47.1063 52.4808C47.257 53.2386 47.6291 53.9346 48.1754 54.4809C48.7217 55.0272 49.4177 55.3992 50.1754 55.55C50.9332 55.7007 51.7186 55.6233 52.4324 55.3277C53.1461 55.032 53.7562 54.5313 54.1854 53.889C54.6146 53.2466 54.8437 52.4913 54.8437 51.7188C54.8425 50.6831 54.4305 49.6903 53.6983 48.958C52.966 48.2257 51.9731 47.8137 50.9375 47.8125ZM50.9375 54.0625C50.4739 54.0625 50.0208 53.9251 49.6354 53.6675C49.25 53.41 48.9495 53.0439 48.7722 52.6157C48.5948 52.1874 48.5483 51.7162 48.6388 51.2615C48.7292 50.8069 48.9524 50.3893 49.2802 50.0615C49.608 49.7337 50.0256 49.5105 50.4803 49.42C50.9349 49.3296 51.4061 49.376 51.8344 49.5534C52.2627 49.7308 52.6287 50.0312 52.8862 50.4166C53.1438 50.8021 53.2812 51.2552 53.2812 51.7188C53.2812 52.3404 53.0343 52.9365 52.5948 53.376C52.1552 53.8156 51.5591 54.0625 50.9375 54.0625Z" fill="#FF6D43"/>
<path d="M38.4375 29.8438H40C40.2072 29.8438 40.4059 29.9261 40.5524 30.0726C40.6989 30.2191 40.7812 30.4178 40.7812 30.625H42.3438C42.3438 30.0034 42.0968 29.4073 41.6573 28.9677C41.2177 28.5282 40.6216 28.2812 40 28.2812V27.5H38.4375V28.2812C37.8159 28.2812 37.2198 28.5282 36.7802 28.9677C36.3407 29.4073 36.0938 30.0034 36.0938 30.625C36.0938 31.2466 36.3407 31.8427 36.7802 32.2823C37.2198 32.7218 37.8159 32.9688 38.4375 32.9688H40C40.2072 32.9688 40.4059 33.0511 40.5524 33.1976C40.6989 33.3441 40.7812 33.5428 40.7812 33.75C40.7812 33.9572 40.6989 34.1559 40.5524 34.3024C40.4059 34.4489 40.2072 34.5312 40 34.5312H38.4375C38.2303 34.5312 38.0316 34.4489 37.8851 34.3024C37.7386 34.1559 37.6562 33.9572 37.6562 33.75H36.0938C36.0938 34.3716 36.3407 34.9677 36.7802 35.4073C37.2198 35.8468 37.8159 36.0938 38.4375 36.0938V36.875H40V36.0938C40.6216 36.0938 41.2177 35.8468 41.6573 35.4073C42.0968 34.9677 42.3438 34.3716 42.3438 33.75C42.3438 33.1284 42.0968 32.5323 41.6573 32.0927C41.2177 31.6532 40.6216 31.4062 40 31.4062H38.4375C38.2303 31.4062 38.0316 31.3239 37.8851 31.1774C37.7386 31.0309 37.6562 30.8322 37.6562 30.625C37.6562 30.4178 37.7386 30.2191 37.8851 30.0726C38.0316 29.9261 38.2303 29.8438 38.4375 29.8438Z" fill="#FF6D43"/>
<path d="M43.9062 34.5312H54.8438V36.0938H43.9062V34.5312Z" fill="#FF6D43"/>
<path d="M43.9062 31.4062H54.8438V32.9688H43.9062V31.4062Z" fill="#FF6D43"/>
<path d="M43.9062 28.2812H45.4688V29.8438H43.9062V28.2812Z" fill="#FF6D43"/>
<path d="M47.0312 28.2812H54.8438V29.8438H47.0312V28.2812Z" fill="#FF6D43"/>
</svg>
