<?xml version="1.0" encoding="utf-8"?>
<!-- Generator: Adobe Illustrator 21.0.0, SVG Export Plug-In . SVG Version: 6.00 Build 0)  -->
<svg version="1.1" id="Capa_1" xmlns="http://www.w3.org/2000/svg" xmlns:xlink="http://www.w3.org/1999/xlink" x="0px" y="0px"
	 viewBox="0 0 58.8 58.8" style="enable-background:new 0 0 58.8 58.8;" xml:space="preserve">
<style type="text/css">
	.st0{fill:#2952FF;}
	.st1{display:none;fill:#2952FF;}
</style>
<g>
	<path class="st0" d="M58.5,32c0.3-2.3,0.4-4.6,0.1-6.8c0-0.1,0-0.1,0-0.2C58,19.8,55.9,14.8,52,11c-0.7-0.7-1.4-1.3-2.3-2
		c-0.6-0.8-1.3-1.6-2-2.3C37.9-3.2,20.6-2,9.3,9.3C-2,20.6-3.2,37.9,6.8,47.8c0.7,0.7,1.5,1.3,2.2,1.9c0.6,0.8,1.3,1.6,2,2.3
		c3.4,3.4,7.6,5.4,12.1,6.3c0,0,0,0,0.1,0c0.1,0,0.2,0,0.3,0c0,0,0,0,0.1,0c0,0,0,0,0,0c1.5,0.3,3,0.4,4.5,0.4c0.9,0,1.8,0,2.8-0.1
		c0,0,0,0,0,0c0,0,0.1,0,0.1,0c2.4-0.3,4.7-0.8,7-1.7c0,0,0.1,0,0.1,0c1.6-0.6,3.2-1.3,4.7-2.2c0.1,0,0.2-0.1,0.3-0.2
		c1.5-0.9,2.9-1.9,4.3-3c0,0,0,0,0,0c0,0,0,0,0,0c0.8-0.6,1.5-1.3,2.2-2c3.1-3.1,5.5-6.7,7-10.4c0,0,0-0.1,0-0.1
		c0.9-2.2,1.5-4.5,1.9-6.8C58.5,32.2,58.5,32.1,58.5,32z M55.3,36.9l-2.7-2.7c0.1-0.4,0.3-0.7,0.4-1.1c0.1-0.2,0.1-0.3,0.2-0.5
		c0.1-0.4,0.3-0.9,0.4-1.3c0-0.2,0.1-0.3,0.1-0.5c0.1-0.3,0.2-0.7,0.2-1l2.5,2.5C56.2,33.9,55.8,35.4,55.3,36.9z M53.1,41.7L50.3,39
		c0.1-0.1,0.1-0.2,0.2-0.3c0,0,0.1-0.1,0.1-0.1c0.3-0.5,0.6-1.1,0.9-1.7c0.1-0.1,0.1-0.2,0.2-0.4c0-0.1,0.1-0.2,0.2-0.3l2.7,2.7
		C54.1,39.9,53.6,40.8,53.1,41.7z M50.2,45.9l-2.8-2.8c0.3-0.3,0.5-0.7,0.8-1c0,0,0,0,0.1-0.1c0.3-0.4,0.7-0.9,1-1.4l2.8,2.8
		C51.4,44.3,50.8,45.1,50.2,45.9z M54.3,27.5c0-0.2,0-0.4,0.1-0.6c0.1-0.5,0.1-1,0.1-1.4c0-0.3,0-0.5,0-0.8c0-0.3,0-0.6,0-0.8
		c0-0.1,0-0.2,0-0.3l2.1,2.1c0.1,1.4,0.2,2.8,0,4.3L54.3,27.5z M53.3,15.8c1.3,2,2.2,4.1,2.8,6.4l-1.7-1.7c0-0.2,0-0.3-0.1-0.5
		c0-0.3-0.1-0.5-0.1-0.8c-0.1-0.5-0.2-0.9-0.3-1.4c0-0.2-0.1-0.4-0.2-0.6c-0.1-0.4-0.2-0.7-0.3-1.1C53.4,16,53.4,15.9,53.3,15.8z
		 M10.7,10.7C16.4,4.9,23.8,2,30.8,2c5.8,0,11.4,2,15.6,6.2C47,8.8,47.5,9.3,48,10l0.3,0.3c0,0,0,0.1,0.1,0.1
		c0.4,0.6,0.8,1.2,1.2,1.8c0,0,0,0,0,0c0.4,0.6,0.7,1.2,1,1.9c0,0,0,0.1,0,0.1c0.3,0.6,0.5,1.2,0.8,1.9c0,0.1,0,0.1,0.1,0.2
		c0.2,0.6,0.4,1.1,0.5,1.7c0,0.1,0.1,0.3,0.1,0.4c0.1,0.6,0.2,1.1,0.3,1.7c0,0.2,0.1,0.4,0.1,0.6c0.1,0.5,0.1,1.1,0.2,1.6
		c0,0.2,0,0.4,0,0.7c0,0.5,0,1.1,0,1.6c0,0.2,0,0.4,0,0.7c0,0.6-0.1,1.1-0.1,1.7c0,0.2-0.1,0.4-0.1,0.6c-0.1,0.6-0.2,1.2-0.3,1.8
		c0,0.1-0.1,0.3-0.1,0.4c-0.1,0.6-0.3,1.2-0.5,1.8c0,0.1,0,0.2-0.1,0.3c-0.2,0.6-0.4,1.3-0.7,1.9c0,0.1-0.1,0.2-0.1,0.3
		c-0.3,0.6-0.5,1.3-0.8,1.9c0,0.1-0.1,0.2-0.1,0.3c-0.3,0.6-0.7,1.2-1,1.9c-0.1,0.1-0.1,0.2-0.2,0.3c-0.4,0.6-0.8,1.2-1.2,1.8
		c-0.1,0.1-0.1,0.2-0.2,0.2c-0.4,0.6-0.9,1.2-1.4,1.8c0,0.1-0.1,0.1-0.1,0.2c-0.5,0.6-1,1.2-1.6,1.7c-0.6,0.6-1.2,1.1-1.8,1.6
		c-0.1,0-0.1,0.1-0.2,0.1c-0.6,0.5-1.2,1-1.8,1.4c-0.1,0.1-0.1,0.1-0.2,0.2c-0.6,0.4-1.2,0.8-1.8,1.2c-0.1,0-0.2,0.1-0.2,0.2
		c-0.6,0.4-1.2,0.7-1.9,1c-0.1,0-0.2,0.1-0.3,0.1c-0.6,0.3-1.3,0.6-1.9,0.9c-0.1,0-0.2,0.1-0.2,0.1c-0.7,0.3-1.3,0.5-2,0.7
		c-0.1,0-0.1,0-0.2,0c-0.6,0.2-1.2,0.3-1.9,0.5c-0.1,0-0.2,0.1-0.4,0.1c-0.6,0.1-1.2,0.2-1.8,0.3c-0.2,0-0.4,0.1-0.5,0.1
		c-0.6,0.1-1.1,0.1-1.7,0.1c-0.2,0-0.4,0-0.6,0c-0.6,0-1.1,0-1.7,0c-0.2,0-0.4,0-0.6,0c-0.6,0-1.1-0.1-1.6-0.2
		c-0.2,0-0.4-0.1-0.5-0.1c-0.6-0.1-1.1-0.2-1.7-0.3c-0.1,0-0.3-0.1-0.4-0.1c-0.6-0.2-1.2-0.3-1.8-0.5c0,0-0.1,0-0.1,0
		c-0.6-0.2-1.3-0.5-1.9-0.8c0,0,0,0-0.1,0c-0.6-0.3-1.3-0.6-1.9-1c0,0,0,0,0,0c-0.6-0.4-1.2-0.8-1.8-1.2c0,0,0,0-0.1-0.1L10,48
		c-0.6-0.5-1.2-1-1.8-1.6C-1,37.2,0.2,21.2,10.7,10.7z M42.6,52.5l-2.8-2.8c0.1-0.1,0.3-0.2,0.4-0.3c0,0,0.1-0.1,0.1-0.1
		c0.5-0.4,1.1-0.7,1.6-1.1c0.1-0.1,0.2-0.2,0.4-0.3c0,0,0,0,0,0l2.8,2.8C44.3,51.4,43.5,52,42.6,52.5z M37.9,54.9l-2.7-2.7
		c0.5-0.2,0.9-0.4,1.4-0.6c0.1-0.1,0.2-0.1,0.3-0.2c0.4-0.2,0.7-0.4,1.1-0.6l2.8,2.8C39.9,54.1,38.9,54.5,37.9,54.9z M31.2,56.6
		l-2.5-2.5c0.2,0,0.4-0.1,0.6-0.1c0.5-0.1,1.1-0.2,1.6-0.4c0.2,0,0.3-0.1,0.5-0.1c0.4-0.1,0.8-0.2,1.3-0.4c0.2-0.1,0.3-0.1,0.5-0.2
		l2.7,2.7C34.3,56.1,32.7,56.4,31.2,56.6z M16.5,53.5c0.2,0.1,0.4,0.1,0.6,0.2c0.6,0.2,1.1,0.3,1.7,0.4l1.4,1.4
		c-1.5-0.5-3-1.2-4.3-2.1C16,53.4,16.3,53.5,16.5,53.5z M24,56.5l-2-2c0.6,0,1.1,0.1,1.7,0.1c0,0,0.1,0,0.1,0c0.2,0,0.5,0,0.7,0
		c0.5,0,0.9,0,1.4-0.1c0.1,0,0.2,0,0.3,0l2.3,2.3C27,56.8,25.4,56.7,24,56.5z M46.7,49.5l-2.8-2.8c0,0,0,0,0,0
		c0.5-0.4,1-0.9,1.4-1.3c0.2-0.2,0.5-0.5,0.7-0.7l2.8,2.8c-0.2,0.2-0.4,0.5-0.7,0.7C47.7,48.6,47.2,49.1,46.7,49.5z"/>
	<path class="st0" d="M8.9,21.3c0.1,0.1,0.3,0.1,0.4,0.1c0.4,0,0.7-0.2,0.9-0.6c0.3-0.6,0.6-1.1,0.9-1.7c0.3-0.5,0.1-1.1-0.3-1.4
		s-1.1-0.1-1.4,0.3c-0.4,0.6-0.7,1.2-1,1.8C8.2,20.5,8.4,21.1,8.9,21.3z"/>
	<path class="st0" d="M14,15c0.3,0,0.5-0.1,0.7-0.3c0.4-0.4,0.9-0.9,1.4-1.3c0.4-0.4,0.5-1,0.1-1.4c-0.4-0.4-1-0.5-1.4-0.1
		c-0.5,0.4-1,0.9-1.5,1.4l0.7,0.7l-0.7-0.7c-0.4,0.4-0.4,1,0,1.4C13.4,14.9,13.7,15,14,15z"/>
	<path class="st0" d="M10.2,40.3c-0.4,0.3-0.5,1-0.2,1.4c0.4,0.5,0.9,1.1,1.3,1.5c0,0,0.1,0.1,0.1,0.1c0.2,0.2,0.4,0.3,0.7,0.3
		c0.3,0,0.5-0.1,0.7-0.3c0.4-0.4,0.4-1,0-1.4c-0.4-0.4-0.8-0.9-1.2-1.4C11.2,40,10.6,39.9,10.2,40.3z"/>
	<path class="st0" d="M46.4,26.5c-0.1,0.6-0.2,1.2-0.3,1.9c-0.1,0.5,0.2,1.1,0.8,1.2c0.1,0,0.1,0,0.2,0c0.5,0,0.9-0.3,1-0.8
		c0.1-0.7,0.2-1.4,0.3-2.1c0.1-0.5-0.3-1-0.9-1.1C47,25.6,46.5,26,46.4,26.5z"/>
	<path class="st0" d="M16.1,45.5c-0.2,0.5,0,1.1,0.5,1.3c0.6,0.3,1.3,0.5,2,0.8c0.1,0,0.2,0,0.3,0c0.4,0,0.8-0.3,1-0.7
		c0.2-0.5-0.1-1.1-0.6-1.3c-0.6-0.2-1.2-0.4-1.7-0.7C16.9,44.8,16.3,45,16.1,45.5z"/>
	<path class="st0" d="M46.1,20.9c0.1,0.5,0.5,0.8,1,0.8c0.1,0,0.1,0,0.2,0c0.5-0.1,0.9-0.6,0.8-1.2c-0.1-0.7-0.3-1.4-0.5-2
		c-0.2-0.5-0.7-0.8-1.3-0.6c-0.5,0.2-0.8,0.7-0.6,1.3C45.9,19.7,46,20.3,46.1,20.9z"/>
	<path class="st0" d="M8.9,35.5c-0.2-0.6-0.4-1.2-0.5-1.8c-0.1-0.5-0.6-0.9-1.2-0.8c-0.5,0.1-0.9,0.6-0.8,1.2c0.1,0.7,0.3,1.4,0.5,2
		c0.1,0.4,0.5,0.7,0.9,0.7c0.1,0,0.2,0,0.3,0C8.8,36.6,9.1,36,8.9,35.5z"/>
	<path class="st0" d="M7.2,29c0.5,0,0.9-0.4,1-0.9c0.1-0.6,0.2-1.2,0.3-1.9c0.1-0.5-0.3-1.1-0.8-1.2c-0.5-0.1-1.1,0.3-1.2,0.8
		c-0.1,0.7-0.2,1.4-0.3,2.1C6.1,28.5,6.5,28.9,7.2,29C7.1,29,7.1,29,7.2,29z"/>
	<path class="st0" d="M24.7,48.5C24.7,48.5,24.7,48.5,24.7,48.5c0.7,0,1.4,0,2.1-0.1c0.5-0.1,1-0.5,0.9-1.1
		c-0.1-0.5-0.5-0.9-1.1-0.9c-0.6,0.1-1.3,0.1-1.9,0.1c-0.6,0-1,0.5-1,1C23.7,48.1,24.1,48.5,24.7,48.5z"/>
	<path class="st0" d="M32.4,47c0.1,0,0.2,0,0.4-0.1c0.6-0.2,1.3-0.5,1.9-0.8c0.5-0.2,0.7-0.8,0.5-1.3s-0.8-0.7-1.3-0.5
		c-0.6,0.3-1.2,0.5-1.7,0.8c-0.5,0.2-0.8,0.8-0.6,1.3C31.6,46.8,32,47,32.4,47z"/>
	<path class="st0" d="M27.9,8.2c0,0,0.1,0,0.1,0c0.6-0.1,1.3-0.1,1.9-0.1c0.6,0,1-0.5,1-1c0-0.6-0.5-1-1-1c0,0,0,0,0,0
		c-0.7,0-1.4,0-2.1,0.1c-0.5,0.1-0.9,0.5-0.9,1.1C27,7.8,27.4,8.2,27.9,8.2z"/>
	<path class="st0" d="M20.3,10.4c0.1,0,0.3,0,0.4-0.1c0.6-0.3,1.1-0.5,1.7-0.8c0.5-0.2,0.8-0.8,0.6-1.3c-0.2-0.5-0.8-0.8-1.3-0.6
		c-0.6,0.3-1.3,0.5-1.9,0.8c-0.5,0.2-0.7,0.8-0.5,1.3C19.6,10.2,20,10.4,20.3,10.4z"/>
	<path class="st0" d="M43,14.2c0.2,0.3,0.5,0.4,0.8,0.4c0.2,0,0.4-0.1,0.6-0.2c0.4-0.3,0.5-1,0.2-1.4c-0.4-0.5-0.9-1.1-1.4-1.6
		L42.5,12l0.7-0.7c-0.4-0.4-1-0.4-1.4,0s-0.4,1,0,1.4C42.2,13.2,42.7,13.7,43,14.2z"/>
	<path class="st0" d="M44.3,33.7c-0.3,0.6-0.6,1.1-0.9,1.7c-0.3,0.5-0.1,1.1,0.3,1.4c0.2,0.1,0.3,0.1,0.5,0.1c0.3,0,0.7-0.2,0.9-0.5
		c0.4-0.6,0.7-1.2,1-1.8c0.2-0.5,0-1.1-0.5-1.3C45.2,33,44.6,33.3,44.3,33.7z"/>
	<path class="st0" d="M35.4,8.9c0.6,0.2,1.2,0.4,1.7,0.7c0.1,0.1,0.3,0.1,0.4,0.1c0.4,0,0.7-0.2,0.9-0.6c0.2-0.5,0-1.1-0.5-1.3
		c-0.6-0.3-1.3-0.5-2-0.8c-0.5-0.2-1.1,0.1-1.3,0.6S34.9,8.7,35.4,8.9z"/>
	<path class="st0" d="M38.4,42.6c0.2,0.2,0.5,0.4,0.8,0.4c0.2,0,0.5-0.1,0.6-0.2c0.5-0.4,1-0.9,1.5-1.4l0,0c0.4-0.4,0.4-1,0-1.4
		c-0.4-0.4-1-0.4-1.4,0c-0.4,0.4-0.9,0.9-1.4,1.3C38.1,41.5,38.1,42.2,38.4,42.6z"/>
	<path class="st1" d="M6.4,55.4c-1.7,0-3-1.3-3-3c0-0.6-0.4-1-1-1s-1,0.4-1,1c0,2.8,2.2,5,5,5c0.6,0,1-0.4,1-1S7,55.4,6.4,55.4z"/>
	<path class="st1" d="M52.4,2.4c1.7,0,3,1.8,3,4c0,0.6,0.4,1,1,1s1-0.4,1-1c0-3.3-2.2-6-5-6c-0.6,0-1,0.4-1,1S51.9,2.4,52.4,2.4z"/>
	<path class="st1" d="M57.4,45.4c0-0.6-0.4-1-1-1s-1,0.4-1,1c0,5-4,9-9,9c-0.6,0-1,0.4-1,1s0.4,1,1,1C52.5,56.4,57.4,51.5,57.4,45.4
		z"/>
	<path class="st1" d="M57.4,53.4c-0.6,0-1,0.4-1,1c0,1.1-1.4,2-3,2c-0.6,0-1,0.4-1,1s0.4,1,1,1c2.8,0,5-1.8,5-4
		C58.4,53.9,58,53.4,57.4,53.4z"/>
</g>
</svg>
