<?xml version="1.0" encoding="utf-8"?>
<!-- Generator: Adobe Illustrator 21.0.0, SVG Export Plug-In . SVG Version: 6.00 Build 0)  -->
<svg version="1.1" id="Layer_1" xmlns="http://www.w3.org/2000/svg" xmlns:xlink="http://www.w3.org/1999/xlink" x="0px" y="0px"
	 viewBox="0 0 330 330" style="enable-background:new 0 0 330 330;" xml:space="preserve">
<style type="text/css">
	.st0{fill:#2952FF;}
</style>
<path id="XMLID_22_" class="st0" d="M165,0C74,0,0,74,0,165s74,165,165,165s165-74,165-165S256,0,165,0z M85,190
	c-13.8,0-25-11.2-25-25s11.2-25,25-25s25,11.2,25,25S98.8,190,85,190z M165,190c-13.8,0-25-11.2-25-25s11.2-25,25-25s25,11.2,25,25
	S178.8,190,165,190z M245,190c-13.8,0-25-11.2-25-25s11.2-25,25-25s25,11.2,25,25S258.8,190,245,190z"/>
</svg>
