<?xml version="1.0" encoding="utf-8"?>
<!-- Generator: Adobe Illustrator 21.0.0, SVG Export Plug-In . SVG Version: 6.00 Build 0)  -->
<svg version="1.1" id="Capa_1" xmlns="http://www.w3.org/2000/svg" xmlns:xlink="http://www.w3.org/1999/xlink" x="0px" y="0px"
	 viewBox="0 0 334.9 334.9" style="enable-background:new 0 0 334.9 334.9;" xml:space="preserve">
<style type="text/css">
	.st0{fill:#2952FF;}
</style>
<g>
	<path class="st0" d="M333.2,156h-16.1V82.1c0-17.7-14.4-32.1-32.1-32.1h-21.8L241,9.9c-3.4-6.1-9.9-9.9-16.9-9.9
		c-3.3,0-6.5,0.8-9.4,2.4L129.3,50H33.8C16.1,50,1.7,64.4,1.7,82.1v220.7c0,17.7,14.4,32.1,32.1,32.1H285
		c17.7,0,32.1-14.4,32.1-32.1v-64.8h16.1L333.2,156L333.2,156z M285,62.8c9.9,0,18,7.5,19.1,17.1h-24.2l-9.5-17.1H285z M221,13.7
		c3-1.7,7.1-0.5,8.7,2.5l35.5,63.8H101.8L221,13.7z M304.3,302.7c0,10.6-8.7,19.3-19.3,19.3H33.8c-10.6,0-19.3-8.7-19.3-19.3V82.1
		c0-10.6,8.7-19.3,19.3-19.3h72.4L75.3,79.9H37.8c-3.6,0-6.4,2.9-6.4,6.4s2.9,6.4,6.4,6.4h14.4h234.8h17.2V156h-47
		c-21.8,0-39.6,17.8-39.6,39.6v2.8c0,21.8,17.8,39.6,39.6,39.6h47L304.3,302.7L304.3,302.7z M320.3,225.1h-3.2h-59.9
		c-14.7,0-26.7-12-26.7-26.7v-2.8c0-14.7,12-26.7,26.7-26.7h59.9h3.2V225.1z M277,197.5c0,7.8-6.4,14.2-14.2,14.2
		c-7.8,0-14.2-6.4-14.2-14.2s6.4-14.2,14.2-14.2C270.6,183.3,277,189.7,277,197.5z"/>
</g>
</svg>
