<?xml version="1.0" encoding="utf-8"?>
<!-- Generator: Adobe Illustrator 21.0.0, SVG Export Plug-In . SVG Version: 6.00 Build 0)  -->
<svg version="1.1" id="Layer_1" xmlns="http://www.w3.org/2000/svg" xmlns:xlink="http://www.w3.org/1999/xlink" x="0px" y="0px"
	 viewBox="0 0 480 480" style="enable-background:new 0 0 480 480;" xml:space="preserve">
<style type="text/css">
	.st0{fill:#9B9B9B;}
</style>
<path class="st0" d="M282.7,256H176v80h106.7c22.1,0,40-17.9,40-40S304.8,256,282.7,256z"/>
<path class="st0" d="M309.3,184c0-22.1-17.9-40-40-40H176v80h93.3C291.4,224,309.3,206.1,309.3,184z"/>
<path class="st0" d="M240,48C134,48,48,134,48,240s86,192,192,192s192-86,192-192C431.9,134,346,48.1,240,48z M296,360h-24v32h-24
	v-32h-32v32h-24v-32h-32c-4.4,0-8-3.6-8-8V128c0-4.4,3.6-8,8-8h32V88h24v32h32V88h24v32h8c27.8,0,52.4,17.8,60.9,44.2
	c8.5,26.4-0.9,55.3-23.4,71.5c29.3,10.4,46.9,40.5,41.6,71.2C353.8,337.6,327.1,360,296,360z"/>
<path class="st0" d="M240,0C107.5,0,0,107.5,0,240s107.5,240,240,240s240-107.5,240-240S372.5,0,240,0z M240,448
	c-114.9,0-208-93.1-208-208S125.1,32,240,32s208,93.1,208,208C447.9,354.8,354.8,447.9,240,448z"/>
</svg>
