<?xml version="1.0" encoding="utf-8"?>
<!-- Generator: Adobe Illustrator 21.0.0, SVG Export Plug-In . SVG Version: 6.00 Build 0)  -->
<svg version="1.1" id="Capa_1" xmlns="http://www.w3.org/2000/svg" xmlns:xlink="http://www.w3.org/1999/xlink" x="0px" y="0px"
	 viewBox="0 0 550.7 550.7" style="enable-background:new 0 0 550.7 550.7;" xml:space="preserve">
<style type="text/css">
	.st0{fill:#FFFFFF;}
</style>
<g>
	<path class="st0" d="M77.3,277.8c0-63,30-118.7,75.9-155.4c9.8-6.7,17.1,0,14.1,4.9c-31.8,74.7-8.6,148.1,45.3,162.8
		c-15.9-37.9-23.3-80.8-18.4-124.8c7.3-64.9,39.2-120.6,85.1-159.7c4.3-3.7,8.6-6.1,11.6-5.5l0,0c3.1,0.6,4.9,2.4,3.7,6.7
		c-3.7,12.9-6.1,26.3-7.3,39.8c-6.1,54.5,6.1,105.9,31.2,149.9c37.9,0,53.9-44.1,58.1-74.7c0-7.3,5.5-12.2,16.5-3.7
		c49,36.1,81.4,93.6,81.4,159.1c0,109.5-88.7,198.3-198.9,198.3C166.1,476.1,77.3,387.3,77.3,277.8z M481.2,507.3H70
		c-12.2,0-22,9.8-22,22s9.8,21.4,22,21.4h411.3c12.2,0,21.4-9.8,21.4-21.4C502.7,517.1,493.5,507.3,481.2,507.3z"/>
</g>
</svg>
