<?xml version="1.0" encoding="utf-8"?>
<!-- Generator: Adobe Illustrator 21.0.0, SVG Export Plug-In . SVG Version: 6.00 Build 0)  -->
<svg version="1.1" id="Layer_1" xmlns="http://www.w3.org/2000/svg" xmlns:xlink="http://www.w3.org/1999/xlink" x="0px" y="0px"
	 viewBox="0 0 511 511" style="enable-background:new 0 0 511 511;" xml:space="preserve">
<style type="text/css">
	.st0{fill:#FFFFFF;}
</style>
<path class="st0" d="M466.7,46.9C466.7,46.8,466.7,46.8,466.7,46.9c-17.2-17.2-35.3-31-51-38.8c-26.5-13.3-41.5-7.6-49.4-0.5
	L221.4,137l155,155l126.4-141.4C524.5,127.9,501.2,81.3,466.7,46.9z"/>
<path class="st0" d="M356.3,314.3L198.9,157c-17.2-11.4-37.5-17.3-58.4-16.7c-25.6,0.7-49.6,11.1-67.7,29.2
	c-8.2,8.3-12.8,19.2-12.8,30.9c0,11.5,4.7,22.8,12.8,30.9c0,0,0,0,0,0L282,440.5c8.2,8.2,19.2,12.8,30.9,12.8
	c11.5,0,22.8-4.7,30.9-12.8c18.1-18.1,28.5-42.2,29.2-67.7C373.6,351.9,367.7,331.6,356.3,314.3z"/>
<path class="st0" d="M50.3,402.4c-1.6,1.6-3,3.5-4.1,5.5L4.3,484.2c-3.9,7.1-2.7,15.8,3.1,21.5c5.7,5.7,14.4,7,21.5,3.1l76.3-41.9
	c2-1.1,3.8-2.5,5.4-4.1l75.8-75.5L126.1,327L50.3,402.4z"/>
</svg>
