<svg width="20" height="20" viewBox="0 0 20 20" fill="none" xmlns="http://www.w3.org/2000/svg">
<g clip-path="url(#clip0)">
<path d="M7.63178 3.94832C7.63178 4.42262 7.63178 6.53965 7.63178 6.53965H5.73329V9.70834H7.63178V19.1246H11.5317V9.7086H14.1487C14.1487 9.7086 14.3938 8.18924 14.5126 6.52796C14.172 6.52796 11.5464 6.52796 11.5464 6.52796C11.5464 6.52796 11.5464 4.68452 11.5464 4.3614C11.5464 4.03759 11.9716 3.60201 12.3919 3.60201C12.8114 3.60201 13.6967 3.60201 14.5167 3.60201C14.5167 3.17059 14.5167 1.67993 14.5167 0.303223C13.422 0.303223 12.1766 0.303223 11.6277 0.303223C7.53538 0.303004 7.63178 3.47484 7.63178 3.94832Z" fill="#3A46D8"/>
</g>
<defs>
<clipPath id="clip0">
<rect width="18.8214" height="18.8214" fill="white" transform="translate(0.714325 0.303223)"/>
</clipPath>
</defs>
</svg>
