<svg width="22" height="18" viewBox="0 0 22 18" fill="none" xmlns="http://www.w3.org/2000/svg">
<path d="M19.4272 3.04096C20.3714 2.47681 20.9966 1.70679 21.3028 0.72749C20.3843 1.20178 19.4692 1.52708 18.5554 1.70679C17.7339 0.846917 16.6939 0.410156 15.447 0.410156C14.2281 0.410156 13.1986 0.826444 12.3584 1.63627C11.5228 2.45179 11.101 3.44246 11.101 4.59919C11.101 4.95065 11.1466 5.26457 11.2377 5.53072C7.64314 5.41129 4.66791 3.95997 2.32373 1.16653C1.92641 1.8501 1.72775 2.54619 1.72775 3.26616C1.72775 4.74592 2.3693 5.91857 3.65007 6.77958C2.9197 6.7193 2.27581 6.53959 1.72775 6.24501C1.72775 7.30165 2.04677 8.18427 2.68599 8.96111C3.32754 9.72999 4.1514 10.2202 5.15755 10.4295C4.79295 10.5205 4.40849 10.5637 4.0135 10.5637C3.6489 10.5637 3.39065 10.5341 3.23756 10.4693C3.50634 11.3303 4.0135 12.0287 4.74621 12.5633C5.47658 13.1001 6.31679 13.3833 7.26101 13.4083C5.70445 14.5969 3.92469 15.185 1.91121 15.185C1.41807 15.185 1.06866 15.1781 0.857147 15.1417C2.84024 16.3951 5.0477 17.0173 7.49005 17.0173C9.98966 17.0173 12.1983 16.4008 14.1206 15.1679C16.0429 13.9418 17.4616 12.429 18.3731 10.6479C19.2893 8.86898 19.7427 7.0173 19.7427 5.08372V4.55142C20.6285 3.9031 21.3448 3.1729 21.8929 2.36648C21.0983 2.69974 20.2767 2.92608 19.4272 3.04096Z" fill="#3A46D8"/>
</svg>
