<svg width="47" height="47" viewBox="0 0 47 47" fill="none" xmlns="http://www.w3.org/2000/svg">
<path d="M23.4999 0C36.4793 0 47 10.5221 47 23.5001C47 36.4795 36.4793 47 23.4999 47C10.5205 47 0 36.4793 0 23.5001C0 10.5221 10.5207 0 23.4999 0Z" fill="#26A6D1"/>
<path d="M38.1919 15.8316C37.1653 16.2752 36.0607 16.5733 34.902 16.7085C36.0858 16.0196 36.9935 14.9312 37.4209 13.6315C36.3135 14.2704 35.0885 14.7331 33.7828 14.9813C32.7385 13.9018 31.2506 13.2275 29.6027 13.2275C26.442 13.2275 23.8776 15.7142 23.8776 18.7838C23.8776 19.22 23.9276 19.6445 24.0259 20.0514C19.2671 19.8194 15.046 17.6059 12.2231 14.244C11.7296 15.065 11.4475 16.0182 11.4475 17.0375C11.4475 18.9645 12.458 20.6682 13.9944 21.6626C13.0544 21.6333 12.1731 21.385 11.3991 20.9665V21.037C11.3991 23.7306 13.3731 25.9764 15.9933 26.4875C15.513 26.6138 15.0077 26.6829 14.4848 26.6829C14.1162 26.6829 13.7579 26.6492 13.4082 26.583C14.1367 28.792 16.2518 30.3988 18.7589 30.443C16.7982 31.9352 14.3291 32.8223 11.6458 32.8223C11.1831 32.8223 10.7278 32.7959 10.2783 32.7446C12.8149 34.322 15.8229 35.2429 19.0585 35.2429C29.5924 35.2429 35.3529 26.7711 35.3529 19.4273L35.3368 18.7076C36.4529 17.9261 37.4238 16.9479 38.1919 15.8316Z" fill="white"/>
</svg>
